<svg xmlns="http://www.w3.org/2000/svg" width="148" height="101"><defs><clipPath id="a"><path data-name="사각형 2011" fill="none" d="M0 0h100v100H0z"/></clipPath><clipPath id="b"><path data-name="사각형 2012" fill="none" d="M0 0h96.154v96.154H0z"/></clipPath><clipPath id="c"><path data-name="사각형 2016" fill="none" d="M0 0h45v40H0z"/></clipPath></defs><g data-name="그룹 1661"><g data-name="그룹 687"><g data-name="그룹 418"><g data-name="그룹 417" clip-path="url(#a)" transform="translate(24)"><path data-name="패스 3487" d="M97.1 50A47.1 47.1 0 1 0 50 97.1 47.1 47.1 0 0 0 97.1 50" fill="#ffffe6"/><circle data-name="타원 231" cx="47.1" cy="47.1" r="47.1" transform="translate(2.9 2.9)" fill="none" stroke="#f5c249" stroke-miterlimit="10" stroke-width="3"/><path data-name="패스 3488" d="M93.613 50A43.614 43.614 0 1 0 50 93.613 43.614 43.614 0 0 0 93.613 50" fill="#ffffe6"/><circle data-name="타원 232" cx="43.614" cy="43.614" r="43.614" transform="translate(6.387 6.386)" fill="none" stroke="#f5c249" stroke-miterlimit="10"/><g fill="#f6c34b"><path data-name="패스 3489" d="M43.771 38.989a6.258 6.258 0 0 1 6.23-.185 6.677 6.677 0 0 1 9.6 5.6 5.375 5.375 0 0 1 2.191 2.2c.011.019.018.04.028.06a6.429 6.429 0 0 1 .331.7c.029.072.047.151.073.224.07.2.142.395.195.6.04.158.063.324.092.487.024.132.058.26.075.4a7.425 7.425 0 0 1 0 1.854c-.017.135-.051.263-.075.4-.03.163-.052.329-.092.487-.033.131-.082.253-.123.38a81.591 81.591 0 0 1-12.3.85 81.594 81.594 0 0 1-12.3-.85c-.04-.127-.09-.25-.123-.381s-.048-.257-.073-.384c-.033-.165-.073-.327-.094-.5a7.416 7.416 0 0 1 0-1.853c.021-.173.062-.337.1-.506.025-.125.04-.254.072-.377.053-.206.124-.4.194-.6.026-.076.045-.156.074-.23a6.508 6.508 0 0 1 .346-.731c.005-.009.009-.021.015-.031a5.374 5.374 0 0 1 2.2-2.2 6.221 6.221 0 0 1 3.374-5.41m22 6.337a16.448 16.448 0 0 0-31.539 0c-5.439 1.115-8.9 2.8-8.9 4.675 0 .839.69 1.639 1.939 2.367a13.013 13.013 0 0 0 1.633.786q.619.252 1.33.486t1.508.45q.8.216 1.673.413c.268.059.542.117.819.175q1.405.289 2.976.525 1.526.228 3.189.4.553.058 1.119.109 1.133.1 2.317.177t2.398.118a100.224 100.224 0 0 0 7.514 0q1.226-.046 2.409-.121t2.317-.177q.567-.051 1.12-.109a77.03 77.03 0 0 0 3.189-.4q1.569-.236 2.976-.525c.278-.058.552-.116.819-.175q.876-.2 1.674-.413t1.508-.45q.711-.235 1.329-.486a12.9 12.9 0 0 0 1.633-.786c1.249-.727 1.939-1.527 1.939-2.367 0-1.88-3.463-3.56-8.9-4.675"/><path data-name="패스 3490" d="M56.231 61.013a6.259 6.259 0 0 1-6.231.185 6.258 6.258 0 0 1-6.233-.185 6.608 6.608 0 0 1-3.213-4.016 68.257 68.257 0 0 1-5.8-.819 16.448 16.448 0 0 0 30.487 0 68.721 68.721 0 0 1-5.8.819 6.607 6.607 0 0 1-3.21 4.016"/></g><path data-name="패스 3491" d="M23.334 74.432c1.594 1.755 1.894 3.2.874 4.126-.988.9-2.4.461-3.991-1.293-1.565-1.723-1.866-3.167-.878-4.064 1.02-.928 2.429-.492 3.994 1.231m-.377-5.3c.359-.326.8-.083 1.133.281.292.322.53.812.163 1.145l-.947.86.374.412.955-.866c.36-.327.8-.084 1.134.278.291.322.53.812.161 1.147l-.864.785a1.744 1.744 0 0 1 .272.234c.278.305.157.73-.194 1.05a.734.734 0 0 1-.959.043 12.654 12.654 0 0 1-1.977-1.83l-1.633-1.8a.723.723 0 0 1 .171-1.042.745.745 0 0 1 1.054-.07l.21.23Zm-1.614 7.11c.69.759 1.2.982 1.465.745s.064-.751-.625-1.508c-.659-.725-1.15-.97-1.412-.734s-.087.773.571 1.5m2.192-7.981a.871.871 0 0 1 1.249-1.135l3.3 3.634c.3.329.109.759-.2 1.041s-.747.424-1.046.094Zm5.118 3.4c.35-.319.876-.134 1.228.254s.486.927.135 1.247l-1.313 1.194.584.643c.315.345.149.722-.185 1.025-.351.32-.748.455-1.063.108l-.584-.643-1.094.994c-.433.393-.919.218-1.293-.193s-.5-.914-.07-1.307Z" fill="#f5c249"/></g></g><text transform="rotate(36.42 -79.13 106.98)" fill="#f5c249" font-size="1" font-family="SegoeUI, Segoe UI"><tspan x="0" y="0"> </tspan></text><g data-name="그룹 420"><g data-name="그룹 419" clip-path="url(#b)" fill="#f5c249" transform="translate(25.923 1.923)"><path data-name="패스 3492" d="M30.146 74.466c.425-.86.816-1.024 1.835-.521l2.826 1.394c.4.2.4.651.193 1.067s-.55.663-.949.466l-1.978-.977c-.24-.118-.284-.1-.4.134l-.293.594 1.907.941c.4.2.4.627.193 1.042s-.535.657-.935.46l-1.907-.941-.381.772c-.117.237-.126.282.128.42a10.984 10.984 0 0 0 2.351.925.682.682 0 0 1 .435.9c-.144.519-.519.776-.833.706a14.726 14.726 0 0 1-3.573-1.444c-.834-.473-1.122-.872-.667-1.793Zm6.549 1.879c.214-.434.75-.465 1.239-.223s.791.686.576 1.121l-3.918 7.948c-.258.524-.775.54-1.274.293s-.8-.665-.543-1.19l2.064-4.182-.8-.395c-.42-.208-.449-.626-.23-1.07.23-.466.576-.687 1-.481l.8.394Z"/><path data-name="패스 3493" d="m42.952 79.806-.014.1a3.485 3.485 0 0 0 1.268 3.73.712.712 0 0 1 .279.7 1.052 1.052 0 0 1-1.145.9 3.224 3.224 0 0 1-1.945-2.245 3.174 3.174 0 0 1-2.516 1.738 1.013 1.013 0 0 1-.791-1.129.828.828 0 0 1 .506-.617 3.905 3.905 0 0 0 2.233-3.419l.01-.065-1.4-.2c-.473-.07-.572-.552-.515-.946.061-.413.32-.8.76-.735l4.881.713c.44.065.577.52.518.923s-.3.824-.764.757Zm2.924-1.366c.072-.491.572-.686 1.113-.607s.953.408.882.9l-1.279 8.751c-.085.578-.563.765-1.113.684s-.966-.4-.881-.974Z"/><path data-name="패스 3494" d="M49.18 84.498c-.408.061-.653-.371-.708-.742-.052-.348.055-.844.463-.9l8.559-1.272c.407-.061.653.382.7.733.055.37-.053.853-.46.915Zm-.07-5.7c-.073-.492.409-.808.938-.886.55-.082 1.092.081 1.165.572l.217 1.462c.041.272.082.323.357.28l4.174-.618c.452-.068.727.269.791.7.069.469-.1.862-.55.93l-5.22.775c-.969.144-1.392.029-1.552-1.052Zm1.016 6.839c-.073-.492.419-.821.946-.9s1.1.095 1.168.585l.113.764c.039.262.077.29.353.248l4.229-.629c.474-.071.726.27.793.718s-.073.869-.546.939l-5.31.79c-.98.145-1.361.079-1.526-1.034Z"/></g></g><text transform="rotate(-19.95 262.12 -210.727)" fill="#f5c249" font-size="1" font-family="SegoeUI, Segoe UI"><tspan x="0" y="0"> </tspan></text><g data-name="그룹 422"><g data-name="그룹 421" clip-path="url(#b)" fill="#f5c249" transform="translate(25.923 1.923)"><path data-name="패스 3495" d="M65.384 73.159c-.223-.393.049-.839.495-1.091s.958-.253 1.181.142l4.412 7.777c.278.49.013.906-.443 1.164s-.956.276-1.233-.213l-2.192-3.865-.416.236 2.1 3.712c.278.489.017.89-.437 1.147s-.932.276-1.209-.213l-.963-1.7a.981.981 0 0 1-.444.886.892.892 0 0 1-.473.116 3.569 3.569 0 0 1-1.889-.8 3.244 3.244 0 0 1-.178 2.014.92.92 0 0 1-.353.417 1.057 1.057 0 0 1-1.337-.372.861.861 0 0 1-.044-.71c.315-.977.346-1.895-.7-3.737l-.169-.3-.726.412c-.417.236-.785-.074-.992-.44a.717.717 0 0 1 .153-1.037l3.081-1.747c.387-.219.768.046.969.4s.275.846-.132 1.076l-.6.341.147.259c1.017 1.793 1.988 2.22 2.958 2.328a.868.868 0 0 1 .268.089l-2.8-4.939c-.228-.4.03-.829.476-1.081s.943-.256 1.171.147l1.263 2.224.417-.237Z"/><path data-name="패스 3496" d="M68.615 72.876c-.866-.8-.884-1.122-.074-2l1.832-1.977c.817-.883 1.139-.887 2-.086l2.791 2.585c.866.8.868 1.123.066 1.989l-1.839 1.985c-.817.882-1.131.88-1.989.086Zm2.734-2.174c-.169-.157-.279-.183-.453 0l-.508.548c-.174.188-.139.3.031.452l2.023 1.874c.177.164.281.184.455 0l.507-.546c.158-.172.14-.3-.032-.456Zm.623-3.657c-.363-.337-.239-.86.131-1.261s.876-.556 1.24-.219l6.487 6.01a.858.858 0 0 1-.067 1.306c-.386.416-.875.57-1.3.173Z"/></g></g><text transform="translate(38.482 18.856)" fill="#c6a03d" font-size="1" font-family="SegoeUI, Segoe UI"><tspan x="0" y="0"> </tspan></text><g data-name="그룹 424"><g data-name="그룹 423" clip-path="url(#b)" fill="#f5c249" transform="translate(25.923 1.923)"><path data-name="패스 3497" d="m18.357 56.171 1.134-.317a2.691 2.691 0 0 1 .708.8 4.655 4.655 0 0 1 .523 1.2 3.027 3.027 0 0 1 .068 1.618 1.35 1.35 0 0 1-.99 1l-7.042 1.967a.658.658 0 0 1-.566-.193 3.5 3.5 0 0 1-.681-.782 9.192 9.192 0 0 1-1.2-2.705 5.509 5.509 0 0 1 .107-3.8 3.724 3.724 0 0 1 2.546-2.112 3.684 3.684 0 0 1 3.169.382 4.862 4.862 0 0 1 1.838 2.867 5.028 5.028 0 0 1 .167 1.013 4.015 4.015 0 0 1 .005.752.232.232 0 0 0 .18.014q.378-.107.036-1.7m-3.3 1.121a.368.368 0 0 0-.025-.178.257.257 0 0 0-.172-.187.707.707 0 0 0-.384.026l-.562.157a.873.873 0 0 0-.364.171.227.227 0 0 0-.056.242.455.455 0 0 0 .084.189.752.752 0 0 1 .123-.043Z"/><path data-name="패스 3498" d="M19.245 47.072a5.67 5.67 0 0 1-.642 2.519 4.434 4.434 0 0 1-1.786 1.809 5.518 5.518 0 0 1-2.932.619 5.12 5.12 0 0 1-3.906-1.659 5 5 0 0 1-1.147-3.56 4.864 4.864 0 0 1 1.547-3.653 5.247 5.247 0 0 1 3.812-1.25 5.175 5.175 0 0 1 3.924 1.581 5.008 5.008 0 0 1 1.13 3.594m-5.542-.479a5.267 5.267 0 0 0-1.059.039q-.29.06-.3.247a.318.318 0 0 0 .07.212c.092-.007.216-.019.371-.036s.482-.015.985 0l.5.015c.348.011.6.026.76.046l.407.051.184.021a.32.32 0 0 0 .083-.207c0-.125-.09-.213-.281-.266a5.3 5.3 0 0 0-1.055-.1Z"/><path data-name="패스 3499" d="m19.049 37.72 1.112.388a2.682 2.682 0 0 1 .122 1.063 4.642 4.642 0 0 1-.257 1.285 3.022 3.022 0 0 1-.869 1.367 1.348 1.348 0 0 1-1.385.257l-6.9-2.409a.66.66 0 0 1-.354-.482 3.526 3.526 0 0 1-.113-1.031 9.228 9.228 0 0 1 .559-2.908 5.505 5.505 0 0 1 2.257-3.056 3.726 3.726 0 0 1 3.3-.28 3.686 3.686 0 0 1 2.382 2.124 4.859 4.859 0 0 1-.128 3.4 4.975 4.975 0 0 1-.44.921 4.054 4.054 0 0 1-.425.621.226.226 0 0 0 .14.114q.371.13 1-1.378m-3.347-.963a.375.375 0 0 0 .081-.161.257.257 0 0 0-.035-.251.705.705 0 0 0-.331-.2l-.552-.192a.877.877 0 0 0-.4-.068.227.227 0 0 0-.183.166.46.46 0 0 0-.039.2.707.707 0 0 1 .126.035Z"/><path data-name="패스 3500" d="M22.308 28.797a.268.268 0 0 0 .052-.136l-.566-.413a4.557 4.557 0 0 1 .409-1.535 8.144 8.144 0 0 1 .912-1.628 3.175 3.175 0 0 1 1.41.177 5.163 5.163 0 0 1 1.38.648 2.549 2.549 0 0 1 .224.815 4.546 4.546 0 0 1 0 1.1 5.752 5.752 0 0 1-1.138 2.834 5.089 5.089 0 0 1-3.333 2.238 5.15 5.15 0 0 1-3.953-1.128 4.963 4.963 0 0 1-2.211-3.54 4.555 4.555 0 0 1 .172-1.847 5.747 5.747 0 0 1 .871-1.732 5.2 5.2 0 0 1 2.651-2.037 2.806 2.806 0 0 1 2.608.356 1.816 1.816 0 0 1 .859 1.427 3.023 3.023 0 0 1-1.59 2.514 1.5 1.5 0 0 1-.882.261 21.34 21.34 0 0 1-.787-.6.135.135 0 0 0-.038.039l-.032.043a.25.25 0 0 0-.055.186.616.616 0 0 0 .152.255 7.055 7.055 0 0 0 .883.708q1.784 1.3 2 1"/><path data-name="패스 3501" d="M31.32 24.592a5.694 5.694 0 0 1-2.39 1.024 4.44 4.44 0 0 1-2.521-.317 5.528 5.528 0 0 1-2.276-1.95 5.123 5.123 0 0 1-1.064-4.108 5.011 5.011 0 0 1 2.122-3.075 4.869 4.869 0 0 1 3.844-1 5.257 5.257 0 0 1 3.313 2.265 5.179 5.179 0 0 1 1.135 4.074 5.014 5.014 0 0 1-2.163 3.086m-2.995-4.689a5.336 5.336 0 0 0-.676-.817q-.225-.193-.377-.084a.319.319 0 0 0-.125.185c.061.068.147.16.254.272a9.659 9.659 0 0 1 .6.781l.293.406q.306.424.426.631l.207.353.1.159a.319.319 0 0 0 .215-.061c.1-.072.115-.2.039-.384a5.154 5.154 0 0 0-.561-.9Z"/><path data-name="패스 3502" d="m41.564 15.657 1.7.884a3.085 3.085 0 0 1-.163 1.993 2.294 2.294 0 0 1-1.448 1.145 2.62 2.62 0 0 1-1.5.069 2.951 2.951 0 0 1-1.6-1.134l-.5-.632a6.638 6.638 0 0 1-.81.172.224.224 0 0 0-.007.18q.062.2.674.042l.761.919.2.622a3.913 3.913 0 0 1-1.99 1.3 2.805 2.805 0 0 1-1.649.1 1.345 1.345 0 0 1-.933-.945l-2.235-6.962q-.1-.322.4-.819a6.406 6.406 0 0 1 1.411-1 10.759 10.759 0 0 1 1.877-.81 6.136 6.136 0 0 1 3.759-.215 3.235 3.235 0 0 1 2.172 2.234 2.747 2.747 0 0 1-.017 1.86 3.032 3.032 0 0 1-1.1 1.424q.075.235.361.143a1.474 1.474 0 0 0 .637-.57m-4.354-.441a.384.384 0 0 0 .176-.033.254.254 0 0 0 .18-.179.7.7 0 0 0-.042-.383l-.084-.263a.864.864 0 0 0-.185-.357.23.23 0 0 0-.244-.047.461.461 0 0 0-.185.093.784.784 0 0 1 .047.123Z"/><path data-name="패스 3503" d="m43.918 17.488.1-7.708q.005-.4.657-.657a4.012 4.012 0 0 1 1.53-.246 3.574 3.574 0 0 1 .935.13 1.9 1.9 0 0 1 .669.313 9.8 9.8 0 0 1 .572.823q.258.418 1.164 1.953a.249.249 0 0 0 .156-.052.194.194 0 0 0 .072-.164 1.121 1.121 0 0 0-.188-.437l-.821-1.441.005-.423a2.83 2.83 0 0 1 .97-.488 3.9 3.9 0 0 1 1.175-.162 3.143 3.143 0 0 1 1.589.374 1.432 1.432 0 0 1 .689 1.333l-.092 7.285a1 1 0 0 1-.649.953 3.3 3.3 0 0 1-1.456.251 4.433 4.433 0 0 1-.981-.12 2.459 2.459 0 0 1-.748-.286 17.559 17.559 0 0 1-1.075-1.583l-.777-1.318a.223.223 0 0 0-.227.236 1.286 1.286 0 0 0 .219.5l.952 1.567-.005.408a3.692 3.692 0 0 1-2.039.551 3.279 3.279 0 0 1-1.767-.43 1.292 1.292 0 0 1-.626-1.162"/></g></g><text transform="rotate(12.58 2.623 370.074)" fill="#f5c249" font-size="1" font-family="SegoeUI, Segoe UI"><tspan x="0" y="0"> </tspan></text><g data-name="그룹 426"><g data-name="그룹 425" clip-path="url(#b)" fill="#f5c249" transform="translate(25.923 1.923)"><path data-name="패스 3504" d="m59.744 19.539-.439 1.092a2.666 2.666 0 0 1-1.068.073 4.651 4.651 0 0 1-1.27-.317 3.023 3.023 0 0 1-1.326-.931 1.352 1.352 0 0 1-.192-1.4l2.728-6.78a.659.659 0 0 1 .5-.331 3.481 3.481 0 0 1 1.035-.059 9.187 9.187 0 0 1 2.878.694 5.5 5.5 0 0 1 2.948 2.4 3.723 3.723 0 0 1 .127 3.307 3.69 3.69 0 0 1-2.233 2.282 4.864 4.864 0 0 1-3.393-.288 4.969 4.969 0 0 1-.9-.482 4.139 4.139 0 0 1-.6-.454.231.231 0 0 0-.121.134q-.146.365 1.329 1.065m1.12-3.3a.379.379 0 0 0 .156.089.258.258 0 0 0 .252-.023.7.7 0 0 0 .212-.321l.219-.542a.876.876 0 0 0 .087-.392.23.23 0 0 0-.157-.191.475.475 0 0 0-.2-.048.659.659 0 0 1-.041.124Z"/><path data-name="패스 3505" d="M64.112 23.696a1.841 1.841 0 0 1-.784-1.169 1.823 1.823 0 0 1 .458-1.373l4.566-5.981a2.914 2.914 0 0 1 1.123.186 4.063 4.063 0 0 1 1.093.6 2.692 2.692 0 0 1 .986 1.334 1.7 1.7 0 0 1-.316 1.578l-2.554 3.346a2.393 2.393 0 0 0-.827-.326q-.457-.094-.588.078a.268.268 0 0 0-.019.267 3.5 3.5 0 0 1 2.2.88l1.463 1.117a3.625 3.625 0 0 1-.7 1.761 3.7 3.7 0 0 1-.749.714 2.181 2.181 0 0 1-.87.421Z"/><path data-name="패스 3506" d="M73.331 28.619a.35.35 0 0 0-.208.05c-.122.085-.144.271-.066.561a3.839 3.839 0 0 0 .432.953 4.047 4.047 0 0 0-.912.9 1.643 1.643 0 0 1-.935-.343 3.772 3.772 0 0 1-1.1-1.075 3.647 3.647 0 0 1-.7-1.834 1.4 1.4 0 0 1 .551-1.346 1.449 1.449 0 0 1 .312-.169l6.961-2.814a5.2 5.2 0 0 1 1.352.868 7.2 7.2 0 0 1 1.207 1.348 5.336 5.336 0 0 1 .935 2.131 2.192 2.192 0 0 1-.459 1.917l-4.952 5.59a3.132 3.132 0 0 1-2.355-1.573 3.253 3.253 0 0 1-.6-1.411 1.227 1.227 0 0 1 .332-1.1l.674-.676a2.57 2.57 0 0 0 .658.64c.259.175.437.227.54.155a.239.239 0 0 0 .105-.2 2.172 2.172 0 0 1-.671-.415 3.288 3.288 0 0 1-.54-.589 2.669 2.669 0 0 1-.572-1.569m2.832.143a.454.454 0 0 0 .173.155q.845-.832.982-1.012a.282.282 0 0 0 .038-.337.487.487 0 0 0-.144-.127l-1.108 1.129a.267.267 0 0 0 .059.194"/><path data-name="패스 3507" d="m76.382 35.672 7.442-2.006c.258-.07.529.081.813.452a4.059 4.059 0 0 1 .653 1.405 3.556 3.556 0 0 1 .129.935 1.881 1.881 0 0 1-.119.729 9.456 9.456 0 0 1-.634.775q-.333.364-1.564 1.653a.26.26 0 0 0 .093.136.2.2 0 0 0 .179.025 1.189 1.189 0 0 0 .368-.3l1.164-1.183.409-.11a2.84 2.84 0 0 1 .734.8 3.945 3.945 0 0 1 .475 1.087 3.148 3.148 0 0 1 .074 1.63 1.432 1.432 0 0 1-1.094 1.027l-7.034 1.9a1 1 0 0 1-1.095-.365 3.318 3.318 0 0 1-.638-1.332 4.436 4.436 0 0 1-.151-.977 2.461 2.461 0 0 1 .071-.8 17.465 17.465 0 0 1 1.231-1.466l1.057-1.107a.225.225 0 0 0-.29-.155 1.311 1.311 0 0 0-.425.348l-1.247 1.342-.394.106a3.7 3.7 0 0 1-1.088-1.812 3.3 3.3 0 0 1-.066-1.817 1.293 1.293 0 0 1 .948-.919"/><path data-name="패스 3508" d="m87.133 48.936-.157 4.48a2.833 2.833 0 0 1-.814.306 3.3 3.3 0 0 1-.784.082 1.871 1.871 0 0 1-1.159-.349 1.022 1.022 0 0 1-.362-.871l.109-3.13c.007-.192-.064-.29-.214-.3h-.061a.089.089 0 0 0-.062.013l-.129 3.716a2.62 2.62 0 0 1-.608.22 3 3 0 0 1-.7.068 2.564 2.564 0 0 1-1.42-.392l.06-1.685a9.4 9.4 0 0 0-.033-1.6 2.128 2.128 0 0 0-.132-.526.2.2 0 0 0-.172-.107.187.187 0 0 0-.174.1 4.653 4.653 0 0 1 .155.854q.033.583.009 1.267l-.076 2.182a2.663 2.663 0 0 1-1.609.419 3.748 3.748 0 0 1-.995-.168 1.87 1.87 0 0 1-.756-.423l.2-5.816a2.425 2.425 0 0 1 .515-1.528 1.715 1.715 0 0 1 1.468-.587l7.313.255q.367.013.508.873a14.953 14.953 0 0 1 .077 2.646"/><path data-name="패스 3509" d="m81.012 60.409-5.18-1.554a2.879 2.879 0 0 1-.22-1.064 4.48 4.48 0 0 1 .218-1.451 2.673 2.673 0 0 1 .78-1.283 1.275 1.275 0 0 1 1.3-.315l4.746 1.423.52-1.735a2.931 2.931 0 0 1 1.819-.038 2.749 2.749 0 0 1 1.005.516 2.024 2.024 0 0 1 .558.7l-2.309 7.7a3.2 3.2 0 0 1-.909.116 3.369 3.369 0 0 1-.979-.139 1.891 1.891 0 0 1-1.163-.771 1.422 1.422 0 0 1-.1-1.164l.654-2.181a.289.289 0 0 0-.105-.055.185.185 0 0 0-.222.1 2.964 2.964 0 0 0-.262.683Z"/></g></g></g><g data-name="그룹 427" clip-path="url(#c)" transform="translate(0 61)"><path data-name="패스 3510" d="M4.585 38.893c0-.613 2.739-1.11 6.119-1.11s6.119.5 6.119 1.11-2.739 1.11-6.119 1.11-6.119-.5-6.119-1.11"/><path data-name="패스 3511" d="M15.341 38.219c0-.848 5.3-1.535 11.835-1.535s11.835.687 11.835 1.535-5.3 1.536-11.835 1.536-11.835-.687-11.835-1.536"/><path data-name="패스 3512" d="M9.512 15.266c.022-.116.331-1.236.331-1.236l.484-1.037 1.1-1.256 2.066-.466-.666-.893-.614-1.449.584-1.834 1.8-2.531 3.6-2.756S21.503.562 21.619.536 24.284.2 24.284.2l2.752.512 1.546 1.437.76 2.268 1.293-.825 1.626-.414 2.257.586a17.624 17.624 0 0 1 1.458 1.066c.555.462.987.977 1.135 1.015.326.084 1.027 1.887 1.027 1.887l-.006 1.006-.329 1a3.791 3.791 0 0 1 1.052-.116 8.061 8.061 0 0 1 1.123.7l1.089 1.751.5 2.416.157 2.325-.739 1.529.367 1.263.074 2.021.929.648 1.164.8s.642.614.773.778a8.511 8.511 0 0 1 .471 1.154l-.069 1.409-.749 1.421-.957.966-1.181.613a8.239 8.239 0 0 1-1.215.018c-.142-.058-.971-.29-.971-.29l-.266.625-.9.9-1.341.578-.534 1.669.369 1.518.532 1.2-.368.437-2.911 1.6-3 .983-.746-.231-1.762-3.194-1.787-.943-.813.991-.789.329-.478 1.195-.583 1.05-.306 1.045-1.22-.047-1.819-.484-1.87-.7-1.819-1.006-.256-.43.046-.73.259-2.35-.747-.337Z" fill="#ffffe6"/><path data-name="패스 3513" d="m6.969 19.277-2.415.813-1.7.976-.439.93-.379 2.072.68 3.868-.092.523-1.849 1.488-.574.926.322 1.279s.692.767.816.734 1.074-.09 1.074-.09l1.386-1.3.336 1.2 1.09 2.456 1.648 1.411-.777 1.783 3.247.845.255-.317.043-.6 1.063-1.87.924-.066 1.767 2.631 2.521-1.936.034-.386-.611-1.043.066-.24s.616-1.049.654-1.151.89-3.641.89-3.641l1.242.224 1.259-.389.463-1.128-.262-.916-1.183-.6-1.071-.222-.337-.035.334-4.368-.407-2.334-.61-.806-.9-.316-4.555-.4Z" fill="#f6c34b"/><path data-name="패스 3514" d="m10.926 15.081-1.632.411-.65.686-.217.892-.855.14-.35.521-.352 1.058.2 1.4s.816.433.905.446.37.064.37.064l.077 1.261s.625.942.676.968a7.914 7.914 0 0 0 1.2.446 6.715 6.715 0 0 0 1.341 0 7.642 7.642 0 0 0 1.159-.51l.344-.612.893-.2 1.265-.917.293-1.325-.484-.9-.242-.222.1-1.272a7.956 7.956 0 0 0-.22-.848c-.051-.069-1.3-.823-1.3-.823l-.95-.073a2.195 2.195 0 0 1-.418.012l-.855-.543Z" fill="#ffffe6"/><path data-name="패스 3515" d="m2.719 21.216-.3.385-.459 1.537.064 1.987.436 2.21.254.619v-.017l-.678-3.869.378-2.073.358-.76-.054-.021" fill="#f6c34b"/><path data-name="패스 3516" d="m2.773 21.236-.359.76-.379 2.072.677 3.868v.018l.138.335.646-.192.344-.16a20.616 20.616 0 0 1-.266-2.547 12.625 12.625 0 0 1 .518-3.265.306.306 0 0 0-.143-.35 9.719 9.719 0 0 0-1.175-.538" fill="#f6c34b"/><path data-name="패스 3517" d="m5.434 35.338.228.4.765.54a1.288 1.288 0 0 1-.128-.2Z" fill="#f6c34b"/><path data-name="패스 3518" d="m4.638 31.063-.7.448v.336l.686 1.877.583 1.222.223.394.864.74a41.689 41.689 0 0 1-1.66-5.015" fill="#f6c34b"/><path data-name="패스 3519" d="M8.834 36.684s.055-3.932 3.332-4.123c2.644-.154 2.769 2.943 2.769 2.943l-3.307.835Z" fill="#fff"/><path data-name="패스 3520" d="m6.728 36.445-.155.469c.043.017.086.034.13.049l.171-.393Z" fill="#f6c34b"/><path data-name="패스 3521" d="m6.742 36.404-.014.042.146.125-.171.393a3.781 3.781 0 0 0 1.278.222h.171l2.1-.1.292-.569-.917.12h-.4l-.392.048v-.051l-.85-.007Z" fill="#f6c34b"/><path data-name="패스 3522" d="M8.836 36.632v.052l.392-.048Z" fill="#f6c34b"/><path data-name="패스 3523" d="m11.628 36.338.353.527Z" fill="#f6c34b"/><path data-name="패스 3524" d="m15.257 35.456-1.288.383-2.34.5.353.526 3.389-.96Z" fill="#f6c34b"/><path data-name="패스 3525" d="m6.875 19.426-.6.172s-.328 1.485 1.105 1.622c0 0-.407 1.906 2.217 1.924-.251-.1-.47-.2-.495-.211a1.938 1.938 0 0 1-.184-.242 3.1 3.1 0 0 1-.292-.25.747.747 0 0 1-.073-.126l-.428-.733.136-.529.066-.073.024-.276c-.027.028-.044.037-.055.037s-.023-.023-.038-.023l-.277-.078-.394-.039-.283-.287-.229-.12-.074-.508Z" fill="#f6c34b"/><path data-name="패스 3526" d="m7.001 19.683.074.507.228.12-.055-.056a1.693 1.693 0 0 0 .2.058l-.223-.179Zm1.918 3a1.907 1.907 0 0 0 .184.242c.025.012.244.11.494.21h.029l-.037-.026-.342-.176s-.163-.124-.323-.251" fill="#f6c34b"/><path data-name="패스 3527" d="M12.913 22.822c.063-.021 1.1-.366 1.31-.713l-.611-.093h-.29Z" fill="#f6c34b"/><path data-name="패스 3528" d="m8.426 17.071-.578.094c-.021.542.881.754 1.3.824a9.35 9.35 0 0 1-.406-.365 2.912 2.912 0 0 1-.209-.218.329.329 0 0 1-.093-.151c0-.05-.007-.111-.008-.172Z" fill="#e5e5c1"/><path data-name="패스 3529" d="m8.364 20.934-.038.042-.058.681s.171.427.285.654l.073.126.233.164c-.194-.281-.433-.64-.433-.64Zm4.78 1.32Zm-.479.7a14.62 14.62 0 0 1-1.024.424 1.868 1.868 0 0 1-.4.032l.66.032Zm-3.014.21.256.181.306.015a5.149 5.149 0 0 1-.562-.2" fill="#f6c34b"/><path data-name="패스 3530" d="m9.244 19.961-.88.973.063 1.027s.238.359.432.64l.725.512.052.026h-.015l.031.022a5.176 5.176 0 0 0 .562.2l1.033.05a1.851 1.851 0 0 0 .4-.032c.11-.04.741-.281 1.024-.424l.134-.086.343-.61a2.133 2.133 0 0 1-1.8.733 2.34 2.34 0 0 1-2.1-.941 2.759 2.759 0 0 1 .166-1.875c.068-.21-.164-.21-.164-.21" fill="#e5e5c1"/><path data-name="패스 3531" d="m8.327 20.976-.066.073-.136.529.428.733c-.114-.227-.285-.654-.285-.654Z" fill="#f6c34b"/><path data-name="패스 3532" d="m9.584 23.114.037.026h.014Z" fill="#f6c34b"/><path data-name="패스 3533" d="M9.001 19.723a1.652 1.652 0 0 1-1.225.63 1.477 1.477 0 0 1-.326-.037l.239.193.665.195c.071-.073.651-.978.651-.978" fill="#e5e5c1"/><path data-name="패스 3534" d="m7.303 20.311.283.287.394.039a6.713 6.713 0 0 1-.677-.326m.677.326.277.078c.015 0 .02.022.038.022s.028-.009.055-.037c0 0-.28-.051-.37-.063" fill="#f6c34b"/><path data-name="패스 3535" d="m7.252 20.255.055.056a6.788 6.788 0 0 0 .677.326c.089.013.37.064.37.064l-.665-.2-.239-.192a1.693 1.693 0 0 1-.2-.058" fill="#f6c34b"/><path data-name="패스 3536" d="m14.546 21.681-.508.369-.079.018.11.017a.736.736 0 0 0 .284-.07.7.7 0 0 0 .192-.334" fill="#f6c34b"/><path data-name="패스 3537" d="M13.061 20.219v.519l.137.969.124.309h.29l.346.053.079-.018.508-.369a.45.45 0 0 1-.153.027c-.673 0-1.332-1.489-1.332-1.489" fill="#e5e5c1"/><path data-name="패스 3538" d="M13.612 22.016h-.29l.29.093s.244 0 .457-.023l-.111-.017Z" fill="#f6c34b"/><path data-name="패스 3539" d="m8.644 16.179-.2.577s-.007.132-.008.275Z" fill="#e5e5d6"/><path data-name="패스 3540" d="M9.789 15.493h-.155l-.991.686-.207.852v.053l.58.719.35.216s-.085-.008-.214-.029l.094.08a.941.941 0 0 0 .218.17.383.383 0 0 0 .146.028.51.51 0 0 0 .2-.044.8.8 0 0 0 .276-.185c.094-.114-.051-.207-.117-.288a1.877 1.877 0 0 1-.181-.25 1.955 1.955 0 0 1-.185-.432 1.991 1.991 0 0 1-.06-.787 2.29 2.29 0 0 1 .145-.571Z" fill="#e5e5c1"/><path data-name="패스 3541" d="M8.436 17.083c0 .061 0 .121.008.172a.327.327 0 0 0 .093.151 2.838 2.838 0 0 0 .209.218c.132.126.268.247.406.365.129.021.214.029.214.029l-.35-.216Z" fill="#cecfa3"/><path data-name="패스 3542" d="m25.307 35.609-.331.815c.111-.011.168-.02.168-.02Z" fill="#e5e5d6"/><path data-name="패스 3543" d="m17.408 33.34-.193 1.016a14.461 14.461 0 0 0 7.086 2.1c.305 0 .534-.015.676-.029l.331-.815-.193.002a34.15 34.15 0 0 0-.723.123c-.042 0-.285-.038-.577-.086l-.078-.013c-.484-.081-1.057-.182-1.057-.182l-1.287-.314-1.478-.882-.044-.084-.212-.151-.209-.534-1.39-.006Z" fill="#e5e5c1"/><path data-name="패스 3544" d="m36.578 32.918.151 1.365a7.19 7.19 0 0 0 .174-.131l-.056-.734Zm-7.884 2.313.619 1.221h.055Z" fill="#e5e5d6"/><path data-name="패스 3545" d="m36.579 32.918-.909 1.2-1.048.454-.64.4-1.913.53-1.907-.042-1.334-.212-.134-.013.674 1.221h.255q.325.014.636.014a10.184 10.184 0 0 0 6.205-1.994c.089-.062.177-.125.265-.189Z" fill="#e5e5c1"/><path data-name="패스 3546" d="M24.525 9.803a7.416 7.416 0 0 0-1.29 2.94c-.057 1.215-.416 4.328 1.454 5.811a5.26 5.26 0 0 0 3.021.692 8.024 8.024 0 0 0 4.177-.934 3.632 3.632 0 0 0 1.1-1.635l-.916 1.087-1.283.576-1.789.2-3.063-.4-1.182-.81-.5-1.034-.31-2.12v-2.1l.37-1.537Z" fill="#e5e5c1"/><path data-name="패스 3547" d="M14.482 4.733 12.91 6.865l-.039.124 1.608-2.256ZM12.4 9.368l.428 1.011Z" fill="#e5e5d6"/><path data-name="패스 3548" d="m14.482 4.733-1.608 2.255-.37 1.176-.1 1.2.428 1.011.67.893 1 .96.909.566h-.052l.931.449a1.6 1.6 0 0 0 .471.079.914.914 0 0 0 .612-.214.793.793 0 0 0-.087-1.289c-4.856-2.113-2.817-7.042-2.8-7.09" fill="#e5e5c1"/><path data-name="패스 3549" d="m13.498 11.271-.813.081-.665.2-.021.053Z" fill="#e5e5d6"/><path data-name="패스 3550" d="m13.498 11.271-1.5.338c-.384 1.081 1.951 1.2 2.958 1.2.184 0 .324 0 .394-.006l-.808-.39Z" fill="#e5e5c1"/><path data-name="패스 3551" d="m13.499 11.271 1.047 1.138.808.39h.052l-.909-.566Z" fill="#cecfa3"/><path data-name="패스 3552" d="M19.809 31.568a13.987 13.987 0 0 1-2.817.579 1.009 1.009 0 0 1-.363-.051l-.12.714.747.338.8.337 1.114-.059.276.065-.011-.136-.055-.105.033-.173-.033-.413.222-.57.019-.1s0 .009.009.027Z" fill="#e5e5c1"/><path data-name="패스 3553" d="M26.89 34.436c-.074.05-.146.1-.218.142l-.575.7-.7.29c.416-.065.758-.114.758-.114Z" fill="#e5e5d6"/><path data-name="패스 3554" d="m19.632 32.018-.029.074-.189.984.022.278.432.821a4.672 4.672 0 0 0 .538.341c.193.086 1.157.663 1.157.663l1.114.276 1.057.182.08.013 1.3-.036.282-.045.7-.29.575-.7a3.346 3.346 0 0 1-1.829.541 7.319 7.319 0 0 1-2.247-.458 4.612 4.612 0 0 1-2.963-2.644" fill="#e5e5c1"/><path data-name="패스 3555" d="m19.869 34.176.044.084 1.477.882 1.287.314-1.114-.276s-.964-.578-1.157-.663a4.694 4.694 0 0 1-.538-.341m2.809 1.28s.572.1 1.057.182Zm2.441.158-1.3.036c.291.048.535.087.577.087.21-.039.469-.082.723-.123" fill="#cecfa3"/><path data-name="패스 3556" d="m19.623 31.992-.02.1.029-.074-.009-.027m-.208 1.085-.033.173.055.105Z" fill="#cecfa3"/><path data-name="패스 3557" d="M36.792 32.53c-.045.052-.091.1-.137.152l-.014.044Zm-9.885 1.759 1.407.874.356.057Z" fill="#e5e5d6"/><path data-name="패스 3558" d="M36.656 32.681a6.04 6.04 0 0 1-4.578 1.976 10.775 10.775 0 0 1-4.942-1.415l-.227 1.046 1.764.931.157.025c.534.05 2.484.232 2.53.232s2.339-.506 2.339-.506l.925-.4 1.136-.705.883-1.139Z" fill="#e5e5c1"/><path data-name="패스 3559" d="m34.623 34.57-.925.4s-2.287.506-2.339.506-2-.182-2.53-.232l1.334.212 1.907.042 1.913-.53Z" fill="#cecfa3"/><path data-name="패스 3560" d="M44.133 27.72a2.818 2.818 0 0 1-.314.244l-.83.838-1.077.556.42-.074 1.146-.675Zm-4.512 1.42.612.176c-.28-.083-.612-.176-.612-.176m1.881.291c-.1.005-.215.011-.329.015l.137.019Z" fill="#e5e5d6"/><path data-name="패스 3561" d="m39.979 27.887-.358 1.253s.332.093.612.176l.939.13c.114 0 .229-.01.329-.015l.41-.072 1.077-.556.83-.838a2.941 2.941 0 0 1-1.665.479 5.035 5.035 0 0 1-2.175-.557" fill="#e5e5c1"/><path data-name="패스 3562" d="m18.928 30.572-.137.042.135-.042m-1.979 0-.039.163 1.055.062.1-.023Z" fill="#f6c34b"/><path data-name="패스 3563" d="M19.695 29.789a4.182 4.182 0 0 1-1.607.4 1.987 1.987 0 0 1-1.136-.326l-.039.88.039-.163 1.12.2c.21-.046.668-.148.722-.164l.136-.042h.006l.517-.16Z" fill="#f6c34b"/><path data-name="패스 3564" d="m3.8 31.501-.345.323.369-.237ZM1.775 32.84c-.113.009-.22.018-.3.026l.1.092Z" fill="#f6c34b"/><path data-name="패스 3565" d="M4.463 30.524a.421.421 0 0 0-.164.037 5.507 5.507 0 0 0-1.593 1.058 2.18 2.18 0 0 1-1.5.78.829.829 0 0 1-.322-.054l.592.522c.082-.009.189-.018.3-.027l1.32-.788.355-.229.345-.323.024.085.117-.076v-.115l.686-.374.011.042.131-.084-.023-.167c-.03-.164-.125-.288-.283-.288" fill="#f6c34b"/><path data-name="패스 3566" d="m4.627 31.022-.686.374v.115l.7-.448-.011-.042" fill="#f6c34b"/><path data-name="패스 3567" d="M27.075 21.703a.8.8 0 0 1-.8-.8v-.509a.8.8 0 0 1 1.592 0v.509a.8.8 0 0 1-.8.8"/><path data-name="패스 3568" d="M32.715 21.703a.8.8 0 0 1-.8-.8v-.509a.8.8 0 0 1 1.592 0v.509a.8.8 0 0 1-.8.8"/><path data-name="패스 3569" d="M10.366 27.546a.552.552 0 1 1 .552.552.552.552 0 0 1-.552-.552"/><path data-name="패스 3570" d="M13.538 27.338a.552.552 0 1 1 .552.552.552.552 0 0 1-.552-.552"/><path data-name="패스 3571" d="m11.527 36.436 1.653 2.555a.2.2 0 0 0 .277.06l2.532-1.632a.593.593 0 0 0 .1-.912c-.1-.1-.2-.209-.309-.314l-.143.141.184-.08-.384-.878a.2.2 0 1 0-.368.161l.384.878.042.061.306.311a.189.189 0 0 1 .054.133.191.191 0 0 1-.088.162l-2.363 1.523-1.543-2.386a.2.2 0 0 0-.337.218"/><path data-name="패스 3572" d="m12.435 15.97-.109-.05.107.055-.109-.05.107.055a.31.31 0 0 1 .1-.09.555.555 0 0 1 .3-.072 1.543 1.543 0 0 1 .549.121 2.4 2.4 0 0 1 .939.731 1.858 1.858 0 0 1 .45 1.111 1.055 1.055 0 0 1-.174.588 1.648 1.648 0 0 1-.622.535.2.2 0 1 0 .191.353 2.048 2.048 0 0 0 .768-.67 1.459 1.459 0 0 0 .238-.806 2.247 2.247 0 0 0-.538-1.361 2.786 2.786 0 0 0-1.107-.855 1.933 1.933 0 0 0-.695-.149.921.921 0 0 0-.582.182.62.62 0 0 0-.178.212.2.2 0 1 0 .364.169"/><path data-name="패스 3573" d="m14.558 18.884.011-.062-.012.062.011-.062-.012.062a.931.931 0 0 1 .379.19 1.069 1.069 0 0 1 .358.883 2.17 2.17 0 0 1-.012.218 2.244 2.244 0 0 1-.313.792 2.751 2.751 0 0 1-.546.686 1 1 0 0 1-.666.254 1.457 1.457 0 0 1-.477-.089.2.2 0 0 0-.132.379 1.851 1.851 0 0 0 .609.112 1.405 1.405 0 0 0 .923-.348 3.128 3.128 0 0 0 .632-.786 2.586 2.586 0 0 0 .369-.959 2.546 2.546 0 0 0 .014-.259 1.465 1.465 0 0 0-.527-1.212 1.3 1.3 0 0 0-.542-.257.203.203 0 1 0-.067.4"/><path data-name="패스 3574" d="m12.761 20.245.01.031a5.167 5.167 0 0 1 .242 1.416 1.456 1.456 0 0 1-.222.873 1.636 1.636 0 0 1-.8.507 3.749 3.749 0 0 1-1.139.169 3.132 3.132 0 0 1-.939-.129 2.873 2.873 0 0 1-.971-.579 1.468 1.468 0 0 1-.542-1.06 2.027 2.027 0 0 1 .84-1.447.201.201 0 1 0-.268-.3 2.414 2.414 0 0 0-.974 1.746 1.861 1.861 0 0 0 .672 1.356 3.26 3.26 0 0 0 1.117.664 3.523 3.523 0 0 0 1.065.149 4.161 4.161 0 0 0 1.264-.189 2.022 2.022 0 0 0 1-.645 1.837 1.837 0 0 0 .3-1.116 5.6 5.6 0 0 0-.274-1.577.2.2 0 0 0-.38.13"/><path data-name="패스 3575" d="M8.527 16.878a1.142 1.142 0 0 0-.145-.008 1.605 1.605 0 0 0-.772.2 1.577 1.577 0 0 0-.744 1.021 4.8 4.8 0 0 0-.2 1.21 1.566 1.566 0 0 0 .371 1.093 1.991 1.991 0 0 0 1.328.554.201.201 0 1 0 .04-.4 1.6 1.6 0 0 1-1.072-.425 1.17 1.17 0 0 1-.266-.823 4.431 4.431 0 0 1 .182-1.106 1.172 1.172 0 0 1 .552-.775 1.205 1.205 0 0 1 .577-.144h.092l.007-.055-.007.055.007-.055-.007.055a.202.202 0 1 0 .054-.4"/><path data-name="패스 3576" d="M3.77 27.747s-.276.1-.62.245a6.523 6.523 0 0 0-1.053.541 5.885 5.885 0 0 0-1.883 1.872 1.692 1.692 0 0 0-.214.81 2.034 2.034 0 0 0 1.308 1.8.933.933 0 0 0 .371.077 1.553 1.553 0 0 0 .8-.276 11.039 11.039 0 0 0 1.134-.9 3.554 3.554 0 0 1 1.072-.7.2.2 0 1 0-.123-.382 5.34 5.34 0 0 0-1.582 1.089 6.3 6.3 0 0 1-.711.547 1.172 1.172 0 0 1-.59.215.521.521 0 0 1-.211-.043A1.637 1.637 0 0 1 .4 31.215a1.283 1.283 0 0 1 .165-.623 5.509 5.509 0 0 1 1.758-1.733 6.173 6.173 0 0 1 .983-.5c.167-.071.317-.13.425-.172l.174-.065a.2.2 0 1 0-.136-.377"/><path data-name="패스 3577" d="M16.895 30.769a4.887 4.887 0 0 0 1.3.233 2.255 2.255 0 0 0 .261-.015 1.662 1.662 0 0 0 1.15-.647 2.05 2.05 0 0 0 .4-1.247 2.466 2.466 0 0 0-.053-.5.973.973 0 0 0-.393-.6 2.783 2.783 0 0 0-1.04-.384 10.062 10.062 0 0 1-1.163-.284.2.2 0 1 0-.132.379c.543.188 1.121.258 1.565.384a1.675 1.675 0 0 1 .533.23.567.567 0 0 1 .237.358 2.058 2.058 0 0 1 .044.422 1.651 1.651 0 0 1-.315 1 1.258 1.258 0 0 1-.878.492 1.884 1.884 0 0 1-.215.012 4.53 4.53 0 0 1-1.2-.218.2.2 0 1 0-.11.386"/><path data-name="패스 3578" d="m3.614 31.577 1.49 3.636a2.386 2.386 0 0 0 1.019 1.131l.1-.175-.121.16a4.443 4.443 0 0 0 2.359.549c.1 0 .2.006.306.006a10.3 10.3 0 0 0 1.578-.131 56.002 56.002 0 0 0 3.046-.55 15.74 15.74 0 0 0 1.432-.366 3.967 3.967 0 0 0 .507-.195.831.831 0 0 0 .331-.247 5.4 5.4 0 0 0 .388-.629v-.005a17.827 17.827 0 0 0 1.133-4.895 50.755 50.755 0 0 0 .308-5.718c0-.916-.023-1.767-.061-2.5a2.071 2.071 0 0 0-.7-1.463 3.714 3.714 0 0 0-1.194-.688.2.2 0 1 0-.142.375 3.328 3.328 0 0 1 1.065.609 1.666 1.666 0 0 1 .566 1.188c.038.726.06 1.57.06 2.48a50.3 50.3 0 0 1-.3 5.671 17.482 17.482 0 0 1-1.1 4.778l.183.082-.181-.087v.005a5.563 5.563 0 0 1-.355.571.576.576 0 0 1-.176.113 5.589 5.589 0 0 1-.919.309c-1.184.315-2.967.613-3.952.766a9.923 9.923 0 0 1-1.517.127c-.1 0-.194 0-.291-.005a6.045 6.045 0 0 1-1.683-.266 2.5 2.5 0 0 1-.356-.148l-.076-.043-.015-.01-.022-.014a1.986 1.986 0 0 1-.85-.938l-.184.08.186-.076-1.489-3.635a.2.2 0 0 0-.371.152"/><path data-name="패스 3579" d="M9.535 17.868h-.007a2.27 2.27 0 0 1-.465-.312 1.323 1.323 0 0 1-.259-.3.662.662 0 0 1-.1-.343.6.6 0 0 1 .024-.167 2.088 2.088 0 0 1 .729-.961 2.21 2.21 0 0 1 1.325-.5 1.6 1.6 0 0 1 .529.089 1.37 1.37 0 0 1 .835.745 1.9 1.9 0 0 1 .16.766V16.996a.201.201 0 0 0 .4.042c0-.006.006-.062.006-.154a2.289 2.289 0 0 0-.2-.933 1.777 1.777 0 0 0-1.069-.957 2.006 2.006 0 0 0-.662-.112 2.6 2.6 0 0 0-1.572.584 2.463 2.463 0 0 0-.868 1.166 1 1 0 0 0-.04.278 1.075 1.075 0 0 0 .18.58 2.34 2.34 0 0 0 .886.742.2.2 0 1 0 .17-.363"/><path data-name="패스 3580" d="M3.033 28.212a10.9 10.9 0 0 1-.813-4.067 4.9 4.9 0 0 1 .657-2.806 2.952 2.952 0 0 1 .952-.7 11.827 11.827 0 0 1 2.017-.772 17.515 17.515 0 0 1 1.068-.279.2.2 0 1 0-.085-.392 17.744 17.744 0 0 0-1.773.5 10.444 10.444 0 0 0-1.412.579 3.317 3.317 0 0 0-1.084.813 5.245 5.245 0 0 0-.742 3.052 11.293 11.293 0 0 0 .844 4.22.2.2 0 0 0 .371-.153"/><path data-name="패스 3581" d="m6.551 36.341-.645 1.95a.2.2 0 0 0 .129.254l2.867.926a.594.594 0 0 0 .773-.5c.016-.138.033-.291.048-.438l-.2-.021.179.091 1.024-2a.2.2 0 0 0-.357-.183l-1.024 2-.021.07c-.015.145-.032.3-.048.434a.192.192 0 0 1-.191.17l-.06-.01-2.675-.863.581-1.758a.2.2 0 0 0-.381-.126"/><path data-name="패스 3582" d="M41.293 21.668a15.464 15.464 0 0 0 1.6 1.192 6.7 6.7 0 0 1 .911.682 2.417 2.417 0 0 1 .605.9 2.781 2.781 0 0 1 .189 1.026 4.02 4.02 0 0 1-1.05 2.593 3.34 3.34 0 0 1-2.442 1.2c-.085 0-.171 0-.257-.012a2.662 2.662 0 0 1-1.1-.29.2.2 0 1 0-.183.357 3.079 3.079 0 0 0 1.243.333q.148.014.3.014a3.74 3.74 0 0 0 2.742-1.339 4.415 4.415 0 0 0 1.151-2.86 3.19 3.19 0 0 0-.216-1.173 2.83 2.83 0 0 0-.7-1.041 7.049 7.049 0 0 0-.965-.726 15.007 15.007 0 0 1-1.561-1.161.2.2 0 0 0-.263.3"/><path data-name="패스 3583" d="M34.058 9.803a2.848 2.848 0 0 0-1.138-.947 9.633 9.633 0 0 0-4.557-.893q-.265 0-.546.008a4.333 4.333 0 0 0-2.09.544 3.832 3.832 0 0 0-1.653 2.1 7.9 7.9 0 0 0-.4 2.63 12.9 12.9 0 0 0 .3 2.716 5.092 5.092 0 0 0 .3.977 2.542 2.542 0 0 0 1.329 1.295 7.94 7.94 0 0 0 3.276.524 6.889 6.889 0 0 0 2.486-.39 3.18 3.18 0 0 0 1.858-1.722 5.637 5.637 0 0 0 .383-2.268.2.2 0 0 0-.4 0 4.3 4.3 0 0 1-.7 2.7 2.907 2.907 0 0 1-1.281.911 6.49 6.49 0 0 1-2.341.362c-2 0-3.059-.348-3.638-.809a2.033 2.033 0 0 1-.6-.776 4.686 4.686 0 0 1-.277-.9 12.484 12.484 0 0 1-.288-2.625 6.465 6.465 0 0 1 .722-3.236 3.154 3.154 0 0 1 1.132-1.143 3.928 3.928 0 0 1 1.9-.49c.183-.005.361-.008.534-.008a9.244 9.244 0 0 1 4.367.845 3.3 3.3 0 0 1 .787.562 1.676 1.676 0 0 1 .155.175l.031.044.006.009.012-.007-.012.007.012-.007-.012.007a.202.202 0 0 0 .35-.2"/><path data-name="패스 3584" d="M29.628 7.012a9.241 9.241 0 0 0 .066-1.117 9.27 9.27 0 0 0-.311-2.457 4.786 4.786 0 0 0-1.462-2.43A5.5 5.5 0 0 0 24.394 0a13.958 13.958 0 0 0-7.464 2.368 14.754 14.754 0 0 0-3.362 3.146 5.858 5.858 0 0 0-1.367 3.352 2.769 2.769 0 0 0 .442 1.533 6.615 6.615 0 0 0 3.6 3.044.2.2 0 1 0 .089-.391 6.3 6.3 0 0 1-3.349-2.871 2.363 2.363 0 0 1-.377-1.315 5.481 5.481 0 0 1 1.286-3.111A14.357 14.357 0 0 1 17.157 2.7 13.568 13.568 0 0 1 24.394.4a5.119 5.119 0 0 1 3.267.915 4.388 4.388 0 0 1 1.333 2.231 8.9 8.9 0 0 1 .3 2.349 10.349 10.349 0 0 1-.049.99l-.009.073a.202.202 0 0 0 .4.054"/><path data-name="패스 3585" d="M13.771 11.285a2.692 2.692 0 0 0-.932-.157 2.727 2.727 0 0 0-2.171 1.074 6.818 6.818 0 0 0-1.357 3.259.202.202 0 0 0 .4.062 6.418 6.418 0 0 1 1.269-3.066 2.32 2.32 0 0 1 1.86-.929 2.531 2.531 0 0 1 .571.066c.07.016.124.033.16.045l.04.014h.009a.2.2 0 1 0 .15-.372"/><path data-name="패스 3586" d="m29.592 4.723.009-.011a3.572 3.572 0 0 1 .794-.722 3.491 3.491 0 0 1 1.972-.613 5.629 5.629 0 0 1 3.556 1.555c1.664 1.387 2.124 2.54 2.124 3.406a2.54 2.54 0 0 1-.519 1.514 2.974 2.974 0 0 1-.359.405c-.049.046-.089.08-.116.1l-.031.024-.008.006a.2.2 0 1 0 .236.324 3.11 3.11 0 0 0 .6-.625 2.941 2.941 0 0 0 .6-1.752c0-1.019-.551-2.286-2.269-3.714a6.023 6.023 0 0 0-3.813-1.648 3.905 3.905 0 0 0-2.3.752 3.789 3.789 0 0 0-.8.76.2.2 0 0 0 .325.235"/><path data-name="패스 3587" d="M37.935 9.916a1.526 1.526 0 0 1 .621-.128 1.692 1.692 0 0 1 1.311.663 4.207 4.207 0 0 1 .523.876 12.412 12.412 0 0 1 1.17 4.715 3.083 3.083 0 0 1-.358 1.621 1.247 1.247 0 0 1-.469.446 1.532 1.532 0 0 1-.733.164h-.142a.2.2 0 1 0-.023.4H40a1.928 1.928 0 0 0 .922-.211 1.788 1.788 0 0 0 .814-.978 4.071 4.071 0 0 0 .225-1.442 11.6 11.6 0 0 0-.632-3.428 12.692 12.692 0 0 0-.577-1.459 4.557 4.557 0 0 0-.581-.965 2.1 2.1 0 0 0-1.615-.8 1.894 1.894 0 0 0-.8.172.2.2 0 1 0 .183.357"/><path data-name="패스 3588" d="m40.595 18.502.041-.055-.042.054.041-.055-.042.054a2.3 2.3 0 0 1 .668 1.848v.124a11.677 11.677 0 0 1-.322 2.905 3.909 3.909 0 0 1-.683 1.378 2.866 2.866 0 0 1-1.318.921.2.2 0 1 0 .133.379 3.272 3.272 0 0 0 1.5-1.048 4.961 4.961 0 0 0 .937-2.335 16.212 16.212 0 0 0 .156-2.188v-.136a2.667 2.667 0 0 0-.83-2.17.2.2 0 0 0-.239.323"/><path data-name="패스 3589" d="m25.383 35.45-1.331 2.4-.025.1v.017a1.852 1.852 0 0 1-.224.828l.088.054-.051-.092-.037.038.088.054-.051-.092.008.014-.006-.014.008.014-.006-.014a.564.564 0 0 1-.164.016 6.1 6.1 0 0 1-1.175-.178 16.02 16.02 0 0 1-5.137-2.094.533.533 0 0 1-.2-.458 1.057 1.057 0 0 1 .016-.18l.362-2.341a.202.202 0 0 0-.4-.061l-.36 2.335.2.031-.2-.033a1.485 1.485 0 0 0-.021.246.937.937 0 0 0 .361.78 13.482 13.482 0 0 0 3.509 1.66c.636.212 1.251.384 1.779.5a6.381 6.381 0 0 0 1.263.188 1.059 1.059 0 0 0 .244-.024.343.343 0 0 0 .223-.145 2.247 2.247 0 0 0 .284-1.056h-.2l.176.1 1.331-2.4a.2.2 0 0 0-.351-.195"/><path data-name="패스 3590" d="m36.424 32.963.428 1.854.05.093a1.869 1.869 0 0 1 .42.764l.124-.026h-.126v.026l.124-.026h-.055l-.068-.028v.028h.072l-.068-.028a.857.857 0 0 1-.193.2 13.532 13.532 0 0 1-2.618 1.508 12.851 12.851 0 0 1-3.435 1.121h-.066a.47.47 0 0 1-.265-.081.863.863 0 0 1-.24-.255l-.168.109.171-.1-1.89-3.088a.2.2 0 1 0-.343.209l1.891 3.088a1.245 1.245 0 0 0 .356.372.869.869 0 0 0 .485.147.93.93 0 0 0 .115-.007A14.469 14.469 0 0 0 35.3 37.39a15.413 15.413 0 0 0 1.666-.953 4.347 4.347 0 0 0 .512-.394 1.155 1.155 0 0 0 .158-.175.389.389 0 0 0 .082-.224l-.006-.057a2.246 2.246 0 0 0-.524-.96l-.145.138.2-.045-.428-1.854a.2.2 0 0 0-.391.09"/><path data-name="패스 3591" d="M37.219 31.581a4.31 4.31 0 0 0 2.629-2.37 3.974 3.974 0 0 0 .345-1.7 6.669 6.669 0 0 0-.338-2.033.2.2 0 0 0-.378.136l.012.036a6.333 6.333 0 0 1 .3 1.86 3.582 3.582 0 0 1-.307 1.529 3.9 3.9 0 0 1-2.4 2.164.2.2 0 1 0 .136.377"/><path data-name="패스 3592" d="M16.397 32.943a2.4 2.4 0 0 0 1.323.638 6.883 6.883 0 0 0 1.316.119c.218 0 .355-.009.359-.009a.2.2 0 1 0-.026-.4H19.036a6.518 6.518 0 0 1-1.236-.111 2.03 2.03 0 0 1-1.1-.511.2.2 0 0 0-.3.266"/><path data-name="패스 3593" d="M29.895 22.805h-2.819v1.242a2.663 2.663 0 0 0 2.664 2.661h.311a2.663 2.663 0 0 0 2.664-2.661v-1.242Z" fill="#e18768"/><path data-name="패스 3594" d="M29.895 22.804v-.2h-2.82a.2.2 0 0 0-.2.2v1.243a2.863 2.863 0 0 0 2.865 2.861h.311a2.863 2.863 0 0 0 2.865-2.861v-1.243a.2.2 0 0 0-.2-.2h-2.82v.4h2.619v1.043a2.462 2.462 0 0 1-2.464 2.46h-.312a2.462 2.462 0 0 1-2.464-2.46v-1.042h2.619Z"/><path data-name="패스 3595" d="M19.923 31.113a3.625 3.625 0 0 0-.371.567 2.9 2.9 0 0 0-.371 1.332 1.881 1.881 0 0 0 .256.962 2.5 2.5 0 0 0 .911.872 7.945 7.945 0 0 0 3.874 1.095 3.7 3.7 0 0 0 2.139-.569 2.235 2.235 0 0 0 .927-1.926c0-.1 0-.207-.014-.315a.2.2 0 1 0-.4.035q.012.146.012.281a1.83 1.83 0 0 1-.758 1.6 3.311 3.311 0 0 1-1.906.495 7.561 7.561 0 0 1-3.666-1.041 2.106 2.106 0 0 1-.77-.73 1.479 1.479 0 0 1-.2-.76 2.5 2.5 0 0 1 .324-1.142 3.533 3.533 0 0 1 .226-.368l.073-.1.02-.025.005-.007a.2.2 0 1 0-.308-.257"/><path data-name="패스 3596" d="M10.846 29.079a4.056 4.056 0 0 0 1.356.211 4.784 4.784 0 0 0 1.97-.426.2.2 0 1 0-.165-.366 4.394 4.394 0 0 1-1.806.39 4.139 4.139 0 0 1-.888-.094 2.906 2.906 0 0 1-.244-.064l-.061-.02-.014-.005a.2.2 0 1 0-.145.374"/><path data-name="패스 3597" d="M26.826 34.295a3.31 3.31 0 0 0 1.618 1.057 7.376 7.376 0 0 0 2.324.346 8.6 8.6 0 0 0 4.4-1.155 4.214 4.214 0 0 0 2.182-3.653 4.76 4.76 0 0 0-.027-.5.201.201 0 0 0-.4.042 4.349 4.349 0 0 1 .024.456 3.809 3.809 0 0 1-1.992 3.312 8.214 8.214 0 0 1-4.191 1.1 6.99 6.99 0 0 1-2.2-.325 2.917 2.917 0 0 1-1.426-.919.2.2 0 0 0-.321.241"/></g></g></svg>