<svg xmlns="http://www.w3.org/2000/svg" width="37.719" height="24" viewBox="0 0 37.719 24">
    <defs>
        <clipPath id="r7d9lo78ya">
            <path data-name="사각형 2047" style="fill:none" d="M0 0h37.719v24H0z"/>
        </clipPath>
    </defs>
    <g data-name="그룹 509" style="clip-path:url(#r7d9lo78ya)">
        <path data-name="패스 3785" d="M21.128 22.387a2.027 2.027 0 0 1-1.713 1.062 2.027 2.027 0 0 1-1.776.953 2.141 2.141 0 0 1-1.55-.6c-.61.275-1.2.514-1.754.708a5.319 5.319 0 0 0 8.536-4.928 22.37 22.37 0 0 1-1.49 1.165 2.141 2.141 0 0 1-.253 1.643" transform="translate(-10.624 -14.509)" style="fill:#f6c34b"/>
        <path data-name="패스 3786" d="M10.782 5.8q-.359.29-.782.6-.21.153-.434.308c-.495.343-1.039.694-1.62 1.043q-.235.141-.477.281t-.48.268c-.6.332-1.179.63-1.729.889q-.253.119-.5.227-.461.2-.879.365a2.345 2.345 0 0 1-.447-.559 2.012 2.012 0 0 1-.052-2.061A2.013 2.013 0 0 1 3.454 5.1a2.029 2.029 0 0 1 1.714-1.058 2.027 2.027 0 0 1 1.776-.952 2.012 2.012 0 0 1 1.82.969 2.012 2.012 0 0 1 1.759 1.076 2.341 2.341 0 0 1 .26.667m3.106-2.61c-.3-.526-1.545-.437-3.249.13a5.319 5.319 0 0 0-8.832 5.1C.465 9.612-.234 10.643.07 11.169c.17.294.631.4 1.3.33a7.445 7.445 0 0 0 1.153-.222c.251-.066.516-.146.793-.238l.024-.008c.381-.128.786-.279 1.207-.453q.316-.13.645-.277c.367-.164.745-.344 1.13-.537Q6.659 9.6 7 9.417q.477-.254.963-.534t.944-.567q.34-.212.664-.426c.243-.161.48-.321.708-.482l.3-.212q.291-.211.562-.42t.52-.414q.125-.1.243-.2t.251-.218c.069-.061.136-.121.2-.181q.32-.295.583-.573a7.018 7.018 0 0 0 .534-.629c.059-.079.115-.158.164-.233q.051-.079.095-.155a1.511 1.511 0 0 0 .23-.671.563.563 0 0 0-.07-.305z" transform="translate(0 -1.38)" style="fill:#f6c34b"/>
        <path data-name="패스 3787" d="M19.859 64.74a889.262 889.262 0 0 0-9.8 0 .841.841 0 0 0-.846.827v.017a.842.842 0 0 0 .846.828c1.563.017 8.217.017 9.8 0a.84.84 0 0 0 .845-.831v-.017a.841.841 0 0 0-.845-.822" transform="translate(-6.825 -47.969)" style="fill:#f6c34b"/>
        <path data-name="패스 3788" d="M12.885 75.907c.814 0 6.085.014 7.454.007a.959.959 0 0 0 .939-.948c.01-.4.01-.86 0-1.272a.952.952 0 0 0-.929-.936 810.032 810.032 0 0 0-9.223 0 .732.732 0 0 0-.709.738v.019a.738.738 0 0 0 .722.751c1.408.008 6.657.006 7.7-.006a.2.2 0 0 1 0 .4c-.981 0-6.056-.009-7.435-.005a.953.953 0 0 0-.937.941c-.012.474-.012.879 0 1.348a.952.952 0 0 0 .92.939c1.561.032 7.68.03 9.143 0a.794.794 0 0 0-.01-1.583 996.205 996.205 0 0 0-7.635.005.2.2 0 0 1 0-.395" transform="translate(-7.719 -53.911)" style="fill:#f6c34b"/>
        <path data-name="패스 3789" d="M13.941 49.979H18.3a.185.185 0 1 1 0 .37h-4.359a.185.185 0 1 1 0-.37m-2.059.37h-.228a.876.876 0 0 0 0 1.751c1.5.016 7.413.016 8.929 0h.017a.874.874 0 0 0 .865-.85v-.025a.876.876 0 0 0-.876-.876h-.234a.185.185 0 1 1 0-.37h.234a.873.873 0 0 0 .3-.057l.028-.009c.018-.006.033-.017.05-.024a.874.874 0 0 0 .5-.784.876.876 0 0 0-.876-.876h-.012a829.19 829.19 0 0 0-8.922 0 .874.874 0 0 0-.223 1.72c.019 0 .036.011.055.015s.034 0 .052.005a.85.85 0 0 0 .116.012h.228a.185.185 0 1 1 0 .37" transform="translate(-7.988 -35.733)" style="fill:#f6c34b"/>
        <path data-name="패스 3790" d="M102.018 53.808c.077 0 5.423.018 6.059.009a2.7 2.7 0 0 0 .745-.055 1.092 1.092 0 0 0 .794-.978.894.894 0 0 0-.062-.347 1.17 1.17 0 0 0-1.074-.658c-.289-.006-4.06 0-4.671-.016a.637.637 0 0 1-.359-.064.379.379 0 0 1-.165-.322c.014-.528.018-1.339.013-2.012a1.152 1.152 0 0 0-1.153-1.144h-.027a1.164 1.164 0 0 0-1.164 1.14c-.019.989-.018 2.4 0 3.384a1.084 1.084 0 0 0 1.063 1.062" transform="translate(-74.805 -35.737)" style="fill:#f6c34b"/>
        <path data-name="패스 3791" d="M137.526 54.9h.026a1.13 1.13 0 0 0 1.135-1.106c.024-1.251.024-3.646 0-4.89a1.129 1.129 0 0 0-1.13-1.108h-.026a1.129 1.129 0 0 0-1.13 1.115 247.462 247.462 0 0 0 0 4.874 1.129 1.129 0 0 0 1.127 1.115" transform="translate(-101.077 -35.419)" style="fill:#f6c34b"/>
        <path data-name="패스 3792" d="m112.021 75.335-4.277-3.229a1.718 1.718 0 0 0-2.045 0l-4.3 3.224a1.033 1.033 0 0 0-.3 1.327 1 1 0 0 0 1.474.3l4.038-3.03a.183.183 0 0 1 .22 0l4.01 3.028a1 1 0 0 0 1.51-.366 1.028 1.028 0 0 0-.33-1.259" transform="translate(-74.83 -53.187)" style="fill:#f6c34b"/>
        <path data-name="패스 3793" d="M65.393 27.267h-5.57a.189.189 0 0 1 0-.379h5.57a.189.189 0 1 1 0 .379m2.445-2.273a1.735 1.735 0 0 0-.212-1.008 1.131 1.131 0 0 0-1.98.258 1.706 1.706 0 0 0-.064.52.39.39 0 0 1-.389.376 891.31 891.31 0 0 0-5.171 0 .39.39 0 0 1-.389-.376 1.714 1.714 0 0 0-.064-.52 1.13 1.13 0 0 0-1.98-.258 1.736 1.736 0 0 0-.211 1.008c0 .322-.021 2.228-.006 2.948a1.09 1.09 0 0 0 1.071 1.071c1.008.016 7.322.016 8.33 0a1.09 1.09 0 0 0 1.07-1.071c.015-.721-.008-2.626-.006-2.948" transform="translate(-42.515 -17.423)" style="fill:#f6c34b"/>
        <path data-name="패스 3794" d="M58.381 3.07h1.39a.189.189 0 0 1 0 .379h-1.39a.189.189 0 1 1 0-.379m-1.956 2.973c.4.007 4.9.007 5.3 0a1.867 1.867 0 0 0 1.246-.243.918.918 0 0 0-.2-1.512 1.263 1.263 0 0 0-.4-.086c-.214-.032-.422-.173-.4-.415.022-.28.038-.842.053-1.121a.389.389 0 0 1 .4-.356.9.9 0 0 0 .307-.068.922.922 0 0 0 .566-.844.91.91 0 0 0-.91-.91c-.637-.017-5.966-.017-6.6 0a.91.91 0 0 0-.91.91.922.922 0 0 0 .567.844.9.9 0 0 0 .308.068.39.39 0 0 1 .4.356c.015.278.031.841.052 1.121.019.242-.189.383-.4.415a1.262 1.262 0 0 0-.4.086.918.918 0 0 0-.2 1.512 1.868 1.868 0 0 0 1.243.245" transform="translate(-40.66 -.35)" style="fill:#f6c34b"/>
        <path data-name="패스 3795" d="M92.248 2.709a1.088 1.088 0 0 0-1-1.083.083.083 0 0 1-.076-.086v-.111c0-.132-.006-.258-.01-.378A1.083 1.083 0 0 0 90.081 0h-.131a1.085 1.085 0 0 0-1.08 1.066c-.017.986-.018 2.593 0 3.582a1.082 1.082 0 0 0 1.079 1.063h.131a1.081 1.081 0 0 0 1.081-1.049c0-.111.006-.227.009-.347v-.147.013a.088.088 0 0 1 .085-.1A1.018 1.018 0 0 0 92.248 3z" transform="translate(-65.852)" style="fill:#f6c34b"/>
        <path data-name="패스 3796" d="M112.7 33.811c-.392 0-7.132 0-7.539.008-.074 0-.239.005-.246-.093a1.071 1.071 0 0 0-.094-.544.915.915 0 0 0-.4-.322 1.538 1.538 0 0 0-.635-.13 1.186 1.186 0 0 0-1 .435 1.283 1.283 0 0 0-.123.715v.825a1.6 1.6 0 0 0 .067.53.941.941 0 0 0 .285.412 1.2 1.2 0 0 0 .716.211c1.72.022 7.319.014 8.977-.008a1.013 1.013 0 0 0 1-1.008v-.022a1.014 1.014 0 0 0-1.01-1.009" transform="translate(-76.085 -24.257)" style="fill:#f6c34b"/>
        <path data-name="패스 3797" d="M104.4 5c1.215.013 5.788.018 7.22.011.151 0 .19.074.2.22a.831.831 0 0 0 .488.671 1.468 1.468 0 0 0 1.093.041 1.1 1.1 0 0 0 .574-1.11c.012-.978.012-2.363 0-3.31a1.088 1.088 0 0 0-1.069-1.072 361.057 361.057 0 0 0-8.455 0 1.058 1.058 0 0 0-1.034 1.065v.026a1.049 1.049 0 0 0 1.038 1.05c.469 0 6.97-.012 7.161-.011a.2.2 0 0 1 0 .4h-7.219a.989.989 0 0 0-.98.993V4a1 1 0 0 0 .986 1" transform="translate(-76.642 -.316)" style="fill:#f6c34b"/>
        <path data-name="패스 3798" d="M111.919 20.6c-.613-.005-2.829-.011-3.327-.013a.186.186 0 0 1-.187-.127v-.006a1.082 1.082 0 0 0-1.053-.865h-.295a1.081 1.081 0 0 0-1.053.86l-.007.011c-.037.135-.2.127-.2.127l-3.329.006a1.012 1.012 0 0 0-1 1.013v.021a1.013 1.013 0 0 0 1.007 1.013c1.744.011 7.678.011 9.439 0a1.008 1.008 0 0 0 1-1v-.022a1.009 1.009 0 0 0-1-1.015" transform="translate(-75.199 -14.516)" style="fill:#f6c34b"/>
        <path data-name="패스 3799" d="M58.023 55.246c.365.006 1.126.006 1.5 0a.926.926 0 0 0 .916-.909c.024-1.234.024-3.05 0-4.291a.936.936 0 0 0-.927-.919c-.939-.011-2.708-.011-3.68 0a1.053 1.053 0 0 0-1.042 1.056v.026a1.064 1.064 0 0 0 1.056 1.069h1.579a.749.749 0 0 1 .757.751v.362a.8.8 0 0 1-.81.8 68.297 68.297 0 0 0-1.49-.005 1.086 1.086 0 0 0-1.078 1.069c-.018 1.1-.02 2.991 0 4.181a1.4 1.4 0 0 0 1.384 1.39c1 .014 2.3.012 3.219-.006a1.087 1.087 0 0 0 0-2.173h-1.386a.754.754 0 0 1-.766-.749v-.971a.7.7 0 0 1 .769-.68" transform="translate(-40.607 -36.404)" style="fill:#f6c34b"/>
        <path data-name="패스 3800" d="M84.032 49.026a1.235 1.235 0 0 0-1.21-1.234h-.051a1.235 1.235 0 0 0-1.209 1.18v.088c-.005.832-.009 2.963-.009 2.963a.186.186 0 1 1-.371 0s0-2.247-.013-2.954v-.041a1.235 1.235 0 1 0-2.469 0v.044c-.022 2.1-.023 6.889 0 9.09a1.234 1.234 0 0 0 1.233 1.233 1.234 1.234 0 0 0 1.233-1.234c.009-1.028.014-3.72.014-3.72a.186.186 0 1 1 .371 0s.005 2.693.012 3.72a1.234 1.234 0 0 0 1.237 1.234 1.234 1.234 0 0 0 1.232-1.231c.038-2.5.027-7.247 0-9.134" transform="translate(-58.311 -35.417)" style="fill:#f6c34b"/>
    </g>
</svg>
