<svg xmlns="http://www.w3.org/2000/svg" width="30" height="26" viewBox="0 0 30 26">
    <path data-name="패스 1823" d="M28.455 4.25V2.524A1.261 1.261 0 0 1 29.7 1.25h5.507a1.261 1.261 0 0 1 1.246 1.274V4.25" transform="translate(-17.455 -.25)" style="stroke-linejoin:round;fill:none;stroke:#f6c34b;stroke-width:2px"/>
    <g data-name="패스 1824" style="stroke-linecap:round;fill:#fef8d9;stroke-linejoin:round">
        <path d="M18.093 26.708h-3.686c-6.817 0-12.157-2.484-12.157-5.654v-2.346h28v2.346c0 3.17-5.34 5.654-12.157 5.654z" style="stroke:none" transform="translate(-1.25 -13.708)"/>
        <path d="M3.25 19.708v1.346c0 1.45 1.72 2.51 2.746 3.013 2.157 1.058 5.145 1.641 8.411 1.641h3.686c3.266 0 6.253-.583 8.411-1.641 1.026-.503 2.746-1.563 2.746-3.013v-1.346h-26m-2-2h30v3.346c0 3.951-5.921 6.654-13.157 6.654h-3.686c-7.236 0-13.157-2.703-13.157-6.654v-3.346z" style="fill:#f6c34b;stroke:none" transform="translate(-1.25 -13.708)"/>
    </g>
    <path data-name="패스 1825" d="M29.25 41.234v12h-28v-12" transform="translate(-.25 -28.234)" style="stroke-linecap:round;stroke-linejoin:round;fill:none;stroke:#f6c34b;stroke-width:2px"/>
    <path data-name="패스 1826" d="M28.424 57.942v3h-18v-3" transform="translate(-4.423 -40.942)" style="stroke-miterlimit:10;stroke-linecap:round;fill:none;stroke:#f6c34b;stroke-width:2px"/>
    <path data-name="선 55" transform="translate(13 9)" style="stroke-linecap:round;stroke-linejoin:round;fill:none;stroke:#f6c34b;stroke-width:2px" d="M0 0h4"/>
</svg>
