<svg xmlns="http://www.w3.org/2000/svg" width="17.92" height="20"><defs><clipPath id="a"><path data-name="사각형 2051" style="fill:none" d="M0 0h17.92v20H0z"/></clipPath></defs><path data-name="패스 3923" d="M32.838 12.348h-1.666V10.68z" transform="translate(-16.584 -5.682)" style="fill:#009953"/><path data-name="패스 3924" d="M31.173 10.681h1.666v1.667z" transform="translate(-16.584 -5.682)" style="fill:#008242"/><path data-name="패스 3925" d="M32.838 14.243h-1.666v1.667z" transform="translate(-16.584 -7.578)" style="fill:#009043"/><path data-name="패스 3926" d="M32.838 26.594h-1.666v-1.667z" transform="translate(-16.584 -13.261)" style="fill:#57b66f"/><path data-name="패스 3927" d="M34.732 30.155H36.4l-1.666-1.666z" transform="translate(-18.478 -15.157)" style="fill:#64b96e"/><path data-name="패스 3928" d="M32.838 28.489h-1.666v1.667z" transform="translate(-16.584 -15.156)" style="fill:#46a76c"/><path data-name="패스 3929" d="M31.173 30.155h1.666v-1.667z" transform="translate(-16.584 -15.156)" style="fill:#66be96"/><path data-name="패스 3930" d="M32.838 33.716h-1.666v-1.667z" transform="translate(-16.584 -17.05)" style="fill:#72c6d0"/><path data-name="패스 3931" d="M31.173 32.049h1.666v1.667z" transform="translate(-16.584 -17.051)" style="fill:#2cb5a9"/><path data-name="패스 3932" d="M34.732 32.049v1.667l1.668-1.667z" transform="translate(-18.478 -17.051)" style="fill:#3baaa3"/><path data-name="패스 3933" d="M32.838 35.612h-1.666v1.667z" transform="translate(-16.584 -18.946)" style="fill:#18b7cd"/><path data-name="패스 3934" d="M13.366 19.471h1.666V17.8z" transform="translate(-7.111 -9.472)" style="fill:#43af3e"/><path data-name="패스 3935" d="M13.366 21.365h1.666v1.667z" transform="translate(-7.111 -11.367)" style="fill:#7fbe26"/><path data-name="패스 3936" d="M20.488 12.348h1.667V10.68z" transform="translate(-10.9 -5.682)" style="fill:#009640"/><path data-name="패스 3937" d="M20.488 14.243h1.667v1.667z" transform="translate(-10.9 -7.578)" style="fill:#1eaa39"/><path data-name="패스 3938" d="M22.155 15.91h-1.667v-1.667z" transform="translate(-10.9 -7.578)" style="fill:#44af35"/><path data-name="패스 3939" d="M16.928 15.91h1.666v-1.667z" transform="translate(-9.006 -7.578)" style="fill:#009e41"/><path data-name="패스 3940" d="M25.716 12.348H24.05V10.68z" transform="translate(-12.795 -5.682)" style="fill:#008742"/><path data-name="패스 3941" d="M25.716 14.243H24.05v1.667z" transform="translate(-12.795 -7.578)" style="fill:#00a23e"/><path data-name="패스 3942" d="M18.594 19.471h-1.667V17.8z" transform="translate(-9.005 -9.472)" style="fill:#5bb431"/><path data-name="패스 3943" d="M16.928 17.8h1.666v1.667z" transform="translate(-9.006 -9.472)" style="fill:#1aab4b"/><path data-name="패스 3944" d="M22.155 17.8h-1.667v1.667z" transform="translate(-10.9 -9.472)" style="fill:#42b049"/><path data-name="패스 3945" d="M18.594 21.365h-1.667v1.667z" transform="translate(-9.005 -11.367)" style="fill:#42b049"/><path data-name="패스 3946" d="M24.051 10.681h1.666v1.667z" transform="translate(-12.795 -5.682)" style="fill:#009e41"/><path data-name="패스 3947" d="M27.61 12.348h1.667V10.68z" transform="translate(-14.689 -5.682)" style="fill:#44af35"/><path data-name="패스 3948" d="M29.278 10.681h-1.667v1.667z" transform="translate(-14.689 -5.682)" style="fill:#009043"/><path data-name="패스 3949" d="M27.61 14.243h1.667v1.667z" transform="translate(-14.689 -7.578)" style="fill:#00974f"/><path data-name="패스 3950" d="M29.278 15.91h-1.667v-1.667z" transform="translate(-14.689 -7.578)" style="fill:#009e41"/><path data-name="패스 3951" d="M24.051 15.91h1.666v-1.667z" transform="translate(-12.795 -7.578)" style="fill:#42b049"/><path data-name="패스 3952" d="M20.488 19.471h1.667V17.8z" transform="translate(-10.9 -9.472)" style="fill:#6fb92d"/><path data-name="패스 3953" d="M20.488 21.365h1.667v1.667z" transform="translate(-10.9 -11.367)" style="fill:#6eb944"/><path data-name="패스 3954" d="M22.155 23.032h-1.667v-1.667z" transform="translate(-10.9 -11.367)" style="fill:#87c024"/><path data-name="패스 3955" d="M16.928 23.032h1.666v-1.667z" transform="translate(-9.006 -11.367)" style="fill:#9cc715"/><path data-name="패스 3956" d="M25.716 19.471H24.05V17.8z" transform="translate(-12.795 -9.472)" style="fill:#8dc33e"/><path data-name="패스 3957" d="M24.051 17.8h1.666v1.667z" transform="translate(-12.795 -9.472)" style="fill:#1eaa39"/><path data-name="패스 3958" d="M29.278 17.8h-1.667v1.667z" transform="translate(-14.689 -9.472)" style="fill:#51b34e"/><path data-name="패스 3959" d="M29.278 23.032h-1.667v-1.667z" transform="translate(-14.689 -11.367)" style="fill:#7fbe26"/><path data-name="패스 3960" d="M25.716 21.365H24.05v1.667z" transform="translate(-12.795 -11.367)" style="fill:#43af3e"/><path data-name="패스 3961" d="M24.051 23.032h1.666v-1.667z" transform="translate(-12.795 -11.367)" style="fill:#9cc715"/><path data-name="패스 3962" d="M16.928 24.927h1.666v1.667z" transform="translate(-9.006 -13.262)" style="fill:#7fbe26"/><path data-name="패스 3963" d="M20.488 26.594h1.667v-1.667z" transform="translate(-10.9 -13.261)" style="fill:#7cc06d"/><path data-name="패스 3964" d="M22.155 24.927h-1.667v1.667z" transform="translate(-10.9 -13.262)" style="fill:#5ab546"/><path data-name="패스 3965" d="M20.488 28.489h1.667v1.667z" transform="translate(-10.9 -15.156)" style="fill:#57b66f"/><path data-name="패스 3966" d="M25.716 26.594H24.05v-1.667z" transform="translate(-12.795 -13.261)" style="fill:#42b049"/><path data-name="패스 3967" d="M24.051 24.927h1.666v1.667z" transform="translate(-12.795 -13.262)" style="fill:#7ebf58"/><path data-name="패스 3968" d="M27.61 26.594h1.667v-1.667z" transform="translate(-14.689 -13.261)" style="fill:#6cba5a"/><path data-name="패스 3969" d="M29.278 24.927h-1.667v1.667z" transform="translate(-14.689 -13.262)" style="fill:#8dc33e"/><path data-name="패스 3970" d="M27.61 28.489h1.667v1.667z" transform="translate(-14.689 -15.156)" style="fill:#4dbaa9"/><path data-name="패스 3971" d="M29.278 30.155h-1.667v-1.667z" transform="translate(-14.689 -15.156)" style="fill:#7ebf58"/><path data-name="패스 3972" d="M25.716 28.489H24.05v1.667z" transform="translate(-12.795 -15.156)" style="fill:#59b55b"/><path data-name="패스 3973" d="M24.051 30.155h1.666v-1.667z" transform="translate(-12.795 -15.156)" style="fill:#86c9ab"/><path data-name="패스 3974" d="M20.488 33.716h1.667v-1.667z" transform="translate(-10.9 -17.05)" style="fill:#00a1c1"/><path data-name="패스 3975" d="M20.488 35.612h1.667v1.667z" transform="translate(-10.9 -18.946)" style="fill:#00a4e3"/><path data-name="패스 3976" d="M22.155 37.279h-1.667v-1.667z" transform="translate(-10.9 -18.946)" style="fill:#0092d3"/><path data-name="패스 3977" d="M16.928 37.279h1.666v-1.667z" transform="translate(-9.006 -18.946)" style="fill:#1dade5"/><path data-name="패스 3978" d="M25.716 33.716H24.05v-1.667z" transform="translate(-12.795 -17.05)" style="fill:#18b7cd"/><path data-name="패스 3979" d="M24.051 32.049h1.666v1.667z" transform="translate(-12.795 -17.051)" style="fill:#4dbaa9"/><path data-name="패스 3980" d="M27.61 33.716h1.667v-1.667z" transform="translate(-14.689 -17.05)" style="fill:#39b382"/><path data-name="패스 3981" d="M29.278 32.049h-1.667v1.667z" transform="translate(-14.689 -17.051)" style="fill:#3baaa3"/><path data-name="패스 3982" d="M27.61 35.612h1.667v1.667z" transform="translate(-14.689 -18.946)" style="fill:#00a3c4"/><path data-name="패스 3983" d="M29.278 37.279h-1.667v-1.667z" transform="translate(-14.689 -18.946)" style="fill:#0098d8"/><path data-name="패스 3984" d="M25.716 35.612H24.05v1.667z" transform="translate(-12.795 -18.946)" style="fill:#009ec0"/><path data-name="패스 3985" d="M24.051 37.279h1.666v-1.667z" transform="translate(-12.795 -18.946)" style="fill:#1dade5"/><path data-name="패스 3986" d="M16.928 40.841h1.666l-1.666-1.667z" transform="translate(-9.006 -20.841)" style="fill:#0079c2"/><path data-name="패스 3987" d="m16.928 39.174 1.666 1.667v-1.667z" transform="translate(-9.006 -20.841)" style="fill:#0086bd"/><path data-name="패스 3988" d="M20.489 40.841h1.667v-1.667z" transform="translate(-10.9 -20.841)" style="fill:#0075c1"/><path data-name="패스 3989" d="M20.489 39.174v1.667l1.667-1.667z" transform="translate(-10.9 -20.841)" style="fill:#0096df"/><path data-name="패스 3990" d="M24.051 40.841h1.666l-1.666-1.667z" transform="translate(-12.795 -20.841)" style="fill:#008bd5"/><path data-name="패스 3991" d="m24.051 39.174 1.666 1.667v-1.667z" transform="translate(-12.795 -20.841)" style="fill:#187fc3"/><path data-name="패스 3992" d="M27.61 39.174v1.667l1.667-1.667z" transform="translate(-14.689 -20.841)" style="fill:#008cce"/><g data-name="그룹 514"><g data-name="그룹 513" style="clip-path:url(#a)"><path data-name="패스 3993" d="M14.531 40.84a.29.29 0 0 1-.2-.5l1.169-1.167v1.667z" transform="translate(-7.576 -20.84)" style="fill:#0068b6"/><path data-name="패스 3994" d="M35.7 10.681a.291.291 0 0 1 .206.5l-1.172 1.172v-1.672z" transform="translate(-18.478 -5.682)" style="fill:#007440"/><path data-name="패스 3995" d="M6.243 0H7.91v1.667z" transform="translate(-3.321)" style="fill:#cf1126"/><path data-name="패스 3996" d="M7.909 1.667H6.243V0z" transform="translate(-3.321)" style="fill:#e62310"/><path data-name="패스 3997" d="M4.349 0H2.682v1.667z" transform="translate(-1.427)" style="fill:#c71528"/><path data-name="패스 3998" d="M2.682 1.667h1.666V0z" transform="translate(-1.427)" style="fill:#d70c18"/><path data-name="패스 3999" d="M15.032 1.667h-1.665V0z" transform="translate(-7.111)" style="fill:#e62310"/><path data-name="패스 4000" d="M11.471 0H9.8v1.667z" transform="translate(-5.215)" style="fill:#e7380d"/><path data-name="패스 4001" d="M9.8 1.667h1.667V0z" transform="translate(-5.216)" style="fill:#d70b24"/><path data-name="패스 4002" d="M2.682 3.56h1.666v1.667z" transform="translate(-1.427 -1.894)" style="fill:#e84709"/><path data-name="패스 4003" d="M6.243 5.227H7.91V3.56z" transform="translate(-3.321 -1.894)" style="fill:#e95504"/><path data-name="패스 4004" d="M7.909 3.56H6.243v1.667z" transform="translate(-3.321 -1.894)" style="fill:#d93915"/><path data-name="패스 4005" d="M6.243 7.121H7.91v1.666z" transform="translate(-3.321 -3.788)" style="fill:#e7380d"/><path data-name="패스 4006" d="M11.471 5.227H9.8V3.56z" transform="translate(-5.215 -1.894)" style="fill:#e62310"/><path data-name="패스 4007" d="M9.8 3.56h1.667v1.667z" transform="translate(-5.216 -1.894)" style="fill:#e73820"/><path data-name="패스 4008" d="M13.366 5.227h1.666V3.56z" transform="translate(-7.111 -1.894)" style="fill:#e7372f"/><path data-name="패스 4009" d="M15.032 3.56h-1.665v1.667z" transform="translate(-7.111 -1.894)" style="fill:#e84709"/><path data-name="패스 4010" d="M13.366 7.121h1.666v1.666z" transform="translate(-7.111 -3.788)" style="fill:#e84709"/><path data-name="패스 4011" d="M15.032 8.787h-1.665V7.121z" transform="translate(-7.111 -3.788)" style="fill:#e7380d"/><path data-name="패스 4012" d="M11.471 7.121H9.8v1.666z" transform="translate(-5.215 -3.788)" style="fill:#e50038"/><path data-name="패스 4013" d="M9.8 8.787h1.667V7.121z" transform="translate(-5.216 -3.788)" style="fill:#ec6c00"/><path data-name="패스 4014" d="M6.243 12.348H7.91V10.68z" transform="translate(-3.321 -5.682)" style="fill:#f08c00"/><path data-name="패스 4015" d="M6.243 14.243H7.91v1.667z" transform="translate(-3.321 -7.577)" style="fill:#ec6c00"/><path data-name="패스 4016" d="M7.909 15.91H6.243v-1.667z" transform="translate(-3.321 -7.577)" style="fill:#f29600"/><path data-name="패스 4017" d="M2.682 15.91h1.666v-1.667z" transform="translate(-1.427 -7.577)" style="fill:#ef8200"/><path data-name="패스 4018" d="M11.471 12.348H9.8V10.68z" transform="translate(-5.215 -5.682)" style="fill:#ea6000"/><path data-name="패스 4019" d="M9.8 10.681h1.667v1.667z" transform="translate(-5.216 -5.682)" style="fill:#e84709"/><path data-name="패스 4020" d="M13.366 12.348h1.666V10.68z" transform="translate(-7.111 -5.682)" style="fill:#ec6c00"/><path data-name="패스 4021" d="M15.032 10.681h-1.665v1.667z" transform="translate(-7.111 -5.682)" style="fill:#e95504"/><path data-name="패스 4022" d="M13.366 14.243h1.666v1.667z" transform="translate(-7.111 -7.577)" style="fill:#ef8200"/><path data-name="패스 4023" d="M15.032 15.91h-1.665v-1.667z" transform="translate(-7.111 -7.577)" style="fill:#f29600"/><path data-name="패스 4024" d="M11.471 14.243H9.8v1.667z" transform="translate(-5.215 -7.577)" style="fill:#ed7700"/><path data-name="패스 4025" d="M9.8 15.91h1.667v-1.667z" transform="translate(-5.216 -7.577)" style="fill:#f5aa00"/><path data-name="패스 4026" d="M4.349 19.471H2.682V17.8z" transform="translate(-1.427 -9.472)" style="fill:#ef8200"/><path data-name="패스 4027" d="M2.682 17.8h1.666v1.667z" transform="translate(-1.427 -9.472)" style="fill:#f29600"/><path data-name="패스 4028" d="M6.243 19.471H7.91V17.8z" transform="translate(-3.321 -9.472)" style="fill:#f29600"/><path data-name="패스 4029" d="M7.909 17.8H6.243v1.667z" transform="translate(-3.321 -9.472)" style="fill:#f5aa00"/><path data-name="패스 4030" d="M11.471 19.471H9.8V17.8z" transform="translate(-5.215 -9.472)" style="fill:#f5aa00"/><path data-name="패스 4031" d="M9.8 17.8h1.667v1.667z" transform="translate(-5.216 -9.472)" style="fill:#f29600"/><path data-name="패스 4032" d="M15.032 17.8h-1.665v1.667z" transform="translate(-7.111 -9.472)" style="fill:#f08c00"/><path data-name="패스 4033" d="M18.594 5.227h-1.667V3.56z" transform="translate(-9.005 -1.894)" style="fill:#de0039"/><path data-name="패스 4034" d="M22.155 8.787h-1.667V7.121z" transform="translate(-10.9 -3.788)" style="fill:#e62318"/><path data-name="패스 4035" d="M18.594 7.121h-1.667v1.666z" transform="translate(-9.005 -3.788)" style="fill:#e73820"/><path data-name="패스 4036" d="M16.928 8.787h1.666V7.121z" transform="translate(-9.006 -3.788)" style="fill:#e95504"/><path data-name="패스 4037" d="M18.594 12.348h-1.667V10.68z" transform="translate(-9.005 -5.682)" style="fill:#ea6000"/><path data-name="패스 4038" d="M16.928 10.681h1.666v1.667z" transform="translate(-9.006 -5.682)" style="fill:#e8473f"/><path data-name="패스 4039" d="M22.155 10.681h-1.667v1.667z" transform="translate(-10.9 -5.682)" style="fill:#e95504"/><path data-name="패스 4040" d="M18.594 14.243h-1.667v1.667z" transform="translate(-9.005 -7.577)" style="fill:#ea6000"/><path data-name="패스 4041" d="M.289 19.471a.289.289 0 0 1-.289-.29.284.284 0 0 1 .084-.2L1.255 17.8v1.667z" transform="translate(0 -9.472)" style="fill:#f4a000"/><path data-name="패스 4042" d="M.289 0A.288.288 0 0 0 0 .289.288.288 0 0 0 .084.5l1.17 1.171V0z" style="fill:#b81c22"/></g></g></svg>