<svg xmlns="http://www.w3.org/2000/svg" width="100" height="100"><defs><clipPath id="a"><path data-name="사각형 2011" style="fill:none" d="M0 0h100v100H0z"/></clipPath><clipPath id="b"><path data-name="사각형 2012" style="fill:none" d="M0 0h96.154v96.154H0z"/></clipPath></defs><g data-name="그룹 687"><g data-name="그룹 418"><g data-name="그룹 417" style="clip-path:url(#a)"><path data-name="패스 3487" d="M95.7 48.6a47.1 47.1 0 1 0-47.1 47.1 47.1 47.1 0 0 0 47.1-47.1" transform="translate(1.4 1.4)" style="fill:#ffffe6"/><circle data-name="타원 231" cx="47.1" cy="47.1" r="47.1" transform="translate(2.9 2.9)" style="stroke-width:3px;stroke:#f5c249;stroke-miterlimit:10;fill:none"/><path data-name="패스 3488" d="M94.077 50.464a43.614 43.614 0 1 0-43.613 43.613 43.614 43.614 0 0 0 43.613-43.613" transform="translate(-.464 -.464)" style="fill:#ffffe6"/><circle data-name="타원 232" cx="43.614" cy="43.614" r="43.614" transform="translate(6.387 6.386)" style="stroke:#f5c249;stroke-miterlimit:10;fill:none"/><path data-name="패스 3489" d="M54.363 53.978a6.258 6.258 0 0 1 6.23-.185 6.677 6.677 0 0 1 9.6 5.6 5.375 5.375 0 0 1 2.191 2.2c.011.019.018.04.028.06a6.429 6.429 0 0 1 .331.7c.029.072.047.151.073.224.07.2.142.395.195.6.04.158.063.324.092.487.024.132.058.26.075.4a7.425 7.425 0 0 1 0 1.854c-.017.135-.051.263-.075.4-.03.163-.052.329-.092.487-.033.131-.082.253-.123.38a81.591 81.591 0 0 1-12.3.85 81.594 81.594 0 0 1-12.3-.85c-.04-.127-.09-.25-.123-.381s-.048-.257-.073-.384c-.033-.165-.073-.327-.094-.5a7.416 7.416 0 0 1 0-1.853c.021-.173.062-.337.1-.506.025-.125.04-.254.072-.377.053-.206.124-.4.194-.6.026-.076.045-.156.074-.23a6.508 6.508 0 0 1 .346-.731c.005-.009.009-.021.015-.031a5.374 5.374 0 0 1 2.2-2.2 6.221 6.221 0 0 1 3.374-5.41m22 6.337a16.448 16.448 0 0 0-31.539 0c-5.439 1.115-8.9 2.8-8.9 4.675 0 .839.69 1.639 1.939 2.367a13.013 13.013 0 0 0 1.633.786q.619.252 1.33.486t1.508.45q.8.216 1.673.413c.268.059.542.117.819.175q1.405.289 2.976.525 1.526.228 3.189.4.553.058 1.119.109 1.133.1 2.317.177t2.398.118a100.224 100.224 0 0 0 7.514 0q1.226-.046 2.409-.121t2.317-.177q.567-.051 1.12-.109a77.03 77.03 0 0 0 3.189-.4q1.569-.236 2.976-.525c.278-.058.552-.116.819-.175q.876-.2 1.674-.413t1.508-.45q.711-.235 1.329-.486a12.9 12.9 0 0 0 1.633-.786c1.249-.727 1.939-1.527 1.939-2.367 0-1.88-3.463-3.56-8.9-4.675" transform="translate(-10.592 -14.989)" style="fill:#f6c34b"/><path data-name="패스 3490" d="M71.864 88.1a6.259 6.259 0 0 1-6.231.185A6.258 6.258 0 0 1 59.4 88.1a6.608 6.608 0 0 1-3.213-4.016 68.257 68.257 0 0 1-5.8-.819 16.448 16.448 0 0 0 30.487 0 68.721 68.721 0 0 1-5.8.819 6.607 6.607 0 0 1-3.21 4.016" transform="translate(-15.633 -27.087)" style="fill:#f6c34b"/><path data-name="패스 3491" d="M30.419 107.269c1.594 1.755 1.894 3.2.874 4.126-.988.9-2.4.461-3.991-1.293-1.565-1.723-1.866-3.167-.878-4.064 1.02-.928 2.429-.492 3.994 1.231m-.377-5.3c.359-.326.8-.083 1.133.281.292.322.53.812.163 1.145l-.947.86.374.412.955-.866c.36-.327.8-.084 1.134.278.291.322.53.812.161 1.147l-.864.785a1.744 1.744 0 0 1 .272.234c.278.305.157.73-.194 1.05a.734.734 0 0 1-.959.043 12.654 12.654 0 0 1-1.977-1.83l-1.633-1.8a.723.723 0 0 1 .171-1.042.745.745 0 0 1 1.054-.07l.21.23zm-1.614 7.11c.69.759 1.2.982 1.465.745s.064-.751-.625-1.508c-.659-.725-1.15-.97-1.412-.734s-.087.773.571 1.5m2.192-7.981a.871.871 0 0 1 1.249-1.135l3.3 3.634c.3.329.109.759-.2 1.041s-.747.424-1.046.094zm5.118 3.4c.35-.319.876-.134 1.228.254s.486.927.135 1.247l-1.313 1.194.584.643c.315.345.149.722-.185 1.025-.351.32-.748.455-1.063.108l-.584-.643-1.094.994c-.433.393-.919.218-1.293-.193s-.5-.914-.07-1.307z" transform="translate(-7.085 -32.837)" style="fill:#f5c249"/></g></g><text transform="rotate(36.42 -91.124 70.523)" style="font-family:SegoeUI,Segoe UI;font-size:1px;fill:#f5c249"><tspan x="0" y="0"> </tspan></text><g data-name="그룹 420"><g data-name="그룹 419" style="clip-path:url(#b)" transform="translate(1.923 1.923)"><path data-name="패스 3492" d="M45.054 113.853c.425-.86.816-1.024 1.835-.521l2.826 1.394c.4.2.4.651.193 1.067s-.55.663-.949.466l-1.978-.977c-.24-.118-.284-.1-.4.134l-.293.594 1.907.941c.4.2.4.627.193 1.042s-.535.657-.935.46l-1.907-.941-.381.772c-.117.237-.126.282.128.42a10.984 10.984 0 0 0 2.351.925.682.682 0 0 1 .435.9c-.144.519-.519.776-.833.706a14.726 14.726 0 0 1-3.573-1.444c-.834-.473-1.122-.872-.667-1.793zm6.549 1.879c.214-.434.75-.465 1.239-.223s.791.686.576 1.121l-3.918 7.948c-.258.524-.775.54-1.274.293s-.8-.665-.543-1.19l2.064-4.182-.8-.395c-.42-.208-.449-.626-.23-1.07.23-.466.576-.687 1-.481l.8.394z" transform="translate(-14.908 -39.387)" style="fill:#f5c249"/><path data-name="패스 3493" d="m63.314 121.3-.014.1a3.485 3.485 0 0 0 1.268 3.73.712.712 0 0 1 .279.7 1.052 1.052 0 0 1-1.145.9 3.224 3.224 0 0 1-1.945-2.245 3.174 3.174 0 0 1-2.516 1.738 1.013 1.013 0 0 1-.791-1.129.828.828 0 0 1 .506-.617 3.905 3.905 0 0 0 2.233-3.419l.01-.065-1.4-.2c-.473-.07-.572-.552-.515-.946.061-.413.32-.8.76-.735l4.881.713c.44.065.577.52.518.923s-.3.824-.764.757zm2.924-1.366c.072-.491.572-.686 1.113-.607s.953.408.882.9l-1.279 8.751c-.085.578-.563.765-1.113.684s-.966-.4-.881-.974z" transform="translate(-20.362 -41.494)" style="fill:#f5c249"/><path data-name="패스 3494" d="M75.092 126.15c-.408.061-.653-.371-.708-.742-.052-.348.055-.844.463-.9l8.559-1.272c.407-.061.653.382.7.733.055.37-.053.853-.46.915zm-.07-5.7c-.073-.492.409-.808.938-.886.55-.082 1.092.081 1.165.572l.217 1.462c.041.272.082.323.357.28l4.174-.618c.452-.068.727.269.791.7.069.469-.1.862-.55.93l-5.22.775c-.969.144-1.392.029-1.552-1.052zm1.016 6.839c-.073-.492.419-.821.946-.9s1.1.095 1.168.585l.113.764c.039.262.077.29.353.248l4.229-.629c.474-.071.726.27.793.718s-.073.869-.546.939l-5.31.79c-.98.145-1.361.079-1.526-1.034z" transform="translate(-25.912 -41.652)" style="fill:#f5c249"/></g></g><text transform="rotate(-19.95 250.107 -142.46)" style="font-family:SegoeUI,Segoe UI;font-size:1px;fill:#f5c249"><tspan x="0" y="0"> </tspan></text><g data-name="그룹 422"><g data-name="그룹 421" style="clip-path:url(#b)" transform="translate(1.923 1.923)"><path data-name="패스 3495" d="M97.056 111.6c-.223-.393.049-.839.495-1.091s.958-.253 1.181.142l4.412 7.777c.278.49.013.906-.443 1.164s-.956.276-1.233-.213l-2.192-3.865-.416.236 2.1 3.712c.278.489.017.89-.437 1.147s-.932.276-1.209-.213l-.963-1.7a.981.981 0 0 1-.444.886.892.892 0 0 1-.473.116 3.569 3.569 0 0 1-1.889-.8 3.244 3.244 0 0 1-.178 2.014.92.92 0 0 1-.353.417 1.057 1.057 0 0 1-1.337-.372.861.861 0 0 1-.044-.71c.315-.977.346-1.895-.7-3.737l-.169-.3-.726.412c-.417.236-.785-.074-.992-.44a.717.717 0 0 1 .153-1.037l3.081-1.747c.387-.219.768.046.969.4s.275.846-.132 1.076l-.6.341.147.259c1.017 1.793 1.988 2.22 2.958 2.328a.868.868 0 0 1 .268.089l-2.8-4.939c-.228-.4.03-.829.476-1.081s.943-.256 1.171.147L98 114.242l.417-.237z" transform="translate(-31.672 -38.441)" style="fill:#f5c249"/><path data-name="패스 3496" d="M104.948 107.836c-.866-.8-.884-1.122-.074-2l1.832-1.977c.817-.883 1.139-.887 2-.086l2.791 2.585c.866.8.868 1.123.066 1.989l-1.839 1.985c-.817.882-1.131.88-1.989.086zm2.734-2.174c-.169-.157-.279-.183-.453 0l-.508.548c-.174.188-.139.3.031.452l2.023 1.874c.177.164.281.184.455 0l.507-.546c.158-.172.14-.3-.032-.456zm.623-3.657c-.363-.337-.239-.86.131-1.261s.876-.556 1.24-.219l6.487 6.01a.858.858 0 0 1-.067 1.306c-.386.416-.875.57-1.3.173z" transform="translate(-36.333 -34.96)" style="fill:#f5c249"/></g></g><text transform="translate(14.482 18.856)" style="fill:#c6a03d;font-family:SegoeUI,Segoe UI;font-size:1px"><tspan x="0" y="0"> </tspan></text><g data-name="그룹 424"><g data-name="그룹 423" style="clip-path:url(#b)" transform="translate(1.923 1.923)"><path data-name="패스 3497" d="m23.719 84.332 1.134-.317a2.691 2.691 0 0 1 .708.8 4.655 4.655 0 0 1 .523 1.2 3.027 3.027 0 0 1 .068 1.618 1.35 1.35 0 0 1-.99 1L18.12 90.6a.658.658 0 0 1-.566-.193 3.5 3.5 0 0 1-.681-.782 9.192 9.192 0 0 1-1.2-2.705 5.509 5.509 0 0 1 .107-3.8 3.724 3.724 0 0 1 2.546-2.112 3.684 3.684 0 0 1 3.169.382 4.862 4.862 0 0 1 1.838 2.867 5.028 5.028 0 0 1 .167 1.013 4.015 4.015 0 0 1 .005.752.232.232 0 0 0 .18.014q.378-.107.036-1.7m-3.3 1.121a.368.368 0 0 0-.025-.178.257.257 0 0 0-.172-.187.707.707 0 0 0-.384.026l-.562.157a.873.873 0 0 0-.364.171.227.227 0 0 0-.056.242.455.455 0 0 0 .084.189.752.752 0 0 1 .123-.043z" transform="translate(-5.362 -28.161)" style="fill:#f5c249"/><path data-name="패스 3498" d="M23.966 69.472a5.67 5.67 0 0 1-.642 2.519 4.434 4.434 0 0 1-1.786 1.809 5.518 5.518 0 0 1-2.932.619A5.12 5.12 0 0 1 14.7 72.76a5 5 0 0 1-1.147-3.56 4.864 4.864 0 0 1 1.547-3.653 5.247 5.247 0 0 1 3.812-1.25 5.175 5.175 0 0 1 3.924 1.581 5.008 5.008 0 0 1 1.13 3.594m-5.542-.479a5.267 5.267 0 0 0-1.059.039q-.29.06-.3.247a.318.318 0 0 0 .07.212c.092-.007.216-.019.371-.036s.482-.015.985 0l.5.015c.348.011.6.026.76.046l.407.051.184.021a.32.32 0 0 0 .083-.207c0-.125-.09-.213-.281-.266a5.3 5.3 0 0 0-1.055-.1z" transform="translate(-4.721 -22.4)" style="fill:#f5c249"/><path data-name="패스 3499" d="m24.612 54.649 1.112.388a2.682 2.682 0 0 1 .122 1.063 4.642 4.642 0 0 1-.257 1.285 3.022 3.022 0 0 1-.869 1.367 1.348 1.348 0 0 1-1.385.257l-6.9-2.409a.66.66 0 0 1-.354-.482 3.526 3.526 0 0 1-.113-1.031 9.228 9.228 0 0 1 .559-2.908 5.505 5.505 0 0 1 2.257-3.056 3.726 3.726 0 0 1 3.3-.28 3.686 3.686 0 0 1 2.382 2.124 4.859 4.859 0 0 1-.128 3.4 4.975 4.975 0 0 1-.44.921 4.054 4.054 0 0 1-.425.621.226.226 0 0 0 .14.114q.371.13 1-1.378m-3.347-.963a.375.375 0 0 0 .081-.161.257.257 0 0 0-.035-.251.705.705 0 0 0-.331-.2l-.552-.192a.877.877 0 0 0-.4-.068.227.227 0 0 0-.183.166.46.46 0 0 0-.039.2.707.707 0 0 1 .126.035z" transform="translate(-5.563 -16.929)" style="fill:#f5c249"/><path data-name="패스 3500" d="M30.577 40.8a.268.268 0 0 0 .052-.136l-.566-.413a4.557 4.557 0 0 1 .409-1.535 8.144 8.144 0 0 1 .912-1.628 3.175 3.175 0 0 1 1.41.177 5.163 5.163 0 0 1 1.38.648 2.549 2.549 0 0 1 .224.815 4.546 4.546 0 0 1 0 1.1 5.752 5.752 0 0 1-1.138 2.834 5.089 5.089 0 0 1-3.333 2.238 5.15 5.15 0 0 1-3.953-1.128 4.963 4.963 0 0 1-2.211-3.54 4.555 4.555 0 0 1 .172-1.847 5.747 5.747 0 0 1 .871-1.732 5.2 5.2 0 0 1 2.651-2.037 2.806 2.806 0 0 1 2.608.356 1.816 1.816 0 0 1 .859 1.427 3.023 3.023 0 0 1-1.59 2.514 1.5 1.5 0 0 1-.882.261 21.34 21.34 0 0 1-.787-.6.135.135 0 0 0-.038.039l-.032.043a.25.25 0 0 0-.055.186.616.616 0 0 0 .152.255 7.055 7.055 0 0 0 .883.708q1.784 1.3 2 1" transform="translate(-8.269 -12.003)" style="fill:#f5c249"/><path data-name="패스 3501" d="M43.607 32.661a5.694 5.694 0 0 1-2.39 1.024 4.44 4.44 0 0 1-2.521-.317 5.528 5.528 0 0 1-2.276-1.95 5.123 5.123 0 0 1-1.064-4.108 5.011 5.011 0 0 1 2.122-3.075 4.869 4.869 0 0 1 3.844-1 5.257 5.257 0 0 1 3.313 2.265 5.179 5.179 0 0 1 1.135 4.074 5.014 5.014 0 0 1-2.163 3.086m-2.995-4.689a5.336 5.336 0 0 0-.676-.817q-.225-.193-.377-.084a.319.319 0 0 0-.125.185c.061.068.147.16.254.272a9.659 9.659 0 0 1 .6.781l.293.406q.306.424.426.631l.207.353.1.159a.319.319 0 0 0 .215-.061c.1-.072.115-.2.039-.384a5.154 5.154 0 0 0-.561-.9z" transform="translate(-12.287 -8.069)" style="fill:#f5c249"/><path data-name="패스 3502" d="m58.7 21.2 1.7.884a3.085 3.085 0 0 1-.163 1.993 2.294 2.294 0 0 1-1.448 1.145 2.62 2.62 0 0 1-1.5.069 2.951 2.951 0 0 1-1.6-1.134l-.5-.632a6.638 6.638 0 0 1-.81.172.224.224 0 0 0-.007.18q.062.2.674.042l.761.919.2.622a3.913 3.913 0 0 1-1.99 1.3 2.805 2.805 0 0 1-1.649.1 1.345 1.345 0 0 1-.933-.945L49.2 18.953q-.1-.322.4-.819a6.406 6.406 0 0 1 1.411-1 10.759 10.759 0 0 1 1.877-.81 6.136 6.136 0 0 1 3.759-.215 3.235 3.235 0 0 1 2.172 2.234 2.747 2.747 0 0 1-.017 1.86 3.032 3.032 0 0 1-1.1 1.424q.075.235.361.143a1.474 1.474 0 0 0 .637-.57m-4.354-.441a.384.384 0 0 0 .176-.033.254.254 0 0 0 .18-.179.7.7 0 0 0-.042-.383l-.084-.263a.864.864 0 0 0-.185-.357.23.23 0 0 0-.244-.047.461.461 0 0 0-.185.093.784.784 0 0 1 .047.123z" transform="translate(-17.136 -5.543)" style="fill:#f5c249"/><path data-name="패스 3503" d="m67.4 22.234.1-7.708q.005-.4.657-.657a4.012 4.012 0 0 1 1.53-.246 3.574 3.574 0 0 1 .935.13 1.9 1.9 0 0 1 .669.313 9.8 9.8 0 0 1 .572.823q.258.418 1.164 1.953a.249.249 0 0 0 .156-.052.194.194 0 0 0 .072-.164 1.121 1.121 0 0 0-.188-.437l-.821-1.441.005-.423a2.83 2.83 0 0 1 .97-.488 3.9 3.9 0 0 1 1.175-.162 3.143 3.143 0 0 1 1.589.374 1.432 1.432 0 0 1 .689 1.333l-.092 7.285a1 1 0 0 1-.649.953 3.3 3.3 0 0 1-1.456.251 4.433 4.433 0 0 1-.981-.12 2.459 2.459 0 0 1-.748-.286 17.559 17.559 0 0 1-1.075-1.583l-.777-1.318a.223.223 0 0 0-.227.236 1.286 1.286 0 0 0 .219.5l.952 1.567-.005.408a3.692 3.692 0 0 1-2.039.551 3.279 3.279 0 0 1-1.767-.43 1.292 1.292 0 0 1-.626-1.162" transform="translate(-23.482 -4.746)" style="fill:#f5c249"/></g></g><text transform="rotate(12.58 -9.352 261.3)" style="font-family:Modak;font-size:1px;fill:#f5c249"><tspan x="0" y="0"> </tspan></text><g data-name="그룹 426"><g data-name="그룹 425" style="clip-path:url(#b)" transform="translate(1.923 1.923)"><path data-name="패스 3504" d="m89.332 25.353-.439 1.092a2.666 2.666 0 0 1-1.068.073 4.651 4.651 0 0 1-1.27-.317 3.023 3.023 0 0 1-1.326-.931 1.352 1.352 0 0 1-.192-1.4l2.728-6.78a.659.659 0 0 1 .5-.331A3.481 3.481 0 0 1 89.3 16.7a9.187 9.187 0 0 1 2.878.694 5.5 5.5 0 0 1 2.948 2.4 3.723 3.723 0 0 1 .127 3.307 3.69 3.69 0 0 1-2.233 2.282 4.864 4.864 0 0 1-3.393-.288 4.969 4.969 0 0 1-.9-.482 4.139 4.139 0 0 1-.6-.454.231.231 0 0 0-.121.134q-.146.365 1.329 1.065m1.12-3.3a.379.379 0 0 0 .156.089.258.258 0 0 0 .252-.023.7.7 0 0 0 .212-.321l.219-.542a.876.876 0 0 0 .087-.392.23.23 0 0 0-.157-.191.475.475 0 0 0-.2-.048.659.659 0 0 1-.041.124z" transform="translate(-29.588 -5.814)" style="fill:#f5c249"/><path data-name="패스 3505" d="M97.967 31.807a1.841 1.841 0 0 1-.784-1.169 1.823 1.823 0 0 1 .458-1.373l4.566-5.981a2.914 2.914 0 0 1 1.123.186 4.063 4.063 0 0 1 1.093.6 2.692 2.692 0 0 1 .986 1.334 1.7 1.7 0 0 1-.316 1.578l-2.554 3.346a2.393 2.393 0 0 0-.827-.326q-.457-.094-.588.078a.268.268 0 0 0-.019.267 3.5 3.5 0 0 1 2.2.88l1.463 1.117a3.625 3.625 0 0 1-.7 1.761 3.7 3.7 0 0 1-.749.714 2.181 2.181 0 0 1-.87.421z" transform="translate(-33.855 -8.111)" style="fill:#f5c249"/><path data-name="패스 3506" d="M110.676 41.184a.35.35 0 0 0-.208.05c-.122.085-.144.271-.066.561a3.839 3.839 0 0 0 .432.953 4.047 4.047 0 0 0-.912.9 1.643 1.643 0 0 1-.935-.343 3.772 3.772 0 0 1-1.1-1.075 3.647 3.647 0 0 1-.7-1.834 1.4 1.4 0 0 1 .551-1.346 1.449 1.449 0 0 1 .312-.169l6.961-2.814a5.2 5.2 0 0 1 1.352.868 7.2 7.2 0 0 1 1.207 1.348 5.336 5.336 0 0 1 .935 2.131 2.192 2.192 0 0 1-.459 1.917l-4.952 5.59a3.132 3.132 0 0 1-2.355-1.573 3.253 3.253 0 0 1-.6-1.411 1.227 1.227 0 0 1 .332-1.1l.674-.676a2.57 2.57 0 0 0 .658.64c.259.175.437.227.54.155a.239.239 0 0 0 .105-.2 2.172 2.172 0 0 1-.671-.415 3.288 3.288 0 0 1-.54-.589 2.669 2.669 0 0 1-.572-1.569m2.832.143a.454.454 0 0 0 .173.155q.845-.832.982-1.012a.282.282 0 0 0 .038-.337.487.487 0 0 0-.144-.127l-1.108 1.129a.267.267 0 0 0 .059.194" transform="translate(-37.345 -12.565)" style="fill:#f5c249"/><path data-name="패스 3507" d="m116.665 53.664 7.442-2.006c.258-.07.529.081.813.452a4.059 4.059 0 0 1 .653 1.405 3.556 3.556 0 0 1 .129.935 1.881 1.881 0 0 1-.119.729 9.456 9.456 0 0 1-.634.775q-.333.364-1.564 1.653a.26.26 0 0 0 .093.136.2.2 0 0 0 .179.025 1.189 1.189 0 0 0 .368-.3l1.164-1.183.409-.11a2.84 2.84 0 0 1 .734.8 3.945 3.945 0 0 1 .475 1.087 3.148 3.148 0 0 1 .074 1.63 1.432 1.432 0 0 1-1.094 1.027l-7.034 1.9a1 1 0 0 1-1.095-.365 3.318 3.318 0 0 1-.638-1.332 4.436 4.436 0 0 1-.151-.977 2.461 2.461 0 0 1 .071-.8 17.465 17.465 0 0 1 1.231-1.466l1.057-1.107a.225.225 0 0 0-.29-.155 1.311 1.311 0 0 0-.425.348l-1.247 1.342-.394.106a3.7 3.7 0 0 1-1.088-1.812 3.3 3.3 0 0 1-.066-1.817 1.293 1.293 0 0 1 .948-.919" transform="translate(-40.283 -17.992)" style="fill:#f5c249"/><path data-name="패스 3508" d="m128.333 73.083-.157 4.48a2.833 2.833 0 0 1-.814.306 3.3 3.3 0 0 1-.784.082 1.871 1.871 0 0 1-1.159-.349 1.022 1.022 0 0 1-.362-.871l.109-3.13c.007-.192-.064-.29-.214-.3h-.061a.089.089 0 0 0-.062.013l-.129 3.716a2.62 2.62 0 0 1-.608.22 3 3 0 0 1-.7.068 2.564 2.564 0 0 1-1.42-.392l.06-1.685a9.4 9.4 0 0 0-.033-1.6 2.128 2.128 0 0 0-.132-.526.2.2 0 0 0-.172-.107.187.187 0 0 0-.174.1 4.653 4.653 0 0 1 .155.854q.033.583.009 1.267l-.076 2.182a2.663 2.663 0 0 1-1.609.419 3.748 3.748 0 0 1-.995-.168 1.87 1.87 0 0 1-.756-.423l.2-5.816a2.425 2.425 0 0 1 .515-1.528 1.715 1.715 0 0 1 1.468-.587l7.313.255q.367.013.508.873a14.953 14.953 0 0 1 .077 2.646" transform="translate(-41.2 -24.147)" style="fill:#f5c249"/><path data-name="패스 3509" d="m121.442 89.425-5.18-1.554a2.879 2.879 0 0 1-.22-1.064 4.48 4.48 0 0 1 .218-1.451 2.673 2.673 0 0 1 .78-1.283 1.275 1.275 0 0 1 1.3-.315l4.746 1.423.52-1.735a2.931 2.931 0 0 1 1.819-.038 2.749 2.749 0 0 1 1.005.516 2.024 2.024 0 0 1 .558.7l-2.309 7.7a3.2 3.2 0 0 1-.909.116 3.369 3.369 0 0 1-.979-.139 1.891 1.891 0 0 1-1.163-.771 1.422 1.422 0 0 1-.1-1.164l.654-2.181a.289.289 0 0 0-.105-.055.185.185 0 0 0-.222.1 2.964 2.964 0 0 0-.262.683z" transform="translate(-40.43 -29.016)" style="fill:#f5c249"/></g></g></g></svg>