<svg xmlns="http://www.w3.org/2000/svg" width="250" height="80"><defs><clipPath id="a"><path data-name="사각형 1979" transform="translate(-2 -15)" style="fill:none" d="M0 0h250v80H0z"/></clipPath></defs><g data-name="그룹 407" transform="translate(2 15)" style="clip-path:url(#a)"><path data-name="패스 3399" d="M52.265 54.448a9.527 9.527 0 0 1-9.469.294 9.528 9.528 0 0 1-9.47-.294 10.06 10.06 0 0 1-4.892-6.1c-3.128-.314-6.094-.73-8.8-1.241a25 25 0 0 0 46.331 0c-2.711.51-5.676.927-8.8 1.241a10.062 10.062 0 0 1-4.892 6.1" transform="translate(-5.296 -12.711)" style="fill:#f6c34b"/><path data-name="패스 3400" d="M61.469 17.894a25 25 0 0 0-47.938 0C5.264 19.589 0 22.143 0 25c0 1.595 1.639 3.1 4.526 4.405a34.989 34.989 0 0 0 5.216 1.808c1.176.319 2.444.617 3.789.893l.115.025c1.853.377 3.853.71 5.979.995q1.593.214 3.276.389c1.88.2 3.842.353 5.864.472q1.749.1 3.558.164 2.539.088 5.177.091t5.178-.091q1.883-.064 3.7-.173c1.367-.082 2.709-.18 4.013-.3q.862-.078 1.7-.166 1.681-.175 3.276-.389t3.092-.463q.748-.124 1.471-.258c.522-.1 1.031-.2 1.532-.3.422-.087.839-.175 1.245-.266 1.332-.3 2.576-.62 3.723-.962a33.225 33.225 0 0 0 3.65-1.307 21.49 21.49 0 0 0 1.215-.564c.264-.135.513-.271.751-.41a7.093 7.093 0 0 0 2.515-2.19A2.645 2.645 0 0 0 75 25c0-2.857-5.265-5.411-13.531-7.106m-5.247 10.432a93.801 93.801 0 0 1-4.587.6q-1.214.128-2.491.235c-2.82.234-5.862.385-9.044.439q-1.287.022-2.6.023t-2.6-.023a138.499 138.499 0 0 1-9.125-.445q-1.312-.111-2.558-.244-2.356-.251-4.438-.582a11.009 11.009 0 0 1-.51-3.329c0-3.827 1.91-7.109 4.632-8.513-.118-3.06 1.8-6.338 5.13-8.223a9.529 9.529 0 0 1 9.469-.3 9.529 9.529 0 0 1 9.469.3c3.331 1.885 5.247 5.163 5.13 8.223 2.721 1.4 4.632 4.687 4.632 8.514a11.009 11.009 0 0 1-.508 3.326" style="fill:#f6c34b"/><path data-name="패스 3401" d="M260.072 37.126a180.257 180.257 0 0 0-3.905.007 2.125 2.125 0 0 1-2.158-2.11v-2.738a1.973 1.973 0 0 1 2.167-1.916c1.028.016 3.174.018 4.232.006a2.61 2.61 0 0 0 2.581-2.562c.066-3.478.067-8.6 0-12.094a2.639 2.639 0 0 0-2.613-2.59 578.14 578.14 0 0 0-10.37 0 2.97 2.97 0 0 0-2.936 2.976v.074a3 3 0 0 0 2.976 3.013c1.263.009 3.021.005 4.451-.01a2.111 2.111 0 0 1 2.134 2.116v1.02a2.252 2.252 0 0 1-2.283 2.251c-1.35-.02-2.992-.026-4.2-.015a3.062 3.062 0 0 0-3.038 3.014 485.82 485.82 0 0 0-.012 11.785 3.957 3.957 0 0 0 3.9 3.917c2.828.039 6.474.034 9.072-.015a3.064 3.064 0 0 0 0-6.124" transform="translate(-66.659 -3.536)" style="fill:#f6c34b"/><path data-name="패스 3402" d="M286.024 15.256a3.482 3.482 0 0 0-3.411-3.479h-.145a3.482 3.482 0 0 0-3.407 3.325v.249c-.014 2.346-.026 8.351-.026 8.351a.523.523 0 0 1-1.046 0s-.015-6.333-.036-8.327v-.117a3.48 3.48 0 1 0-6.96 0v.125c-.064 5.926-.065 19.418 0 25.621a3.479 3.479 0 0 0 3.475 3.477h.008a3.48 3.48 0 0 0 3.476-3.477c.025-2.9.041-10.484.041-10.484a.523.523 0 0 1 1.046 0s.015 7.59.033 10.485a3.478 3.478 0 0 0 3.472 3.477h.013a3.479 3.479 0 0 0 3.472-3.471V41c.106-7.055.077-20.425 0-25.746z" transform="translate(-73.099 -3.177)" style="fill:#f6c34b"/><path data-name="패스 3403" d="M231.262 28.766c-4.472-.05-23.229-.05-27.634 0a2.37 2.37 0 0 0-2.383 2.332v.048a2.374 2.374 0 0 0 2.383 2.333c4.4.048 23.161.047 27.634 0a2.368 2.368 0 0 0 2.38-2.343v-.048a2.371 2.371 0 0 0-2.38-2.317" transform="translate(-54.295 -7.751)" style="fill:#f6c34b"/><path data-name="패스 3404" d="M209.412 45.655c2.294 0 17.15.04 21.009.018A2.7 2.7 0 0 0 233.068 43a67.092 67.092 0 0 0-.007-3.587 2.683 2.683 0 0 0-2.619-2.637c-4.31-.05-22.081-.047-25.995.007a2.064 2.064 0 0 0-2 2.08v.053a2.079 2.079 0 0 0 2.035 2.115c3.969.023 18.763.018 21.71-.015a.571.571 0 0 1 0 1.141c-2.765 0-17.069-.025-20.956-.015a2.684 2.684 0 0 0-2.64 2.651 70.797 70.797 0 0 0 0 3.8 2.682 2.682 0 0 0 2.594 2.645c4.4.09 21.646.086 25.77-.01a2.24 2.24 0 0 0-.03-4.475c-4.1-.022-19.256-.018-21.52.015a.557.557 0 0 1 0-1.113" transform="translate(-54.62 -9.912)" style="fill:#f6c34b"/><path data-name="패스 3405" d="M205.924 18.239h-.643a2.463 2.463 0 0 0-2.43 2.086 2.431 2.431 0 0 0-.038.382 2.467 2.467 0 0 0 2.466 2.468c4.224.045 20.894.045 25.166 0h.045a2.462 2.462 0 0 0 2.437-2.4c0-.023.007-.045.007-.069a2.468 2.468 0 0 0-2.468-2.468h-.66a.521.521 0 1 1 0-1.043h.659a2.46 2.46 0 0 0 .851-.16c.026-.01.053-.015.079-.025.049-.019.093-.047.14-.069a2.46 2.46 0 0 0 1.4-2.21v-.005a2.468 2.468 0 0 0-2.468-2.468h-.033c-4.053-.046-21.168-.047-25.149 0a2.463 2.463 0 0 0-.628 4.846c.053.012.1.033.156.043s.1.008.145.015a2.535 2.535 0 0 0 .326.033h.644a.522.522 0 1 1 0 1.043m5.8-1.043H224a.521.521 0 1 1 0 1.043h-12.272a.522.522 0 1 1 0-1.043" transform="translate(-54.718 -3.299)" style="fill:#f6c34b"/><path data-name="패스 3406" d="M296.163 27.979c.215 0 15.286.05 17.077.026a7.622 7.622 0 0 0 2.1-.155 3.081 3.081 0 0 0 2.237-2.756 2.521 2.521 0 0 0-.176-.977 3.3 3.3 0 0 0-3.027-1.855c-.815-.016-11.442-.01-13.166-.046a1.8 1.8 0 0 1-1.011-.18 1.071 1.071 0 0 1-.466-.909c.04-1.488.052-3.774.036-5.67a3.247 3.247 0 0 0-3.25-3.222h-.077a3.281 3.281 0 0 0-3.281 3.212c-.053 2.789-.051 6.776.008 9.539a3.057 3.057 0 0 0 3 2.995" transform="translate(-79.082 -3.301)" style="fill:#f6c34b"/><path data-name="패스 3407" d="M331.754 31.827h.074a3.185 3.185 0 0 0 3.2-3.118 479.61 479.61 0 0 0 0-13.781 3.183 3.183 0 0 0-3.185-3.124h-.074a3.181 3.181 0 0 0-3.186 3.141c-.045 3.5-.045 10.207 0 13.737a3.184 3.184 0 0 0 3.175 3.144" transform="translate(-88.64 -3.185)" style="fill:#f6c34b"/><path data-name="패스 3408" d="m324.3 45.82-12.054-9.1a4.842 4.842 0 0 0-5.765 0l-12.112 9.08a2.913 2.913 0 0 0-.858 3.741 2.829 2.829 0 0 0 4.155.859l11.382-8.541a.516.516 0 0 1 .62 0l11.3 8.535a2.833 2.833 0 0 0 4.256-1.03 2.9 2.9 0 0 0-.93-3.547" transform="translate(-79.091 -9.649)" style="fill:#f6c34b"/><path data-name="패스 3409" d="M142.228 39.54a4.89 4.89 0 0 0-.6-2.84 3.185 3.185 0 0 0-5.58.727 4.8 4.8 0 0 0-.18 1.465 1.1 1.1 0 0 1-1.1 1.062c-1.927-.015-12.647-.015-14.575 0a1.1 1.1 0 0 1-1.1-1.062 4.8 4.8 0 0 0-.179-1.465 3.187 3.187 0 0 0-5.581-.727 4.89 4.89 0 0 0-.6 2.84c.007.908-.058 6.279-.017 8.31a3.071 3.071 0 0 0 3.017 3.019c2.841.045 20.638.045 23.479 0a3.071 3.071 0 0 0 3.017-3.019c.042-2.031-.023-7.4-.017-8.31m-6.89 6.408h-15.7a.533.533 0 1 1 0-1.067h15.7a.533.533 0 1 1 0 1.067" transform="translate(-30.411 -9.54)" style="fill:#f6c34b"/><path data-name="패스 3410" d="M114.613 28.036c1.135.02 13.81.02 14.946 0 1.163-.02 2.571.134 3.5-.689a2.589 2.589 0 0 0-.567-4.264 3.557 3.557 0 0 0-1.135-.242c-.6-.091-1.189-.487-1.136-1.171.061-.788.107-2.374.148-3.159a1.1 1.1 0 0 1 1.119-1 2.534 2.534 0 0 0 .867-.194 2.6 2.6 0 0 0 1.6-2.378 2.565 2.565 0 0 0-2.564-2.565c-1.8-.048-16.814-.048-18.609 0a2.565 2.565 0 0 0-2.565 2.565 2.6 2.6 0 0 0 1.6 2.378 2.53 2.53 0 0 0 .867.194 1.1 1.1 0 0 1 1.119 1c.042.785.087 2.371.148 3.159.053.683-.532 1.079-1.135 1.171a3.557 3.557 0 0 0-1.135.242 2.589 2.589 0 0 0-.567 4.264c.932.823 2.34.67 3.5.689m5.514-8.377h3.919a.533.533 0 0 1 0 1.067h-3.919a.533.533 0 1 1 0-1.067" transform="translate(-29.736 -3.328)" style="fill:#f6c34b"/><path data-name="패스 3411" d="M153.742 19.5a3.066 3.066 0 0 0-2.82-3.052.234.234 0 0 1-.214-.243v-.311c-.008-.372-.018-.729-.028-1.065a3.053 3.053 0 0 0-3.043-2.962h-.368a3.058 3.058 0 0 0-3.043 3c-.05 2.778-.05 7.307 0 10.1a3.053 3.053 0 0 0 3.041 3h.369a3.048 3.048 0 0 0 3.049-2.957c.009-.312.018-.639.026-.978v-.4a.234.234 0 0 1 .238-.254 2.869 2.869 0 0 0 2.8-3.049z" transform="translate(-38.901 -3.201)" style="fill:#f6c34b"/><path data-name="패스 3412" d="M186.276 47.619c-1.106-.007-20.1.007-21.249.024-.208 0-.675.015-.694-.263a3.019 3.019 0 0 0-.265-1.532 2.573 2.573 0 0 0-1.124-.908 4.348 4.348 0 0 0-1.79-.367 3.342 3.342 0 0 0-2.819 1.229 3.616 3.616 0 0 0-.347 2.014c0 .769-.012 1.557 0 2.326a4.5 4.5 0 0 0 .188 1.5 2.664 2.664 0 0 0 .8 1.16 3.386 3.386 0 0 0 2.018.594c4.846.061 20.63.041 25.3-.023a2.854 2.854 0 0 0 2.82-2.84v-.066a2.86 2.86 0 0 0-2.847-2.843" transform="translate(-42.624 -12.026)" style="fill:#f6c34b"/><path data-name="패스 3413" d="M161.515 25.185c3.423.037 16.313.051 20.351.031.426 0 .537.209.552.62a2.344 2.344 0 0 0 1.375 1.893 4.141 4.141 0 0 0 3.08.114c1.279-.487 1.6-1.905 1.619-3.129.034-2.757.033-6.66 0-9.33a3.065 3.065 0 0 0-3.008-3.024c-4.464-.094-19.416-.092-23.832.005a2.983 2.983 0 0 0-2.914 3v.072a2.958 2.958 0 0 0 2.925 2.96c1.322.013 19.644-.034 20.185-.031a.57.57 0 0 1 0 1.141c-1.59 0-19-.012-20.349 0a2.786 2.786 0 0 0-2.762 2.8v.069a2.807 2.807 0 0 0 2.778 2.81" transform="translate(-42.827 -3.316)" style="fill:#f6c34b"/><path data-name="패스 3414" d="M186.242 34.289c-1.728-.016-7.975-.032-9.379-.036a.524.524 0 0 1-.527-.359c0-.009-.008-.009-.011-.018a3.049 3.049 0 0 0-2.967-2.438h-.832a3.046 3.046 0 0 0-2.966 2.424c-.007.012-.015.016-.019.031-.1.38-.553.359-.553.359h.006c-1.273.012-9.134.016-9.382.018a2.851 2.851 0 0 0-2.82 2.855v.059a2.856 2.856 0 0 0 2.838 2.857c4.917.031 21.641.031 26.606 0a2.843 2.843 0 0 0 2.825-2.832v-.061a2.845 2.845 0 0 0-2.817-2.862" transform="translate(-42.301 -8.482)" style="fill:#f6c34b"/></g></svg>