<svg data-name="Icon ionic-ios-arrow-forward-forward" xmlns="http://www.w3.org/2000/svg" width="12" height="10"><path data-name="Icon ionic-ios-arrow-forward" d="M4.192 4.998.221 1.217a.688.688 0 0 1 0-1.009.783.783 0 0 1 1.062 0l4.5 4.284a.689.689 0 0 1 .022.985L1.287 9.791a.781.781 0 0 1-1.062 0 .688.688 0 0 1 0-1.009Z" fill="#424242"/><path data-name="Icon ionic-ios-arrow-forward" d="M10.192 4.998 6.221 1.217a.688.688 0 0 1 0-1.009.783.783 0 0 1 1.062 0l4.5 4.284a.689.689 0 0 1 .022.985L7.287 9.791a.781.781 0 0 1-1.062 0 .688.688 0 0 1 0-1.009Z" fill="#424242"/></svg>