<svg xmlns="http://www.w3.org/2000/svg" width="320" height="108" viewBox="0 0 320 108">
    <defs>
        <clipPath id="izj2cyr3ea">
            <path data-name="사각형 2144" style="fill:none" d="M0 0h320v177.778H0z"/>
        </clipPath>
        <clipPath id="hyjriu9oub">
            <path data-name="사각형 2116" style="fill:none" d="M0 0h29.489v24.895H0z"/>
        </clipPath>
        <clipPath id="sako487zdc">
            <path data-name="사각형 2117" style="fill:none" d="M0 0h15.679v8.583H0z"/>
        </clipPath>
        <clipPath id="vsab3o280d">
            <path data-name="사각형 2118" style="fill:none" d="M0 0h15.296v10.235H0z"/>
        </clipPath>
        <clipPath id="3ss2rtizee">
            <path data-name="사각형 2119" style="fill:none" d="M0 0h10.449v13.203H0z"/>
        </clipPath>
        <clipPath id="9cvmkkk1ff">
            <path data-name="사각형 2120" style="fill:none" d="M0 0h4.548v3.454H0z"/>
        </clipPath>
        <clipPath id="gu8569pfmg">
            <path data-name="사각형 2121" style="fill:none" d="M0 0h18.418v7.426H0z"/>
        </clipPath>
        <clipPath id="at58pxp70h">
            <path data-name="사각형 2122" style="fill:none" d="M0 0h4.144v2.805H0z"/>
        </clipPath>
        <clipPath id="8wfqzulz2i">
            <path data-name="사각형 2123" style="fill:none" d="M0 0h15.414v11.869H0z"/>
        </clipPath>
        <clipPath id="p11m18w4cj">
            <path data-name="사각형 2124" style="fill:none" d="M0 0h10.516v50.694H0z"/>
        </clipPath>
        <clipPath id="6f7h38vtrk">
            <path data-name="사각형 2125" style="fill:none" d="M0 0h19.879v6.58H0z"/>
        </clipPath>
        <clipPath id="o4mbj308vl">
            <path data-name="사각형 2126" style="fill:none" d="M0 0h20.551v9.239H0z"/>
        </clipPath>
        <clipPath id="5lt7x4qapm">
            <path data-name="사각형 2127" style="fill:none" d="M0 0h17.19v6.79H0z"/>
        </clipPath>
        <clipPath id="tx9kxttmjn">
            <path data-name="사각형 2128" style="fill:none" d="M0 0h12.012v9.044H0z"/>
        </clipPath>
        <clipPath id="bkndcqsyuo">
            <path data-name="사각형 2129" style="fill:none" d="M0 0h13.848v41.621H0z"/>
        </clipPath>
        <clipPath id="8z3df4bv0p">
            <path data-name="사각형 2130" style="fill:none" d="M0 0h3.694v3.045H0z"/>
        </clipPath>
        <clipPath id="rgvbsnwmaq">
            <path data-name="사각형 2131" style="fill:none" d="M0 0h20.471v10.004H0z"/>
        </clipPath>
        <clipPath id="2s248uibpr">
            <path data-name="사각형 2132" style="fill:none" d="M0 0h50.529v12.325H0z"/>
        </clipPath>
        <clipPath id="1ipzyjliys">
            <path data-name="사각형 2133" style="fill:none" d="M0 0h2.315v6.339H0z"/>
        </clipPath>
        <clipPath id="7si9ntw7qt">
            <path data-name="사각형 2134" style="fill:none" d="M0 0h1.625v5.173H0z"/>
        </clipPath>
        <clipPath id="amyna1v6yu">
            <path data-name="사각형 2135" style="fill:none" d="M0 0h3.364v1.895H0z"/>
        </clipPath>
        <clipPath id="kabiwx7lgv">
            <path data-name="사각형 2136" style="fill:none" d="M0 0h53.294v13.262H0z"/>
        </clipPath>
        <clipPath id="iysuxyn2dw">
            <path data-name="사각형 2137" style="fill:none" d="M0 0h10.67v7.241H0z"/>
        </clipPath>
        <clipPath id="p9jzngtexx">
            <path data-name="사각형 2138" style="fill:none" d="M0 0h10.797v6.64H0z"/>
        </clipPath>
        <clipPath id="3xe4wwo6qy">
            <path data-name="사각형 2139" style="fill:none" d="M0 0h34.836v8.036H0z"/>
        </clipPath>
        <clipPath id="mrxjbozvsz">
            <path data-name="사각형 2140" style="fill:none" d="M0 0h18.896v7.531H0z"/>
        </clipPath>
        <clipPath id="zt9e7b3ycA">
            <path data-name="사각형 2141" style="fill:none" d="M0 0h18.609v6.13H0z"/>
        </clipPath>
        <clipPath id="bvnaig5ogB">
            <path data-name="사각형 2142" style="fill:none" d="M0 0h6.266v5.08H0z"/>
        </clipPath>
    </defs>
    <g data-name="그룹 686" style="clip-path:url(#izj2cyr3ea)">
        <g data-name="그룹 685">
            <g data-name="그룹 684" style="clip-path:url(#izj2cyr3ea)">
                <path data-name="패스 4245" d="m165.022 27.7-5.054 2.356-5.85 4.293L148.971 40l-3.027 4.889-1.892 5.157-.312 5.065 1.094 4.507 2.269 3.306-1.942-.55-1.882-.2-1.326.364-1.261.853-1.283 1.389-2.379 5.09-.953 4-.768 5.291.206 6.906.879 5.245 1.177 2.448 1.88 1.143 2.34.433-1.812 2.4-1.118 2.732.32 4 1.306 5.8 3.026 3.93 2.5 1.965h2l1.953-.465-.324 2.217 1.333 3.141 1.558 2.466 4.492 3.309 4.1 1.5 5.013.7 3.087-.558 1.4-1.064.543 2.272 1.165 1.495 2 1.459 3.882 1.316 4.259.747h6.476s5.067-.638 5.129-.655 2.521-1.643 2.521-1.643l1.467-3.871 1.789 1.987 2.559.483 2.717-.036 5.833-.734 6.008-2.721 3.11-3.208 2.239-3.183.784-2.668-.427-3.522-.048-.988 2.23.769 2.588-.773 2.124-1.029 2.677-2.535 2.9-3.889 2.311-7.451-.449-5.058-.7-3.847-1.279-3.411-1.317-2.222-1.984-1.8.613-2.246.837-2.7.706-5.063-.212-3.9-1.282-3.3-1.631-2.455-.7-.6-.084-.893 1.31-1.507.581-3.634-.68-3.24-1.825-3.813-2.827-2.865-2.867-2.488-2.659-1.254-3.322.082-2.389 1.6-.292-1.451-.6-3.37-2.439-3.8-3.455-2.57-5.891-2.579-5.009-.982-4.186-.128-3.618 1.193-1.909 2.211-.966 1.664-1.996-2.705-3.629-3.322-6.52-2.016-5.389.053z" transform="translate(-27.651 -5.407)" style="fill:#ffffe5"/>
                <g data-name="그룹 605" style="opacity:.1">
                    <g data-name="그룹 604">
                        <g data-name="그룹 603" style="clip-path:url(#hyjriu9oub)" transform="translate(141.33 51.699)">
                            <path data-name="패스 4246" d="M1.14 0s-4.033 19.084 3.074 22.432 16.8 2.31 16.8 2.31 5.957-.331 7.683-6.2a17.194 17.194 0 0 0 .078-10.189z"/>
                        </g>
                    </g>
                </g>
                <path data-name="패스 4247" d="M206.234 150.575a21.706 21.706 0 0 1-12.107 3.965c-6.968 0-13.331-4.269-13.331-4.269l-.586 1.7.757 3.776 3.463 1.953 6.289 1.668 9.688.373 5.491-1.436 1.09-3.3z" transform="translate(-36.826 -30.596)" style="fill:#e5e5c1"/>
                <path data-name="패스 4248" d="M154.49 135.6a13.869 13.869 0 0 0 2.473 5.931 14.664 14.664 0 0 0 13.407 5.609 14.338 14.338 0 0 0 5.791-2.081l-2.242 5.965-2.767.731-9.081-1.56-5.841-4.388a9.928 9.928 0 0 1-2.827-6.191l1.088-4.015" transform="translate(-31.348 -27.609)" style="fill:#e5e5c1"/>
                <path data-name="패스 4249" d="M152.623 135.454a10.04 10.04 0 0 1-8.347-.556l2.838 2.765 1.675.371 2.084-.25z" transform="translate(-29.483 -27.466)" style="fill:#e5e5c1"/>
                <path data-name="패스 4250" d="M146.561 110.755s-5.833 5.231-6.15 7.715v-3.5l1.61-2.288.814-1.492z" transform="translate(-28.694 -22.55)" style="fill:#e5e5c1"/>
                <path data-name="패스 4251" d="M156.343 76.261s-9.821 2.841-17.54.576l2.6-4.213 3.275-1.121z" transform="translate(-28.365 -14.558)" style="fill:#e5e5c1"/>
                <path data-name="패스 4252" d="M236.734 133.843a14.859 14.859 0 0 1-1.914 7.977s-4.673 8.012-16.533 7.329a6.126 6.126 0 0 1-5.017-2.8 6.858 6.858 0 0 0 .72 4.106 6.782 6.782 0 0 0 2.139 2.388l4.927.046 4.456-.561 4.951-2.356 5.544-3.747 3.023-5.063-.427-4.311q-.934-1.5-1.868-3.009" transform="translate(-43.569 -27.251)" style="fill:#e5e5c1"/>
                <path data-name="패스 4253" d="M258.671 119.5s-6.271 11.711-14.971 11.423l1.084 2.023h3.53l4.439-1.777 3.179-2.722 1.675-3.85z" transform="translate(-49.802 -24.332)" style="fill:#e5e5c1"/>
                <path data-name="패스 4254" d="M256.59 89.526a9.5 9.5 0 0 1-6.084 5.206s2.6-.147 2.612-.2 2.1.53 2.1.53z" transform="translate(-51.191 -18.228)" style="fill:#e5e5c1"/>
                <path data-name="패스 4255" d="M256.807 79.938a16.978 16.978 0 0 0-1.8-3.175 17.226 17.226 0 0 0-5.259-4.775l3.709-.284 2.331 3.059z" transform="translate(-51.038 -14.599)" style="fill:#e5e5c1"/>
                <path data-name="패스 4256" d="M245.8 50.128s-8.25-4.365-13.435 4.2l2.776-5.686 3.15-1.753 2.561.069z" transform="translate(-47.485 -9.546)" style="fill:#e5e5c1"/>
                <path data-name="패스 4257" d="M214.317 31.106s-13.836-.543-11.941 11.9l-2.168-7.555 2.873-3.876 4.18-1.257z" transform="translate(-40.913 -6.174)" style="fill:#e5e5c1"/>
                <path data-name="패스 4258" d="M209.34 57.221a29.845 29.845 0 0 0-15.888-4.921c-4.248-.12-10.883-.26-13.3 4.058-1.919 3.434-3.506 14.9-.254 22.256s20.734 6.057 23.231 3.976 3.429-4.266 2.946-11.624" transform="translate(-36.381 -10.641)" style="fill:#ffffe5"/>
                <path data-name="패스 4259" d="M157.73 74.245a31.042 31.042 0 0 1-6.959-.744c-4.033-.946-6.748-2.764-7.852-5.258-3.365-7.617-1.708-19.283.282-22.843 2.633-4.71 9.678-4.512 13.888-4.393a30.553 30.553 0 0 1 16.235 5.028.659.659 0 1 1-.736 1.093 29.223 29.223 0 0 0-15.541-4.806c-3.911-.111-10.459-.295-12.705 3.721-1.921 3.441-3.311 14.691-.226 21.669 1.173 2.657 4.428 3.919 6.949 4.51 6.123 1.436 13.884.374 15.261-.772 2.3-1.916 3.184-3.879 2.71-11.077a.657.657 0 1 1 1.311-.086c.507 7.725-.571 10-3.181 12.173-1.185.988-5.068 1.787-9.441 1.787"/>
                <path data-name="패스 4260" d="M128.647 62.265a.658.658 0 0 1-.146-.017c-5.245-1.206-12.427-2.859-13.127-13.068a18.638 18.638 0 0 1 1.9-9.011c3.842-8.389 12.043-15.861 20.406-18.589a19.876 19.876 0 0 1 16.27 1.258c7.636 4.276 7.587 14.413 7.579 14.842a.657.657 0 0 1-.655.648h-.009a.656.656 0 0 1-.647-.665c0-.1.037-9.789-6.908-13.68a18.606 18.606 0 0 0-15.223-1.154c-8.035 2.624-15.919 9.813-19.619 17.888a17.361 17.361 0 0 0-1.779 8.374c.582 8.558 5.6 10.383 12.1 11.879a.657.657 0 0 1-.146 1.3"/>
                <path data-name="패스 4261" d="M114 89.293a5.735 5.735 0 0 1-3.512-1.09c-3.922-2.913-3.756-10.926-3.174-17.581a25.309 25.309 0 0 1 4.635-12.292 5.1 5.1 0 0 1 6.459-1.61c1.3.673 2.808 1.4 2.822 1.411a.657.657 0 0 1-.573 1.183 155.49 155.49 0 0 1-2.852-1.425 3.775 3.775 0 0 0-4.785 1.2 24.009 24.009 0 0 0-4.4 11.646c-.512 5.823-.791 13.859 2.646 16.412 1.505 1.118 3.706 1.107 6.539-.03a.657.657 0 0 1 .488 1.22 11.712 11.712 0 0 1-4.3.956"/>
                <path data-name="패스 4262" d="M119.693 111.415a4.567 4.567 0 0 1-.61-.041c-1.751-.243-5.044-1.768-7.451-9.25-3.54-11.013 2.512-13.989 2.772-14.109a.657.657 0 0 1 .558 1.189c-.231.112-5.242 2.683-2.08 12.517 2.269 7.053 5.218 8.189 6.381 8.351a2.579 2.579 0 0 0 2.506-.948.656.656 0 1 1 1.092.727 3.815 3.815 0 0 1-3.168 1.565"/>
                <path data-name="패스 4263" d="M138.751 124.607a24.58 24.58 0 0 1-9.062-2.222c-4.932-2.257-8.03-6.123-8.291-10.341-.315-5.117 3.733-5.532 3.773-5.536a.658.658 0 0 1 .118 1.311c-.293.029-2.812.4-2.581 4.143.23 3.726 3.043 7.176 7.527 9.227 2.866 1.312 8.425 2.913 11.14 1.628a2.377 2.377 0 0 0 1.373-1.608.656.656 0 1 1 1.268.336 3.671 3.671 0 0 1-2.08 2.461 7.52 7.52 0 0 1-3.186.6"/>
                <path data-name="패스 4264" d="M158.557 130.042c-4.365 0-9.489-.534-12.72-2.441a6.046 6.046 0 0 1-3.009-3.868c-.757-3.227 1.339-6.5 1.428-6.642a.657.657 0 1 1 1.1.716c-.02.029-1.884 2.955-1.25 5.632a4.779 4.779 0 0 0 2.4 3.03c5.344 3.156 16.779 2.241 19.371 1.71 2.56-.522 4.068-2.981 3.667-5.979a.656.656 0 1 1 1.3-.174c.5 3.714-1.436 6.774-4.7 7.441a44.525 44.525 0 0 1-7.582.575"/>
                <path data-name="패스 4265" d="M176.713 126.571a28.217 28.217 0 0 1-4.255-.329c-2.361-.362-3.684-6.4-4.033-8.244a.657.657 0 1 1 1.291-.245c.635 3.351 1.968 7.04 2.939 7.19 6.382.979 12.366-.346 16.421-3.633 2-1.625 5.41-4.924 5.706-8.747a7.267 7.267 0 0 0-2.107-5.531.657.657 0 0 1 .974-.882 8.541 8.541 0 0 1 2.444 6.515c-.334 4.312-4.021 7.906-6.191 9.665a20.817 20.817 0 0 1-13.188 4.242"/>
                <path data-name="패스 4266" d="M197.505 109.625a7.055 7.055 0 0 1-3.5-.869.657.657 0 0 1 .708-1.107c.178.112 4.2 2.541 9.038-2.441 5.325-5.487 6.587-13.084 3.652-21.97-.952-2.873-2.363-4.754-4.2-5.591a5.83 5.83 0 0 0-4.287-.137.657.657 0 0 1-.513-1.21 7.066 7.066 0 0 1 5.322.141c2.192.991 3.848 3.139 4.922 6.385 3.1 9.38 1.733 17.438-3.955 23.3-2.7 2.776-5.254 3.5-7.192 3.5"/>
                <path data-name="패스 4267" d="M204.088 78.029a.667.667 0 0 1-.256-.052.657.657 0 0 1-.347-.863c.054-.132 5.527-13.328-2-20.148a.657.657 0 0 1 .881-.974c3.42 3.1 4.9 7.839 4.282 13.71a30.46 30.46 0 0 1-1.958 7.926.652.652 0 0 1-.6.4"/>
                <path data-name="패스 4268" d="M199.915 57.691a4.4 4.4 0 0 1-1.465-.252.657.657 0 1 1 .435-1.24 3.219 3.219 0 0 0 2.683-.275 3.846 3.846 0 0 0 1.86-2.516c1.04-4.976-3.8-12.2-8.5-14.616a6.512 6.512 0 0 0-4.988-.581 3.818 3.818 0 0 0-2.273 2.146.657.657 0 1 1-1.2-.534 5.141 5.141 0 0 1 3.037-2.852 7.829 7.829 0 0 1 6.023.651c5.127 2.642 10.364 10.392 9.18 16.053a5.164 5.164 0 0 1-2.5 3.392 4.654 4.654 0 0 1-2.3.621"/>
                <path data-name="패스 4269" d="M184.357 44.99a.656.656 0 0 1-.361-1.206c.156-.107 3.633-2.516 2.48-8.369-1.079-5.476-8.54-8.443-11.7-9.465-.086-.027-8.6-2.6-12.654.266a4.948 4.948 0 0 0-2.029 4.2.662.662 0 0 1-.676.638.656.656 0 0 1-.635-.677 6.253 6.253 0 0 1 2.583-5.236c4.639-3.276 13.725-.471 13.813-.442 4.2 1.358 11.411 4.522 12.581 10.461 1.335 6.764-2.869 9.6-3.047 9.722a.655.655 0 0 1-.359.108"/>
                <path data-name="패스 4270" d="M166.897 79.167a1.61 1.61 0 0 0-1.609 1.61v1.611a1.609 1.609 0 1 0 3.218 0v-1.611a1.609 1.609 0 0 0-1.609-1.61"/>
                <path data-name="패스 4271" d="M166.898 84.737a2.353 2.353 0 0 1-2.349-2.35v-1.611a2.35 2.35 0 1 1 4.7 0v1.611a2.353 2.353 0 0 1-2.349 2.35m0-4.83a.871.871 0 0 0-.869.87v1.611a.869.869 0 1 0 1.738 0v-1.611a.871.871 0 0 0-.869-.87"/>
                <path data-name="패스 4272" d="M149.212 79.167a1.608 1.608 0 0 0-1.608 1.61v1.611a1.608 1.608 0 1 0 3.215 0v-1.611a1.609 1.609 0 0 0-1.608-1.61"/>
                <path data-name="패스 4273" d="M149.213 84.737a2.353 2.353 0 0 1-2.349-2.35v-1.611a2.35 2.35 0 1 1 4.7 0v1.611a2.353 2.353 0 0 1-2.349 2.35m0-4.83a.871.871 0 0 0-.869.87v1.611a.869.869 0 1 0 1.738 0v-1.611a.871.871 0 0 0-.869-.87"/>
                <g data-name="그룹 608" style="opacity:.1">
                    <g data-name="그룹 607">
                        <g data-name="그룹 606" style="clip-path:url(#sako487zdc)" transform="translate(138.271 103.07)">
                            <path data-name="패스 4274" d="M15.226 0S19.778 9.854 0 8.444l6.541-2.1L13.25 1.86z"/>
                        </g>
                    </g>
                </g>
                <path data-name="패스 4275" d="M196.044 119.608a10.129 10.129 0 0 1-10.126-10.133v-.155h20.249v.155a10.128 10.128 0 0 1-10.123 10.133" transform="translate(-37.993 -22.258)" style="fill:#e08669"/>
                <path data-name="패스 4276" d="M158.05 98.01a10.8 10.8 0 0 1-10.781-10.791v-.155a.656.656 0 0 1 .655-.656h20.252a.655.655 0 0 1 .656.656v.155A10.8 10.8 0 0 1 158.05 98.01m-9.456-10.289a9.468 9.468 0 0 0 18.91 0z"/>
                <path data-name="패스 4277" d="M158.94 119.78c2.646-2.333 7.086-6.107 9.766-7.639 4.005-2.292 6.486-3.4 11.418-1.046 3.265 1.561 9.756 10.492 4.265 15.675-4.507 4.257-8.646 5.629-14.11 7.1" transform="translate(-32.48 -22.353)" style="fill:#ffffe5"/>
                <path data-name="패스 4278" d="M182.091 130.575c-5.616 3.874-8.185 4.94-8.9 5.131q4.722-1.6 9.44-3.213l4.67-3.885 2.072-4.041-1.2-5.751c-1.189 5.272-4.1 10.388-6.084 11.758" transform="translate(-35.394 -24.192)" style="fill:#e5e5c1"/>
                <path data-name="패스 4279" d="M137.8 112.173a.657.657 0 0 1-.168-1.291c5.3-1.426 9.4-2.758 13.828-6.941a6.132 6.132 0 0 0 1.821-5.727c-.614-3.929-3.969-7.946-5.918-8.877-4.7-2.244-6.936-1.194-10.811 1.023-2.668 1.525-7.2 5.392-9.658 7.562a.657.657 0 1 1-.867-.987 77.412 77.412 0 0 1 9.873-7.716c4.027-2.3 6.762-3.586 12.029-1.069 2.3 1.1 5.95 5.386 6.65 9.86a7.478 7.478 0 0 1-2.219 6.887c-4.653 4.395-8.9 5.778-14.39 7.255a.653.653 0 0 1-.171.022"/>
                <path data-name="패스 4280" d="M231.234 119.78c-2.646-2.333-7.087-6.107-9.766-7.639-4.006-2.292-6.487-3.4-11.418-1.046-3.267 1.561-9.756 10.492-4.268 15.675 4.509 4.257 8.647 5.629 14.111 7.1" transform="translate(-41.618 -22.353)" style="fill:#ffffe5"/>
                <path data-name="패스 4281" d="M207.884 127.139a33.275 33.275 0 0 0 12.131 8.708l-9.439-3.213-4.67-3.885-1.65-3.218.52-6.025c1.126 5.253 2.449 6.885 3.108 7.633" transform="translate(-41.741 -24.332)" style="fill:#e5e5c1"/>
                <path data-name="패스 4282" d="M178.274 112.174a.675.675 0 0 1-.171-.023c-5.488-1.477-9.736-2.86-14.39-7.255a7.483 7.483 0 0 1-2.217-6.887c.7-4.474 4.346-8.757 6.65-9.859 5.266-2.517 8-1.235 12.029 1.068 2.63 1.5 6.819 5.026 9.873 7.716a.656.656 0 0 1-.867.986c-2.461-2.169-6.99-6.036-9.658-7.561-3.875-2.216-6.116-3.268-10.811-1.023-1.951.931-5.305 4.948-5.918 8.877a6.13 6.13 0 0 0 1.821 5.727c4.429 4.183 8.525 5.515 13.828 6.941a.658.658 0 0 1-.171 1.292"/>
                <g data-name="그룹 611" style="opacity:.1">
                    <g data-name="그룹 610">
                        <g data-name="그룹 609" style="clip-path:url(#vsab3o280d)" transform="translate(162.172 101.2)">
                            <path data-name="패스 4283" d="M.344 0s-1 5.206.4 6.616C2.69 8.572 6.662 10.521 15.292 10.2L9.867 8.583 6.076 6.616l-2.964-2.39L.871 1.87z"/>
                        </g>
                    </g>
                </g>
                <path data-name="패스 4284" d="m80.285 127.583-5.849-58.946-13.781-.673-22.493 4.093-5.346 2.657-2.231 2.308-1.194 3.147v10.3l1.833 8.477 9.486 28.86z" transform="translate(-6.006 -13.838)" style="fill:#f3c200"/>
                <path data-name="패스 4285" d="M24.888 86.457c-.123-.5-.242-.962-.356-1.411a55.141 55.141 0 0 1-1.449-7.246c-.962-7.016-1.387-14.215 4.756-18.4 5.441-3.709 25.848-7.617 39.765-5.246l-.22 1.3c-13.388-2.281-33.657 1.526-38.805 5.035-4.983 3.4-5.3 9.078-4.194 17.14a54.213 54.213 0 0 0 1.42 7.1c.116.452.235.92.359 1.421z"/>
                <path data-name="패스 4286" d="m28.488 98.18 1.244-.435 5.591 16.006-1.24.433z"/>
                <g data-name="그룹 614" style="mix-blend-mode:multiply;isolation:isolate">
                    <g data-name="그룹 613">
                        <g data-name="그룹 612" style="clip-path:url(#3ss2rtizee)" transform="translate(47.84 54.407)">
                            <path data-name="패스 4287" d="M70.547 68.316s.388 3.362-1.615 3.641a4.193 4.193 0 0 1 .677 1.715 5.323 5.323 0 0 1-1.24 3.835c-2.356 3.352-7.424 3.93-8.24 4.013l3.289-11.82z" transform="translate(-60.128 -68.316)" style="fill:#f3c200"/>
                        </g>
                    </g>
                </g>
                <g data-name="그룹 617" style="mix-blend-mode:multiply;isolation:isolate">
                    <g data-name="그룹 616">
                        <g data-name="그룹 615" style="clip-path:url(#9cvmkkk1ff)" transform="translate(39.383 65.324)">
                            <path data-name="패스 4288" d="M54.046 83.751a1.845 1.845 0 0 1-1.993 1.727 2.646 2.646 0 0 1-2.553-1.267l3.723-2.187z" transform="translate(-49.498 -82.024)" style="fill:#f3c200"/>
                        </g>
                    </g>
                </g>
                <path data-name="패스 4289" d="m46.548 53.9 2.962-1.446 1.519-.125 3.749-.177 2.5.824 1.793 1.259 1.1 1.63.224 1.861.181.857 2 .056 1.083.856.992 1.866.471 3.949a20.9 20.9 0 0 1-1.832 2.105c-.257.109-1.336.593-1.336.593l.73.94a9.7 9.7 0 0 1 .551 1.49 15.239 15.239 0 0 1-.327 1.609s-1.418 2.019-1.541 2.146-3.121 2.691-3.2 2.72-3.616 1.775-3.616 1.775l-1.437-.363-1.248-1.125-.507-.838-1.595 1.565-2.336.2-3.013-2.137-2.132-2.69-.217-1.815.76-1.411-.7-.508-1.846-2.486-.905-3.261.09-1.421.808-1.573 1.427-1.651 1.071-.463 1.534-.017.25-.528-.017-1.443.869-1.691z" transform="translate(-8.046 -10.618)" style="fill:#ffffe4"/>
                <path data-name="패스 4290" d="M62.244 54.025s2.336 3.617 0 4.825c0 0-1.185.656.519.6l1.544-.45a14.192 14.192 0 0 0 .665-2.122 14.227 14.227 0 0 1-1.072-2.003z" transform="translate(-12.638 -11)" style="fill:#e5e5c1"/>
                <path data-name="패스 4291" d="M46.142 61.978a13.44 13.44 0 0 0-4.481-.693l2.118-.695 1.334-.113z" transform="translate(-8.514 -12.313)" style="fill:#e5e5c1"/>
                <path data-name="패스 4292" d="M51.649 79.954a3.128 3.128 0 0 1-1.2 1.729 3.637 3.637 0 0 1-4.209-.431l2.59 2.537 2.336-.2 1.39-1.989z" transform="translate(-9.45 -16.279)" style="fill:#e5e5c1"/>
                <path data-name="패스 4293" d="M68.965 61.369s.639 6.842-3.644 7.56l2.362.649 2.031-1.289 1.1-3.309z" transform="translate(-13.348 -12.495)" style="fill:#e5e5c1"/>
                <path data-name="패스 4294" d="M63.772 71.723a6.123 6.123 0 0 1-3.01 6.17c-3.825 2.57-6.586 2.033-6.586 2.033L55 81.653l1.146.654 3.756-.654 4.498-3.478 1.874-3.053-.559-2.192z" transform="translate(-11.071 -14.603)" style="fill:#e5e5c1"/>
                <path data-name="패스 4295" d="M46.215 74.271s-2.683 1.308-2.646 3.263l-.327-1.4.375-1.551z" transform="translate(-8.836 -15.122)" style="fill:#e5e5c1"/>
                <path data-name="패스 4296" d="M46.019 68.536a2.763 2.763 0 0 1-1.84-.618c-1.282-1.09-2.307-3.264-2.885-6.123a.657.657 0 0 1 1.288-.26c.511 2.533 1.4 4.494 2.447 5.38.875.744 3.325.225 6.638-2.671 3.394-2.967 3.08-4.475 2.549-5.352-.856-1.413-3.388-2.253-4.292-2.457a.657.657 0 0 1 .288-1.283c.155.035 3.806.876 5.128 3.057 1.809 2.987-1.666 6.025-2.809 7.025-2.465 2.154-4.78 3.3-6.511 3.3"/>
                <path data-name="패스 4297" d="M40.635 68.264c-2.58 0-6.146-3.391-6.971-5.769a3.214 3.214 0 0 1 .821-3.231.657.657 0 0 1 .905.952 1.892 1.892 0 0 0-.486 1.849c.747 2.156 4.456 5.358 6.095 4.834a2.924 2.924 0 0 0 1.734-1.459.657.657 0 1 1 1.158.618 4.258 4.258 0 0 1-2.495 2.093 2.482 2.482 0 0 1-.764.113"/>
                <path data-name="패스 4298" d="M35.899 60.145a3.586 3.586 0 0 1-.378-.02 4.19 4.19 0 0 1-2.951-1.9c-2.773-3.83-1.885-7.721.114-9.715a4.116 4.116 0 0 1 4.136-.963.657.657 0 0 1-.44 1.238 2.8 2.8 0 0 0-2.769.655c-1.616 1.612-2.3 4.808.023 8.013a2.946 2.946 0 0 0 2.025 1.368 3.588 3.588 0 0 0 2.394-.854.657.657 0 1 1 .88.977 5.008 5.008 0 0 1-3.033 1.2"/>
                <path data-name="패스 4299" d="M38.033 50.794a.657.657 0 0 1-.468-.2c-.095-.1-2.331-2.405-1.706-4.667.639-2.312 3.143-4.828 8.251-4.953 4.377-.109 6.777.871 8.295 3.376a3.572 3.572 0 0 1 0 4.2.657.657 0 0 1-1-.849 2.317 2.317 0 0 0-.124-2.666c-1.254-2.071-3.253-2.839-7.139-2.745-4.4.109-6.527 2.217-7.017 3.99-.351 1.268.875 2.881 1.378 3.395a.658.658 0 0 1-.47 1.118"/>
                <path data-name="패스 4300" d="M53.867 57.777a3.8 3.8 0 0 1-.864-.1.657.657 0 0 1 .3-1.28 2.453 2.453 0 0 0 2.925-1.8 6.19 6.19 0 0 0-1.157-5.361c-1.078-1.614-4.021-.061-4.05-.045a.657.657 0 0 1-.623-1.158c.164-.088 4.026-2.134 5.764.474 1.51 2.264 1.953 4.444 1.315 6.478a3.8 3.8 0 0 1-3.611 2.789"/>
                <path data-name="패스 4301" d="M60.728 112.813a5.748 5.748 0 0 1-6.683-4.627l-.015-.087 11.3-2.062.016.086a5.751 5.751 0 0 1-4.622 6.689" transform="translate(-11.042 -21.59)" style="fill:#e08669"/>
                <path data-name="패스 4302" d="M48.654 91.855a6.293 6.293 0 0 1-6.177-5.162l-.016-.087a.537.537 0 0 1 .432-.625l11.3-2.063a.538.538 0 0 1 .624.433l.016.087a6.291 6.291 0 0 1-6.184 7.416m-5.021-4.915a5.208 5.208 0 0 0 10.209-1.863z"/>
                <path data-name="패스 4303" d="M42.337 84.445a.5.5 0 0 1-.273-.909l1.315-.868-1.573-.433a.5.5 0 0 1 .263-.955l2.625.723a.5.5 0 0 1 .142.891l-2.227 1.469a.484.484 0 0 1-.272.082"/>
                <path data-name="패스 4304" d="M54.001 82.318a.477.477 0 0 1-.11-.012l-2.6-.589a.5.5 0 0 1-.182-.883l2.2-1.6a.495.495 0 1 1 .582.8l-1.32.96 1.537.348a.5.5 0 0 1-.109.979"/>
                <path data-name="패스 4305" d="M30.6 107.9h3.361l2.069 5.146.749 5.819-2.29.807-5.1-3.408z" transform="translate(-6.006 -21.969)" style="fill:#f3c200"/>
                <path data-name="패스 4306" d="M31.593 118.894a32.68 32.68 0 0 1-10.861-2.92 39.834 39.834 0 0 1-4.924-2.627c-1.687-1.04-3.724-2.416-3.668-4.622a6.56 6.56 0 0 1 2.727-5.275c2.314-1.612 5.319.192 7.006 1.114a27.018 27.018 0 0 0 6.134 2.666l-.309-1.191" transform="translate(-2.481 -20.932)" style="fill:#f3c200"/>
                <path data-name="패스 4307" d="M29.113 98.619a.575.575 0 0 1-.075 0 33.239 33.239 0 0 1-11.051-2.97 41.05 41.05 0 0 1-5.005-2.669c-1.514-.934-4.047-2.5-3.98-5.2a7.17 7.17 0 0 1 3.008-5.8c2.535-1.767 5.606-.073 7.442.939l.254.139a25.364 25.364 0 0 0 4.881 2.24l-.005-.024a.657.657 0 1 1 1.271-.33l.308 1.192a.657.657 0 0 1-.837.79 27.608 27.608 0 0 1-6.247-2.714l-.258-.142c-1.669-.921-4.192-2.311-6.058-1.01a5.864 5.864 0 0 0-2.446 4.752c-.045 1.8 1.633 2.984 3.355 4.047a39.539 39.539 0 0 0 4.844 2.584 32.1 32.1 0 0 0 10.674 2.866.657.657 0 0 1-.073 1.31"/>
                <path data-name="패스 4308" d="M64.9 131.824c-4.455.235-8.979 2.314-11.422 5.706-.3.416-1.632 2.956-1.938 3.619l27.206-.493c-.078 0-.782-1.555-.892-1.737a15.454 15.454 0 0 0-1.237-1.768 15.032 15.032 0 0 0-3.257-2.99 13.769 13.769 0 0 0-8.46-2.337" transform="translate(-10.532 -26.836)" style="fill:#fff"/>
                <g data-name="그룹 620" style="mix-blend-mode:multiply;isolation:isolate">
                    <g data-name="그룹 619">
                        <g data-name="그룹 618" style="clip-path:url(#gu8569pfmg)" transform="translate(11.302 90.537)">
                            <path data-name="패스 4309" d="M14.205 113.683s9.083 3.931 17.128 3.577l1.29 3.848s-8.73-1.481-8.81-1.753-7.213-4.085-7.213-4.085z" transform="translate(-14.205 -113.683)" style="fill:#f3c200"/>
                        </g>
                    </g>
                </g>
                <path data-name="패스 4310" d="m352.373 125.885 5.481-33.044V81.8l-3.738-7.936-6.26-2.184-10.156-1.825-25.373.334-6.794 3.579-1.826 5.63v46.086z" transform="translate(-62.065 -14.223)" style="fill:#f3c200"/>
                <path data-name="패스 4311" d="M327.568 128.715c-6.562-.513-14.268 2.21-16.416 9.018 5.535-.216 11.116-.018 16.658-.018h12.129c-.176-.523-.8-1.957-.906-2.151-2.375-4.353-6.8-6.484-11.465-6.849" transform="translate(-63.584 -26.194)" style="fill:#fff"/>
                <g data-name="그룹 623" style="mix-blend-mode:multiply;isolation:isolate">
                    <g data-name="그룹 622">
                        <g data-name="그룹 621" style="clip-path:url(#at58pxp70h)" transform="translate(251.886 55.423)">
                            <path data-name="패스 4312" d="M319.663 72.4s-3.21-.336-3.079-2.148l3.957-.657.183 1.4z" transform="translate(-316.58 -69.592)" style="fill:#f3c200"/>
                        </g>
                    </g>
                </g>
                <g data-name="그룹 626" style="mix-blend-mode:multiply;isolation:isolate">
                    <g data-name="그룹 625">
                        <g data-name="그룹 624" style="clip-path:url(#8wfqzulz2i)" transform="translate(261.285 55.204)">
                            <path data-name="패스 4313" d="M343.807 69.436a1.247 1.247 0 0 1-.2.331c-.32.443-.469.156-.7.256a1.989 1.989 0 0 1 .281.28c.864 1.068.325 2.807.11 3.5-.73 2.352-3 5.559-5.811 5.425a3.919 3.919 0 0 1-1.56-.42 2.612 2.612 0 0 1-.51 1.554c-.759 1-2.278.853-3.435.767a8.714 8.714 0 0 1-3.589-1.095l7.432-4.054 6.164-6.659z" transform="translate(-328.394 -69.317)" style="fill:#f3c200"/>
                        </g>
                    </g>
                </g>
                <path data-name="패스 4314" d="m328.284 76.6 1.792-.128 1.3-.576.889-1.9.559-1.494.947.771 1.318.729 1.514-.715.73-.656 1.965-2.48.505-2.557-.488-.786.293-.883 1.323-1.573-.3-1.758L339.458 59l-2.087-2.854-2.651-2.056-2.244-.679-1.287 1.024-.92.805-.625-1.7-1.58-.871-3 .446-3 2.043-1.035 1.775-.061 1.652-1.548-.112-1.431 1.058-1.248 4.733.525 2.093 1.2.615 1.965.237-1.1 2.038.234 1.738.913 1.547 1.9 1.806 3.606 1.887z" transform="translate(-64.729 -10.723)" style="fill:#ffffe5"/>
                <path data-name="패스 4315" d="M345.22 64.213s-.532 3.764-3.833 4.019l2.124.5 1.885-1.345v-2.143z" transform="translate(-69.763 -13.074)" style="fill:#e5e5c1"/>
                <path data-name="패스 4316" d="M329.211 52.968a4.677 4.677 0 0 1 3.145 3.462l.484-.72-.984-2.519-1.839-.589z" transform="translate(-67.274 -10.71)" style="fill:#e5e5c1"/>
                <path data-name="패스 4317" d="M321.964 60.953s-2.888.162-3.4 1.02 1.089-1.659 1.089-1.659z" transform="translate(-65.079 -12.28)" style="fill:#e5e5c1"/>
                <path data-name="패스 4318" d="M322 68.379s-3.955.8-4.77-2.406l-.093 2.265.207.828 1.846.447h1.11z" transform="translate(-64.81 -13.433)" style="fill:#e5e5c1"/>
                <path data-name="패스 4319" d="M333.15 74.656a4.946 4.946 0 0 1-2 3.087c-2.559 1.632-7.322.2-11.145-4.258a8.608 8.608 0 0 0 1.7 3.995 9.564 9.564 0 0 0 7.246 3.362l3.1-.7 1.516-2.473-.41-3.008" transform="translate(-65.394 -14.962)" style="fill:#e5e5c1"/>
                <path data-name="패스 4320" d="M340.2 70.24a2.465 2.465 0 0 1 1.03 1.023 2.824 2.824 0 0 1-.239 2.644 2.679 2.679 0 0 1-2.5 1.263 2.527 2.527 0 0 1-1.526-.864q.494 1.5.994 3l1.27.274 3.03-2.363 1.321-3.089-.127-1.743q-1.626-.072-3.252-.147" transform="translate(-68.86 -14.301)" style="fill:#e5e5c1"/>
                <path data-name="패스 4321" d="M272.798 56.394a4.657 4.657 0 0 1-1.841-.36.657.657 0 0 1 .522-1.2 3.639 3.639 0 0 0 3.084-.2 1.6 1.6 0 0 0 .793-1.359 11.214 11.214 0 0 0-2.734-6.944c-2.192-2.223-4.155-3.3-4.993-2.744a4.881 4.881 0 0 0-1.9 2.883.658.658 0 0 1-1.295-.237 6.167 6.167 0 0 1 2.471-3.747c1.887-1.248 4.658.9 6.653 2.917a12.57 12.57 0 0 1 3.113 7.911 2.923 2.923 0 0 1-1.4 2.426 4.7 4.7 0 0 1-2.468.656"/>
                <path data-name="패스 4322" d="M257.497 49.908a.651.651 0 0 1-.4-.138 3.43 3.43 0 0 1-1.174-4.41c1.214-2.578 5.112-4.609 7.727-4.026.96.214 2.571.975 2.576 3.665a.657.657 0 0 1-.654.658.655.655 0 0 1-.654-.656c0-1.372-.51-2.152-1.548-2.384-2.029-.45-5.3 1.278-6.255 3.3a2.109 2.109 0 0 0 .8 2.813.658.658 0 0 1-.405 1.175"/>
                <path data-name="패스 4323" d="M270.065 64.018a2.183 2.183 0 0 1-.481-.053 3.117 3.117 0 0 1-2.068-2.288.658.658 0 0 1 1.24-.437c.21.59.571 1.321 1.113 1.444s1.375-.328 2.273-1.236a9.1 9.1 0 0 0 2.3-4.1c.117-.769-.684-1.011-.845-1.052a.657.657 0 0 1 .305-1.278 2.269 2.269 0 0 1 1.838 2.528 10.246 10.246 0 0 1-2.666 4.83 4.533 4.533 0 0 1-3.008 1.646"/>
                <path data-name="패스 4324" d="M264.13 66.562a12.046 12.046 0 0 1-4.7-1.2c-2.739-1.2-4.912-3.42-5.4-5.526a3.167 3.167 0 0 1 .6-2.863 8.442 8.442 0 0 1 3.232-2.652.658.658 0 0 1 .435 1.241 7.68 7.68 0 0 0-2.661 2.257 1.875 1.875 0 0 0-.325 1.718c.393 1.7 2.307 3.6 4.651 4.622 2.432 1.063 5.574 1.88 6.743-.268a5.732 5.732 0 0 0 .728-3.923.658.658 0 0 1 1.27-.342 7.015 7.015 0 0 1-.845 4.891 3.9 3.9 0 0 1-3.718 2.041"/>
                <path data-name="패스 4325" d="M254.61 57.068a2.59 2.59 0 0 1-1.157-.233c-1.345-.677-2.048-1.611-1.677-4.382.264-1.964.764-4.325 2.285-5.149a2.826 2.826 0 0 1 2.659.091.657.657 0 1 1-.566 1.186 1.585 1.585 0 0 0-1.467-.122c-1.13.612-1.487 3.289-1.609 4.168-.318 2.386.273 2.686.964 3.033a3.848 3.848 0 0 0 2.136-.2.657.657 0 0 1 .423 1.243 6.7 6.7 0 0 1-1.99.36"/>
                <path data-name="패스 4326" d="M242.09 64.114a.678.678 0 0 1-.132-.014.656.656 0 0 1-.513-.775c.015-.076 1.663-7.66 11.045-8.35a.657.657 0 0 1 .1 1.311c-8.4.617-9.841 7.234-9.858 7.3a.653.653 0 0 1-.64.526"/>
                <path data-name="패스 4327" d="M290.304 112.318a.722.722 0 0 1-.144-.015.659.659 0 0 1-.5-.783c.029-.122 2.7-12.367 4.516-25.126 1.814-12.695 1.079-20.626-2.309-24.958-2.5-3.191-10.894-4.711-17.324-5.043a.657.657 0 0 1 .063-1.312c3.413.176 14.814 1.1 18.291 5.545 3.679 4.7 4.473 12.7 2.578 25.954-1.829 12.81-4.5 25.1-4.534 25.222a.655.655 0 0 1-.637.516"/>
                <path data-name="패스 4328" d="M257.995 83.08a1.226 1.226 0 1 1-1.094-1.348 1.226 1.226 0 0 1 1.094 1.348"/>
                <path data-name="패스 4329" d="M256.781 84.635c-.059 0-.117 0-.176-.009a1.682 1.682 0 1 1 .176.009m-.005-2.457a.777.777 0 0 0-.488.174.768.768 0 0 0-.278.521.772.772 0 0 0 1.255.68.769.769 0 0 0 .283-.521.778.778 0 0 0-.688-.849h-.083"/>
                <path data-name="패스 4330" d="M267.439 85.489a.485.485 0 0 1-.217-.052l-2.39-1.188a.5.5 0 0 1 .031-.9l2.52-1.036a.5.5 0 0 1 .376.916l-1.509.622 1.411.7a.495.495 0 0 1-.222.939"/>
                <g data-name="그룹 629" style="mix-blend-mode:multiply;isolation:isolate">
                    <g data-name="그룹 628">
                        <g data-name="그룹 627" style="clip-path:url(#p11m18w4cj)" transform="translate(285.333 61.032)">
                            <path data-name="패스 4331" d="M366.333 76.635c-1.406 2.068-2.461 2.152-4.651 3.353-.344.188-.645.359-.872.5a3.222 3.222 0 0 0-1.177 2.9 12.453 12.453 0 0 0 .32 2.866l.681 3.031c1.38 12.131.159 26.025-2.017 38.039h4.634l5.305-29.978.579-6.268q-.293-2.807-.579-5.613c-.325-1.4-.276-6.586-2.224-8.835" transform="translate(-358.618 -76.635)" style="fill:#f3c200"/>
                        </g>
                    </g>
                </g>
                <g data-name="그룹 632" style="opacity:.15;mix-blend-mode:multiply;isolation:isolate">
                    <g data-name="그룹 631">
                        <g data-name="그룹 630" style="clip-path:url(#6f7h38vtrk)" transform="translate(263.114 95.471)">
                            <path data-name="패스 4332" d="M.197 0s-1.211 4.533 2.371 5.557c4.014 1.146 13.079 2.13 17.312-1.723l-4.81.8-5.645-.252-6.382-1.821z"/>
                        </g>
                    </g>
                </g>
                <path data-name="패스 4333" d="M262.196 89.566a12.228 12.228 0 0 1-7.139-2.317.584.584 0 0 1 .681-.949 11.03 11.03 0 0 0 10.984 1.133.583.583 0 0 1 .469 1.068 12.319 12.319 0 0 1-5 1.066"/>
                <path data-name="패스 4334" d="M350.594 110.339s-6.65 2.635-13.215-.419-8.259 2.386-8.259 2.386-2.034 5.879 6.773 8.792a20.315 20.315 0 0 0 13.843-.013" transform="translate(-67.214 -22.191)" style="fill:#f3c200"/>
                <path data-name="패스 4335" d="M275.881 100.752a23.633 23.633 0 0 1-7.407-1.236c-3.379-1.118-5.64-2.8-6.724-4.993a6.352 6.352 0 0 1-.449-4.618 5.769 5.769 0 0 1 2.969-3.291c1.7-.755 3.779-.576 6.164.534 6.223 2.9 12.646.429 12.712.4a.641.641 0 0 1 .469 1.192 18.736 18.736 0 0 1-13.721-.433c-2.029-.943-3.745-1.122-5.093-.53a4.555 4.555 0 0 0-2.288 2.528 5.207 5.207 0 0 0 .393 3.672c.935 1.864 2.944 3.317 5.972 4.319a19.727 19.727 0 0 0 13.408 0 .641.641 0 0 1 .471 1.192 18.578 18.578 0 0 1-6.877 1.261"/>
                <g data-name="그룹 635" style="mix-blend-mode:multiply;isolation:isolate">
                    <g data-name="그룹 634">
                        <g data-name="그룹 633" style="clip-path:url(#o4mbj308vl)" transform="translate(261.961 90.612)">
                            <path data-name="패스 4336" d="M349.8 121.547a23.32 23.32 0 0 1-16.45-2.863 9.783 9.783 0 0 1-4.1-4.906q.07 1.839.129 3.675l3.784 3.664 6.665 1.9 8.25-.235z" transform="translate(-329.243 -113.778)" style="fill:#f3c200"/>
                        </g>
                    </g>
                </g>
                <path data-name="패스 4337" d="m296.981 126.423 6.433-21.539 2.464-14.348-1.167-6.724-5.85-4.744-14.936-5.35-17.908-1.106-7.178 1.536-4.807 3.072-2.37 4.281-1.008 10.272-.766 18.752.766 16.509z" transform="translate(-51.066 -14.784)" style="fill:#f3c200"/>
                <path data-name="패스 4338" d="M271.59 128.742c-5.554-.3-10.932 1.97-13.962 6.79-.164.259-1.272 2.684-1.375 2.684h28.037s-.92-2.4-1.04-2.626a12.248 12.248 0 0 0-1.775-2.48 14.285 14.285 0 0 0-9.885-4.368" transform="translate(-52.366 -26.207)" style="fill:#fff"/>
                <path data-name="패스 4339" d="M199.68 112.319a.656.656 0 0 1-.649-.581c-1.987-16.878-.034-38 1.4-45.053 1.89-9.289 14.692-9.51 15.234-9.515h.007a.657.657 0 0 1 .007 1.314c-.125 0-12.285.218-13.962 8.462-1.509 7.418-3.262 28.678-1.384 44.638a.655.655 0 0 1-.576.729.518.518 0 0 1-.078 0"/>
                <path data-name="패스 4340" d="M300.908 76.491s11.965 2.943 14.453 9.471-.332 15.849-4.148 28.847c-2.822 9.619-3.965 12.427-3.965 12.427" transform="translate(-61.491 -15.574)" style="fill:#f3c200"/>
                <path data-name="패스 4341" d="M245.757 112.319a.615.615 0 0 1-.244-.049.657.657 0 0 1-.361-.855c.01-.029 1.169-2.916 3.943-12.365l.205-.707c3.669-12.492 6.321-21.516 3.958-27.72-2.337-6.131-13.882-9.04-14-9.068a.657.657 0 0 1 .313-1.277c.5.123 12.332 3.1 14.912 9.876 2.52 6.617-.183 15.821-3.923 28.56l-.208.706c-2.8 9.54-3.938 12.373-3.987 12.489a.658.658 0 0 1-.61.41"/>
                <path data-name="패스 4342" d="M218.027 82.762a1.226 1.226 0 1 1-1-1.421 1.226 1.226 0 0 1 1 1.421"/>
                <path data-name="패스 4343" d="M216.823 84.232a1.663 1.663 0 0 1-.29-.026 1.673 1.673 0 1 1 .29.026m0-2.457a.771.771 0 1 0 .132.011.928.928 0 0 0-.132-.011m1.206.986z"/>
                <path data-name="패스 4344" d="M227.345 84.397a1.226 1.226 0 1 1-1-1.421 1.225 1.225 0 0 1 1 1.421"/>
                <path data-name="패스 4345" d="M226.143 85.868a1.665 1.665 0 0 1-.291-.026 1.673 1.673 0 1 1 .291.026m0-2.457a.767.767 0 0 0-.759.64.773.773 0 1 0 .9-.629 1 1 0 0 0-.137-.011m1.211.986z"/>
                <path data-name="패스 4346" d="M273.386 111.272c.342-1.947 1.885-3.3 3.447-3.028s2.556 2.076 2.214 4.021-1.885 3.3-3.447 3.028-2.556-2.076-2.214-4.021" transform="translate(-55.855 -22.032)" style="fill:#e08669"/>
                <path data-name="패스 4347" d="M220.146 93.833a3.078 3.078 0 0 1-.5-.041c-1.853-.326-3.04-2.409-2.649-4.645s2.217-3.791 4.072-3.464a3.127 3.127 0 0 1 2.2 1.654 4.571 4.571 0 0 1 .452 2.99 3.954 3.954 0 0 1-3.577 3.506m-2.087-4.5c-.286 1.653.51 3.177 1.78 3.4s2.536-.94 2.827-2.59a3.5 3.5 0 0 0-.337-2.286 2.073 2.073 0 0 0-1.44-1.113c-1.275-.221-2.539.94-2.83 2.59"/>
                <path data-name="패스 4348" d="M296.713 116.593a164.384 164.384 0 0 1-15.149 7.189c-6.745 2.623-4 7.612-4 7.612s2.93 5.728 11.023 1.207a51.309 51.309 0 0 0 5.913-4" transform="translate(-56.61 -23.739)" style="fill:#f3c200"/>
                <path data-name="패스 4349" d="M226.301 111.243a7.336 7.336 0 0 1-2.129-.307 6.546 6.546 0 0 1-3.789-2.989 5.764 5.764 0 0 1-.312-4.425c.635-1.751 2.2-3.124 4.648-4.077a155.419 155.419 0 0 0 15.083-7.158.641.641 0 1 1 .6 1.134 156.525 156.525 0 0 1-15.215 7.219c-2.083.811-3.4 1.923-3.906 3.306a4.544 4.544 0 0 0 .239 3.4 5.357 5.357 0 0 0 3.049 2.368c1.975.59 4.363.114 7.1-1.413a33.331 33.331 0 0 0 4.292-2.823c.486-.364.984-.739 1.57-1.145a.64.64 0 0 1 .73 1.053c-.566.393-1.055.762-1.531 1.117a34.34 34.34 0 0 1-4.436 2.917 12.492 12.492 0 0 1-5.986 1.823"/>
                <g data-name="그룹 638" style="mix-blend-mode:multiply;isolation:isolate">
                    <g data-name="그룹 637">
                        <g data-name="그룹 636" style="clip-path:url(#5lt7x4qapm)" transform="translate(220.423 103.796)">
                            <path data-name="패스 4350" d="M294.226 130.855c-4.209 1.535-7.9 4.878-12.18 4.046a5.268 5.268 0 0 1-4.453-4.568c-.1.141-1.184 1.449-.027 3.859a4.423 4.423 0 0 0 1.533 1.73l4.321 1.2 5.442-1.237c1.877-1.5 3.484-3.533 5.364-5.03" transform="translate(-277.036 -130.333)" style="fill:#f3c200"/>
                        </g>
                    </g>
                </g>
                <path data-name="패스 4351" d="M253.64 114.565a50.448 50.448 0 0 0 1.272 8.168 21.551 21.551 0 0 0 1.689 3.808 5.818 5.818 0 0 0 8.042 2.7s5.2-2.33 1.384-8.492-6.951-11.793-6.951-11.793" transform="translate(-51.832 -22.183)" style="fill:#f3c200"/>
                <path data-name="패스 4352" d="M209.863 108.381c-1.814 0-4.026-.744-5.657-3.709a22.431 22.431 0 0 1-1.736-3.919 49.919 49.919 0 0 1-1.3-8.315.64.64 0 1 1 1.277-.1 50.09 50.09 0 0 0 1.243 8.02 21.183 21.183 0 0 0 1.641 3.7 5.148 5.148 0 0 0 7.178 2.441l.044-.022a4.546 4.546 0 0 0 2.232-2.572c.427-1.412.046-3.092-1.133-5a336.493 336.493 0 0 1-6.963-11.82.64.64 0 1 1 1.118-.624c.032.056 3.174 5.691 6.934 11.769 1.387 2.24 1.812 4.278 1.265 6.062a5.784 5.784 0 0 1-2.913 3.344 7.662 7.662 0 0 1-3.227.744"/>
                <g data-name="그룹 641" style="mix-blend-mode:multiply;isolation:isolate">
                    <g data-name="그룹 640">
                        <g data-name="그룹 639" style="clip-path:url(#tx9kxttmjn)" transform="translate(203.31 98.896)">
                            <path data-name="패스 4353" d="M266.176 124.179c.459 2.026-.059 4.992-1.4 6.009-1.5 1.135-3.447.61-4.666.281-2.473-.667-3.967-3.266-4.58-4.019l2.532 4.972 4.421 1.8 3.062-1.01 1.563-1.829a6.312 6.312 0 0 0 .415-2.781 6.4 6.4 0 0 0-1.345-3.423" transform="translate(-255.529 -124.179)" style="fill:#f3c200"/>
                        </g>
                    </g>
                </g>
                <g data-name="그룹 644" style="mix-blend-mode:multiply;isolation:isolate">
                    <g data-name="그룹 643">
                        <g data-name="그룹 642" style="clip-path:url(#bkndcqsyuo)" transform="translate(240.963 70.389)">
                            <path data-name="패스 4354" d="M315.757 88.385c-.117 0-3.635 2.058-6.48 2.392-1.1.129-1.553 1.243-1.716 2.342l-.017 6.662a101.23 101.23 0 0 1-4.692 30.225l4.951-.371 4.534-14.871 3.486-13.207.876-7.809z" transform="translate(-302.852 -88.385)" style="fill:#f3c200"/>
                        </g>
                    </g>
                </g>
                <g data-name="그룹 647" style="mix-blend-mode:multiply;isolation:isolate">
                    <g data-name="그룹 646">
                        <g data-name="그룹 645" style="clip-path:url(#8z3df4bv0p)" transform="translate(216.848 62.636)">
                            <path data-name="패스 4355" d="M276.235 81.435a1.872 1.872 0 0 1-2.217-.2 3.9 3.9 0 0 1-1.475-2.584l3.574 1.608z" transform="translate(-272.543 -78.65)" style="fill:#f3c200"/>
                        </g>
                    </g>
                </g>
                <g data-name="그룹 650" style="mix-blend-mode:multiply;isolation:isolate">
                    <g data-name="그룹 649">
                        <g data-name="그룹 648" style="clip-path:url(#rgvbsnwmaq)" transform="translate(220.542 60.86)">
                            <path data-name="패스 4356" d="m295.841 76.419 1.768.627c.286.1-.742 2.494-.837 2.673a6.922 6.922 0 0 1-4.868 3.356c-.349.067-3.35.163-3.271-.278a4.153 4.153 0 0 1-.669 1.656c-1.487 2.141-4.644 1.989-5.4 1.953-.945-.046-2.988-.146-4.123-1.506a21.758 21.758 0 0 1-1.25-1.847z" transform="translate(-277.186 -76.419)" style="fill:#f3c200"/>
                        </g>
                    </g>
                </g>
                <path data-name="패스 4357" d="m292.055 67.276.923-1.29.212-2.006-.83-1.97-1.023-2.125-3.1-2.327-1.885.35-.439.347-.608-.57-1.577-1.719-1.811.021-4.832 2.01-3.806 3.519-.776 2.878 1.152 1.619.51.777-2.051.578-.908 1.147.12 2.47 1.492 3.121s1.091 1.425 1.279 1.355a11.73 11.73 0 0 1 1.748.181l.156.57-.1 1.469.811 1.34 1.719 1.021 3.1.384 2.976-.465 1.306-1.026.491-1.494-.032-1.4 1.348 1.277 1.426.461 2.285-.638 2.158-2.186 1.128-2.695.222-2.141-.774-1.266-1.045-.72z" transform="translate(-55.424 -11.394)" style="fill:#ffffe5"/>
                <path data-name="패스 4358" d="M276.3 70.518h-3.437l1.414-.654z" transform="translate(-55.761 -14.224)" style="fill:#e5e5c1"/>
                <path data-name="패스 4359" d="M292.845 58.722s-1.863-.687-2.888 2.249l-.264-2.331 1.426-.781z" transform="translate(-59.201 -11.781)" style="fill:#e5e5c1"/>
                <path data-name="패스 4360" d="M277.38 78.149s-3.362.173-5.8-4.019v1.88l1.924 2.541 1.68.319h1.648z" transform="translate(-55.498 -15.093)" style="fill:#e5e5c1"/>
                <path data-name="패스 4361" d="M286.255 79.682s1.125 5.77-8.543 3.282l1.25 1.561 2.2.42h3.186l1.941-.411 1.34-2.267z" transform="translate(-56.752 -16.224)" style="fill:#e5e5c1"/>
                <path data-name="패스 4362" d="M298.21 72.312s-2.036 7.952-7.422 7.03l.874 1.763 2.177.139 3.386-1.763 1.116-2.919.415-2.328z" transform="translate(-59.424 -14.723)" style="fill:#e5e5c1"/>
                <path data-name="패스 4363" d="M296.432 61.766s.012 6.024-2.781 7.1l2.5-.139 1.655-2.033v-2.31z" transform="translate(-60.008 -12.576)" style="fill:#e5e5c1"/>
                <path data-name="패스 4364" d="M220.895 56.737a.588.588 0 0 1-.088-.005 6.4 6.4 0 0 1-3.835-2.53c-.6-.768-1.084-2.08.02-3.957 2-3.406 8.171-6.744 10.676-6.346 3.281.515 3.716 4.178 3.484 6.042a.656.656 0 1 1-1.3-.16c.02-.169.459-4.137-2.388-4.585-1.855-.293-7.561 2.69-9.338 5.715-.881 1.5-.305 2.238-.117 2.482a5.114 5.114 0 0 0 2.979 2.037.657.657 0 0 1-.09 1.308"/>
                <path data-name="패스 4365" d="M220 64.939a3.073 3.073 0 0 1-1.243-.268c-2.178-.955-3.772-4.406-3.74-6.851a2.719 2.719 0 0 1 .85-2.018 5.2 5.2 0 0 1 3.369-1.079.653.653 0 0 1 .627.682.661.661 0 0 1-.679.633 3.832 3.832 0 0 0-2.417.719 1.452 1.452 0 0 0-.439 1.081c-.025 1.952 1.287 4.9 2.957 5.63a1.988 1.988 0 0 0 2.292-.59.656.656 0 1 1 .9.954 3.61 3.61 0 0 1-2.478 1.107"/>
                <path data-name="패스 4366" d="M226.499 69.692c-.132 0-.273 0-.415-.008l-.232-.008c-1.6-.053-3.789-.126-5.291-1.876a3.28 3.28 0 0 1-.132-4.117.657.657 0 0 1 1.048.792 1.966 1.966 0 0 0 .078 2.468c1.123 1.312 2.832 1.37 4.336 1.42l.239.008c2.317.085 3.674-.6 4.036-2.027a2.713 2.713 0 0 0-.339-1.969.658.658 0 0 1 .181-.91.648.648 0 0 1 .9.171 4.028 4.028 0 0 1 .527 3.03c-.352 1.4-1.5 3.025-4.941 3.025"/>
                <path data-name="패스 4367" d="M233.737 67.039a4.62 4.62 0 0 1-.547-.033c-2.219-.266-4.07-3.706-4.27-4.1a.657.657 0 1 1 1.165-.607c.645 1.241 2.1 3.26 3.262 3.4 1.6.194 3.2-.84 4.375-2.834 1.12-1.9 1.409-4.486.051-5.294-1.289-.767-1.926-.608-1.934-.607a.167.167 0 0 0 .034-.01l-.474-1.227c.186-.073 1.211-.374 3.044.715 2.126 1.264 1.875 4.6.408 7.091-1.328 2.254-3.169 3.5-5.115 3.5"/>
                <path data-name="패스 4368" d="M233.813 57.233c-.393 0-.659-.027-.7-.031a.657.657 0 0 1 .139-1.307c.749.079 2.825.049 3.45-1.017.808-1.378.518-3.222-.83-5.334-.684-1.068-2.275-2.775-3.643-2.808a1.6 1.6 0 0 0-1.37.808.657.657 0 0 1-1.072-.761 2.879 2.879 0 0 1 2.475-1.361c2.036.049 3.975 2.255 4.717 3.414 2.061 3.228 1.6 5.428.855 6.705-.864 1.483-2.932 1.692-4.023 1.692"/>
                <path data-name="패스 4369" d="m80.06 51.087-.707-13.928a13.554 13.554 0 0 1 3.1-9.9l3.459-3.387 10.315-3.717 21.781.5 7.263 2.806a13.507 13.507 0 0 1 5.812 7.07l1.437 8.632-.451 10.36-.55 5.9-2.284 12.722-44.864.689z" transform="translate(-16.205 -4.103)" style="fill:#f3c200"/>
                <path data-name="패스 4370" d="m115.931 48.091-1.3-.2c.021-.137 2.1-13.778-.615-21.41-1.935-5.445-7.093-8.791-15.333-9.945a69.557 69.557 0 0 0-19.57.584c-9.674 1.457-12.627 4.853-14.691 10.61-2.089 5.825-.029 20.013-.007 20.156l-1.3.193c-.088-.6-2.129-14.659.071-20.792 2.183-6.09 5.457-9.918 15.731-11.466a70.8 70.8 0 0 1 19.946-.585c8.762 1.227 14.276 4.863 16.389 10.805 2.825 7.947.764 21.48.674 22.052"/>
                <g data-name="그룹 653" style="mix-blend-mode:multiply;isolation:isolate">
                    <g data-name="그룹 652">
                        <g data-name="그룹 651" style="clip-path:url(#2s248uibpr)" transform="translate(64.066 15.655)">
                            <path data-name="패스 4371" d="m129.032 26.367-4.146-4.331-6.869-1.65-2.211-.728-.974.754-16.224.135L88.5 22.035l-5.8 5.12c-1.006 2.222-1.179 2.6-2.184 4.826a38.476 38.476 0 0 1 7.914-3.826 22.244 22.244 0 0 1 6.575-1.308 7.226 7.226 0 0 0 4.095 3.71c3.816 1.261 4.908-1.758 4.908-1.758l-.736-1.039-3.881-1.165c1.8-.075 3.942-.137 6.5-.186.424-.009.832-.016 1.232-.022l-3.114 2.413a3.862 3.862 0 0 0 1.2 1.518 4.618 4.618 0 0 0 3.217.7 12.445 12.445 0 0 0 8.162-3.8 8.237 8.237 0 0 0 .611-.743 19.952 19.952 0 0 1 5.538.963c3.735 1.218 6.542 2.2 8.318 3.464-.672-1.761-1.345-2.772-2.017-4.533" transform="translate(-80.52 -19.657)" style="fill:#f3c200"/>
                        </g>
                    </g>
                </g>
                <path data-name="패스 4372" d="m101.31 4.345-1.483.264-1.834 1.167-1.234.976-.859 1.412-.287 2.943.646 1.8 1.2.965-.421 1.009-.414 1.73s.2 2.109.233 2.261.543 2.368.543 2.368l2.147 2.4s2.147 1.294 2.311 1.345 2.534.176 2.534.176l1.957-1.238.616-.727.12 1.4s.827.548 1.039.666 2.129.5 2.129.5l2.406-.323 4.147-2.091.908-.909.864-1.779-.53-1.79-.892-1.22.549-.622 1.346-1.508.609-1.85v-1.635l-.42-2.447-1.083-1.916-.614-.55-1.243-.257-.637-.351.121-1.4-.239-1.77-1.111-1.07-2.114-1.043-2.92-.389-3.257.4-1.961 1.136-.78 1.044-.372 1.588-.53-.21z" transform="translate(-19.539 -.171)" style="fill:#ffffe5"/>
                <path data-name="패스 4373" d="M107.775 25.656s-2.631 2.988-6.268 1.754-3.637-2.325-3.637-2.325l2.629 3.988 2.213 1.134 3.7-.559 1.018-1.51z" transform="translate(-20.001 -5.108)" style="fill:#e5e5c1"/>
                <path data-name="패스 4374" d="M99.813 6.451s2.969-.729 4.077 1.189V5.9l-2.715-.7z" transform="translate(-20.397 -1.06)" style="fill:#e5e5c1"/>
                <path data-name="패스 4375" d="M124.527 13.21s-.013 4.29-3.359 5.529l1.155 1.1 1.6-1.208 1.2-3.8z" transform="translate(-24.761 -2.69)" style="fill:#e5e5c1"/>
                <path data-name="패스 4376" d="M99.412 15.219a3.765 3.765 0 0 1-3.242-2.311l-.115 1.4 1.022 1.452 1.15.4z" transform="translate(-19.629 -2.628)" style="fill:#e5e5c1"/>
                <path data-name="패스 4377" d="M120.245 22.643a5.54 5.54 0 0 1-3.666 4.506 6.563 6.563 0 0 1-5.885 0l-.143 1.962 1.238.787 3.931-.013 3.635-1.308 1.863-2.608.42-1.512z" transform="translate(-22.591 -4.61)" style="fill:#e5e5c1"/>
                <path data-name="패스 4378" d="M117.7 2.324s1.492 3.679 0 5.839l2.479-1.347.281-2.759z" transform="translate(-24.052 -.473)" style="fill:#e5e5c1"/>
                <path data-name="패스 4379" d="M83.968 25.754a6.5 6.5 0 0 1-3.365-1.035c-2.721-1.734-4.084-4.437-4.165-8.264a3.877 3.877 0 0 1 1.124-2.9c1.758-1.8 4.932-1.909 4.963-1.909a.657.657 0 0 1 0 1.314c-.053 0-2.714.144-4.049 1.535a2.576 2.576 0 0 0-.73 1.933c.071 3.354 1.235 5.7 3.557 7.183a4.367 4.367 0 0 0 3.893.587c1.184-.518 1.976-1.828 2.355-3.9a.657.657 0 1 1 1.292.237c-.461 2.525-1.512 4.163-3.121 4.865a4.363 4.363 0 0 1-1.757.354"/>
                <path data-name="패스 4380" d="M90.744 26.254h-.023a3.845 3.845 0 0 1-3.22-1.265 3.422 3.422 0 0 1-.509-2.735.657.657 0 0 1 1.272.328 2.093 2.093 0 0 0 .283 1.611 2.658 2.658 0 0 0 2.178.746h.02c3.02 0 6.182-1.817 7.246-3.518a1.839 1.839 0 0 0 .251-1.839 4.936 4.936 0 0 0-2.079-2.429.66.66 0 0 1-.359-.853.652.652 0 0 1 .841-.369 5.911 5.911 0 0 1 2.777 3.074 3.105 3.105 0 0 1-.319 3.114c-1.451 2.322-5.12 4.135-8.359 4.135"/>
                <path data-name="패스 4381" d="M97.298 17.806a.657.657 0 0 1-.015-1.314c.081 0 1.374-.119 2.062-2.491a7.4 7.4 0 0 0-.764-5.447 2.483 2.483 0 0 0-1.419-1.27c-1.656-.348-3.37 1.416-3.387 1.434a.657.657 0 0 1-.95-.907c.09-.095 2.233-2.312 4.607-1.813a3.675 3.675 0 0 1 2.274 1.88 8.818 8.818 0 0 1 .9 6.49c-.984 3.395-3.213 3.439-3.307 3.439z"/>
                <path data-name="패스 4382" d="M84.33 8.347a.656.656 0 0 1-.576-.342 5.621 5.621 0 0 1-.712-4.473A4.745 4.745 0 0 1 85.48.84a8.3 8.3 0 0 1 4.413-.827 8.818 8.818 0 0 1 5.859 1.9c2.292 1.778.908 4.891.847 5.023a.657.657 0 0 1-1.194-.536c.044-.1 1.009-2.3-.457-3.44a7.632 7.632 0 0 0-5.114-1.629 7.038 7.038 0 0 0-3.793.7 3.392 3.392 0 0 0-1.749 1.91 4.38 4.38 0 0 0 .613 3.436.657.657 0 0 1-.575.973"/>
                <path data-name="패스 4383" d="M78.242 14.471a.66.66 0 0 1-.146-.017 3.725 3.725 0 0 1-2.673-3.453c-.268-2.732 1.246-5.309 4.051-6.892a3.739 3.739 0 0 1 2.918-.5 2.939 2.939 0 0 1 1.7 1.342.657.657 0 1 1-1.159.618 1.692 1.692 0 0 0-.653-.6 2.274 2.274 0 0 0-2.163.287c-2.338 1.319-3.605 3.42-3.39 5.619a2.454 2.454 0 0 0 1.667 2.3.658.658 0 0 1-.153 1.3"/>
                <path data-name="패스 4384" d="M86.472 41.616a1.227 1.227 0 1 1-1.227-1.228 1.226 1.226 0 0 1 1.227 1.228"/>
                <path data-name="패스 4385" d="M85.244 43.299a1.682 1.682 0 1 1 1.681-1.682 1.683 1.683 0 0 1-1.681 1.682m0-2.456a.774.774 0 1 0 .774.774.775.775 0 0 0-.774-.774"/>
                <path data-name="패스 4386" d="M95.934 41.616a1.227 1.227 0 1 1-1.228-1.228 1.227 1.227 0 0 1 1.228 1.228"/>
                <path data-name="패스 4387" d="M94.707 43.299a1.682 1.682 0 1 1 1.681-1.682 1.684 1.684 0 0 1-1.681 1.682m0-2.456a.774.774 0 1 0 .774.774.774.774 0 0 0-.774-.774"/>
                <path data-name="패스 4388" d="M111.609 62.66a5.748 5.748 0 0 1-5.745-5.751v-.088h11.49v.088a5.748 5.748 0 0 1-5.746 5.751" transform="translate(-21.634 -11.569)" style="fill:#e08669"/>
                <path data-name="패스 4389" d="M89.975 51.628a6.292 6.292 0 0 1-6.282-6.289v-.087a.536.536 0 0 1 .537-.538h11.489a.536.536 0 0 1 .537.538v.087a6.292 6.292 0 0 1-6.282 6.289m-5.188-5.839a5.208 5.208 0 0 0 10.377 0z"/>
                <g data-name="그룹 656" style="mix-blend-mode:multiply;isolation:isolate">
                    <g data-name="그룹 655">
                        <g data-name="그룹 654" style="clip-path:url(#1ipzyjliys)" transform="translate(71.764 56.242)">
                            <path data-name="패스 4390" d="m91.079 70.621 1.433 5.643-2.315.694z" transform="translate(-90.197 -70.621)" style="fill:#f3c200"/>
                        </g>
                    </g>
                </g>
                <g data-name="그룹 659" style="mix-blend-mode:multiply;isolation:isolate">
                    <g data-name="그룹 658">
                        <g data-name="그룹 657" style="clip-path:url(#7si9ntw7qt)" transform="translate(105.564 56.311)">
                            <path data-name="패스 4391" d="m133.627 70.707.676 5.173c-.6.009-1.023-.288-1.626-.279.421-2.338.53-2.558.95-4.894" transform="translate(-132.677 -70.707)" style="fill:#f3c200"/>
                        </g>
                    </g>
                </g>
                <path data-name="패스 4392" d="M110.373 72.5h-1.282c-5.876 0-10.835 2.848-12.413 6.747h26.108c-1.578-3.9-6.537-6.747-12.413-6.747" transform="translate(-19.757 -14.761)" style="fill:#fff"/>
                <path data-name="패스 4393" d="M82.664 125.861s-2.766-21.1-2.844-21.6c-.432-2.787-1.711-12.337.129-17.465 2.17-6.05 5.351-9.552 15.211-11.038s24.919-2.122 33.4 3.078c6.8 4.167 4.688 20.052 3.983 27.52-.145 1.533-2.292 19.5-2.292 19.5" transform="translate(-16.141 -15.21)" style="fill:#f3c200"/>
                <path data-name="패스 4394" d="M110.955 129.3h-3.009a13.7 13.7 0 0 0-12.266 7.68h27.095a12.943 12.943 0 0 0-11.82-7.68" transform="translate(-19.553 -26.325)" style="fill:#fff"/>
                <g data-name="그룹 662" style="mix-blend-mode:multiply;isolation:isolate">
                    <g data-name="그룹 661">
                        <g data-name="그룹 660" style="clip-path:url(#amyna1v6yu)" transform="translate(82.154 69.704)">
                            <path data-name="패스 4395" d="M106.619 88.654s-1.961 1.723-3.364 0l2.786-1.13z" transform="translate(-103.255 -87.524)" style="fill:#f3c200"/>
                        </g>
                    </g>
                </g>
                <g data-name="그룹 665" style="mix-blend-mode:multiply;isolation:isolate">
                    <g data-name="그룹 664">
                        <g data-name="그룹 663" style="clip-path:url(#kabiwx7lgv)" transform="translate(63.486 60.359)">
                            <path data-name="패스 4396" d="m133.085 87.26-1.171-7.079-12.441-4.391H94.595L83 79.994l-3.212 9.058a86 86 0 0 1 34.1-5.043H111.3l-2.225 4.568a4.3 4.3 0 0 0 4.5-3.009c1.038.325 2.573-.867 3.146-1.357a86.37 86.37 0 0 1 16.359 3.05" transform="translate(-79.792 -75.79)" style="fill:#f3c200"/>
                        </g>
                    </g>
                </g>
                <path data-name="패스 4397" d="M65.873 110.736c-.956-7.294-2.781-21.194-2.841-21.583-.44-2.842-1.73-12.522.158-17.789 2.184-6.089 5.458-9.918 15.732-11.465 5.4-.814 23.8-2.989 33.84 3.167 6.686 4.1 5.288 18.13 4.453 26.513-.057.578-.112 1.123-.16 1.63-.144 1.525-2.205 18.786-2.293 19.52l-1.3-.156c.021-.18 2.147-17.98 2.289-19.488.049-.509.1-1.056.161-1.636.752-7.547 2.151-21.595-3.833-25.263-9.664-5.924-27.671-3.785-32.959-2.988-9.677 1.455-12.629 4.855-14.693 10.61-1.784 4.975-.525 14.38-.1 17.144.078.5 2.733 20.751 2.845 21.613z"/>
                <path data-name="패스 4398" d="m120.161 79.494 1.83-4.608-.52-2.738-1.758-2.057 1.138-2.281-.642-1.736-1.921-2.667-3.7-1.929s-2.439 1.2-2.623 1.393-.79.774-.79.774l-2.02-1.731-1.123-.263s-3.328-.135-3.477-.056a23.21 23.21 0 0 0-3.13 2.094 19.7 19.7 0 0 0-2.31 3.2 22.564 22.564 0 0 0-.778 3.646c.126.276.868 1.877.868 1.877L98.153 74.9l.017 4.6 2.659 2.986 2.988.4.947-.2 2.858 2.445s2.1.706 2.35.7 4.255-1.442 4.255-1.442l1.81-2.142a6.454 6.454 0 0 1 .69-1.018c.127-.048 2.77-1.1 2.77-1.1z" transform="translate(-20.058 -12.517)" style="fill:#ffffe6"/>
                <path data-name="패스 4399" d="M119.537 62.393a4.189 4.189 0 0 0-4.052 4.071q-.505-1.632-1.006-3.263a4.015 4.015 0 0 1 5.057-.808" transform="translate(-23.394 -12.59)" style="fill:#e5e5c1"/>
                <path data-name="패스 4400" d="M123.737 66.262s.024 3.772-3.423 4.967l4.307-.177.615-2.656z" transform="translate(-24.586 -13.491)" style="fill:#e5e5c1"/>
                <path data-name="패스 4401" d="M99.5 68.724a7.066 7.066 0 0 0 .709 2.862c1.486 3 5 4.262 4.75 4.83-.034.076-.15.171-.6.156l-5.084-2.682-.775-3.279z" transform="translate(-20.128 -13.992)" style="fill:#e5e5c1"/>
                <path data-name="패스 4402" d="M105.138 84.853a3.8 3.8 0 0 1-2.208 1.077 4 4 0 0 1-3.176-1.2l.674 1.547 2.019 1.109 2.881-.434z" transform="translate(-20.385 -17.252)" style="fill:#e5e5c1"/>
                <path data-name="패스 4403" d="M103.728 78.8a3.525 3.525 0 0 0-2.493-.322 3.752 3.752 0 0 0-2.61 3.212L97.8 78.8l1.534-2.03z" transform="translate(-19.986 -15.63)" style="fill:#e5e5c1"/>
                <path data-name="패스 4404" d="M114.651 85.034s-.029 2.489-3.254 2.486a2.93 2.93 0 0 1-2.115-.618 5.284 5.284 0 0 1-1.218-2.007c-.037-.13-.129-.479-.325-.509-.146-.023-.283.141-.343.214l-.338 2.092.338 1.323 2.2 1.428 3.909.465 2.539-.854 1.559-2.779z" transform="translate(-21.877 -17.181)" style="fill:#e5e5c1"/>
                <path data-name="패스 4405" d="M124.855 75.409s-1.149 7.193-7.366 7.546l1.519.976h3.818l1.694-2.3.559-3.113z" transform="translate(-24.009 -15.354)" style="fill:#e5e5c1"/>
                <path data-name="패스 4406" d="M90.124 73.621a6.667 6.667 0 0 1-3.55-.925c-1.157-.73-2.456-2.222-2.072-5.179a.657.657 0 1 1 1.3.17c-.237 1.822.257 3.134 1.47 3.9 1.832 1.157 4.916.79 6.537-.262 1.942-1.262 1.521-2.218 1.5-2.259l.582-.3.572-.322c.045.081 1.086 2.02-1.942 3.986a8.4 8.4 0 0 1-4.4 1.2"/>
                <path data-name="패스 4407" d="M82.97 70.995a5.037 5.037 0 0 1-3.368-1.475 7.94 7.94 0 0 1-1.672-2.561c-.983-2.324-1.594-4.975 1.306-7.011a.659.659 0 0 1 .758 1.077c-2.019 1.416-1.822 3.124-.852 5.423a6.559 6.559 0 0 0 1.338 2.091c2.465 2.2 4.171.574 4.242.5a.657.657 0 0 1 .922.936 4.118 4.118 0 0 1-2.67 1.016"/>
                <path data-name="패스 4408" d="M84.439 63.674a.67.67 0 0 1-.192-.029c-.223-.068-5.5-1.71-6.423-4.763-.942-3.107 1.812-7.526 4.12-9.2 1.526-1.108 4.694-2.357 7.166-1.256 1.893.845 3.016 2.815 3.336 5.857a.657.657 0 1 1-1.306.137c-.266-2.541-1.129-4.154-2.565-4.793-1.949-.869-4.629.225-5.859 1.119-1.976 1.436-4.373 5.324-3.635 7.758.6 1.979 4.21 3.477 5.551 3.887a.657.657 0 0 1-.192 1.286"/>
                <path data-name="패스 4409" d="M99.511 58.396a.657.657 0 0 1-.477-1.108 3.224 3.224 0 0 0-.086-4.408c-1.168-1.436-2.719-3.088-4.349-3.121a4.3 4.3 0 0 0-3.166 1.821.657.657 0 1 1-.983-.871 5.57 5.57 0 0 1 4.176-2.265c2.156.045 3.91 1.848 5.34 3.606a4.558 4.558 0 0 1 .021 6.14.655.655 0 0 1-.476.2"/>
                <path data-name="패스 4410" d="M96.354 69.424a6.329 6.329 0 0 1-4.014-1.538.657.657 0 1 1 .876-.978c.109.1 2.728 2.37 5.5.428a5.339 5.339 0 0 0 2.112-3.681 6.749 6.749 0 0 0-.952-4.761c-1.2-1.522-3.975-.008-4 .008a.657.657 0 0 1-.638-1.149c.154-.086 3.785-2.074 5.674.329a8.009 8.009 0 0 1 1.217 5.766 6.608 6.608 0 0 1-2.658 4.565 5.34 5.34 0 0 1-3.113 1.012"/>
                <path data-name="패스 4411" d="M86.553 87.751a1.227 1.227 0 1 1-1.228-1.228 1.228 1.228 0 0 1 1.228 1.228"/>
                <path data-name="패스 4412" d="M85.322 89.457a1.706 1.706 0 1 1 1.705-1.706 1.708 1.708 0 0 1-1.705 1.706m0-2.457a.751.751 0 1 0 .75.751.751.751 0 0 0-.75-.751"/>
                <path data-name="패스 4413" d="M96.016 87.751a1.227 1.227 0 1 1-1.227-1.228 1.228 1.228 0 0 1 1.227 1.228"/>
                <path data-name="패스 4414" d="M94.792 89.457a1.706 1.706 0 1 1 1.7-1.706 1.707 1.707 0 0 1-1.7 1.706m0-2.457a.751.751 0 1 0 .749.751.751.751 0 0 0-.749-.749"/>
                <path data-name="패스 4415" d="M90.058 93.531a12.257 12.257 0 0 1-6.1-1.636.583.583 0 1 1 .579-1.013 11.027 11.027 0 0 0 11.04 0 .584.584 0 1 1 .579 1.013 12.268 12.268 0 0 1-6.1 1.636"/>
                <path data-name="패스 4416" d="M134.53 68.69c.278 2.12.524 4.56.62 7.066.28 7.241 5.889 6.269 5.889 6.269s6.362-.906 4.73-10.043c-.969-5.409-1.937-9.684-2.964-11.736" transform="translate(-27.492 -12.267)" style="fill:#f3c200"/>
                <path data-name="패스 4417" d="M112.896 70.445a5.627 5.627 0 0 1-3.54-1.195c-1.449-1.174-2.235-3.1-2.338-5.735a77.067 77.067 0 0 0-.615-7.008.64.64 0 1 1 1.27-.167c.328 2.5.541 4.9.626 7.126s.708 3.845 1.851 4.778a4.54 4.54 0 0 0 3.29.883 5.345 5.345 0 0 0 3.233-2.117c1.2-1.676 1.528-4.092.977-7.179-1.094-6.113-2.014-9.786-2.9-11.562a.64.64 0 1 1 1.144-.575c.946 1.889 1.905 5.673 3.021 11.91.618 3.456.21 6.208-1.215 8.177a6.555 6.555 0 0 1-4.056 2.612 4.657 4.657 0 0 1-.74.051"/>
                <g data-name="그룹 668" style="mix-blend-mode:multiply;isolation:isolate">
                    <g data-name="그룹 667">
                        <g data-name="그룹 666" style="clip-path:url(#iysuxyn2dw)" transform="translate(107.808 62.518)">
                            <path data-name="패스 4418" d="M135.5 78.5a5.75 5.75 0 0 0 10.671 1.251 6.832 6.832 0 0 1-2.4 4.8l-2.529 1.195-3.42-.746-2.183-2.4q-.069-2.053-.142-4.107" transform="translate(-135.498 -78.501)" style="fill:#f3c200"/>
                        </g>
                    </g>
                </g>
                <path data-name="패스 4419" d="M87.593 68.69a78.273 78.273 0 0 0-.62 7.066c-.28 7.241-5.887 6.269-5.887 6.269s-6.363-.906-4.73-10.043c.968-5.409 1.936-9.684 2.963-11.736" transform="translate(-15.549 -12.267)" style="fill:#f3c200"/>
                <path data-name="패스 4420" d="M66.188 70.443a4.694 4.694 0 0 1-.762-.053 6.55 6.55 0 0 1-4.036-2.609c-1.425-1.97-1.833-4.722-1.215-8.178 1.115-6.236 2.075-10.021 3.02-11.91a.64.64 0 1 1 1.145.574c-.887 1.776-1.81 5.45-2.9 11.562-.554 3.1-.222 5.523.99 7.2a5.274 5.274 0 0 0 3.2 2.094 4.541 4.541 0 0 0 3.306-.881c1.142-.932 1.765-2.539 1.851-4.777s.3-4.624.626-7.125a.64.64 0 1 1 1.27.167 77.098 77.098 0 0 0-.615 7.008c-.1 2.631-.887 4.561-2.336 5.735a5.625 5.625 0 0 1-3.539 1.194"/>
                <g data-name="그룹 671" style="mix-blend-mode:multiply;isolation:isolate">
                    <g data-name="그룹 670">
                        <g data-name="그룹 669" style="clip-path:url(#p9jzngtexx)" transform="translate(60.914 62.961)">
                            <path data-name="패스 4421" d="M87.357 79.058a6.469 6.469 0 0 1-2.816 3.569 7.077 7.077 0 0 1-7.981-1.185l1.6 3.133 3.864 1.125 3.514-1.2 1.221-1.373z" transform="translate(-76.56 -79.058)" style="fill:#f3c200"/>
                        </g>
                    </g>
                </g>
                <g data-name="그룹 674" style="opacity:.15;mix-blend-mode:multiply;isolation:isolate">
                    <g data-name="그룹 673">
                        <g data-name="그룹 672" style="clip-path:url(#3xe4wwo6qy)" transform="translate(72.639 102.554)">
                            <path data-name="패스 4422" d="M17.419.983.004 0s4.038 6.041 9.182 7.516 8.237-.662 8.237-.662 3.092 2.138 8.237.662S34.841 0 34.841 0z"/>
                        </g>
                    </g>
                </g>
                <path data-name="패스 4423" d="M90 112.968c1.861 1.049 10.5 6.095 15.608 7.892 6.831 2.4 3.614 7.8 3.614 7.8s-2.489 5.186-11.856.666a39.675 39.675 0 0 1-6.663-3.988" transform="translate(-18.392 -23.001)" style="fill:#f3c200"/>
                <path data-name="패스 4424" d="M85.717 108.825a16.583 16.583 0 0 1-7.022-1.918 33.493 33.493 0 0 1-5.709-3.326 16.447 16.447 0 0 0-1.011-.692.641.641 0 0 1 .671-1.093c.374.229.7.468 1.087.743a32.4 32.4 0 0 0 5.519 3.214c8.615 4.157 10.91-.184 11-.371l.024-.047a5.056 5.056 0 0 0 .441-3.842c-.48-1.311-1.73-2.331-3.718-3.03-4.678-1.646-12.184-5.928-15.01-7.539l-.7-.4a.641.641 0 0 1 .628-1.118l.707.4c2.8 1.6 10.23 5.834 14.8 7.442 2.373.834 3.887 2.117 4.5 3.813a6.268 6.268 0 0 1-.536 4.9 5.455 5.455 0 0 1-3.044 2.432 7.928 7.928 0 0 1-2.631.422"/>
                <g data-name="그룹 677" style="mix-blend-mode:multiply;isolation:isolate">
                    <g data-name="그룹 676">
                        <g data-name="그룹 675" style="clip-path:url(#mrxjbozvsz)" transform="translate(72.547 100.577)">
                            <path data-name="패스 4425" d="M110.076 126.29c-.394.865-1.152 3.085-2.915 4.128a7.444 7.444 0 0 1-4.418 1.088c-2.21-.038-6.8-1.451-11.562-3.743l5.548 3.847 4.059 1.7 4.673.513 2.456-.863 1.548-1.581.612-5.087" transform="translate(-91.18 -126.29)" style="fill:#f3c200"/>
                        </g>
                    </g>
                </g>
                <path data-name="패스 4426" d="M131.244 112.968c-1.86 1.049-10.5 6.095-15.608 7.892-6.83 2.4-3.614 7.8-3.614 7.8s2.49 5.186 11.857.666a39.691 39.691 0 0 0 6.663-3.988" transform="translate(-22.737 -23.001)" style="fill:#f3c200"/>
                <path data-name="패스 4427" d="M94.396 108.825a7.918 7.918 0 0 1-2.629-.422 5.456 5.456 0 0 1-3.046-2.432 6.268 6.268 0 0 1-.536-4.9c.614-1.7 2.129-2.979 4.5-3.813 4.569-1.608 12-5.847 14.8-7.442l.708-.4a.641.641 0 0 1 .629 1.118l-.7.4c-2.825 1.611-10.33 5.893-15.01 7.539-1.986.7-3.237 1.719-3.717 3.03a5.067 5.067 0 0 0 .442 3.844l.026.049c.093.182 2.388 4.524 11 .367a32.383 32.383 0 0 0 5.519-3.214 17.15 17.15 0 0 1 1.088-.743.641.641 0 0 1 .67 1.093c-.334.206-.648.431-1.011.692a33.436 33.436 0 0 1-5.709 3.326 16.583 16.583 0 0 1-7.023 1.918"/>
                <g data-name="그룹 680" style="mix-blend-mode:multiply;isolation:isolate">
                    <g data-name="그룹 679">
                        <g data-name="그룹 678" style="clip-path:url(#zt9e7b3ycA)" transform="translate(88.941 102.05)">
                            <path data-name="패스 4428" d="M111.926 130.212c.974 1.237 3.159 2.076 5.5 2.064 4.985-.026 7.7-1.5 12.966-4.136l-5.762 4.188-5.771 1.942-3.831-.315a4.233 4.233 0 0 1-2.9-2.2c-.537-1.14-.305-.086-.2-1.542" transform="translate(-111.785 -128.139)" style="fill:#f3c200"/>
                        </g>
                    </g>
                </g>
                <path data-name="패스 4429" d="M168.833 146.11H.825l6.8 60.758h305.09l6.8-60.758z" transform="translate(-.169 -29.748)" style="fill:#474747"/>
                <path data-name="패스 4430" d="M312.547 177.778H7.453a.658.658 0 0 1-.652-.583L0 116.434a.657.657 0 0 1 .652-.73h318.691a.657.657 0 0 1 .652.73l-6.8 60.761a.658.658 0 0 1-.652.583M8.04 176.464h303.92l6.649-59.446H1.391z"/>
                <path data-name="패스 4431" d="M317.36 137.479H2.977l-2.151 6.874h318.686z" transform="translate(-.169 -27.992)" style="fill:#474747"/>
                <path data-name="패스 4432" d="M319.343 117.017H.656a.656.656 0 0 1-.627-.853l2.152-6.873a.657.657 0 0 1 .627-.46H317.19a.656.656 0 0 1 .626.46l2.152 6.873a.655.655 0 0 1-.626.853M1.55 115.703h316.9l-1.741-5.558H3.291z"/>
                <path data-name="패스 4433" d="m315.28 84.012 1.214-.815 1.956.935.957 2.552 1.323 3.9-.224 1.558-2.271.626-1.85-.628-1.851-3.57v-3.98z" transform="translate(-64.276 -16.939)" style="fill:#f3c200"/>
                <path data-name="패스 4434" d="M253.745 76.597c-1.624 0-2.8-1.265-3.877-4.055a5.454 5.454 0 0 1 .62-5.594.656.656 0 0 1 .9-.954l.471.428a.66.66 0 0 1 .22.5.669.669 0 0 1-.242.492c-.076.063-1.9 1.65-.742 4.653 1.328 3.449 2.336 3.435 3.513 3.058a.668.668 0 0 1 .11-.024 2.466 2.466 0 0 0 2.195-2.406c0-2.244-.356-4.816-2.979-6.866a5.985 5.985 0 0 0-6.081-1.078.656.656 0 0 1-.566-1.184 7.269 7.269 0 0 1 7.458 1.226 9.241 9.241 0 0 1 3.482 7.9 3.75 3.75 0 0 1-3.271 3.7 4.108 4.108 0 0 1-1.211.2"/>
                <g data-name="그룹 683" style="mix-blend-mode:multiply;isolation:isolate">
                    <g data-name="그룹 682">
                        <g data-name="그룹 681" style="clip-path:url(#bvnaig5ogB)" transform="translate(251.29 70.863)">
                            <path data-name="패스 4435" d="M315.831 91.684a4.272 4.272 0 0 0 2.668.289c1.382-.352 3.679-1.73 3.6-2.993l-.361 2.885-1.167 1.807-2.07.388-1.418-.145z" transform="translate(-315.831 -88.98)" style="fill:#f3c200"/>
                        </g>
                    </g>
                </g>
            </g>
        </g>
    </g>
</svg>
