<svg xmlns="http://www.w3.org/2000/svg" width="41" height="27.668" viewBox="0 0 41 27.668">
    <path data-name="합치기 28" d="M5527.645 7483.348c1.447.272 3.028.494 4.7.663a5.372 5.372 0 0 0 2.609 3.251 81.213 81.213 0 0 0 10.1 0 5.373 5.373 0 0 0 2.609-3.251 56.55 56.55 0 0 0 4.7-.663 13.334 13.334 0 0 1-24.711 0zm9.6-.134q-.965-.031-1.9-.086a69.797 69.797 0 0 1-3.127-.253q-.9-.094-1.749-.207a47.569 47.569 0 0 1-3.188-.531c-.021 0-.04-.008-.061-.013a33.181 33.181 0 0 1-2.021-.477 18.665 18.665 0 0 1-2.782-.964c-1.54-.7-2.413-1.5-2.413-2.35 0-1.524 2.806-2.886 7.216-3.789a13.333 13.333 0 0 1 25.567 0c4.409.9 7.217 2.265 7.217 3.789a1.423 1.423 0 0 1-.229.751 3.781 3.781 0 0 1-1.342 1.167q-.187.111-.4.219c-.2.1-.421.2-.649.3a17.625 17.625 0 0 1-1.945.7 29.487 29.487 0 0 1-2.651.656c-.266.055-.537.109-.817.159a51.36 51.36 0 0 1-2.432.385 61.58 61.58 0 0 1-2.658.296c-.7.063-1.411.115-2.14.158q-.97.059-1.975.092-1.356.048-2.762.048t-2.764-.05zm-2.289-13.807a86.971 86.971 0 0 0-5.207 8.927 5.858 5.858 0 0 0 .271 1.773q1.107.176 2.367.312.665.07 1.364.13c1.516.127 3.153.209 4.867.237.458.007.919.012 1.388.012s.93 0 1.387-.012c1.7-.028 3.319-.108 4.823-.233q.682-.059 1.33-.126a50.34 50.34 0 0 0 2.445-.319 5.858 5.858 0 0 0 .271-1.773 8.081 8.081 0 0 0-10.262-9.085 4.393 4.393 0 0 0-2.273-.6 5.659 5.659 0 0 0-2.776.757z" transform="translate(-5519.501 -7464.5)" style="fill:#fff;stroke:transparent;stroke-miterlimit:10"/>
</svg>
