<svg xmlns="http://www.w3.org/2000/svg" width="9.998" height="29.994" viewBox="0 0 9.998 29.994">
    <g style="fill:#fcfcfc;stroke-linecap:round;stroke-linejoin:round;stroke-miterlimit:10">
        <path d="M6183.998 10139.498c-2.48 0-4.498-1.64-4.498-3.655v-1.345h.5l7.996.002h.5v1.343c0 2.015-2.018 3.655-4.498 3.655zm1.574-5.247h-3.15v-.5l.002-10.751v-.229l.174-.15 1.081-.933.329-.284.327.285 1.068.934.171.15v.227l-.002 10.751v.5zm2.926-.005H6185.771v-.5l.002-10.65v-.31l.278-.138 1.725-.854.722-.357v12.809zm-6.272-.003h-2.726v-12.86l.729.373 1.727.886.272.14v.305l-.002 10.656v.5zm3.463-11.634-.252-.22-1.249-1.091a.274.274 0 0 0-.186-.069.26.26 0 0 0-.17.061l-.003.002-.002.002-1.26 1.092-.255.22-.3-.154-2.113-1.084-.399-.204.161-.419 1.595-4.156.123-.32h.344l4.547-.005h.344l.123.32 1.613 4.2.163.426-.408.202-2.116 1.049-.3.148zm-4.235-6.538.26-.68 1.728-4.506a.595.595 0 0 1 1.103-.015l.003.007.003.008 1.728 4.504.26.677-.726.001-3.631.003-.728.001z" style="stroke:none" transform="translate(-6179 -10110.004)"/>
        <path d="M6183.998 10138.998c2.209 0 3.998-1.413 3.998-3.155v-.843l-7.996-.002v.845c0 1.742 1.79 3.155 3.998 3.155m1.074-5.247.002-10.751-1.068-.934-1.082.934-.002 10.751h2.15m2.926-.005v-11.504l-1.725.855-.002 10.65h1.727m-6.272-.004.002-10.656-1.728-.886v11.542h1.726m4.04-11.73 2.117-1.05-1.612-4.2-4.548.006-1.595 4.155 2.112 1.084 1.259-1.092a.78.78 0 0 1 1.018.005l1.25 1.092m-3.586-6.443 3.632-.003-1.729-4.504c-.032-.077-.144-.078-.175 0l-1.728 4.507m1.817 24.428c-1.292 0-2.516-.404-3.447-1.14-1-.789-1.55-1.86-1.55-3.015v-.845c0-.23.078-.45.22-.627a1 1 0 0 1-.22-.628v-11.542a1 1 0 0 1 .3-.715 1 1 0 0 1-.107-.92l1.596-4.156a.999.999 0 0 1 .445-.514c-.075-.22-.072-.461.013-.684l1.728-4.507a1.085 1.085 0 0 1 1.02-.701c.442 0 .839.264 1.01.673.005.009.008.018.012.028l1.728 4.504a1 1 0 0 1 .013.682c.2.112.36.29.445.514l1.613 4.2c.122.32.07.666-.112.93.185.185.293.439.293.707v11.504a.996.996 0 0 1-.222.629c.138.17.22.389.22.625v.843c0 1.155-.551 2.226-1.551 3.015-.93.736-2.155 1.14-3.447 1.14z" style="fill:#f6c34b;stroke:none" transform="translate(-6179 -10110.004)"/>
    </g>
</svg>
