<svg xmlns="http://www.w3.org/2000/svg" width="24" height="16.999" viewBox="0 0 24 16.999">
    <g style="fill:#fff;stroke-linecap:round;stroke-linejoin:round;stroke-miterlimit:10">
        <path d="M5993.999 10129.808c-2.979 0-5.787-.308-7.905-.867-2.385-.629-3.594-1.481-3.594-2.533 0-1.09 1.304-1.964 3.878-2.597l.313-.078v-.048c.002-.101.004-.214.014-.335v-.007l.001-.008c.014-.13.034-.264.053-.395l.004-.022.12-.81.04.028.026-.098c.57-2.059 2.072-4.518 4.615-5.525l.068-.516c.103-.79.502-1.425 1.153-1.834a2.306 2.306 0 0 1 1.215-.354c.42 0 .84.122 1.211.352.652.41 1.05 1.043 1.156 1.834l.069.517c2.55 1.01 4.053 3.477 4.62 5.54l.025.094.035-.024.122.8.002.015c.02.134.042.273.053.408.012.135.014.26.015.37v.018l.313.078c2.573.632 3.879 1.506 3.879 2.597 0 1.053-1.21 1.905-3.595 2.533-2.119.559-4.926.867-7.906.867z" style="stroke:none" transform="translate(-5982 -10113.309)"/>
        <path d="M5993.999 10129.308c6.074 0 11-1.3 11-2.9 0-.834-1.35-1.584-3.498-2.112-.04.337-.114.644-.243.89-.896 1.709-4.783 1.962-7.02 1.962h-.478c-2.236 0-6.122-.253-7.02-1.961-.129-.247-.201-.554-.242-.891-2.146.528-3.498 1.278-3.498 2.112 0 1.6 4.925 2.9 10.999 2.9m.24-2.898c1.092 0 5.602-.09 6.381-1.573.094-.18.148-.425.173-.704.011-.113.015-.237.015-.368-.001-.12-.001-.244-.013-.376-.01-.123-.03-.256-.051-.391a3.288 3.288 0 0 1-.5.291 5.75 5.75 0 0 1-.655.264c-.285.093-.595.17-.91.238-1.725.373-3.749.403-4.47.403h-.513c-.778 0-2.716-.044-4.376-.403a8.245 8.245 0 0 1-.894-.243 5.884 5.884 0 0 1-.669-.259 3.373 3.373 0 0 1-.5-.298c-.02.135-.04.27-.054.398-.01.132-.01.257-.013.376 0 .13.005.255.016.368.025.28.08.524.175.704.776 1.483 5.286 1.573 6.38 1.573h.478m-.571-2.954c.12 0 .228-.002.327-.004l.314.001c.744 0 1.858-.045 2.951-.176l.054-.005c-.015-.12-.035-.238-.051-.359-.476-3.186-1.708-6.296-3.263-6.296-1.544 0-2.783 3.13-3.261 6.296-.019.12-.038.238-.053.358l.06.004c1.083.133 2.184.181 2.922.181m4.363-.289c.204-.034.4-.072.594-.114.877-.194 1.614-.473 1.948-.867-.569-2.072-2.147-4.574-4.79-5.373 1.23 1.403 1.926 4.102 2.223 6.17.007.058.018.122.025.184m-8.063-.002c.007-.06.018-.124.026-.185.292-2.04 1-4.762 2.236-6.17-2.646.794-4.226 3.29-4.799 5.362.328.403 1.068.684 1.95.879.192.042.386.08.587.114m5.904-7.103c-.103-.773-.512-1.217-.924-1.476a1.756 1.756 0 0 0-1.897 0c-.412.259-.822.703-.924 1.476a6.892 6.892 0 0 1 1.872-.252c.684 0 1.305.092 1.873.252m-1.873 14.246c-3.021 0-5.874-.314-8.032-.883-2.633-.694-3.967-1.71-3.967-3.017 0-1.342 1.414-2.374 4.204-3.07l.002-.026.003-.03c.015-.14.036-.28.056-.415l.003-.022a.993.993 0 0 1 .188-.451 1.003 1.003 0 0 1 .011-.489c.584-2.11 2.102-4.622 4.664-5.753a1.044 1.044 0 0 1 .005-.22c.123-.944.601-1.702 1.383-2.193.002 0 .003-.002.005-.003.451-.28.961-.427 1.476-.427.514 0 1.024.147 1.475.427l.005.003c.779.49 1.257 1.247 1.383 2.19.01.074.011.148.005.221 2.57 1.134 4.089 3.655 4.67 5.77.044.161.046.327.01.485.096.128.16.28.184.443l.002.013c.022.143.044.29.058.44l.002.038c2.791.694 4.206 1.727 4.206 3.07 0 1.307-1.335 2.322-3.968 3.016-2.159.57-5.012.883-8.033.883z" style="fill:#f6c34b;stroke:none" transform="translate(-5982 -10113.309)"/>
    </g>
</svg>
