<svg xmlns="http://www.w3.org/2000/svg" width="17" height="19" viewBox="0 0 17 19">
    <g style="fill:#fff;stroke-miterlimit:10">
        <path d="M5997.802 10155a2.33 2.33 0 0 1-2.327-2.327v-13.346a2.33 2.33 0 0 1 3.506-2.007l11.346 6.674a2.303 2.303 0 0 1 1.148 2.005c0 .835-.43 1.586-1.148 2.009l-11.347 6.67a2.3 2.3 0 0 1-1.178.322zm-.197-14.688 10.801 6.348.842-.494a.192.192 0 0 0-.002-.336l-11.344-6.67a.193.193 0 0 0-.1-.03.197.197 0 0 0-.197.197v.986z" style="stroke:none" transform="translate(-5994.975 -10136.5)"/>
        <path d="M5997.802 10154.5c.328 0 .647-.087.925-.253l11.347-6.67c.565-.333.901-.924.901-1.578 0-.653-.336-1.242-.901-1.574l-11.347-6.674a1.83 1.83 0 0 0-2.752 1.576v13.346c0 1.008.82 1.827 1.827 1.827m0-15.87a.7.7 0 0 1 .354.1l11.345 6.67a.693.693 0 0 1 0 1.197l-1.095.643-11.301-6.641v-1.272c0-.384.312-.696.697-.696m0 16.869a2.83 2.83 0 0 1-2.827-2.827v-13.346a2.83 2.83 0 0 1 4.26-2.437l11.346 6.673a2.8 2.8 0 0 1 1.394 2.436 2.802 2.802 0 0 1-1.395 2.44l-11.343 6.668a2.804 2.804 0 0 1-1.435.393zm.303-15.474 10.301 6.054.14-.082-10.441-6.139v.167z" style="fill:#f6c34b;stroke:none" transform="translate(-5994.975 -10136.5)"/>
    </g>
</svg>
