<svg xmlns="http://www.w3.org/2000/svg" width="13" height="28" viewBox="0 0 13 28">
    <g style="fill:#fff;stroke-miterlimit:10">
        <path d="M6541.5 10321.251c-.923 0-1.702-.616-1.812-1.433l-.075-.566h.43c-.338 0-.67-.142-.91-.388a1.268 1.268 0 0 1-.368-.824l-.52-12.267-.016-.357a1.193 1.193 0 0 1-.505-.257l-.002-.002-.003-.002a1.158 1.158 0 0 1-.405-.872v-.122c0-.312.13-.616.359-.835l.015-.013.015-.013a.51.51 0 0 1 .048-.035.717.717 0 0 1 .074-.056 5.206 5.206 0 0 1-1.257-1.985l-.15-.428a1.383 1.383 0 0 1-.752-.668 1.367 1.367 0 0 1-.168-.64c0-.213.055-.422.168-.64.163-.313.428-.546.746-.664l.156-.442a5.241 5.241 0 0 1 4.932-3.491 5.246 5.246 0 0 1 4.931 3.491l.158.445c.316.12.58.351.741.664.112.21.169.425.169.637 0 .214-.055.424-.168.64-.164.315-.43.548-.747.666l-.153.432a5.247 5.247 0 0 1-1.26 1.984 1 1 0 0 1 .064.048.615.615 0 0 1 .089.07c.228.218.36.52.36.833v.122c0 .333-.15.65-.41.873-.153.132-.327.221-.511.262l-.015.355-.519 12.262a1.269 1.269 0 0 1-.371.832 1.268 1.268 0 0 1-.908.385h.44l-.076.566c-.11.817-.89 1.433-1.814 1.433z" style="stroke:none" transform="translate(-6534.998 -10293.751)"/>
        <path d="M6541.5 10320.751c.686 0 1.243-.438 1.318-.999h-2.634c.075.561.632.999 1.316.999m1.45-1.999a.776.776 0 0 0 .554-.238.761.761 0 0 0 .226-.5l.518-12.262h-5.504l.52 12.262c.01.196.096.37.226.5.14.144.337.238.554.238h2.906m1.575-13.809a.644.644 0 0 0 .422-.166.646.646 0 0 0 .236-.494v-.122a.649.649 0 0 0-.207-.474c-.01-.01-.026-.018-.039-.028a.648.648 0 0 0-.412-.158h-6.053c-.158 0-.3.064-.414.158-.011.01-.026.018-.04.029a.655.655 0 0 0-.204.473v.122c0 .2.093.373.233.494a.658.658 0 0 0 .425.166h6.053m.293-2.088a4.71 4.71 0 0 0 1.142-1.796h-8.92c.24.686.631 1.3 1.14 1.796a1.39 1.39 0 0 1 .295-.033h6.05c.101 0 .2.013.293.033m1.28-2.465c.017 0 .03-.01.048-.01a.886.886 0 0 0 .741-.482.881.881 0 0 0 .112-.41.866.866 0 0 0-.112-.406.887.887 0 0 0-.74-.484c-.019 0-.032-.011-.05-.011h-9.198c-.018 0-.033.01-.048.01a.885.885 0 0 0-.741.482.888.888 0 0 0-.112.41c0 .15.047.284.112.41a.885.885 0 0 0 .74.48c.016 0 .031.01.05.01h9.197m-.137-2.48a4.735 4.735 0 0 0-4.46-3.158 4.73 4.73 0 0 0-4.46 3.158h8.92m-4.46 23.842c-1.173 0-2.165-.803-2.307-1.866l-.051-.383a1.785 1.785 0 0 1-.366-.288 1.762 1.762 0 0 1-.51-1.149v-.01l-.522-12.286a1.752 1.752 0 0 1-.343-.228l-.01-.008a1.658 1.658 0 0 1-.577-1.25v-.122c0-.348.112-.687.315-.968a5.738 5.738 0 0 1-1.033-1.803l-.08-.226a1.887 1.887 0 0 1-.794-.806 1.855 1.855 0 0 1-.224-.87c0-.29.076-.584.225-.87.18-.35.457-.626.789-.802l.085-.24a5.74 5.74 0 0 1 5.403-3.825c2.42 0 4.59 1.537 5.402 3.824l.087.245c.33.177.604.451.784.8.15.281.226.574.226.868 0 .296-.074.581-.225.871-.181.351-.458.626-.79.803l-.082.23a5.788 5.788 0 0 1-1.034 1.802c.202.28.315.62.315.967v.122c0 .48-.213.936-.584 1.253a1.703 1.703 0 0 1-.351.235v.023l-.52 12.271a1.764 1.764 0 0 1-.513 1.153 1.83 1.83 0 0 1-.354.28l-.051.387c-.143 1.063-1.136 1.866-2.31 1.866z" style="fill:#f6c34b;stroke:none" transform="translate(-6534.998 -10293.751)"/>
    </g>
</svg>
