<svg xmlns="http://www.w3.org/2000/svg" xmlns:xlink="http://www.w3.org/1999/xlink" width="61.255" height="53.706" viewBox="0 0 61.255 53.706">
  <defs>
    <clipPath id="clip-path">
      <rect id="사각형_2443" data-name="사각형 2443" width="59.929" height="41.416" fill="none"/>
    </clipPath>
  </defs>
  <g id="책3" transform="translate(-91.873 -137.303)">
    <g id="그룹_1307" data-name="그룹 1307" transform="translate(93.199 149.592)" opacity="0.2">
      <g id="그룹_1306" data-name="그룹 1306">
        <g id="그룹_1305" data-name="그룹 1305" clip-path="url(#clip-path)">
          <path id="패스_5274" data-name="패스 5274" d="M224.527,298.931l-31.067,8.316a1.416,1.416,0,0,1-1.48-.493L165.649,273.2l32.876-7.322,26.7,30.756a1.415,1.415,0,0,1-.7,2.3" transform="translate(-165.648 -265.879)"/>
        </g>
      </g>
    </g>
    <path id="패스_5275" data-name="패스 5275" d="M220.92,293.309l-30.35,8.022-24.921-31.551.051-10.1,55.226,23.3Z" transform="translate(-72.45 -113.577)" fill="#fff"/>
    <path id="패스_5276" data-name="패스 5276" d="M190.2,300.628l-25.4-30.671V259.682l25.4,30.671Z" transform="translate(-72.077 -113.577)" fill="#dd3363"/>
    <path id="패스_5277" data-name="패스 5277" d="M189.541,300.815a.845.845,0,0,1-.65-.306l-25.4-30.671a.843.843,0,0,1-.194-.538V259.025a.844.844,0,0,1,1.494-.538l25.4,30.671a.844.844,0,0,1,.194.538v10.276a.843.843,0,0,1-.558.794.855.855,0,0,1-.286.05M164.984,269,188.7,297.629V290l-23.713-28.632Z" transform="translate(-71.42 -112.92)"/>
    <path id="패스_5278" data-name="패스 5278" d="M220.965,276.8l-30.356,7.98-24.871-31.281,30.347-7.959Z" transform="translate(-72.489 -107.389)" fill="#fb4273"/>
    <path id="패스_5279" data-name="패스 5279" d="M189.954,284.964a.844.844,0,0,1-.661-.318l-24.871-31.281a.844.844,0,0,1,.447-1.341l30.346-7.959a.846.846,0,0,1,.874.291l24.88,31.26a.845.845,0,0,1-.446,1.342l-30.356,7.98a.844.844,0,0,1-.214.027m-23.4-31.637,23.722,29.837,28.571-7.511-23.731-29.817Z" transform="translate(-71.833 -106.734)"/>
    <path id="패스_5280" data-name="패스 5280" d="M189.539,301.519a.845.845,0,0,1-.661-.318l-24.871-31.292a.852.852,0,0,1-.168-.363l-.051-.259a26.217,26.217,0,0,1,.053-10.432.844.844,0,0,1,1.652.343,24.542,24.542,0,0,0-.049,9.764l.011.057,22.915,28.832a34.079,34.079,0,0,1,.334-7.664.844.844,0,1,1,1.667.263,32.408,32.408,0,0,0-.044,9.795l.046.308a.844.844,0,0,1-.834.968" transform="translate(-71.418 -112.919)"/>
    <path id="패스_5281" data-name="패스 5281" d="M209.286,319.632a.844.844,0,0,1-.215-1.66l29.721-7.857V300.44a.844.844,0,1,1,1.688,0v10.326a.843.843,0,0,1-.628.816L209.5,319.6a.841.841,0,0,1-.216.028" transform="translate(-91.166 -131.034)"/>
    <path id="패스_5282" data-name="패스 5282" d="M218.021,314.986a.563.563,0,0,1-.142-1.107l23.051-5.985a.563.563,0,0,1,.284,1.089l-23.051,5.985a.572.572,0,0,1-.142.018" transform="translate(-95.109 -134.655)"/>
    <path id="패스_5283" data-name="패스 5283" d="M233.667,318.018a.563.563,0,0,1-.141-1.107l14.248-3.7a.563.563,0,0,1,.283,1.089L233.809,318a.563.563,0,0,1-.142.018" transform="translate(-101.952 -136.98)"/>
  </g>
</svg>
