<svg xmlns="http://www.w3.org/2000/svg" xmlns:xlink="http://www.w3.org/1999/xlink" width="53.78" height="43.376" viewBox="0 0 53.78 43.376">
  <defs>
    <clipPath id="clip-path">
      <rect id="사각형_2442" data-name="사각형 2442" width="53.495" height="30.062" fill="none"/>
    </clipPath>
  </defs>
  <g id="책1" transform="translate(-17.918 -133.007)">
    <g id="그룹_1304" data-name="그룹 1304" transform="translate(18.203 146.321)" opacity="0.2">
      <g id="그룹_1303" data-name="그룹 1303">
        <g id="그룹_1302" data-name="그룹 1302" clip-path="url(#clip-path)">
          <path id="패스_5262" data-name="패스 5262" d="M85.525,261.665l-17.74,27.851a2.581,2.581,0,0,1-1.668.612l-33.236-.305a.528.528,0,0,1-.333-.938l21.246-28.43L85,260.065a.909.909,0,0,1,.523,1.6" transform="translate(-32.352 -260.065)"/>
        </g>
      </g>
    </g>
    <path id="패스_5263" data-name="패스 5263" d="M36.207,265.448H34.284l-.466,1.495-.466,4.759.466,3.875.962,2.356s11.064.036,11.275,0,19.1.024,19.1.024l17.2-26.18.915-1.659V239.487l-.823-.3-17.3,26.261Z" transform="translate(-14.587 -104.613)" fill="#fff"/>
    <path id="패스_5264" data-name="패스 5264" d="M34.134,277.623l31.017.565L83.265,251.2V239.72L65.138,265.68l-31,.608a20.563,20.563,0,0,0,0,11.334" transform="translate(-14.581 -104.846)" fill="#eaeaea"/>
    <path id="패스_5265" data-name="패스 5265" d="M121.421,250.6a.844.844,0,0,1-.844-.844V237.246a.844.844,0,0,1,1.688,0v12.508a.844.844,0,0,1-.844.844" transform="translate(-52.736 -103.395)"/>
    <path id="패스_5266" data-name="패스 5266" d="M65.656,293.711h-27.2a.563.563,0,0,1,0-1.125h27.2a.563.563,0,1,1,0,1.125" transform="translate(-16.573 -127.968)"/>
    <path id="패스_5267" data-name="패스 5267" d="M65.656,300.494h-27.2a.563.563,0,1,1,0-1.125h27.2a.563.563,0,1,1,0,1.125" transform="translate(-16.573 -130.934)"/>
    <path id="패스_5268" data-name="패스 5268" d="M93.409,272.956a.563.563,0,0,1-.468-.874l13.167-19.806a.563.563,0,1,1,.937.623L93.878,272.705a.562.562,0,0,1-.469.251" transform="translate(-40.608 -110.227)"/>
    <path id="패스_5269" data-name="패스 5269" d="M93.409,279.677a.563.563,0,0,1-.468-.874L106.108,259a.563.563,0,1,1,.937.623L93.878,279.426a.562.562,0,0,1-.469.251" transform="translate(-40.608 -113.167)"/>
    <path id="패스_5270" data-name="패스 5270" d="M65.865,264.886,83.978,237.9H53.1s-18.872,27.123-18.113,26.984,30.86,0,30.86,0Z" transform="translate(-15.294 -104.05)" fill="#4a72b5"/>
    <path id="패스_5271" data-name="패스 5271" d="M34.307,265.078a.835.835,0,0,1-.7-.4c-.41-.637-.5-.769,8.964-14.6,4.521-6.611,9.139-13.25,9.185-13.316a.845.845,0,0,1,.693-.362H83.324a.844.844,0,0,1,.7,1.314L65.911,264.7a.844.844,0,0,1-.7.374H65.2c-11.85-.055-29.813-.1-30.745-.008a.841.841,0,0,1-.145.013m30.9-.849h0Zm-21.81-.906c7.27,0,16.894.039,21.361.06l16.98-25.294H52.891c-6.107,8.782-14.779,21.411-17.16,25.264,1.637-.021,4.418-.029,7.669-.029" transform="translate(-14.64 -103.394)"/>
    <path id="패스_5272" data-name="패스 5272" d="M89.226,287.3a.834.834,0,0,1-.469-.143.843.843,0,0,1-.231-1.171l18.113-26.984a.844.844,0,0,1,1.4.941L89.927,286.931a.842.842,0,0,1-.7.374" transform="translate(-38.656 -113.118)"/>
    <path id="패스_5273" data-name="패스 5273" d="M64.5,298.558H33.625a.844.844,0,0,1-.815-.627c-2.149-8.074-.044-12.872.047-13.073a.844.844,0,1,1,1.538.7c-.018.04-1.827,4.247-.113,11.316H64.5a.844.844,0,1,1,0,1.688" transform="translate(-13.929 -124.371)"/>
  </g>
</svg>
