<svg xmlns="http://www.w3.org/2000/svg" width="173.667" height="120.001" viewBox="0 0 173.667 120.001">
    <defs>
        <clipPath id="m7riz03sqa">
            <path data-name="사각형 2985" style="fill:none" d="M0 0h50v53H0z"/>
        </clipPath>
        <clipPath id="5qdlgg7leb">
            <path data-name="사각형 1980" style="fill:none" d="M0 0h125.001v66.667H0z"/>
        </clipPath>
    </defs>
    <g data-name="그룹 2256" style="clip-path:url(#m7riz03sqa)" transform="translate(123.667 .001)">
        <path data-name="패스 6572" d="m15.608 1.915-2.447 1.139-2.832 2.076-2.493 2.732-1.465 2.363-.916 2.493-.155 2.45.529 2.179 1.1 1.6-.939-.266-.912-.1-.642.176-.611.412-.621.671-1.148 2.46-.462 1.935-.372 2.565.1 3.339.426 2.536.569 1.184.91.553 1.133.209-.877 1.161-.541 1.318.158 1.931.632 2.8 1.465 1.9 1.21.95h.969l.946-.225-.161 1.074.645 1.519.754 1.192 2.175 1.6 1.984.727 2.427.339 1.495-.27.681-.514.263 1.1.564.722.966.705 1.879.636 2.063.361h3.135s2.454-.308 2.483-.317 1.222-.794 1.222-.794l.711-1.872.866.961 1.238.234 1.316-.017 2.823-.355 2.91-1.316 1.506-1.551 1.083-1.539.38-1.29-.207-1.7-.023-.478 1.08.372 1.253-.373 1.029-.5 1.3-1.226L49.565 40l1.119-3.6-.217-2.446-.339-1.86-.619-1.649-.638-1.075-.961-.87.3-1.086.4-1.3.342-2.448-.1-1.888-.621-1.594-.79-1.184-.339-.292-.041-.432.635-.728.281-1.757-.33-1.567-.883-1.844-1.364-1.387-1.389-1.2-1.291-.609-1.608.04-1.157.776-.141-.7-.289-1.629-1.182-1.842-1.672-1.242-2.853-1.247-2.425-.475-2.027-.065-1.752.577-.924 1.072-.468.805-.971-1.311-1.756-1.606-3.157-.975-2.609.026z" transform="translate(-.903 -1.007)" style="fill:#ffffe1"/>
        <path data-name="패스 6573" d="M64.475 58.192s-1.953 9.226 1.488 10.846 8.137 1.116 8.137 1.116a4.271 4.271 0 0 0 3.719-3 8.3 8.3 0 0 0 .037-4.926z" transform="translate(-47.301 -43.068)" style="fill:#e6e6c1"/>
        <path data-name="패스 6574" d="M80.346 184.8a10.512 10.512 0 0 1-5.861 1.917 13.258 13.258 0 0 1-6.454-2.064l-.284.822.366 1.826 1.677.944 3.045.806 4.691.181 2.658-.694.529-1.6z" transform="translate(-50.13 -136.662)" style="fill:#e1e1b9"/>
        <path data-name="패스 6575" d="M28.555 162.91a6.687 6.687 0 0 0 1.2 2.867 7.106 7.106 0 0 0 6.491 2.712 6.944 6.944 0 0 0 2.8-1.007l-1.086 2.883-1.339.354-4.4-.755-2.821-2.12a4.8 4.8 0 0 1-1.369-2.993l.527-1.941" transform="translate(-20.739 -120.571)" style="fill:#e1e1b9"/>
        <path data-name="패스 6576" d="M18.549 162.146a4.87 4.87 0 0 1-4.042-.268l1.375 1.336.811.18 1.009-.121z" transform="translate(-10.734 -119.807)" style="fill:#e1e1b9"/>
        <path data-name="패스 6577" d="M11.759 126.107s-2.824 2.529-2.978 3.73v-1.692l.779-1.106.394-.722z" transform="translate(-6.496 -93.333)" style="fill:#e1e1b9"/>
        <path data-name="패스 6578" d="M14.892 70.251s-4.755 1.374-8.492.279l1.26-2.037 1.586-.542z" transform="translate(-4.734 -50.29)" style="fill:#e6e6c1"/>
        <path data-name="패스 6579" d="M128.025 160.313a7.177 7.177 0 0 1-.926 3.857s-2.263 3.873-8.005 3.543a3.1 3.1 0 0 1-1.354-.358 3.065 3.065 0 0 1-1.075-1 3.32 3.32 0 0 0 .349 1.985 3.273 3.273 0 0 0 1.034 1.155l2.386.023 2.157-.271 2.4-1.139 2.685-1.811 1.463-2.448-.207-2.084-.9-1.455" transform="translate(-86.307 -118.649)" style="fill:#e1e1b9"/>
        <path data-name="패스 6580" d="M169.3 126.781a10.218 10.218 0 0 1-7.49 8.715l.525.977h1.709l2.148-.859 1.54-1.316 1.766-4.115-.2-3.4" transform="translate(-119.739 -93.831)" style="fill:#e1e1b9"/>
        <path data-name="패스 6581" d="M174.84 94.654a4.593 4.593 0 0 1-2.94 2.516s1.259-.071 1.265-.1 1.018.257 1.018.257z" transform="translate(-127.199 -70.054)" style="fill:#e1e1b9"/>
        <path data-name="패스 6582" d="M174.353 73.669a14.727 14.727 0 0 0-3.576-5.284l1.794-.137 1.129 1.479.653 3.943" transform="translate(-126.372 -50.51)" style="fill:#e1e1b9"/>
        <path data-name="패스 6583" d="M153.176 34.669a6.314 6.314 0 0 0-5.081-1.334 5.931 5.931 0 0 0-3.072 1.742l1.344-2.749 1.526-.847 1.239.034 4.044 3.155" transform="translate(-107.314 -23.299)" style="fill:#e6e6c1"/>
        <path data-name="패스 6584" d="M105.919 7.845a6.651 6.651 0 0 0-5.609 1.494 6.263 6.263 0 0 0-1.886 3.736l-1.05-3.653 1.392-1.874 2.024-.608 5.129.9" transform="translate(-72.054 -5.136)" style="fill:#e6e6c1"/>
        <path data-name="패스 6585" d="M79.677 41.842a14.463 14.463 0 0 0-7.693-2.377c-2.057-.058-5.269-.126-6.438 1.962-.93 1.66-1.7 7.2-.123 10.76s10.038 2.929 11.248 1.922 1.66-2.063 1.426-5.62" transform="translate(-47.741 -29.193)" style="fill:#ffffe6"/>
        <path data-name="패스 6586" d="M24.562 26.025a15.046 15.046 0 0 1-3.369-.36c-1.953-.457-3.268-1.336-3.8-2.542-1.63-3.683-.827-9.323.136-11.044 1.275-2.277 4.685-2.182 6.724-2.124a14.8 14.8 0 0 1 7.861 2.431.318.318 0 1 1-.354.527 14.17 14.17 0 0 0-7.524-2.324c-1.894-.052-5.064-.142-6.151 1.8-.931 1.664-1.6 7.1-.109 10.477.569 1.284 2.144 1.895 3.366 2.18 2.965.694 6.722.181 7.388-.373 1.113-.927 1.541-1.875 1.312-5.356a.318.318 0 0 1 .3-.338.312.312 0 0 1 .338.3c.246 3.735-.276 4.834-1.54 5.885-.574.478-2.453.864-4.571.864"/>
        <path data-name="패스 6587" d="M10.481 20.232a.317.317 0 0 1-.071-.008c-2.539-.583-6.016-1.382-6.353-6.319a9.008 9.008 0 0 1 .918-4.357A17.661 17.661 0 0 1 14.855.56a9.637 9.637 0 0 1 7.877.608c3.7 2.067 3.673 6.969 3.67 7.176a.315.315 0 0 1-.322.313.318.318 0 0 1-.314-.321c0-.047.018-4.733-3.344-6.614a9.019 9.019 0 0 0-7.37-.558 16.988 16.988 0 0 0-9.5 8.649 8.387 8.387 0 0 0-.862 4.049C4.973 18 7.403 18.881 10.552 19.6a.318.318 0 0 1-.071.627"/>
        <path data-name="패스 6588" d="M3.391 33.3a2.78 2.78 0 0 1-1.7-.527c-1.9-1.409-1.819-5.282-1.536-8.5a12.227 12.227 0 0 1 2.247-5.944 2.468 2.468 0 0 1 3.127-.778c.631.325 1.36.679 1.367.682a.318.318 0 0 1-.277.572c-.007 0-.743-.36-1.381-.689a1.829 1.829 0 0 0-2.317.581 11.59 11.59 0 0 0-2.134 5.631c-.247 2.815-.382 6.7 1.282 7.934.728.54 1.793.536 3.166-.015a.318.318 0 1 1 .237.59 5.673 5.673 0 0 1-2.08.463"/>
        <path data-name="패스 6589" d="M6.148 43.995a2.151 2.151 0 0 1-.3-.021c-.847-.117-2.442-.854-3.608-4.472-1.714-5.325 1.216-6.764 1.342-6.822a.318.318 0 0 1 .271.575c-.107.052-2.539 1.293-1.007 6.052 1.1 3.41 2.526 3.959 3.089 4.037a1.249 1.249 0 0 0 1.213-.458.318.318 0 0 1 .53.351 1.85 1.85 0 0 1-1.534.757"/>
        <path data-name="패스 6590" d="M15.374 50.374a11.911 11.911 0 0 1-4.387-1.075c-2.388-1.092-3.889-2.96-4.014-5-.153-2.473 1.806-2.674 1.826-2.676a.313.313 0 0 1 .345.288.318.318 0 0 1-.287.344c-.141.015-1.361.194-1.25 2s1.473 3.469 3.645 4.461c1.388.634 4.079 1.408 5.393.787a1.152 1.152 0 0 0 .665-.778.318.318 0 0 1 .615.162 1.775 1.775 0 0 1-1.008 1.19 3.636 3.636 0 0 1-1.542.291"/>
        <path data-name="패스 6591" d="M24.965 53.001c-2.114 0-4.595-.258-6.159-1.181a2.922 2.922 0 0 1-1.457-1.87 4.7 4.7 0 0 1 .692-3.211.318.318 0 0 1 .533.346 4.119 4.119 0 0 0-.606 2.723 2.314 2.314 0 0 0 1.16 1.465c2.588 1.526 8.123 1.083 9.379.827a2.415 2.415 0 0 0 1.775-2.89.318.318 0 0 1 .63-.085 3.028 3.028 0 0 1-2.279 3.6 21.575 21.575 0 0 1-3.67.278"/>
        <path data-name="패스 6592" d="M33.754 51.324a13.616 13.616 0 0 1-2.061-.16c-1.142-.175-1.783-3.095-1.952-3.985a.318.318 0 0 1 .625-.119c.308 1.62.954 3.4 1.424 3.476a10.183 10.183 0 0 0 7.95-1.757c.97-.786 2.62-2.381 2.763-4.228a3.513 3.513 0 0 0-1.02-2.675.318.318 0 0 1 .471-.426 4.12 4.12 0 0 1 1.183 3.15c-.161 2.085-1.946 3.823-3 4.673a10.1 10.1 0 0 1-6.386 2.05"/>
        <path data-name="패스 6593" d="M43.825 43.131a3.42 3.42 0 0 1-1.693-.42.318.318 0 0 1 .343-.535c.084.052 2.033 1.231 4.376-1.18 2.578-2.653 3.19-6.326 1.768-10.622a4.205 4.205 0 0 0-2.032-2.7 2.825 2.825 0 0 0-2.075-.067.318.318 0 0 1-.248-.585 3.424 3.424 0 0 1 2.577.069 4.786 4.786 0 0 1 2.382 3.087c1.5 4.536.839 8.431-1.915 11.264a4.83 4.83 0 0 1-3.481 1.693"/>
        <path data-name="패스 6594" d="M47.006 27.853a.318.318 0 0 1-.293-.442c.027-.064 2.677-6.444-.967-9.741a.318.318 0 1 1 .427-.471c3.982 3.6 1.244 10.182 1.126 10.461a.318.318 0 0 1-.293.193"/>
        <path data-name="패스 6595" d="M44.987 18.021a2.127 2.127 0 0 1-.71-.122.318.318 0 1 1 .211-.6 1.562 1.562 0 0 0 1.3-.133 1.857 1.857 0 0 0 .9-1.217c.5-2.406-1.841-5.9-4.113-7.066a3.158 3.158 0 0 0-2.415-.281 1.843 1.843 0 0 0-1.1 1.037.318.318 0 0 1-.581-.258 2.487 2.487 0 0 1 1.47-1.379 3.8 3.8 0 0 1 2.917.315c2.482 1.277 5.017 5.024 4.444 7.761a2.5 2.5 0 0 1-1.21 1.64 2.263 2.263 0 0 1-1.113.3"/>
        <path data-name="패스 6596" d="M37.455 11.88a.318.318 0 0 1-.175-.583c.075-.05 1.761-1.215 1.2-4.046-.523-2.648-4.134-4.082-5.663-4.576-.041-.013-4.165-1.254-6.127.128a2.392 2.392 0 0 0-.982 2.032.313.313 0 0 1-.327.308.317.317 0 0 1-.308-.327 3.024 3.024 0 0 1 1.251-2.53c2.246-1.584 6.645-.228 6.689-.214 2.031.656 5.524 2.186 6.091 5.058.646 3.27-1.389 4.643-1.476 4.7a.316.316 0 0 1-.174.052"/>
        <path data-name="패스 6597" d="M29.001 28.405a.779.779 0 0 0-.779.778v.779a.779.779 0 0 0 1.557 0v-.779a.779.779 0 0 0-.779-.778"/>
        <path data-name="패스 6598" d="M29.006 31.098a1.138 1.138 0 0 1-1.137-1.136v-.778a1.137 1.137 0 0 1 2.274 0v.778a1.138 1.138 0 0 1-1.137 1.136m0-2.335a.421.421 0 0 0-.421.42v.778a.421.421 0 0 0 .842 0v-.778a.421.421 0 0 0-.421-.42"/>
        <path data-name="패스 6599" d="M20.439 28.405a.779.779 0 0 0-.779.778v.779a.779.779 0 0 0 1.557 0v-.779a.779.779 0 0 0-.779-.778"/>
        <path data-name="패스 6600" d="M20.439 31.098a1.138 1.138 0 0 1-1.137-1.136v-.778a1.137 1.137 0 0 1 2.274 0v.778a1.138 1.138 0 0 1-1.137 1.136m0-2.335a.421.421 0 0 0-.421.42v.778a.421.421 0 0 0 .842 0v-.778a.421.421 0 0 0-.421-.42"/>
        <path data-name="패스 6602" d="M81.106 128.953a4.9 4.9 0 0 1-4.9-4.9v-.075h9.8v.075a4.9 4.9 0 0 1-4.9 4.9" transform="translate(-56.389 -91.758)" style="fill:#ed8062"/>
        <path data-name="패스 6603" d="M24.716 37.514a5.225 5.225 0 0 1-5.22-5.218v-.075a.318.318 0 0 1 .318-.318h9.8a.318.318 0 0 1 .318.318v.075a5.225 5.225 0 0 1-5.22 5.218m-4.577-4.974a4.584 4.584 0 0 0 9.155 0z"/>
        <path data-name="패스 6607" d="M102.9 150.281s-.483 2.517.2 3.2c.941.946 2.865 1.888 7.044 1.733l-2.626-.781-1.836-.951-1.434-1.155-1.085-1.139z" transform="translate(-76.019 -111.224)" style="fill:#e6e6c1"/>
        <path data-name="패스 6608" d="M115.835 129.5a38.171 38.171 0 0 0-4.728-3.693c-1.94-1.108-3.14-1.646-5.529-.505-1.58.754-4.723 5.072-2.064 7.579a14.056 14.056 0 0 0 6.831 3.431" transform="translate(-75.835 -92.267)" style="fill:#ffffe6"/>
        <path data-name="패스 6609" d="M105.129 142.761a16.108 16.108 0 0 0 5.874 4.21l-4.57-1.554-2.261-1.878-.8-1.556.252-2.914c.544 2.54 1.185 3.329 1.5 3.691" transform="translate(-76.494 -102.927)" style="fill:#e6e6c1"/>
        <path data-name="패스 6610" d="M34.509 44.362a.324.324 0 0 1-.083-.011 14.324 14.324 0 0 1-6.967-3.507 3.613 3.613 0 0 1-1.074-3.33 7.285 7.285 0 0 1 3.22-4.766c2.549-1.217 3.874-.6 5.823.516a38.8 38.8 0 0 1 4.78 3.73.318.318 0 0 1-.42.477 38.3 38.3 0 0 0-4.676-3.656c-1.876-1.072-2.961-1.58-5.234-.494a6.77 6.77 0 0 0-2.866 4.291 2.965 2.965 0 0 0 .882 2.77 13.792 13.792 0 0 0 6.7 3.356.318.318 0 0 1-.082.624"/>
    </g>
    <path data-name="logo_bg" d="M33.128 82.564a47.143 47.143 0 0 0-1.9-5.519 140.39 140.39 0 0 1-8.712-2.134 78.8 78.8 0 0 1-12.056-4.339C3.789 67.428 0 63.826 0 60c0-6.858 12.166-12.986 31.271-17.053C38.349 18.119 60.464 0 86.666 0s48.318 18.119 55.4 42.946c19.1 4.067 31.271 10.2 31.271 17.053a6.527 6.527 0 0 1-1 3.377 16.61 16.61 0 0 1-5.812 5.256 35.43 35.43 0 0 1-1.735.983 47.37 47.37 0 0 1-2.808 1.354 74.927 74.927 0 0 1-8.437 3.137c-2.65.822-5.525 1.593-8.6 2.309-.939.217-1.9.429-2.877.638l-.856.18a101.045 101.045 0 0 0-1 5.329C131.616 104.515 110.889 120 86.666 120s-44.95-15.485-53.538-37.436z" style="fill:#5e25c7"/>
    <g data-name="그룹 408" style="clip-path:url(#5qdlgg7leb)" transform="translate(24.166 27.013)">
        <path data-name="패스 3415" d="M119.733 31.69c.1-.085.2-.167.287-.261s.2-.17.29-.265.2-.167.286-.261.2-.168.288-.263.2-.169.289-.263.2-.167.285-.26a4.246 4.246 0 0 0 1.478-3.18v-.057a4.254 4.254 0 0 0-1.249-3.03c.069-.068.139-.135.2-.209a4.127 4.127 0 0 0 .606-.909 3.694 3.694 0 0 0 .384-1.428l.01-.144c.011-.148.021-.3.022-.443.033-2.634.03-6.444-.006-8.861a4.158 4.158 0 0 0-4.075-4.108c-2.237-.052-7.518-.07-11.716-.07-5.273 0-9.737.027-11.651.069a4.375 4.375 0 0 0-2.488.84l-1.268-3.3-1.6-4.164a1.745 1.745 0 0 0-3.258 0l-1.6 4.163L83.9 8.823a4.236 4.236 0 0 0-2.321-.714C80.4 8.1 77.2 8.088 73.424 8.088c-2.912 0-6.531.005-7.955.02a4.422 4.422 0 0 0-4.352 4.423v.04c0 .04.011.078.012.118 0 .061-.017.118-.017.178v-.273a4.481 4.481 0 0 0-4.351-4.446C54.63 8.1 49.8 8.08 45.984 8.08c-3.712 0-8.383.017-10.361.066a4.191 4.191 0 0 0-4.091 4.076c-.1 3.734-.105 10.156-.013 14.142-.041-.085-.1-.163-.147-.246-.045-.1-.108-.189-.161-.285s-.106-.184-.157-.277-.107-.188-.159-.282-.108-.187-.159-.282-.107-.185-.158-.278-.108-.188-.16-.284a4.728 4.728 0 0 0-.482-.817L19.769 9.9A4.478 4.478 0 0 0 16.2 8.1h-.013a4.483 4.483 0 0 0-3.569 1.784L2.238 23.707a4.483 4.483 0 0 0-.83 3.423 4.4 4.4 0 0 0 1.414 2.547c.088.1.187.18.283.267s.184.177.28.263.184.177.28.264.185.178.282.265.185.178.282.266c.068.072.14.139.213.207h-.161A4.355 4.355 0 0 0 0 35.527v.147a4.328 4.328 0 0 0 1.969 3.6c.094.074.184.152.285.218s.188.152.289.22.183.15.282.215.187.153.288.22.186.153.288.219.183.151.283.216.185.153.286.219.188.152.289.22.183.15.283.215.187.153.288.22.187.152.288.219.183.15.283.216.187.153.288.22.186.152.287.218.184.151.284.217.187.153.288.22.184.151.284.217.185.152.286.218.186.152.287.219.186.152.287.218.183.15.283.216.187.154.289.221.184.152.285.218.184.152.285.217.187.153.289.22.183.151.283.217.186.153.288.219.184.151.284.217.186.152.287.218.186.153.288.219.184.152.284.218.186.153.287.218.185.153.286.218.186.153.287.218.184.152.285.217.185.153.286.218.186.153.288.219.184.152.285.218.185.152.286.218.185.153.286.218a3.769 3.769 0 0 0 2.311.844c1.543.019 5.043.031 9.134.031 4.221 0 7.83-.012 9.418-.032a3.785 3.785 0 0 0 2.938-1.483 3.751 3.751 0 0 0 2.9 1.464c1.491.019 5.009.032 9.183.032 3.37 0 7.626-.009 9.464-.033a3.763 3.763 0 0 0 3.271-2.032 4.024 4.024 0 0 0 2.855 1.252c.975.017 3.292.028 6.047.028 2.976 0 5.547-.012 6.551-.032a3.85 3.85 0 0 0 2.091-.659 4.5 4.5 0 0 0 3.508 1.614 4.6 4.6 0 0 0 2.942-1.044c.072.071.137.143.222.212a4.144 4.144 0 0 0 2.5.806c1.365.018 4.083.028 7.454.028 4.64 0 9.2-.018 11.085-.044a3.694 3.694 0 0 0 2.264-.831c.1-.067.193-.143.288-.219s.192-.142.285-.217.193-.143.286-.218.193-.142.287-.217.192-.142.286-.217.193-.143.287-.219.191-.142.285-.216.193-.143.287-.219.191-.142.284-.216.194-.144.288-.219.191-.142.284-.217.192-.143.287-.218.193-.143.287-.219.189-.141.283-.215.193-.143.287-.217.193-.143.287-.218.193-.142.287-.218.194-.144.289-.219.189-.142.282-.215.193-.143.287-.218.193-.143.287-.218.192-.143.286-.218.192-.143.286-.218.193-.143.287-.217.192-.143.286-.218.192-.143.287-.218.191-.142.285-.217.192-.143.287-.218.191-.142.284-.217.193-.143.288-.218.192-.143.286-.217.191-.142.285-.217.192-.143.286-.217.193-.143.288-.218.192-.143.286-.218.192-.143.286-.217.192-.143.286-.217.193-.143.287-.218.191-.143.286-.218.193-.143.287-.218a4.266 4.266 0 0 0 1.934-3.556V35.8a4.277 4.277 0 0 0-3.2-4.111M61.118 13.08v-.132c0 .022.006.042.007.063s-.006.045-.007.068" transform="translate(.833 9.167)" style="fill:#5e25c7"/>
        <path data-name="패스 3416" d="M4.637 39.445c4.2-.061 18.92-.048 23.145.012a2.68 2.68 0 0 1 2.646 2.643v.06a2.692 2.692 0 0 1-2.648 2.728c-4.224.054-18.938.055-23.138 0A2.671 2.671 0 0 1 2 42.238V42.1a2.67 2.67 0 0 1 2.638-2.653" transform="translate(.5 2.6)" style="fill:#fcfcfc"/>
        <path data-name="패스 3417" d="M105.122 11.241a.651.651 0 0 1 .851 0l1.043.912 1.768-.876-1.347-3.508h-3.8l-1.332 3.472 1.763.9z" transform="translate(-16.217 7.872)" style="fill:#fcfcfc"/>
        <path data-name="패스 3418" d="m103.621 13.965-1.443-.739v22.988h1.441z" transform="translate(-16.196 6.963)" style="fill:#fcfcfc"/>
        <path data-name="패스 3419" d="M108.463 36.222h1.444V13.265l-1.442.713z" transform="translate(-17.243 6.956)" style="fill:#fcfcfc"/>
        <path data-name="패스 3420" d="M102.179 42.751a3.4 3.4 0 0 0 6.679 0v-.738h-6.679z" transform="translate(-16.196 2.165)" style="fill:#fcfcfc"/>
        <path data-name="패스 3421" d="M105.953 2.051a.078.078 0 0 0-.147 0l-1.443 3.763h3.033z" transform="translate(-16.56 8.834)" style="fill:#fcfcfc"/>
        <path data-name="패스 3422" d="M105.109 13.864v22.327h1.8V13.864l-.893-.781z" transform="translate(-16.684 6.987)" style="fill:#fcfcfc"/>
        <path data-name="패스 3423" d="M64.5 40.247c-4.09.054-19.2.054-23.254 0a2.606 2.606 0 0 1-2.578-2.588v-.156a2.608 2.608 0 0 1 2.578-2.59c1.189-.016 6.273-.025 7.944-.027a.691.691 0 0 0 .693-.7c-.014-.786-.017-1.63-.017-2.417a.436.436 0 0 0-.433-.43c-1.41-.017-6.27-.033-7.332-.057a2.52 2.52 0 0 1-2.462-2.455c-.105-3.91-.105-10.705 0-14.612a2.521 2.521 0 0 1 2.465-2.454c3.588-.088 17.273-.087 21.055 0a2.789 2.789 0 0 1 2.723 2.781v.265a2.783 2.783 0 0 1-2.778 2.76c-3.564.013-16.078.006-16.92-.02a.505.505 0 0 0-.024 1c3-.023 13.858-.015 16.559.025a2.76 2.76 0 0 1 2.717 2.748v.069a2.812 2.812 0 0 1-2.77 2.838c-2.7.04-13.528.048-16.507.025a.511.511 0 0 0 .034 1.014c1.213-.051 13.688-.064 17.225-.04a2.778 2.778 0 0 1 2.762 2.773v.5a2.8 2.8 0 0 1-2.736 2.787c-1.022.021-5.805.036-7.128.051a.434.434 0 0 0-.431.429c0 .8 0 1.633-.017 2.413a.691.691 0 0 0 .693.706c1.669 0 6.748.012 7.939.028a2.63 2.63 0 0 1 2.6 2.6v.058a2.64 2.64 0 0 1-2.6 2.677" transform="translate(-5.611 7.218)" style="fill:#fcfcfc"/>
        <path data-name="패스 3424" d="M137.236 39.317a5709.27 5709.27 0 0 0-19.393.021c-.19 0-.616.014-.633-.24a2.216 2.216 0 0 0-.243-1.248 2.355 2.355 0 0 0-1.027-.829 3.972 3.972 0 0 0-1.636-.335 3.055 3.055 0 0 0-2.576 1.123 2.8 2.8 0 0 0-.317 1.688c0 .7-.012 1.423 0 2.125a4.118 4.118 0 0 0 .172 1.367 2.431 2.431 0 0 0 .733 1.061 3.088 3.088 0 0 0 1.843.542c4.437.057 18.856.038 23.119-.02a2.591 2.591 0 0 0 2.555-2.6v-.061a2.613 2.613 0 0 0-2.6-2.6" transform="translate(-17.734 3.053)" style="fill:#fcfcfc"/>
        <path data-name="패스 3425" d="M113.946 23a2.565 2.565 0 0 1-2.539-2.568v-.063a2.546 2.546 0 0 1 2.524-2.558c1.235-.009 18.358 0 19.81 0a.521.521 0 0 0 0-1.043c-.494 0-18.453.04-19.661.027a2.7 2.7 0 0 1-2.673-2.705v-.066a2.726 2.726 0 0 1 2.663-2.743c4.137-.091 19.293-.091 23.292 0a2.5 2.5 0 0 1 2.447 2.466c.036 2.44.037 6.2.006 8.817 0 .17-.02.34-.03.509a2.032 2.032 0 0 1-.218.8 2.473 2.473 0 0 1-.361.542 2.51 2.51 0 0 1-1.874.843h-.679a2.475 2.475 0 0 1-2.425-1.933.447.447 0 0 0-.432-.292 1.3 1.3 0 0 0-.17 0L113.946 23" transform="translate(-17.734 7.298)" style="fill:#fcfcfc"/>
        <path data-name="패스 3426" d="M137.261 28.705c-1.579-.014-7.335-.029-8.618-.033a.493.493 0 0 1-.492-.344 1.748 1.748 0 0 0-.741-1.053 3.338 3.338 0 0 0-1.188-.5 6.615 6.615 0 0 0-1.551-.093 3.738 3.738 0 0 0-.726.092 3.906 3.906 0 0 0-.92.323 2.243 2.243 0 0 0-.78.617 1.829 1.829 0 0 0-.3.627c-.094.348-.505.327-.5.331-1.164.011-7.241.014-7.467.017a2.605 2.605 0 0 0-2.578 2.609v.054a2.609 2.609 0 0 0 2.6 2.614c4.493.028 18.717.028 23.254 0a2.6 2.6 0 0 0 2.582-2.589v-.057a2.6 2.6 0 0 0-2.575-2.615" transform="translate(-17.734 4.72)" style="fill:#fcfcfc"/>
        <path data-name="패스 3427" d="M27.041 31.133A2.787 2.787 0 0 1 24.793 30l-7.628-10.286a.49.49 0 0 0-.787 0L8.739 29.889a2.9 2.9 0 0 1-3.886.771 2.8 2.8 0 0 1-.68-4l10.378-13.826a2.8 2.8 0 0 1 2.236-1.118h.013a2.8 2.8 0 0 1 2.237 1.13L29.2 26.559a2.89 2.89 0 0 1-.433 3.978 2.789 2.789 0 0 1-1.724.6" transform="translate(.231 7.214)" style="fill:#fcfcfc"/>
        <path data-name="패스 3428" d="M78.394 22.048c1.274-.009 10.3 0 11.375.026a1.263 1.263 0 0 0 1.3-1.234c.018-.744.019-1.6 0-2.336a1.268 1.268 0 0 0-1.288-1.243c-1.214.02-10.268.025-11.706.015a2.765 2.765 0 0 1-2.733-2.753v-.042a2.735 2.735 0 0 1 2.7-2.754 1566.49 1566.49 0 0 1 16.077 0 2.574 2.574 0 0 1 2.544 2.542c.043 2.98.043 7.714 0 10.688a2.577 2.577 0 0 1-2.547 2.543c-1.2.011-9.866 0-11.117-.026a1.528 1.528 0 0 0-1.564 1.511 140.19 140.19 0 0 0 0 3.177 1.546 1.546 0 0 0 1.584 1.523c1.352-.028 9.536-.037 10.935-.023a2.785 2.785 0 0 1 2.746 2.776v.062a2.749 2.749 0 0 1-2.7 2.769c-2.637.05-12.968.052-15.671.005a2.976 2.976 0 0 1-2.928-2.921c-.06-3.186-.06-8.155 0-11.358a3.006 3.006 0 0 1 2.989-2.947" transform="translate(-11.723 7.216)" style="fill:#fcfcfc"/>
    </g>
</svg>
