<svg xmlns="http://www.w3.org/2000/svg" width="191.665" height="138.23" viewBox="0 0 191.665 138.23">
    <defs>
        <clipPath id="07rrobbf9a">
            <path data-name="사각형 2985" style="fill:none" d="M0 0h50v53H0z"/>
        </clipPath>
        <clipPath id="4ylx2pfcec">
            <path data-name="사각형 1986" style="fill:none" d="M0 0h163.596v68.883H0z"/>
        </clipPath>
        <filter id="v8aou8n3bb" x="0" y="0" width="191.665" height="138.23" filterUnits="userSpaceOnUse">
            <feOffset dx="6" dy="6"/>
            <feGaussianBlur stdDeviation="3" result="blur"/>
            <feFlood flood-opacity=".161"/>
            <feComposite operator="in" in2="blur"/>
            <feComposite in="SourceGraphic"/>
        </filter>
    </defs>
    <g data-name="그룹 2256" style="clip-path:url(#07rrobbf9a)" transform="translate(126.666 3)">
        <path data-name="패스 6572" d="m15.608 1.915-2.447 1.139-2.832 2.076-2.493 2.732-1.465 2.363-.916 2.493-.155 2.45.529 2.179 1.1 1.6-.939-.266-.912-.1-.642.176-.611.412-.621.671-1.148 2.46-.462 1.935-.372 2.565.1 3.339.426 2.536.569 1.184.91.553 1.133.209-.877 1.161-.541 1.318.158 1.931.632 2.8 1.465 1.9 1.21.95h.969l.946-.225-.161 1.074.645 1.519.754 1.192 2.175 1.6 1.984.727 2.427.339 1.495-.27.681-.514.263 1.1.564.722.966.705 1.879.636 2.063.361h3.135s2.454-.308 2.483-.317 1.222-.794 1.222-.794l.711-1.872.866.961 1.238.234 1.316-.017 2.823-.355 2.91-1.316 1.506-1.551 1.083-1.539.38-1.29-.207-1.7-.023-.478 1.08.372 1.253-.373 1.029-.5 1.3-1.226L49.565 40l1.119-3.6-.217-2.446-.339-1.86-.619-1.649-.638-1.075-.961-.87.3-1.086.4-1.3.342-2.448-.1-1.888-.621-1.594-.79-1.184-.339-.292-.041-.432.635-.728.281-1.757-.33-1.567-.883-1.844-1.364-1.387-1.389-1.2-1.291-.609-1.608.04-1.157.776-.141-.7-.289-1.629-1.182-1.842-1.672-1.242-2.853-1.247-2.425-.475-2.027-.065-1.752.577-.924 1.072-.468.805-.971-1.311-1.756-1.606-3.157-.975-2.609.026z" transform="translate(-.903 -1.007)" style="fill:#ffffe1"/>
        <path data-name="패스 6573" d="M64.475 58.192s-1.953 9.226 1.488 10.846 8.137 1.116 8.137 1.116a4.271 4.271 0 0 0 3.719-3 8.3 8.3 0 0 0 .037-4.926z" transform="translate(-47.301 -43.068)" style="fill:#e6e6c1"/>
        <path data-name="패스 6574" d="M80.346 184.8a10.512 10.512 0 0 1-5.861 1.917 13.258 13.258 0 0 1-6.454-2.064l-.284.822.366 1.826 1.677.944 3.045.806 4.691.181 2.658-.694.529-1.6z" transform="translate(-50.13 -136.662)" style="fill:#e1e1b9"/>
        <path data-name="패스 6575" d="M28.555 162.91a6.687 6.687 0 0 0 1.2 2.867 7.106 7.106 0 0 0 6.491 2.712 6.944 6.944 0 0 0 2.8-1.007l-1.086 2.883-1.339.354-4.4-.755-2.821-2.12a4.8 4.8 0 0 1-1.369-2.993l.527-1.941" transform="translate(-20.739 -120.571)" style="fill:#e1e1b9"/>
        <path data-name="패스 6576" d="M18.549 162.146a4.87 4.87 0 0 1-4.042-.268l1.375 1.336.811.18 1.009-.121z" transform="translate(-10.734 -119.807)" style="fill:#e1e1b9"/>
        <path data-name="패스 6577" d="M11.759 126.107s-2.824 2.529-2.978 3.73v-1.692l.779-1.106.394-.722z" transform="translate(-6.496 -93.333)" style="fill:#e1e1b9"/>
        <path data-name="패스 6578" d="M14.892 70.251s-4.755 1.374-8.492.279l1.26-2.037 1.586-.542z" transform="translate(-4.734 -50.29)" style="fill:#e6e6c1"/>
        <path data-name="패스 6579" d="M128.025 160.313a7.177 7.177 0 0 1-.926 3.857s-2.263 3.873-8.005 3.543a3.1 3.1 0 0 1-1.354-.358 3.065 3.065 0 0 1-1.075-1 3.32 3.32 0 0 0 .349 1.985 3.273 3.273 0 0 0 1.034 1.155l2.386.023 2.157-.271 2.4-1.139 2.685-1.811 1.463-2.448-.207-2.084-.9-1.455" transform="translate(-86.307 -118.649)" style="fill:#e1e1b9"/>
        <path data-name="패스 6580" d="M169.3 126.781a10.218 10.218 0 0 1-7.49 8.715l.525.977h1.709l2.148-.859 1.54-1.316 1.766-4.115-.2-3.4" transform="translate(-119.739 -93.831)" style="fill:#e1e1b9"/>
        <path data-name="패스 6581" d="M174.84 94.654a4.593 4.593 0 0 1-2.94 2.516s1.259-.071 1.265-.1 1.018.257 1.018.257z" transform="translate(-127.199 -70.054)" style="fill:#e1e1b9"/>
        <path data-name="패스 6582" d="M174.353 73.669a14.727 14.727 0 0 0-3.576-5.284l1.794-.137 1.129 1.479.653 3.943" transform="translate(-126.372 -50.51)" style="fill:#e1e1b9"/>
        <path data-name="패스 6583" d="M153.176 34.669a6.314 6.314 0 0 0-5.081-1.334 5.931 5.931 0 0 0-3.072 1.742l1.344-2.749 1.526-.847 1.239.034 4.044 3.155" transform="translate(-107.314 -23.299)" style="fill:#e6e6c1"/>
        <path data-name="패스 6584" d="M105.919 7.845a6.651 6.651 0 0 0-5.609 1.494 6.263 6.263 0 0 0-1.886 3.736l-1.05-3.653 1.392-1.874 2.024-.608 5.129.9" transform="translate(-72.054 -5.136)" style="fill:#e6e6c1"/>
        <path data-name="패스 6585" d="M79.677 41.842a14.463 14.463 0 0 0-7.693-2.377c-2.057-.058-5.269-.126-6.438 1.962-.93 1.66-1.7 7.2-.123 10.76s10.038 2.929 11.248 1.922 1.66-2.063 1.426-5.62" transform="translate(-47.741 -29.193)" style="fill:#ffffe6"/>
        <path data-name="패스 6586" d="M24.562 26.025a15.046 15.046 0 0 1-3.369-.36c-1.953-.457-3.268-1.336-3.8-2.542-1.63-3.683-.827-9.323.136-11.044 1.275-2.277 4.685-2.182 6.724-2.124a14.8 14.8 0 0 1 7.861 2.431.318.318 0 1 1-.354.527 14.17 14.17 0 0 0-7.524-2.324c-1.894-.052-5.064-.142-6.151 1.8-.931 1.664-1.6 7.1-.109 10.477.569 1.284 2.144 1.895 3.366 2.18 2.965.694 6.722.181 7.388-.373 1.113-.927 1.541-1.875 1.312-5.356a.318.318 0 0 1 .3-.338.312.312 0 0 1 .338.3c.246 3.735-.276 4.834-1.54 5.885-.574.478-2.453.864-4.571.864"/>
        <path data-name="패스 6587" d="M10.481 20.232a.317.317 0 0 1-.071-.008c-2.539-.583-6.016-1.382-6.353-6.319a9.008 9.008 0 0 1 .918-4.357A17.661 17.661 0 0 1 14.855.56a9.637 9.637 0 0 1 7.877.608c3.7 2.067 3.673 6.969 3.67 7.176a.315.315 0 0 1-.322.313.318.318 0 0 1-.314-.321c0-.047.018-4.733-3.344-6.614a9.019 9.019 0 0 0-7.37-.558 16.988 16.988 0 0 0-9.5 8.649 8.387 8.387 0 0 0-.862 4.049C4.973 18 7.403 18.881 10.552 19.6a.318.318 0 0 1-.071.627"/>
        <path data-name="패스 6588" d="M3.391 33.3a2.78 2.78 0 0 1-1.7-.527c-1.9-1.409-1.819-5.282-1.536-8.5a12.227 12.227 0 0 1 2.247-5.944 2.468 2.468 0 0 1 3.127-.778c.631.325 1.36.679 1.367.682a.318.318 0 0 1-.277.572c-.007 0-.743-.36-1.381-.689a1.829 1.829 0 0 0-2.317.581 11.59 11.59 0 0 0-2.134 5.631c-.247 2.815-.382 6.7 1.282 7.934.728.54 1.793.536 3.166-.015a.318.318 0 1 1 .237.59 5.673 5.673 0 0 1-2.08.463"/>
        <path data-name="패스 6589" d="M6.148 43.995a2.151 2.151 0 0 1-.3-.021c-.847-.117-2.442-.854-3.608-4.472-1.714-5.325 1.216-6.764 1.342-6.822a.318.318 0 0 1 .271.575c-.107.052-2.539 1.293-1.007 6.052 1.1 3.41 2.526 3.959 3.089 4.037a1.249 1.249 0 0 0 1.213-.458.318.318 0 0 1 .53.351 1.85 1.85 0 0 1-1.534.757"/>
        <path data-name="패스 6590" d="M15.374 50.374a11.911 11.911 0 0 1-4.387-1.075c-2.388-1.092-3.889-2.96-4.014-5-.153-2.473 1.806-2.674 1.826-2.676a.313.313 0 0 1 .345.288.318.318 0 0 1-.287.344c-.141.015-1.361.194-1.25 2s1.473 3.469 3.645 4.461c1.388.634 4.079 1.408 5.393.787a1.152 1.152 0 0 0 .665-.778.318.318 0 0 1 .615.162 1.775 1.775 0 0 1-1.008 1.19 3.636 3.636 0 0 1-1.542.291"/>
        <path data-name="패스 6591" d="M24.965 53.001c-2.114 0-4.595-.258-6.159-1.181a2.922 2.922 0 0 1-1.457-1.87 4.7 4.7 0 0 1 .692-3.211.318.318 0 0 1 .533.346 4.119 4.119 0 0 0-.606 2.723 2.314 2.314 0 0 0 1.16 1.465c2.588 1.526 8.123 1.083 9.379.827a2.415 2.415 0 0 0 1.775-2.89.318.318 0 0 1 .63-.085 3.028 3.028 0 0 1-2.279 3.6 21.575 21.575 0 0 1-3.67.278"/>
        <path data-name="패스 6592" d="M33.754 51.324a13.616 13.616 0 0 1-2.061-.16c-1.142-.175-1.783-3.095-1.952-3.985a.318.318 0 0 1 .625-.119c.308 1.62.954 3.4 1.424 3.476a10.183 10.183 0 0 0 7.95-1.757c.97-.786 2.62-2.381 2.763-4.228a3.513 3.513 0 0 0-1.02-2.675.318.318 0 0 1 .471-.426 4.12 4.12 0 0 1 1.183 3.15c-.161 2.085-1.946 3.823-3 4.673a10.1 10.1 0 0 1-6.386 2.05"/>
        <path data-name="패스 6593" d="M43.825 43.131a3.42 3.42 0 0 1-1.693-.42.318.318 0 0 1 .343-.535c.084.052 2.033 1.231 4.376-1.18 2.578-2.653 3.19-6.326 1.768-10.622a4.205 4.205 0 0 0-2.032-2.7 2.825 2.825 0 0 0-2.075-.067.318.318 0 0 1-.248-.585 3.424 3.424 0 0 1 2.577.069 4.786 4.786 0 0 1 2.382 3.087c1.5 4.536.839 8.431-1.915 11.264a4.83 4.83 0 0 1-3.481 1.693"/>
        <path data-name="패스 6594" d="M47.006 27.853a.318.318 0 0 1-.293-.442c.027-.064 2.677-6.444-.967-9.741a.318.318 0 1 1 .427-.471c3.982 3.6 1.244 10.182 1.126 10.461a.318.318 0 0 1-.293.193"/>
        <path data-name="패스 6595" d="M44.987 18.021a2.127 2.127 0 0 1-.71-.122.318.318 0 1 1 .211-.6 1.562 1.562 0 0 0 1.3-.133 1.857 1.857 0 0 0 .9-1.217c.5-2.406-1.841-5.9-4.113-7.066a3.158 3.158 0 0 0-2.415-.281 1.843 1.843 0 0 0-1.1 1.037.318.318 0 0 1-.581-.258 2.487 2.487 0 0 1 1.47-1.379 3.8 3.8 0 0 1 2.917.315c2.482 1.277 5.017 5.024 4.444 7.761a2.5 2.5 0 0 1-1.21 1.64 2.263 2.263 0 0 1-1.113.3"/>
        <path data-name="패스 6596" d="M37.455 11.88a.318.318 0 0 1-.175-.583c.075-.05 1.761-1.215 1.2-4.046-.523-2.648-4.134-4.082-5.663-4.576-.041-.013-4.165-1.254-6.127.128a2.392 2.392 0 0 0-.982 2.032.313.313 0 0 1-.327.308.317.317 0 0 1-.308-.327 3.024 3.024 0 0 1 1.251-2.53c2.246-1.584 6.645-.228 6.689-.214 2.031.656 5.524 2.186 6.091 5.058.646 3.27-1.389 4.643-1.476 4.7a.316.316 0 0 1-.174.052"/>
        <path data-name="패스 6597" d="M29.001 28.405a.779.779 0 0 0-.779.778v.779a.779.779 0 0 0 1.557 0v-.779a.779.779 0 0 0-.779-.778"/>
        <path data-name="패스 6598" d="M29.006 31.098a1.138 1.138 0 0 1-1.137-1.136v-.778a1.137 1.137 0 0 1 2.274 0v.778a1.138 1.138 0 0 1-1.137 1.136m0-2.335a.421.421 0 0 0-.421.42v.778a.421.421 0 0 0 .842 0v-.778a.421.421 0 0 0-.421-.42"/>
        <path data-name="패스 6599" d="M20.439 28.405a.779.779 0 0 0-.779.778v.779a.779.779 0 0 0 1.557 0v-.779a.779.779 0 0 0-.779-.778"/>
        <path data-name="패스 6600" d="M20.439 31.098a1.138 1.138 0 0 1-1.137-1.136v-.778a1.137 1.137 0 0 1 2.274 0v.778a1.138 1.138 0 0 1-1.137 1.136m0-2.335a.421.421 0 0 0-.421.42v.778a.421.421 0 0 0 .842 0v-.778a.421.421 0 0 0-.421-.42"/>
        <path data-name="패스 6602" d="M81.106 128.953a4.9 4.9 0 0 1-4.9-4.9v-.075h9.8v.075a4.9 4.9 0 0 1-4.9 4.9" transform="translate(-56.389 -91.758)" style="fill:#ed8062"/>
        <path data-name="패스 6603" d="M24.716 37.514a5.225 5.225 0 0 1-5.22-5.218v-.075a.318.318 0 0 1 .318-.318h9.8a.318.318 0 0 1 .318.318v.075a5.225 5.225 0 0 1-5.22 5.218m-4.577-4.974a4.584 4.584 0 0 0 9.155 0z"/>
        <path data-name="패스 6607" d="M102.9 150.281s-.483 2.517.2 3.2c.941.946 2.865 1.888 7.044 1.733l-2.626-.781-1.836-.951-1.434-1.155-1.085-1.139z" transform="translate(-76.019 -111.224)" style="fill:#e6e6c1"/>
        <path data-name="패스 6608" d="M115.835 129.5a38.171 38.171 0 0 0-4.728-3.693c-1.94-1.108-3.14-1.646-5.529-.505-1.58.754-4.723 5.072-2.064 7.579a14.056 14.056 0 0 0 6.831 3.431" transform="translate(-75.835 -92.267)" style="fill:#ffffe6"/>
        <path data-name="패스 6609" d="M105.129 142.761a16.108 16.108 0 0 0 5.874 4.21l-4.57-1.554-2.261-1.878-.8-1.556.252-2.914c.544 2.54 1.185 3.329 1.5 3.691" transform="translate(-76.494 -102.927)" style="fill:#e6e6c1"/>
        <path data-name="패스 6610" d="M34.509 44.362a.324.324 0 0 1-.083-.011 14.324 14.324 0 0 1-6.967-3.507 3.613 3.613 0 0 1-1.074-3.33 7.285 7.285 0 0 1 3.22-4.766c2.549-1.217 3.874-.6 5.823.516a38.8 38.8 0 0 1 4.78 3.73.318.318 0 0 1-.42.477 38.3 38.3 0 0 0-4.676-3.656c-1.876-1.072-2.961-1.58-5.234-.494a6.77 6.77 0 0 0-2.866 4.291 2.965 2.965 0 0 0 .882 2.77 13.792 13.792 0 0 0 6.7 3.356.318.318 0 0 1-.082.624"/>
    </g>
    <g style="filter:url(#v8aou8n3bb)" data-name="logo_bg">
        <path data-name="logo_bg" d="M33.191 82.723a47.15 47.15 0 0 0-1.9-5.53 141.13 141.13 0 0 1-8.729-2.138 79.091 79.091 0 0 1-12.082-4.348C3.8 67.557 0 63.949 0 60.114 0 53.243 12.19 47.1 31.331 43.028 38.423 18.153 60.579 0 86.833 0s48.41 18.153 55.5 43.028c19.14 4.075 31.331 10.215 31.331 17.086a6.535 6.535 0 0 1-1 3.384 16.638 16.638 0 0 1-5.823 5.265c-.55.334-1.128.661-1.739.985a47.86 47.86 0 0 1-2.813 1.357 75.132 75.132 0 0 1-8.452 3.143c-2.655.824-5.536 1.6-8.62 2.314-.94.218-1.905.43-2.883.64l-.858.181a99.198 99.198 0 0 0-1 5.34c-8.6 21.993-29.371 37.507-53.642 37.507S41.8 104.716 33.191 82.723z" transform="translate(3 3)" style="fill:#3cb371"/>
    </g>
    <g data-name="그룹 416" style="clip-path:url(#4ylx2pfcec)" transform="translate(10.749 26.796)">
        <path data-name="패스 3470" d="m155.111 31.72.054-.045a4.333 4.333 0 0 0 .376-.275 4.1 4.1 0 0 0 .372-.271 4.147 4.147 0 0 0 .374-.273 4.084 4.084 0 0 0 .371-.27 4.405 4.405 0 0 0 2.074-3.7v-.056a4.4 4.4 0 0 0-1.292-3.134c.071-.071.145-.139.212-.215a4.239 4.239 0 0 0 .626-.94 3.808 3.808 0 0 0 .4-1.475l.01-.149a7.8 7.8 0 0 0 .023-.458c.034-2.723.031-6.658-.006-9.156a4.3 4.3 0 0 0-4.21-4.244c-2.311-.053-7.769-.072-12.105-.072-5.448 0-10.06.027-12.038.071a4.489 4.489 0 0 0-3.794 2.229c-.086.119-.165.241-.239.368s-.163.238-.236.362-.165.241-.24.368-.161.238-.236.363a4.306 4.306 0 0 0-.238.366c-.085.118-.164.239-.238.364s-.163.238-.236.363a4.358 4.358 0 0 0-.24.368c-.028.038-.06.071-.088.11 0-.237-.008-.474-.013-.69a4.763 4.763 0 0 0-4.723-4.637h-.072a4.751 4.751 0 0 0-4.319 2.826A10.956 10.956 0 0 0 110.1 3.5a3.988 3.988 0 0 0-1.9-2.922 3.839 3.839 0 0 0-4.049 0 3.939 3.939 0 0 0-1.757 2.34c-.05.127-.082.263-.121.4-.027.069-.049.141-.073.213a11.122 11.122 0 0 0-5.511 7.005l-.006.028-.008.028-.025.106a3.52 3.52 0 0 0-.059.2l-.017.065-.074.237-.009.025-.013.044-.16.535-.012.033a10.829 10.829 0 0 0-3.384 1.431c-.008-.563-.016-1.1-.026-1.614a4.776 4.776 0 0 0-4.735-4.664h-.082A4.731 4.731 0 0 0 84.3 8.913a4.306 4.306 0 0 0-2.913-1.172c-1.623-.017-4.1-.028-6.783-.028s-5.177.01-6.831.028a4.485 4.485 0 0 0-3.723 2.081 4.748 4.748 0 0 0-4.309-2.836h-.117A4.7 4.7 0 0 0 56.01 8.7a4.31 4.31 0 0 0-2.973-1.28c-1.5-.034-4.765-.054-8.529-.054s-7.024.021-8.522.054a4.3 4.3 0 0 0-3.65 2.2 4.717 4.717 0 0 0-.208-.313 4.726 4.726 0 0 0-4.01-2.3H28a4.747 4.747 0 0 0-4.712 4.65 519.82 519.82 0 0 0-.043 4.047c-.063-.081-.133-.155-.2-.232-.092-.128-.2-.239-.3-.359l-.3-.359-.3-.362-.3-.36-.3-.36-.3-.359-.3-.359c-.1-.12-.2-.241-.307-.362s-.2-.239-.3-.357-.2-.241-.3-.362l-.3-.36-.3-.361c-.1-.121-.2-.238-.3-.357s-.2-.242-.306-.363-.2-.239-.3-.358a6.507 6.507 0 0 0-11.4 1.663C5.165 17.229 2.192 26.36.231 32.513a4.821 4.821 0 0 0 2.361 5.745 4.257 4.257 0 0 0 .373.236c.122.08.239.167.369.235s.241.166.371.235.239.165.369.233.241.168.373.236a4.218 4.218 0 0 0 .371.235c.122.079.238.166.368.234s.241.166.371.235.243.168.375.237.239.164.368.232.241.167.371.235.239.166.371.234.239.167.369.235.241.167.373.236.241.167.371.235.239.166.369.233a4.285 4.285 0 0 0 .371.236c.124.08.241.167.373.235a4.2 4.2 0 0 0 .368.233c.124.081.243.168.375.237s.238.165.368.233a4.258 4.258 0 0 0 .373.236c.122.08.239.166.369.234a4.22 4.22 0 0 0 .371.235 4.218 4.218 0 0 0 .371.235c.122.08.241.167.371.235s.241.166.371.234a4.2 4.2 0 0 0 .368.233 4.15 4.15 0 0 0 .375.237 4.246 4.246 0 0 0 .369.235c.124.08.241.167.373.235a4.145 4.145 0 0 0 .368.233 4.274 4.274 0 0 0 .371.235 4.314 4.314 0 0 0 .373.236c.122.08.239.166.369.234a4.272 4.272 0 0 0 .371.235 4.028 4.028 0 0 0 .371.235 4.056 4.056 0 0 0 .373.235 3.957 3.957 0 0 0 .368.233 4.284 4.284 0 0 0 .371.236 4.181 4.181 0 0 0 6.305-2.124c.249-.726.53-1.526.824-2.351.064.051.127.1.193.149.1.083.2.165.3.239s.191.162.294.234.191.163.294.235.192.164.3.238.193.164.3.236.191.164.294.236.191.163.3.235.191.164.294.236.193.165.3.238.19.161.293.233.191.164.3.237.193.164.3.238.191.163.294.235.193.164.3.237.189.163.293.235.191.164.3.236.191.164.3.238a4.2 4.2 0 0 0 3.989.815 4.281 4.281 0 0 0 .809-.349l.008.007c.082.083.174.153.262.229s.172.152.261.228.171.152.26.228a4.109 4.109 0 0 0 2.914 1.248l.009-.245.052-.005v.25a4.145 4.145 0 0 0 3.219-1.556c.037.036.077.066.114.1.072.078.143.156.222.228a3.669 3.669 0 0 0 2.678 1.216c1.476.021 4.206.031 7.692.031 4.64 0 9.439-.019 11.669-.047a3.977 3.977 0 0 0 3.582-2.4 3.933 3.933 0 0 0 2.577 1.053c1.552.015 3.423.022 5.3.022h.08c1.9 0 3.81-.008 5.4-.024a3.856 3.856 0 0 0 1.616-.378c.058.037.108.079.168.114a4.029 4.029 0 0 0 .445.3c.1.075.2.152.31.218a4.192 4.192 0 0 0 .449.3 4.079 4.079 0 0 0 2.436.841h.06a4.159 4.159 0 0 0 4.155-4.047c.028-1.5.048-3.566.055-5.857a4.787 4.787 0 0 0 1.666-1.712 5.513 5.513 0 0 0 .456.666c-.011.031-.019.064-.03.095-.036.084-.055.174-.086.261s-.054.174-.085.261-.053.17-.084.256-.057.177-.086.264l-.085.258c-.029.086-.056.175-.087.261s-.053.173-.084.258-.055.175-.086.262-.055.175-.086.261-.055.172-.084.258a3.83 3.83 0 0 0-.314 1.509v.056a3.887 3.887 0 0 0 3.868 3.888c1.31 0 3.35.007 5.465.007 2.446 0 5.164 0 6.815-.009a4.207 4.207 0 0 0 3.961 2.8h.047a4.168 4.168 0 0 0 3.1-1.4c.074-.071.138-.152.207-.227l.209-.231.206-.227.208-.23.208-.229.208-.229.207-.228c.045-.043.085-.09.128-.134a3.31 3.31 0 0 0 .19.715 3.729 3.729 0 0 0 1.117 1.565 4.284 4.284 0 0 0 2.587.833c1.41.018 4.216.028 7.7.028 4.794 0 9.5-.019 11.456-.046a3.816 3.816 0 0 0 2.2-.738 182.026 182.026 0 0 0 .746-.454 217.336 217.336 0 0 0 .747-.455 3.914 3.914 0 0 0 .373-.227 3882.037 3882.037 0 0 0 .743-.452 3.729 3.729 0 0 0 .377-.23 4.011 4.011 0 0 0 .369-.224 3.922 3.922 0 0 0 .378-.231 4.029 4.029 0 0 0 .37-.225 4.1 4.1 0 0 0 .373-.227 3.875 3.875 0 0 0 .373-.226 184.385 184.385 0 0 1 .746-.454 4.363 4.363 0 0 0 .375-.228 4.294 4.294 0 0 0 .372-.227 3.935 3.935 0 0 0 .374-.227 4.059 4.059 0 0 0 .371-.226 4.139 4.139 0 0 0 .375-.228 4.092 4.092 0 0 0 .373-.226 4.137 4.137 0 0 0 .375-.228 4.217 4.217 0 0 0 .373-.226c.126-.073.254-.142.372-.226s.254-.142.373-.227a4.123 4.123 0 0 0 .374-.228 4.269 4.269 0 0 0 .372-.226 4.123 4.123 0 0 0 .374-.228 3.945 3.945 0 0 0 .371-.226 249.8 249.8 0 0 0 .746-.454 3.9 3.9 0 0 0 .377-.23 4.237 4.237 0 0 0 .37-.225c.127-.074.257-.143.375-.228a1335.569 1335.569 0 0 1 .746-.454c.127-.073.255-.142.374-.227s.254-.141.372-.226a4.3 4.3 0 0 0 .373-.226 5.049 5.049 0 0 0 2.594-4.026v-.062a4.424 4.424 0 0 0-3.622-4.323" transform="translate(3.014 10.332)" style="fill:#3cb371"/>
        <path data-name="패스 3471" d="M174.924 38.3c-1.044-.007-18.953.006-20.037.022-.2 0-.636.016-.655-.248a2.282 2.282 0 0 0-.25-1.289 2.433 2.433 0 0 0-1.061-.857 4.1 4.1 0 0 0-1.69-.346 3.156 3.156 0 0 0-2.661 1.16 2.892 2.892 0 0 0-.327 1.744c0 .726-.012 1.471 0 2.2a4.255 4.255 0 0 0 .177 1.412 2.492 2.492 0 0 0 .758 1.1 3.185 3.185 0 0 0 1.9.561c4.584.059 19.483.04 23.888-.021a2.677 2.677 0 0 0 2.64-2.681v-.063a2.7 2.7 0 0 0-2.688-2.685" transform="translate(-17.587 5.387)" style="fill:#fcfcfc"/>
        <path data-name="패스 3472" d="M174.952 27.674c-1.632-.014-7.579-.029-8.9-.034a.493.493 0 0 1-.5-.338c0-.009-.007-.009-.009-.017-.281-1.309-2-1.7-2.8-1.7h-.785c-.676 0-2.518.38-2.8 1.683-.006.011-.014.015-.018.03-.1.359-.522.338-.522.338h.005c-1.2.011-7.481.015-7.715.017a2.693 2.693 0 0 0-2.663 2.7v.056a2.7 2.7 0 0 0 2.68 2.7c4.642.029 19.339.028 24.027 0a2.685 2.685 0 0 0 2.667-2.676v-.057a2.687 2.687 0 0 0-2.661-2.7" transform="translate(-17.587 6.776)" style="fill:#fcfcfc"/>
        <path data-name="패스 3473" d="M150.861 22.288a2.651 2.651 0 0 1-2.624-2.654v-.064a2.631 2.631 0 0 1 2.608-2.643c1.276-.009 18.968 0 20.468 0a.539.539 0 0 0 0-1.077c-.511 0-19.067.041-20.314.028a2.792 2.792 0 0 1-2.762-2.795v-.068a2.817 2.817 0 0 1 2.751-2.834c4.274-.094 19.935-.094 24.066 0a2.584 2.584 0 0 1 2.528 2.548c.037 2.521.039 6.4.007 9.11 0 .176-.022.351-.032.526a2.1 2.1 0 0 1-.225.821 2.566 2.566 0 0 1-.373.56 2.593 2.593 0 0 1-1.936.871h-.7a2.557 2.557 0 0 1-2.506-2 .462.462 0 0 0-.447-.3 1.34 1.34 0 0 0-.176 0z" transform="translate(-17.587 8.927)" style="fill:#fcfcfc"/>
        <path data-name="패스 3474" d="M65.025 10.113h.108a3 3 0 0 1 2.989 2.94c.09 4.264.09 11.389 0 15.685a3.012 3.012 0 0 1-3.022 2.946h-.071a3 3 0 0 1-3-2.96c-.05-4.285-.05-11.367 0-15.635a3 3 0 0 1 2.99-2.976m-9.971 11.515c.035-1.217.036-3.683 0-4.9a1.116 1.116 0 0 0-1.1-1.087 704.07 704.07 0 0 0-8.089-.011 1.117 1.117 0 0 0-1.1 1.087 116.003 116.003 0 0 0 0 4.9 1.12 1.12 0 0 0 1.1 1.088c.934.021 7.191.022 8.1 0a1.113 1.113 0 0 0 1.091-1.083m-13.127 7.212a3.093 3.093 0 0 1 3.094 3.082c0 .9 0 1.786-.023 2.337a.294.294 0 0 0 .307.312c2.134-.048 15.468-.082 20.086-.052a2.816 2.816 0 0 1 2.8 2.806v.065a2.8 2.8 0 0 1-2.764 2.805c-4.935.062-19.371.085-24.144.021a2.459 2.459 0 0 1-2.429-2.4c-.039-1.806-.05-4.059-.022-5.915a3.1 3.1 0 0 1 3.093-3.056m-.505-18.287c3.211-.072 13.764-.072 16.974 0a2.6 2.6 0 0 1 2.539 2.53c.081 3.122.082 8.994 0 12.123a2.6 2.6 0 0 1-2.556 2.537c-3.2.059-13.751.059-16.947 0a2.6 2.6 0 0 1-2.551-2.542c-.08-3.129-.08-9 0-12.123a2.6 2.6 0 0 1 2.542-2.531" transform="translate(-2.381 8.927)" style="fill:#fcfcfc"/>
        <path data-name="패스 3475" d="M102.109 27.126a.386.386 0 0 0-.363.388c0 3.814-.03 7.413-.075 9.787a3.012 3.012 0 0 1-3.033 2.948h-.071a3 3 0 0 1-2.989-2.955c-.093-5.761-.093-18.4 0-24.2a3.023 3.023 0 0 1 3.014-2.979h.071a3.026 3.026 0 0 1 3.014 2.975c.041 2.069.065 4.733.068 7.965a.381.381 0 0 0 .363.389 2.821 2.821 0 0 1 2.826 2.807v.071a2.817 2.817 0 0 1-2.826 2.806M75.561 13.684v-.057a2.758 2.758 0 0 1 2.729-2.758 830.464 830.464 0 0 1 13.578 0 2.608 2.608 0 0 1 2.579 2.579c.05 3.76.052 10.579 0 14.467a2.969 2.969 0 0 1-2.987 2.926h-.07a2.954 2.954 0 0 1-2.948-2.94c-.016-3.113 0-7.59.022-10.26a1.169 1.169 0 0 0-1.187-1.184c-1.907.022-6.478.012-9-.014a2.755 2.755 0 0 1-2.723-2.759M94.485 35.64v.06a2.767 2.767 0 0 1-2.733 2.8c-3.947.04-9.5.04-13.423 0a2.786 2.786 0 0 1-2.767-2.773v-.061a2.787 2.787 0 0 1 2.734-2.773l.781-.016a.374.374 0 0 0 .373-.374c-.019-2.221-.011-5.42.015-7.78a3.034 3.034 0 0 1 3.027-3h.071a3.032 3.032 0 0 1 3.027 3c.026 2.351.034 5.536.015 7.773a.372.372 0 0 0 .378.374c2.728 0 3.842.015 5.78.04a2.758 2.758 0 0 1 2.723 2.729" transform="translate(-7.487 8.927)" style="fill:#fcfcfc"/>
        <path data-name="패스 3476" d="M32.03 10.142h.11a3 3 0 0 1 2.992 2.947c.109 5.792.109 18.425 0 24.192a3.011 3.011 0 0 1-3.032 2.947h-.071a3.005 3.005 0 0 1-2.989-2.956c-.093-5.769-.093-18.38 0-24.174a3 3 0 0 1 2.992-2.956" transform="translate(-1.012 8.923)" style="fill:#fcfcfc"/>
        <path data-name="패스 3477" d="M18.054 13.9c1.923 6.026 4.584 15.479 6.027 20.648a3.141 3.141 0 0 1-2.094 3.852 3.139 3.139 0 0 1-3.933-2.061 1472.935 1472.935 0 0 1-4.191-13.771.376.376 0 0 0-.712-.025c-1.207 3.19-3.612 9.619-5.09 13.929a3.114 3.114 0 0 1-5.91-1.961c1.657-5.2 4.768-14.811 6.841-20.728a4.781 4.781 0 0 1 9.063.127" transform="translate(2.735 8.861)" style="fill:#fcfcfc"/>
        <path data-name="패스 3478" d="M113.954 22.53a4.688 4.688 0 0 0-1.647 3.6c0 3.43 3.287 5.817 9.467 5.817s9.468-2.387 9.468-5.817a4.689 4.689 0 0 0-1.646-3.6 45.837 45.837 0 0 1-7.818.67 45.906 45.906 0 0 1-7.823-.671m11.318 3.6c0 1.014-1.214 1.719-3.5 1.719s-3.5-.705-3.5-1.719 1.215-1.719 3.5-1.719 3.5.706 3.5 1.719" transform="translate(-12.594 7.201)" style="fill:#fcfcfc"/>
        <path data-name="패스 3479" d="M142.2 18.892h-.1a.38.38 0 0 1-.375-.379c0-1.967-.022-3.968-.054-5.44a3.015 3.015 0 0 0-3-2.952h-.07a3.013 3.013 0 0 0-3 2.971c-.006.389-.011.815-.016 1.257 1.973.651 3.359 1.582 3.359 2.889s-1.4 2.246-3.386 2.9c0 2.612.014 5.23.043 7.137a3 3 0 0 0 2.991 2.954h.071a3 3 0 0 0 3.017-2.927c.019-.733.034-1.565.047-2.457a.382.382 0 0 1 .375-.376h.108a2.755 2.755 0 0 0 2.711-2.752v-.068a2.756 2.756 0 0 0-2.711-2.753" transform="translate(-15.823 8.926)" style="fill:#fcfcfc"/>
        <path data-name="패스 3480" d="M135.961 34.694c-4.457-.075-16.4-.076-21.007 0a2.692 2.692 0 0 0-2.647 2.691v.066A2.7 2.7 0 0 0 115 40.154c4.3.014 14.922.009 16.906-.014a.292.292 0 0 1 .3.3c0 .263 0-.185-.005.094a3.1 3.1 0 0 0 3.1 3.12h.059a3.081 3.081 0 0 0 3.084-3.033 88.962 88.962 0 0 0-.01-3.473 2.5 2.5 0 0 0-2.463-2.451" transform="translate(-12.594 5.519)" style="fill:#fcfcfc"/>
        <path data-name="패스 3481" d="M125.167 4.044a2.281 2.281 0 0 0-1.1-1.718 2.114 2.114 0 0 0-2.254 0 2.282 2.282 0 0 0-1.1 1.718 8.525 8.525 0 0 1 4.449 0" transform="translate(-13.762 10.054)" style="fill:#fff"/>
        <path data-name="패스 3482" d="M130.1 15.521a2.974 2.974 0 0 1-.288 1.039c-1.065 1.992-5.681 2.289-8.338 2.289H120.908c-2.657 0-7.273-.3-8.338-2.289a2.975 2.975 0 0 1-.288-1.039c-2.551.616-4.155 1.492-4.155 2.466 0 1.866 5.849 3.379 13.064 3.379s13.064-1.513 13.064-3.379c0-.974-1.6-1.85-4.155-2.466" transform="translate(-12.013 8.175)" style="fill:#fff"/>
        <path data-name="패스 3483" d="M122.667 5.124c-1.835 0-3.307 3.648-3.874 7.342-.022.139-.045.277-.063.416l.071.008a30.524 30.524 0 0 0 3.858.206 30.917 30.917 0 0 0 3.88-.2l.064-.007c-.018-.139-.041-.278-.062-.418-.565-3.714-2.027-7.342-3.875-7.342" transform="translate(-13.486 9.62)" style="fill:#fff"/>
        <path data-name="패스 3484" d="m128.4 12.583.032.216c.242-.04.475-.086.7-.135a4.461 4.461 0 0 0 2.314-1.009 8.973 8.973 0 0 0-5.69-6.265c1.462 1.633 2.291 4.785 2.64 7.193" transform="translate(-14.463 9.583)" style="fill:#fff"/>
        <path data-name="패스 3485" d="M114.135 15.909c.924 1.728 6.28 1.835 7.579 1.835h.566c1.3 0 6.654-.105 7.579-1.835a2.242 2.242 0 0 0 .208-.821 4.242 4.242 0 0 0 .016-.428c0-.143 0-.285-.015-.44s-.037-.3-.061-.455a3.991 3.991 0 0 1-.592.336 6.6 6.6 0 0 1-.778.308c-.339.108-.706.2-1.081.278a28.662 28.662 0 0 1-5.564.468h-.353a27.319 27.319 0 0 1-5.2-.471 10.785 10.785 0 0 1-1.063-.282 6.731 6.731 0 0 1-.795-.306 3.909 3.909 0 0 1-.593-.345c-.025.158-.049.316-.063.465s-.015.3-.015.44a4.24 4.24 0 0 0 .016.428 2.226 2.226 0 0 0 .208.821" transform="translate(-12.816 8.421)" style="fill:#fff"/>
        <path data-name="패스 3486" d="M117.254 12.8c.009-.069.022-.144.032-.214.347-2.378 1.186-5.555 2.655-7.2a8.97 8.97 0 0 0-5.7 6.253 4.385 4.385 0 0 0 2.318 1.024c.226.049.457.095.7.134" transform="translate(-12.862 9.584)" style="fill:#fff"/>
    </g>
</svg>
