<svg xmlns="http://www.w3.org/2000/svg" width="173.666" height="120" viewBox="0 0 173.666 120">
    <defs>
        <clipPath id="b4oe3qmjka">
            <path data-name="사각형 2985" style="fill:none" d="M0 0h50v53H0z"/>
        </clipPath>
        <clipPath id="w3smzlspab">
            <path data-name="사각형 1982" style="fill:none" d="M0 0h129.167v66.667H0z"/>
        </clipPath>
    </defs>
    <g data-name="그룹 2256" style="clip-path:url(#b4oe3qmjka)" transform="translate(123.666)">
        <path data-name="패스 6572" d="m15.608 1.915-2.447 1.139-2.832 2.076-2.493 2.732-1.465 2.363-.916 2.493-.155 2.45.529 2.179 1.1 1.6-.939-.266-.912-.1-.642.176-.611.412-.621.671-1.148 2.46-.462 1.935-.372 2.565.1 3.339.426 2.536.569 1.184.91.553 1.133.209-.877 1.161-.541 1.318.158 1.931.632 2.8 1.465 1.9 1.21.95h.969l.946-.225-.161 1.074.645 1.519.754 1.192 2.175 1.6 1.984.727 2.427.339 1.495-.27.681-.514.263 1.1.564.722.966.705 1.879.636 2.063.361h3.135s2.454-.308 2.483-.317 1.222-.794 1.222-.794l.711-1.872.866.961 1.238.234 1.316-.017 2.823-.355 2.91-1.316 1.506-1.551 1.083-1.539.38-1.29-.207-1.7-.023-.478 1.08.372 1.253-.373 1.029-.5 1.3-1.226L49.565 40l1.119-3.6-.217-2.446-.339-1.86-.619-1.649-.638-1.075-.961-.87.3-1.086.4-1.3.342-2.448-.1-1.888-.621-1.594-.79-1.184-.339-.292-.041-.432.635-.728.281-1.757-.33-1.567-.883-1.844-1.364-1.387-1.389-1.2-1.291-.609-1.608.04-1.157.776-.141-.7-.289-1.629-1.182-1.842-1.672-1.242-2.853-1.247-2.425-.475-2.027-.065-1.752.577-.924 1.072-.468.805-.971-1.311-1.756-1.606-3.157-.975-2.609.026z" transform="translate(-.903 -1.007)" style="fill:#ffffe1"/>
        <path data-name="패스 6573" d="M64.475 58.192s-1.953 9.226 1.488 10.846 8.137 1.116 8.137 1.116a4.271 4.271 0 0 0 3.719-3 8.3 8.3 0 0 0 .037-4.926z" transform="translate(-47.301 -43.068)" style="fill:#e6e6c1"/>
        <path data-name="패스 6574" d="M80.346 184.8a10.512 10.512 0 0 1-5.861 1.917 13.258 13.258 0 0 1-6.454-2.064l-.284.822.366 1.826 1.677.944 3.045.806 4.691.181 2.658-.694.529-1.6z" transform="translate(-50.13 -136.662)" style="fill:#e1e1b9"/>
        <path data-name="패스 6575" d="M28.555 162.91a6.687 6.687 0 0 0 1.2 2.867 7.106 7.106 0 0 0 6.491 2.712 6.944 6.944 0 0 0 2.8-1.007l-1.086 2.883-1.339.354-4.4-.755-2.821-2.12a4.8 4.8 0 0 1-1.369-2.993l.527-1.941" transform="translate(-20.739 -120.571)" style="fill:#e1e1b9"/>
        <path data-name="패스 6576" d="M18.549 162.146a4.87 4.87 0 0 1-4.042-.268l1.375 1.336.811.18 1.009-.121z" transform="translate(-10.734 -119.807)" style="fill:#e1e1b9"/>
        <path data-name="패스 6577" d="M11.759 126.107s-2.824 2.529-2.978 3.73v-1.692l.779-1.106.394-.722z" transform="translate(-6.496 -93.333)" style="fill:#e1e1b9"/>
        <path data-name="패스 6578" d="M14.892 70.251s-4.755 1.374-8.492.279l1.26-2.037 1.586-.542z" transform="translate(-4.734 -50.29)" style="fill:#e6e6c1"/>
        <path data-name="패스 6579" d="M128.025 160.313a7.177 7.177 0 0 1-.926 3.857s-2.263 3.873-8.005 3.543a3.1 3.1 0 0 1-1.354-.358 3.065 3.065 0 0 1-1.075-1 3.32 3.32 0 0 0 .349 1.985 3.273 3.273 0 0 0 1.034 1.155l2.386.023 2.157-.271 2.4-1.139 2.685-1.811 1.463-2.448-.207-2.084-.9-1.455" transform="translate(-86.307 -118.649)" style="fill:#e1e1b9"/>
        <path data-name="패스 6580" d="M169.3 126.781a10.218 10.218 0 0 1-7.49 8.715l.525.977h1.709l2.148-.859 1.54-1.316 1.766-4.115-.2-3.4" transform="translate(-119.739 -93.831)" style="fill:#e1e1b9"/>
        <path data-name="패스 6581" d="M174.84 94.654a4.593 4.593 0 0 1-2.94 2.516s1.259-.071 1.265-.1 1.018.257 1.018.257z" transform="translate(-127.199 -70.054)" style="fill:#e1e1b9"/>
        <path data-name="패스 6582" d="M174.353 73.669a14.727 14.727 0 0 0-3.576-5.284l1.794-.137 1.129 1.479.653 3.943" transform="translate(-126.372 -50.51)" style="fill:#e1e1b9"/>
        <path data-name="패스 6583" d="M153.176 34.669a6.314 6.314 0 0 0-5.081-1.334 5.931 5.931 0 0 0-3.072 1.742l1.344-2.749 1.526-.847 1.239.034 4.044 3.155" transform="translate(-107.314 -23.299)" style="fill:#e6e6c1"/>
        <path data-name="패스 6584" d="M105.919 7.845a6.651 6.651 0 0 0-5.609 1.494 6.263 6.263 0 0 0-1.886 3.736l-1.05-3.653 1.392-1.874 2.024-.608 5.129.9" transform="translate(-72.054 -5.136)" style="fill:#e6e6c1"/>
        <path data-name="패스 6585" d="M79.677 41.842a14.463 14.463 0 0 0-7.693-2.377c-2.057-.058-5.269-.126-6.438 1.962-.93 1.66-1.7 7.2-.123 10.76s10.038 2.929 11.248 1.922 1.66-2.063 1.426-5.62" transform="translate(-47.741 -29.193)" style="fill:#ffffe6"/>
        <path data-name="패스 6586" d="M24.562 26.025a15.046 15.046 0 0 1-3.369-.36c-1.953-.457-3.268-1.336-3.8-2.542-1.63-3.683-.827-9.323.136-11.044 1.275-2.277 4.685-2.182 6.724-2.124a14.8 14.8 0 0 1 7.861 2.431.318.318 0 1 1-.354.527 14.17 14.17 0 0 0-7.524-2.324c-1.894-.052-5.064-.142-6.151 1.8-.931 1.664-1.6 7.1-.109 10.477.569 1.284 2.144 1.895 3.366 2.18 2.965.694 6.722.181 7.388-.373 1.113-.927 1.541-1.875 1.312-5.356a.318.318 0 0 1 .3-.338.312.312 0 0 1 .338.3c.246 3.735-.276 4.834-1.54 5.885-.574.478-2.453.864-4.571.864"/>
        <path data-name="패스 6587" d="M10.481 20.232a.317.317 0 0 1-.071-.008c-2.539-.583-6.016-1.382-6.353-6.319a9.008 9.008 0 0 1 .918-4.357A17.661 17.661 0 0 1 14.855.56a9.637 9.637 0 0 1 7.877.608c3.7 2.067 3.673 6.969 3.67 7.176a.315.315 0 0 1-.322.313.318.318 0 0 1-.314-.321c0-.047.018-4.733-3.344-6.614a9.019 9.019 0 0 0-7.37-.558 16.988 16.988 0 0 0-9.5 8.649 8.387 8.387 0 0 0-.862 4.049C4.973 18 7.403 18.881 10.552 19.6a.318.318 0 0 1-.071.627"/>
        <path data-name="패스 6588" d="M3.391 33.3a2.78 2.78 0 0 1-1.7-.527c-1.9-1.409-1.819-5.282-1.536-8.5a12.227 12.227 0 0 1 2.247-5.944 2.468 2.468 0 0 1 3.127-.778c.631.325 1.36.679 1.367.682a.318.318 0 0 1-.277.572c-.007 0-.743-.36-1.381-.689a1.829 1.829 0 0 0-2.317.581 11.59 11.59 0 0 0-2.134 5.631c-.247 2.815-.382 6.7 1.282 7.934.728.54 1.793.536 3.166-.015a.318.318 0 1 1 .237.59 5.673 5.673 0 0 1-2.08.463"/>
        <path data-name="패스 6589" d="M6.148 43.995a2.151 2.151 0 0 1-.3-.021c-.847-.117-2.442-.854-3.608-4.472-1.714-5.325 1.216-6.764 1.342-6.822a.318.318 0 0 1 .271.575c-.107.052-2.539 1.293-1.007 6.052 1.1 3.41 2.526 3.959 3.089 4.037a1.249 1.249 0 0 0 1.213-.458.318.318 0 0 1 .53.351 1.85 1.85 0 0 1-1.534.757"/>
        <path data-name="패스 6590" d="M15.374 50.374a11.911 11.911 0 0 1-4.387-1.075c-2.388-1.092-3.889-2.96-4.014-5-.153-2.473 1.806-2.674 1.826-2.676a.313.313 0 0 1 .345.288.318.318 0 0 1-.287.344c-.141.015-1.361.194-1.25 2s1.473 3.469 3.645 4.461c1.388.634 4.079 1.408 5.393.787a1.152 1.152 0 0 0 .665-.778.318.318 0 0 1 .615.162 1.775 1.775 0 0 1-1.008 1.19 3.636 3.636 0 0 1-1.542.291"/>
        <path data-name="패스 6591" d="M24.965 53.001c-2.114 0-4.595-.258-6.159-1.181a2.922 2.922 0 0 1-1.457-1.87 4.7 4.7 0 0 1 .692-3.211.318.318 0 0 1 .533.346 4.119 4.119 0 0 0-.606 2.723 2.314 2.314 0 0 0 1.16 1.465c2.588 1.526 8.123 1.083 9.379.827a2.415 2.415 0 0 0 1.775-2.89.318.318 0 0 1 .63-.085 3.028 3.028 0 0 1-2.279 3.6 21.575 21.575 0 0 1-3.67.278"/>
        <path data-name="패스 6592" d="M33.754 51.324a13.616 13.616 0 0 1-2.061-.16c-1.142-.175-1.783-3.095-1.952-3.985a.318.318 0 0 1 .625-.119c.308 1.62.954 3.4 1.424 3.476a10.183 10.183 0 0 0 7.95-1.757c.97-.786 2.62-2.381 2.763-4.228a3.513 3.513 0 0 0-1.02-2.675.318.318 0 0 1 .471-.426 4.12 4.12 0 0 1 1.183 3.15c-.161 2.085-1.946 3.823-3 4.673a10.1 10.1 0 0 1-6.386 2.05"/>
        <path data-name="패스 6593" d="M43.825 43.131a3.42 3.42 0 0 1-1.693-.42.318.318 0 0 1 .343-.535c.084.052 2.033 1.231 4.376-1.18 2.578-2.653 3.19-6.326 1.768-10.622a4.205 4.205 0 0 0-2.032-2.7 2.825 2.825 0 0 0-2.075-.067.318.318 0 0 1-.248-.585 3.424 3.424 0 0 1 2.577.069 4.786 4.786 0 0 1 2.382 3.087c1.5 4.536.839 8.431-1.915 11.264a4.83 4.83 0 0 1-3.481 1.693"/>
        <path data-name="패스 6594" d="M47.006 27.853a.318.318 0 0 1-.293-.442c.027-.064 2.677-6.444-.967-9.741a.318.318 0 1 1 .427-.471c3.982 3.6 1.244 10.182 1.126 10.461a.318.318 0 0 1-.293.193"/>
        <path data-name="패스 6595" d="M44.987 18.021a2.127 2.127 0 0 1-.71-.122.318.318 0 1 1 .211-.6 1.562 1.562 0 0 0 1.3-.133 1.857 1.857 0 0 0 .9-1.217c.5-2.406-1.841-5.9-4.113-7.066a3.158 3.158 0 0 0-2.415-.281 1.843 1.843 0 0 0-1.1 1.037.318.318 0 0 1-.581-.258 2.487 2.487 0 0 1 1.47-1.379 3.8 3.8 0 0 1 2.917.315c2.482 1.277 5.017 5.024 4.444 7.761a2.5 2.5 0 0 1-1.21 1.64 2.263 2.263 0 0 1-1.113.3"/>
        <path data-name="패스 6596" d="M37.455 11.88a.318.318 0 0 1-.175-.583c.075-.05 1.761-1.215 1.2-4.046-.523-2.648-4.134-4.082-5.663-4.576-.041-.013-4.165-1.254-6.127.128a2.392 2.392 0 0 0-.982 2.032.313.313 0 0 1-.327.308.317.317 0 0 1-.308-.327 3.024 3.024 0 0 1 1.251-2.53c2.246-1.584 6.645-.228 6.689-.214 2.031.656 5.524 2.186 6.091 5.058.646 3.27-1.389 4.643-1.476 4.7a.316.316 0 0 1-.174.052"/>
        <path data-name="패스 6597" d="M29.001 28.405a.779.779 0 0 0-.779.778v.779a.779.779 0 0 0 1.557 0v-.779a.779.779 0 0 0-.779-.778"/>
        <path data-name="패스 6598" d="M29.006 31.098a1.138 1.138 0 0 1-1.137-1.136v-.778a1.137 1.137 0 0 1 2.274 0v.778a1.138 1.138 0 0 1-1.137 1.136m0-2.335a.421.421 0 0 0-.421.42v.778a.421.421 0 0 0 .842 0v-.778a.421.421 0 0 0-.421-.42"/>
        <path data-name="패스 6599" d="M20.439 28.405a.779.779 0 0 0-.779.778v.779a.779.779 0 0 0 1.557 0v-.779a.779.779 0 0 0-.779-.778"/>
        <path data-name="패스 6600" d="M20.439 31.098a1.138 1.138 0 0 1-1.137-1.136v-.778a1.137 1.137 0 0 1 2.274 0v.778a1.138 1.138 0 0 1-1.137 1.136m0-2.335a.421.421 0 0 0-.421.42v.778a.421.421 0 0 0 .842 0v-.778a.421.421 0 0 0-.421-.42"/>
        <path data-name="패스 6602" d="M81.106 128.953a4.9 4.9 0 0 1-4.9-4.9v-.075h9.8v.075a4.9 4.9 0 0 1-4.9 4.9" transform="translate(-56.389 -91.758)" style="fill:#ed8062"/>
        <path data-name="패스 6603" d="M24.716 37.514a5.225 5.225 0 0 1-5.22-5.218v-.075a.318.318 0 0 1 .318-.318h9.8a.318.318 0 0 1 .318.318v.075a5.225 5.225 0 0 1-5.22 5.218m-4.577-4.974a4.584 4.584 0 0 0 9.155 0z"/>
        <path data-name="패스 6607" d="M102.9 150.281s-.483 2.517.2 3.2c.941.946 2.865 1.888 7.044 1.733l-2.626-.781-1.836-.951-1.434-1.155-1.085-1.139z" transform="translate(-76.019 -111.224)" style="fill:#e6e6c1"/>
        <path data-name="패스 6608" d="M115.835 129.5a38.171 38.171 0 0 0-4.728-3.693c-1.94-1.108-3.14-1.646-5.529-.505-1.58.754-4.723 5.072-2.064 7.579a14.056 14.056 0 0 0 6.831 3.431" transform="translate(-75.835 -92.267)" style="fill:#ffffe6"/>
        <path data-name="패스 6609" d="M105.129 142.761a16.108 16.108 0 0 0 5.874 4.21l-4.57-1.554-2.261-1.878-.8-1.556.252-2.914c.544 2.54 1.185 3.329 1.5 3.691" transform="translate(-76.494 -102.927)" style="fill:#e6e6c1"/>
        <path data-name="패스 6610" d="M34.509 44.362a.324.324 0 0 1-.083-.011 14.324 14.324 0 0 1-6.967-3.507 3.613 3.613 0 0 1-1.074-3.33 7.285 7.285 0 0 1 3.22-4.766c2.549-1.217 3.874-.6 5.823.516a38.8 38.8 0 0 1 4.78 3.73.318.318 0 0 1-.42.477 38.3 38.3 0 0 0-4.676-3.656c-1.876-1.072-2.961-1.58-5.234-.494a6.77 6.77 0 0 0-2.866 4.291 2.965 2.965 0 0 0 .882 2.77 13.792 13.792 0 0 0 6.7 3.356.318.318 0 0 1-.082.624"/>
    </g>
    <path data-name="logo_bg" d="M33.128 82.563a47.143 47.143 0 0 0-1.9-5.519 140.41 140.41 0 0 1-8.712-2.133 78.891 78.891 0 0 1-12.056-4.339C3.789 67.428 0 63.826 0 60c0-6.857 12.166-12.985 31.271-17.053C38.349 18.119 60.463 0 86.666 0s48.317 18.119 55.395 42.945c19.1 4.068 31.271 10.2 31.271 17.053a6.528 6.528 0 0 1-1 3.378 16.617 16.617 0 0 1-5.812 5.255c-.548.333-1.126.659-1.735.984-.868.461-1.821.911-2.808 1.354a74.98 74.98 0 0 1-8.436 3.136c-2.65.822-5.526 1.593-8.6 2.31-.938.217-1.9.429-2.877.637l-.856.181a101.045 101.045 0 0 0-1 5.329C131.616 104.515 110.889 120 86.666 120s-44.95-15.485-53.538-37.437z" style="fill:#1e90ff"/>
    <g data-name="그룹 412" style="clip-path:url(#w3smzlspab)" transform="translate(22.749 26.667)">
        <path data-name="패스 3442" d="M121.971 24.028c.074-.069.144-.14.213-.214.1-.091.2-.182.294-.282s.2-.182.294-.282.2-.182.293-.282.2-.182.293-.282.2-.182.294-.282a4.241 4.241 0 0 0 1.443-3.148V19.2a4.255 4.255 0 0 0-1.248-3.027c.069-.068.139-.134.2-.208a4.1 4.1 0 0 0 .605-.908 3.7 3.7 0 0 0 .384-1.428l.01-.141c.011-.149.021-.3.023-.446.033-2.632.03-6.438-.006-8.853a4.154 4.154 0 0 0-4.069-4.104c-2.234-.052-7.509-.07-11.7-.07-5.268 0-9.73.026-11.643.068a4.341 4.341 0 0 0-3.663 2.144A4.139 4.139 0 0 0 90.36 0h-.91a4.131 4.131 0 0 0-3.893 2.856c-.052.118-.08.247-.12.369l-.12.368-.121.368-.12.369a3.842 3.842 0 0 0-.121.37c-.051.116-.079.243-.119.365l-.121.371c-.02.045-.029.1-.047.141A10.984 10.984 0 0 0 74.97.624c-3.442 0-8.652 1.159-10.963 7.58a410.53 410.53 0 0 0-.047-4.09 4.152 4.152 0 0 0-4.128-4.09H58.99A4.16 4.16 0 0 0 55.962 1.4 4.144 4.144 0 0 0 53.054.188h-.747A4.118 4.118 0 0 0 48.2 4.277c-.015 1.288-.031 2.781-.046 4.645-.014-.061-.04-.115-.056-.174-.022-.123-.051-.243-.083-.362s-.052-.247-.085-.368-.051-.241-.083-.359-.051-.246-.084-.366-.051-.243-.083-.363-.051-.243-.083-.362-.052-.246-.085-.367-.051-.243-.083-.362-.052-.246-.084-.366-.051-.242-.083-.36-.052-.246-.084-.367-.052-.243-.083-.361-.052-.244-.084-.363A4.2 4.2 0 0 0 42.9.541a360.78 360.78 0 0 0-3.886-.019c-1.316 0-2.633.006-3.783.018a4.406 4.406 0 0 0-3.913 2.529c-.015-.033-.034-.061-.05-.093a3.77 3.77 0 0 0-.162-.372A3.874 3.874 0 0 0 27.481.066h-.128c-1.739-.018-6.19-.03-11.4-.03-4.064 0-9.096.007-11.053.03h-.117A3.873 3.873 0 0 0 2.1 6.619 4.037 4.037 0 0 0 1.027 9.3a3.839 3.839 0 0 0 .693 2.2A3.741 3.741 0 0 0 0 14.624v.042a3.721 3.721 0 0 0 1.238 2.741c.064.073.121.153.191.222a3.529 3.529 0 0 0-.639 2.019v.052a3.587 3.587 0 0 0 1.13 2.618 4.139 4.139 0 0 0-1 2.608 65.57 65.57 0 0 0 0 3.492 4.111 4.111 0 0 0 1.786 3.3c.1.079.184.166.288.236s.184.166.287.236.184.166.287.236a3.716 3.716 0 0 0 .288.237c.1.079.184.166.287.236s.186.167.289.237.183.165.284.234.186.167.289.238.186.167.289.237.183.165.285.235.185.166.288.236.185.167.288.238.183.165.286.235.186.167.289.237.183.165.286.235.184.166.286.236.187.167.29.238.183.165.286.235a3.705 3.705 0 0 0 .288.237c.1.08.186.167.289.237a3.669 3.669 0 0 0 .287.235 3.68 3.68 0 0 0 .287.236 3.718 3.718 0 0 0 .288.237 3.555 3.555 0 0 0 .288.237c.1.079.184.166.288.236a3.508 3.508 0 0 0 .286.235 3.705 3.705 0 0 0 .288.237 3.432 3.432 0 0 0 .29.237 3.6 3.6 0 0 0 .283.234c.1.081.187.168.291.238a3.508 3.508 0 0 0 .286.235 3.556 3.556 0 0 0 .289.238 3.681 3.681 0 0 0 .287.236 3.694 3.694 0 0 0 .288.236 3.679 3.679 0 0 0 .287.236 3.682 3.682 0 0 0 .287.236 3.433 3.433 0 0 0 .29.238 3.646 3.646 0 0 0 .285.235 3.738 3.738 0 0 0 .289.237 3.621 3.621 0 0 0 .284.234 3.5 3.5 0 0 0 2.205.85c1.413.029 4.823.047 8.9.047 4.452 0 8.24-.022 9.651-.054a3.2 3.2 0 0 0 2.956-2.169 4.024 4.024 0 0 0 2.98 1.394c1 .018 2.508.028 4.15.028 1.788 0 3.407-.011 4.44-.031a3.836 3.836 0 0 0 2.2-.754 3.614 3.614 0 0 0 2.642 1.2h.616a3.622 3.622 0 0 0 2.139-.732 3.629 3.629 0 0 0 2.577 1.128h.722a3.65 3.65 0 0 0 3.633-3.6c.012-.614.021-1.353.029-2.168a8.908 8.908 0 0 0 8.447 4.932 9.157 9.157 0 0 0 7.353-3.2 9.434 9.434 0 0 0 .583-.8l.018 1.259a3.641 3.641 0 0 0 3.579 3.593q.254.005.509 0h.268a3.642 3.642 0 0 0 2.857-1.427 3.276 3.276 0 0 0 .555.583 4.139 4.139 0 0 0 2.5.805c1.364.017 4.08.028 7.451.028 4.633 0 9.184-.018 11.069-.043a3.7 3.7 0 0 0 2.32-.878c.1-.071.2-.157.292-.237s.2-.157.293-.237.194-.156.291-.236a3.734 3.734 0 0 0 .29-.236c.105-.071.2-.157.294-.238s.194-.157.291-.236l.29-.236.292-.237c.097-.08.2-.157.293-.237s.194-.156.29-.235.2-.158.293-.238.195-.157.292-.237.193-.156.29-.235.2-.157.293-.238.193-.156.289-.235.2-.157.293-.237.2-.157.293-.238.193-.157.29-.236l.291-.236.292-.237c.097-.08.2-.157.293-.237s.194-.157.291-.236l.29-.236c.097-.079.2-.158.294-.238s.193-.156.289-.235a3.626 3.626 0 0 0 .292-.237c.1-.07.194-.157.291-.236l.292-.236c.097-.079.2-.157.293-.237s.193-.156.29-.235.2-.158.293-.237.194-.157.292-.237l.29-.236c.097-.079.2-.157.293-.237s.193-.156.29-.235.2-.157.292-.237.2-.158.293-.237.194-.157.292-.237l.289-.235c.097-.079.2-.158.294-.238a4.268 4.268 0 0 0 1.881-3.526v-.059a4.27 4.27 0 0 0-3.123-4.083" transform="translate(1.667 16.667)" style="fill:#1e90ff"/>
        <path data-name="패스 3443" d="M139.834 30.093h-2.175c-4.917 0-16.352.011-17.2.023h-.09c-.209 0-.528-.022-.543-.241a2.207 2.207 0 0 0-.242-1.247 2.356 2.356 0 0 0-1.026-.828 3.963 3.963 0 0 0-1.634-.334 3.053 3.053 0 0 0-2.573 1.121 2.8 2.8 0 0 0-.317 1.687c0 .7-.011 1.422 0 2.123a4.106 4.106 0 0 0 .171 1.365 2.421 2.421 0 0 0 .733 1.059 3.08 3.08 0 0 0 1.841.542c1.846.024 5.423.034 9.274.034 5.4 0 11.336-.021 13.822-.054a2.589 2.589 0 0 0 2.553-2.593v-.06a2.611 2.611 0 0 0-2.6-2.6" transform="translate(-17.338 12.089)" style="fill:#fff"/>
        <path data-name="패스 3444" d="M128.047 24.77c4.737 0 9.512-.007 11.807-.022a2.6 2.6 0 0 0 2.578-2.586v-.056a2.6 2.6 0 0 0-2.572-2.613c-1.578-.014-7.328-.029-8.609-.032a.476.476 0 0 1-.479-.328c0-.008-.007-.009-.01-.016-.271-1.266-1.936-1.641-2.709-1.641h-.759c-.653 0-2.435.368-2.708 1.628-.005.012-.013.015-.018.029a.492.492 0 0 1-.493.328h-.012.006c-1.163.01-7.234.014-7.46.017a2.6 2.6 0 0 0-2.574 2.607v.053a2.606 2.606 0 0 0 2.591 2.608c2.216.014 6.8.022 11.424.022" transform="translate(-17.338 13.754)" style="fill:#fff"/>
        <path data-name="패스 3445" d="M136.4 13.823a.446.446 0 0 1 .433.291 2.472 2.472 0 0 0 2.423 1.931h.678a2.505 2.505 0 0 0 1.866-.845 2.447 2.447 0 0 0 .36-.541 2.012 2.012 0 0 0 .217-.794c.01-.169.028-.339.03-.508.032-2.619.03-6.371-.006-8.808a2.5 2.5 0 0 0-2.444-2.464c-2.009-.046-6.839-.069-11.67-.069-4.772 0-9.545.023-11.6.068a2.723 2.723 0 0 0-2.659 2.739v.066a2.7 2.7 0 0 0 2.67 2.7h1.212c4.149 0 17.061-.03 18.338-.03h.092a.521.521 0 0 1 0 1.041H116.551a2.543 2.543 0 0 0-2.522 2.555v.063a2.562 2.562 0 0 0 2.537 2.565l19.658.029h.051a1.151 1.151 0 0 1 .119.006" transform="translate(-17.338 16.33)" style="fill:#fff"/>
        <path data-name="패스 3446" d="M62.332 2.225h-.712a2.477 2.477 0 0 0-2.458 2.443 1486.04 1486.04 0 0 0-.057 5.98.436.436 0 0 1-.433.433H58.2a2.427 2.427 0 0 0-2.423 2.411v.5a2.426 2.426 0 0 0 2.4 2.408l.491.005a.434.434 0 0 1 .432.433c0 4.441.017 8.8.048 11.388a2.481 2.481 0 0 0 2.441 2.455h.726a2.489 2.489 0 0 0 2.474-2.459c.065-5.413.065-18.155 0-23.554a2.476 2.476 0 0 0-2.458-2.444" transform="translate(-7.629 16.296)" style="fill:#fff"/>
        <path data-name="패스 3447" d="M71.11 2.029h-.804A2.5 2.5 0 0 0 67.825 4.5a1986.89 1986.89 0 0 0 0 24.169 2.489 2.489 0 0 0 2.439 2.473H71.11a2.5 2.5 0 0 0 2.48-2.454c.1-5.49.1-18.693 0-24.212a2.5 2.5 0 0 0-2.48-2.447" transform="translate(-9.631 16.329)" style="fill:#fff"/>
        <path data-name="패스 3448" d="M52.661 24.6c-.557-.007-1.408-.009-2.311-.009-1.4 0-2.919.007-3.66.021h-.03a1.542 1.542 0 0 1-1.543-1.526c-.01-.758-.01-1.616 0-2.372a1.542 1.542 0 0 1 1.542-1.525h.029c.5.009 1.06.014 1.634.014.353 0 .711 0 1.06-.006a2.571 2.571 0 0 0 2.544-2.524c.057-3.153.057-8.346 0-11.5a2.565 2.565 0 0 0-2.539-2.523 402.387 402.387 0 0 0-7.631-.002A2.743 2.743 0 0 0 39.048 5.4v.062a2.73 2.73 0 0 0 2.707 2.729h.944c.729 0 1.4-.006 2.1-.017h.023A1.281 1.281 0 0 1 46.1 9.44c.014.915.014 2.064 0 3a1.285 1.285 0 0 1-1.285 1.26h-.033a86.01 86.01 0 0 0-2.164-.025h-.54a3.006 3.006 0 0 0-3 2.955c-.047 3.029-.047 7.6 0 10.621a2.994 2.994 0 0 0 2.943 2.949c1.292.022 3.216.033 5.153.033 2.076 0 4.168-.013 5.51-.038a2.765 2.765 0 0 0 2.708-2.768v-.064a2.761 2.761 0 0 0-2.731-2.763" transform="translate(-4.84 16.229)" style="fill:#fff"/>
        <path data-name="패스 3449" d="M107.724 2h-.873a2.493 2.493 0 0 0-2.473 2.446c-.1 5.463-.1 18.828 0 24.267a2.485 2.485 0 0 0 2.432 2.446c.2 0 .4.006.6.006h.318a2.491 2.491 0 0 0 2.471-2.44c.115-5.433.115-18.821 0-24.283A2.494 2.494 0 0 0 107.724 2" transform="translate(-15.717 16.333)" style="fill:#fff"/>
        <path data-name="패스 3450" d="M87.869 2.749c-6.257 0-10.472 4.08-10.472 13.737 0 9.317 3.943 13.738 10.472 13.738 6.257 0 10.474-4.081 10.474-13.738 0-9.283-3.912-13.737-10.474-13.737m5.41 15.118-8.363 4.906a1.347 1.347 0 0 1-2.029-1.158V11.8a1.347 1.347 0 0 1 2.029-1.158l8.363 4.906a1.342 1.342 0 0 1 0 2.317" transform="translate(-11.232 16.209)" style="fill:#fff"/>
        <path data-name="패스 3451" d="M28.9 15.036c-2.028-.023-7.337-.033-12.6-.033-5.134 0-10.222.01-12.172.032A2.124 2.124 0 0 0 2 17.125v.042a2.126 2.126 0 0 0 2.136 2.09c1.95.023 7.039.033 12.172.033 5.26 0 10.568-.01 12.6-.033a2.123 2.123 0 0 0 2.134-2.1v-.043a2.125 2.125 0 0 0-2.142-2.078" transform="translate(1.333 14.166)" style="fill:#fff"/>
        <path data-name="패스 3452" d="M16.959 21.295c-5.137 0-10.384.013-12.223.038a1.85 1.85 0 0 0-1.79 1.867v.047a1.864 1.864 0 0 0 1.824 1.9c1.45.008 4.512.013 7.809.013 4.793 0 10.084-.009 11.649-.027a.511.511 0 0 1 0 1.022c-2.049 0-11.174-.015-16.24-.015H5.445a2.406 2.406 0 0 0-2.368 2.376c-.031 1.2-.03 2.222 0 3.406A2.4 2.4 0 0 0 5.4 34.289c1.9.038 6.455.057 11.089.057 5 0 10.09-.022 12.008-.068a2.007 2.007 0 0 0-.027-4.01c-1.5-.008-4.664-.012-8.015-.012-4.84 0-10.074.008-11.273.026a.5.5 0 0 1 0-1c1.615 0 10.175.022 15.451.022 1.442 0 2.638 0 3.38-.006a2.423 2.423 0 0 0 2.373-2.4 59.481 59.481 0 0 0-.007-3.215 2.4 2.4 0 0 0-2.348-2.364c-1.839-.022-6.412-.032-11.077-.032" transform="translate(1.176 13.118)" style="fill:#fff"/>
        <path data-name="패스 3453" d="M5.444 11.857c1.866.02 6.44.03 11.058.03 4.755 0 9.556-.01 11.5-.031h.039a2.207 2.207 0 0 0 2.184-2.148c0-.021.007-.041.007-.062a2.213 2.213 0 0 0-2.213-2.213H27.428a.468.468 0 1 1 0-.935H28.019a2.194 2.194 0 0 0 .763-.143c.023-.008.048-.012.07-.022.044-.018.083-.043.127-.062A2.207 2.207 0 0 0 30.23 4.29v-.005a2.212 2.212 0 0 0-2.213-2.212h-.03c-1.843-.021-6.7-.032-11.5-.032-4.666 0-9.283.01-11.041.03a2.207 2.207 0 0 0-.563 4.343c.047.012.091.029.139.038s.087.008.131.013a2.243 2.243 0 0 0 .293.029H6.02a.468.468 0 1 1 0 .935H5.448A2.206 2.206 0 0 0 3.266 9.3a2.121 2.121 0 0 0-.035.343 2.211 2.211 0 0 0 2.211 2.212M11.229 6.5h11a.468.468 0 1 1 0 .935h-11a.468.468 0 1 1 0-.935" transform="translate(1.128 16.326)" style="fill:#fff"/>
        <path data-name="패스 3454" d="M85.759 13.072a.513.513 0 0 0-.774.439v.933l8.328 4.886.808-.474a.508.508 0 0 0 0-.878z" transform="translate(-12.497 14.5)" style="fill:#fff"/>
    </g>
</svg>
