<svg xmlns="http://www.w3.org/2000/svg" width="173.666" height="120" viewBox="0 0 173.666 120">
    <defs>
        <clipPath id="dq7fk3gdwa">
            <path data-name="사각형 2985" style="fill:none" d="M0 0h50v53H0z"/>
        </clipPath>
        <clipPath id="dcfz1jqfcb">
            <path data-name="사각형 1981" style="fill:none" d="M0 0h95.834v66.667H0z"/>
        </clipPath>
    </defs>
    <g data-name="그룹 2256" style="clip-path:url(#dq7fk3gdwa)" transform="translate(123.666)">
        <path data-name="패스 6572" d="m15.608 1.915-2.447 1.139-2.832 2.076-2.493 2.732-1.465 2.363-.916 2.493-.155 2.45.529 2.179 1.1 1.6-.939-.266-.912-.1-.642.176-.611.412-.621.671-1.148 2.46-.462 1.935-.372 2.565.1 3.339.426 2.536.569 1.184.91.553 1.133.209-.877 1.161-.541 1.318.158 1.931.632 2.8 1.465 1.9 1.21.95h.969l.946-.225-.161 1.074.645 1.519.754 1.192 2.175 1.6 1.984.727 2.427.339 1.495-.27.681-.514.263 1.1.564.722.966.705 1.879.636 2.063.361h3.135s2.454-.308 2.483-.317 1.222-.794 1.222-.794l.711-1.872.866.961 1.238.234 1.316-.017 2.823-.355 2.91-1.316 1.506-1.551 1.083-1.539.38-1.29-.207-1.7-.023-.478 1.08.372 1.253-.373 1.029-.5 1.3-1.226L49.565 40l1.119-3.6-.217-2.446-.339-1.86-.619-1.649-.638-1.075-.961-.87.3-1.086.4-1.3.342-2.448-.1-1.888-.621-1.594-.79-1.184-.339-.292-.041-.432.635-.728.281-1.757-.33-1.567-.883-1.844-1.364-1.387-1.389-1.2-1.291-.609-1.608.04-1.157.776-.141-.7-.289-1.629-1.182-1.842-1.672-1.242-2.853-1.247-2.425-.475-2.027-.065-1.752.577-.924 1.072-.468.805-.971-1.311-1.756-1.606-3.157-.975-2.609.026z" transform="translate(-.903 -1.007)" style="fill:#ffffe1"/>
        <path data-name="패스 6573" d="M64.475 58.192s-1.953 9.226 1.488 10.846 8.137 1.116 8.137 1.116a4.271 4.271 0 0 0 3.719-3 8.3 8.3 0 0 0 .037-4.926z" transform="translate(-47.301 -43.068)" style="fill:#e6e6c1"/>
        <path data-name="패스 6574" d="M80.346 184.8a10.512 10.512 0 0 1-5.861 1.917 13.258 13.258 0 0 1-6.454-2.064l-.284.822.366 1.826 1.677.944 3.045.806 4.691.181 2.658-.694.529-1.6z" transform="translate(-50.13 -136.662)" style="fill:#e1e1b9"/>
        <path data-name="패스 6575" d="M28.555 162.91a6.687 6.687 0 0 0 1.2 2.867 7.106 7.106 0 0 0 6.491 2.712 6.944 6.944 0 0 0 2.8-1.007l-1.086 2.883-1.339.354-4.4-.755-2.821-2.12a4.8 4.8 0 0 1-1.369-2.993l.527-1.941" transform="translate(-20.739 -120.571)" style="fill:#e1e1b9"/>
        <path data-name="패스 6576" d="M18.549 162.146a4.87 4.87 0 0 1-4.042-.268l1.375 1.336.811.18 1.009-.121z" transform="translate(-10.734 -119.807)" style="fill:#e1e1b9"/>
        <path data-name="패스 6577" d="M11.759 126.107s-2.824 2.529-2.978 3.73v-1.692l.779-1.106.394-.722z" transform="translate(-6.496 -93.333)" style="fill:#e1e1b9"/>
        <path data-name="패스 6578" d="M14.892 70.251s-4.755 1.374-8.492.279l1.26-2.037 1.586-.542z" transform="translate(-4.734 -50.29)" style="fill:#e6e6c1"/>
        <path data-name="패스 6579" d="M128.025 160.313a7.177 7.177 0 0 1-.926 3.857s-2.263 3.873-8.005 3.543a3.1 3.1 0 0 1-1.354-.358 3.065 3.065 0 0 1-1.075-1 3.32 3.32 0 0 0 .349 1.985 3.273 3.273 0 0 0 1.034 1.155l2.386.023 2.157-.271 2.4-1.139 2.685-1.811 1.463-2.448-.207-2.084-.9-1.455" transform="translate(-86.307 -118.649)" style="fill:#e1e1b9"/>
        <path data-name="패스 6580" d="M169.3 126.781a10.218 10.218 0 0 1-7.49 8.715l.525.977h1.709l2.148-.859 1.54-1.316 1.766-4.115-.2-3.4" transform="translate(-119.739 -93.831)" style="fill:#e1e1b9"/>
        <path data-name="패스 6581" d="M174.84 94.654a4.593 4.593 0 0 1-2.94 2.516s1.259-.071 1.265-.1 1.018.257 1.018.257z" transform="translate(-127.199 -70.054)" style="fill:#e1e1b9"/>
        <path data-name="패스 6582" d="M174.353 73.669a14.727 14.727 0 0 0-3.576-5.284l1.794-.137 1.129 1.479.653 3.943" transform="translate(-126.372 -50.51)" style="fill:#e1e1b9"/>
        <path data-name="패스 6583" d="M153.176 34.669a6.314 6.314 0 0 0-5.081-1.334 5.931 5.931 0 0 0-3.072 1.742l1.344-2.749 1.526-.847 1.239.034 4.044 3.155" transform="translate(-107.314 -23.299)" style="fill:#e6e6c1"/>
        <path data-name="패스 6584" d="M105.919 7.845a6.651 6.651 0 0 0-5.609 1.494 6.263 6.263 0 0 0-1.886 3.736l-1.05-3.653 1.392-1.874 2.024-.608 5.129.9" transform="translate(-72.054 -5.136)" style="fill:#e6e6c1"/>
        <path data-name="패스 6585" d="M79.677 41.842a14.463 14.463 0 0 0-7.693-2.377c-2.057-.058-5.269-.126-6.438 1.962-.93 1.66-1.7 7.2-.123 10.76s10.038 2.929 11.248 1.922 1.66-2.063 1.426-5.62" transform="translate(-47.741 -29.193)" style="fill:#ffffe6"/>
        <path data-name="패스 6586" d="M24.562 26.025a15.046 15.046 0 0 1-3.369-.36c-1.953-.457-3.268-1.336-3.8-2.542-1.63-3.683-.827-9.323.136-11.044 1.275-2.277 4.685-2.182 6.724-2.124a14.8 14.8 0 0 1 7.861 2.431.318.318 0 1 1-.354.527 14.17 14.17 0 0 0-7.524-2.324c-1.894-.052-5.064-.142-6.151 1.8-.931 1.664-1.6 7.1-.109 10.477.569 1.284 2.144 1.895 3.366 2.18 2.965.694 6.722.181 7.388-.373 1.113-.927 1.541-1.875 1.312-5.356a.318.318 0 0 1 .3-.338.312.312 0 0 1 .338.3c.246 3.735-.276 4.834-1.54 5.885-.574.478-2.453.864-4.571.864"/>
        <path data-name="패스 6587" d="M10.481 20.232a.317.317 0 0 1-.071-.008c-2.539-.583-6.016-1.382-6.353-6.319a9.008 9.008 0 0 1 .918-4.357A17.661 17.661 0 0 1 14.855.56a9.637 9.637 0 0 1 7.877.608c3.7 2.067 3.673 6.969 3.67 7.176a.315.315 0 0 1-.322.313.318.318 0 0 1-.314-.321c0-.047.018-4.733-3.344-6.614a9.019 9.019 0 0 0-7.37-.558 16.988 16.988 0 0 0-9.5 8.649 8.387 8.387 0 0 0-.862 4.049C4.973 18 7.403 18.881 10.552 19.6a.318.318 0 0 1-.071.627"/>
        <path data-name="패스 6588" d="M3.391 33.3a2.78 2.78 0 0 1-1.7-.527c-1.9-1.409-1.819-5.282-1.536-8.5a12.227 12.227 0 0 1 2.247-5.944 2.468 2.468 0 0 1 3.127-.778c.631.325 1.36.679 1.367.682a.318.318 0 0 1-.277.572c-.007 0-.743-.36-1.381-.689a1.829 1.829 0 0 0-2.317.581 11.59 11.59 0 0 0-2.134 5.631c-.247 2.815-.382 6.7 1.282 7.934.728.54 1.793.536 3.166-.015a.318.318 0 1 1 .237.59 5.673 5.673 0 0 1-2.08.463"/>
        <path data-name="패스 6589" d="M6.148 43.995a2.151 2.151 0 0 1-.3-.021c-.847-.117-2.442-.854-3.608-4.472-1.714-5.325 1.216-6.764 1.342-6.822a.318.318 0 0 1 .271.575c-.107.052-2.539 1.293-1.007 6.052 1.1 3.41 2.526 3.959 3.089 4.037a1.249 1.249 0 0 0 1.213-.458.318.318 0 0 1 .53.351 1.85 1.85 0 0 1-1.534.757"/>
        <path data-name="패스 6590" d="M15.374 50.374a11.911 11.911 0 0 1-4.387-1.075c-2.388-1.092-3.889-2.96-4.014-5-.153-2.473 1.806-2.674 1.826-2.676a.313.313 0 0 1 .345.288.318.318 0 0 1-.287.344c-.141.015-1.361.194-1.25 2s1.473 3.469 3.645 4.461c1.388.634 4.079 1.408 5.393.787a1.152 1.152 0 0 0 .665-.778.318.318 0 0 1 .615.162 1.775 1.775 0 0 1-1.008 1.19 3.636 3.636 0 0 1-1.542.291"/>
        <path data-name="패스 6591" d="M24.965 53.001c-2.114 0-4.595-.258-6.159-1.181a2.922 2.922 0 0 1-1.457-1.87 4.7 4.7 0 0 1 .692-3.211.318.318 0 0 1 .533.346 4.119 4.119 0 0 0-.606 2.723 2.314 2.314 0 0 0 1.16 1.465c2.588 1.526 8.123 1.083 9.379.827a2.415 2.415 0 0 0 1.775-2.89.318.318 0 0 1 .63-.085 3.028 3.028 0 0 1-2.279 3.6 21.575 21.575 0 0 1-3.67.278"/>
        <path data-name="패스 6592" d="M33.754 51.324a13.616 13.616 0 0 1-2.061-.16c-1.142-.175-1.783-3.095-1.952-3.985a.318.318 0 0 1 .625-.119c.308 1.62.954 3.4 1.424 3.476a10.183 10.183 0 0 0 7.95-1.757c.97-.786 2.62-2.381 2.763-4.228a3.513 3.513 0 0 0-1.02-2.675.318.318 0 0 1 .471-.426 4.12 4.12 0 0 1 1.183 3.15c-.161 2.085-1.946 3.823-3 4.673a10.1 10.1 0 0 1-6.386 2.05"/>
        <path data-name="패스 6593" d="M43.825 43.131a3.42 3.42 0 0 1-1.693-.42.318.318 0 0 1 .343-.535c.084.052 2.033 1.231 4.376-1.18 2.578-2.653 3.19-6.326 1.768-10.622a4.205 4.205 0 0 0-2.032-2.7 2.825 2.825 0 0 0-2.075-.067.318.318 0 0 1-.248-.585 3.424 3.424 0 0 1 2.577.069 4.786 4.786 0 0 1 2.382 3.087c1.5 4.536.839 8.431-1.915 11.264a4.83 4.83 0 0 1-3.481 1.693"/>
        <path data-name="패스 6594" d="M47.006 27.853a.318.318 0 0 1-.293-.442c.027-.064 2.677-6.444-.967-9.741a.318.318 0 1 1 .427-.471c3.982 3.6 1.244 10.182 1.126 10.461a.318.318 0 0 1-.293.193"/>
        <path data-name="패스 6595" d="M44.987 18.021a2.127 2.127 0 0 1-.71-.122.318.318 0 1 1 .211-.6 1.562 1.562 0 0 0 1.3-.133 1.857 1.857 0 0 0 .9-1.217c.5-2.406-1.841-5.9-4.113-7.066a3.158 3.158 0 0 0-2.415-.281 1.843 1.843 0 0 0-1.1 1.037.318.318 0 0 1-.581-.258 2.487 2.487 0 0 1 1.47-1.379 3.8 3.8 0 0 1 2.917.315c2.482 1.277 5.017 5.024 4.444 7.761a2.5 2.5 0 0 1-1.21 1.64 2.263 2.263 0 0 1-1.113.3"/>
        <path data-name="패스 6596" d="M37.455 11.88a.318.318 0 0 1-.175-.583c.075-.05 1.761-1.215 1.2-4.046-.523-2.648-4.134-4.082-5.663-4.576-.041-.013-4.165-1.254-6.127.128a2.392 2.392 0 0 0-.982 2.032.313.313 0 0 1-.327.308.317.317 0 0 1-.308-.327 3.024 3.024 0 0 1 1.251-2.53c2.246-1.584 6.645-.228 6.689-.214 2.031.656 5.524 2.186 6.091 5.058.646 3.27-1.389 4.643-1.476 4.7a.316.316 0 0 1-.174.052"/>
        <path data-name="패스 6597" d="M29.001 28.405a.779.779 0 0 0-.779.778v.779a.779.779 0 0 0 1.557 0v-.779a.779.779 0 0 0-.779-.778"/>
        <path data-name="패스 6598" d="M29.006 31.098a1.138 1.138 0 0 1-1.137-1.136v-.778a1.137 1.137 0 0 1 2.274 0v.778a1.138 1.138 0 0 1-1.137 1.136m0-2.335a.421.421 0 0 0-.421.42v.778a.421.421 0 0 0 .842 0v-.778a.421.421 0 0 0-.421-.42"/>
        <path data-name="패스 6599" d="M20.439 28.405a.779.779 0 0 0-.779.778v.779a.779.779 0 0 0 1.557 0v-.779a.779.779 0 0 0-.779-.778"/>
        <path data-name="패스 6600" d="M20.439 31.098a1.138 1.138 0 0 1-1.137-1.136v-.778a1.137 1.137 0 0 1 2.274 0v.778a1.138 1.138 0 0 1-1.137 1.136m0-2.335a.421.421 0 0 0-.421.42v.778a.421.421 0 0 0 .842 0v-.778a.421.421 0 0 0-.421-.42"/>
        <path data-name="패스 6602" d="M81.106 128.953a4.9 4.9 0 0 1-4.9-4.9v-.075h9.8v.075a4.9 4.9 0 0 1-4.9 4.9" transform="translate(-56.389 -91.758)" style="fill:#ed8062"/>
        <path data-name="패스 6603" d="M24.716 37.514a5.225 5.225 0 0 1-5.22-5.218v-.075a.318.318 0 0 1 .318-.318h9.8a.318.318 0 0 1 .318.318v.075a5.225 5.225 0 0 1-5.22 5.218m-4.577-4.974a4.584 4.584 0 0 0 9.155 0z"/>
        <path data-name="패스 6607" d="M102.9 150.281s-.483 2.517.2 3.2c.941.946 2.865 1.888 7.044 1.733l-2.626-.781-1.836-.951-1.434-1.155-1.085-1.139z" transform="translate(-76.019 -111.224)" style="fill:#e6e6c1"/>
        <path data-name="패스 6608" d="M115.835 129.5a38.171 38.171 0 0 0-4.728-3.693c-1.94-1.108-3.14-1.646-5.529-.505-1.58.754-4.723 5.072-2.064 7.579a14.056 14.056 0 0 0 6.831 3.431" transform="translate(-75.835 -92.267)" style="fill:#ffffe6"/>
        <path data-name="패스 6609" d="M105.129 142.761a16.108 16.108 0 0 0 5.874 4.21l-4.57-1.554-2.261-1.878-.8-1.556.252-2.914c.544 2.54 1.185 3.329 1.5 3.691" transform="translate(-76.494 -102.927)" style="fill:#e6e6c1"/>
        <path data-name="패스 6610" d="M34.509 44.362a.324.324 0 0 1-.083-.011 14.324 14.324 0 0 1-6.967-3.507 3.613 3.613 0 0 1-1.074-3.33 7.285 7.285 0 0 1 3.22-4.766c2.549-1.217 3.874-.6 5.823.516a38.8 38.8 0 0 1 4.78 3.73.318.318 0 0 1-.42.477 38.3 38.3 0 0 0-4.676-3.656c-1.876-1.072-2.961-1.58-5.234-.494a6.77 6.77 0 0 0-2.866 4.291 2.965 2.965 0 0 0 .882 2.77 13.792 13.792 0 0 0 6.7 3.356.318.318 0 0 1-.082.624"/>
    </g>
    <path data-name="logo_bg" d="M33.128 82.564a47.161 47.161 0 0 0-1.9-5.52 140.41 140.41 0 0 1-8.712-2.133 78.987 78.987 0 0 1-12.056-4.339C3.789 67.427 0 63.826 0 60c0-6.857 12.166-12.985 31.271-17.053C38.349 18.119 60.463 0 86.666 0s48.317 18.119 55.395 42.945c19.1 4.068 31.271 10.2 31.271 17.053a6.528 6.528 0 0 1-1 3.378 16.617 16.617 0 0 1-5.812 5.255 36.27 36.27 0 0 1-1.735.984c-.869.461-1.821.911-2.808 1.354a74.933 74.933 0 0 1-8.437 3.136c-2.65.822-5.525 1.593-8.6 2.31-.938.217-1.9.429-2.877.637l-.856.181a99.89 99.89 0 0 0-1 5.33C131.616 104.515 110.889 120 86.665 120s-44.949-15.485-53.537-37.436z" style="fill:#ff5050"/>
    <g data-name="그룹 410" style="clip-path:url(#dcfz1jqfcb)" transform="translate(39.416 26.782)">
        <path data-name="패스 3429" d="M89.57 35.652c.028-.03.051-.062.078-.093.078-.078.141-.17.213-.253s.142-.17.214-.254.14-.168.212-.251.143-.171.215-.255.141-.169.213-.252.142-.17.214-.253.14-.169.212-.253a4.251 4.251 0 0 0 1.266-3v-.054a4.258 4.258 0 0 0-1.22-3c.028-.04.061-.078.087-.119.074-.093.15-.186.216-.286a4.091 4.091 0 0 0 .477-.742 3.7 3.7 0 0 0 .384-1.428l.009-.143c.012-.147.022-.3.023-.444.033-2.636.03-6.445-.006-8.863a4.159 4.159 0 0 0-4.077-4.116c-2.238-.052-7.519-.07-11.716-.07-5.273 0-9.738.026-11.651.068a4.356 4.356 0 0 0-4.218 3.638c-.028.112-.059.221-.079.336s-.058.221-.078.336-.059.223-.079.338-.059.222-.079.336-.059.222-.078.338-.059.221-.079.335-.059.223-.079.34-.058.219-.078.333-.059.223-.079.339-.059.222-.078.337-.059.222-.079.337-.059.223-.079.338-.058.221-.078.335-.059.222-.078.337-.06.223-.079.338c-.024.094-.056.183-.073.279a331.849 331.849 0 0 0-.055-4.524 4.622 4.622 0 0 0-4.583-4.513h-.078a4.608 4.608 0 0 0-4.563 4.344 4.35 4.35 0 0 0-.04.513v.114c0 .075-.024.145-.026.22v.108c0 .076-.025.148-.026.226v.116c0 .074-.024.143-.026.218v.108c-.006.077-.026.149-.027.227v.119c-.005.073-.024.141-.025.214v.109c-.005.076-.025.148-.027.225v.111c0 .075-.025.147-.027.222v.11c-.005.076-.024.147-.026.224v.116c0 .074-.024.143-.025.218v.108c-.006.076-.026.148-.027.226v.117c-.005.073-.024.142-.025.217v.108c-.006.077-.025.148-.027.226v.116c-.005.074-.024.143-.025.218v.111c-.005.076-.025.147-.026.223v.109c-.006.076-.025.147-.027.224v.109c-.005.076-.025.148-.026.225v.118c0 .073-.024.142-.025.216v.11c-.006.076-.025.147-.027.223v.109c-.006.076-.026.148-.027.225v.117c-.005.073-.024.143-.026.218v.108c-.006.076-.026.148-.027.225v.116c-.005.073-.024.143-.025.218v.108c-.006.077-.026.148-.027.226v.118c0 .073-.024.142-.025.216v.11c-.006.076-.025.147-.027.224v.11c0 .035-.016.1-.017.146l-1.225-4.972a2635.99 2635.99 0 0 1-.927-3.761 5.793 5.793 0 0 0-5.641-4.418h-.083a5.779 5.779 0 0 0-4.5 2.161l-.017-.058a2.794 2.794 0 0 0-.058-.378 2.724 2.724 0 0 0-.059-.381 2.757 2.757 0 0 0-.058-.374 2.8 2.8 0 0 0-.058-.378 2.79 2.79 0 0 0-.057-.377 2.854 2.854 0 0 0-.059-.381 2.753 2.753 0 0 0-.058-.374c-.007-.052-.011-.1-.021-.156a2.6 2.6 0 0 0-.065-.48 2.719 2.719 0 0 0-.057-.372 2.78 2.78 0 0 0-.057-.376 2.781 2.781 0 0 0-.057-.376 2.725 2.725 0 0 0-.058-.381 2.717 2.717 0 0 0-.058-.372 2.779 2.779 0 0 0-.057-.376 2.641 2.641 0 0 0-.059-.383 2.713 2.713 0 0 0-.057-.37 2.779 2.779 0 0 0-.057-.376 2.763 2.763 0 0 0-1.347-2.125 7.5 7.5 0 0 0-14.252 0 2.756 2.756 0 0 0-1.112 3.416 2.686 2.686 0 0 0 .124.373 2.692 2.692 0 0 0 .122.372 3.007 3.007 0 0 0 .124.376 2.689 2.689 0 0 0 .125.373 2.608 2.608 0 0 0 .122.373 2.721 2.721 0 0 0 .122.371 2.615 2.615 0 0 0 .125.376 2.521 2.521 0 0 0 .123.374 2.552 2.552 0 0 0 .122.369c-1.233-.024-5.29-.033-8.4-.033-2.8 0-6.483.007-7.638.027A4.537 4.537 0 0 0 0 16.436v.07a4.469 4.469 0 0 0 .873 2.649c.067.112.139.22.216.326s.138.218.214.323.138.221.218.327.137.218.213.323.137.218.213.322.138.22.216.326.138.219.215.324.138.217.214.323.138.221.217.327.138.218.216.323.136.218.213.323.138.218.214.323.139.221.218.328.137.217.214.322.138.219.215.325.138.218.214.323.137.218.214.323.138.22.216.326.138.218.216.324.137.218.213.323.138.219.216.325.138.218.215.324.138.218.215.324.138.218.214.323.138.219.215.324a3.774 3.774 0 0 0 .216.324c.067.112.138.219.215.325a3.676 3.676 0 0 0 .215.323 3.866 3.866 0 0 0 .213.323c.068.112.138.221.217.327s.137.218.214.323.137.218.214.323.138.22.217.325.137.218.214.324a3.687 3.687 0 0 0 .218.324c.066.112.138.22.215.325s.137.218.213.323.139.22.216.325a3.787 3.787 0 0 0 .216.325 3.774 3.774 0 0 0 .216.324 3.841 3.841 0 0 0 3.38 1.937h2.488c0 1.365.007 2.643.013 3.723a4.585 4.585 0 0 0 .822 2.6c.047.076.092.152.142.224s.091.148.14.219.089.148.138.217.092.151.142.223c.057.093.118.186.182.275.042.066.081.131.126.194s.09.149.14.221.088.148.138.218.091.151.142.222.089.149.14.22.089.148.14.219.088.148.138.219.09.15.142.222.088.148.14.22.088.148.139.219.089.149.139.22.091.15.141.222.09.147.139.218.089.149.14.221.09.149.14.22.09.149.14.22.089.149.14.22.089.148.139.219.09.15.142.222.088.148.139.218.088.149.139.22.089.15.14.221.089.149.14.22.09.15.14.221.09.148.139.219.09.149.141.221.088.148.139.218.089.15.14.222.089.148.14.219.089.149.139.22.09.15.142.221.088.149.14.22.088.148.138.218.09.151.141.222.088.148.138.218a4 4 0 0 0 3.4 1.917h.056a3.987 3.987 0 0 0 2.913-1.287c.037.038.074.074.115.109.018.044.044.085.064.128.028.073.064.141.1.211s.064.142.1.212a2.98 2.98 0 0 0 5.687-.428 2.455 2.455 0 0 0 .279-.264 3.933 3.933 0 0 0 2.285 1.289l.052.009a4 4 0 0 0 .652.054 3.927 3.927 0 0 0 3.822-3.094c.32-1.5.753-3.362 1.187-5.164.439 1.865.863 3.723 1.171 5.166a3.909 3.909 0 0 0 4.461 3.028l.054-.009a3.92 3.92 0 0 0 1.448-.558 4 4 0 0 0 3.366 1.919h.064a4.028 4.028 0 0 0 3.929-3.206c.019-.072.041-.143.056-.216s.041-.143.056-.217.041-.143.056-.218.041-.142.056-.214.041-.144.057-.219.04-.143.056-.218.04-.142.055-.217c.008-.027.02-.051.026-.078v.81a4.492 4.492 0 0 0 .259 1.643 3.6 3.6 0 0 0 1.085 1.518 4.141 4.141 0 0 0 2.5.807c1.364.018 4.08.027 7.452.027 4.64 0 9.2-.018 11.088-.043A3.719 3.719 0 0 0 82.5 51.2c.074-.068.146-.137.214-.211s.145-.136.213-.209.145-.136.213-.209.146-.136.213-.209.147-.137.216-.212.146-.137.213-.21.144-.134.211-.207.147-.137.215-.211.146-.137.214-.211.146-.136.214-.21.144-.135.212-.208.147-.137.216-.212.144-.135.212-.208.147-.138.215-.212.146-.136.213-.21.145-.135.213-.208.147-.137.215-.211.144-.135.212-.208.147-.138.216-.212.144-.135.212-.208.147-.138.216-.212.145-.136.213-.208.145-.137.213-.21.147-.137.215-.211.143-.134.211-.208.147-.137.215-.211.146-.137.214-.21.145-.136.212-.209.146-.136.214-.21.146-.136.214-.209.145-.137.213-.21.146-.137.214-.211.143-.134.211-.207.148-.138.217-.212.143-.134.211-.207.147-.138.216-.212.145-.137.213-.209.146-.137.214-.211.144-.135.212-.208.147-.138.217-.213a4.243 4.243 0 0 0 1.365-3.1v-.06a4.273 4.273 0 0 0-2.838-3.994" transform="translate(.833 5)" style="fill:#ff5050"/>
        <path data-name="패스 3430" d="M100.6 43.931c-1.011-.008-18.343.006-19.393.021-.19 0-.616.014-.633-.24a2.217 2.217 0 0 0-.243-1.248 2.355 2.355 0 0 0-1.027-.829 3.958 3.958 0 0 0-1.634-.335 3.054 3.054 0 0 0-2.576 1.123 2.8 2.8 0 0 0-.317 1.688c0 .7-.012 1.423 0 2.125a4.118 4.118 0 0 0 .172 1.367 2.431 2.431 0 0 0 .733 1.061 3.089 3.089 0 0 0 1.843.542c4.437.057 18.856.038 23.119-.02a2.592 2.592 0 0 0 2.555-2.6v-.06a2.613 2.613 0 0 0-2.6-2.6" transform="translate(-11.628 -1.883)" style="fill:#fcfcfc"/>
        <path data-name="패스 3431" d="M100.627 33.321c-1.579-.014-7.334-.029-8.618-.033a.48.48 0 0 1-.482-.327c0-.008-.007-.009-.009-.017-.272-1.267-1.938-1.642-2.713-1.642h-.76c-.654 0-2.438.367-2.711 1.629 0 .011-.013.015-.017.029-.094.347-.5.328-.5.328-1.164.011-7.241.014-7.467.017a2.606 2.606 0 0 0-2.577 2.609v.054a2.609 2.609 0 0 0 2.593 2.61c4.493.028 18.717.028 23.254 0a2.6 2.6 0 0 0 2.582-2.588v-.056a2.6 2.6 0 0 0-2.575-2.616" transform="translate(-11.628 -.217)" style="fill:#fcfcfc"/>
        <path data-name="패스 3432" d="M77.312 27.611a2.565 2.565 0 0 1-2.539-2.568v-.063a2.546 2.546 0 0 1 2.527-2.558c1.235-.009 18.358 0 19.81 0a.521.521 0 0 0 0-1.043c-.494 0-18.453.04-19.661.028a2.7 2.7 0 0 1-2.676-2.707v-.066a2.726 2.726 0 0 1 2.663-2.734c4.137-.091 19.293-.091 23.292 0a2.5 2.5 0 0 1 2.447 2.466c.036 2.44.037 6.2.006 8.817 0 .169-.02.34-.03.509a2.033 2.033 0 0 1-.218.8 2.474 2.474 0 0 1-2.235 1.385h-.679a2.475 2.475 0 0 1-2.425-1.933.447.447 0 0 0-.433-.292 1.441 1.441 0 0 0-.169 0z" transform="translate(-11.628 2.363)" style="fill:#fcfcfc"/>
        <path data-name="패스 3433" d="M16.216 22.039c-.806.019-10.538.031-11.369.031A2.849 2.849 0 0 1 2 19.217v-.069A2.848 2.848 0 0 1 4.793 16.3c2.152-.038 13.9-.037 15.993 0a2.53 2.53 0 0 1 2.482 2.493c.078 5.13.081 16.312.007 21.706a2.937 2.937 0 0 1-2.928 2.9h-.067a2.938 2.938 0 0 1-2.928-2.926c-.028-4.813-.023-13.877.013-17.308a1.114 1.114 0 0 0-1.151-1.13" transform="translate(.5 2.289)" style="fill:#fcfcfc"/>
        <path data-name="패스 3434" d="M52.152 19.347C53.628 25.354 56 34.856 57.138 39.98a2.829 2.829 0 0 1-2.3 3.4l-.068.011a2.8 2.8 0 0 1-3.207-2.178c-.838-3.929-2.291-9.987-3.128-13.32a.365.365 0 0 0-.708 0c-.853 3.329-2.351 9.391-3.187 13.322a2.8 2.8 0 0 1-3.208 2.179l-.067-.012a2.827 2.827 0 0 1-2.3-3.4c1.135-5.123 3.576-14.626 5.051-20.633a4.137 4.137 0 0 1 4.03-3.149h.083a4.137 4.137 0 0 1 4.023 3.149" transform="translate(-5.65 2.301)" style="fill:#fcfcfc"/>
        <path data-name="패스 3435" d="M68.512 32.293a.374.374 0 0 0-.352.377c0 3.692-.029 7.173-.072 9.472a2.914 2.914 0 0 1-2.936 2.853h-.068a2.908 2.908 0 0 1-2.893-2.86c-.09-5.576-.09-17.8 0-23.423a2.927 2.927 0 0 1 2.918-2.884h.068a2.932 2.932 0 0 1 2.918 2.88c.039 2 .063 4.581.065 7.708a.37.37 0 0 0 .352.378 2.729 2.729 0 0 1 2.735 2.716v.068a2.727 2.727 0 0 1-2.735 2.717" transform="translate(-9.52 2.363)" style="fill:#fcfcfc"/>
        <path data-name="패스 3436" d="M29.686 42.091a.976.976 0 0 0 .96.917h3.585a.978.978 0 0 0 .961-.917l.641-24.009h-6.789z" transform="translate(-4.007 1.987)" style="fill:#fff"/>
        <path data-name="패스 3437" d="M35.293 14.95h-6.817a.8.8 0 0 0-.512.195c-.015.012-.034.019-.048.032a.807.807 0 0 0-.253.586v.15a.836.836 0 0 0 .813.813h7.464a.838.838 0 0 0 .813-.813v-.15a.808.808 0 0 0-.254-.586c-.014-.013-.033-.02-.048-.032a.8.8 0 0 0-.511-.195z" transform="translate(-3.777 2.509)" style="fill:#fff"/>
        <path data-name="패스 3438" d="M37.494 7.688c-.022 0-.039-.013-.061-.013H26.088c-.022 0-.04.011-.061.013a1.094 1.094 0 0 0-.914.594 1 1 0 0 0 0 1.008 1.1 1.1 0 0 0 .914.6c.022 0 .039.012.061.012h11.345c.022 0 .039-.011.061-.012a1.094 1.094 0 0 0 .914-.594 1 1 0 0 0 0-1.008 1.1 1.1 0 0 0-.914-.6" transform="translate(-3.329 3.721)" style="fill:#fff"/>
        <path data-name="패스 3439" d="M32.017 2a5.838 5.838 0 0 0-5.5 3.9h11a5.839 5.839 0 0 0-5.5-3.9" transform="translate(-3.586 4.667)" style="fill:#fff"/>
        <path data-name="패스 3440" d="M27.923 13.559a1.622 1.622 0 0 1 .363-.043h7.464a1.615 1.615 0 0 1 .362.043 5.843 5.843 0 0 0 1.408-2.218h-11a5.843 5.843 0 0 0 1.408 2.218" transform="translate(-3.586 3.11)" style="fill:#fff"/>
        <path data-name="패스 3441" d="M32.792 50.453a1.638 1.638 0 0 0 1.625-1.46h-3.25a1.638 1.638 0 0 0 1.625 1.46" transform="translate(-4.361 -3.165)" style="fill:#fff"/>
    </g>
</svg>
