<svg xmlns="http://www.w3.org/2000/svg" width="185.253" height="234.225"><defs><clipPath id="a"><path data-name="사각형 2372" fill="none" d="M0 0h185.253v234.225H0z"/></clipPath><clipPath id="b"><path data-name="사각형 2371" transform="translate(72.955 221.664)" fill="none" d="M0 0h80.266v12.561H0z"/></clipPath><clipPath id="c"><path data-name="사각형 2377" transform="translate(144.707 129.322)" fill="none" d="M0 0h8.514v13.72H0z"/></clipPath><clipPath id="d"><path data-name="사각형 2378" transform="translate(125.619 143.042)" fill="none" d="M0 0h16.399v84.903H0z"/></clipPath><clipPath id="e"><path data-name="사각형 2379" transform="translate(32.257 91.982)" fill="none" d="M0 0h46.637v14.415H0z"/></clipPath><clipPath id="f"><path data-name="사각형 2380" transform="translate(93.618 67.475)" fill="none" d="M0 0h17.568v33.688H0z"/></clipPath><clipPath id="g"><path data-name="사각형 2381" transform="translate(120.366 53.68)" fill="none" d="M0 0h41.244v47.483H0z"/></clipPath><clipPath id="h"><path data-name="사각형 2382" transform="translate(138.065 106.453)" fill="none" d="M0 0h45.688v19.003H0z"/></clipPath></defs><g data-name="그룹 2255"><g data-name="그룹 1146"><g data-name="그룹 1145" clip-path="url(#a)"><g data-name="그룹 1144" opacity=".2"><g data-name="그룹 1143"><g data-name="그룹 1142" clip-path="url(#b)"><path data-name="패스 5115" d="M153.221 227.945c0 3.469-17.968 6.28-40.133 6.28s-40.133-2.811-40.133-6.28 17.968-6.28 40.133-6.28 40.133 2.811 40.133 6.28"/></g></g></g></g></g><path data-name="패스 5116" d="M133.368 227.945H92.809l-10-98.623h60.559Z" fill="#e79d5c"/><g data-name="그룹 1148"><g data-name="그룹 1147" clip-path="url(#a)"><path data-name="패스 5117" d="M133.368 227.945H92.809l-10-98.623h60.559Z" fill="none" stroke="#000" stroke-miterlimit="10" stroke-width="3.5"/></g></g><path data-name="사각형 2374" fill="#e79d5c" d="M71.274 129.322h83.629v13.995H71.274z"/><path data-name="사각형 2375" fill="none" stroke="#000" stroke-miterlimit="10" stroke-width="3.5" d="M71.274 129.322h83.629v13.995H71.274z"/><g data-name="그룹 1168"><g data-name="그룹 1167" clip-path="url(#a)"><path data-name="패스 5118" d="M164.8 33.787s-60.391 15.259-42.128 67.376c0 0 36.513-4.909 42.128-67.376" fill="#00c936"/><path data-name="패스 5119" d="M164.8 33.787s-60.391 15.259-42.128 67.376c.002 0 36.515-4.909 42.128-67.376Z" fill="none" stroke="#000" stroke-linecap="round" stroke-linejoin="round" stroke-width="3"/><path data-name="패스 5120" d="M103.388 101.163s17.547-5.747 0-52.987S66.188 1.5 66.188 1.5s-4.568 46.67 5.086 65.974 20.182 31.578 32.114 33.688" fill="#00b460"/><path data-name="패스 5121" d="M103.388 101.163s17.547-5.747 0-52.987S66.188 1.5 66.188 1.5s-4.568 46.67 5.086 65.974 20.182 31.579 32.114 33.689Z" fill="none" stroke="#000" stroke-linecap="round" stroke-linejoin="round" stroke-width="3"/><path data-name="패스 5122" d="M78.894 103.194s-3.23-26.864-29.551-30.062S6.529 81.124 2.668 88.163s1.4-1.384 22.46 8.442 45.415 12.827 53.766 6.589" fill="#00c936"/><path data-name="패스 5123" d="M78.894 103.194s-3.23-26.864-29.551-30.062S6.529 81.124 2.668 88.163s1.4-1.384 22.46 8.442 45.415 12.827 53.766 6.589Z" fill="none" stroke="#000" stroke-linecap="round" stroke-linejoin="round" stroke-width="3"/><path data-name="패스 5124" d="M138.065 117.941s-.285-17.475 20.771-18.528 24.917 7.04 24.917 7.04-8.774 8.752-13.336 12.964-15.924 11.789-32.352-1.476" fill="#00b460"/><path data-name="패스 5125" d="M138.065 117.941s-.285-17.475 20.771-18.528 24.917 7.04 24.917 7.04-8.774 8.752-13.336 12.964-15.924 11.789-32.352-1.476Z" fill="none" stroke="#000" stroke-linecap="round" stroke-linejoin="round" stroke-width="3"/><path data-name="패스 5126" d="M25.128 85.024s57.2-1.6 69.837 44.3" fill="none" stroke="#000" stroke-linecap="round" stroke-miterlimit="10" stroke-width="3"/><path data-name="패스 5127" d="M74.962 16.942s29.479 46.132 30.181 112.38" fill="none" stroke="#000" stroke-linecap="round" stroke-miterlimit="10" stroke-width="3"/><path data-name="패스 5128" d="M153.221 48.175s-34.041 35.6-35.445 81.146" fill="none" stroke="#000" stroke-linecap="round" stroke-miterlimit="10" stroke-width="3"/><path data-name="패스 5129" d="M129.708 129.322s7.37-20.785 40.709-25" fill="none" stroke="#000" stroke-linecap="round" stroke-miterlimit="10" stroke-width="3"/><g data-name="그룹 1151" opacity=".2" style="mix-blend-mode:multiply;isolation:isolate"><g data-name="그룹 1150"><g data-name="그룹 1149" clip-path="url(#c)"><path data-name="사각형 2376" d="M144.706 129.322h8.515v13.72h-8.515z"/></g></g></g><g data-name="그룹 1154" opacity=".2" style="mix-blend-mode:multiply;isolation:isolate"><g data-name="그룹 1153"><g data-name="그룹 1152" clip-path="url(#d)"><path data-name="패스 5130" d="M133.8 227.945h-8.178l8.221-84.9h8.178Z"/></g></g></g><g data-name="그룹 1157" opacity=".2" style="mix-blend-mode:multiply;isolation:isolate"><g data-name="그룹 1156"><g data-name="그룹 1155" clip-path="url(#e)"><path data-name="패스 5131" d="M32.257 99.627s44.583 7.706 43.111-7.645l3.526 8.427v2.786l-3.932 1.939-7.755 1.266-13.371-.889-13.636-3.163Z"/></g></g></g><g data-name="그룹 1160" opacity=".2" style="mix-blend-mode:multiply;isolation:isolate"><g data-name="그룹 1159"><g data-name="그룹 1158" clip-path="url(#f)"><path data-name="패스 5132" d="M93.618 97.024s18.238-3.514 15.638-29.549l1.93 13.647-1.216 11.255-2.649 6.813-3.933 1.973-6.818-1.973Z"/></g></g></g><g data-name="그룹 1163" opacity=".2" style="mix-blend-mode:multiply;isolation:isolate"><g data-name="그룹 1162"><g data-name="그룹 1161" clip-path="url(#g)"><path data-name="패스 5133" d="M120.366 92.954s23 1.913 41.244-39.274l-4.028 12.9-8.182 15.428-8.408 9.974-12.277 7.336-6.036 1.845a47.6 47.6 0 0 1-1.83-4.523c0-.443-.479-3.686-.479-3.686"/></g></g></g><g data-name="그룹 1166" opacity=".2" style="mix-blend-mode:multiply;isolation:isolate"><g data-name="그룹 1165"><g data-name="그룹 1164" clip-path="url(#h)"><path data-name="패스 5134" d="M138.065 117.941s13.816 3.418 19.691 1.644 18.408-12.187 26-13.132l-4.85 4.8-8.486 8.167-4.286 3.188s-5.329 3.239-5.715 2.813-5.513-.03-5.513-.03l-5.6-1.063-3.629-1.193Z"/></g></g></g></g></g><path data-name="사각형 2384" fill="none" d="M0 0h185.253v234.225H0z"/></g></svg>