<svg id="파비" xmlns="http://www.w3.org/2000/svg" xmlns:xlink="http://www.w3.org/1999/xlink" width="50" height="53" viewBox="0 0 50 53">
  <defs>
    <clipPath id="clip-path">
      <rect id="사각형_2985" data-name="사각형 2985" width="50" height="53" fill="none"/>
    </clipPath>
  </defs>
  <g id="그룹_2256" data-name="그룹 2256" clip-path="url(#clip-path)">
    <path id="패스_6572" data-name="패스 6572" d="M15.608,1.915,13.161,3.054,10.329,5.13,7.836,7.862,6.371,10.225l-.916,2.493L5.3,15.168l.529,2.179,1.1,1.6-.939-.266-.912-.1-.642.176-.611.412-.621.671L2.056,22.3l-.462,1.935L1.222,26.8l.1,3.339.426,2.536.569,1.184.91.553,1.133.209-.877,1.161L2.942,37.1,3.1,39.031l.632,2.8,1.465,1.9,1.21.95h.969l.946-.225L8.161,45.53l.645,1.519.754,1.192,2.175,1.6,1.984.727,2.427.339,1.495-.27.681-.514.263,1.1.564.722.966.705,1.879.636,2.063.361h3.135s2.454-.308,2.483-.317,1.222-.794,1.222-.794l.711-1.872.866.961,1.238.234,1.316-.017,2.823-.355,2.91-1.316,1.506-1.551,1.083-1.539.38-1.29-.207-1.7-.023-.478,1.08.372,1.253-.373,1.029-.5,1.3-1.226L49.565,40l1.119-3.6-.217-2.446-.339-1.86-.619-1.649-.638-1.075L47.91,28.5l.3-1.086.4-1.3.342-2.448-.1-1.888-.621-1.594L47.441,19l-.339-.292-.041-.432.635-.728.281-1.757-.33-1.567-.883-1.844L45.4,10.993l-1.389-1.2L42.72,9.184l-1.608.04L39.955,10l-.141-.7-.289-1.629L38.343,5.829,36.671,4.587,33.818,3.34l-2.425-.475L29.366,2.8l-1.752.577L26.69,4.449l-.468.805-.971-1.311L23.495,2.337l-3.157-.975-2.609.026Z" transform="translate(-0.903 -1.007)" fill="#ffffe1"/>
    <path id="패스_6573" data-name="패스 6573" d="M64.475,58.192s-1.953,9.226,1.488,10.846S74.1,70.154,74.1,70.154a4.271,4.271,0,0,0,3.719-3,8.3,8.3,0,0,0,.037-4.926Z" transform="translate(-47.301 -43.068)" fill="#e6e6c1"/>
    <path id="패스_6574" data-name="패스 6574" d="M80.346,184.8a10.512,10.512,0,0,1-5.861,1.917,13.258,13.258,0,0,1-6.454-2.064l-.284.822.366,1.826,1.677.944,3.045.806,4.691.181,2.658-.694.529-1.6Z" transform="translate(-50.13 -136.662)" fill="#e1e1b9"/>
    <path id="패스_6575" data-name="패스 6575" d="M28.555,162.91a6.687,6.687,0,0,0,1.2,2.867,7.106,7.106,0,0,0,6.491,2.712,6.944,6.944,0,0,0,2.8-1.007l-1.086,2.883-1.339.354-4.4-.755L29.4,167.844a4.8,4.8,0,0,1-1.369-2.993l.527-1.941" transform="translate(-20.739 -120.571)" fill="#e1e1b9"/>
    <path id="패스_6576" data-name="패스 6576" d="M18.549,162.146a4.87,4.87,0,0,1-4.042-.268l1.375,1.336.811.18,1.009-.121Z" transform="translate(-10.734 -119.807)" fill="#e1e1b9"/>
    <path id="패스_6577" data-name="패스 6577" d="M11.759,126.107s-2.824,2.529-2.978,3.73v-1.692l.779-1.106.394-.722Z" transform="translate(-6.496 -93.333)" fill="#e1e1b9"/>
    <path id="패스_6578" data-name="패스 6578" d="M14.892,70.251s-4.755,1.374-8.492.279l1.26-2.037,1.586-.542Z" transform="translate(-4.734 -50.29)" fill="#e6e6c1"/>
    <path id="패스_6579" data-name="패스 6579" d="M128.025,160.313a7.177,7.177,0,0,1-.926,3.857s-2.263,3.873-8.005,3.543a3.1,3.1,0,0,1-1.354-.358,3.065,3.065,0,0,1-1.075-1,3.32,3.32,0,0,0,.349,1.985,3.273,3.273,0,0,0,1.034,1.155l2.386.023,2.157-.271,2.4-1.139,2.685-1.811,1.463-2.448-.207-2.084-.9-1.455" transform="translate(-86.307 -118.649)" fill="#e1e1b9"/>
    <path id="패스_6580" data-name="패스 6580" d="M169.3,126.781a10.218,10.218,0,0,1-7.49,8.715l.525.977h1.709l2.148-.859,1.54-1.316,1.766-4.115q-.1-1.7-.2-3.4" transform="translate(-119.739 -93.831)" fill="#e1e1b9"/>
    <path id="패스_6581" data-name="패스 6581" d="M174.84,94.654A4.593,4.593,0,0,1,171.9,97.17s1.259-.071,1.265-.1,1.018.257,1.018.257Z" transform="translate(-127.199 -70.054)" fill="#e1e1b9"/>
    <path id="패스_6582" data-name="패스 6582" d="M174.353,73.669a14.727,14.727,0,0,0-3.576-5.284l1.794-.137,1.129,1.479.653,3.943" transform="translate(-126.372 -50.51)" fill="#e1e1b9"/>
    <path id="패스_6583" data-name="패스 6583" d="M153.176,34.669a6.314,6.314,0,0,0-5.081-1.334,5.931,5.931,0,0,0-3.072,1.742l1.344-2.749,1.526-.847,1.239.034,4.044,3.155" transform="translate(-107.314 -23.299)" fill="#e6e6c1"/>
    <path id="패스_6584" data-name="패스 6584" d="M105.919,7.845a6.651,6.651,0,0,0-5.609,1.494,6.263,6.263,0,0,0-1.886,3.736l-1.05-3.653,1.392-1.874,2.024-.608,5.129.9" transform="translate(-72.054 -5.136)" fill="#e6e6c1"/>
    <path id="패스_6585" data-name="패스 6585" d="M79.677,41.842a14.463,14.463,0,0,0-7.693-2.377c-2.057-.058-5.269-.126-6.438,1.962-.93,1.66-1.7,7.2-.123,10.76s10.038,2.929,11.248,1.922,1.66-2.063,1.426-5.62" transform="translate(-47.741 -29.193)" fill="#ffffe6"/>
    <path id="패스_6586" data-name="패스 6586" d="M71.394,54.31a15.046,15.046,0,0,1-3.369-.36c-1.953-.457-3.268-1.336-3.8-2.542-1.63-3.683-.827-9.323.136-11.044,1.275-2.277,4.685-2.182,6.724-2.124a14.8,14.8,0,0,1,7.861,2.431.318.318,0,1,1-.354.527,14.17,14.17,0,0,0-7.524-2.324c-1.894-.052-5.064-.142-6.151,1.8-.931,1.664-1.6,7.1-.109,10.477.569,1.284,2.144,1.895,3.366,2.18,2.965.694,6.722.181,7.388-.373,1.113-.927,1.541-1.875,1.312-5.356a.318.318,0,0,1,.3-.338.312.312,0,0,1,.338.3c.246,3.735-.276,4.834-1.54,5.885-.574.478-2.453.864-4.571.864" transform="translate(-46.832 -28.285)"/>
    <path id="패스_6587" data-name="패스 6587" d="M21.978,20.232a.317.317,0,0,1-.071-.008c-2.539-.583-6.016-1.382-6.353-6.319a9.008,9.008,0,0,1,.918-4.357A17.661,17.661,0,0,1,26.352.56a9.637,9.637,0,0,1,7.877.608c3.7,2.067,3.673,6.969,3.67,7.176a.315.315,0,0,1-.322.313.318.318,0,0,1-.314-.321c0-.047.018-4.733-3.344-6.614a9.019,9.019,0,0,0-7.37-.558,16.988,16.988,0,0,0-9.5,8.649,8.387,8.387,0,0,0-.862,4.049C16.47,18,18.9,18.881,22.049,19.6a.318.318,0,0,1-.071.627" transform="translate(-11.497 0)"/>
    <path id="패스_6588" data-name="패스 6588" d="M3.389,82.519a2.78,2.78,0,0,1-1.7-.527c-1.9-1.409-1.819-5.282-1.536-8.5A12.227,12.227,0,0,1,2.4,67.548a2.468,2.468,0,0,1,3.127-.778c.631.325,1.36.679,1.367.682a.318.318,0,0,1-.277.572c-.007,0-.743-.36-1.381-.689a1.829,1.829,0,0,0-2.317.581A11.59,11.59,0,0,0,.785,73.547c-.247,2.815-.382,6.7,1.282,7.934.728.54,1.793.536,3.166-.015a.318.318,0,1,1,.237.59,5.673,5.673,0,0,1-2.08.463" transform="translate(0.002 -49.219)"/>
    <path id="패스_6589" data-name="패스 6589" d="M11,136.973a2.151,2.151,0,0,1-.3-.021c-.847-.117-2.442-.854-3.608-4.472-1.714-5.325,1.216-6.764,1.342-6.822a.318.318,0,0,1,.271.575c-.107.052-2.539,1.293-1.007,6.052,1.1,3.41,2.526,3.959,3.089,4.037A1.249,1.249,0,0,0,12,135.864a.318.318,0,0,1,.53.351,1.85,1.85,0,0,1-1.534.757" transform="translate(-4.852 -92.978)"/>
    <path id="패스_6590" data-name="패스 6590" d="M35.187,168.905A11.911,11.911,0,0,1,30.8,167.83c-2.388-1.092-3.889-2.96-4.014-5-.153-2.473,1.806-2.674,1.826-2.676a.313.313,0,0,1,.345.288.318.318,0,0,1-.287.344c-.141.015-1.361.194-1.25,2s1.473,3.469,3.645,4.461c1.388.634,4.079,1.408,5.393.787a1.152,1.152,0,0,0,.665-.778.318.318,0,0,1,.615.162,1.775,1.775,0,0,1-1.008,1.19,3.636,3.636,0,0,1-1.542.291" transform="translate(-19.813 -118.531)"/>
    <path id="패스_6591" data-name="패스 6591" d="M74.11,185.691c-2.114,0-4.595-.258-6.159-1.181a2.922,2.922,0,0,1-1.457-1.87,4.7,4.7,0,0,1,.692-3.211.318.318,0,0,1,.533.346,4.119,4.119,0,0,0-.606,2.723,2.314,2.314,0,0,0,1.16,1.465c2.588,1.526,8.123,1.083,9.379.827a2.415,2.415,0,0,0,1.775-2.89.318.318,0,0,1,.63-.085,3.028,3.028,0,0,1-2.279,3.6,21.575,21.575,0,0,1-3.67.278" transform="translate(-49.145 -132.69)"/>
    <path id="패스_6592" data-name="패스 6592" d="M118.374,169.069a13.616,13.616,0,0,1-2.061-.16c-1.142-.175-1.783-3.095-1.952-3.985a.318.318,0,0,1,.625-.119c.308,1.62.954,3.4,1.424,3.476a10.183,10.183,0,0,0,7.95-1.757c.97-.786,2.62-2.381,2.763-4.228a3.513,3.513,0,0,0-1.02-2.675.318.318,0,0,1,.471-.426,4.12,4.12,0,0,1,1.183,3.15c-.161,2.085-1.946,3.823-3,4.673a10.1,10.1,0,0,1-6.386,2.05" transform="translate(-84.62 -117.745)"/>
    <path id="패스_6593" data-name="패스 6593" d="M163.3,119.445a3.42,3.42,0,0,1-1.693-.42.318.318,0,0,1,.343-.535c.084.052,2.033,1.231,4.376-1.18,2.578-2.653,3.19-6.326,1.768-10.622a4.205,4.205,0,0,0-2.032-2.7,2.825,2.825,0,0,0-2.075-.067.318.318,0,0,1-.248-.585,3.424,3.424,0,0,1,2.577.069,4.786,4.786,0,0,1,2.382,3.087c1.5,4.536.839,8.431-1.915,11.264a4.83,4.83,0,0,1-3.481,1.693" transform="translate(-119.475 -76.314)"/>
    <path id="패스_6594" data-name="패스 6594" d="M176.9,76.595a.318.318,0,0,1-.293-.442c.027-.064,2.677-6.444-.967-9.741a.318.318,0,1,1,.427-.471c3.982,3.6,1.244,10.182,1.126,10.461a.318.318,0,0,1-.293.193" transform="translate(-129.894 -48.742)"/>
    <path id="패스_6595" data-name="패스 6595" d="M154.415,40.345a2.127,2.127,0,0,1-.71-.122.318.318,0,1,1,.211-.6,1.562,1.562,0,0,0,1.3-.133,1.857,1.857,0,0,0,.9-1.217c.5-2.406-1.841-5.9-4.113-7.066a3.158,3.158,0,0,0-2.415-.281,1.843,1.843,0,0,0-1.1,1.037.318.318,0,0,1-.581-.258,2.487,2.487,0,0,1,1.47-1.379,3.8,3.8,0,0,1,2.917.315c2.482,1.277,5.017,5.024,4.444,7.761a2.5,2.5,0,0,1-1.21,1.64,2.263,2.263,0,0,1-1.113.3" transform="translate(-109.428 -22.324)"/>
    <path id="패스_6596" data-name="패스 6596" d="M108.808,16.194a.318.318,0,0,1-.175-.583c.075-.05,1.761-1.215,1.2-4.046-.523-2.648-4.134-4.082-5.663-4.576-.041-.013-4.165-1.254-6.127.128a2.392,2.392,0,0,0-.982,2.032.313.313,0,0,1-.327.308.317.317,0,0,1-.308-.327A3.024,3.024,0,0,1,97.677,6.6c2.246-1.584,6.645-.228,6.689-.214,2.031.656,5.524,2.186,6.091,5.058.646,3.27-1.389,4.643-1.476,4.7a.316.316,0,0,1-.174.052" transform="translate(-71.353 -4.314)"/>
    <path id="패스_6597" data-name="패스 6597" d="M109.315,109.293a.779.779,0,0,0-.779.778v.779a.779.779,0,0,0,1.557,0v-.779a.779.779,0,0,0-.779-.778" transform="translate(-80.314 -80.888)"/>
    <path id="패스_6598" data-name="패스 6598" d="M108.3,110.967a1.138,1.138,0,0,1-1.137-1.136v-.778a1.137,1.137,0,0,1,2.274,0v.778a1.138,1.138,0,0,1-1.137,1.136m0-2.335a.421.421,0,0,0-.421.42v.778a.421.421,0,0,0,.842,0v-.778a.421.421,0,0,0-.421-.42" transform="translate(-79.294 -79.869)"/>
    <path id="패스_6599" data-name="패스 6599" d="M76.385,109.293a.779.779,0,0,0-.779.778v.779a.779.779,0,0,0,1.557,0v-.779a.779.779,0,0,0-.779-.778" transform="translate(-55.946 -80.888)"/>
    <path id="패스_6600" data-name="패스 6600" d="M75.366,110.967a1.138,1.138,0,0,1-1.137-1.136v-.778a1.137,1.137,0,0,1,2.274,0v.778a1.138,1.138,0,0,1-1.137,1.136m0-2.335a.421.421,0,0,0-.421.42v.778a.421.421,0,0,0,.842,0v-.778a.421.421,0,0,0-.421-.42" transform="translate(-54.927 -79.869)"/>
    <path id="패스_6602" data-name="패스 6602" d="M81.106,128.953h0a4.9,4.9,0,0,1-4.9-4.9v-.075h9.8v.075a4.9,4.9,0,0,1-4.9,4.9" transform="translate(-56.389 -91.758)" fill="#ed8062"/>
    <path id="패스_6603" data-name="패스 6603" d="M80.2,128.367a5.225,5.225,0,0,1-5.22-5.218v-.075a.318.318,0,0,1,.318-.318h9.8a.318.318,0,0,1,.318.318v.075a5.225,5.225,0,0,1-5.22,5.218m-4.577-4.974a4.584,4.584,0,0,0,9.155,0Z" transform="translate(-55.484 -90.853)"/>
    <path id="패스_6607" data-name="패스 6607" d="M102.9,150.281s-.483,2.517.2,3.2c.941.946,2.865,1.888,7.044,1.733l-2.626-.781-1.836-.951-1.434-1.155-1.085-1.139Z" transform="translate(-76.019 -111.224)" fill="#e6e6c1"/>
    <path id="패스_6608" data-name="패스 6608" d="M115.835,129.5a38.171,38.171,0,0,0-4.728-3.693c-1.94-1.108-3.14-1.646-5.529-.505-1.58.754-4.723,5.072-2.064,7.579a14.056,14.056,0,0,0,6.831,3.431" transform="translate(-75.835 -92.267)" fill="#ffffe6"/>
    <path id="패스_6609" data-name="패스 6609" d="M105.129,142.761a16.108,16.108,0,0,0,5.874,4.21l-4.57-1.554-2.261-1.878-.8-1.556.252-2.914c.544,2.54,1.185,3.329,1.5,3.691" transform="translate(-76.494 -102.927)" fill="#e6e6c1"/>
    <path id="패스_6610" data-name="패스 6610" d="M109.44,135.723a.324.324,0,0,1-.083-.011,14.324,14.324,0,0,1-6.967-3.507,3.613,3.613,0,0,1-1.074-3.33,7.285,7.285,0,0,1,3.22-4.766c2.549-1.217,3.874-.6,5.823.516a38.8,38.8,0,0,1,4.78,3.73.318.318,0,0,1-.42.477,38.3,38.3,0,0,0-4.676-3.656c-1.876-1.072-2.961-1.58-5.234-.494a6.77,6.77,0,0,0-2.866,4.291,2.965,2.965,0,0,0,.882,2.77,13.792,13.792,0,0,0,6.7,3.356.318.318,0,0,1-.082.624" transform="translate(-74.931 -91.361)"/>
  </g>
</svg>
