<svg xmlns="http://www.w3.org/2000/svg" xmlns:xlink="http://www.w3.org/1999/xlink" width="306.572" height="241.162" viewBox="0 0 306.572 241.162">
  <defs>
    <clipPath id="clip-path">
      <rect id="사각형_3544" data-name="사각형 3544" width="123.447" height="118.663" fill="none"/>
    </clipPath>
    <clipPath id="clip-path-2">
      <rect id="사각형_3538" data-name="사각형 3538" width="123.447" height="118.663" transform="translate(0 0)" fill="none"/>
    </clipPath>
    <clipPath id="clip-path-3">
      <rect id="사각형_3537" data-name="사각형 3537" width="91.064" height="18.016" transform="translate(0 100.647)" fill="none"/>
    </clipPath>
    <clipPath id="clip-path-5">
      <rect id="사각형_3539" data-name="사각형 3539" width="35.106" height="21.535" transform="translate(88.341 28.368)" fill="none"/>
    </clipPath>
    <clipPath id="clip-path-6">
      <rect id="사각형_3540" data-name="사각형 3540" width="39.812" height="24.268" transform="translate(42.117 17.767)" fill="none"/>
    </clipPath>
    <clipPath id="clip-path-7">
      <rect id="사각형_3541" data-name="사각형 3541" width="22.913" height="32.662" transform="translate(84.523 15.148)" fill="none"/>
    </clipPath>
    <clipPath id="clip-path-8">
      <rect id="사각형_3542" data-name="사각형 3542" width="36.909" height="26.174" transform="translate(44.048 12.351)" fill="none"/>
    </clipPath>
    <clipPath id="clip-path-9">
      <rect id="사각형_3533" data-name="사각형 3533" width="246.849" height="225.493" fill="none"/>
    </clipPath>
    <clipPath id="clip-path-11">
      <rect id="사각형_3521" data-name="사각형 3521" width="164.055" height="37.428" transform="translate(0 188.065)" fill="none"/>
    </clipPath>
    <clipPath id="clip-path-13">
      <rect id="사각형_3523" data-name="사각형 3523" width="5.019" height="19.652" transform="translate(118.46 132.58)" fill="none"/>
    </clipPath>
    <clipPath id="clip-path-14">
      <rect id="사각형_3524" data-name="사각형 3524" width="117.267" height="33.978" transform="translate(46.112 186.624)" fill="none"/>
    </clipPath>
    <clipPath id="clip-path-15">
      <rect id="사각형_3525" data-name="사각형 3525" width="12.681" height="39.611" transform="translate(72.172 18.998)" fill="none"/>
    </clipPath>
    <clipPath id="clip-path-16">
      <rect id="사각형_3526" data-name="사각형 3526" width="30.384" height="10.859" transform="translate(90.769 60.162)" fill="none"/>
    </clipPath>
    <clipPath id="clip-path-17">
      <rect id="사각형_3527" data-name="사각형 3527" width="9.462" height="5.533" transform="translate(131.34 52.501)" fill="none"/>
    </clipPath>
    <clipPath id="clip-path-18">
      <rect id="사각형_3528" data-name="사각형 3528" width="27.968" height="9.659" transform="translate(114.273 169.343)" fill="none"/>
    </clipPath>
    <clipPath id="clip-path-19">
      <rect id="사각형_3529" data-name="사각형 3529" width="35.577" height="17.107" transform="translate(42.346 121.421)" fill="none"/>
    </clipPath>
    <clipPath id="clip-path-20">
      <rect id="사각형_3530" data-name="사각형 3530" width="34.783" height="18.347" transform="translate(132.34 122.015)" fill="none"/>
    </clipPath>
    <clipPath id="clip-path-21">
      <rect id="사각형_3531" data-name="사각형 3531" width="30.167" height="171.737" transform="translate(12.912 25.253)" fill="none"/>
    </clipPath>
    <clipPath id="clip-path-22">
      <rect id="사각형_3536" data-name="사각형 3536" width="47.426" height="41.274" fill="none"/>
    </clipPath>
    <clipPath id="clip-path-23">
      <rect id="사각형_3535" data-name="사각형 3535" width="47.426" height="41.274" transform="translate(0 0)" fill="none"/>
    </clipPath>
    <clipPath id="clip-path-24">
      <rect id="사각형_3534" data-name="사각형 3534" width="47.426" height="18.016" transform="translate(0 23.258)" fill="none"/>
    </clipPath>
  </defs>
  <g id="그룹_3287" data-name="그룹 3287" transform="translate(-140 -366.112)">
    <g id="쓰레기2" transform="translate(323.125 473.858)">
      <g id="그룹_3270" data-name="그룹 3270" clip-path="url(#clip-path)">
        <g id="그룹_3255" data-name="그룹 3255">
          <g id="그룹_3254" data-name="그룹 3254" clip-path="url(#clip-path-2)">
            <g id="그룹_3253" data-name="그룹 3253" opacity="0.2" style="mix-blend-mode: multiply;isolation: isolate">
              <g id="그룹_3252" data-name="그룹 3252">
                <g id="그룹_3251" data-name="그룹 3251" clip-path="url(#clip-path-3)">
                  <path id="패스_8371" data-name="패스 8371" d="M91.064,109.655c0,4.975-20.385,9.008-45.532,9.008S0,114.63,0,109.655s20.386-9.008,45.532-9.008,45.532,4.033,45.532,9.008"/>
                </g>
              </g>
            </g>
          </g>
        </g>
        <path id="패스_8372" data-name="패스 8372" d="M4.57,88.446,12.231,89.6h3.53l5.98-2.119,2.854-2.515,7.494-.178L42.536,88.3l4.854,4.5L50.6,96.054,53,94.433l9.152-.105L66.015,92.8l7.041-6.082,5.788-4.147L80.15,81.5l4.2,2.612L85.42,89.6l.815,9.974v5.377l-2.195,2.8-3.609.675-11.753.349-10.714,2.973-11.18-4.418-4.667.893-6.293,3.525-2.653,1.623L24.94,111.6l-5.66-3.184-6.509-5.8-3.479-2.28-6.955-2.3Z" fill="#c8e3f1"/>
        <g id="그룹_3269" data-name="그룹 3269">
          <g id="그룹_3268" data-name="그룹 3268" clip-path="url(#clip-path-2)">
            <path id="패스_8373" data-name="패스 8373" d="M38.963,97.753c-1.9.445-4.018,2.717-6.886,3.294a29.738,29.738,0,0,1-10.124.261l6.732,2.581,10.278-.924c-.235-.73.235-4.482,0-5.212" fill="#adc1d0"/>
            <path id="패스_8374" data-name="패스 8374" d="M33.451,97.753l-3.258-4.47-4.3-3.2a7.9,7.9,0,0,1,5.552,1.933c2.25,2.182,3.681,5.433,2,5.736" fill="#adc1d0"/>
            <path id="패스_8375" data-name="패스 8375" d="M83.149,84.7l-2.113,9.433L84.35,100.9l1.884-4.328-.814-5.646-.191-3.985Z" fill="#adc1d0"/>
            <path id="패스_8376" data-name="패스 8376" d="M71.74,93.283l-4.052-2.532L66.014,92.8Z" fill="#adc1d0"/>
            <path id="패스_8377" data-name="패스 8377" d="M20.007,88.446,14.3,89.6,4.569,88.446,2.337,98.039l9.893,3.27s2.368,2.861,2.909,3.492,6.851,6.04,7.663,6.221,8.294,2.344,8.294,2.344a5.291,5.291,0,0,0,2.074,0c1.623-.181,9.376-5.59,10.188-5.861a14.351,14.351,0,0,1,3.427-.18c.9,0,3.425,1.262,4.416,1.8s5.32,2.615,6.763,2.615A13.225,13.225,0,0,0,63.1,110.39a17.873,17.873,0,0,1,7.392-1.713c2.615.091,11.9-.09,12.712-.721a14.449,14.449,0,0,0,2.885-3.967c.452-1.082-.269-1.713-.81-2.254S83.027,99.3,83.027,99.3a57.451,57.451,0,0,1-2.615-5.68c0-.541.722-5.95.9-6.671S82.4,82.983,82.4,82.983a1.406,1.406,0,0,0-1.172-1.533c-1.353-.361-5.229,1.721-5.77,2.664s-8.383,4.831-10.909,10.235" fill="none" stroke="#000" stroke-linecap="round" stroke-linejoin="round" stroke-width="3"/>
            <path id="패스_8378" data-name="패스 8378" d="M18.385,90.105l4.959-4.688a25.685,25.685,0,0,1,4.237-1.262c1.443-.181,2.524.27,4.508.631s7.212,1.491,8.475,2.323,4.057,2.275,4.508,3A58.207,58.207,0,0,0,50.6,96.054" fill="none" stroke="#000" stroke-linecap="round" stroke-linejoin="round" stroke-width="3"/>
            <path id="패스_8379" data-name="패스 8379" d="M44.711,101.194s7.032-6.491,8.294-6.762,18.212,0,18.212,0" fill="none" stroke="#000" stroke-linecap="round" stroke-linejoin="round" stroke-width="3"/>
            <path id="패스_8380" data-name="패스 8380" d="M82.4,82.982a10.6,10.6,0,0,1,2.074,2.885c.45,1.262,1.262,4.508,1.082,5.5s.824,3.245.682,3.876-.322,2.344-.412,2.976.961,2.847.21,4.4" fill="none" stroke="#000" stroke-linecap="round" stroke-linejoin="round" stroke-width="3"/>
            <path id="패스_8381" data-name="패스 8381" d="M25.156,90.129s4.6,3.7,4.959,4.183,3.335,5.259,3.335,5.259" fill="none" stroke="#000" stroke-linecap="round" stroke-linejoin="round" stroke-width="3"/>
            <path id="패스_8382" data-name="패스 8382" d="M20.39,102.446s6.311,1.082,8.294,1.443,10.278,0,10.278,0" fill="none" stroke="#000" stroke-linecap="round" stroke-linejoin="round" stroke-width="3"/>
            <line id="선_328" data-name="선 328" x1="2.066" y2="11.711" transform="translate(12.23 89.597)" fill="none" stroke="#000" stroke-linecap="round" stroke-linejoin="round" stroke-width="3"/>
            <path id="패스_8383" data-name="패스 8383" d="M42.536,88.3s.725,7.938-4.171,11.274c0,0,3.027,5.166,2.1,9.569l2.889-1.636,4.926.236,2.917,1.387,5.783-14.813-3.98.118-4.341,1.02-3.592-5.348Z" fill="#48ace0"/>
            <path id="패스_8384" data-name="패스 8384" d="M42.536,88.3s.725,7.938-4.171,11.274c0,0,3.027,5.166,2.1,9.569l2.889-1.636,4.926.236,2.917,1.387,5.783-14.813-3.98.118-4.341,1.02-3.592-5.348Z" fill="none" stroke="#000" stroke-linecap="round" stroke-linejoin="round" stroke-width="3"/>
            <path id="패스_8385" data-name="패스 8385" d="M12.23,101.308l-9.894-3.27,2.233-9.593L14.3,89.6Z" fill="#48ace0"/>
            <path id="패스_8386" data-name="패스 8386" d="M12.23,101.308l-9.894-3.27,2.233-9.593L14.3,89.6Z" fill="none" stroke="#000" stroke-linecap="round" stroke-linejoin="round" stroke-width="3"/>
            <g id="그룹_3258" data-name="그룹 3258" opacity="0.2" style="mix-blend-mode: multiply;isolation: isolate">
              <g id="그룹_3257" data-name="그룹 3257">
                <g id="그룹_3256" data-name="그룹 3256" clip-path="url(#clip-path-5)">
                  <path id="패스_8387" data-name="패스 8387" d="M117.55,28.368c4.934,1.207,5.888,2.228,5.9,2.92.015,1.139-2.524,1.637-10.664,5a48.889,48.889,0,0,1-5.308,1.752,18.9,18.9,0,0,1-1.9.409,27.98,27.98,0,0,1-9.16,0,9.345,9.345,0,0,0,.973,3.207c1.23,2.368,2.842,2.844,2.918,4.028.061.943-.855,2.328-5.282,4.22L88.341,32.59l29.209-4.222"/>
                </g>
              </g>
            </g>
            <g id="그룹_3261" data-name="그룹 3261" opacity="0.2" style="mix-blend-mode: multiply;isolation: isolate">
              <g id="그룹_3260" data-name="그룹 3260">
                <g id="그룹_3259" data-name="그룹 3259" clip-path="url(#clip-path-6)">
                  <path id="패스_8388" data-name="패스 8388" d="M81.929,25.979a42.4,42.4,0,0,1-7.473,9.392,27.529,27.529,0,0,1-5.562,4.288c-4.619,2.58-8.63,2.5-15.732,2.27-3.838-.126-10.665-.35-11.031-2.622a1.7,1.7,0,0,1,.277-1.121c2.8-4.953,17.5-8.178,17.5-8.178L77.187,17.767l4.742,8.212"/>
                </g>
              </g>
            </g>
            <path id="패스_8389" data-name="패스 8389" d="M89.554,31.138a12.419,12.419,0,0,0,11.829,2.374,67.81,67.81,0,0,1,12.052-2.374c1.616-.271,6.467-.712,4.115-2.77S104.91,26.9,100.5,23.224,89.037,18.668,88.449,13.083A32.123,32.123,0,0,1,89.478,2.059s-4.69-1.258-5.145,0A28.124,28.124,0,0,1,74.78,15.287c-7.2,5.292-19.4,13.228-22.781,14.992s-10.436,3.968-9.848,6.614S46.267,40.42,53.468,38.8s10.877-2.058,14.257-4.851S78.6,23.077,78.6,23.077a25.329,25.329,0,0,0,.588,12.934c2.2,6.761,5.438,12.2,8.525,12.2s8.818,2.058,7.643-1.911-6.32-14.4-6.467-18.372" fill="#f8bb00"/>
            <path id="패스_8390" data-name="패스 8390" d="M89.554,31.138a12.419,12.419,0,0,0,11.829,2.374,67.81,67.81,0,0,1,12.052-2.374c1.616-.271,6.467-.712,4.115-2.77S104.91,26.9,100.5,23.224,89.037,18.668,88.449,13.083A32.123,32.123,0,0,1,89.478,2.059s-4.69-1.258-5.145,0A28.124,28.124,0,0,1,74.78,15.287c-7.2,5.292-19.4,13.228-22.781,14.992s-10.436,3.968-9.848,6.614S46.267,40.42,53.468,38.8s10.877-2.058,14.257-4.851S78.6,23.077,78.6,23.077a25.329,25.329,0,0,0,.588,12.934c2.2,6.761,5.438,12.2,8.525,12.2s8.818,2.058,7.643-1.911-6.32-14.4-6.467-18.372" fill="none" stroke="#000" stroke-linecap="round" stroke-linejoin="round" stroke-width="3"/>
            <path id="패스_8391" data-name="패스 8391" d="M91.682,22.636s10.909,8.629,19.417,8.8" fill="none" stroke="#000" stroke-linecap="round" stroke-linejoin="round" stroke-width="2"/>
            <path id="패스_8392" data-name="패스 8392" d="M84.04,31.433s2.94,9.134,4.556,11.338a21.294,21.294,0,0,1,2.6,5.807" fill="none" stroke="#000" stroke-linecap="round" stroke-linejoin="round" stroke-width="2"/>
            <path id="패스_8393" data-name="패스 8393" d="M89.478,2.059s-4.115,5-4.409,9.406-1.029,12.2-1.029,12.2" fill="none" stroke="#000" stroke-linecap="round" stroke-linejoin="round" stroke-width="2"/>
            <path id="패스_8394" data-name="패스 8394" d="M45.532,37.039s11.611-5.144,14.11-6.908,8.377-5.01,8.377-5.01" fill="none" stroke="#000" stroke-linecap="round" stroke-linejoin="round" stroke-width="2"/>
            <path id="패스_8395" data-name="패스 8395" d="M72.35,21.972A20.58,20.58,0,0,0,81.1,8.576" fill="none" stroke="#000" stroke-linecap="round" stroke-linejoin="round" stroke-width="2"/>
            <g id="그룹_3264" data-name="그룹 3264" style="mix-blend-mode: multiply;isolation: isolate">
              <g id="그룹_3263" data-name="그룹 3263">
                <g id="그룹_3262" data-name="그룹 3262" clip-path="url(#clip-path-7)">
                  <path id="패스_8396" data-name="패스 8396" d="M107.437,32.039a103.616,103.616,0,0,1-10.553-5.776c-5.359-3.354-7.328-5.657-8.249-6.74a28.405,28.405,0,0,1-3.06-4.375,41.969,41.969,0,0,0-.943,12.344A43.015,43.015,0,0,0,91.576,47.81l2.828-.343q-2.317-8.44-4.637-16.881L95.873,33.5Z" fill="#f8bb00"/>
                </g>
              </g>
            </g>
            <g id="그룹_3267" data-name="그룹 3267" style="mix-blend-mode: multiply;isolation: isolate">
              <g id="그룹_3266" data-name="그룹 3266">
                <g id="그룹_3265" data-name="그룹 3265" clip-path="url(#clip-path-8)">
                  <path id="패스_8397" data-name="패스 8397" d="M80.957,12.351c-1.136,7.686-3.947,12.265-6.5,15.093-2.476,2.74-7.922,7.388-7.922,7.388L51.694,38.414l-7.646.11c1.515-.835,4.753-2.618,8.9-4.889,12.766-7,15.671-8.47,19.406-11.663a49.423,49.423,0,0,0,8.606-9.621" fill="#f8bb00"/>
                </g>
              </g>
            </g>
          </g>
        </g>
      </g>
    </g>
    <g id="청소코니" transform="translate(140 366.112)">
      <g id="그룹_3242" data-name="그룹 3242" clip-path="url(#clip-path-9)">
        <g id="그룹_3212" data-name="그룹 3212">
          <g id="그룹_3211" data-name="그룹 3211" clip-path="url(#clip-path-9)">
            <g id="그룹_3210" data-name="그룹 3210" opacity="0.2" style="mix-blend-mode: multiply;isolation: isolate">
              <g id="그룹_3209" data-name="그룹 3209">
                <g id="그룹_3208" data-name="그룹 3208" clip-path="url(#clip-path-11)">
                  <path id="패스_8304" data-name="패스 8304" d="M142.241,202.541c-4.817-.445.422-1.633-4.357-1-4.093.541-8.065,1.714-12.147,2.313a55.313,55.313,0,0,1-6.336.543c-2.9.088-6-.5-8.852-.21,16.13-1.649,26.519-4.221,26.519-7.115,0-4.974-30.684-9.007-68.534-9.007S0,192.1,0,197.072c0,4.193,21.79,7.716,51.3,8.721,1.711,2.808,5.934,5.234,7.833,5.882,8.965,3.055,18.27,2.582,27.575,3.065,7.568.393,14.15.879,22.288,3.092,6.157,1.674,11.55,5.124,17.743,6.574a42.591,42.591,0,0,0,17.762.291,31.225,31.225,0,0,0,13.81-6.186,18.08,18.08,0,0,0,4.955-5.673c4.056-8.406-8.574-8.017-13.148-8.758-1.839-.3-6.008-1.366-7.874-1.539"/>
                </g>
              </g>
            </g>
          </g>
        </g>
        <path id="패스_8305" data-name="패스 8305" d="M52.483,10.334,37.2,14.454l-7.034,6.973L24.118,32.551,16.682,70.215l-2.865,32.969-1.293,35.552.389,20.967,3.9,11.574L18,175.658l.225,17.684,4.737,2.763H46.25l4.343-3.158L50.214,173.2h1.924l69.741-25.3,4.135-14.667,2.7-6.654,3.744-3.031,11.491,9.638,8.179,5.124,9.627,1.89,7.232-2.732,3.567-4.16,1.272-6.717-2.547-6.082-10.865-8.465-18.231-14.1-.043-1.026,6.584-11.831,5.517-17.057,3.117-14.418.151-9.125-3.534-10.775-3.722-5.351-4.709-2.087L113.283,14.777,77.8,8.648H64.968Z" fill="#f8bb00"/>
        <g id="그룹_3241" data-name="그룹 3241">
          <g id="그룹_3240" data-name="그룹 3240" clip-path="url(#clip-path-9)">
            <path id="패스_8306" data-name="패스 8306" d="M57.307,136.675c3.659-1.818,16.42-8.159,29.093-4.7a24.26,24.26,0,0,1,13.953,9.838c9.642,14.067-.554,30.308-1.3,31.043-19.007.216-43.888.431-62.9.647-.155-2.853-.947-25.847,21.154-36.829" fill="#fff"/>
            <path id="패스_8307" data-name="패스 8307" d="M142.279,97.556s15.032-23.99,15.226-46.137c.121-13.9-2.334-22.911-15.5-27.02-17.838-5.567-37.889-13.24-56.5-14.684,0,0-42.956-5.349-55.34,11.713-12.056,16.609-15.548,46.812-17.4,98.9,0,0-.84,20.49.147,39.379C13.4,169.06,17.788,171.56,18,175.658l.225,17.684s0,2.764,4.737,2.764H46.25s3.948-.79,4.343-3.158-.379-19.746-.379-19.746h3.908" fill="none" stroke="#000" stroke-linecap="round" stroke-linejoin="round" stroke-width="3.5"/>
            <path id="패스_8308" data-name="패스 8308" d="M130.83,122.015c5.624,5.389,5.588,5.118,13.115,11.169,17.847,14.346,27.3,2.24,27.3,2.24s8.99-10.8-6.146-20.314-22.816-17.554-22.816-17.554l3.09-5.471" fill="#f8bb00"/>
            <path id="패스_8309" data-name="패스 8309" d="M130.83,122.015c5.624,5.389,5.588,5.118,13.115,11.169,17.847,14.346,27.3,2.24,27.3,2.24s8.99-10.8-6.146-20.314-22.816-17.554-22.816-17.554l3.09-5.471" fill="none" stroke="#000" stroke-linecap="round" stroke-linejoin="round" stroke-width="3.5"/>
            <path id="패스_8310" data-name="패스 8310" d="M90.946,93.045a2.775,2.775,0,1,1-2.4-3.106,2.774,2.774,0,0,1,2.4,3.106"/>
            <path id="패스_8311" data-name="패스 8311" d="M90.946,93.045a2.775,2.775,0,1,1-2.4-3.106A2.774,2.774,0,0,1,90.946,93.045Z" fill="none" stroke="#000" stroke-linecap="round" stroke-linejoin="round" stroke-width="2.8"/>
            <path id="패스_8312" data-name="패스 8312" d="M112.172,95.774a2.775,2.775,0,1,1-2.4-3.105,2.774,2.774,0,0,1,2.4,3.105"/>
            <path id="패스_8313" data-name="패스 8313" d="M112.172,95.774a2.775,2.775,0,1,1-2.4-3.105A2.774,2.774,0,0,1,112.172,95.774Z" fill="none" stroke="#000" stroke-linecap="round" stroke-linejoin="round" stroke-width="2.8"/>
            <path id="패스_8314" data-name="패스 8314" d="M83.706,100.4h0a30.288,30.288,0,0,0,28.106,3.615h0" fill="none" stroke="#000" stroke-linecap="round" stroke-linejoin="round" stroke-width="3.5"/>
            <path id="패스_8315" data-name="패스 8315" d="M72.9,119.05l8.711,1.461,9.187,3.673,5.25,5.861,15.19-.193,9.579-6.429q1.021,2.189,2.044,4.377.722,5.622,1.445,11.243l-.642,9.8q.119,2.727.238,5.455l6.924,7.116s15.762,6.079,16.155,6.36,9.669,8.841,9.669,8.841l5.479,10.012,2.252,10.863-3.818,9.636-5.58,6.838L144.268,219.1l-7.68.541-10.637-.777-19.911-1.712L85.673,215.7l-26.847.545L48.669,205.7q-1.164-7.419-2.33-14.839,2.182-4.489,4.366-8.979l5.73-16.363,1.193-15.3-1.076-4.144,1.419-5.711,9.808-1.833,6.771-1.09,2.469-1.289.875-6.508-3.984-6.693Z" fill="#81c29d"/>
            <g id="그룹_3215" data-name="그룹 3215" style="mix-blend-mode: multiply;isolation: isolate">
              <g id="그룹_3214" data-name="그룹 3214">
                <g id="그룹_3213" data-name="그룹 3213" clip-path="url(#clip-path-13)">
                  <path id="패스_8316" data-name="패스 8316" d="M123.479,132.58a16.8,16.8,0,0,1-2.116,7.888,16.409,16.409,0,0,1-2.9,3.76q2.424,4,4.85,8,.084-9.826.169-19.652" fill="#81c29d"/>
                </g>
              </g>
            </g>
            <path id="패스_8317" data-name="패스 8317" d="M91.581,125.619l17.988-7.142,8.221-.609,2.51,2.853,1.136,3.689-8.427,5.144-11.475,2.411-8.645-2.457Z" fill="#236d47"/>
            <g id="그룹_3218" data-name="그룹 3218" style="mix-blend-mode: multiply;isolation: isolate">
              <g id="그룹_3217" data-name="그룹 3217">
                <g id="그룹_3216" data-name="그룹 3216" clip-path="url(#clip-path-14)">
                  <path id="패스_8318" data-name="패스 8318" d="M162.132,186.624a34.8,34.8,0,0,1-11.765,16.517c-9.072,6.809-23.453,9.942-34.014,5.176-4.166-1.881-8.544-5.354-16.761-6.409a38.3,38.3,0,0,0-6.654-.246c-8.558.327-11.321,2.835-20.458,4.436-5.853,1.026-8.78,1.539-12.077.74-7.852-1.9-12.341-9.231-14.248-12.93A24.382,24.382,0,0,0,49.3,207.451a24.01,24.01,0,0,0,6.81,7.5l24.087.754,25.844,1.447,19.911,1.712,8.976,1.383,5.834.352,8.854-3.235a26.53,26.53,0,0,0,8.66-6.82,26.214,26.214,0,0,0,3.672-5.866,30.911,30.911,0,0,0,1.219-5.663,31.566,31.566,0,0,0-1.034-12.394" fill="#81c29d"/>
                </g>
              </g>
            </g>
            <path id="패스_8319" data-name="패스 8319" d="M123.906,154.294a74.333,74.333,0,0,0,.787-17.666c-.355-4.631-.962-12.607-3.873-13.205-1.594-.329-2.3,1.813-5.594,4.195-5.729,4.14-14.115,5.284-19.175,2.426a17.148,17.148,0,0,1-4.47-3.426,18.461,18.461,0,0,0-3.246-3.67s-.231-.177-.613-.431a15.758,15.758,0,0,0-1.534-.884c-.833-.414-8.014-1.667-18-2.584" fill="none" stroke="#000" stroke-linecap="round" stroke-linejoin="round" stroke-width="3.5"/>
            <path id="패스_8320" data-name="패스 8320" d="M83.086,123.3c1.809,7.223-.428,14.445-5.548,18.094-4.5,3.2-9.8,2.649-11.1,2.475a16.866,16.866,0,0,1-9.315-4.511q.438-2.035.875-4.072a24.725,24.725,0,0,0,10.879-.767,25.965,25.965,0,0,0,14.2-11.219" fill="#388b63"/>
            <path id="패스_8321" data-name="패스 8321" d="M118.46,144.228c3,8.035,7.313,13.532,12.37,17.182,4.046,2.922,5.5,2.447,11.665,6.286,5.215,3.25,11.213,6.988,15.618,13.986,2.142,3.4,6.255,9.938,4.91,18.354a23.673,23.673,0,0,1-8.036,13.925c-6.015,5.153-12.888,5.758-20.059,6.289-8.173.6-10.767-.735-26.587-2.589-10.251-1.2-15.6-1.828-22.668-1.961-18.726-.355-23.175,3.241-29.564-.746-8.5-5.3-9.727-17.35-9.859-18.848-1.288-14.6,10.016-20.111,12.541-36.758.964-6.357.81-15.405-4.253-27.021" fill="none" stroke="#000" stroke-linecap="round" stroke-linejoin="round" stroke-width="3.5"/>
            <path id="패스_8322" data-name="패스 8322" d="M86.188,121.634c6.8,3.026,11.336,2.608,14.252,1.629,2.408-.808,2.789-1.691,6.479-2.915,3.644-1.21,7.741-2.571,11.259-.656a9.2,9.2,0,0,1,3.978,4.639" fill="none" stroke="#000" stroke-linecap="round" stroke-linejoin="round" stroke-width="3.5"/>
            <path id="패스_8323" data-name="패스 8323" d="M130.83,122.015c-2.112,3.648-6.136,14.614-6.136,14.614" fill="none" stroke="#000" stroke-linecap="round" stroke-linejoin="round" stroke-width="3.5"/>
            <path id="패스_8324" data-name="패스 8324" d="M46.042,92.481a213.676,213.676,0,0,0,27.572,20.987c15.135,9.512,6.146,20.314,6.146,20.314s-9.4,12.044-27.3-2.241c-8.214-6.557-10.394-8.475-15.328-12.874" fill="#f8bb00"/>
            <path id="패스_8325" data-name="패스 8325" d="M46.042,92.481a213.676,213.676,0,0,0,27.572,20.987c15.135,9.512,6.146,20.314,6.146,20.314s-9.4,12.044-27.3-2.241c-8.214-6.557-10.394-8.475-15.328-12.874" fill="none" stroke="#000" stroke-linecap="round" stroke-miterlimit="10" stroke-width="3.5"/>
            <g id="그룹_3221" data-name="그룹 3221" style="mix-blend-mode: multiply;isolation: isolate">
              <g id="그룹_3220" data-name="그룹 3220">
                <g id="그룹_3219" data-name="그룹 3219" clip-path="url(#clip-path-15)">
                  <path id="패스_8326" data-name="패스 8326" d="M84.853,58.609s-8.147-1.5-11.486-12.09,1.382-14.855,1.382-14.855-4.721-4.1-1.382-7.807A30.063,30.063,0,0,1,78.513,19l3.471,11.954Z" fill="#f8bb00"/>
                </g>
              </g>
            </g>
            <g id="그룹_3224" data-name="그룹 3224" style="mix-blend-mode: multiply;isolation: isolate">
              <g id="그룹_3223" data-name="그룹 3223">
                <g id="그룹_3222" data-name="그룹 3222" clip-path="url(#clip-path-16)">
                  <path id="패스_8327" data-name="패스 8327" d="M121.153,66.224A22.42,22.42,0,0,1,109.211,70.9c-2.11.165-7.589.594-12.14-2.614a36.732,36.732,0,0,1-6.3-6.383l5.576-1.747,3.639,5.12Z" fill="#f8bb00"/>
                </g>
              </g>
            </g>
            <g id="그룹_3227" data-name="그룹 3227" style="mix-blend-mode: multiply;isolation: isolate">
              <g id="그룹_3226" data-name="그룹 3226">
                <g id="그룹_3225" data-name="그룹 3225" clip-path="url(#clip-path-17)">
                  <path id="패스_8328" data-name="패스 8328" d="M140.8,54.183s-5.163,4.617-9.463,3.741l.326-5.423Z" fill="#f8bb00"/>
                </g>
              </g>
            </g>
            <path id="패스_8329" data-name="패스 8329" d="M90.574,8.047l-7.225,7.028-6.161,8.173,1.089,4.826.909,5.03-1.968,4.674,2.665,11.97s8.91,10.028,9.2,10.153,7.259-.682,7.259-.682l3.568,3.7s9.468,3.095,10.093,3.09,17.028-3.169,17.028-3.169l3.123-4.379,1.509-5.965,6.179.915L143.968,50l3.009-7.368-.444-15.356-2.285-4.09-7.211-.744-.913-1.525,2.2-4.125.242-5.593-8.41-5.764L119.118,1.75l-12.755.929-3.976,4.393-1.612,2.506-5.29-2.965Z" fill="#ffd"/>
            <path id="패스_8330" data-name="패스 8330" d="M143.185,23.887a13.284,13.284,0,0,0-10.727,4.794l2.665-4.825,8.062.031" fill="#e0e0b8"/>
            <path id="패스_8331" data-name="패스 8331" d="M88.488,27.484s-8.217-.444-8.661-7.032L77.755,25.76l1.48,4.093Z" fill="#e0e0b8"/>
            <path id="패스_8332" data-name="패스 8332" d="M99.984,54.183S87.448,56.362,84.334,52.8l1.967,4.12,4.66,2.456,5.27-1.118Z" fill="#e0e0b8"/>
            <path id="패스_8333" data-name="패스 8333" d="M130.566,54.183c-1.123,1.118-7.39,7.144-16.848,6.787a22.4,22.4,0,0,1-12.136-4.232l-2.236,2.475.567,3.711,10.292,2.358,14.906-1.589,6.555-4.8Z" fill="#e0e0b8"/>
            <path id="패스_8334" data-name="패스 8334" d="M144.28,46.01s-5.309,5.556-12.615,2.71l3.179,4.077h6.343Z" fill="#e0e0b8"/>
            <path id="패스_8335" data-name="패스 8335" d="M89.154,28.682S74.988,30.2,77.482,40.55c1.849,7.679,6.672,19.4,13.958,19.944a9.426,9.426,0,0,0,4.9-1.275,12.13,12.13,0,0,0,5.283-5.618" fill="none" stroke="#000" stroke-linecap="round" stroke-linejoin="round" stroke-width="3.5"/>
            <path id="패스_8336" data-name="패스 8336" d="M79.593,30.952s-5.342-5,0-11.673S93.937,2.207,99.058,7.484a17.752,17.752,0,0,1,4.811,12.105" fill="none" stroke="#000" stroke-linecap="round" stroke-linejoin="round" stroke-width="3.5"/>
            <path id="패스_8337" data-name="패스 8337" d="M102.5,12.778s-1.585-10.41,6.952-10.86c9.509-.5,10.958.176,15.3,1.262s16.668,7.563,13.565,13.616-3.621,6.623-7.5,11.279" fill="none" stroke="#000" stroke-linecap="round" stroke-linejoin="round" stroke-width="3.5"/>
            <path id="패스_8338" data-name="패스 8338" d="M135.07,22.978s10.363-3.756,11.464,4.3c1.064,7.792.926,27.109-8.689,26.137-6.355-.642-7.689-4.358-7.689-4.358" fill="none" stroke="#000" stroke-linecap="round" stroke-linejoin="round" stroke-width="3.5"/>
            <path id="패스_8339" data-name="패스 8339" d="M128.391,45.238s4.5,8.029,2.949,12.685-6.053,6.208-12.571,7.294-21.924,2.7-19.9-7.714" fill="none" stroke="#000" stroke-linecap="round" stroke-linejoin="round" stroke-width="3.5"/>
            <g id="그룹_3230" data-name="그룹 3230" style="mix-blend-mode: multiply;isolation: isolate">
              <g id="그룹_3229" data-name="그룹 3229">
                <g id="그룹_3228" data-name="그룹 3228" clip-path="url(#clip-path-18)">
                  <path id="패스_8340" data-name="패스 8340" d="M117.435,170.58c5.932-2.334,13.713-1.369,19.6,2.941A21.694,21.694,0,0,1,142.241,179a35.686,35.686,0,0,0-14.991-5.725c-6.545-.845-12.752.4-12.971-.637-.157-.74,2.874-1.949,3.156-2.06" fill="#81c29d"/>
                </g>
              </g>
            </g>
            <g id="그룹_3233" data-name="그룹 3233" style="mix-blend-mode: multiply;isolation: isolate">
              <g id="그룹_3232" data-name="그룹 3232">
                <g id="그룹_3231" data-name="그룹 3231" clip-path="url(#clip-path-19)">
                  <path id="패스_8341" data-name="패스 8341" d="M42.346,121.421s19.847,15.37,35.577,11.434l-2.2,3.414-7.939,2.259-8.514-2.537Z" fill="#f8bb00"/>
                </g>
              </g>
            </g>
            <g id="그룹_3236" data-name="그룹 3236" style="mix-blend-mode: multiply;isolation: isolate">
              <g id="그룹_3235" data-name="그룹 3235">
                <g id="그룹_3234" data-name="그룹 3234" clip-path="url(#clip-path-20)">
                  <path id="패스_8342" data-name="패스 8342" d="M167.123,136.779c-.074.016-.156.022-.232.036a4.879,4.879,0,0,0,.228-1.691l-10.454-7.968-6.207.136a13.545,13.545,0,0,0,.16,2.073,13.69,13.69,0,0,0,1.307,4.057,131.771,131.771,0,0,1-19.585-11.407l17.391,15.625,5.768.609a7.563,7.563,0,0,0,7.091,1.91l4.533-3.38" fill="#f8bb00"/>
                </g>
              </g>
            </g>
            <g id="그룹_3239" data-name="그룹 3239" style="mix-blend-mode: multiply;isolation: isolate">
              <g id="그룹_3238" data-name="그룹 3238">
                <g id="그룹_3237" data-name="그룹 3237" clip-path="url(#clip-path-21)">
                  <path id="패스_8343" data-name="패스 8343" d="M29.127,25.253,41.342,40.826a8.169,8.169,0,0,1,1.347,7.528C39.055,59.708,36.082,69.5,33.8,77.217c0,0-5.054,17.068-12.662,86.885-.114,1.043-.348,3.5,1.134,4.989a5.016,5.016,0,0,0,3.514,1.248l1.474,26.416c-4.537.722-6.589-.364-7.618-1.365-2.318-2.256-1.36-5.949-1.565-12.92a68.145,68.145,0,0,0-1.257-11.194,43.848,43.848,0,0,1-3.9-11.573l1.47-63.029,1.611-26.957L21.081,41.51Z" fill="#f8bb00"/>
                </g>
              </g>
            </g>
            <path id="패스_8344" data-name="패스 8344" d="M165.749,121.693l9.113,5.2,14.155,12.275,43.123,33.984,9.694,5.924,3.265,3.719-9.025,8.988-6.785-6.6s-6.971-5.387-7.535-5.094S197.4,160.17,197.4,160.17l-18.622-14.08-6.845-9.723-8.309-12.437Z" fill="#b7b7b7"/>
            <path id="패스_8345" data-name="패스 8345" d="M163.624,121.535l-6.55,14.347,42.879,60.942,2.387,4.433,10.2,10.652,8.421-8.733-9.886-10.34-3.119-5.3L165,126.525a6.9,6.9,0,0,1-1.38-4.99" fill="#e0e0e0"/>
            <path id="패스_8346" data-name="패스 8346" d="M163.624,121.535l-6.55,14.347,42.879,60.942,2.387,4.433,10.2,10.652,8.421-8.733-9.886-10.34-3.119-5.3L165,126.525A6.9,6.9,0,0,1,163.624,121.535Z" fill="none" stroke="#000" stroke-linecap="round" stroke-linejoin="round" stroke-width="3.5"/>
            <path id="패스_8347" data-name="패스 8347" d="M163.624,121.535s7.39-.062,10.246,4.222,42.843,34.632,42.843,34.632L230.461,171.9a19.488,19.488,0,0,0,4.641,2.857c1.785.535,4.641,2.677,5.712,3.391a43.043,43.043,0,0,1,4.285,4.642l-9.025,8.987s-7.855-7.854-9.461-8.926-4.64-2.32-6.426-3.927-42.855-35.181-42.855-35.181" fill="none" stroke="#000" stroke-linecap="round" stroke-linejoin="round" stroke-width="3.5"/>
            <path id="패스_8348" data-name="패스 8348" d="M35.636,172.489s10.918.713,14.826.713" fill="none" stroke="#000" stroke-linecap="round" stroke-miterlimit="10" stroke-width="3.5"/>
            <path id="패스_8349" data-name="패스 8349" d="M151.286,127.144c1.875,2.315,3.687,4.942,6.172,6.687a4,4,0,0,0,4.252.485,3.694,3.694,0,0,0,1.892-3.642c-.25-1.6-1.232-2.949-1.815-4.394a20.821,20.821,0,0,1-1.33-5.09" fill="#f8bb00"/>
            <path id="패스_8350" data-name="패스 8350" d="M151.286,127.144c1.875,2.315,3.687,4.942,6.172,6.687a4,4,0,0,0,4.252.485,3.694,3.694,0,0,0,1.892-3.642c-.25-1.6-1.232-2.949-1.815-4.394a20.821,20.821,0,0,1-1.33-5.09" fill="none" stroke="#000" stroke-linecap="round" stroke-linejoin="round" stroke-width="3"/>
          </g>
        </g>
      </g>
    </g>
    <g id="쓰레기1" transform="translate(199.083 566)">
      <g id="그룹_3249" data-name="그룹 3249" clip-path="url(#clip-path-22)">
        <g id="그룹_3248" data-name="그룹 3248">
          <g id="그룹_3247" data-name="그룹 3247" clip-path="url(#clip-path-23)">
            <g id="그룹_3246" data-name="그룹 3246" opacity="0.2" style="mix-blend-mode: multiply;isolation: isolate">
              <g id="그룹_3245" data-name="그룹 3245">
                <g id="그룹_3244" data-name="그룹 3244" clip-path="url(#clip-path-24)">
                  <path id="패스_8351" data-name="패스 8351" d="M47.426,32.266c0,4.975-10.617,9.008-23.713,9.008S0,37.241,0,32.266s10.617-9.008,23.713-9.008,23.713,4.033,23.713,9.008"/>
                </g>
              </g>
            </g>
            <path id="패스_8352" data-name="패스 8352" d="M12.426,5.092,8.552,8.368l-.29,1.771v1.534l-2.054.964L3.745,14.5l-.484.969.711,3.356L3.988,21.6,2.857,23.8l.162,2.117S4.876,27.5,5.28,27.7s4.037,2.1,4.037,2.1l1.131,1.574,1,1.881,8.687-1.679,1.848,1.009.537,1.854s4.842.8,5.286.6,8.281-2.861,8.281-2.861l-.206-2.5,1.292-1.857,5.035-3.409.6-2.007-1.2-3.328.032-1.942,1.14-1.765L39.76,6.707l-2.746-.848-3.068-.2L33.4,4.2l-.63-2.7L21.986,2.515,19.492,1.9Z" fill="#fff"/>
            <path id="패스_8353" data-name="패스 8353" d="M32.875,13.808c.425.228,3.308,1.826,3.2,4.39-.1,2.294-2.524,3.716-3,3.986q-.1-4.188-.194-8.376" fill="#b4cbd2"/>
            <path id="패스_8354" data-name="패스 8354" d="M37.928,7.954a3.964,3.964,0,0,0-2.445.267A3.91,3.91,0,0,0,34.022,9.4l.453-3,3.453,1.556" fill="#b4cbd2"/>
            <path id="패스_8355" data-name="패스 8355" d="M41.573,22.084,37.135,25.3v1.7l4.527-3.678q-.045-.616-.089-1.232" fill="#b4cbd2"/>
            <path id="패스_8356" data-name="패스 8356" d="M23.441,30.741l11.714-.865q.1,1.19.2,2.379L23.441,34.067Z" fill="#b4cbd2"/>
            <path id="패스_8357" data-name="패스 8357" d="M10.086,26.6s-4.922-2.882-3.519-5.642L3.525,24.288l6.231,4.73Z" fill="#b4cbd2"/>
            <path id="패스_8358" data-name="패스 8358" d="M7.373,13.658a2.673,2.673,0,0,0,0,3.629L5.027,18.9,3.854,15.124,6.786,13.4Z" fill="#b4cbd2"/>
            <path id="패스_8359" data-name="패스 8359" d="M12.215,18,14.9,19.465q.192.6.383,1.2A4.68,4.68,0,0,1,13.6,20.09a2.785,2.785,0,0,1-.806-.625A2.557,2.557,0,0,1,12.215,18" fill="#b4cbd2"/>
            <path id="패스_8360" data-name="패스 8360" d="M25.752,25.789c-.853.4-5,2.29-7.731,2.549a2.916,2.916,0,0,1-1.784-.3,3.4,3.4,0,0,1-1.4-2.166,12.134,12.134,0,0,1-.388-5.288q1.406,2.649,2.809,5.3Z" fill="#b4cbd2"/>
            <path id="패스_8361" data-name="패스 8361" d="M8.262,11.237s-5.908,3.1-5.391,4.342,1.757,5.376,1.757,5.376" fill="none" stroke="#000" stroke-linecap="round" stroke-linejoin="round" stroke-width="3"/>
            <path id="패스_8362" data-name="패스 8362" d="M8.262,17.957s-6.489,5.169-5.423,6.927,8.015,6.2,8.015,6.2" fill="none" stroke="#000" stroke-linecap="round" stroke-linejoin="round" stroke-width="3"/>
            <path id="패스_8363" data-name="패스 8363" d="M11.451,25.71s-1.344,7.857,0,7.547,15.094-2.481,15.094-2.481" fill="none" stroke="#000" stroke-linecap="round" stroke-linejoin="round" stroke-width="3"/>
            <path id="패스_8364" data-name="패스 8364" d="M22.08,31.486s-.808,3.942,2.293,3.529,11.269-1.682,11.579-3.529a39.188,39.188,0,0,0,0-6.189" fill="none" stroke="#000" stroke-linecap="round" stroke-linejoin="round" stroke-width="3"/>
            <path id="패스_8365" data-name="패스 8365" d="M36.09,29.018s6.685-4.342,6.685-5.479a28.951,28.951,0,0,0-1.344-4.963" fill="none" stroke="#000" stroke-linecap="round" stroke-linejoin="round" stroke-width="3"/>
            <path id="패스_8366" data-name="패스 8366" d="M38.847,19.611s3.515-2.585,3.928-4.239S39.261,7,38.33,6.482,33.4,5.663,33.4,5.663" fill="none" stroke="#000" stroke-linecap="round" stroke-linejoin="round" stroke-width="3"/>
            <path id="패스_8367" data-name="패스 8367" d="M32.954,9.066s1.137-5.893,0-7.133-10.969.582-10.969.582a4.658,4.658,0,0,0-3.9,0S8.261,7.426,8.261,8.927v4.092" fill="none" stroke="#000" stroke-linecap="round" stroke-linejoin="round" stroke-width="3"/>
            <path id="패스_8368" data-name="패스 8368" d="M19.063,8.005s-3.216.877-3.8,2.047-3.071,7.183-1.17,7.9,5.263,1.654,5.263,1.654" fill="none" stroke="#000" stroke-linecap="round" stroke-linejoin="round" stroke-width="3"/>
            <path id="패스_8369" data-name="패스 8369" d="M25.578,11.86c.366.351,5.629,1.813,6.287,3.055s1.01,5.67,0,6.663" fill="none" stroke="#000" stroke-linecap="round" stroke-linejoin="round" stroke-width="3"/>
            <path id="패스_8370" data-name="패스 8370" d="M15.853,20.217s.512,6.214,2.632,5.629,7.383-1.462,7.383-1.462" fill="none" stroke="#000" stroke-linecap="round" stroke-linejoin="round" stroke-width="3"/>
          </g>
        </g>
      </g>
    </g>
  </g>
</svg>