<svg xmlns="http://www.w3.org/2000/svg" width="360" height="660" viewBox="0 0 360 660">
    <defs>
        <clipPath id="1yl14nooea">
            <path transform="translate(235 202)" style="fill:#56c1dc" d="M0 0h360v660H0z"/>
        </clipPath>
        <clipPath id="n31x67662b">
            <path data-name="사각형 3341" style="fill:none" d="M0 0h308.333v60.617H0z"/>
        </clipPath>
        <clipPath id="ivnwpz4rrc">
            <path data-name="사각형 3330" style="fill:none" d="M0 0h302.109v8.154H0z"/>
        </clipPath>
        <clipPath id="hy4lqithqd">
            <path data-name="사각형 3334" style="fill:none" d="M0 0h287.906v3.739H0z"/>
        </clipPath>
        <clipPath id="onu18nii1e">
            <path data-name="사각형 2443" style="fill:none" d="M0 0h59.929v41.416H0z"/>
        </clipPath>
        <clipPath id="a4f90873qf">
            <path data-name="사각형 2444" style="fill:none" d="M0 0h73.814v56.108H0z"/>
        </clipPath>
        <clipPath id="pjkku4akxg">
            <path data-name="사각형 2442" style="fill:none" d="M0 0h53.495v30.062H0z"/>
        </clipPath>
        <clipPath id="zk99llqz1h">
            <path data-name="사각형 2431" style="fill:none" d="M0 0h102.763v13.457H0z"/>
        </clipPath>
        <clipPath id="7jommjan5i">
            <path data-name="사각형 2432" style="fill:none" d="M0 0h7.746v23.59H0z"/>
        </clipPath>
        <clipPath id="if5m7o8srj">
            <path data-name="사각형 2433" style="fill:none" d="M0 0h54.748v29.007H0z"/>
        </clipPath>
        <clipPath id="9rydnhd6sk">
            <path data-name="사각형 2434" style="fill:none" d="M0 0h67.115v27.997H0z"/>
        </clipPath>
        <clipPath id="yqq5nrwxgl">
            <path data-name="사각형 2435" style="fill:none" d="M0 0h30.965v7.212H0z"/>
        </clipPath>
        <clipPath id="tfuswd6djm">
            <path data-name="사각형 2436" style="fill:none" d="M0 0h31.97v21.112H0z"/>
        </clipPath>
        <clipPath id="c057d8r2rn">
            <path data-name="사각형 2437" style="fill:none" d="M0 0h35.953v35.956H0z"/>
        </clipPath>
        <clipPath id="lua5jzo98o">
            <path data-name="사각형 2438" style="fill:none" d="M0 0h6.161v12.775H0z"/>
        </clipPath>
        <clipPath id="p0uzwwrb4p">
            <path data-name="사각형 2439" style="fill:none" d="M0 0h64.326v90.757H0z"/>
        </clipPath>
        <clipPath id="lgy8s7vbeq">
            <path data-name="사각형 2440" style="fill:none" d="M0 0h.565v.022H0z"/>
        </clipPath>
        <clipPath id="e0k36o76or">
            <path data-name="사각형 2441" style="fill:none" d="M0 0h29.937v15.26H0z"/>
        </clipPath>
        <clipPath id="0i4ihl6m7s">
            <path data-name="사각형 3329" style="fill:none" d="M0 0h190v218.859H0z"/>
        </clipPath>
        <clipPath id="9recvmxzrt">
            <path data-name="사각형 3306" style="fill:none" d="M0 0h173.117v30.687H0z"/>
        </clipPath>
        <clipPath id="ykwi8zwp6u">
            <path data-name="사각형 3307" style="fill:none" d="M0 0h5.781v4.703H0z"/>
        </clipPath>
        <clipPath id="fqfaqf7atv">
            <path data-name="사각형 3308" style="fill:none" d="M0 0h88.619v33.774H0z"/>
        </clipPath>
        <clipPath id="nha0tcd6gw">
            <path data-name="사각형 3309" style="fill:none" d="M0 0h7.851v9.964H0z"/>
        </clipPath>
        <clipPath id="2p6c7r9b0x">
            <path data-name="사각형 3310" style="fill:none" d="M0 0h96.718v31.249H0z"/>
        </clipPath>
        <clipPath id="0x0rt3r3qy">
            <path data-name="사각형 3311" style="fill:none" d="M0 0h6.285v13.744H0z"/>
        </clipPath>
        <clipPath id="9xirnwn93z">
            <path data-name="사각형 3312" style="fill:none" d="M0 0h2.468v3.983H0z"/>
        </clipPath>
        <clipPath id="ykacr3d3cA">
            <path data-name="사각형 3313" style="fill:none" d="M0 0h48.342v34.197H0z"/>
        </clipPath>
        <clipPath id="t91iqm6o5B">
            <path data-name="사각형 3314" style="fill:none" d="M0 0h25.792v58.918H0z"/>
        </clipPath>
        <clipPath id="6te8bgfq8C">
            <path data-name="사각형 3315" style="fill:none" d="M0 0h16.874v10.674H0z"/>
        </clipPath>
        <clipPath id="w78zb7kvkD">
            <path data-name="사각형 3316" style="fill:none" d="M0 0h5.812v8.433H0z"/>
        </clipPath>
        <clipPath id="1idp29q0mE">
            <path data-name="사각형 3317" style="fill:none" d="M0 0h2.515v6.716H0z"/>
        </clipPath>
        <clipPath id="nokrov5kwF">
            <path data-name="사각형 3318" style="fill:none" d="M0 0h9.395v19.386H0z"/>
        </clipPath>
        <clipPath id="056bhr73yG">
            <path data-name="사각형 3319" style="fill:none" d="M0 0h9.945v6.735H0z"/>
        </clipPath>
        <clipPath id="ax7wyjcfcH">
            <path data-name="사각형 3320" style="fill:none" d="M0 0h4.407v3.745H0z"/>
        </clipPath>
        <clipPath id="09n9cz2bxI">
            <path data-name="사각형 3321" style="fill:none" d="M0 0h10.673v17.573H0z"/>
        </clipPath>
        <clipPath id="uvxhnpr2pJ">
            <path data-name="사각형 3323" style="fill:none" d="M0 0h31.109v20.304H0z"/>
        </clipPath>
        <clipPath id="1pta4dypmK">
            <path data-name="사각형 3324" style="fill:none" d="M0 0h8.994v3.225H0z"/>
        </clipPath>
        <clipPath id="vjvme0hw6L">
            <path data-name="사각형 3325" style="fill:none" d="M0 0h25.511v35.926H0z"/>
        </clipPath>
        <clipPath id="49mjj4rrzM">
            <path data-name="사각형 3326" style="fill:none" d="M0 0h12.368v11.86H0z"/>
        </clipPath>
        <clipPath id="4r9uh1xxbN">
            <path data-name="사각형 3327" style="fill:none" d="M0 0h33.061v11.786H0z"/>
        </clipPath>
    </defs>
    <g data-name="마스크 그룹 37" style="clip-path:url(#1yl14nooea)" transform="translate(-235 -202)">
        <g data-name="그룹 2849" style="clip-path:url(#n31x67662b)" transform="translate(260.833 583.449)">
            <g data-name="그룹 2843">
                <g data-name="그룹 2842" style="clip-path:url(#n31x67662b)">
                    <g data-name="그룹 2841" style="opacity:.2">
                        <g data-name="그룹 2840">
                            <g data-name="그룹 2839" style="clip-path:url(#ivnwpz4rrc)" transform="translate(3.064 52.463)">
                                <path data-name="패스 7775" d="M-.005 4.077C-.005 1.825 11.183 0 151.049 0s151.055 1.825 151.055 4.077-11.189 4.077-151.055 4.077S-.005 6.329-.005 4.077"/>
                            </g>
                        </g>
                    </g>
                </g>
            </g>
            <path data-name="사각형 3332" transform="translate(10.165 8.569)" style="fill:#c28041" d="M0 0h288.003v47.971H0z"/>
            <g data-name="그룹 2848">
                <g data-name="그룹 2847" style="clip-path:url(#n31x67662b)">
                    <g data-name="그룹 2846" style="mix-blend-mode:multiply;isolation:isolate">
                        <g data-name="그룹 2845">
                            <g data-name="그룹 2844" style="clip-path:url(#hy4lqithqd)" transform="translate(10.166 48.018)">
                                <path data-name="사각형 3333" style="fill:#c28041" d="M0 0h287.906v3.739H0z"/>
                            </g>
                        </g>
                    </g>
                    <path data-name="패스 7776" d="M298.168 57.44h-288a.9.9 0 0 1-.9-.9V8.568a.9.9 0 0 1 .9-.9h288a.9.9 0 0 1 .9.9v47.971a.9.9 0 0 1-.9.9m-287.1-1.8h286.2V9.468H11.066z"/>
                    <path data-name="사각형 3335" transform="translate(.9 .901)" style="fill:#fff" d="M0 0h306.533v47.971H0z"/>
                    <path data-name="패스 7777" d="M307.433 49.772H.9a.9.9 0 0 1-.9-.9V.9A.9.9 0 0 1 .9 0h306.533a.9.9 0 0 1 .9.9v47.972a.9.9 0 0 1-.9.9M1.8 47.972h304.733V1.8H1.8z"/>
                    <path data-name="사각형 3336" d="M5.112.9h1.801v47.972H5.112z"/>
                    <path data-name="사각형 3337" d="M6.013 5.112h296.309v1.801H6.013z"/>
                    <path data-name="사각형 3338" d="M6.013 42.859h296.309v1.801H6.013z"/>
                    <path data-name="사각형 3339" d="M301.421.9h1.801v47.972h-1.801z"/>
                    <path data-name="패스 7778" d="M104.781 44.66H6.012a.9.9 0 0 1-.9-.9V6.012a.9.9 0 0 1 .9-.9h98.769a.9.9 0 0 1 .9.9v37.747a.9.9 0 0 1-.9.9m-97.869-1.8h96.969V6.912H6.913z"/>
                    <path data-name="패스 7779" d="M203.551 44.66h-98.77a.9.9 0 0 1-.9-.9V6.012a.9.9 0 0 1 .9-.9h98.77a.9.9 0 0 1 .9.9v37.747a.9.9 0 0 1-.9.9m-97.869-1.8h96.969V6.912h-96.969z"/>
                    <path data-name="패스 7780" d="M302.322 44.66h-98.77a.9.9 0 0 1-.9-.9V6.012a.9.9 0 0 1 .9-.9h98.77a.9.9 0 0 1 .9.9v37.747a.9.9 0 0 1-.9.9m-97.87-1.8h96.969V6.912h-96.969z"/>
                </g>
            </g>
        </g>
        <path data-name="패스 7781" d="m24.039 259.534 4.132-8.024h8.486l-6.191 8.024z" transform="translate(271.712 324.816)" style="fill:#327d8e"/>
        <path data-name="패스 7782" d="m415.017 259.534-4.132-8.024H402.4l6.192 8.024z" transform="translate(120.433 324.816)" style="fill:#327d8e"/>
        <path data-name="사각형 3342" transform="translate(282.223 426.277)" style="fill:#327d8e" d="M0 0h266.754v150.049H0z"/>
        <g data-name="그룹 2852">
            <path data-name="패스 7783" d="M548.976 577.227H282.223a.9.9 0 0 1-.9-.9v-150.05a.9.9 0 0 1 .9-.9h266.753a.9.9 0 0 1 .9.9v150.05a.9.9 0 0 1-.9.9m-265.853-1.8h264.953v-148.25H283.123z"/>
            <path data-name="패스 7785" d="m30.114 251.51-1.214 2.64h7.664l2.038-2.64z" transform="translate(269.768 324.816)" style="fill:#1f5c66"/>
            <path data-name="패스 7786" d="m410.886 251.51 1.214 2.64h-7.664l-2.038-2.64z" transform="translate(120.433 324.816)" style="fill:#1f5c66"/>
            <path data-name="패스 7787" d="M302.177 585.251h-6.426a.9.9 0 0 1-.8-1.313l4.131-8.022a.9.9 0 0 1 .8-.488h8.487a.9.9 0 0 1 .712 1.45l-6.191 8.023a.9.9 0 0 1-.713.35m-4.95-1.8h4.508l4.8-6.223h-6.104z"/>
            <path data-name="패스 7788" d="M535.45 585.251h-6.427a.9.9 0 0 1-.713-.35l-6.191-8.023a.9.9 0 0 1 .712-1.45h8.487a.9.9 0 0 1 .8.488l4.132 8.023a.9.9 0 0 1-.8 1.313m-5.984-1.8h4.508l-3.2-6.223h-6.106z"/>
        </g>
        <path data-name="사각형 3343" transform="translate(288.226 432.279)" style="fill:#565656" d="M0 0h254.75v138.046H0z"/>
        <path data-name="패스 7784" d="M542.975 571.226h-254.75a.9.9 0 0 1-.9-.9V432.279a.9.9 0 0 1 .9-.9h254.75a.9.9 0 0 1 .9.9v138.046a.9.9 0 0 1-.9.9m-253.85-1.8h252.95V433.179h-252.95z"/>










        <g>
            <g data-name="그룹 1310" style="opacity:.2">
                <g data-name="그룹 1309">
                    <g data-name="그룹 1308" style="clip-path:url(#a4f90873qf)" transform="translate(293.186 773.326)">
                        <path data-name="패스 5284" d="M73.69 7.922 53.207 55.256a1.426 1.426 0 0 1-1.517.836L1.213 47.851a1.434 1.434 0 0 1-1.072-2.038L25.249.001l47.333 5.922a1.434 1.434 0 0 1 1.107 2"/>
                    </g>
                </g>
            </g>
            <path data-name="패스 5285" d="m299.927 345.139 2.494 4.026 47.595 7.339-.973-3.979" transform="translate(-6.178 468.307)" style="fill:#e4e0e0"/>
            <path data-name="패스 5286" d="M343.838 825.655a.835.835 0 0 1-.129-.01l-47.594-7.339a.843.843 0 0 1-.589-.389l-2.494-4.026a.844.844 0 1 1 1.435-.889l2.289 3.7 45.963 7.087-.673-2.752a.844.844 0 0 1 1.64-.4l.972 3.979a.844.844 0 0 1-.82 1.044"/>
            <path data-name="패스 5287" d="m407.319 277.138-.558 6.8-18.561 42.824-.969-3.978" transform="translate(-44.362 498.049)" style="fill:#e4e0e0"/>
            <path data-name="패스 5288" d="M343.838 825.655h-.073a.844.844 0 0 1-.748-.641l-.969-3.978a.844.844 0 0 1 1.64-.4l.374 1.536 17.508-40.394.545-6.657a.844.844 0 0 1 1.683.138l-.558 6.8a.83.83 0 0 1-.067.267l-18.562 42.828a.844.844 0 0 1-.774.508"/>
            <path data-name="패스 5289" d="M349.047 318.389 299.927 311l23.582-43.912 45.627 5.653z" transform="translate(-6.178 502.443)" style="fill:#fff"/>
            <path data-name="패스 5290" d="M342.87 821.677a.879.879 0 0 1-.126-.01l-49.12-7.386a.844.844 0 0 1-.618-1.234l23.582-43.912a.842.842 0 0 1 .847-.438l45.627 5.653a.843.843 0 0 1 .668 1.177l-20.088 45.645a.844.844 0 0 1-.772.5m-47.81-8.887 47.3 7.112 19.372-44.016-43.928-5.443z"/>
            <path data-name="패스 5291" d="m350.991 317.4-41.208-6.2 20-37.375 38.276 4.742z" transform="translate(-10.489 499.495)" style="fill:#565656"/>
            <path data-name="패스 5292" d="M340.502 817.742a.875.875 0 0 1-.126-.01l-41.209-6.197a.843.843 0 0 1-.618-1.233l20-37.375a.85.85 0 0 1 .848-.439l38.276 4.743a.843.843 0 0 1 .668 1.176l-17.064 38.829a.844.844 0 0 1-.772.5m-39.9-7.7 39.387 5.922 16.349-37.2-36.577-4.532z"/>
        </g>

        <g>
            <g data-name="그룹 1271" style="opacity:.2">
                <g data-name="그룹 1270">
                    <g data-name="그룹 1269" style="clip-path:url(#zk99llqz1h)" transform="translate(259.223 720.443)">
                        <path data-name="패스 5226" d="M.098 7.053a2.111 2.111 0 0 0-.014 1.232q.855 2.334 10.369-1.784a57.893 57.893 0 0 0 10.458 4.332 58.449 58.449 0 0 0 25.1 1.467 65.346 65.346 0 0 0 12.345-3.131 41.413 41.413 0 0 0 16.613 4.262c12.839.466 22.718-5.574 27.792-9.35l-3.112-3.039-89-1.043z"/>
                    </g>
                </g>
            </g>
            <path data-name="패스 5227" d="M34.921 101.376s-.989-2.213.824-2.877 3.623 2.877 3.623 2.877 28-2.552 42.662.907c0 0 33.437-1.318 40.685 3.624 0 0 7.247-1.034 6.753 1.13a10.466 10.466 0 0 1-2.084 3.976s-2.2 18.613-8.293 26.684c0 0-4.283 19.766-11.365 24.872 0 0 2.141 7.248-.165 8.072s-5.93-5.765-5.93-5.765-21.413 9.718-41.014 2.306c0 0-30.053 6.588-47.969-2.306 0 0-9.77 3.294-10.961 2.141s3.681-4.117 3.681-4.117.647-26.862 14.029-35.256c0 0 7.453-23.385 15.524-26.266" transform="translate(257.261 558.009)" style="fill:#ff7724"/>
            <g data-name="그룹 1274" style="mix-blend-mode:multiply;isolation:isolate">
                <g data-name="그룹 1273">
                    <g data-name="그룹 1272" style="clip-path:url(#7jommjan5i)" transform="translate(378.356 664.552)">
                        <path data-name="패스 5228" d="M214.063 117.4a42.083 42.083 0 0 0 6.121-2.251 4.594 4.594 0 0 0 1.625-2.293l-1.457 4.47c-.82 3.67-3.609 15.45-4.43 19.12.128-4.125 4.174-17.987-1.859-19.046" transform="translate(-214.063 -112.86)" style="fill:#ff7724"/>
                    </g>
                </g>
            </g>
            <g data-name="그룹 1277" style="mix-blend-mode:multiply;isolation:isolate">
                <g data-name="그룹 1276">
                    <g data-name="그룹 1275" style="clip-path:url(#if5m7o8srj)" transform="translate(320.332 699.642)">
                        <path data-name="패스 5229" d="m163.883 183.394 1.8-8.164a33.164 33.164 0 0 1-8.36 13.95c-9.372 9.194-21.748 9.642-26.865 9.828a48.74 48.74 0 0 1-13.24-1.347l-6.283 2.414v1.539l9.065 1.744 8.308.086 15.852-3.019 5.329-1.954 4.445 5.49 1.485.276 1.581-2.074-.816-3.451-.6-2.546 2.519-2.532 5.775-10.239" transform="translate(-110.933 -175.229)" style="fill:#ff7724"/>
                    </g>
                </g>
            </g>
            <g data-name="그룹 1280" style="mix-blend-mode:multiply;isolation:isolate">
                <g data-name="그룹 1279">
                    <g data-name="그룹 1278" style="clip-path:url(#9rydnhd6sk)" transform="translate(258.948 699.22)">
                        <path data-name="패스 5230" d="M9.316 174.479c.127 3.187-.165 11.9 2.863 15.865 6.165 8.064 18.205 8.154 32.462 8.3a127.749 127.749 0 0 0 24.307-2.1l-5.733 3.2-17.354 2.729-19.83-.464-13.238-3.87-5.72 1.677-5.24.463.709-2.177 2.972-1.94a95.944 95.944 0 0 1 3.8-21.687" transform="translate(-1.833 -174.479)" style="fill:#ff7724"/>
                    </g>
                </g>
            </g>
            <g data-name="그룹 1283" style="mix-blend-mode:multiply;isolation:isolate">
                <g data-name="그룹 1282">
                    <g data-name="그룹 1281" style="clip-path:url(#yqq5nrwxgl)" transform="translate(286.292 700.15)">
                        <path data-name="패스 5231" d="M51.542 177.768c-1.467.516-1.247 2.171-.659 3.291 1.951 3.715 7.12 2.037 10.175.934a16.839 16.839 0 0 1 7.251-1.232c2.555.181 5.189.122 7.765.186.608-1.175 4.715-3.641 5.324-4.816l-14.313.147c-4.594 1.474-10.948.017-15.542 1.49" transform="translate(-50.433 -176.131)" style="fill:#ff7724"/>
                    </g>
                </g>
            </g>
            <path data-name="패스 5232" d="M364.417 729.567c-2.293 0-4.753-3.679-5.886-5.609-3.9 1.585-23.085 8.655-40.715 2.114-3.1.652-30.624 6.106-47.965-2.272-4.622 1.536-10.234 3.052-11.489 1.831a1.435 1.435 0 0 1-.434-1.216c.16-1.432 2.521-3.126 3.875-3.986.15-3.7 1.588-27.14 14.148-35.325.9-2.764 7.553-22.388 15.206-26.2a3.186 3.186 0 0 1 .119-1.871 2.4 2.4 0 0 1 1.441-1.316c2-.737 3.714 1.661 4.383 2.78 4.082-.347 28.58-2.241 42.273.948 2.48-.093 33.057-1.143 40.8 3.594 1.665-.218 5.779-.594 7.006.739a1.575 1.575 0 0 1 .375 1.457 11.119 11.119 0 0 1-2.1 4.135c-.293 2.327-2.55 18.886-8.316 26.7-.466 2.088-4.49 19.352-11.182 24.832.632 2.326 1.75 7.618-.849 8.546a2.055 2.055 0 0 1-.69.118m-5.524-7.522a.844.844 0 0 1 .74.437c1.552 2.818 3.945 5.722 4.907 5.376.89-.317.543-3.977-.361-7.036a.843.843 0 0 1 .316-.924c6.741-4.861 10.992-24.171 11.034-24.366a.853.853 0 0 1 .151-.33c5.886-7.794 8.108-26.09 8.129-26.274a.844.844 0 0 1 .2-.457 9.69 9.69 0 0 0 1.889-3.581c-.5-.437-3.212-.5-5.805-.133a.85.85 0 0 1-.595-.138c-6.936-4.729-39.845-3.491-40.176-3.478a.748.748 0 0 1-.227-.022c-14.358-3.388-42.112-.914-42.39-.888a.849.849 0 0 1-.828-.455c-.62-1.2-1.863-2.736-2.582-2.469a.713.713 0 0 0-.466.389 2.091 2.091 0 0 0 .124 1.355.848.848 0 0 1-.488 1.135c-7.587 2.709-14.93 25.5-15 25.728a.844.844 0 0 1-.356.459c-12.842 8.049-13.628 34.295-13.635 34.556a.845.845 0 0 1-.405.7 12.312 12.312 0 0 0-3.394 2.8c1.281.188 6.008-1 9.965-2.339a.847.847 0 0 1 .645.044c17.44 8.657 47.116 2.3 47.414 2.238a.841.841 0 0 1 .479.035c19.034 7.2 40.155-2.19 40.367-2.285a.839.839 0 0 1 .348-.075"/>
            <path data-name="패스 5233" d="M337.179 704.065a.844.844 0 0 1-.654-1.377c.224-.275 5.569-6.723 12.662-6.363a.844.844 0 0 1-.086 1.686c-6.23-.307-11.219 5.684-11.268 5.744a.842.842 0 0 1-.654.309"/>
            <path data-name="패스 5234" d="M317.877 726.034a.844.844 0 0 1-.19-1.666 35.343 35.343 0 0 0 7.919-3.016.844.844 0 0 1 .82 1.476 36.415 36.415 0 0 1-8.358 3.184.861.861 0 0 1-.191.022"/>
            <g data-name="그룹 1286" style="mix-blend-mode:multiply;isolation:isolate">
                <g data-name="그룹 1285">
                    <g data-name="그룹 1284" style="clip-path:url(#tfuswd6djm)" transform="translate(317.297 697.759)">
                        <path data-name="패스 5235" d="M105.635 192.168c.376.542 2.19.788 3.179.823a9.5 9.5 0 0 0 2.882-.41c4.171-1.353 12.595-10.783 18.729-15.834a50.142 50.142 0 0 1 7.084-4.866q-1.787.074-3.7.263a63.792 63.792 0 0 0-11.245 2.167c-15.052 13.066-17.6 16.893-16.934 17.858" transform="translate(-105.539 -171.88)" style="fill:#ff7724"/>
                    </g>
                </g>
            </g>
            <g data-name="그룹 1289" style="mix-blend-mode:multiply;isolation:isolate">
                <g data-name="그룹 1288">
                    <g data-name="그룹 1287" style="clip-path:url(#c057d8r2rn)" transform="translate(339.276 664.736)">
                        <path data-name="패스 5236" d="M154.761 145.063c4.052-8.322 8.87-12.876 12.58-15.509 3.467-2.46 10.315-6.327 12.252-11.623.3-.82 1.513-4.138.673-4.67a.748.748 0 0 0-.594-.018c-1.956.571-17.28 6.864-17.28 6.864l-12.4 17.875-5.382 8.106.263 3.056 4.571-2.311 5.322-1.769" transform="translate(-144.605 -113.188)" style="fill:#ff7724"/>
                    </g>
                </g>
            </g>
            <path data-name="패스 5237" d="m97.09 26.518.963-3.283 1.155-5.528 3.336-4.6 4.758-.549 3.538 1.624 1.92 6.513-.82 2.934-9.957 1.471z" transform="translate(215.453 595.559)" style="fill:#fcbf00"/>
            <g data-name="그룹 1292" style="mix-blend-mode:multiply;isolation:isolate">
                <g data-name="그룹 1291">
                    <g data-name="그룹 1290" style="clip-path:url(#lua5jzo98o)" transform="translate(317.93 607.886)">
                        <path data-name="패스 5238" d="M110.528 12.145s-3.865 1.8-3.865 8.9l.154 3.87h2.391l3.617-11.553z" transform="translate(-106.664 -12.145)" style="fill:#fcbf00"/>
                    </g>
                </g>
            </g>
            <path data-name="패스 5239" d="M312.543 622.922a.843.843 0 0 1-.8-1.113 38.644 38.644 0 0 0 1.613-6.555c.482-3.208 1.695-5.537 3.605-6.921a7.068 7.068 0 0 1 4.974-1.278 8.8 8.8 0 0 1 5.389 3.253c1.658 2.166 2.249 5.1 1.757 8.712a.844.844 0 1 1-1.672-.227c.429-3.154-.051-5.663-1.425-7.459a7.123 7.123 0 0 0-4.3-2.61 5.454 5.454 0 0 0-3.757.993c-1.517 1.111-2.494 3.058-2.9 5.788a40.29 40.29 0 0 1-1.683 6.843.844.844 0 0 1-.8.574"/>
            <path data-name="패스 5240" d="m127.245 32.735-4.59-.248L117.911 31l-2.024-2.3-.375-2.015v-1.51l-2.6-.164-1.846-.923-1.144-1.67-.671-2.389.643-4.654 1.364-4.106 2.451-1.7 2.449-.179-.725-2.008.483-2.342 2.848-1.952 4.4-1.273 3.286-.219 2.421 1.025.709 1.358.509 1.416 2.419-.206 2.637 1.337 3.2 3.06.758 1.792-.643 2.213-1.2 1.164.675.482 2.259 1.2 1.072 2.476-.843 3.8-2.575 4.479-1.646.771-1.92-.3-1.84-1.878-.029 2.567-.46 2.212-3.076 2.023z" transform="translate(210.134 600.355)" style="fill:#ffffe1"/>
            <path data-name="패스 5241" d="M153.838 27.1s4.392.092 4.117 3.981a22.782 22.782 0 0 1-1.327 6.451l1.974-2.126 1.6-4.6-.506-4.144-1.561-.828-1.373-.852z" transform="translate(190.633 590.125)" style="fill:#e4e4bc"/>
            <path data-name="패스 5242" d="M120.237 34.147c1.347-.941 1.543-1.307 1.471-1.467-.175-.39-1.938.454-4.386.369-1.175-.041-3.712-.129-5.331-1.948a6.235 6.235 0 0 1-1.328-4.6l-.455 3.72 1.335 4.136 3.356 1.353 5.338-1.562" transform="translate(209.716 589.463)" style="fill:#e4e4bc"/>
            <path data-name="패스 5243" d="M123.842 6.131a5.315 5.315 0 0 0 .42 6.5L122 11.373l-.7-2.263a3.833 3.833 0 0 1 .592-1.484 3.95 3.95 0 0 1 1.95-1.495" transform="translate(204.864 598.371)" style="fill:#e4e4bc"/>
            <path data-name="패스 5244" d="M135.792 1.688a5.338 5.338 0 0 1 2.382 1.98 5.773 5.773 0 0 1 .48 4.865l2.392-3.63-.564-2.242-4.689-.973" transform="translate(198.526 600.315)" style="fill:#e4e4bc"/>
            <path data-name="패스 5245" d="M156.272 14.216a12.831 12.831 0 0 1-.585 2.925 13.018 13.018 0 0 1-2.436 4.367l3.948-1.384.924-2.46-1.85-3.448" transform="translate(190.89 594.836)" style="fill:#e4e4bc"/>
            <path data-name="패스 5246" d="M324.553 626.374a5.969 5.969 0 0 1-3.586-1.034c-1.922-1.409-2.616-4.125-2.061-8.072.641-4.565 2.184-7.3 4.584-8.117 3.541-1.209 7.305 2.222 8.024 2.922a.844.844 0 1 1-1.178 1.209c-1.323-1.289-4.139-3.275-6.3-2.534-1.724.59-2.921 2.926-3.459 6.755-.461 3.283.006 5.461 1.388 6.475 2.1 1.542 6.124.178 7.5-.477a.844.844 0 1 1 .726 1.523 14.865 14.865 0 0 1-5.636 1.349"/>
            <path data-name="패스 5247" d="M345.89 629.193a5.939 5.939 0 0 1-3.865-1.829.844.844 0 0 1 1.235-1.151c.026.027 1.562 1.629 3.16 1.227 1.489-.375 2.765-2.4 3.69-5.851a4.486 4.486 0 0 0-.385-3.943 3.675 3.675 0 0 0-2.782-1.381.844.844 0 0 1-.816-.871.852.852 0 0 1 .871-.816 5.4 5.4 0 0 1 4.082 2.063c.7.95 1.392 2.655.66 5.386-1.11 4.146-2.765 6.52-4.92 7.055a3.849 3.849 0 0 1-.93.114"/>
            <path data-name="패스 5248" d="M326.802 610.897a.843.843 0 0 1-.679-.342c-1.586-2.143-1.413-3.811-.989-4.832.943-2.272 3.991-3.8 9.06-4.555a6.7 6.7 0 0 1 5.077.931 4.484 4.484 0 0 1 1.76 3.043.844.844 0 1 1-1.671.237 2.854 2.854 0 0 0-1.1-1.928 5.119 5.119 0 0 0-3.819-.614c-4.317.639-7.068 1.893-7.749 3.532-.374.9-.109 1.97.787 3.181a.844.844 0 0 1-.677 1.346"/>
            <path data-name="패스 5249" d="M343.892 617.635a.844.844 0 0 1-.227-1.656c1.146-.322 4.218-1.558 4.669-3.4.249-1.018-.336-2.2-1.741-3.523-2.429-2.283-4.525-3.314-5.9-2.909-1.065.315-1.866 1.537-2.382 3.631a.844.844 0 1 1-1.639-.4c.668-2.718 1.86-4.349 3.542-4.846 2.029-.6 4.565.509 7.533 3.3 1.883 1.769 2.631 3.5 2.224 5.158-.781 3.172-5.647 4.56-5.854 4.618a.849.849 0 0 1-.226.031"/>
            <path data-name="패스 5250" d="M336.629 633.959c-1.634 0-7.171-.177-9.819-2.455a5.234 5.234 0 0 1-1.452-6.392.844.844 0 0 1 1.464.842 3.568 3.568 0 0 0 1.089 4.27c1.445 1.243 4.867 2.047 8.718 2.047 2.049 0 3.5-.574 4.318-1.706 1.694-2.349.361-6.439.347-6.48a.844.844 0 0 1 1.6-.536c.068.2 1.623 4.943-.574 8-1.151 1.6-3.066 2.412-5.69 2.412"/>
            <path data-name="패스 5251" d="m57.628 97.121-4.109.062-2.168.676-1.92 1.3-1.277 3.716v7.2l2.391 4.54 3.649 2.03 5.757-.393 6.136-3.128 11.2-.357 1.839.124v1.362l-4.956 4.839-.822 4.02s1.193 3.458 1.4 3.729 4.379 3.391 4.379 3.391 4.07.6 4.386.538 4.085-1.679 3.993-1.622 3.7-3.477 3.7-3.477l9.851-9.942 5.45-6.492s2.815-3.469 3.166-3.837 4.021-5.833 4.021-5.833l3.831-5.792 2.159-3.5 4.193-.683 6.447-2.806 4.428-4.048 2.745-5.117.541-4.986-1.907-2.55L133.065 68l-3.6-1.39-1.365-1.568.609-12.47L127.1 42l-1.874-3.636-6.988-3.65-8.165-1.682-11.25-1.24-7.433-.061-8.3 1.126-7.4 2.045-5.892 3.073-2.215 2.7-1.116 3.472.028 7.266.614 15.174-.542 10.306-.812 5.555-2.145 4.207z" transform="translate(236.856 587.175)" style="fill:#fcbf00"/>
            <path data-name="패스 5252" d="M292.825 704.683a8.773 8.773 0 0 1-7.435-3.891c-2.385-3.289-1.157-11.578-1.01-12.513a.844.844 0 0 1 1.667.263c-.371 2.348-.965 8.95.709 11.258 3.1 4.278 8.4 4.2 15.751-.227a.846.846 0 0 1 .427-.121l14.313-.147h.009a.844.844 0 0 1 .008 1.688l-14.084.145q-5.953 3.545-10.355 3.545"/>
            <path data-name="패스 5253" d="M294.484 685.14a.844.844 0 0 1-.727-1.272c2.054-3.5 7.506-12.929 8.053-14.518.6-1.761 2.1-15.917.822-29.354-.664-7-1.35-14.221 7.149-17.621 11.293-4.517 17.58-4.4 24.861-4.27l1.052.019c7.032.117 25.2 2.733 28.449 8.515 3.005 5.357 3.047 22.5.084 34.608a.844.844 0 1 1-1.639-.4c2.829-11.564 2.872-28.411.084-33.38-2.64-4.706-19.225-7.525-27.005-7.654l-1.054-.019c-7.1-.131-13.227-.242-24.2 4.149-7.326 2.93-6.757 8.927-6.1 15.87 1.3 13.657-.194 28.02-.9 30.086-.7 2.04-7.428 13.522-8.193 14.825a.844.844 0 0 1-.729.416"/>
            <path data-name="패스 5254" d="M299.995 694.481a.844.844 0 0 1-.844-.844v-5.225a.844.844 0 1 1 1.688 0v5.225a.844.844 0 0 1-.844.844"/>
            <path data-name="패스 5255" d="M285.216 689.256a.816.816 0 0 1-.1-.006.843.843 0 0 1-.742-.935c.335-2.9 3.795-5 8.228-5 4.618 0 8.235 2.24 8.235 5.1a.844.844 0 1 1-1.688 0c0-1.648-2.631-3.412-6.547-3.412-3.848 0-6.353 1.784-6.552 3.509a.844.844 0 0 1-.837.747"/>
            <path data-name="패스 5256" d="M319.088 718.905a9.633 9.633 0 0 1-5.56-1.9c-5.281-3.682-4.528-8.733-3.251-11.137a.881.881 0 0 1 .058-.093l.374-.526a.808.808 0 0 1 .11-.126l7.615-7.166a.844.844 0 1 1 1.157 1.229l-7.554 7.109-.293.411c-.363.711-2.432 5.3 2.75 8.915 3.761 2.623 7.628 1.989 11.819-1.939l.7-.665a172.45 172.45 0 0 0 28.795-36.001.846.846 0 0 1 .658-.407c11.827-.928 17.892-9.759 17.564-15.508-.287-5.016-9.3-6.848-9.386-6.866a.844.844 0 1 1 .325-1.656c.424.083 10.385 2.1 10.747 8.425.373 6.516-5.914 16.048-18.682 17.25a174.1 174.1 0 0 1-28.858 35.988l-.7.671c-2.841 2.664-5.645 4-8.384 4"/>
            <path data-name="패스 5257" d="M292.491 691.375a10.412 10.412 0 0 1-4.691-1.069.844.844 0 0 1 .813-1.479 9.155 9.155 0 0 0 7.841-.026.844.844 0 1 1 .707 1.533 11.063 11.063 0 0 1-4.669 1.042"/>
            <path data-name="패스 5258" d="M323.593 713.24a.844.844 0 0 1-.82-.646 8.046 8.046 0 0 0-7.256-5.756.844.844 0 1 1 .163-1.68 9.871 9.871 0 0 1 8.735 7.042.844.844 0 0 1-.626 1.016.834.834 0 0 1-.2.023"/>
            <g data-name="그룹 1295" style="mix-blend-mode:multiply;isolation:isolate">
                <g data-name="그룹 1294">
                    <g data-name="그룹 1293" style="clip-path:url(#p0uzwwrb4p)" transform="translate(310.45 627.053)">
                        <path data-name="패스 5259" d="M121.148 111.344c1.906-2.259 4.2-4.2 6.019-6.537a33.684 33.684 0 0 0 4.878-9.726 93.691 93.691 0 0 0 4.03-17.107c.046-.313.092-.627.132-.941.518-4.056.835-8.281.835-8.281.294-3.907.337-6.509.5-8.679.155-2.02.281-4.043.348-6.067a5.29 5.29 0 0 1 1.266-3.578 4.545 4.545 0 0 1 1.048-.8l6.119-3.414 1.9 8.117c-.182 2.327-.116 14.766-.5 18.231a39.653 39.653 0 0 1 6.564 2.227c3.186 1.755 4.034 5.533 2.975 9.164-.969 2.359-1.879 5.593-5.768 8.146-5.963 3.916-12.255 3.9-12.045 4.508a187.891 187.891 0 0 1-16.992 23.247 187.683 187.683 0 0 1-14.581 15.214c-1.221.9-2.379 1.327-2.977 1.143-1.857 1.314-5.128.917-7.9-1.118-3.213-2.356-4.54-6.008-2.963-8.159s5.459-1.984 8.672.371a8.752 8.752 0 0 1 3.509 4.984 2.764 2.764 0 0 1 .28-.113 65.813 65.813 0 0 0 8.182-9.963c1.69-2.694 3.024-5.589 4.639-8.325a18.689 18.689 0 0 1 1.831-2.54" transform="translate(-93.37 -46.211)" style="fill:#fcbf00"/>
                    </g>
                </g>
            </g>
            <g data-name="그룹 1298" style="mix-blend-mode:multiply;isolation:isolate">
                <g data-name="그룹 1297">
                    <g data-name="그룹 1296" style="clip-path:url(#lgy8s7vbeq)" transform="translate(295.442 703.221)">
                        <path data-name="패스 5260" d="M67.26 181.59h-.565a1.946 1.946 0 0 0 .565 0" transform="translate(-66.695 -181.59)" style="fill:#fbbe00"/>
                    </g>
                </g>
            </g>
            <g data-name="그룹 1301" style="mix-blend-mode:multiply;isolation:isolate">
                <g data-name="그룹 1300">
                    <g data-name="그룹 1299" style="clip-path:url(#e0k36o76or)" transform="translate(289.155 688.411)">
                        <path data-name="패스 5261" d="m85.459 164.732-14.878-.1-1.271-.008c-2.476-.411-2.949-4.983-2.949-4.983v-4.377c-3.775 2.613-9.512 1.911-9.512 1.911.013 11.306-1.327 12.17-1.327 12.17l1.095 1.179 4.416-.1 5.684-1.846 3.031-1.428h13.875z" transform="translate(-55.522 -155.267)" style="fill:#fcbf00"/>
                    </g>
                </g>
            </g>
        </g>

    </g>
</svg>