<svg id="포스트잇" xmlns="http://www.w3.org/2000/svg" xmlns:xlink="http://www.w3.org/1999/xlink" width="149.953" height="175.453" viewBox="0 0 149.953 175.453">
  <defs>
    <clipPath id="clip-path">
      <rect id="사각형_3227" data-name="사각형 3227" width="149.953" height="175.453" fill="none"/>
    </clipPath>
    <clipPath id="clip-path-3">
      <rect id="사각형_3212" data-name="사각형 3212" width="68.312" height="81.633" transform="translate(81.641 1.5)" fill="none"/>
    </clipPath>
    <clipPath id="clip-path-7">
      <rect id="사각형_3216" data-name="사각형 3216" width="67.312" height="80.633" transform="translate(3.008 2.5)" fill="none"/>
    </clipPath>
    <clipPath id="clip-path-10">
      <rect id="사각형_3219" data-name="사각형 3219" width="68.312" height="81.633" transform="translate(81.641 93.82)" fill="none"/>
    </clipPath>
    <clipPath id="clip-path-14">
      <rect id="사각형_3223" data-name="사각형 3223" width="68.312" height="81.633" transform="translate(2.008 93.82)" fill="none"/>
    </clipPath>
  </defs>
  <g id="그룹_2688" data-name="그룹 2688" clip-path="url(#clip-path)">
    <g id="그룹_2658" data-name="그룹 2658">
      <g id="그룹_2657" data-name="그룹 2657" clip-path="url(#clip-path)">
        <g id="그룹_2656" data-name="그룹 2656" style="mix-blend-mode: multiply;isolation: isolate">
          <g id="그룹_2655" data-name="그룹 2655">
            <g id="그룹_2654" data-name="그룹 2654" clip-path="url(#clip-path-3)">
              <path id="패스_7649" data-name="패스 7649" d="M127.7,83.133l-46.061-1V1.5h67.312l1,59.123Z" fill="#c6c6c6"/>
            </g>
          </g>
        </g>
      </g>
    </g>
    <path id="패스_7650" data-name="패스 7650" d="M124.418,78.815H81.132V1.5h64.205V57.911" fill="#f4ea73"/>
    <g id="그룹_2660" data-name="그룹 2660">
      <g id="그룹_2659" data-name="그룹 2659" clip-path="url(#clip-path)">
        <path id="패스_7651" data-name="패스 7651" d="M124.418,80.315H81.132a1.5,1.5,0,0,1-1.5-1.5V1.5a1.5,1.5,0,0,1,1.5-1.5h64.205a1.5,1.5,0,0,1,1.5,1.5V57.911a1.5,1.5,0,0,1-3,0V3H82.632V77.315h41.786a1.5,1.5,0,0,1,0,3Z"/>
      </g>
    </g>
    <path id="패스_7652" data-name="패스 7652" d="M124.418,78.815v-20.9h20.9Z" fill="#f4ea73"/>
    <g id="그룹_2662" data-name="그룹 2662">
      <g id="그룹_2661" data-name="그룹 2661" clip-path="url(#clip-path)">
        <path id="패스_7653" data-name="패스 7653" d="M124.418,80.315a1.5,1.5,0,0,1-1.5-1.5v-20.9a1.5,1.5,0,0,1,1.5-1.5h20.9a1.5,1.5,0,0,1,1.061,2.561l-20.9,20.9A1.5,1.5,0,0,1,124.418,80.315Zm1.5-20.9V75.194L141.7,59.411Z"/>
      </g>
    </g>
    <path id="선_273" data-name="선 273" d="M42.178,1.5H0A1.5,1.5,0,0,1-1.5,0,1.5,1.5,0,0,1,0-1.5H42.178a1.5,1.5,0,0,1,1.5,1.5A1.5,1.5,0,0,1,42.178,1.5Z" transform="translate(92.146 13.053)"/>
    <path id="선_274" data-name="선 274" d="M42.178,1.5H0A1.5,1.5,0,0,1-1.5,0,1.5,1.5,0,0,1,0-1.5H42.178a1.5,1.5,0,0,1,1.5,1.5A1.5,1.5,0,0,1,42.178,1.5Z" transform="translate(92.146 23.584)"/>
    <path id="선_275" data-name="선 275" d="M42.178,1.5H0A1.5,1.5,0,0,1-1.5,0,1.5,1.5,0,0,1,0-1.5H42.178a1.5,1.5,0,0,1,1.5,1.5A1.5,1.5,0,0,1,42.178,1.5Z" transform="translate(92.146 34.115)"/>
    <g id="그룹_2667" data-name="그룹 2667">
      <g id="그룹_2666" data-name="그룹 2666" clip-path="url(#clip-path)">
        <g id="그룹_2665" data-name="그룹 2665" style="mix-blend-mode: multiply;isolation: isolate">
          <g id="그룹_2664" data-name="그룹 2664">
            <g id="그룹_2663" data-name="그룹 2663" clip-path="url(#clip-path-7)">
              <path id="패스_7654" data-name="패스 7654" d="M48.069,83.133H3.008V2.5H70.32V60.623Z" fill="#c6c6c6"/>
            </g>
          </g>
        </g>
      </g>
    </g>
    <path id="패스_7655" data-name="패스 7655" d="M44.786,78.815H1.5V1.5H65.7V57.911" fill="#f4ea73"/>
    <g id="그룹_2669" data-name="그룹 2669">
      <g id="그룹_2668" data-name="그룹 2668" clip-path="url(#clip-path)">
        <path id="패스_7656" data-name="패스 7656" d="M44.786,80.315H1.5a1.5,1.5,0,0,1-1.5-1.5V1.5A1.5,1.5,0,0,1,1.5,0H65.7a1.5,1.5,0,0,1,1.5,1.5V57.911a1.5,1.5,0,0,1-3,0V3H3V77.315H44.786a1.5,1.5,0,0,1,0,3Z"/>
      </g>
    </g>
    <path id="패스_7657" data-name="패스 7657" d="M44.786,78.815v-20.9h20.9Z" fill="#f4ea73"/>
    <path id="패스_7658" data-name="패스 7658" d="M44.786,80.315a1.5,1.5,0,0,1-1.5-1.5v-20.9a1.5,1.5,0,0,1,1.5-1.5h20.9a1.5,1.5,0,0,1,1.061,2.561l-20.9,20.9A1.5,1.5,0,0,1,44.786,80.315Zm1.5-20.9V75.194L62.069,59.411Z"/>
    <path id="선_276" data-name="선 276" d="M42.178,1.5H0A1.5,1.5,0,0,1-1.5,0,1.5,1.5,0,0,1,0-1.5H42.178a1.5,1.5,0,0,1,1.5,1.5A1.5,1.5,0,0,1,42.178,1.5Z" transform="translate(12.514 13.053)"/>
    <path id="선_277" data-name="선 277" d="M42.178,1.5H0A1.5,1.5,0,0,1-1.5,0,1.5,1.5,0,0,1,0-1.5H42.178a1.5,1.5,0,0,1,1.5,1.5A1.5,1.5,0,0,1,42.178,1.5Z" transform="translate(12.514 23.584)"/>
    <path id="선_278" data-name="선 278" d="M42.178,1.5H0A1.5,1.5,0,0,1-1.5,0,1.5,1.5,0,0,1,0-1.5H42.178a1.5,1.5,0,0,1,1.5,1.5A1.5,1.5,0,0,1,42.178,1.5Z" transform="translate(12.514 34.115)"/>
    <g id="그룹_2674" data-name="그룹 2674">
      <g id="그룹_2673" data-name="그룹 2673" clip-path="url(#clip-path)">
        <g id="그룹_2672" data-name="그룹 2672" style="mix-blend-mode: multiply;isolation: isolate">
          <g id="그룹_2671" data-name="그룹 2671">
            <g id="그룹_2670" data-name="그룹 2670" clip-path="url(#clip-path-10)">
              <path id="패스_7659" data-name="패스 7659" d="M127.7,175.453l-46.061-1V93.82h67.312l1,59.123Z" fill="#c6c6c6"/>
            </g>
          </g>
        </g>
      </g>
    </g>
    <path id="패스_7660" data-name="패스 7660" d="M124.418,171.135H81.132V93.82h64.205v56.411" fill="#f4ea73"/>
    <g id="그룹_2676" data-name="그룹 2676">
      <g id="그룹_2675" data-name="그룹 2675" clip-path="url(#clip-path)">
        <path id="패스_7661" data-name="패스 7661" d="M124.418,172.635H81.132a1.5,1.5,0,0,1-1.5-1.5V93.82a1.5,1.5,0,0,1,1.5-1.5h64.205a1.5,1.5,0,0,1,1.5,1.5v56.411a1.5,1.5,0,0,1-3,0V95.32H82.632v74.315h41.786a1.5,1.5,0,0,1,0,3Z"/>
      </g>
    </g>
    <path id="패스_7662" data-name="패스 7662" d="M124.418,171.135v-20.9h20.9Z" fill="#f4ea73"/>
    <g id="그룹_2678" data-name="그룹 2678">
      <g id="그룹_2677" data-name="그룹 2677" clip-path="url(#clip-path)">
        <path id="패스_7663" data-name="패스 7663" d="M124.418,172.635a1.5,1.5,0,0,1-1.5-1.5v-20.9a1.5,1.5,0,0,1,1.5-1.5h20.9a1.5,1.5,0,0,1,1.061,2.561l-20.9,20.9A1.5,1.5,0,0,1,124.418,172.635Zm1.5-20.9v15.783L141.7,151.731Z"/>
      </g>
    </g>
    <path id="선_279" data-name="선 279" d="M42.178,1.5H0A1.5,1.5,0,0,1-1.5,0,1.5,1.5,0,0,1,0-1.5H42.178a1.5,1.5,0,0,1,1.5,1.5A1.5,1.5,0,0,1,42.178,1.5Z" transform="translate(92.146 105.373)"/>
    <path id="선_280" data-name="선 280" d="M42.178,1.5H0A1.5,1.5,0,0,1-1.5,0,1.5,1.5,0,0,1,0-1.5H42.178a1.5,1.5,0,0,1,1.5,1.5A1.5,1.5,0,0,1,42.178,1.5Z" transform="translate(92.146 115.904)"/>
    <path id="선_281" data-name="선 281" d="M42.178,1.5H0A1.5,1.5,0,0,1-1.5,0,1.5,1.5,0,0,1,0-1.5H42.178a1.5,1.5,0,0,1,1.5,1.5A1.5,1.5,0,0,1,42.178,1.5Z" transform="translate(92.146 126.435)"/>
    <g id="그룹_2683" data-name="그룹 2683">
      <g id="그룹_2682" data-name="그룹 2682" clip-path="url(#clip-path)">
        <g id="그룹_2681" data-name="그룹 2681" style="mix-blend-mode: multiply;isolation: isolate">
          <g id="그룹_2680" data-name="그룹 2680">
            <g id="그룹_2679" data-name="그룹 2679" clip-path="url(#clip-path-14)">
              <path id="패스_7664" data-name="패스 7664" d="M48.069,175.453l-46.061-1V93.82H69.32l1,59.123Z" fill="#c6c6c6"/>
            </g>
          </g>
        </g>
      </g>
    </g>
    <path id="패스_7665" data-name="패스 7665" d="M44.786,171.135H1.5V93.82H65.7v56.411" fill="#f4ea73"/>
    <g id="그룹_2685" data-name="그룹 2685">
      <g id="그룹_2684" data-name="그룹 2684" clip-path="url(#clip-path)">
        <path id="패스_7666" data-name="패스 7666" d="M44.786,172.635H1.5a1.5,1.5,0,0,1-1.5-1.5V93.82a1.5,1.5,0,0,1,1.5-1.5H65.7a1.5,1.5,0,0,1,1.5,1.5v56.411a1.5,1.5,0,0,1-3,0V95.32H3v74.315H44.786a1.5,1.5,0,0,1,0,3Z"/>
      </g>
    </g>
    <path id="패스_7667" data-name="패스 7667" d="M44.786,171.135v-20.9h20.9Z" fill="#f4ea73"/>
    <g id="그룹_2687" data-name="그룹 2687">
      <g id="그룹_2686" data-name="그룹 2686" clip-path="url(#clip-path)">
        <path id="패스_7668" data-name="패스 7668" d="M44.786,172.635a1.5,1.5,0,0,1-1.5-1.5v-20.9a1.5,1.5,0,0,1,1.5-1.5h20.9a1.5,1.5,0,0,1,1.061,2.561l-20.9,20.9A1.5,1.5,0,0,1,44.786,172.635Zm1.5-20.9v15.783l15.783-15.783Z"/>
      </g>
    </g>
    <path id="선_282" data-name="선 282" d="M42.178,1.5H0A1.5,1.5,0,0,1-1.5,0,1.5,1.5,0,0,1,0-1.5H42.178a1.5,1.5,0,0,1,1.5,1.5A1.5,1.5,0,0,1,42.178,1.5Z" transform="translate(12.514 105.373)"/>
    <path id="선_283" data-name="선 283" d="M42.178,1.5H0A1.5,1.5,0,0,1-1.5,0,1.5,1.5,0,0,1,0-1.5H42.178a1.5,1.5,0,0,1,1.5,1.5A1.5,1.5,0,0,1,42.178,1.5Z" transform="translate(12.514 115.904)"/>
    <path id="선_284" data-name="선 284" d="M42.178,1.5H0A1.5,1.5,0,0,1-1.5,0,1.5,1.5,0,0,1,0-1.5H42.178a1.5,1.5,0,0,1,1.5,1.5A1.5,1.5,0,0,1,42.178,1.5Z" transform="translate(12.514 126.435)"/>
  </g>
</svg>
