<svg xmlns="http://www.w3.org/2000/svg" width="130" height="90" viewBox="0 0 130 90">
    <defs>
        <clipPath id="ay6h6i068a">
            <path data-name="사각형 2985" style="fill:none" d="M0 0h30v31.8H0z"/>
        </clipPath>
        <clipPath id="44hsisjvxb">
            <path data-name="사각형 1981" style="fill:none" d="M0 0h71.875v50H0z"/>
        </clipPath>
    </defs>
    <g data-name="그룹 2256" style="clip-path:url(#ay6h6i068a)" transform="translate(50 29)">
        <path data-name="패스 6572" d="m9.853 1.694-1.468.683-1.7 1.245-1.5 1.639-.874 1.419-.549 1.5-.09 1.47.318 1.307.659.959-.564-.16-.547-.058-.385.106-.366.247-.373.4-.691 1.477-.277 1.161-.223 1.535.06 2 .256 1.522.342.71.546.332.68.126-.526.7-.324.793.093 1.159.379 1.682.879 1.14.726.57h.581l.568-.135-.094.643.387.911.453.715 1.305.96 1.19.436 1.456.2.9-.162.408-.308.158.659.338.433.58.423 1.127.382 1.238.217H16.8s1.472-.185 1.49-.19.733-.477.733-.477l.427-1.123.519.576.743.14.79-.01 1.694-.213 1.746-.789.9-.931.65-.923.228-.774L26.6 27l-.014-.287.648.223.752-.224.617-.3.777-.736.843-1.128.672-2.162-.13-1.467-.2-1.116-.371-.99-.383-.645-.576-.522.178-.646.243-.782.205-1.469-.061-1.137-.372-.956-.474-.712-.2-.175-.024-.259.381-.437.169-1.054-.2-.94-.53-1.106-.821-.831-.833-.722-.772-.364-.965.024-.694.465-.085-.421-.18-.979-.709-1.1-1-.746-1.711-.75-1.455-.285-1.216-.037-1.051.346-.555.641-.281.483-.582-.787-1.054-.964-1.894-.585-1.566.015z" transform="translate(-1.031 -1.15)" style="fill:#ffffe1"/>
        <path data-name="패스 6573" d="M64.254 58.192s-1.172 5.535.893 6.507a10.722 10.722 0 0 0 4.882.67 2.563 2.563 0 0 0 2.232-1.8 4.978 4.978 0 0 0 .022-2.956z" transform="translate(-53.951 -49.118)" style="fill:#e6e6c1"/>
        <path data-name="패스 6574" d="M75.306 184.74a6.308 6.308 0 0 1-3.517 1.15 7.955 7.955 0 0 1-3.873-1.238l-.171.493.22 1.1 1.006.567 1.827.484 2.814.108 1.595-.416.317-.957z" transform="translate(-57.177 -155.859)" style="fill:#e1e1b9"/>
        <path data-name="패스 6575" d="M28.344 162.91a4.012 4.012 0 0 0 .719 1.72 4.263 4.263 0 0 0 3.895 1.627 4.167 4.167 0 0 0 1.682-.6l-.651 1.73-.8.213-2.638-.453-1.7-1.273a2.882 2.882 0 0 1-.821-1.8l.316-1.165" transform="translate(-23.655 -137.507)" style="fill:#e1e1b9"/>
        <path data-name="패스 6576" d="M16.932 162.039a2.922 2.922 0 0 1-2.425-.161l.825.8.486.108.605-.072z" transform="translate(-12.244 -136.636)" style="fill:#e1e1b9"/>
        <path data-name="패스 6577" d="M10.568 126.107s-1.694 1.517-1.787 2.238v-1.015l.468-.664.236-.433z" transform="translate(-7.411 -106.443)" style="fill:#e1e1b9"/>
        <path data-name="패스 6578" d="M11.5 69.33a10.764 10.764 0 0 1-5.1.167l.756-1.222.951-.325z" transform="translate(-5.402 -57.354)" style="fill:#e6e6c1"/>
        <path data-name="패스 6579" d="M123.469 160.313a4.306 4.306 0 0 1-.556 2.314 5.141 5.141 0 0 1-4.8 2.126 1.859 1.859 0 0 1-.812-.215 1.839 1.839 0 0 1-.645-.6 1.991 1.991 0 0 0 .21 1.191 1.964 1.964 0 0 0 .621.693l1.432.014 1.294-.163 1.438-.684 1.611-1.087.878-1.469-.124-1.25-.543-.873" transform="translate(-98.439 -135.315)" style="fill:#e1e1b9"/>
        <path data-name="패스 6580" d="M166.307 126.781a6.131 6.131 0 0 1-4.494 5.229l.315.586h1.026l1.289-.515.924-.79 1.06-2.469-.119-2.041" transform="translate(-136.569 -107.012)" style="fill:#e1e1b9"/>
        <path data-name="패스 6581" d="M173.662 94.654a2.756 2.756 0 0 1-1.767 1.51s.756-.043.759-.059.611.154.611.154z" transform="translate(-145.078 -79.894)" style="fill:#e1e1b9"/>
        <path data-name="패스 6582" d="M172.923 71.5a8.837 8.837 0 0 0-2.146-3.171l1.077-.082.677.887.392 2.366" transform="translate(-144.135 -57.605)" style="fill:#e1e1b9"/>
        <path data-name="패스 6583" d="M149.915 33.394a3.789 3.789 0 0 0-3.049-.8 3.558 3.558 0 0 0-1.843 1.045l.806-1.649.916-.508.744.02 2.427 1.893" transform="translate(-122.399 -26.572)" style="fill:#e6e6c1"/>
        <path data-name="패스 6584" d="M102.5 7.483a3.991 3.991 0 0 0-3.366.9A3.758 3.758 0 0 0 98 10.621l-.63-2.192.839-1.129 1.214-.365 3.078.543" transform="translate(-82.183 -5.858)" style="fill:#e6e6c1"/>
        <path data-name="패스 6585" d="M73.613 40.883A8.678 8.678 0 0 0 69 39.457c-1.234-.035-3.161-.076-3.863 1.177a9.308 9.308 0 0 0-.074 6.456c.945 2.135 6.023 1.757 6.749 1.153s1-1.238.856-3.372" transform="translate(-54.453 -33.294)" style="fill:#ffffe6"/>
        <path data-name="패스 6586" d="M14.737 15.614a9.028 9.028 0 0 1-2.021-.216 3.081 3.081 0 0 1-2.281-1.525 9.465 9.465 0 0 1 .082-6.627c.765-1.366 2.811-1.309 4.034-1.274a8.881 8.881 0 0 1 4.717 1.459.191.191 0 1 1-.213.316 8.5 8.5 0 0 0-4.515-1.394c-1.136-.031-3.038-.085-3.691 1.08a9.144 9.144 0 0 0-.066 6.286 2.83 2.83 0 0 0 2.019 1.308 7.787 7.787 0 0 0 4.433-.224c.668-.556.925-1.125.787-3.213a.191.191 0 0 1 .178-.2.187.187 0 0 1 .2.178c.147 2.241-.166 2.9-.924 3.531a5.516 5.516 0 0 1-2.743.518"/>
        <path data-name="패스 6587" d="M6.286 12.139a.19.19 0 0 1-.043 0c-1.524-.35-3.61-.829-3.812-3.792a5.4 5.4 0 0 1 .555-2.618A10.6 10.6 0 0 1 8.912.336 5.782 5.782 0 0 1 13.639.7c2.218 1.24 2.2 4.181 2.2 4.306a.189.189 0 0 1-.193.188.191.191 0 0 1-.187-.194c0-.028.011-2.84-2.007-3.968A5.411 5.411 0 0 0 9.03.7a10.193 10.193 0 0 0-5.7 5.189 5.032 5.032 0 0 0-.517 2.429c.169 2.483 1.628 3.012 3.516 3.446a.191.191 0 0 1-.042.376"/>
        <path data-name="패스 6588" d="M2.033 19.98a1.668 1.668 0 0 1-1.02-.316c-1.14-.845-1.091-3.169-.922-5.1a7.336 7.336 0 0 1 1.346-3.567 1.481 1.481 0 0 1 1.876-.467c.379.2.816.407.82.409a.191.191 0 0 1-.166.343s-.446-.215-.829-.415a1.1 1.1 0 0 0-1.39.349 6.954 6.954 0 0 0-1.277 3.38c-.148 1.689-.229 4.02.769 4.761a1.927 1.927 0 0 0 1.9-.009.191.191 0 1 1 .142.354 3.4 3.4 0 0 1-1.248.278"/>
        <path data-name="패스 6589" d="M3.687 26.396a1.284 1.284 0 0 1-.178-.012c-.508-.07-1.465-.512-2.165-2.683-1.028-3.195.73-4.058.8-4.093a.191.191 0 0 1 .162.345c-.064.031-1.523.776-.6 3.631.658 2.046 1.518 2.377 1.858 2.422a.749.749 0 0 0 .728-.275.191.191 0 0 1 .318.211 1.11 1.11 0 0 1-.92.454"/>
        <path data-name="패스 6590" d="M9.224 30.22a7.147 7.147 0 0 1-2.633-.645 3.734 3.734 0 0 1-2.409-3c-.092-1.484 1.084-1.6 1.1-1.606a.188.188 0 0 1 .207.173.191.191 0 0 1-.172.207c-.085.009-.817.116-.75 1.2a3.366 3.366 0 0 0 2.187 2.677c.833.38 2.447.845 3.236.472a.691.691 0 0 0 .4-.467.191.191 0 0 1 .369.1 1.065 1.065 0 0 1-.6.714 2.181 2.181 0 0 1-.925.175"/>
        <path data-name="패스 6591" d="M14.978 31.8a7.89 7.89 0 0 1-3.7-.708 1.753 1.753 0 0 1-.874-1.122 2.818 2.818 0 0 1 .415-1.927.191.191 0 0 1 .32.208 2.471 2.471 0 0 0-.363 1.634 1.388 1.388 0 0 0 .7.879c1.553.915 4.874.65 5.627.5a1.449 1.449 0 0 0 1.065-1.734.191.191 0 0 1 .378-.051 1.817 1.817 0 0 1-1.367 2.159 12.943 12.943 0 0 1-2.2.167"/>
        <path data-name="패스 6592" d="M20.252 30.794a8.167 8.167 0 0 1-1.237-.1c-.685-.105-1.07-1.857-1.171-2.391a.191.191 0 0 1 .375-.071c.185.972.572 2.042.854 2.086a6.11 6.11 0 0 0 4.77-1.054 4.134 4.134 0 0 0 1.658-2.537 2.108 2.108 0 0 0-.612-1.6.191.191 0 0 1 .283-.256 2.472 2.472 0 0 1 .71 1.89 4.492 4.492 0 0 1-1.8 2.8 6.057 6.057 0 0 1-3.831 1.23"/>
        <path data-name="패스 6593" d="M26.292 25.878a2.052 2.052 0 0 1-1.016-.252.191.191 0 0 1 .206-.321c.05.032 1.22.738 2.625-.708 1.547-1.592 1.914-3.8 1.061-6.373a2.523 2.523 0 0 0-1.219-1.622 1.7 1.7 0 0 0-1.245-.04.191.191 0 0 1-.149-.351 2.054 2.054 0 0 1 1.546.041 2.871 2.871 0 0 1 1.429 1.852c.9 2.721.5 5.058-1.149 6.759a2.9 2.9 0 0 1-2.089 1.016"/>
        <path data-name="패스 6594" d="M28.203 16.711a.191.191 0 0 1-.175-.265c.016-.038 1.606-3.866-.581-5.845a.191.191 0 1 1 .256-.283c2.389 2.161.747 6.109.676 6.276a.191.191 0 0 1-.176.116"/>
        <path data-name="패스 6595" d="M26.991 10.812a1.276 1.276 0 0 1-.426-.073.191.191 0 1 1 .126-.36.937.937 0 0 0 .78-.08 1.115 1.115 0 0 0 .54-.73c.3-1.444-1.1-3.538-2.468-4.24a1.9 1.9 0 0 0-1.449-.169 1.106 1.106 0 0 0-.66.622.191.191 0 0 1-.348-.155 1.492 1.492 0 0 1 .882-.827 2.279 2.279 0 0 1 1.75.189c1.489.766 3.01 3.014 2.667 4.657a1.5 1.5 0 0 1-.726.984 1.358 1.358 0 0 1-.668.18"/>
        <path data-name="패스 6596" d="M22.472 7.128a.191.191 0 0 1-.105-.35 2.277 2.277 0 0 0 .721-2.428c-.314-1.589-2.481-2.449-3.4-2.746-.024-.008-2.5-.753-3.676.077a1.435 1.435 0 0 0-.589 1.219.188.188 0 0 1-.2.185.19.19 0 0 1-.185-.2 1.815 1.815 0 0 1 .75-1.519c1.348-.95 3.987-.137 4.013-.128 1.219.394 3.314 1.312 3.655 3.035a2.639 2.639 0 0 1-.886 2.82.19.19 0 0 1-.1.031"/>
        <path data-name="패스 6597" d="M17.396 17.042a.467.467 0 0 0-.467.467v.467a.468.468 0 0 0 .935 0v-.467a.467.467 0 0 0-.467-.467"/>
        <path data-name="패스 6598" d="M17.399 18.659a.683.683 0 0 1-.682-.682v-.465a.682.682 0 0 1 1.364 0v.467a.683.683 0 0 1-.682.682m0-1.4a.253.253 0 0 0-.253.252v.467a.252.252 0 0 0 .5 0v-.468a.253.253 0 0 0-.252-.252"/>
        <path data-name="패스 6599" d="M12.262 17.042a.467.467 0 0 0-.467.467v.467a.467.467 0 0 0 .934 0v-.467a.467.467 0 0 0-.467-.467"/>
        <path data-name="패스 6600" d="M12.262 18.659a.683.683 0 0 1-.682-.682v-.465a.682.682 0 0 1 1.364 0v.467a.683.683 0 0 1-.682.682m0-1.4a.253.253 0 0 0-.252.252v.467a.252.252 0 0 0 .5 0v-.468a.253.253 0 0 0-.253-.252"/>
        <path data-name="패스 6602" d="M79.145 126.964a2.94 2.94 0 0 1-2.941-2.94v-.045h5.882v.045a2.94 2.94 0 0 1-2.941 2.94" transform="translate(-64.316 -104.647)" style="fill:#ed8062"/>
        <path data-name="패스 6603" d="M14.829 22.508a3.135 3.135 0 0 1-3.132-3.131v-.045a.191.191 0 0 1 .191-.191h5.882a.191.191 0 0 1 .191.191v.045a3.135 3.135 0 0 1-3.132 3.131m-2.746-2.985a2.751 2.751 0 0 0 5.493 0z"/>
        <path data-name="패스 6607" d="M102.832 150.281s-.29 1.51.117 1.919c.565.568 1.719 1.133 4.226 1.04l-1.576-.469-1.1-.571-.861-.693-.651-.683z" transform="translate(-86.705 -126.847)" style="fill:#e6e6c1"/>
        <path data-name="패스 6608" d="M110.494 127.567a22.906 22.906 0 0 0-2.837-2.216c-1.164-.665-1.884-.988-3.317-.3-.948.453-2.834 3.043-1.239 4.547a8.434 8.434 0 0 0 4.1 2.059" transform="translate(-86.495 -105.227)" style="fill:#ffffe6"/>
        <path data-name="패스 6609" d="M104.426 141.285a9.665 9.665 0 0 0 3.524 2.526l-2.742-.932-1.356-1.127-.479-.934.151-1.748a4.467 4.467 0 0 0 .9 2.215" transform="translate(-87.246 -117.385)" style="fill:#e6e6c1"/>
        <path data-name="패스 6610" d="M20.705 26.617a.2.2 0 0 1-.05-.007 8.594 8.594 0 0 1-4.18-2.1 2.167 2.167 0 0 1-.644-2 4.371 4.371 0 0 1 1.932-2.86 3.14 3.14 0 0 1 3.494.31 23.281 23.281 0 0 1 2.868 2.238.191.191 0 0 1-.252.286 22.979 22.979 0 0 0-2.805-2.193c-1.126-.643-1.777-.948-3.141-.3a4.062 4.062 0 0 0-1.719 2.575 1.779 1.779 0 0 0 .529 1.662 8.275 8.275 0 0 0 4.017 2.014.191.191 0 0 1-.049.375"/>
    </g>
    <path data-name="logo_bg" d="M24.847 61.923a35.433 35.433 0 0 0-1.426-4.139c-2.319-.495-4.5-1.029-6.534-1.6a59.191 59.191 0 0 1-9.04-3.254C2.842 50.571 0 47.87 0 45c0-5.143 9.124-9.739 23.453-12.79C28.763 13.589 45.348 0 65 0s36.239 13.589 41.547 32.209C120.875 35.26 130 39.857 130 45a4.9 4.9 0 0 1-.749 2.533 12.453 12.453 0 0 1-4.36 3.942c-.411.25-.844.494-1.3.737-.653.347-1.366.684-2.106 1.016a56.206 56.206 0 0 1-6.328 2.353 89.922 89.922 0 0 1-6.452 1.732c-.7.163-1.426.322-2.158.479l-.642.136c-.217.987-.471 2.29-.751 4C98.713 78.386 83.168 90 65 90S31.288 78.386 24.847 61.923z" transform="translate(-.001)" style="fill:#ff5050"/>
    <g data-name="그룹 410" style="clip-path:url(#44hsisjvxb)" transform="translate(29.562 20)">
        <path data-name="패스 3429" d="M67.177 26.739c.021-.022.038-.047.058-.07.059-.059.106-.128.16-.19s.106-.128.161-.191.1-.126.159-.188.107-.128.161-.191l.159-.189c.053-.062.106-.128.161-.19s.1-.127.159-.189a3.188 3.188 0 0 0 .949-2.253v-.041a3.193 3.193 0 0 0-.915-2.253c.021-.03.046-.058.066-.089.056-.07.113-.139.162-.214a3.068 3.068 0 0 0 .358-.556 2.773 2.773 0 0 0 .288-1.071l.007-.107c.009-.111.016-.222.018-.333.024-1.977.023-4.834 0-6.647a3.119 3.119 0 0 0-3.056-3.081c-1.678-.039-5.639-.052-8.787-.052-3.955 0-7.3.019-8.738.051a3.267 3.267 0 0 0-3.163 2.729c-.021.084-.044.166-.059.252s-.044.166-.059.252-.044.167-.059.254-.044.166-.059.252-.044.167-.059.254-.044.166-.059.251-.044.168-.059.255-.044.164-.059.25-.044.167-.059.254-.044.166-.059.252-.044.166-.059.252-.044.167-.059.253-.044.166-.059.251-.044.166-.059.252-.045.167-.059.253c-.018.071-.042.137-.055.209-.008-1.265-.021-2.4-.041-3.393a3.466 3.466 0 0 0-3.437-3.385h-.066a3.456 3.456 0 0 0-3.422 3.258 3.263 3.263 0 0 0-.03.385v.086c0 .056-.018.109-.019.165v.081c0 .057-.019.111-.019.169v.087c0 .056-.018.107-.019.163v.081c0 .057-.019.112-.02.17v.089c0 .054-.018.106-.019.161v.082c0 .057-.019.111-.02.169v.083c0 .056-.019.11-.02.167v.083c0 .057-.018.111-.019.168v.087c0 .056-.018.108-.019.164v.081c0 .057-.019.111-.02.169v.087c0 .055-.018.107-.019.162v.081c0 .058-.019.111-.02.169v.087c0 .056-.018.108-.019.164v.083c0 .057-.019.11-.019.167v.082c0 .057-.019.111-.02.168v.082c0 .057-.019.111-.019.169v.089c0 .054-.018.106-.019.162v.083c0 .057-.019.11-.02.167v.082c0 .057-.019.111-.02.169v.087c0 .055-.018.107-.019.163v.081c0 .057-.019.111-.02.169v.087c0 .055-.018.108-.019.164v.081c0 .057-.019.111-.02.169v.089c0 .054-.018.106-.019.162v.083c0 .057-.019.111-.02.168v.083c0 .027-.012.073-.013.109a3025.55 3025.55 0 0 0-.919-3.729l-.695-2.821a4.345 4.345 0 0 0-4.231-3.314h-.062a4.335 4.335 0 0 0-3.378 1.621c0-.014-.008-.029-.013-.043a2.1 2.1 0 0 0-.043-.284 2.043 2.043 0 0 0-.044-.286 2.067 2.067 0 0 0-.043-.281 2.1 2.1 0 0 0-.043-.284 2.093 2.093 0 0 0-.043-.283 2.141 2.141 0 0 0-.044-.286 2.065 2.065 0 0 0-.043-.281.578.578 0 0 0-.016-.117 1.951 1.951 0 0 0-.049-.36 2.039 2.039 0 0 0-.042-.279 2.085 2.085 0 0 0-.043-.282 2.085 2.085 0 0 0-.043-.282 2.044 2.044 0 0 0-.044-.286 2.039 2.039 0 0 0-.043-.279 2.084 2.084 0 0 0-.043-.282 1.981 1.981 0 0 0-.044-.287 2.035 2.035 0 0 0-.043-.278 2.084 2.084 0 0 0-.043-.282 2.072 2.072 0 0 0-.982-1.594 5.629 5.629 0 0 0-10.689 0 2.067 2.067 0 0 0-.834 2.562 2.015 2.015 0 0 0 .093.28 2.019 2.019 0 0 0 .091.279 2.256 2.256 0 0 0 .093.282 2.017 2.017 0 0 0 .094.28 1.956 1.956 0 0 0 .092.28 2.041 2.041 0 0 0 .092.278 1.962 1.962 0 0 0 .094.282 1.891 1.891 0 0 0 .093.281 1.914 1.914 0 0 0 .091.277c-.924-.018-3.967-.024-6.3-.024-2.1 0-4.863.006-5.728.021A3.4 3.4 0 0 0 0 12.327v.052a3.352 3.352 0 0 0 .655 1.987c.05.084.1.165.162.244s.1.163.161.242.1.166.163.245.1.163.16.243.1.163.16.241.1.165.162.244.1.164.161.243.1.163.161.242.1.166.163.245.1.164.162.243.1.163.159.242.1.164.161.243.1.166.163.246.1.163.161.241.1.164.161.244.1.163.161.242.1.164.161.243.1.165.162.244.1.164.162.243.1.164.16.243.1.164.162.244.1.164.161.243.1.164.161.243.1.163.161.242.1.164.161.243a2.831 2.831 0 0 0 .162.243c.05.084.1.164.161.244a2.757 2.757 0 0 0 .161.242 2.9 2.9 0 0 0 .16.243c.051.084.1.166.162.245s.1.163.161.242.1.164.161.243.1.165.163.244.1.164.161.243a2.766 2.766 0 0 0 .161.243c.049.084.1.165.161.244s.1.163.16.242.1.165.162.244a2.84 2.84 0 0 0 .162.244 2.831 2.831 0 0 0 .162.243 2.881 2.881 0 0 0 2.535 1.452h1.866c0 1.024 0 1.983.01 2.793a3.439 3.439 0 0 0 .616 1.946c.035.057.069.114.107.168s.068.111.1.164l.1.163c.033.052.069.113.106.168.043.07.089.139.136.206.031.049.061.1.094.146s.067.112.1.166.066.111.1.164.068.113.106.167.067.112.105.165.067.111.1.164.066.111.1.164.067.112.106.166.066.111.1.165.066.111.1.164.067.112.1.165.068.112.106.166.067.111.1.164l.1.166c.033.054.068.112.105.165s.067.112.1.165l.1.165.1.164c.033.053.067.112.106.166s.066.111.1.164.066.112.1.165.067.113.1.166.067.112.105.165.068.112.1.166l.1.164c.032.053.067.112.106.166s.066.111.1.164.067.112.1.166.067.111.105.164.067.112.1.165.068.112.106.166.066.112.1.165.066.111.1.164.068.113.106.167.066.111.1.164a3 3 0 0 0 2.661 1.431h.042a2.99 2.99 0 0 0 2.184-.965c.028.028.056.056.086.082.013.033.033.064.048.1.021.054.048.106.074.158s.048.106.074.159a2.235 2.235 0 0 0 4.265-.321 1.841 1.841 0 0 0 .209-.2 2.95 2.95 0 0 0 1.714.967l.039.007a3 3 0 0 0 .489.041 2.946 2.946 0 0 0 2.866-2.321c.24-1.127.564-2.521.89-3.873.329 1.4.647 2.792.878 3.874a2.931 2.931 0 0 0 3.353 2.279l.041-.007a2.94 2.94 0 0 0 1.086-.418 3 3 0 0 0 2.524 1.439h.048a3.021 3.021 0 0 0 2.947-2.4c.014-.054.031-.107.042-.162s.031-.107.042-.163.031-.107.042-.163.031-.106.042-.161.031-.108.043-.164.03-.108.042-.163.03-.107.041-.163c.006-.02.015-.038.019-.058v.607a3.369 3.369 0 0 0 .194 1.232 2.7 2.7 0 0 0 .811 1.136 3.106 3.106 0 0 0 1.877.6c1.023.013 3.06.02 5.589.02 3.48 0 6.9-.013 8.316-.033a2.789 2.789 0 0 0 2.013-.91c.056-.051.109-.1.161-.158s.109-.1.16-.157.109-.1.159-.157.109-.1.16-.157.11-.1.162-.159.109-.1.16-.158.108-.1.158-.155.11-.1.161-.158.109-.1.161-.158.109-.1.161-.158.108-.1.159-.156.11-.1.162-.159.108-.1.159-.156.11-.1.161-.159.109-.1.16-.158.109-.1.159-.156.11-.1.161-.158.108-.1.159-.156.11-.1.162-.159.108-.1.159-.156.11-.1.162-.159.109-.1.159-.156.109-.1.16-.158.11-.1.161-.158.107-.1.158-.156.11-.1.161-.158.109-.1.161-.158.109-.1.159-.157.109-.1.161-.157.109-.1.161-.157.109-.1.16-.158.109-.1.161-.158.108-.1.158-.155.111-.1.162-.159.108-.1.158-.155.11-.1.162-.159.109-.1.16-.157.109-.1.161-.158.108-.1.159-.156.111-.1.162-.16a3.182 3.182 0 0 0 1.024-2.326v-.045a3.2 3.2 0 0 0-2.128-3" transform="translate(.625 3.75)" style="fill:#ff5050"/>
        <path data-name="패스 3430" d="M94.143 43.273c-.758-.006-13.758 0-14.544.016-.143 0-.462.011-.475-.18a1.663 1.663 0 0 0-.182-.936 1.766 1.766 0 0 0-.77-.622 2.969 2.969 0 0 0-1.227-.251 2.291 2.291 0 0 0-1.932.842 2.1 2.1 0 0 0-.237 1.266c0 .527-.009 1.067 0 1.594a3.089 3.089 0 0 0 .129 1.025 1.823 1.823 0 0 0 .55.8 2.317 2.317 0 0 0 1.382.406c3.328.043 14.142.029 17.339-.015a1.944 1.944 0 0 0 1.916-1.947v-.045a1.96 1.96 0 0 0-1.951-1.949" transform="translate(-27.415 -11.737)" style="fill:#fcfcfc"/>
        <path data-name="패스 3431" d="M94.164 32.817c-1.184-.011-5.5-.022-6.463-.024a.36.36 0 0 1-.362-.246c0-.006 0-.007-.007-.013-.2-.95-1.453-1.231-2.034-1.231h-.57c-.491 0-1.828.276-2.033 1.222 0 .008-.01.011-.013.022-.071.261-.379.246-.379.246-.873.008-5.431.011-5.6.013a1.954 1.954 0 0 0-1.933 1.957v.037a1.957 1.957 0 0 0 1.945 1.958c3.369.021 14.037.021 17.441 0a1.949 1.949 0 0 0 1.936-1.941v-.042a1.95 1.95 0 0 0-1.931-1.962" transform="translate(-27.415 -7.988)" style="fill:#fcfcfc"/>
        <path data-name="패스 3432" d="M76.677 24.665a1.924 1.924 0 0 1-1.9-1.926v-.047a1.91 1.91 0 0 1 1.893-1.918c.926-.007 13.768 0 14.857 0a.391.391 0 0 0 0-.782c-.371 0-13.84.03-14.746.021a2.027 2.027 0 0 1-2-2.029v-.049a2.044 2.044 0 0 1 2-2.057c3.1-.068 14.47-.068 17.469 0a1.875 1.875 0 0 1 1.835 1.849c.027 1.83.028 4.646 0 6.612 0 .127-.015.255-.022.382a1.525 1.525 0 0 1-.163.6 1.855 1.855 0 0 1-1.676 1.039h-.509a1.856 1.856 0 0 1-1.819-1.45.335.335 0 0 0-.325-.219 1.081 1.081 0 0 0-.127 0z" transform="translate(-27.415 -2.185)" style="fill:#fcfcfc"/>
        <path data-name="패스 3433" d="M12.661 20.6c-.6.014-7.9.023-8.527.023A2.137 2.137 0 0 1 2 18.48v-.052a2.136 2.136 0 0 1 2.1-2.139c1.614-.028 10.427-.028 12 0a1.9 1.9 0 0 1 1.861 1.869c.059 3.848.061 12.234.006 16.279a2.2 2.2 0 0 1-2.2 2.178h-.05a2.2 2.2 0 0 1-2.2-2.194c-.021-3.61-.017-10.407.01-12.981a.835.835 0 0 0-.863-.847" transform="translate(-.125 -2.351)" style="fill:#fcfcfc"/>
        <path data-name="패스 3434" d="M48.84 18.56c1.107 4.505 2.889 11.632 3.74 15.474a2.121 2.121 0 0 1-1.722 2.553l-.051.008a2.1 2.1 0 0 1-2.407-1.634c-.629-2.947-1.718-7.49-2.346-9.99a.274.274 0 0 0-.531 0c-.64 2.5-1.763 7.043-2.39 9.991a2.1 2.1 0 0 1-2.406 1.634l-.051-.009a2.121 2.121 0 0 1-1.723-2.552c.851-3.842 2.682-10.969 3.788-15.474A3.1 3.1 0 0 1 45.76 16.2h.062a3.1 3.1 0 0 1 3.018 2.36" transform="translate(-13.964 -2.324)" style="fill:#fcfcfc"/>
        <path data-name="패스 3435" d="M66.915 28.176a.28.28 0 0 0-.264.282c0 2.769-.022 5.38-.054 7.1A2.186 2.186 0 0 1 64.4 37.7h-.051a2.181 2.181 0 0 1-2.169-2.145c-.068-4.182-.068-13.353 0-17.567a2.2 2.2 0 0 1 2.188-2.163h.051a2.2 2.2 0 0 1 2.189 2.16c.029 1.5.047 3.436.049 5.781a.277.277 0 0 0 .264.283 2.047 2.047 0 0 1 2.051 2.037v.051a2.045 2.045 0 0 1-2.051 2.038" transform="translate(-22.672 -2.185)" style="fill:#fcfcfc"/>
        <path data-name="패스 3436" d="M29.525 36.089a.732.732 0 0 0 .72.688h2.689a.733.733 0 0 0 .721-.688l.481-18.007h-5.092z" transform="translate(-10.267 -3.03)" style="fill:#fff"/>
        <path data-name="패스 3437" d="M33.385 14.95h-5.112a.6.6 0 0 0-.384.146c-.011.009-.026.014-.036.024a.605.605 0 0 0-.19.439v.113a.627.627 0 0 0 .61.61h5.6a.628.628 0 0 0 .61-.61v-.112a.606.606 0 0 0-.191-.439c-.011-.01-.025-.015-.036-.024a.6.6 0 0 0-.383-.146z" transform="translate(-9.749 -1.856)" style="fill:#fff"/>
        <path data-name="패스 3438" d="M34.365 7.684c-.016 0-.029-.009-.046-.009H25.81c-.016 0-.03.008-.046.009a.821.821 0 0 0-.686.446.753.753 0 0 0 0 .756.823.823 0 0 0 .686.446c.016 0 .029.009.046.009h8.509c.016 0 .029-.008.046-.009a.821.821 0 0 0 .686-.446.751.751 0 0 0 0-.756.821.821 0 0 0-.686-.446" transform="translate(-8.741 .872)" style="fill:#fff"/>
        <path data-name="패스 3439" d="M30.641 2a4.379 4.379 0 0 0-4.126 2.922h8.253A4.379 4.379 0 0 0 30.641 2" transform="translate(-9.318 3)" style="fill:#fff"/>
        <path data-name="패스 3440" d="M27.571 13a1.217 1.217 0 0 1 .272-.033h5.6a1.211 1.211 0 0 1 .271.033 4.382 4.382 0 0 0 1.056-1.663h-8.255A4.382 4.382 0 0 0 27.571 13" transform="translate(-9.318 -.503)" style="fill:#fff"/>
        <path data-name="패스 3441" d="M32.386 50.088a1.229 1.229 0 0 0 1.214-1.095h-2.433a1.229 1.229 0 0 0 1.219 1.095" transform="translate(-11.063 -14.622)" style="fill:#fff"/>
    </g>
</svg>
