<svg xmlns="http://www.w3.org/2000/svg" width="130" height="90" viewBox="0 0 130 90">
    <defs>
        <clipPath id="x5phaautda">
            <path data-name="사각형 2985" style="fill:none" d="M0 0h30v31.8H0z"/>
        </clipPath>
        <clipPath id="s0i7br429b">
            <path data-name="사각형 1980" style="fill:none" d="M0 0h93.753v50.001H0z"/>
        </clipPath>
    </defs>
    <g data-name="그룹 2256" style="clip-path:url(#x5phaautda)" transform="translate(50 29.287)">
        <path data-name="패스 6572" d="m9.853 1.694-1.468.683-1.7 1.245-1.5 1.639-.874 1.419-.549 1.5-.09 1.47.318 1.307.659.959-.564-.16-.547-.058-.385.106-.366.247-.373.4-.691 1.477-.277 1.161-.223 1.535.06 2 .256 1.522.342.71.546.332.68.126-.526.7-.324.793.093 1.159.379 1.682.879 1.14.726.57h.581l.568-.135-.094.643.387.911.453.715 1.305.96 1.19.436 1.456.2.9-.162.408-.308.158.659.338.433.58.423 1.127.382 1.238.217H16.8s1.472-.185 1.49-.19.733-.477.733-.477l.427-1.123.519.576.743.14.79-.01 1.694-.213 1.746-.789.9-.931.65-.923.228-.774L26.6 27l-.014-.287.648.223.752-.224.617-.3.777-.736.843-1.128.672-2.162-.13-1.467-.2-1.116-.371-.99-.383-.645-.576-.522.178-.646.243-.782.205-1.469-.061-1.137-.372-.956-.474-.712-.2-.175-.024-.259.381-.437.169-1.054-.2-.94-.53-1.106-.821-.831-.833-.722-.772-.364-.965.024-.694.465-.085-.421-.18-.979-.709-1.1-1-.746-1.711-.75-1.455-.285-1.216-.037-1.051.346-.555.641-.281.483-.582-.787-1.054-.964-1.894-.585-1.566.015z" transform="translate(-1.031 -1.15)" style="fill:#ffffe1"/>
        <path data-name="패스 6573" d="M64.254 58.192s-1.172 5.535.893 6.507a10.722 10.722 0 0 0 4.882.67 2.563 2.563 0 0 0 2.232-1.8 4.978 4.978 0 0 0 .022-2.956z" transform="translate(-53.951 -49.118)" style="fill:#e6e6c1"/>
        <path data-name="패스 6574" d="M75.306 184.74a6.308 6.308 0 0 1-3.517 1.15 7.955 7.955 0 0 1-3.873-1.238l-.171.493.22 1.1 1.006.567 1.827.484 2.814.108 1.595-.416.317-.957z" transform="translate(-57.177 -155.859)" style="fill:#e1e1b9"/>
        <path data-name="패스 6575" d="M28.344 162.91a4.012 4.012 0 0 0 .719 1.72 4.263 4.263 0 0 0 3.895 1.627 4.167 4.167 0 0 0 1.682-.6l-.651 1.73-.8.213-2.638-.453-1.7-1.273a2.882 2.882 0 0 1-.821-1.8l.316-1.165" transform="translate(-23.655 -137.507)" style="fill:#e1e1b9"/>
        <path data-name="패스 6576" d="M16.932 162.039a2.922 2.922 0 0 1-2.425-.161l.825.8.486.108.605-.072z" transform="translate(-12.244 -136.636)" style="fill:#e1e1b9"/>
        <path data-name="패스 6577" d="M10.568 126.107s-1.694 1.517-1.787 2.238v-1.015l.468-.664.236-.433z" transform="translate(-7.411 -106.443)" style="fill:#e1e1b9"/>
        <path data-name="패스 6578" d="M11.5 69.33a10.764 10.764 0 0 1-5.1.167l.756-1.222.951-.325z" transform="translate(-5.402 -57.354)" style="fill:#e6e6c1"/>
        <path data-name="패스 6579" d="M123.469 160.313a4.306 4.306 0 0 1-.556 2.314 5.141 5.141 0 0 1-4.8 2.126 1.859 1.859 0 0 1-.812-.215 1.839 1.839 0 0 1-.645-.6 1.991 1.991 0 0 0 .21 1.191 1.964 1.964 0 0 0 .621.693l1.432.014 1.294-.163 1.438-.684 1.611-1.087.878-1.469-.124-1.25-.543-.873" transform="translate(-98.439 -135.315)" style="fill:#e1e1b9"/>
        <path data-name="패스 6580" d="M166.307 126.781a6.131 6.131 0 0 1-4.494 5.229l.315.586h1.026l1.289-.515.924-.79 1.06-2.469-.119-2.041" transform="translate(-136.569 -107.012)" style="fill:#e1e1b9"/>
        <path data-name="패스 6581" d="M173.662 94.654a2.756 2.756 0 0 1-1.767 1.51s.756-.043.759-.059.611.154.611.154z" transform="translate(-145.078 -79.894)" style="fill:#e1e1b9"/>
        <path data-name="패스 6582" d="M172.923 71.5a8.837 8.837 0 0 0-2.146-3.171l1.077-.082.677.887.392 2.366" transform="translate(-144.135 -57.605)" style="fill:#e1e1b9"/>
        <path data-name="패스 6583" d="M149.915 33.394a3.789 3.789 0 0 0-3.049-.8 3.558 3.558 0 0 0-1.843 1.045l.806-1.649.916-.508.744.02 2.427 1.893" transform="translate(-122.399 -26.572)" style="fill:#e6e6c1"/>
        <path data-name="패스 6584" d="M102.5 7.483a3.991 3.991 0 0 0-3.366.9A3.758 3.758 0 0 0 98 10.621l-.63-2.192.839-1.129 1.214-.365 3.078.543" transform="translate(-82.183 -5.858)" style="fill:#e6e6c1"/>
        <path data-name="패스 6585" d="M73.613 40.883A8.678 8.678 0 0 0 69 39.457c-1.234-.035-3.161-.076-3.863 1.177a9.308 9.308 0 0 0-.074 6.456c.945 2.135 6.023 1.757 6.749 1.153s1-1.238.856-3.372" transform="translate(-54.453 -33.294)" style="fill:#ffffe6"/>
        <path data-name="패스 6586" d="M14.737 15.614a9.028 9.028 0 0 1-2.021-.216 3.081 3.081 0 0 1-2.281-1.525 9.465 9.465 0 0 1 .082-6.627c.765-1.366 2.811-1.309 4.034-1.274a8.881 8.881 0 0 1 4.717 1.459.191.191 0 1 1-.213.316 8.5 8.5 0 0 0-4.515-1.394c-1.136-.031-3.038-.085-3.691 1.08a9.144 9.144 0 0 0-.066 6.286 2.83 2.83 0 0 0 2.019 1.308 7.787 7.787 0 0 0 4.433-.224c.668-.556.925-1.125.787-3.213a.191.191 0 0 1 .178-.2.187.187 0 0 1 .2.178c.147 2.241-.166 2.9-.924 3.531a5.516 5.516 0 0 1-2.743.518"/>
        <path data-name="패스 6587" d="M6.286 12.139a.19.19 0 0 1-.043 0c-1.524-.35-3.61-.829-3.812-3.792a5.4 5.4 0 0 1 .555-2.618A10.6 10.6 0 0 1 8.912.336 5.782 5.782 0 0 1 13.639.7c2.218 1.24 2.2 4.181 2.2 4.306a.189.189 0 0 1-.193.188.191.191 0 0 1-.187-.194c0-.028.011-2.84-2.007-3.968A5.411 5.411 0 0 0 9.03.7a10.193 10.193 0 0 0-5.7 5.189 5.032 5.032 0 0 0-.517 2.429c.169 2.483 1.628 3.012 3.516 3.446a.191.191 0 0 1-.042.376"/>
        <path data-name="패스 6588" d="M2.033 19.98a1.668 1.668 0 0 1-1.02-.316c-1.14-.845-1.091-3.169-.922-5.1a7.336 7.336 0 0 1 1.346-3.567 1.481 1.481 0 0 1 1.876-.467c.379.2.816.407.82.409a.191.191 0 0 1-.166.343s-.446-.215-.829-.415a1.1 1.1 0 0 0-1.39.349 6.954 6.954 0 0 0-1.277 3.38c-.148 1.689-.229 4.02.769 4.761a1.927 1.927 0 0 0 1.9-.009.191.191 0 1 1 .142.354 3.4 3.4 0 0 1-1.248.278"/>
        <path data-name="패스 6589" d="M3.687 26.396a1.284 1.284 0 0 1-.178-.012c-.508-.07-1.465-.512-2.165-2.683-1.028-3.195.73-4.058.8-4.093a.191.191 0 0 1 .162.345c-.064.031-1.523.776-.6 3.631.658 2.046 1.518 2.377 1.858 2.422a.749.749 0 0 0 .728-.275.191.191 0 0 1 .318.211 1.11 1.11 0 0 1-.92.454"/>
        <path data-name="패스 6590" d="M9.224 30.22a7.147 7.147 0 0 1-2.633-.645 3.734 3.734 0 0 1-2.409-3c-.092-1.484 1.084-1.6 1.1-1.606a.188.188 0 0 1 .207.173.191.191 0 0 1-.172.207c-.085.009-.817.116-.75 1.2a3.366 3.366 0 0 0 2.187 2.677c.833.38 2.447.845 3.236.472a.691.691 0 0 0 .4-.467.191.191 0 0 1 .369.1 1.065 1.065 0 0 1-.6.714 2.181 2.181 0 0 1-.925.175"/>
        <path data-name="패스 6591" d="M14.978 31.8a7.89 7.89 0 0 1-3.7-.708 1.753 1.753 0 0 1-.874-1.122 2.818 2.818 0 0 1 .415-1.927.191.191 0 0 1 .32.208 2.471 2.471 0 0 0-.363 1.634 1.388 1.388 0 0 0 .7.879c1.553.915 4.874.65 5.627.5a1.449 1.449 0 0 0 1.065-1.734.191.191 0 0 1 .378-.051 1.817 1.817 0 0 1-1.367 2.159 12.943 12.943 0 0 1-2.2.167"/>
        <path data-name="패스 6592" d="M20.252 30.794a8.167 8.167 0 0 1-1.237-.1c-.685-.105-1.07-1.857-1.171-2.391a.191.191 0 0 1 .375-.071c.185.972.572 2.042.854 2.086a6.11 6.11 0 0 0 4.77-1.054 4.134 4.134 0 0 0 1.658-2.537 2.108 2.108 0 0 0-.612-1.6.191.191 0 0 1 .283-.256 2.472 2.472 0 0 1 .71 1.89 4.492 4.492 0 0 1-1.8 2.8 6.057 6.057 0 0 1-3.831 1.23"/>
        <path data-name="패스 6593" d="M26.292 25.878a2.052 2.052 0 0 1-1.016-.252.191.191 0 0 1 .206-.321c.05.032 1.22.738 2.625-.708 1.547-1.592 1.914-3.8 1.061-6.373a2.523 2.523 0 0 0-1.219-1.622 1.7 1.7 0 0 0-1.245-.04.191.191 0 0 1-.149-.351 2.054 2.054 0 0 1 1.546.041 2.871 2.871 0 0 1 1.429 1.852c.9 2.721.5 5.058-1.149 6.759a2.9 2.9 0 0 1-2.089 1.016"/>
        <path data-name="패스 6594" d="M28.203 16.711a.191.191 0 0 1-.175-.265c.016-.038 1.606-3.866-.581-5.845a.191.191 0 1 1 .256-.283c2.389 2.161.747 6.109.676 6.276a.191.191 0 0 1-.176.116"/>
        <path data-name="패스 6595" d="M26.991 10.812a1.276 1.276 0 0 1-.426-.073.191.191 0 1 1 .126-.36.937.937 0 0 0 .78-.08 1.115 1.115 0 0 0 .54-.73c.3-1.444-1.1-3.538-2.468-4.24a1.9 1.9 0 0 0-1.449-.169 1.106 1.106 0 0 0-.66.622.191.191 0 0 1-.348-.155 1.492 1.492 0 0 1 .882-.827 2.279 2.279 0 0 1 1.75.189c1.489.766 3.01 3.014 2.667 4.657a1.5 1.5 0 0 1-.726.984 1.358 1.358 0 0 1-.668.18"/>
        <path data-name="패스 6596" d="M22.472 7.128a.191.191 0 0 1-.105-.35 2.277 2.277 0 0 0 .721-2.428c-.314-1.589-2.481-2.449-3.4-2.746-.024-.008-2.5-.753-3.676.077a1.435 1.435 0 0 0-.589 1.219.188.188 0 0 1-.2.185.19.19 0 0 1-.185-.2 1.815 1.815 0 0 1 .75-1.519c1.348-.95 3.987-.137 4.013-.128 1.219.394 3.314 1.312 3.655 3.035a2.639 2.639 0 0 1-.886 2.82.19.19 0 0 1-.1.031"/>
        <path data-name="패스 6597" d="M17.396 17.042a.467.467 0 0 0-.467.467v.467a.468.468 0 0 0 .935 0v-.467a.467.467 0 0 0-.467-.467"/>
        <path data-name="패스 6598" d="M17.399 18.659a.683.683 0 0 1-.682-.682v-.465a.682.682 0 0 1 1.364 0v.467a.683.683 0 0 1-.682.682m0-1.4a.253.253 0 0 0-.253.252v.467a.252.252 0 0 0 .5 0v-.468a.253.253 0 0 0-.252-.252"/>
        <path data-name="패스 6599" d="M12.262 17.042a.467.467 0 0 0-.467.467v.467a.467.467 0 0 0 .934 0v-.467a.467.467 0 0 0-.467-.467"/>
        <path data-name="패스 6600" d="M12.262 18.659a.683.683 0 0 1-.682-.682v-.465a.682.682 0 0 1 1.364 0v.467a.683.683 0 0 1-.682.682m0-1.4a.253.253 0 0 0-.252.252v.467a.252.252 0 0 0 .5 0v-.468a.253.253 0 0 0-.253-.252"/>
        <path data-name="패스 6602" d="M79.145 126.964a2.94 2.94 0 0 1-2.941-2.94v-.045h5.882v.045a2.94 2.94 0 0 1-2.941 2.94" transform="translate(-64.316 -104.647)" style="fill:#ed8062"/>
        <path data-name="패스 6603" d="M14.829 22.508a3.135 3.135 0 0 1-3.132-3.131v-.045a.191.191 0 0 1 .191-.191h5.882a.191.191 0 0 1 .191.191v.045a3.135 3.135 0 0 1-3.132 3.131m-2.746-2.985a2.751 2.751 0 0 0 5.493 0z"/>
        <path data-name="패스 6607" d="M102.832 150.281s-.29 1.51.117 1.919c.565.568 1.719 1.133 4.226 1.04l-1.576-.469-1.1-.571-.861-.693-.651-.683z" transform="translate(-86.705 -126.847)" style="fill:#e6e6c1"/>
        <path data-name="패스 6608" d="M110.494 127.567a22.906 22.906 0 0 0-2.837-2.216c-1.164-.665-1.884-.988-3.317-.3-.948.453-2.834 3.043-1.239 4.547a8.434 8.434 0 0 0 4.1 2.059" transform="translate(-86.495 -105.227)" style="fill:#ffffe6"/>
        <path data-name="패스 6609" d="M104.426 141.285a9.665 9.665 0 0 0 3.524 2.526l-2.742-.932-1.356-1.127-.479-.934.151-1.748a4.467 4.467 0 0 0 .9 2.215" transform="translate(-87.246 -117.385)" style="fill:#e6e6c1"/>
        <path data-name="패스 6610" d="M20.705 26.617a.2.2 0 0 1-.05-.007 8.594 8.594 0 0 1-4.18-2.1 2.167 2.167 0 0 1-.644-2 4.371 4.371 0 0 1 1.932-2.86 3.14 3.14 0 0 1 3.494.31 23.281 23.281 0 0 1 2.868 2.238.191.191 0 0 1-.252.286 22.979 22.979 0 0 0-2.805-2.193c-1.126-.643-1.777-.948-3.141-.3a4.062 4.062 0 0 0-1.719 2.575 1.779 1.779 0 0 0 .529 1.662 8.275 8.275 0 0 0 4.017 2.014.191.191 0 0 1-.049.375"/>
    </g>
    <path data-name="logo_bg" d="M24.846 61.924a35.482 35.482 0 0 0-1.426-4.14 105.573 105.573 0 0 1-6.534-1.6 59.1 59.1 0 0 1-9.041-3.254C2.841 50.571 0 47.87 0 45c0-5.143 9.124-9.739 23.453-12.79C28.761 13.589 45.347 0 65 0s36.238 13.589 41.547 32.209C120.874 35.26 130 39.857 130 45a4.889 4.889 0 0 1-.75 2.533 12.45 12.45 0 0 1-4.359 3.942q-.617.374-1.3.737a35.53 35.53 0 0 1-2.106 1.016 56.254 56.254 0 0 1-6.327 2.353 89.812 89.812 0 0 1-6.453 1.732c-.7.163-1.426.322-2.157.479l-.642.135a76.074 76.074 0 0 0-.751 4C98.712 78.386 83.167 90 65 90S31.288 78.386 24.846 61.924z" style="fill:#5e25c7"/>
    <g data-name="그룹 408" style="clip-path:url(#s0i7br429b)" transform="translate(18.125 20.186)">
        <path data-name="패스 3415" d="M89.8 23.768c.073-.064.148-.125.215-.2s.149-.128.217-.2.147-.125.214-.2.149-.126.216-.2.149-.127.217-.2.147-.125.214-.2A3.185 3.185 0 0 0 92.2 20.2v-.043a3.19 3.19 0 0 0-.937-2.273c.052-.051.1-.1.153-.157a3.094 3.094 0 0 0 .454-.682 2.77 2.77 0 0 0 .288-1.071l.007-.108c.008-.111.016-.222.017-.333a313.16 313.16 0 0 0 0-6.646 3.118 3.118 0 0 0-3.056-3.077c-1.678-.039-5.639-.053-8.787-.053-3.954 0-7.3.02-8.738.052a3.282 3.282 0 0 0-1.866.63l-.951-2.476L67.586.84a1.309 1.309 0 0 0-2.444 0l-1.2 3.123-1.015 2.655a3.177 3.177 0 0 0-1.741-.536c-.888-.009-3.289-.016-6.118-.016-2.184 0-4.9 0-5.966.015A3.317 3.317 0 0 0 45.839 9.4v.03c0 .03.008.058.009.088 0 .046-.013.088-.013.134v-.206a3.361 3.361 0 0 0-3.263-3.334c-1.6-.038-5.22-.051-8.081-.051-2.784 0-6.287.013-7.771.049a3.143 3.143 0 0 0-3.068 3.057c-.076 2.8-.079 7.617-.01 10.607-.031-.064-.076-.123-.11-.184l-.121-.214-.118-.208-.119-.211c-.039-.07-.081-.14-.119-.211s-.08-.139-.119-.209-.081-.141-.12-.213a3.546 3.546 0 0 0-.361-.613L14.827 7.426a3.359 3.359 0 0 0-2.677-1.353h-.01a3.362 3.362 0 0 0-2.677 1.338L1.678 17.78a3.362 3.362 0 0 0-.623 2.568 3.3 3.3 0 0 0 1.061 1.91c.066.071.14.135.213.2s.138.133.21.2.138.133.21.2.139.134.211.2.139.134.211.2c.051.054.105.1.159.156h-.12A3.266 3.266 0 0 0 0 26.646v.111a3.246 3.246 0 0 0 1.477 2.7c.071.056.138.114.214.164s.141.114.217.165.137.113.211.161.14.115.216.165.139.114.216.164.138.113.213.162.139.114.214.164.141.114.217.165.137.113.212.161.14.115.216.165.14.114.216.164.137.113.212.162.14.115.216.165.139.114.215.164.138.113.213.162.14.115.216.165.138.113.213.163.139.114.214.164.139.114.215.164.139.114.215.164.138.113.213.162.14.116.217.166.138.114.214.163.138.114.214.163.14.115.217.165.138.113.213.163.139.114.216.164.138.113.213.163.139.114.215.164.139.115.216.164.138.114.213.163.139.114.215.164.139.114.214.164.139.114.215.164.138.114.214.163.139.114.214.164.139.114.216.164.138.114.214.163.139.114.214.164.139.114.214.164a2.827 2.827 0 0 0 1.733.633c1.157.014 3.782.023 6.851.023 3.166 0 5.873-.009 7.064-.024a2.839 2.839 0 0 0 2.2-1.113 2.813 2.813 0 0 0 2.177 1.1c1.118.014 3.757.024 6.887.024 2.528 0 5.72-.007 7.1-.025a2.822 2.822 0 0 0 2.453-1.524 3.018 3.018 0 0 0 2.141.939c.731.012 2.469.021 4.535.021 2.232 0 4.16-.009 4.913-.024a2.888 2.888 0 0 0 1.568-.494 3.377 3.377 0 0 0 2.631 1.211 3.449 3.449 0 0 0 2.206-.783c.054.053.1.107.166.159a3.108 3.108 0 0 0 1.878.6c1.024.013 3.062.021 5.591.021 3.48 0 6.9-.014 8.314-.033a2.771 2.771 0 0 0 1.7-.623c.076-.05.145-.108.216-.164s.144-.106.214-.163.144-.107.214-.163.144-.107.215-.163.144-.107.214-.162.145-.108.216-.164.143-.106.214-.162.145-.107.216-.164.143-.106.213-.162.146-.108.216-.164.143-.106.213-.163.144-.107.216-.163.145-.108.216-.164.142-.106.212-.161.144-.107.216-.163.144-.108.215-.164.144-.107.215-.163.146-.108.217-.164.142-.106.211-.161.145-.108.216-.164.144-.107.215-.163.144-.107.214-.163.144-.107.214-.163.144-.108.215-.163.144-.108.214-.163.144-.107.216-.164.143-.106.214-.163.144-.108.216-.164.143-.107.213-.162.145-.108.216-.164.144-.108.214-.163.143-.107.214-.163.144-.108.214-.163.144-.108.216-.163.144-.108.214-.164.144-.107.214-.163.144-.107.214-.163.144-.108.216-.163.143-.107.214-.163.144-.108.215-.164A3.2 3.2 0 0 0 92.2 26.9v-.045a3.208 3.208 0 0 0-2.4-3.083M45.839 9.81v-.1.099" transform="translate(.625 6.875)" style="fill:#5e25c7"/>
        <path data-name="패스 3416" d="M3.978 39.435c3.149-.046 14.19-.036 17.359.009a2.01 2.01 0 0 1 1.984 1.985v.045a2.019 2.019 0 0 1-1.986 2.046c-3.168.041-14.2.041-17.354 0A2 2 0 0 1 2 41.53v-.105a2 2 0 0 1 1.979-1.99" transform="translate(-.125 -7.901)" style="fill:#fcfcfc"/>
        <path data-name="패스 3417" d="M104.418 10.374a.489.489 0 0 1 .638 0l.783.684 1.326-.657-1.01-2.631h-2.849l-1 2.6 1.323.678z" transform="translate(-37.738 3.961)" style="fill:#fcfcfc"/>
        <path data-name="패스 3418" d="m103.26 13.78-1.083-.554v17.242h1.081z" transform="translate(-37.69 1.916)" style="fill:#fcfcfc"/>
        <path data-name="패스 3419" d="M108.463 30.483h1.083V13.265l-1.081.535z" transform="translate(-40.047 1.901)" style="fill:#fcfcfc"/>
        <path data-name="패스 3420" d="M102.179 42.566a2.55 2.55 0 0 0 5.01 0v-.554h-5.01z" transform="translate(-37.69 -8.878)" style="fill:#fcfcfc"/>
        <path data-name="패스 3421" d="M105.556 2.038a.059.059 0 0 0-.11 0l-1.082 2.823h2.274z" transform="translate(-38.51 6.125)" style="fill:#fcfcfc"/>
        <path data-name="패스 3422" d="M105.109 13.669v16.746h1.347V13.669l-.67-.586z" transform="translate(-38.789 1.969)" style="fill:#fcfcfc"/>
        <path data-name="패스 3423" d="M58.044 33.11c-3.068.041-14.4.041-17.44 0a1.955 1.955 0 0 1-1.934-1.94v-.117a1.956 1.956 0 0 1 1.93-1.942c.892-.012 4.705-.019 5.958-.021a.518.518 0 0 0 .52-.526 99.55 99.55 0 0 1-.013-1.813.327.327 0 0 0-.324-.323c-1.058-.012-4.7-.025-5.5-.043a1.89 1.89 0 0 1-1.841-1.84 253.404 253.404 0 0 1 0-10.959 1.891 1.891 0 0 1 1.849-1.841c2.691-.066 12.955-.066 15.792 0a2.091 2.091 0 0 1 2.042 2.086v.2A2.088 2.088 0 0 1 57 16.1c-2.673.009-12.059 0-12.69-.015a.379.379 0 0 0-.018.751c2.249-.018 10.393-.011 12.42.019a2.07 2.07 0 0 1 2.038 2.061v.052a2.109 2.109 0 0 1-2.079 2.132c-2.026.03-10.146.036-12.38.019a.384.384 0 0 0 .026.761c.91-.038 10.266-.048 12.919-.03a2.083 2.083 0 0 1 2.071 2.08v.373a2.1 2.1 0 0 1-2.052 2.09c-.766.016-4.354.027-5.346.038a.326.326 0 0 0-.323.322c0 .6 0 1.224-.013 1.809a.519.519 0 0 0 .52.529c1.252 0 5.061.009 5.955.021a1.972 1.972 0 0 1 1.946 1.947v.041a1.98 1.98 0 0 1-1.948 2.008" transform="translate(-13.876 2.489)" style="fill:#fcfcfc"/>
        <path data-name="패스 3424" d="M130.779 38.659c-.758-.005-13.758 0-14.545.016-.142 0-.462.011-.475-.18a1.662 1.662 0 0 0-.182-.936 1.766 1.766 0 0 0-.77-.622 2.979 2.979 0 0 0-1.227-.251 2.292 2.292 0 0 0-1.932.842 2.1 2.1 0 0 0-.238 1.266c0 .527-.009 1.068 0 1.594a3.089 3.089 0 0 0 .129 1.025 1.823 1.823 0 0 0 .55.8 2.316 2.316 0 0 0 1.383.406c3.328.042 14.142.029 17.34-.015a1.944 1.944 0 0 0 1.916-1.946v-.046a1.96 1.96 0 0 0-1.951-1.949" transform="translate(-41.151 -6.881)" style="fill:#fcfcfc"/>
        <path data-name="패스 3425" d="M113.311 20.05a1.924 1.924 0 0 1-1.9-1.926v-.047a1.91 1.91 0 0 1 1.893-1.918c.926-.007 13.768 0 14.858 0a.391.391 0 0 0 0-.782c-.371 0-13.84.03-14.746.021a2.026 2.026 0 0 1-2.005-2.029v-.049a2.045 2.045 0 0 1 2-2.057c3.1-.068 14.47-.068 17.469 0a1.876 1.876 0 0 1 1.835 1.849c.027 1.83.028 4.646 0 6.613 0 .128-.015.255-.022.382a1.524 1.524 0 0 1-.163.6 1.857 1.857 0 0 1-.271.406 1.882 1.882 0 0 1-1.406.633h-.509a1.856 1.856 0 0 1-1.819-1.45.335.335 0 0 0-.324-.219.974.974 0 0 0-.128 0l-14.759-.022" transform="translate(-41.151 2.671)" style="fill:#fcfcfc"/>
        <path data-name="패스 3426" d="M130.8 28.2c-1.184-.011-5.5-.022-6.463-.024a.37.37 0 0 1-.369-.258 1.311 1.311 0 0 0-.556-.79 2.5 2.5 0 0 0-.891-.371 4.961 4.961 0 0 0-1.163-.07 2.8 2.8 0 0 0-.544.069 2.93 2.93 0 0 0-.69.242 1.682 1.682 0 0 0-.585.463 1.371 1.371 0 0 0-.222.47c-.071.261-.379.246-.375.248-.873.008-5.431.011-5.6.012a1.954 1.954 0 0 0-1.933 1.957v.041a1.957 1.957 0 0 0 1.945 1.958c3.369.021 14.038.021 17.441 0a1.949 1.949 0 0 0 1.936-1.942v-.042A1.95 1.95 0 0 0 130.8 28.2" transform="translate(-41.151 -3.13)" style="fill:#fcfcfc"/>
        <path data-name="패스 3427" d="M21.184 26.279a2.09 2.09 0 0 1-1.686-.848l-5.721-7.716a.368.368 0 0 0-.59 0l-5.73 7.633a2.176 2.176 0 0 1-2.914.578 2.1 2.1 0 0 1-.51-3l7.784-10.37a2.1 2.1 0 0 1 1.677-.838h.006a2.1 2.1 0 0 1 1.678.848L22.8 22.848a2.168 2.168 0 0 1-.325 2.983 2.092 2.092 0 0 1-1.293.448" transform="translate(-.73 2.482)" style="fill:#fcfcfc"/>
        <path data-name="패스 3428" d="M77.631 19.463c.956-.007 7.727 0 8.531.019a.947.947 0 0 0 .972-.926c.014-.558.014-1.2 0-1.752a.951.951 0 0 0-.966-.933c-.911.015-7.7.019-8.78.011a2.074 2.074 0 0 1-2.05-2.064v-.031a2.051 2.051 0 0 1 2.027-2.066c1.944-.021 10.138-.02 12.058 0a1.93 1.93 0 0 1 1.908 1.906c.033 2.235.033 5.786 0 8.016a1.933 1.933 0 0 1-1.911 1.908c-.9.008-7.4 0-8.338-.019a1.146 1.146 0 0 0-1.173 1.133c-.009.739-.009 1.64 0 2.383a1.16 1.16 0 0 0 1.191 1.144c1.014-.021 7.152-.027 8.2-.018a2.088 2.088 0 0 1 2.056 2.081v.045a2.062 2.062 0 0 1-2.019 2.075c-1.978.037-9.726.039-11.753 0a2.232 2.232 0 0 1-2.2-2.191 268.807 268.807 0 0 1 0-8.519 2.254 2.254 0 0 1 2.242-2.21" transform="translate(-27.626 2.486)" style="fill:#fcfcfc"/>
    </g>
</svg>
