<svg xmlns="http://www.w3.org/2000/svg" xmlns:xlink="http://www.w3.org/1999/xlink" width="278.002" height="198.236" viewBox="0 0 278.002 198.236">
  <defs>
    <filter id="logo_bg" x="0" y="0" width="278.002" height="198.236" filterUnits="userSpaceOnUse">
      <feOffset dx="6" dy="6" input="SourceAlpha"/>
      <feGaussianBlur stdDeviation="3" result="blur"/>
      <feFlood flood-opacity="0.161"/>
      <feComposite operator="in" in2="blur"/>
      <feComposite in="SourceGraphic"/>
    </filter>
  </defs>
  <g id="logo_bg-2" data-name="logo_bg" transform="translate(3 3)">
    <g transform="matrix(1, 0, 0, 1, -3, -3)" filter="url(#logo_bg)">
      <path id="logo_bg-3" data-name="logo_bg" d="M49.693,124.081c.254.05-1.74-5.369-2.95-8.534-4.6-.985-8.941-2.045-12.971-3.181a118.178,118.178,0,0,1-18.082-6.509C5.684,101.143,0,95.74,0,90,0,79.713,18.249,70.52,46.907,64.419,57.524,27.178,90.7,0,130,0s72.476,27.178,83.093,64.419C241.75,70.52,260,79.713,260,90a9.79,9.79,0,0,1-1.5,5.066c-1.643,2.755-4.607,5.4-8.718,7.883-.823.5-1.688.988-2.6,1.475-1.3.691-2.731,1.367-4.212,2.032a112.683,112.683,0,0,1-12.654,4.705c-3.974,1.233-8.288,2.389-12.905,3.464-1.408.327-2.853.644-4.316.958l-1.23.259c-.446,2-.973,4.684-1.556,8.239-12.883,32.927-43.973,56.155-80.31,56.155S62.575,157.009,49.693,124.081Z" transform="translate(3 3)" fill="#5e25c7"/>
    </g>
  </g>
</svg>
