<svg xmlns="http://www.w3.org/2000/svg" width="130" height="90" viewBox="0 0 130 90">
    <defs>
        <clipPath id="a8maahcuua">
            <path data-name="사각형 2985" style="fill:none" d="M0 0h30v31.8H0z"/>
        </clipPath>
        <clipPath id="5xqty2ub5b">
            <path data-name="사각형 1982" style="fill:none" d="M0 0h96.875v50H0z"/>
        </clipPath>
    </defs>
    <g data-name="그룹 2256" style="clip-path:url(#a8maahcuua)" transform="translate(50 29)">
        <path data-name="패스 6572" d="m9.853 1.694-1.468.683-1.7 1.245-1.5 1.639-.874 1.419-.549 1.5-.09 1.47.318 1.307.659.959-.564-.16-.547-.058-.385.106-.366.247-.373.4-.691 1.477-.277 1.161-.223 1.535.06 2 .256 1.522.342.71.546.332.68.126-.526.7-.324.793.093 1.159.379 1.682.879 1.14.726.57h.581l.568-.135-.094.643.387.911.453.715 1.305.96 1.19.436 1.456.2.9-.162.408-.308.158.659.338.433.58.423 1.127.382 1.238.217H16.8s1.472-.185 1.49-.19.733-.477.733-.477l.427-1.123.519.576.743.14.79-.01 1.694-.213 1.746-.789.9-.931.65-.923.228-.774L26.6 27l-.014-.287.648.223.752-.224.617-.3.777-.736.843-1.128.672-2.162-.13-1.467-.2-1.116-.371-.99-.383-.645-.576-.522.178-.646.243-.782.205-1.469-.061-1.137-.372-.956-.474-.712-.2-.175-.024-.259.381-.437.169-1.054-.2-.94-.53-1.106-.821-.831-.833-.722-.772-.364-.965.024-.694.465-.085-.421-.18-.979-.709-1.1-1-.746-1.711-.75-1.455-.285-1.216-.037-1.051.346-.555.641-.281.483-.582-.787-1.054-.964-1.894-.585-1.566.015z" transform="translate(-1.031 -1.15)" style="fill:#ffffe1"/>
        <path data-name="패스 6573" d="M64.254 58.192s-1.172 5.535.893 6.507a10.722 10.722 0 0 0 4.882.67 2.563 2.563 0 0 0 2.232-1.8 4.978 4.978 0 0 0 .022-2.956z" transform="translate(-53.951 -49.118)" style="fill:#e6e6c1"/>
        <path data-name="패스 6574" d="M75.306 184.74a6.308 6.308 0 0 1-3.517 1.15 7.955 7.955 0 0 1-3.873-1.238l-.171.493.22 1.1 1.006.567 1.827.484 2.814.108 1.595-.416.317-.957z" transform="translate(-57.177 -155.859)" style="fill:#e1e1b9"/>
        <path data-name="패스 6575" d="M28.344 162.91a4.012 4.012 0 0 0 .719 1.72 4.263 4.263 0 0 0 3.895 1.627 4.167 4.167 0 0 0 1.682-.6l-.651 1.73-.8.213-2.638-.453-1.7-1.273a2.882 2.882 0 0 1-.821-1.8l.316-1.165" transform="translate(-23.655 -137.507)" style="fill:#e1e1b9"/>
        <path data-name="패스 6576" d="M16.932 162.039a2.922 2.922 0 0 1-2.425-.161l.825.8.486.108.605-.072z" transform="translate(-12.244 -136.636)" style="fill:#e1e1b9"/>
        <path data-name="패스 6577" d="M10.568 126.107s-1.694 1.517-1.787 2.238v-1.015l.468-.664.236-.433z" transform="translate(-7.411 -106.443)" style="fill:#e1e1b9"/>
        <path data-name="패스 6578" d="M11.5 69.33a10.764 10.764 0 0 1-5.1.167l.756-1.222.951-.325z" transform="translate(-5.402 -57.354)" style="fill:#e6e6c1"/>
        <path data-name="패스 6579" d="M123.469 160.313a4.306 4.306 0 0 1-.556 2.314 5.141 5.141 0 0 1-4.8 2.126 1.859 1.859 0 0 1-.812-.215 1.839 1.839 0 0 1-.645-.6 1.991 1.991 0 0 0 .21 1.191 1.964 1.964 0 0 0 .621.693l1.432.014 1.294-.163 1.438-.684 1.611-1.087.878-1.469-.124-1.25-.543-.873" transform="translate(-98.439 -135.315)" style="fill:#e1e1b9"/>
        <path data-name="패스 6580" d="M166.307 126.781a6.131 6.131 0 0 1-4.494 5.229l.315.586h1.026l1.289-.515.924-.79 1.06-2.469-.119-2.041" transform="translate(-136.569 -107.012)" style="fill:#e1e1b9"/>
        <path data-name="패스 6581" d="M173.662 94.654a2.756 2.756 0 0 1-1.767 1.51s.756-.043.759-.059.611.154.611.154z" transform="translate(-145.078 -79.894)" style="fill:#e1e1b9"/>
        <path data-name="패스 6582" d="M172.923 71.5a8.837 8.837 0 0 0-2.146-3.171l1.077-.082.677.887.392 2.366" transform="translate(-144.135 -57.605)" style="fill:#e1e1b9"/>
        <path data-name="패스 6583" d="M149.915 33.394a3.789 3.789 0 0 0-3.049-.8 3.558 3.558 0 0 0-1.843 1.045l.806-1.649.916-.508.744.02 2.427 1.893" transform="translate(-122.399 -26.572)" style="fill:#e6e6c1"/>
        <path data-name="패스 6584" d="M102.5 7.483a3.991 3.991 0 0 0-3.366.9A3.758 3.758 0 0 0 98 10.621l-.63-2.192.839-1.129 1.214-.365 3.078.543" transform="translate(-82.183 -5.858)" style="fill:#e6e6c1"/>
        <path data-name="패스 6585" d="M73.613 40.883A8.678 8.678 0 0 0 69 39.457c-1.234-.035-3.161-.076-3.863 1.177a9.308 9.308 0 0 0-.074 6.456c.945 2.135 6.023 1.757 6.749 1.153s1-1.238.856-3.372" transform="translate(-54.453 -33.294)" style="fill:#ffffe6"/>
        <path data-name="패스 6586" d="M14.737 15.614a9.028 9.028 0 0 1-2.021-.216 3.081 3.081 0 0 1-2.281-1.525 9.465 9.465 0 0 1 .082-6.627c.765-1.366 2.811-1.309 4.034-1.274a8.881 8.881 0 0 1 4.717 1.459.191.191 0 1 1-.213.316 8.5 8.5 0 0 0-4.515-1.394c-1.136-.031-3.038-.085-3.691 1.08a9.144 9.144 0 0 0-.066 6.286 2.83 2.83 0 0 0 2.019 1.308 7.787 7.787 0 0 0 4.433-.224c.668-.556.925-1.125.787-3.213a.191.191 0 0 1 .178-.2.187.187 0 0 1 .2.178c.147 2.241-.166 2.9-.924 3.531a5.516 5.516 0 0 1-2.743.518"/>
        <path data-name="패스 6587" d="M6.286 12.139a.19.19 0 0 1-.043 0c-1.524-.35-3.61-.829-3.812-3.792a5.4 5.4 0 0 1 .555-2.618A10.6 10.6 0 0 1 8.912.336 5.782 5.782 0 0 1 13.639.7c2.218 1.24 2.2 4.181 2.2 4.306a.189.189 0 0 1-.193.188.191.191 0 0 1-.187-.194c0-.028.011-2.84-2.007-3.968A5.411 5.411 0 0 0 9.03.7a10.193 10.193 0 0 0-5.7 5.189 5.032 5.032 0 0 0-.517 2.429c.169 2.483 1.628 3.012 3.516 3.446a.191.191 0 0 1-.042.376"/>
        <path data-name="패스 6588" d="M2.033 19.98a1.668 1.668 0 0 1-1.02-.316c-1.14-.845-1.091-3.169-.922-5.1a7.336 7.336 0 0 1 1.346-3.567 1.481 1.481 0 0 1 1.876-.467c.379.2.816.407.82.409a.191.191 0 0 1-.166.343s-.446-.215-.829-.415a1.1 1.1 0 0 0-1.39.349 6.954 6.954 0 0 0-1.277 3.38c-.148 1.689-.229 4.02.769 4.761a1.927 1.927 0 0 0 1.9-.009.191.191 0 1 1 .142.354 3.4 3.4 0 0 1-1.248.278"/>
        <path data-name="패스 6589" d="M3.687 26.396a1.284 1.284 0 0 1-.178-.012c-.508-.07-1.465-.512-2.165-2.683-1.028-3.195.73-4.058.8-4.093a.191.191 0 0 1 .162.345c-.064.031-1.523.776-.6 3.631.658 2.046 1.518 2.377 1.858 2.422a.749.749 0 0 0 .728-.275.191.191 0 0 1 .318.211 1.11 1.11 0 0 1-.92.454"/>
        <path data-name="패스 6590" d="M9.224 30.22a7.147 7.147 0 0 1-2.633-.645 3.734 3.734 0 0 1-2.409-3c-.092-1.484 1.084-1.6 1.1-1.606a.188.188 0 0 1 .207.173.191.191 0 0 1-.172.207c-.085.009-.817.116-.75 1.2a3.366 3.366 0 0 0 2.187 2.677c.833.38 2.447.845 3.236.472a.691.691 0 0 0 .4-.467.191.191 0 0 1 .369.1 1.065 1.065 0 0 1-.6.714 2.181 2.181 0 0 1-.925.175"/>
        <path data-name="패스 6591" d="M14.978 31.8a7.89 7.89 0 0 1-3.7-.708 1.753 1.753 0 0 1-.874-1.122 2.818 2.818 0 0 1 .415-1.927.191.191 0 0 1 .32.208 2.471 2.471 0 0 0-.363 1.634 1.388 1.388 0 0 0 .7.879c1.553.915 4.874.65 5.627.5a1.449 1.449 0 0 0 1.065-1.734.191.191 0 0 1 .378-.051 1.817 1.817 0 0 1-1.367 2.159 12.943 12.943 0 0 1-2.2.167"/>
        <path data-name="패스 6592" d="M20.252 30.794a8.167 8.167 0 0 1-1.237-.1c-.685-.105-1.07-1.857-1.171-2.391a.191.191 0 0 1 .375-.071c.185.972.572 2.042.854 2.086a6.11 6.11 0 0 0 4.77-1.054 4.134 4.134 0 0 0 1.658-2.537 2.108 2.108 0 0 0-.612-1.6.191.191 0 0 1 .283-.256 2.472 2.472 0 0 1 .71 1.89 4.492 4.492 0 0 1-1.8 2.8 6.057 6.057 0 0 1-3.831 1.23"/>
        <path data-name="패스 6593" d="M26.292 25.878a2.052 2.052 0 0 1-1.016-.252.191.191 0 0 1 .206-.321c.05.032 1.22.738 2.625-.708 1.547-1.592 1.914-3.8 1.061-6.373a2.523 2.523 0 0 0-1.219-1.622 1.7 1.7 0 0 0-1.245-.04.191.191 0 0 1-.149-.351 2.054 2.054 0 0 1 1.546.041 2.871 2.871 0 0 1 1.429 1.852c.9 2.721.5 5.058-1.149 6.759a2.9 2.9 0 0 1-2.089 1.016"/>
        <path data-name="패스 6594" d="M28.203 16.711a.191.191 0 0 1-.175-.265c.016-.038 1.606-3.866-.581-5.845a.191.191 0 1 1 .256-.283c2.389 2.161.747 6.109.676 6.276a.191.191 0 0 1-.176.116"/>
        <path data-name="패스 6595" d="M26.991 10.812a1.276 1.276 0 0 1-.426-.073.191.191 0 1 1 .126-.36.937.937 0 0 0 .78-.08 1.115 1.115 0 0 0 .54-.73c.3-1.444-1.1-3.538-2.468-4.24a1.9 1.9 0 0 0-1.449-.169 1.106 1.106 0 0 0-.66.622.191.191 0 0 1-.348-.155 1.492 1.492 0 0 1 .882-.827 2.279 2.279 0 0 1 1.75.189c1.489.766 3.01 3.014 2.667 4.657a1.5 1.5 0 0 1-.726.984 1.358 1.358 0 0 1-.668.18"/>
        <path data-name="패스 6596" d="M22.472 7.128a.191.191 0 0 1-.105-.35 2.277 2.277 0 0 0 .721-2.428c-.314-1.589-2.481-2.449-3.4-2.746-.024-.008-2.5-.753-3.676.077a1.435 1.435 0 0 0-.589 1.219.188.188 0 0 1-.2.185.19.19 0 0 1-.185-.2 1.815 1.815 0 0 1 .75-1.519c1.348-.95 3.987-.137 4.013-.128 1.219.394 3.314 1.312 3.655 3.035a2.639 2.639 0 0 1-.886 2.82.19.19 0 0 1-.1.031"/>
        <path data-name="패스 6597" d="M17.396 17.042a.467.467 0 0 0-.467.467v.467a.468.468 0 0 0 .935 0v-.467a.467.467 0 0 0-.467-.467"/>
        <path data-name="패스 6598" d="M17.399 18.659a.683.683 0 0 1-.682-.682v-.465a.682.682 0 0 1 1.364 0v.467a.683.683 0 0 1-.682.682m0-1.4a.253.253 0 0 0-.253.252v.467a.252.252 0 0 0 .5 0v-.468a.253.253 0 0 0-.252-.252"/>
        <path data-name="패스 6599" d="M12.262 17.042a.467.467 0 0 0-.467.467v.467a.467.467 0 0 0 .934 0v-.467a.467.467 0 0 0-.467-.467"/>
        <path data-name="패스 6600" d="M12.262 18.659a.683.683 0 0 1-.682-.682v-.465a.682.682 0 0 1 1.364 0v.467a.683.683 0 0 1-.682.682m0-1.4a.253.253 0 0 0-.252.252v.467a.252.252 0 0 0 .5 0v-.468a.253.253 0 0 0-.253-.252"/>
        <path data-name="패스 6602" d="M79.145 126.964a2.94 2.94 0 0 1-2.941-2.94v-.045h5.882v.045a2.94 2.94 0 0 1-2.941 2.94" transform="translate(-64.316 -104.647)" style="fill:#ed8062"/>
        <path data-name="패스 6603" d="M14.829 22.508a3.135 3.135 0 0 1-3.132-3.131v-.045a.191.191 0 0 1 .191-.191h5.882a.191.191 0 0 1 .191.191v.045a3.135 3.135 0 0 1-3.132 3.131m-2.746-2.985a2.751 2.751 0 0 0 5.493 0z"/>
        <path data-name="패스 6607" d="M102.832 150.281s-.29 1.51.117 1.919c.565.568 1.719 1.133 4.226 1.04l-1.576-.469-1.1-.571-.861-.693-.651-.683z" transform="translate(-86.705 -126.847)" style="fill:#e6e6c1"/>
        <path data-name="패스 6608" d="M110.494 127.567a22.906 22.906 0 0 0-2.837-2.216c-1.164-.665-1.884-.988-3.317-.3-.948.453-2.834 3.043-1.239 4.547a8.434 8.434 0 0 0 4.1 2.059" transform="translate(-86.495 -105.227)" style="fill:#ffffe6"/>
        <path data-name="패스 6609" d="M104.426 141.285a9.665 9.665 0 0 0 3.524 2.526l-2.742-.932-1.356-1.127-.479-.934.151-1.748a4.467 4.467 0 0 0 .9 2.215" transform="translate(-87.246 -117.385)" style="fill:#e6e6c1"/>
        <path data-name="패스 6610" d="M20.705 26.617a.2.2 0 0 1-.05-.007 8.594 8.594 0 0 1-4.18-2.1 2.167 2.167 0 0 1-.644-2 4.371 4.371 0 0 1 1.932-2.86 3.14 3.14 0 0 1 3.494.31 23.281 23.281 0 0 1 2.868 2.238.191.191 0 0 1-.252.286 22.979 22.979 0 0 0-2.805-2.193c-1.126-.643-1.777-.948-3.141-.3a4.062 4.062 0 0 0-1.719 2.575 1.779 1.779 0 0 0 .529 1.662 8.275 8.275 0 0 0 4.017 2.014.191.191 0 0 1-.049.375"/>
    </g>
    <path data-name="logo_bg" d="M24.847 61.923a35.433 35.433 0 0 0-1.426-4.139c-2.319-.495-4.5-1.029-6.534-1.6a59.191 59.191 0 0 1-9.04-3.254C2.842 50.571 0 47.87 0 45c0-5.143 9.124-9.739 23.453-12.79C28.763 13.589 45.348 0 65 0s36.239 13.589 41.547 32.209C120.875 35.26 130 39.857 130 45a4.9 4.9 0 0 1-.749 2.533 12.453 12.453 0 0 1-4.36 3.942c-.411.25-.844.494-1.3.737-.653.347-1.366.684-2.106 1.016a56.206 56.206 0 0 1-6.328 2.353 89.922 89.922 0 0 1-6.452 1.732c-.7.163-1.426.322-2.158.479l-.642.136c-.217.987-.471 2.29-.751 4C98.713 78.386 83.168 90 65 90S31.288 78.386 24.847 61.923z" transform="translate(-.001)" style="fill:#1e90ff"/>
    <g data-name="그룹 412" style="clip-path:url(#5xqty2ub5b)" transform="translate(17.062 20)">
        <path data-name="패스 3442" d="M91.478 18.021c.056-.052.108-.1.159-.161.077-.068.151-.136.221-.211s.151-.136.221-.211.15-.136.219-.211.151-.136.22-.211.151-.136.221-.211a3.181 3.181 0 0 0 1.082-2.361V14.4a3.191 3.191 0 0 0-.936-2.27c.052-.051.1-.1.152-.156a3.074 3.074 0 0 0 .454-.681 2.773 2.773 0 0 0 .288-1.071l.007-.106c.008-.112.016-.223.017-.334.024-1.974.022-4.828 0-6.639A3.116 3.116 0 0 0 90.745.064C89.069.025 85.113.011 81.97.011c-3.951 0-7.3.019-8.732.051a3.256 3.256 0 0 0-2.747 1.608A3.1 3.1 0 0 0 67.77 0H67.086a3.1 3.1 0 0 0-2.92 2.142c-.039.089-.06.185-.09.277l-.09.276-.091.276c-.031.092-.06.184-.09.277a2.883 2.883 0 0 0-.091.277c-.038.087-.059.182-.089.274l-.091.278c-.015.034-.022.071-.035.106A8.238 8.238 0 0 0 56.227.468a8.189 8.189 0 0 0-8.222 5.685c-.009-1.185-.021-2.24-.036-3.068a3.114 3.114 0 0 0-3.1-3.067h-.631a3.12 3.12 0 0 0-2.273 1.034A3.108 3.108 0 0 0 39.79.141h-.56a3.089 3.089 0 0 0-3.081 3.067c-.011.966-.023 2.086-.034 3.484-.011-.046-.03-.086-.042-.131-.017-.093-.038-.182-.062-.271s-.039-.185-.064-.276-.038-.181-.062-.269-.038-.184-.063-.274-.038-.182-.062-.273-.038-.182-.063-.271-.039-.184-.064-.275-.038-.182-.062-.271-.039-.184-.063-.274-.038-.181-.062-.27-.039-.184-.063-.275-.039-.182-.063-.271-.039-.183-.063-.273A3.153 3.153 0 0 0 32.174.406C31.3.4 30.28.391 29.261.391c-.987 0-1.975 0-2.837.014a3.3 3.3 0 0 0-2.934 1.9c-.011-.024-.026-.046-.038-.069a2.828 2.828 0 0 0-.122-.279 2.905 2.905 0 0 0-2.719-1.9h-.1c-1.3-.014-4.642-.023-8.552-.023-3.046 0-6.821.006-8.288.023h-.083a2.9 2.9 0 0 0-2.01 4.907A3.027 3.027 0 0 0 .77 6.978a2.879 2.879 0 0 0 .519 1.646A2.806 2.806 0 0 0 0 10.968V11a2.791 2.791 0 0 0 .928 2.056c.048.055.091.114.143.166a2.646 2.646 0 0 0-.479 1.514v.035a2.69 2.69 0 0 0 .848 1.963 3.1 3.1 0 0 0-.748 1.956c-.023.922-.023 1.7 0 2.619a3.083 3.083 0 0 0 1.339 2.474c.072.059.138.124.216.177s.138.124.215.177.138.124.215.177a2.786 2.786 0 0 0 .216.178c.072.059.138.124.215.177s.139.125.217.178.137.124.213.176.139.125.217.178.139.125.217.178.137.124.214.176.139.124.216.177.139.125.216.178.137.124.214.176.139.125.217.178.137.124.214.176.138.124.214.177.14.125.217.178.138.124.214.176a2.779 2.779 0 0 0 .216.177c.072.06.139.125.217.178a2.752 2.752 0 0 0 .215.176 2.76 2.76 0 0 0 .215.177 2.788 2.788 0 0 0 .216.177 2.666 2.666 0 0 0 .216.177c.071.059.138.124.216.177a2.631 2.631 0 0 0 .214.176 2.779 2.779 0 0 0 .216.178 2.574 2.574 0 0 0 .217.178 2.7 2.7 0 0 0 .212.176c.073.061.14.126.218.179a2.631 2.631 0 0 0 .214.176 2.667 2.667 0 0 0 .217.178 2.761 2.761 0 0 0 .215.177 2.77 2.77 0 0 0 .216.177 2.76 2.76 0 0 0 .215.177 2.761 2.761 0 0 0 .215.177 2.575 2.575 0 0 0 .218.178 2.735 2.735 0 0 0 .214.176 2.8 2.8 0 0 0 .217.178 2.716 2.716 0 0 0 .213.176 2.628 2.628 0 0 0 1.654.638c1.06.022 3.617.035 6.675.035 3.339 0 6.18-.016 7.238-.041a2.4 2.4 0 0 0 2.217-1.627 3.018 3.018 0 0 0 2.235 1.046c.746.013 1.881.021 3.112.021 1.341 0 2.555-.008 3.33-.023a2.877 2.877 0 0 0 1.649-.566 2.711 2.711 0 0 0 1.981.9H41.2a2.717 2.717 0 0 0 1.6-.549 2.721 2.721 0 0 0 1.932.846h.544a2.737 2.737 0 0 0 2.725-2.7c.009-.461.016-1.015.022-1.626a6.681 6.681 0 0 0 6.335 3.7 6.868 6.868 0 0 0 5.514-2.4 7.075 7.075 0 0 0 .438-.6c0 .342.009.666.014.944a2.731 2.731 0 0 0 2.684 2.7H63.59a2.731 2.731 0 0 0 2.142-1.07 2.458 2.458 0 0 0 .416.437 3.1 3.1 0 0 0 1.876.6c1.023.013 3.06.021 5.588.021 3.474 0 6.888-.014 8.3-.033a2.775 2.775 0 0 0 1.74-.659c.078-.053.147-.118.219-.178s.147-.117.219-.177.146-.117.218-.177a2.8 2.8 0 0 0 .217-.177c.079-.053.147-.118.221-.178l.218-.177c.072-.059.146-.117.218-.177s.146-.118.219-.177.147-.118.219-.178.146-.117.217-.176.147-.118.22-.178l.219-.177.218-.176.22-.178.217-.176.219-.177.22-.178.218-.177.218-.177.219-.178c.073-.06.147-.117.219-.177s.146-.117.218-.177l.217-.177c.072-.059.148-.118.221-.179s.145-.117.217-.176a2.72 2.72 0 0 0 .219-.178c.078-.052.146-.117.218-.177s.146-.118.219-.177l.219-.178.217-.176.219-.178.219-.177.217-.177.22-.178.217-.176.219-.177.219-.177.219-.178.217-.176.221-.178a3.2 3.2 0 0 0 1.411-2.644v-.044a3.2 3.2 0 0 0-2.343-3.063" transform="translate(1.25 12.5)" style="fill:#1e90ff"/>
        <path data-name="패스 3443" d="M133.383 29.436h-1.631c-3.687 0-12.264.008-12.9.017h-.068c-.157 0-.4-.016-.407-.181a1.655 1.655 0 0 0-.181-.935 1.767 1.767 0 0 0-.769-.621 2.972 2.972 0 0 0-1.226-.251 2.289 2.289 0 0 0-1.93.841 2.1 2.1 0 0 0-.238 1.265c0 .527-.008 1.066 0 1.593a3.08 3.08 0 0 0 .128 1.024 1.816 1.816 0 0 0 .55.794 2.31 2.31 0 0 0 1.381.406c1.384.018 4.067.026 6.956.026 4.048 0 8.5-.016 10.366-.041a1.941 1.941 0 0 0 1.914-1.944v-.045a1.958 1.958 0 0 0-1.949-1.948" transform="translate(-41.512 2.201)" style="fill:#fff"/>
        <path data-name="패스 3444" d="M124.543 22.947c3.553 0 7.134-.006 8.855-.017a1.946 1.946 0 0 0 1.934-1.939v-.042a1.948 1.948 0 0 0-1.932-1.959c-1.184-.011-5.5-.022-6.457-.024a.357.357 0 0 1-.359-.246c0-.006-.005-.007-.008-.012-.2-.949-1.452-1.231-2.032-1.231h-.569c-.49 0-1.826.276-2.031 1.221 0 .009-.01.011-.013.022a.369.369 0 0 1-.37.246h-.009c-.872.007-5.426.011-5.595.013a1.952 1.952 0 0 0-1.931 1.955v.04a1.955 1.955 0 0 0 1.943 1.956c1.662.011 5.1.016 8.568.016" transform="translate(-41.512 5.946)" style="fill:#fff"/>
        <path data-name="패스 3445" d="M130.806 10.872a.334.334 0 0 1 .324.218 1.854 1.854 0 0 0 1.817 1.448h.509a1.879 1.879 0 0 0 1.4-.632 1.835 1.835 0 0 0 .27-.406 1.509 1.509 0 0 0 .163-.6c.008-.127.021-.254.023-.381.024-1.964.023-4.778 0-6.606a1.874 1.874 0 0 0-1.833-1.848c-1.507-.034-5.129-.052-8.752-.052-3.579 0-7.159.017-8.7.051a2.042 2.042 0 0 0-1.994 2.054v.049a2.025 2.025 0 0 0 2 2.027h.909c3.112 0 12.8-.023 13.753-.023h.069a.39.39 0 0 1 0 .781h-14.842a1.907 1.907 0 0 0-1.891 1.916v.047a1.922 1.922 0 0 0 1.9 1.924l14.743.022h.038a.864.864 0 0 1 .089 0" transform="translate(-41.512 11.743)" style="fill:#fff"/>
        <path data-name="패스 3446" d="M60.693 2.224h-.534a1.857 1.857 0 0 0-1.844 1.832c-.014 1.188-.028 2.6-.042 4.485a.327.327 0 0 1-.325.324h-.353a1.82 1.82 0 0 0-1.817 1.808v.375a1.82 1.82 0 0 0 1.8 1.806h.368a.326.326 0 0 1 .324.324c0 3.331.013 6.6.036 8.541a1.861 1.861 0 0 0 1.831 1.841h.544a1.867 1.867 0 0 0 1.856-1.844c.049-4.059.049-13.616 0-17.666a1.857 1.857 0 0 0-1.844-1.833" transform="translate(-19.666 11.666)" style="fill:#fff"/>
        <path data-name="패스 3447" d="M70.279 2.028h-.603a1.875 1.875 0 0 0-1.861 1.856c-.037 4.143-.037 14 0 18.127a1.867 1.867 0 0 0 1.829 1.855h.629a1.875 1.875 0 0 0 1.86-1.841c.075-4.118.075-14.019 0-18.159a1.876 1.876 0 0 0-1.861-1.84" transform="translate(-24.17 11.74)" style="fill:#fff"/>
        <path data-name="패스 3448" d="M49.257 19.105c-.417 0-1.056-.007-1.733-.007-1.049 0-2.189 0-2.745.016h-.022A1.156 1.156 0 0 1 43.6 17.97a75.356 75.356 0 0 1 0-1.779 1.156 1.156 0 0 1 1.156-1.144h.022c.373.007.8.011 1.226.011h.8a1.928 1.928 0 0 0 1.908-1.893c.042-2.364.042-6.259 0-8.628a1.924 1.924 0 0 0-1.9-1.892 288.46 288.46 0 0 0-2.9-.014c-.983 0-1.968 0-2.826.013a2.058 2.058 0 0 0-2.031 2.067v.046A2.047 2.047 0 0 0 41.077 6.8h.708c.547 0 1.05 0 1.572-.013h.017a.961.961 0 0 1 .961.948c.011.686.011 1.548 0 2.246a.963.963 0 0 1-.962.95h-.025a68.245 68.245 0 0 0-1.623-.019h-.4a2.255 2.255 0 0 0-2.249 2.216c-.036 2.272-.036 5.7 0 7.966a2.245 2.245 0 0 0 2.207 2.211c.969.016 2.412.025 3.864.025 1.557 0 3.126-.01 4.132-.029a2.074 2.074 0 0 0 2.021-2.073v-.048a2.071 2.071 0 0 0-2.048-2.075" transform="translate(-13.391 11.515)" style="fill:#fff"/>
        <path data-name="패스 3449" d="M106.87 2h-.654a1.87 1.87 0 0 0-1.854 1.834c-.073 4.1-.073 14.121 0 18.2a1.864 1.864 0 0 0 1.824 1.834h.685a1.868 1.868 0 0 0 1.853-1.83c.086-4.075.086-14.116 0-18.213A1.871 1.871 0 0 0 106.87 2" transform="translate(-37.865 11.75)" style="fill:#fff"/>
        <path data-name="패스 3450" d="M85.251 2.749c-4.692 0-7.854 3.06-7.854 10.3 0 6.988 2.957 10.3 7.854 10.3 4.693 0 7.856-3.061 7.856-10.3 0-6.962-2.934-10.3-7.856-10.3m4.058 11.338-6.272 3.679a1.01 1.01 0 0 1-1.522-.869V9.539a1.01 1.01 0 0 1 1.522-.869l6.272 3.679a1.007 1.007 0 0 1 0 1.737" transform="translate(-27.774 11.469)" style="fill:#fff"/>
        <path data-name="패스 3451" d="M22.178 15.028c-1.521-.017-5.5-.025-9.448-.025-3.851 0-7.666.007-9.129.024A1.593 1.593 0 0 0 2 16.594v.032a1.6 1.6 0 0 0 1.6 1.567c1.462.017 5.279.024 9.129.024 3.945 0 7.926-.007 9.448-.025a1.592 1.592 0 0 0 1.6-1.575v-.032a1.594 1.594 0 0 0-1.6-1.558" transform="translate(.5 6.874)" style="fill:#fff"/>
        <path data-name="패스 3452" d="M13.455 21.295c-3.853 0-7.788.009-9.167.029a1.388 1.388 0 0 0-1.343 1.4v.036a1.4 1.4 0 0 0 1.368 1.423c1.087.006 3.384.009 5.857.009 3.595 0 7.563-.007 8.737-.02a.383.383 0 0 1 0 .766c-1.537 0-8.381-.011-12.18-.011H4.82a1.8 1.8 0 0 0-1.776 1.782c-.023.9-.023 1.666 0 2.554a1.8 1.8 0 0 0 1.743 1.778c1.422.029 4.841.043 8.317.043 3.751 0 7.567-.017 9.006-.051a1.505 1.505 0 0 0-.02-3.008c-1.126-.006-3.5-.009-6.011-.009-3.63 0-7.556.006-8.455.019a.375.375 0 0 1 0-.748c1.211 0 7.631.017 11.588.017h2.535a1.817 1.817 0 0 0 1.779-1.8c.019-.758.019-1.63 0-2.411a1.8 1.8 0 0 0-1.761-1.773c-1.379-.016-4.809-.024-8.307-.024" transform="translate(.145 4.514)" style="fill:#fff"/>
        <path data-name="패스 3453" d="M4.89 9.4c1.4.015 4.83.022 8.294.022 3.566 0 7.167-.007 8.624-.023H21.837a1.655 1.655 0 0 0 1.638-1.611v-.046a1.66 1.66 0 0 0-1.659-1.659h-.44a.351.351 0 1 1 0-.7H21.821a1.646 1.646 0 0 0 .572-.108c.017-.006.036-.009.053-.016.033-.013.063-.032.1-.046a1.655 1.655 0 0 0 .939-1.486 1.659 1.659 0 0 0-1.659-1.659h-.018c-1.382-.016-5.023-.024-8.625-.024-3.5 0-6.962.007-8.281.022a1.656 1.656 0 0 0-.422 3.258c.035.009.068.022.1.029s.066.006.1.01a1.683 1.683 0 0 0 .219.022h.433a.351.351 0 1 1 0 .7H4.89a1.654 1.654 0 0 0-1.633 1.4 1.591 1.591 0 0 0-.026.257A1.658 1.658 0 0 0 4.889 9.4m4.339-4.02h8.253a.351.351 0 1 1 0 .7H9.229a.351.351 0 1 1 0-.7" transform="translate(.038 11.734)" style="fill:#fff"/>
        <path data-name="패스 3454" d="M85.566 13.054a.385.385 0 0 0-.581.329v.7l6.246 3.664.606-.356a.381.381 0 0 0 0-.659z" transform="translate(-30.619 7.625)" style="fill:#fff"/>
    </g>
</svg>
