<svg xmlns="http://www.w3.org/2000/svg" width="130" height="90" viewBox="0 0 130 90">
    <defs>
        <clipPath id="r2zc935f8a">
            <path data-name="사각형 2985" style="fill:none" d="M0 0h30v31.8H0z"/>
        </clipPath>
        <clipPath id="tstjluessb">
            <path data-name="사각형 1986" style="fill:none" d="M0 0h118.75v50H0z"/>
        </clipPath>
    </defs>
    <g data-name="그룹 2256" style="clip-path:url(#r2zc935f8a)" transform="translate(50 29)">
        <path data-name="패스 6572" d="m9.853 1.694-1.468.683-1.7 1.245-1.5 1.639-.874 1.419-.549 1.5-.09 1.47.318 1.307.659.959-.564-.16-.547-.058-.385.106-.366.247-.373.4-.691 1.477-.277 1.161-.223 1.535.06 2 .256 1.522.342.71.546.332.68.126-.526.7-.324.793.093 1.159.379 1.682.879 1.14.726.57h.581l.568-.135-.094.643.387.911.453.715 1.305.96 1.19.436 1.456.2.9-.162.408-.308.158.659.338.433.58.423 1.127.382 1.238.217H16.8s1.472-.185 1.49-.19.733-.477.733-.477l.427-1.123.519.576.743.14.79-.01 1.694-.213 1.746-.789.9-.931.65-.923.228-.774L26.6 27l-.014-.287.648.223.752-.224.617-.3.777-.736.843-1.128.672-2.162-.13-1.467-.2-1.116-.371-.99-.383-.645-.576-.522.178-.646.243-.782.205-1.469-.061-1.137-.372-.956-.474-.712-.2-.175-.024-.259.381-.437.169-1.054-.2-.94-.53-1.106-.821-.831-.833-.722-.772-.364-.965.024-.694.465-.085-.421-.18-.979-.709-1.1-1-.746-1.711-.75-1.455-.285-1.216-.037-1.051.346-.555.641-.281.483-.582-.787-1.054-.964-1.894-.585-1.566.015z" transform="translate(-1.031 -1.15)" style="fill:#ffffe1"/>
        <path data-name="패스 6573" d="M64.254 58.192s-1.172 5.535.893 6.507a10.722 10.722 0 0 0 4.882.67 2.563 2.563 0 0 0 2.232-1.8 4.978 4.978 0 0 0 .022-2.956z" transform="translate(-53.951 -49.118)" style="fill:#e6e6c1"/>
        <path data-name="패스 6574" d="M75.306 184.74a6.308 6.308 0 0 1-3.517 1.15 7.955 7.955 0 0 1-3.873-1.238l-.171.493.22 1.1 1.006.567 1.827.484 2.814.108 1.595-.416.317-.957z" transform="translate(-57.177 -155.859)" style="fill:#e1e1b9"/>
        <path data-name="패스 6575" d="M28.344 162.91a4.012 4.012 0 0 0 .719 1.72 4.263 4.263 0 0 0 3.895 1.627 4.167 4.167 0 0 0 1.682-.6l-.651 1.73-.8.213-2.638-.453-1.7-1.273a2.882 2.882 0 0 1-.821-1.8l.316-1.165" transform="translate(-23.655 -137.507)" style="fill:#e1e1b9"/>
        <path data-name="패스 6576" d="M16.932 162.039a2.922 2.922 0 0 1-2.425-.161l.825.8.486.108.605-.072z" transform="translate(-12.244 -136.636)" style="fill:#e1e1b9"/>
        <path data-name="패스 6577" d="M10.568 126.107s-1.694 1.517-1.787 2.238v-1.015l.468-.664.236-.433z" transform="translate(-7.411 -106.443)" style="fill:#e1e1b9"/>
        <path data-name="패스 6578" d="M11.5 69.33a10.764 10.764 0 0 1-5.1.167l.756-1.222.951-.325z" transform="translate(-5.402 -57.354)" style="fill:#e6e6c1"/>
        <path data-name="패스 6579" d="M123.469 160.313a4.306 4.306 0 0 1-.556 2.314 5.141 5.141 0 0 1-4.8 2.126 1.859 1.859 0 0 1-.812-.215 1.839 1.839 0 0 1-.645-.6 1.991 1.991 0 0 0 .21 1.191 1.964 1.964 0 0 0 .621.693l1.432.014 1.294-.163 1.438-.684 1.611-1.087.878-1.469-.124-1.25-.543-.873" transform="translate(-98.439 -135.315)" style="fill:#e1e1b9"/>
        <path data-name="패스 6580" d="M166.307 126.781a6.131 6.131 0 0 1-4.494 5.229l.315.586h1.026l1.289-.515.924-.79 1.06-2.469-.119-2.041" transform="translate(-136.569 -107.012)" style="fill:#e1e1b9"/>
        <path data-name="패스 6581" d="M173.662 94.654a2.756 2.756 0 0 1-1.767 1.51s.756-.043.759-.059.611.154.611.154z" transform="translate(-145.078 -79.894)" style="fill:#e1e1b9"/>
        <path data-name="패스 6582" d="M172.923 71.5a8.837 8.837 0 0 0-2.146-3.171l1.077-.082.677.887.392 2.366" transform="translate(-144.135 -57.605)" style="fill:#e1e1b9"/>
        <path data-name="패스 6583" d="M149.915 33.394a3.789 3.789 0 0 0-3.049-.8 3.558 3.558 0 0 0-1.843 1.045l.806-1.649.916-.508.744.02 2.427 1.893" transform="translate(-122.399 -26.572)" style="fill:#e6e6c1"/>
        <path data-name="패스 6584" d="M102.5 7.483a3.991 3.991 0 0 0-3.366.9A3.758 3.758 0 0 0 98 10.621l-.63-2.192.839-1.129 1.214-.365 3.078.543" transform="translate(-82.183 -5.858)" style="fill:#e6e6c1"/>
        <path data-name="패스 6585" d="M73.613 40.883A8.678 8.678 0 0 0 69 39.457c-1.234-.035-3.161-.076-3.863 1.177a9.308 9.308 0 0 0-.074 6.456c.945 2.135 6.023 1.757 6.749 1.153s1-1.238.856-3.372" transform="translate(-54.453 -33.294)" style="fill:#ffffe6"/>
        <path data-name="패스 6586" d="M14.737 15.614a9.028 9.028 0 0 1-2.021-.216 3.081 3.081 0 0 1-2.281-1.525 9.465 9.465 0 0 1 .082-6.627c.765-1.366 2.811-1.309 4.034-1.274a8.881 8.881 0 0 1 4.717 1.459.191.191 0 1 1-.213.316 8.5 8.5 0 0 0-4.515-1.394c-1.136-.031-3.038-.085-3.691 1.08a9.144 9.144 0 0 0-.066 6.286 2.83 2.83 0 0 0 2.019 1.308 7.787 7.787 0 0 0 4.433-.224c.668-.556.925-1.125.787-3.213a.191.191 0 0 1 .178-.2.187.187 0 0 1 .2.178c.147 2.241-.166 2.9-.924 3.531a5.516 5.516 0 0 1-2.743.518"/>
        <path data-name="패스 6587" d="M6.286 12.139a.19.19 0 0 1-.043 0c-1.524-.35-3.61-.829-3.812-3.792a5.4 5.4 0 0 1 .555-2.618A10.6 10.6 0 0 1 8.912.336 5.782 5.782 0 0 1 13.639.7c2.218 1.24 2.2 4.181 2.2 4.306a.189.189 0 0 1-.193.188.191.191 0 0 1-.187-.194c0-.028.011-2.84-2.007-3.968A5.411 5.411 0 0 0 9.03.7a10.193 10.193 0 0 0-5.7 5.189 5.032 5.032 0 0 0-.517 2.429c.169 2.483 1.628 3.012 3.516 3.446a.191.191 0 0 1-.042.376"/>
        <path data-name="패스 6588" d="M2.033 19.98a1.668 1.668 0 0 1-1.02-.316c-1.14-.845-1.091-3.169-.922-5.1a7.336 7.336 0 0 1 1.346-3.567 1.481 1.481 0 0 1 1.876-.467c.379.2.816.407.82.409a.191.191 0 0 1-.166.343s-.446-.215-.829-.415a1.1 1.1 0 0 0-1.39.349 6.954 6.954 0 0 0-1.277 3.38c-.148 1.689-.229 4.02.769 4.761a1.927 1.927 0 0 0 1.9-.009.191.191 0 1 1 .142.354 3.4 3.4 0 0 1-1.248.278"/>
        <path data-name="패스 6589" d="M3.687 26.396a1.284 1.284 0 0 1-.178-.012c-.508-.07-1.465-.512-2.165-2.683-1.028-3.195.73-4.058.8-4.093a.191.191 0 0 1 .162.345c-.064.031-1.523.776-.6 3.631.658 2.046 1.518 2.377 1.858 2.422a.749.749 0 0 0 .728-.275.191.191 0 0 1 .318.211 1.11 1.11 0 0 1-.92.454"/>
        <path data-name="패스 6590" d="M9.224 30.22a7.147 7.147 0 0 1-2.633-.645 3.734 3.734 0 0 1-2.409-3c-.092-1.484 1.084-1.6 1.1-1.606a.188.188 0 0 1 .207.173.191.191 0 0 1-.172.207c-.085.009-.817.116-.75 1.2a3.366 3.366 0 0 0 2.187 2.677c.833.38 2.447.845 3.236.472a.691.691 0 0 0 .4-.467.191.191 0 0 1 .369.1 1.065 1.065 0 0 1-.6.714 2.181 2.181 0 0 1-.925.175"/>
        <path data-name="패스 6591" d="M14.978 31.8a7.89 7.89 0 0 1-3.7-.708 1.753 1.753 0 0 1-.874-1.122 2.818 2.818 0 0 1 .415-1.927.191.191 0 0 1 .32.208 2.471 2.471 0 0 0-.363 1.634 1.388 1.388 0 0 0 .7.879c1.553.915 4.874.65 5.627.5a1.449 1.449 0 0 0 1.065-1.734.191.191 0 0 1 .378-.051 1.817 1.817 0 0 1-1.367 2.159 12.943 12.943 0 0 1-2.2.167"/>
        <path data-name="패스 6592" d="M20.252 30.794a8.167 8.167 0 0 1-1.237-.1c-.685-.105-1.07-1.857-1.171-2.391a.191.191 0 0 1 .375-.071c.185.972.572 2.042.854 2.086a6.11 6.11 0 0 0 4.77-1.054 4.134 4.134 0 0 0 1.658-2.537 2.108 2.108 0 0 0-.612-1.6.191.191 0 0 1 .283-.256 2.472 2.472 0 0 1 .71 1.89 4.492 4.492 0 0 1-1.8 2.8 6.057 6.057 0 0 1-3.831 1.23"/>
        <path data-name="패스 6593" d="M26.292 25.878a2.052 2.052 0 0 1-1.016-.252.191.191 0 0 1 .206-.321c.05.032 1.22.738 2.625-.708 1.547-1.592 1.914-3.8 1.061-6.373a2.523 2.523 0 0 0-1.219-1.622 1.7 1.7 0 0 0-1.245-.04.191.191 0 0 1-.149-.351 2.054 2.054 0 0 1 1.546.041 2.871 2.871 0 0 1 1.429 1.852c.9 2.721.5 5.058-1.149 6.759a2.9 2.9 0 0 1-2.089 1.016"/>
        <path data-name="패스 6594" d="M28.203 16.711a.191.191 0 0 1-.175-.265c.016-.038 1.606-3.866-.581-5.845a.191.191 0 1 1 .256-.283c2.389 2.161.747 6.109.676 6.276a.191.191 0 0 1-.176.116"/>
        <path data-name="패스 6595" d="M26.991 10.812a1.276 1.276 0 0 1-.426-.073.191.191 0 1 1 .126-.36.937.937 0 0 0 .78-.08 1.115 1.115 0 0 0 .54-.73c.3-1.444-1.1-3.538-2.468-4.24a1.9 1.9 0 0 0-1.449-.169 1.106 1.106 0 0 0-.66.622.191.191 0 0 1-.348-.155 1.492 1.492 0 0 1 .882-.827 2.279 2.279 0 0 1 1.75.189c1.489.766 3.01 3.014 2.667 4.657a1.5 1.5 0 0 1-.726.984 1.358 1.358 0 0 1-.668.18"/>
        <path data-name="패스 6596" d="M22.472 7.128a.191.191 0 0 1-.105-.35 2.277 2.277 0 0 0 .721-2.428c-.314-1.589-2.481-2.449-3.4-2.746-.024-.008-2.5-.753-3.676.077a1.435 1.435 0 0 0-.589 1.219.188.188 0 0 1-.2.185.19.19 0 0 1-.185-.2 1.815 1.815 0 0 1 .75-1.519c1.348-.95 3.987-.137 4.013-.128 1.219.394 3.314 1.312 3.655 3.035a2.639 2.639 0 0 1-.886 2.82.19.19 0 0 1-.1.031"/>
        <path data-name="패스 6597" d="M17.396 17.042a.467.467 0 0 0-.467.467v.467a.468.468 0 0 0 .935 0v-.467a.467.467 0 0 0-.467-.467"/>
        <path data-name="패스 6598" d="M17.399 18.659a.683.683 0 0 1-.682-.682v-.465a.682.682 0 0 1 1.364 0v.467a.683.683 0 0 1-.682.682m0-1.4a.253.253 0 0 0-.253.252v.467a.252.252 0 0 0 .5 0v-.468a.253.253 0 0 0-.252-.252"/>
        <path data-name="패스 6599" d="M12.262 17.042a.467.467 0 0 0-.467.467v.467a.467.467 0 0 0 .934 0v-.467a.467.467 0 0 0-.467-.467"/>
        <path data-name="패스 6600" d="M12.262 18.659a.683.683 0 0 1-.682-.682v-.465a.682.682 0 0 1 1.364 0v.467a.683.683 0 0 1-.682.682m0-1.4a.253.253 0 0 0-.252.252v.467a.252.252 0 0 0 .5 0v-.468a.253.253 0 0 0-.253-.252"/>
        <path data-name="패스 6602" d="M79.145 126.964a2.94 2.94 0 0 1-2.941-2.94v-.045h5.882v.045a2.94 2.94 0 0 1-2.941 2.94" transform="translate(-64.316 -104.647)" style="fill:#ed8062"/>
        <path data-name="패스 6603" d="M14.829 22.508a3.135 3.135 0 0 1-3.132-3.131v-.045a.191.191 0 0 1 .191-.191h5.882a.191.191 0 0 1 .191.191v.045a3.135 3.135 0 0 1-3.132 3.131m-2.746-2.985a2.751 2.751 0 0 0 5.493 0z"/>
        <path data-name="패스 6607" d="M102.832 150.281s-.29 1.51.117 1.919c.565.568 1.719 1.133 4.226 1.04l-1.576-.469-1.1-.571-.861-.693-.651-.683z" transform="translate(-86.705 -126.847)" style="fill:#e6e6c1"/>
        <path data-name="패스 6608" d="M110.494 127.567a22.906 22.906 0 0 0-2.837-2.216c-1.164-.665-1.884-.988-3.317-.3-.948.453-2.834 3.043-1.239 4.547a8.434 8.434 0 0 0 4.1 2.059" transform="translate(-86.495 -105.227)" style="fill:#ffffe6"/>
        <path data-name="패스 6609" d="M104.426 141.285a9.665 9.665 0 0 0 3.524 2.526l-2.742-.932-1.356-1.127-.479-.934.151-1.748a4.467 4.467 0 0 0 .9 2.215" transform="translate(-87.246 -117.385)" style="fill:#e6e6c1"/>
        <path data-name="패스 6610" d="M20.705 26.617a.2.2 0 0 1-.05-.007 8.594 8.594 0 0 1-4.18-2.1 2.167 2.167 0 0 1-.644-2 4.371 4.371 0 0 1 1.932-2.86 3.14 3.14 0 0 1 3.494.31 23.281 23.281 0 0 1 2.868 2.238.191.191 0 0 1-.252.286 22.979 22.979 0 0 0-2.805-2.193c-1.126-.643-1.777-.948-3.141-.3a4.062 4.062 0 0 0-1.719 2.575 1.779 1.779 0 0 0 .529 1.662 8.275 8.275 0 0 0 4.017 2.014.191.191 0 0 1-.049.375"/>
    </g>
    <path data-name="logo_bg" d="M24.847 61.923a35.433 35.433 0 0 0-1.426-4.139c-2.319-.495-4.5-1.029-6.534-1.6a59.191 59.191 0 0 1-9.04-3.254C2.842 50.571 0 47.87 0 45c0-5.143 9.124-9.739 23.453-12.79C28.763 13.589 45.348 0 65 0s36.239 13.589 41.547 32.209C120.875 35.26 130 39.857 130 45a4.9 4.9 0 0 1-.749 2.533 12.453 12.453 0 0 1-4.36 3.942c-.411.25-.844.494-1.3.737-.653.347-1.366.684-2.106 1.016a56.206 56.206 0 0 1-6.328 2.353 89.922 89.922 0 0 1-6.452 1.732c-.7.163-1.426.322-2.158.479l-.642.136c-.217.987-.471 2.29-.751 4C98.713 78.386 83.168 90 65 90S31.288 78.386 24.847 61.923z" transform="translate(-.001)" style="fill:#3cb371"/>
    <g data-name="그룹 416" style="clip-path:url(#tstjluessb)" transform="translate(5.624 20)">
        <path data-name="패스 3470" d="m112.591 23.025.039-.033a3.145 3.145 0 0 0 .273-.2 2.977 2.977 0 0 0 .27-.2 3.01 3.01 0 0 0 .271-.2 2.965 2.965 0 0 0 .269-.2 3.2 3.2 0 0 0 1.506-2.686v-.041a3.194 3.194 0 0 0-.937-2.275c.052-.051.1-.1.154-.156a3.077 3.077 0 0 0 .454-.682 2.764 2.764 0 0 0 .288-1.071l.008-.108c.008-.111.016-.222.017-.332.024-1.976.022-4.833 0-6.646a3.119 3.119 0 0 0-3.056-3.081c-1.677-.039-5.639-.052-8.787-.052-3.954 0-7.3.019-8.738.051a3.258 3.258 0 0 0-2.758 1.627c-.062.086-.12.175-.174.267s-.118.172-.171.263-.12.175-.174.267-.117.172-.171.264a3.121 3.121 0 0 0-.174.265c-.062.086-.119.173-.173.264s-.118.173-.171.264a3.159 3.159 0 0 0-.174.267c-.02.028-.044.051-.064.08 0-.172-.006-.344-.009-.5a3.457 3.457 0 0 0-3.428-3.366h-.052a3.448 3.448 0 0 0-3.135 2.051 7.952 7.952 0 0 0-3.877-4.586A2.9 2.9 0 0 0 78.536.419a2.787 2.787 0 0 0-2.939 0 2.859 2.859 0 0 0-1.276 1.7c-.036.092-.059.191-.087.288-.019.05-.036.1-.053.154a8.073 8.073 0 0 0-4 5.085v.021l-.006.02-.018.077a4.35 4.35 0 0 0-.043.144l-.012.047-.047.173-.006.018-.009.032-.116.388-.009.024a7.86 7.86 0 0 0-2.456 1.039c-.006-.409-.011-.8-.019-1.171A3.467 3.467 0 0 0 64 5.07h-.059a3.434 3.434 0 0 0-2.748 1.4 3.126 3.126 0 0 0-2.114-.851C57.9 5.606 56.1 5.6 54.152 5.6s-3.758.007-4.958.02a3.255 3.255 0 0 0-2.7 1.511 3.447 3.447 0 0 0-3.127-2.059h-.087a3.41 3.41 0 0 0-2.624 1.246 3.129 3.129 0 0 0-2.158-.93c-1.087-.024-3.459-.039-6.191-.039s-5.1.015-6.186.039a3.123 3.123 0 0 0-2.649 1.6 6.432 6.432 0 0 0-.151-.228 3.431 3.431 0 0 0-2.911-1.672h-.084a3.445 3.445 0 0 0-3.42 3.376c-.012.814-.023 1.82-.031 2.938-.046-.059-.1-.112-.144-.169-.067-.093-.146-.174-.219-.261l-.221-.261-.221-.263-.221-.261-.22-.261-.221-.261-.219-.261c-.072-.087-.148-.175-.223-.263l-.219-.259-.221-.262-.219-.261c-.072-.087-.148-.174-.221-.262s-.146-.172-.219-.259l-.222-.264-.22-.26a4.723 4.723 0 0 0-8.28 1.207C3.749 12.506 1.591 19.134.167 23.6a3.5 3.5 0 0 0 1.714 4.17 3.09 3.09 0 0 0 .271.171c.089.058.174.121.268.171s.175.121.269.171.174.12.268.169.175.122.271.171a3.063 3.063 0 0 0 .269.171c.089.058.172.121.267.17s.175.121.269.171.176.122.272.172.174.119.267.169.175.121.269.171.174.121.269.17.174.121.268.171.175.121.271.171.175.121.269.171.174.121.268.169a3.11 3.11 0 0 0 .269.171c.09.058.175.121.271.171a3.049 3.049 0 0 0 .267.169c.09.059.176.122.272.172s.173.12.267.169a3.091 3.091 0 0 0 .271.171c.089.058.174.121.268.17a3.064 3.064 0 0 0 .269.171 3.062 3.062 0 0 0 .269.171c.089.058.175.121.269.171s.175.121.269.17a3.05 3.05 0 0 0 .267.169 3.012 3.012 0 0 0 .272.172 3.083 3.083 0 0 0 .268.171c.09.058.175.121.271.171a3.009 3.009 0 0 0 .267.169 3.1 3.1 0 0 0 .269.171 3.131 3.131 0 0 0 .271.171c.089.058.174.121.268.17a3.1 3.1 0 0 0 .269.171 2.924 2.924 0 0 0 .269.171 2.944 2.944 0 0 0 .271.171 2.873 2.873 0 0 0 .267.169 3.11 3.11 0 0 0 .269.171 3.035 3.035 0 0 0 4.577-1.542c.181-.527.384-1.107.6-1.706.046.037.092.074.14.108.071.06.142.12.217.174s.139.118.213.17.139.118.214.171.139.119.214.173.14.119.214.171.139.119.214.171.139.118.214.171.139.119.213.171.14.12.216.173.138.117.213.169.139.119.214.172.14.119.215.173.139.118.213.171.14.119.216.172.137.118.213.171.139.119.214.171.139.119.214.173a3.052 3.052 0 0 0 2.9.591 3.107 3.107 0 0 0 .587-.253l.006.005c.059.06.126.111.19.166l.189.166c.064.055.124.111.189.166a2.983 2.983 0 0 0 2.115.906l.007-.177h.038v.181a3.009 3.009 0 0 0 2.337-1.129c.027.026.056.048.083.073.052.057.1.113.161.166a2.663 2.663 0 0 0 1.944.882c1.071.015 3.053.023 5.583.023 3.368 0 6.851-.014 8.47-.034A2.887 2.887 0 0 0 49 34.352a2.855 2.855 0 0 0 1.9.759c1.127.011 2.485.016 3.848.016h.052c1.382 0 2.766-.006 3.916-.017a2.8 2.8 0 0 0 1.173-.274c.042.027.079.057.122.083a2.924 2.924 0 0 0 .323.218c.074.054.146.11.225.158a3.044 3.044 0 0 0 .326.221 2.961 2.961 0 0 0 1.768.611h.047a3.019 3.019 0 0 0 3.016-2.937c.02-1.087.035-2.588.04-4.251a3.475 3.475 0 0 0 1.209-1.242 4 4 0 0 0 .331.484l-.022.069c-.026.061-.04.126-.062.189s-.039.126-.062.189-.039.124-.061.186-.041.128-.062.192l-.062.188c-.021.063-.041.127-.063.189s-.039.126-.061.188-.04.127-.062.19-.04.127-.062.189-.04.125-.061.188a2.78 2.78 0 0 0-.228 1.095v.041a2.822 2.822 0 0 0 2.808 2.822h3.967c1.776 0 3.748 0 4.947-.007a3.054 3.054 0 0 0 2.875 2.033h.034a3.025 3.025 0 0 0 2.241-1.016c.054-.051.1-.11.15-.165l.152-.167c.052-.056.1-.11.149-.165l.151-.167.151-.166.151-.166.15-.166c.033-.031.062-.065.093-.1a2.4 2.4 0 0 0 .138.519A2.707 2.707 0 0 0 85.4 35.5a3.11 3.11 0 0 0 1.877.6c1.024.013 3.06.021 5.589.021 3.48 0 6.9-.014 8.316-.033a2.77 2.77 0 0 0 1.594-.536 131.5 131.5 0 0 0 .541-.329 157.9 157.9 0 0 0 .542-.33 2.841 2.841 0 0 0 .271-.165 3219.514 3219.514 0 0 0 .539-.328 2.707 2.707 0 0 0 .274-.167 2.912 2.912 0 0 0 .268-.162 2.847 2.847 0 0 0 .274-.168 2.927 2.927 0 0 0 .269-.163 2.977 2.977 0 0 0 .271-.165 2.811 2.811 0 0 0 .271-.164 134.058 134.058 0 0 1 .541-.329 3.168 3.168 0 0 0 .272-.166 3.115 3.115 0 0 0 .27-.165 2.855 2.855 0 0 0 .271-.165 2.946 2.946 0 0 0 .269-.164 3 3 0 0 0 .272-.166 2.969 2.969 0 0 0 .271-.164 3 3 0 0 0 .272-.166 3.061 3.061 0 0 0 .271-.164c.091-.053.184-.1.27-.164s.184-.1.271-.165a2.993 2.993 0 0 0 .271-.166 3.1 3.1 0 0 0 .27-.164 2.993 2.993 0 0 0 .271-.166 2.863 2.863 0 0 0 .269-.164 179.437 179.437 0 0 0 .541-.329 2.833 2.833 0 0 0 .274-.167 3.075 3.075 0 0 0 .269-.163c.093-.054.186-.1.272-.166a901.3 901.3 0 0 1 .541-.329c.092-.053.185-.1.271-.165s.184-.1.27-.164a3.12 3.12 0 0 0 .271-.164 3.665 3.665 0 0 0 1.883-2.922v-.045a3.211 3.211 0 0 0-2.629-3.138" transform="translate(2.188 7.5)" style="fill:#3cb371"/>
        <path data-name="패스 3471" d="M167.609 37.559c-.758 0-13.758 0-14.544.016-.143 0-.462.011-.476-.18a1.656 1.656 0 0 0-.181-.936 1.766 1.766 0 0 0-.77-.622 2.979 2.979 0 0 0-1.227-.251 2.291 2.291 0 0 0-1.932.842 2.1 2.1 0 0 0-.238 1.266c0 .527-.009 1.067 0 1.594a3.089 3.089 0 0 0 .129 1.025 1.809 1.809 0 0 0 .55.8 2.312 2.312 0 0 0 1.383.407c3.327.043 14.142.029 17.339-.015a1.943 1.943 0 0 0 1.916-1.946v-.046a1.96 1.96 0 0 0-1.951-1.949" transform="translate(-53.402 -5.845)" style="fill:#fcfcfc"/>
        <path data-name="패스 3472" d="M167.629 27.1c-1.184-.01-5.5-.021-6.463-.024a.358.358 0 0 1-.362-.245c0-.006 0-.007-.007-.012-.2-.95-1.454-1.231-2.034-1.231h-.57c-.491 0-1.828.276-2.033 1.222 0 .008-.01.011-.013.022-.071.261-.379.246-.379.246-.873.008-5.431.011-5.6.013a1.954 1.954 0 0 0-1.933 1.957v.041a1.957 1.957 0 0 0 1.945 1.957c3.369.021 14.037.021 17.441 0a1.949 1.949 0 0 0 1.936-1.942v-.041a1.951 1.951 0 0 0-1.931-1.962" transform="translate(-53.402 -2.096)" style="fill:#fcfcfc"/>
        <path data-name="패스 3473" d="M150.142 18.951a1.924 1.924 0 0 1-1.9-1.926v-.047a1.91 1.91 0 0 1 1.893-1.918c.926-.007 13.768 0 14.858 0a.391.391 0 0 0 0-.782c-.371 0-13.84.03-14.746.021a2.026 2.026 0 0 1-2.005-2.029v-.049a2.045 2.045 0 0 1 2-2.057c3.1-.068 14.47-.068 17.469 0a1.875 1.875 0 0 1 1.835 1.849c.027 1.83.028 4.646.005 6.613 0 .128-.016.255-.023.382a1.525 1.525 0 0 1-.163.6 1.863 1.863 0 0 1-.271.406 1.882 1.882 0 0 1-1.406.633h-.509a1.856 1.856 0 0 1-1.819-1.45.335.335 0 0 0-.324-.219.973.973 0 0 0-.127 0z" transform="translate(-53.401 3.707)" style="fill:#fcfcfc"/>
        <path data-name="패스 3474" d="M57.84 10.113h.079a2.179 2.179 0 0 1 2.169 2.134c.065 3.095.066 8.267 0 11.385A2.186 2.186 0 0 1 57.9 25.77h-.051a2.176 2.176 0 0 1-2.175-2.149 596.308 596.308 0 0 1 0-11.349 2.18 2.18 0 0 1 2.17-2.16M50.6 18.471c.026-.883.026-2.674 0-3.556a.81.81 0 0 0-.8-.789c-.667-.012-5.216-.019-5.872-.008a.811.811 0 0 0-.8.789 82.797 82.797 0 0 0 0 3.559.813.813 0 0 0 .8.79c.678.015 5.22.016 5.879 0a.808.808 0 0 0 .792-.786m-9.528 5.23a2.245 2.245 0 0 1 2.246 2.237c0 .656 0 1.3-.017 1.7a.213.213 0 0 0 .223.226c1.549-.035 11.228-.059 14.58-.038a2.044 2.044 0 0 1 2.034 2.037v.047a2.034 2.034 0 0 1-2.006 2.036c-3.582.045-14.061.062-17.526.015a1.785 1.785 0 0 1-1.763-1.746 127.684 127.684 0 0 1-.016-4.294 2.248 2.248 0 0 1 2.245-2.22M40.7 10.429c2.331-.052 9.991-.052 12.321 0a1.884 1.884 0 0 1 1.843 1.836 218.78 218.78 0 0 1 0 8.8 1.89 1.89 0 0 1-1.855 1.841c-2.321.042-9.981.042-12.3 0a1.889 1.889 0 0 1-1.854-1.84 222.55 222.55 0 0 1 0-8.8 1.887 1.887 0 0 1 1.845-1.837" transform="translate(-12.368 3.707)" style="fill:#fcfcfc"/>
        <path data-name="패스 3475" d="M94.832 22.463a.28.28 0 0 0-.264.282c0 2.769-.022 5.381-.054 7.1a2.186 2.186 0 0 1-2.2 2.14h-.054a2.181 2.181 0 0 1-2.169-2.145c-.068-4.182-.068-13.353 0-17.567a2.194 2.194 0 0 1 2.188-2.162h.051a2.2 2.2 0 0 1 2.188 2.159c.03 1.5.048 3.436.049 5.781a.277.277 0 0 0 .264.283 2.048 2.048 0 0 1 2.051 2.037v.051a2.045 2.045 0 0 1-2.051 2.037m-19.27-9.754v-.041a2 2 0 0 1 1.981-2c2.509-.027 7.391-.027 9.856 0a1.893 1.893 0 0 1 1.872 1.872c.036 2.729.037 7.679 0 10.5a2.155 2.155 0 0 1-2.17 2.123h-.051a2.144 2.144 0 0 1-2.14-2.134c-.012-2.259 0-5.509.016-7.448a.849.849 0 0 0-.862-.859c-1.384.016-4.7.009-6.53-.01a2 2 0 0 1-1.976-2M89.3 28.643v.046a2.008 2.008 0 0 1-1.984 2.03c-2.865.029-6.9.029-9.744 0a2.022 2.022 0 0 1-2.009-2.013v-.044a2.023 2.023 0 0 1 1.984-2.013l.567-.012a.272.272 0 0 0 .271-.271c-.014-1.613-.008-3.934.011-5.648a2.2 2.2 0 0 1 2.2-2.18h.052a2.2 2.2 0 0 1 2.2 2.18c.019 1.706.024 4.019.011 5.642a.27.27 0 0 0 .274.271c1.98 0 2.789.011 4.2.029a2 2 0 0 1 1.967 1.983" transform="translate(-26.148 3.707)" style="fill:#fcfcfc"/>
        <path data-name="패스 3476" d="M31.191 10.142h.08a2.178 2.178 0 0 1 2.172 2.139c.079 4.2.079 13.374 0 17.561a2.186 2.186 0 0 1-2.2 2.139h-.051a2.181 2.181 0 0 1-2.17-2.146c-.068-4.188-.068-13.342 0-17.548a2.178 2.178 0 0 1 2.172-2.146" transform="translate(-8.676 3.697)" style="fill:#fcfcfc"/>
        <path data-name="패스 3477" d="M13.654 12.995c1.4 4.374 3.328 11.236 4.375 14.988a2.28 2.28 0 0 1-1.52 2.789 2.279 2.279 0 0 1-2.855-1.5 1049.016 1049.016 0 0 1-3.042-10 .273.273 0 0 0-.517-.018c-.877 2.323-2.623 6.99-3.695 10.118a2.26 2.26 0 0 1-4.29-1.424C3.313 24.175 5.571 17.2 7.075 12.9a3.471 3.471 0 0 1 6.579.092" transform="translate(1.437 3.531)" style="fill:#fcfcfc"/>
        <path data-name="패스 3478" d="M113.5 22.53a3.4 3.4 0 0 0-1.2 2.615c0 2.49 2.386 4.222 6.872 4.222s6.873-1.733 6.873-4.222a3.4 3.4 0 0 0-1.2-2.614 33.271 33.271 0 0 1-5.675.486 33.322 33.322 0 0 1-5.679-.487m8.216 2.615c0 .736-.881 1.248-2.539 1.248s-2.539-.512-2.539-1.248.882-1.248 2.539-1.248 2.539.513 2.539 1.248" transform="translate(-39.928 -.949)" style="fill:#fcfcfc"/>
        <path data-name="패스 3479" d="M140.376 16.488h-.076a.276.276 0 0 1-.272-.275c0-1.428-.016-2.881-.039-3.949a2.188 2.188 0 0 0-2.18-2.143h-.051a2.187 2.187 0 0 0-2.18 2.157c0 .282-.008.591-.012.913 1.432.472 2.438 1.148 2.438 2.1s-1.016 1.631-2.458 2.1c0 1.9.01 3.8.031 5.181a2.178 2.178 0 0 0 2.171 2.144h.051a2.181 2.181 0 0 0 2.19-2.124c.014-.532.025-1.136.034-1.783a.277.277 0 0 1 .272-.273h.078a2 2 0 0 0 1.968-2v-.049a2 2 0 0 0-1.968-2" transform="translate(-48.643 3.705)" style="fill:#fcfcfc"/>
        <path data-name="패스 3480" d="M129.477 34.678c-3.235-.054-11.9-.055-15.249 0a1.954 1.954 0 0 0-1.921 1.953v.048a1.96 1.96 0 0 0 1.952 1.965c3.121.01 10.831.007 12.272-.01a.212.212 0 0 1 .216.216v.068a2.247 2.247 0 0 0 2.247 2.264h.043a2.236 2.236 0 0 0 2.239-2.2c.014-.982.011-1.586-.007-2.521a1.816 1.816 0 0 0-1.788-1.779" transform="translate(-39.928 -5.489)" style="fill:#fcfcfc"/>
        <path data-name="패스 3481" d="M123.947 3.484a1.656 1.656 0 0 0-.8-1.247 1.535 1.535 0 0 0-1.636 0 1.656 1.656 0 0 0-.8 1.247 6.188 6.188 0 0 1 3.229 0" transform="translate(-43.082 6.749)" style="fill:#fff"/>
        <path data-name="패스 3482" d="M124.079 15.521a2.159 2.159 0 0 1-.209.754c-.773 1.446-4.124 1.662-6.052 1.662h-.411c-1.929 0-5.279-.216-6.053-1.662a2.159 2.159 0 0 1-.209-.754c-1.852.447-3.016 1.083-3.016 1.79 0 1.354 4.246 2.453 9.483 2.453s9.483-1.1 9.483-2.453c0-.707-1.164-1.343-3.016-1.79" transform="translate(-38.361 1.679)" style="fill:#fff"/>
        <path data-name="패스 3483" d="M121.588 5.124c-1.332 0-2.4 2.648-2.812 5.329-.016.1-.033.2-.046.3l.052.006a22.157 22.157 0 0 0 2.8.149 22.442 22.442 0 0 0 2.816-.149l.046-.005c-.013-.1-.03-.2-.045-.3-.41-2.7-1.471-5.329-2.812-5.329" transform="translate(-42.336 5.578)" style="fill:#fff"/>
        <path data-name="패스 3484" d="m127.676 10.611.023.157c.176-.029.345-.062.511-.1a3.238 3.238 0 0 0 1.679-.733 6.513 6.513 0 0 0-4.13-4.548c1.061 1.186 1.663 3.473 1.916 5.221" transform="translate(-44.972 5.479)" style="fill:#fff"/>
        <path data-name="패스 3485" d="M114.073 15.319c.671 1.254 4.559 1.332 5.5 1.332h.411c.942 0 4.83-.076 5.5-1.332a1.627 1.627 0 0 0 .151-.6 3.08 3.08 0 0 0 .012-.311c0-.1 0-.207-.011-.319s-.027-.217-.044-.33a2.9 2.9 0 0 1-.43.244 4.793 4.793 0 0 1-.565.224 7.558 7.558 0 0 1-.785.2 20.8 20.8 0 0 1-4.039.339h-.256a19.83 19.83 0 0 1-3.772-.342 7.829 7.829 0 0 1-.771-.2 4.886 4.886 0 0 1-.577-.222 2.837 2.837 0 0 1-.431-.251c-.018.115-.036.229-.046.337s-.011.216-.011.319a3.078 3.078 0 0 0 .012.311 1.616 1.616 0 0 0 .151.6" transform="translate(-40.529 2.341)" style="fill:#fff"/>
        <path data-name="패스 3486" d="M116.428 10.764c.007-.05.016-.1.023-.156.252-1.726.861-4.032 1.927-5.224a6.511 6.511 0 0 0-4.137 4.539 3.183 3.183 0 0 0 1.682.743c.164.036.332.069.505.1" transform="translate(-40.653 5.48)" style="fill:#fff"/>
    </g>
</svg>
