<svg xmlns="http://www.w3.org/2000/svg" xmlns:xlink="http://www.w3.org/1999/xlink" width="278" height="197.999" viewBox="0 0 278 197.999">
  <defs>
    <filter id="logo_bg" x="0" y="0" width="278" height="197.999" filterUnits="userSpaceOnUse">
      <feOffset dx="6" dy="6" input="SourceAlpha"/>
      <feGaussianBlur stdDeviation="3" result="blur"/>
      <feFlood flood-opacity="0.161"/>
      <feComposite operator="in" in2="blur"/>
      <feComposite in="SourceGraphic"/>
    </filter>
  </defs>
  <g id="logo_bg-2" data-name="logo_bg" transform="translate(3 3)">
    <g transform="matrix(1, 0, 0, 1, -3, -3)" filter="url(#logo_bg)">
      <path id="logo_bg-3" data-name="logo_bg" d="M49.693,123.845c.247.048-1.637-5.086-2.853-8.278-4.638-.99-9.01-2.058-13.068-3.2a118.279,118.279,0,0,1-18.082-6.508C5.684,101.142,0,95.74,0,90,0,79.712,18.249,70.52,46.907,64.418,57.524,27.178,90.695,0,130,0s72.477,27.178,83.093,64.418C241.748,70.52,260,79.712,260,90a9.785,9.785,0,0,1-1.5,5.065c-1.643,2.755-4.607,5.4-8.718,7.883-.823.5-1.688.988-2.6,1.475-1.3.691-2.731,1.367-4.212,2.032a112.507,112.507,0,0,1-12.654,4.705c-3.974,1.233-8.288,2.389-12.905,3.464-1.408.327-2.853.644-4.316.958q-.639.136-1.284.271c-.434,1.974-.942,4.581-1.5,7.993C197.425,156.772,166.334,180,130,180S62.574,156.772,49.693,123.845Z" transform="translate(3 3)" fill="#1e90ff"/>
    </g>
  </g>
</svg>
