<svg xmlns="http://www.w3.org/2000/svg" width="92.276" height="79" viewBox="0 0 92.276 79">
    <defs>
        <clipPath id="2xsi8mx3sa">
            <path data-name="사각형 1620" style="fill:none" d="M0 0h90v38.948H0z"/>
        </clipPath>
    </defs>
    <path data-name="합치기 21" d="M72.648 34.74a.673.673 0 0 1-.687-.687v-9.069a.673.673 0 0 1 .687-.687h3.322a.673.673 0 0 1 .689.687v4.7a.674.674 0 0 0 .688.687h7.214a.675.675 0 0 1 .689.689v3.05a.616.616 0 0 1-.629.631zm-51.077-3.5a.675.675 0 0 1-.689-.689V.687A.674.674 0 0 1 21.571 0H24.9a.673.673 0 0 1 .687.687v29.859a.673.673 0 0 1-.687.689zm29.189-7.46a.671.671 0 0 1-.687-.685V4.242a.672.672 0 0 1 .687-.685h3.423a.671.671 0 0 1 .686.685v6.27a.674.674 0 0 0 .688.689h3.135a.675.675 0 0 1 .688.689v2.95a.616.616 0 0 1-.628.631h-3.2a.673.673 0 0 0-.688.687V23.1a.671.671 0 0 1-.686.685zm31.9-.719a.671.671 0 0 1-.687-.685V2.1a.673.673 0 0 1 .687-.687h3.42a.673.673 0 0 1 .687.687v6.268a.674.674 0 0 0 .688.689h3.134a.67.67 0 0 1 .685.685V12.7a.614.614 0 0 1-.628.626h-3.188a.673.673 0 0 0-.688.687v8.359a.672.672 0 0 1-.687.685zm-51.474-.822-2.286-2.92a14.571 14.571 0 0 0 2-1.448 22.6 22.6 0 0 0 2.42-2.352 17.046 17.046 0 0 0 2.184-2.8 8.87 8.87 0 0 0 1.137-2.531c.1-.508-.593-.508-.593-.508H31.3a.674.674 0 0 1-.687-.689V5.944a.616.616 0 0 1 .628-.631h10.268a.709.709 0 0 1 .716.687 13.663 13.663 0 0 1-.432 3.423 17.722 17.722 0 0 1-1.1 3.171 1.033 1.033 0 0 0 .166 1.106l4.05 4.356a.676.676 0 0 1-.031.973L42.6 21.163a.616.616 0 0 1-.888-.026l-3.366-3.551a.554.554 0 0 0-.886.047 21.172 21.172 0 0 1-2.7 2.824A21.866 21.866 0 0 1 32.1 22.5a.589.589 0 0 1-.295.081.906.906 0 0 1-.616-.343zM9.56 19.745a.671.671 0 0 1-.687-.685v-6.936a.67.67 0 0 0-.685-.682H.687a.674.674 0 0 1-.687-.69V7.761a.673.673 0 0 1 .687-.689h12.2a.674.674 0 0 1 .687.689v11.3a.672.672 0 0 1-.687.685zm53.26-1.667a.675.675 0 0 1-.688-.689V5.572a.674.674 0 0 1 .688-.689h12.2a.674.674 0 0 1 .687.689v3a.615.615 0 0 1-.629.626h-7.556a.675.675 0 0 0-.69.689v3.132a.676.676 0 0 0 .69.689h7.5a.671.671 0 0 1 .687.685v2.992a.673.673 0 0 1-.687.689z" transform="translate(.5 43.761)" style="stroke:transparent;stroke-miterlimit:10;fill:#e83428"/>
    <g data-name="그룹 32">
        <g data-name="그룹 31" style="clip-path:url(#2xsi8mx3sa)" transform="translate(1.138)">
            <path data-name="패스 610" d="M202.042 20.4a9.563 9.563 0 0 0-9.521-9.605 9.683 9.683 0 0 0-1.194.073 15.158 15.158 0 0 0-28.746-.984c-.094 0-.187-.013-.28-.012a10.849 10.849 0 1 0-.1 21.7 11.057 11.057 0 0 0 2.119-.2 9.224 9.224 0 0 0 13.472 2.895 7.921 7.921 0 0 0 6.451 1.7 3.125 3.125 0 0 1-.435 2.02s-.425.726.458.461 4.2-2.068 6.008-7.3a.4.4 0 0 0 .019-.057 8.244 8.244 0 0 0 .406-1.333 9.556 9.556 0 0 0 11.343-9.358" transform="translate(-112.042)" style="fill:#fcc800"/>
            <path data-name="패스 611" d="M211.2 26.443a1.516 1.516 0 0 0 1.453-1.029.554.554 0 0 0 .223.036l.882-.036a.419.419 0 0 1 .314.116.4.4 0 0 1 .122.3l-.072 1.7a.481.481 0 0 0 .435.515.43.43 0 0 0 .3-.113.511.511 0 0 0 .169-.368l.181-4.382a.477.477 0 0 0-.434-.515.432.432 0 0 0-.3.113.526.526 0 0 0-.169.368l-.037.915a.5.5 0 0 1-.476.463l-.952.038a.631.631 0 0 0-.166.034 1.51 1.51 0 1 0-1.473 1.841m.009-2.168a.694.694 0 1 1-.719.69.7.7 0 0 1 .719-.69" transform="translate(-155.175 -16.777)" style="fill:#231815"/>
            <path data-name="패스 612" d="m238.681 21.476 1.259.04c.25.006.463.155.469.329s-.192.342-.442.374l-1.248.158a.531.531 0 0 0-.457.5l-.02 1.648a.4.4 0 0 0 .13.3.424.424 0 0 0 .321.106l2.916-.244a.478.478 0 0 0 .473-.481.484.484 0 0 0-.551-.4l-1.925.158a.437.437 0 0 1-.334-.1.337.337 0 0 1-.111-.254.512.512 0 0 1 .461-.458l1.287-.164a.5.5 0 0 0 .433-.5l-.054-1.378a.487.487 0 0 0-.47-.454l-2.109-.067a.561.561 0 0 0-.389.135.394.394 0 0 0-.02.585.559.559 0 0 0 .38.162" transform="translate(-176.259 -15.239)" style="fill:#231815"/>
            <path data-name="패스 613" d="M256.88 22.612a.431.431 0 0 0 .305-.113.522.522 0 0 0 .169-.368l.2-4.747a.477.477 0 0 0-.432-.516.429.429 0 0 0-.307.113.522.522 0 0 0-.167.366l-.2 4.75a.522.522 0 0 0 .137.377.437.437 0 0 0 .3.138" transform="translate(-189.777 -12.482)" style="fill:#231815"/>
            <path data-name="패스 614" d="m283.421 26.154.181-4.38a.478.478 0 0 0-.435-.517.433.433 0 0 0-.3.113.517.517 0 0 0-.169.366l-.178 4.384a.52.52 0 0 0 .136.38.443.443 0 0 0 .3.136.418.418 0 0 0 .3-.113.512.512 0 0 0 .17-.368" transform="translate(-209.067 -15.73)" style="fill:#231815"/>
            <path data-name="패스 615" d="M268.5 29.041a1.475 1.475 0 1 0-1.512-1.482 1.5 1.5 0 0 0 1.512 1.482m.009-2.17a.695.695 0 1 1-.717.692.706.706 0 0 1 .717-.692" transform="translate(-197.574 -19.309)" style="fill:#231815"/>
            <path data-name="패스 616" d="M253.7 41.989a.408.408 0 0 0-.168-.273.559.559 0 0 0-.4-.1l-1.637.206a.417.417 0 0 1-.321-.088.392.392 0 0 1-.144-.293l-.029-.8a.476.476 0 0 0-.472-.482.424.424 0 0 0-.3.133.519.519 0 0 0-.14.38l.062 1.761a.407.407 0 0 0 .147.3.429.429 0 0 0 .326.089l2.619-.33a.479.479 0 0 0 .452-.5" transform="translate(-185.072 -29.721)" style="fill:#231815"/>
            <path data-name="패스 617" d="M179.541 61.89a.745.745 0 0 0 .977-.4l1.455-3.451 1.426 3.464a.748.748 0 0 0 .688.46.728.728 0 0 0 .285-.055.745.745 0 0 0 .4-.973l-2.1-5.118a.746.746 0 0 0-1.375-.006l-2.151 5.1a.746.746 0 0 0 .4.977" transform="translate(-132.528 -40.968)" style="fill:#231815"/>
            <path data-name="패스 618" d="M213.38 65.194a.745.745 0 0 0-.05-1.488l-4.571-.019a.745.745 0 0 0-.062 1.488 2.567 2.567 0 0 0-.251 1.1 2.588 2.588 0 1 0 4.934-1.078m-2.352 2.187a1.1 1.1 0 1 1 1.1-1.093 1.1 1.1 0 0 1-1.1 1.093" transform="translate(-153.933 -47.13)" style="fill:#231815"/>
            <path data-name="패스 619" d="M287.419 58.276a2.974 2.974 0 1 0 2.961 2.986 2.976 2.976 0 0 0-2.961-2.986m-.02 4.456a1.484 1.484 0 1 1 1.49-1.475 1.486 1.486 0 0 1-1.49 1.475" transform="translate(-210.487 -43.126)" style="fill:#231815"/>
            <path data-name="패스 620" d="m183.419 85.12-4.8-.02a.744.744 0 1 0-.006 1.489l1.656.008-.013 3.134a.745.745 0 0 0 1.489.006l.013-3.134 1.658.007a.744.744 0 0 0 .006-1.489" transform="translate(-131.626 -62.976)" style="fill:#231815"/>
            <path data-name="패스 621" d="M213.779 55.781a.744.744 0 0 0-.006 1.489l1.982.008a.745.745 0 1 0 .008-1.489z" transform="translate(-157.649 -41.279)" style="fill:#231815"/>
            <path data-name="패스 622" d="M232.051 60.108a.744.744 0 1 0 .006-1.489l-1.249-.007.011-2.5a.746.746 0 0 0-1.491-.005l-.043 10.056h-1.04a.744.744 0 1 0-.005 1.489l1.587.009h1.389l-.015 3.726a.744.744 0 1 0 1.488.006l.02-4.469a.745.745 0 0 0-.741-.749h-1.2l.032-6.075z" transform="translate(-168.354 -40.971)" style="fill:#231815"/>
            <path data-name="패스 623" d="m313.334 58.951-1.3-.006.011-2.5a.745.745 0 0 0-1.489-.006l-.045 10.483a.744.744 0 1 0 1.488.006l.029-6.491h1.3a.744.744 0 0 0 .006-1.489" transform="translate(-229.782 -41.217)" style="fill:#231815"/>
            <path data-name="패스 624" d="M258.946 96.991a3.013 3.013 0 1 0 3 3.027 3.018 3.018 0 0 0-3-3.027m-.02 4.536a1.524 1.524 0 1 1 1.53-1.517 1.524 1.524 0 0 1-1.53 1.517" transform="translate(-189.387 -71.776)" style="fill:#231815"/>
            <path data-name="패스 625" d="m261.4 58.34-4.443-.021a.746.746 0 0 0-.749.743l-.018 4.309a.744.744 0 0 0 .741.749l1.476.006-.007 1.674-1.476-.006a.744.744 0 1 0-.006 1.489l4.443.02a.744.744 0 1 0 .006-1.489l-1.476-.006.007-1.678 1.476.009a.746.746 0 0 0 .008-1.491l-3.7-.015.012-2.82 3.7.015a.744.744 0 0 0 .007-1.489" transform="translate(-189.579 -43.157)" style="fill:#231815"/>
        </g>
    </g>
    <g data-name="그룹 34">
        <g data-name="그룹 33" style="clip-path:url(#2xsi8mx3sa)" transform="translate(1.138)">
            <path data-name="패스 626" d="M44.056 20.967c0-9.248-9.862-16.745-22.028-16.745S0 11.719 0 20.967s9.862 16.745 22.028 16.745a28.6 28.6 0 0 0 5.979-.624l10.841 4.985-3.648-7.682c5.377-3.053 8.858-7.93 8.858-13.424" transform="translate(0 -3.124)" style="fill:#e83428"/>
            <path data-name="패스 627" d="M89.889 22.639a.431.431 0 0 0 .3-.115.523.523 0 0 0 .167-.365l.172-4.723a.474.474 0 0 0-.433-.511.431.431 0 0 0-.3.114.518.518 0 0 0-.166.366l-.173 4.723a.52.52 0 0 0 .139.376.43.43 0 0 0 .295.135" transform="translate(-66.199 -12.524)" style="fill:#fff"/>
            <path data-name="패스 628" d="m71.721 21.59 1.252.034c.251.006.461.152.468.326s-.189.341-.438.374l-1.239.162a.528.528 0 0 0-.452.5l-.012 1.636a.394.394 0 0 0 .131.3.419.419 0 0 0 .319.1l2.9-.254a.478.478 0 0 0 .469-.481.483.483 0 0 0-.55-.392l-1.913.167a.441.441 0 0 1-.332-.1.328.328 0 0 1-.112-.252.509.509 0 0 1 .455-.459l1.281-.167a.5.5 0 0 0 .428-.5l-.06-1.37a.485.485 0 0 0-.47-.45l-2.1-.057a.552.552 0 0 0-.386.138.392.392 0 0 0-.017.58.553.553 0 0 0 .378.159" transform="translate(-52.707 -15.328)" style="fill:#fff"/>
            <path data-name="패스 629" d="M83.581 40.12a.428.428 0 0 0-.294.135.518.518 0 0 0-.138.378l.071 1.75a.4.4 0 0 0 .146.3.419.419 0 0 0 .324.088l2.6-.341a.475.475 0 0 0 .446-.5.405.405 0 0 0-.167-.271.556.556 0 0 0-.4-.1l-1.626.213a.416.416 0 0 1-.32-.087.392.392 0 0 1-.144-.292l-.032-.791a.477.477 0 0 0-.472-.478" transform="translate(-61.532 -29.69)" style="fill:#fff"/>
            <path data-name="패스 630" d="m46.1 25.6.877-.04a.419.419 0 0 1 .314.113.4.4 0 0 1 .12.3l-.062 1.69a.475.475 0 0 0 .434.511.428.428 0 0 0 .3-.114.519.519 0 0 0 .167-.366l.16-4.359a.477.477 0 0 0-.434-.511.429.429 0 0 0-.3.115.517.517 0 0 0-.166.365l-.033.91a.5.5 0 0 1-.477.466l-.947.043a.58.58 0 0 0-.164.033 1.465 1.465 0 1 0-.017.808.576.576 0 0 0 .223.035m-1.664.219a.691.691 0 1 1 .711-.69.7.7 0 0 1-.711.69" transform="translate(-31.766 -16.891)" style="fill:#fff"/>
            <path data-name="패스 631" d="M116.45 21.691a.474.474 0 0 0-.434-.511.43.43 0 0 0-.3.114.519.519 0 0 0-.166.365l-.159 4.36a.517.517 0 0 0 .138.377.422.422 0 0 0 .6.02.519.519 0 0 0 .167-.366z" transform="translate(-85.39 -15.673)" style="fill:#fff"/>
            <path data-name="패스 632" d="M101.419 28.971A1.467 1.467 0 1 0 99.91 27.5a1.491 1.491 0 0 0 1.509 1.466m0-2.157a.691.691 0 1 1-.711.69.7.7 0 0 1 .711-.69" transform="translate(-73.936 -19.269)" style="fill:#fff"/>
            <path data-name="패스 633" d="M13.56 59.916h3.5v4.074h1.4v-5.428h-4.9z" transform="translate(-10.035 -43.337)" style="fill:#fff"/>
            <path data-name="패스 634" d="M16.411 73.328h-1.4v3.159H13.56v1.359h4.9v-1.359h-2.049z" transform="translate(-10.035 -54.265)" style="fill:#fff"/>
            <path data-name="패스 635" d="M38.789 56.9h-1.4v11.175h1.4v-6.983h1.922v-1.36h-1.922z" transform="translate(-27.669 -42.107)" style="fill:#fff"/>
            <path data-name="패스 636" d="M144.52 59.733V56.9h-1.4v11.175h1.4v-6.983h1.923v-1.36z" transform="translate(-105.913 -42.107)" style="fill:#fff"/>
            <path data-name="패스 637" d="M121.071 58.454a2.734 2.734 0 1 0 2.814 2.733 2.777 2.777 0 0 0-2.814-2.733m0 4.109a1.378 1.378 0 1 1 1.418-1.377 1.4 1.4 0 0 1-1.418 1.377" transform="translate(-87.513 -43.257)" style="fill:#fff"/>
            <path data-name="패스 638" d="M99.464 59.941v-1.357H93.9v5.4h2.141v1.606H93.9v1.36h5.568v-1.362h-2.032v-1.606h2.028V62.62H95.3v-2.679z" transform="translate(-69.485 -43.354)" style="fill:#fff"/>
            <path data-name="패스 639" d="M96.509 94.47a2.78 2.78 0 1 0 2.862 2.779 2.824 2.824 0 0 0-2.862-2.779m0 4.2a1.417 1.417 0 1 1 1.459-1.417 1.44 1.44 0 0 1-1.459 1.417" transform="translate(-69.302 -69.91)" style="fill:#fff"/>
            <path data-name="사각형 1621" transform="translate(15.057 14.79)" style="fill:#fff" d="M0 0h3.084v1.233H0z"/>
            <path data-name="패스 640" d="M74.366 56.9h-1.4v9.821h-1.672v1.353h3.5v4.072h1.4v-5.425h-1.828v-5.629h1.924v-1.36h-1.924z" transform="translate(-52.759 -42.107)" style="fill:#fff"/>
            <path data-name="패스 641" d="m58.367 65.229-.019-.043h.452V63.9h-5.348v1.289h.448l-.018.043a2.344 2.344 0 0 0-.191.927 2.437 2.437 0 0 0 4.872 0 2.285 2.285 0 0 0-.2-.927m-2.241 1.977a1.051 1.051 0 1 1 1.081-1.051 1.068 1.068 0 0 1-1.081 1.051" transform="translate(-39.556 -47.286)" style="fill:#fff"/>
        </g>
    </g>
</svg>
