<svg xmlns="http://www.w3.org/2000/svg" width="93.75" height="30" viewBox="0 0 93.75 30">
    <defs>
        <clipPath id="gs8r0vilra">
            <path data-name="사각형 1979" style="fill:#fff" d="M0 0h93.75v30H0z"/>
        </clipPath>
    </defs>
    <g data-name="그룹 407" style="clip-path:url(#gs8r0vilra)">
        <path data-name="패스 3399" d="M31.868 49.863a3.573 3.573 0 0 1-3.551.11 3.573 3.573 0 0 1-3.551-.11 3.772 3.772 0 0 1-1.834-2.286 39.22 39.22 0 0 1-3.3-.465 9.375 9.375 0 0 0 17.374 0 39.338 39.338 0 0 1-3.3.465 3.773 3.773 0 0 1-1.834 2.286" transform="translate(-13.505 -28.586)" style="fill:#fff"/>
        <path data-name="패스 3400" d="M23.051 6.71a9.375 9.375 0 0 0-17.977 0C1.974 7.346 0 8.3 0 9.375c0 .6.615 1.161 1.7 1.652a13.121 13.121 0 0 0 1.956.678c.441.12.916.231 1.421.335l.043.009c.695.141 1.445.266 2.242.373q.6.08 1.228.146c.705.073 1.441.132 2.2.177q.656.039 1.334.062.952.033 1.941.034T16 12.807q.706-.024 1.389-.065a49.918 49.918 0 0 0 1.5-.111q.323-.029.639-.062.63-.066 1.228-.146t1.159-.174q.281-.046.551-.1a34.028 34.028 0 0 0 1.041-.212c.5-.112.966-.232 1.4-.361a12.46 12.46 0 0 0 1.369-.49c.16-.069.315-.14.456-.212.1-.051.193-.1.281-.154a2.66 2.66 0 0 0 .943-.821.992.992 0 0 0 .162-.528c0-1.071-1.974-2.029-5.074-2.665m-1.967 3.912c-.536.084-1.111.16-1.72.224q-.455.048-.934.088c-1.058.088-2.2.144-3.391.165q-.483.008-.975.009t-.975-.009a52.525 52.525 0 0 1-3.422-.167q-.492-.041-.959-.091-.884-.094-1.664-.218a4.128 4.128 0 0 1-.191-1.247 3.547 3.547 0 0 1 1.742-3.19A3.547 3.547 0 0 1 10.511 3.1a3.573 3.573 0 0 1 3.551-.111 3.573 3.573 0 0 1 3.551.111 3.547 3.547 0 0 1 1.924 3.084 3.548 3.548 0 0 1 1.737 3.193 4.129 4.129 0 0 1-.191 1.247" transform="translate(.75 5.625)" style="fill:#fff"/>
        <path data-name="패스 3401" d="M251.946 22.113h-1.464a.8.8 0 0 1-.809-.791v-1.027a.74.74 0 0 1 .813-.719c.386.006 1.19.007 1.587 0a.979.979 0 0 0 .968-.961c.025-1.3.025-3.223 0-4.535a.99.99 0 0 0-.98-.971c-.992-.012-2.862-.012-3.889 0a1.114 1.114 0 0 0-1.1 1.116v.028a1.125 1.125 0 0 0 1.116 1.13h1.669a.792.792 0 0 1 .8.794v.383a.845.845 0 0 1-.856.844 69.977 69.977 0 0 0-1.574-.006 1.148 1.148 0 0 0-1.139 1.13 162.691 162.691 0 0 0 0 4.419 1.484 1.484 0 0 0 1.462 1.469c1.061.015 2.428.013 3.4-.006a1.149 1.149 0 0 0 0-2.3" transform="translate(-178.666 -3.891)" style="fill:#fff"/>
        <path data-name="패스 3402" d="M276.6 13.08a1.306 1.306 0 0 0-1.279-1.3h-.054a1.306 1.306 0 0 0-1.278 1.247v.094c-.005.88-.01 3.131-.01 3.131a.2.2 0 0 1-.392 0s-.005-2.375-.014-3.122v-.044a1.3 1.3 0 1 0-2.61 0v.047a641.034 641.034 0 0 0 0 9.608 1.3 1.3 0 0 0 1.3 1.3 1.3 1.3 0 0 0 1.3-1.3c.009-1.086.015-3.932.015-3.932a.2.2 0 0 1 .392 0s.006 2.846.012 3.932a1.3 1.3 0 0 0 1.3 1.3 1.3 1.3 0 0 0 1.3-1.3c.04-2.646.029-7.659 0-9.655z" transform="translate(-196.002 -2.925)" style="fill:#fff"/>
        <path data-name="패스 3403" d="M212.5 28.742a942.037 942.037 0 0 0-10.363 0 .889.889 0 0 0-.894.874v.018a.89.89 0 0 0 .894.875c1.652.018 8.685.018 10.363 0a.888.888 0 0 0 .893-.879v-.018a.889.889 0 0 0-.893-.869" transform="translate(-145.389 -15.237)" style="fill:#fff"/>
        <path data-name="패스 3404" d="M205.061 40.084c.86 0 6.431.015 7.879.007a1.014 1.014 0 0 0 .993-1c.011-.423.011-.909 0-1.345a1.006 1.006 0 0 0-.982-.989c-1.616-.019-8.28-.018-9.748 0a.774.774 0 0 0-.749.78v.02a.78.78 0 0 0 .763.793c1.488.008 7.036.007 8.141-.005a.214.214 0 0 1 0 .428c-1.037 0-6.4-.009-7.859-.005a1.006 1.006 0 0 0-.99.994c-.013.5-.013.929 0 1.425a1.006 1.006 0 0 0 .973.992c1.65.034 8.117.032 9.664 0a.84.84 0 0 0-.011-1.678c-1.536-.008-7.221-.007-8.07.006a.209.209 0 0 1 0-.417" transform="translate(-146.264 -21.055)" style="fill:#fff"/>
        <path data-name="패스 3405" d="M203.98 14.482h-.241a.923.923 0 0 0-.911.782.908.908 0 0 0-.014.143.925.925 0 0 0 .925.926c1.584.017 7.835.017 9.437 0h.017a.923.923 0 0 0 .914-.9v-.026a.925.925 0 0 0-.926-.926h-.247a.2.2 0 1 1 0-.391h.247a.922.922 0 0 0 .319-.06l.03-.009c.018-.007.035-.018.053-.026a.923.923 0 0 0 .524-.829.925.925 0 0 0-.926-.926h-.013c-1.52-.017-7.938-.018-9.431 0a.924.924 0 0 0-.235 1.817c.02 0 .038.012.059.016s.036 0 .054.005a.951.951 0 0 0 .122.012h.241a.2.2 0 1 1 0 .391m2.176-.391h4.6a.2.2 0 1 1 0 .391h-4.6a.2.2 0 1 1 0-.391" transform="translate(-146.527 -3.254)" style="fill:#fff"/>
        <path data-name="패스 3406" d="M294.261 18.139c.081 0 5.732.019 6.4.01a2.859 2.859 0 0 0 .787-.058 1.155 1.155 0 0 0 .839-1.033.946.946 0 0 0-.066-.366 1.236 1.236 0 0 0-1.135-.7c-.306-.006-4.291 0-4.937-.017a.675.675 0 0 1-.379-.068.4.4 0 0 1-.175-.341c.015-.558.02-1.415.013-2.126a1.218 1.218 0 0 0-1.219-1.208h-.029a1.23 1.23 0 0 0-1.23 1.2c-.02 1.046-.019 2.541 0 3.577a1.147 1.147 0 0 0 1.124 1.123" transform="translate(-212.106 -3.259)" style="fill:#fff"/>
        <path data-name="패스 3407" d="M329.748 19.313h.028a1.194 1.194 0 0 0 1.2-1.169c.025-1.323.025-3.853 0-5.168a1.194 1.194 0 0 0-1.196-1.176h-.028a1.193 1.193 0 0 0-1.195 1.178 260.131 260.131 0 0 0 0 5.151 1.194 1.194 0 0 0 1.191 1.179" transform="translate(-237.831 -2.947)" style="fill:#fff"/>
        <path data-name="패스 3408" d="m304.832 39.535-4.52-3.413a1.816 1.816 0 0 0-2.162 0l-4.541 3.408a1.092 1.092 0 0 0-.322 1.4 1.061 1.061 0 0 0 1.558.322l4.268-3.2a.193.193 0 0 1 .232 0l4.239 3.2a1.062 1.062 0 0 0 1.6-.386 1.086 1.086 0 0 0-.349-1.33" transform="translate(-212.13 -20.347)" style="fill:#fff"/>
        <path data-name="패스 3409" d="M123.784 36.928a1.834 1.834 0 0 0-.223-1.065 1.194 1.194 0 0 0-2.093.272 1.8 1.8 0 0 0-.067.549.413.413 0 0 1-.411.4c-.723-.006-4.743-.006-5.466 0a.413.413 0 0 1-.411-.4 1.8 1.8 0 0 0-.067-.549 1.195 1.195 0 0 0-2.093-.272 1.834 1.834 0 0 0-.223 1.065c0 .34-.022 2.355-.006 3.116a1.152 1.152 0 0 0 1.131 1.132c1.065.017 7.739.017 8.8 0a1.152 1.152 0 0 0 1.131-1.132c.016-.762-.009-2.776-.006-3.116m-2.584 2.4h-5.887a.2.2 0 1 1 0-.4h5.891a.2.2 0 1 1 0 .4" transform="translate(-81.102 -20.052)" style="fill:#fff"/>
        <path data-name="패스 3410" d="M111.865 18.224c.426.007 5.179.007 5.6 0a1.973 1.973 0 0 0 1.314-.258.971.971 0 0 0-.213-1.6 1.334 1.334 0 0 0-.426-.091c-.226-.034-.446-.183-.426-.439.023-.3.04-.89.056-1.185a.411.411 0 0 1 .42-.376.95.95 0 0 0 .325-.073.974.974 0 0 0 .6-.892.962.962 0 0 0-.962-.962c-.673-.018-6.305-.018-6.978 0a.962.962 0 0 0-.962.962.974.974 0 0 0 .6.892.949.949 0 0 0 .325.073.411.411 0 0 1 .42.376c.016.294.033.889.056 1.185.02.256-.2.4-.426.439a1.334 1.334 0 0 0-.426.091.971.971 0 0 0-.213 1.6 1.972 1.972 0 0 0 1.314.258m2.068-3.141h1.47a.2.2 0 0 1 0 .4h-1.47a.2.2 0 1 1 0-.4" transform="translate(-79.286 -3.333)" style="fill:#fff"/>
        <path data-name="패스 3411" d="M147.769 14.728a1.15 1.15 0 0 0-1.058-1.144.088.088 0 0 1-.08-.091v-.117c0-.139-.007-.273-.01-.4a1.145 1.145 0 0 0-1.141-1.111h-.138a1.147 1.147 0 0 0-1.141 1.127c-.019 1.042-.019 2.74 0 3.786a1.145 1.145 0 0 0 1.14 1.124h.138a1.143 1.143 0 0 0 1.143-1.109c0-.117.007-.24.01-.367v-.149a.088.088 0 0 1 .089-.1 1.076 1.076 0 0 0 1.048-1.143z" transform="translate(-103.954 -2.991)" style="fill:#fff"/>
        <path data-name="패스 3412" d="M168.594 45.715c-.415 0-7.538 0-7.968.009-.078 0-.253.006-.26-.1a1.132 1.132 0 0 0-.1-.574.965.965 0 0 0-.421-.34 1.631 1.631 0 0 0-.671-.138 1.253 1.253 0 0 0-1.057.461 1.356 1.356 0 0 0-.13.755v.872a1.687 1.687 0 0 0 .07.561 1 1 0 0 0 .3.435 1.27 1.27 0 0 0 .757.223 651.7 651.7 0 0 0 9.489-.008 1.07 1.07 0 0 0 1.058-1.065v-.025a1.073 1.073 0 0 0-1.068-1.066" transform="translate(-113.974 -26.743)" style="fill:#fff"/>
        <path data-name="패스 3413" d="M159.779 17.126c1.284.014 6.117.019 7.632.012.16 0 .2.078.207.232a.879.879 0 0 0 .516.71 1.553 1.553 0 0 0 1.155.043 1.164 1.164 0 0 0 .607-1.173c.013-1.034.012-2.5 0-3.5a1.149 1.149 0 0 0-1.128-1.134 380.345 380.345 0 0 0-8.937 0 1.119 1.119 0 0 0-1.093 1.125v.027a1.109 1.109 0 0 0 1.1 1.11c.5 0 7.366-.013 7.569-.011a.214.214 0 0 1 0 .428h-7.631a1.045 1.045 0 0 0-1.036 1.049v.026a1.053 1.053 0 0 0 1.042 1.054" transform="translate(-114.521 -3.301)" style="fill:#fff"/>
        <path data-name="패스 3414" d="M167.834 32.508a905.77 905.77 0 0 0-3.517-.013.2.2 0 0 1-.2-.134v-.007a1.143 1.143 0 0 0-1.117-.915h-.312a1.142 1.142 0 0 0-1.112.909s-.005.006-.007.012c-.039.143-.208.135-.208.135l-3.518.007a1.069 1.069 0 0 0-1.058 1.071v.027a1.071 1.071 0 0 0 1.064 1.071c1.844.012 8.115.012 9.977 0a1.066 1.066 0 0 0 1.059-1.062v-.023a1.067 1.067 0 0 0-1.056-1.073" transform="translate(-113.107 -17.205)" style="fill:#fff"/>
    </g>
</svg>
