<svg xmlns="http://www.w3.org/2000/svg" width="360" height="660" viewBox="0 0 360 660">
    <defs>
        <clipPath id="1yl14nooea">
            <path transform="translate(235 202)" style="fill:#56c1dc" d="M0 0h360v660H0z"/>
        </clipPath>
        <clipPath id="n31x67662b">
            <path data-name="사각형 3341" style="fill:none" d="M0 0h308.333v60.617H0z"/>
        </clipPath>
        <clipPath id="ivnwpz4rrc">
            <path data-name="사각형 3330" style="fill:none" d="M0 0h302.109v8.154H0z"/>
        </clipPath>
        <clipPath id="hy4lqithqd">
            <path data-name="사각형 3334" style="fill:none" d="M0 0h287.906v3.739H0z"/>
        </clipPath>
        <clipPath id="onu18nii1e">
            <path data-name="사각형 2443" style="fill:none" d="M0 0h59.929v41.416H0z"/>
        </clipPath>
        <clipPath id="a4f90873qf">
            <path data-name="사각형 2444" style="fill:none" d="M0 0h73.814v56.108H0z"/>
        </clipPath>
        <clipPath id="pjkku4akxg">
            <path data-name="사각형 2442" style="fill:none" d="M0 0h53.495v30.062H0z"/>
        </clipPath>
        <clipPath id="zk99llqz1h">
            <path data-name="사각형 2431" style="fill:none" d="M0 0h102.763v13.457H0z"/>
        </clipPath>
        <clipPath id="7jommjan5i">
            <path data-name="사각형 2432" style="fill:none" d="M0 0h7.746v23.59H0z"/>
        </clipPath>
        <clipPath id="if5m7o8srj">
            <path data-name="사각형 2433" style="fill:none" d="M0 0h54.748v29.007H0z"/>
        </clipPath>
        <clipPath id="9rydnhd6sk">
            <path data-name="사각형 2434" style="fill:none" d="M0 0h67.115v27.997H0z"/>
        </clipPath>
        <clipPath id="yqq5nrwxgl">
            <path data-name="사각형 2435" style="fill:none" d="M0 0h30.965v7.212H0z"/>
        </clipPath>
        <clipPath id="tfuswd6djm">
            <path data-name="사각형 2436" style="fill:none" d="M0 0h31.97v21.112H0z"/>
        </clipPath>
        <clipPath id="c057d8r2rn">
            <path data-name="사각형 2437" style="fill:none" d="M0 0h35.953v35.956H0z"/>
        </clipPath>
        <clipPath id="lua5jzo98o">
            <path data-name="사각형 2438" style="fill:none" d="M0 0h6.161v12.775H0z"/>
        </clipPath>
        <clipPath id="p0uzwwrb4p">
            <path data-name="사각형 2439" style="fill:none" d="M0 0h64.326v90.757H0z"/>
        </clipPath>
        <clipPath id="lgy8s7vbeq">
            <path data-name="사각형 2440" style="fill:none" d="M0 0h.565v.022H0z"/>
        </clipPath>
        <clipPath id="e0k36o76or">
            <path data-name="사각형 2441" style="fill:none" d="M0 0h29.937v15.26H0z"/>
        </clipPath>
        <clipPath id="0i4ihl6m7s">
            <path data-name="사각형 3329" style="fill:none" d="M0 0h190v218.859H0z"/>
        </clipPath>
        <clipPath id="9recvmxzrt">
            <path data-name="사각형 3306" style="fill:none" d="M0 0h173.117v30.687H0z"/>
        </clipPath>
        <clipPath id="ykwi8zwp6u">
            <path data-name="사각형 3307" style="fill:none" d="M0 0h5.781v4.703H0z"/>
        </clipPath>
        <clipPath id="fqfaqf7atv">
            <path data-name="사각형 3308" style="fill:none" d="M0 0h88.619v33.774H0z"/>
        </clipPath>
        <clipPath id="nha0tcd6gw">
            <path data-name="사각형 3309" style="fill:none" d="M0 0h7.851v9.964H0z"/>
        </clipPath>
        <clipPath id="2p6c7r9b0x">
            <path data-name="사각형 3310" style="fill:none" d="M0 0h96.718v31.249H0z"/>
        </clipPath>
        <clipPath id="0x0rt3r3qy">
            <path data-name="사각형 3311" style="fill:none" d="M0 0h6.285v13.744H0z"/>
        </clipPath>
        <clipPath id="9xirnwn93z">
            <path data-name="사각형 3312" style="fill:none" d="M0 0h2.468v3.983H0z"/>
        </clipPath>
        <clipPath id="ykacr3d3cA">
            <path data-name="사각형 3313" style="fill:none" d="M0 0h48.342v34.197H0z"/>
        </clipPath>
        <clipPath id="t91iqm6o5B">
            <path data-name="사각형 3314" style="fill:none" d="M0 0h25.792v58.918H0z"/>
        </clipPath>
        <clipPath id="6te8bgfq8C">
            <path data-name="사각형 3315" style="fill:none" d="M0 0h16.874v10.674H0z"/>
        </clipPath>
        <clipPath id="w78zb7kvkD">
            <path data-name="사각형 3316" style="fill:none" d="M0 0h5.812v8.433H0z"/>
        </clipPath>
        <clipPath id="1idp29q0mE">
            <path data-name="사각형 3317" style="fill:none" d="M0 0h2.515v6.716H0z"/>
        </clipPath>
        <clipPath id="nokrov5kwF">
            <path data-name="사각형 3318" style="fill:none" d="M0 0h9.395v19.386H0z"/>
        </clipPath>
        <clipPath id="056bhr73yG">
            <path data-name="사각형 3319" style="fill:none" d="M0 0h9.945v6.735H0z"/>
        </clipPath>
        <clipPath id="ax7wyjcfcH">
            <path data-name="사각형 3320" style="fill:none" d="M0 0h4.407v3.745H0z"/>
        </clipPath>
        <clipPath id="09n9cz2bxI">
            <path data-name="사각형 3321" style="fill:none" d="M0 0h10.673v17.573H0z"/>
        </clipPath>
        <clipPath id="uvxhnpr2pJ">
            <path data-name="사각형 3323" style="fill:none" d="M0 0h31.109v20.304H0z"/>
        </clipPath>
        <clipPath id="1pta4dypmK">
            <path data-name="사각형 3324" style="fill:none" d="M0 0h8.994v3.225H0z"/>
        </clipPath>
        <clipPath id="vjvme0hw6L">
            <path data-name="사각형 3325" style="fill:none" d="M0 0h25.511v35.926H0z"/>
        </clipPath>
        <clipPath id="49mjj4rrzM">
            <path data-name="사각형 3326" style="fill:none" d="M0 0h12.368v11.86H0z"/>
        </clipPath>
        <clipPath id="4r9uh1xxbN">
            <path data-name="사각형 3327" style="fill:none" d="M0 0h33.061v11.786H0z"/>
        </clipPath>
    </defs>
    <g data-name="마스크 그룹 37" style="clip-path:url(#1yl14nooea)" transform="translate(-235 -202)">
        <g data-name="그룹 2849" style="clip-path:url(#n31x67662b)" transform="translate(260.833 583.449)">
            <g data-name="그룹 2843">
                <g data-name="그룹 2842" style="clip-path:url(#n31x67662b)">
                    <g data-name="그룹 2841" style="opacity:.2">
                        <g data-name="그룹 2840">
                            <g data-name="그룹 2839" style="clip-path:url(#ivnwpz4rrc)" transform="translate(3.064 52.463)">
                                <path data-name="패스 7775" d="M-.005 4.077C-.005 1.825 11.183 0 151.049 0s151.055 1.825 151.055 4.077-11.189 4.077-151.055 4.077S-.005 6.329-.005 4.077"/>
                            </g>
                        </g>
                    </g>
                </g>
            </g>
            <path data-name="사각형 3332" transform="translate(10.165 8.569)" style="fill:#c28041" d="M0 0h288.003v47.971H0z"/>
            <g data-name="그룹 2848">
                <g data-name="그룹 2847" style="clip-path:url(#n31x67662b)">
                    <g data-name="그룹 2846" style="mix-blend-mode:multiply;isolation:isolate">
                        <g data-name="그룹 2845">
                            <g data-name="그룹 2844" style="clip-path:url(#hy4lqithqd)" transform="translate(10.166 48.018)">
                                <path data-name="사각형 3333" style="fill:#c28041" d="M0 0h287.906v3.739H0z"/>
                            </g>
                        </g>
                    </g>
                    <path data-name="패스 7776" d="M298.168 57.44h-288a.9.9 0 0 1-.9-.9V8.568a.9.9 0 0 1 .9-.9h288a.9.9 0 0 1 .9.9v47.971a.9.9 0 0 1-.9.9m-287.1-1.8h286.2V9.468H11.066z"/>
                    <path data-name="사각형 3335" transform="translate(.9 .901)" style="fill:#fff" d="M0 0h306.533v47.971H0z"/>
                    <path data-name="패스 7777" d="M307.433 49.772H.9a.9.9 0 0 1-.9-.9V.9A.9.9 0 0 1 .9 0h306.533a.9.9 0 0 1 .9.9v47.972a.9.9 0 0 1-.9.9M1.8 47.972h304.733V1.8H1.8z"/>
                    <path data-name="사각형 3336" d="M5.112.9h1.801v47.972H5.112z"/>
                    <path data-name="사각형 3337" d="M6.013 5.112h296.309v1.801H6.013z"/>
                    <path data-name="사각형 3338" d="M6.013 42.859h296.309v1.801H6.013z"/>
                    <path data-name="사각형 3339" d="M301.421.9h1.801v47.972h-1.801z"/>
                    <path data-name="패스 7778" d="M104.781 44.66H6.012a.9.9 0 0 1-.9-.9V6.012a.9.9 0 0 1 .9-.9h98.769a.9.9 0 0 1 .9.9v37.747a.9.9 0 0 1-.9.9m-97.869-1.8h96.969V6.912H6.913z"/>
                    <path data-name="패스 7779" d="M203.551 44.66h-98.77a.9.9 0 0 1-.9-.9V6.012a.9.9 0 0 1 .9-.9h98.77a.9.9 0 0 1 .9.9v37.747a.9.9 0 0 1-.9.9m-97.869-1.8h96.969V6.912h-96.969z"/>
                    <path data-name="패스 7780" d="M302.322 44.66h-98.77a.9.9 0 0 1-.9-.9V6.012a.9.9 0 0 1 .9-.9h98.77a.9.9 0 0 1 .9.9v37.747a.9.9 0 0 1-.9.9m-97.87-1.8h96.969V6.912h-96.969z"/>
                </g>
            </g>
        </g>
        <path data-name="패스 7781" d="m24.039 259.534 4.132-8.024h8.486l-6.191 8.024z" transform="translate(271.712 324.816)" style="fill:#327d8e"/>
        <path data-name="패스 7782" d="m415.017 259.534-4.132-8.024H402.4l6.192 8.024z" transform="translate(120.433 324.816)" style="fill:#327d8e"/>
        <path data-name="사각형 3342" transform="translate(282.223 426.277)" style="fill:#327d8e" d="M0 0h266.754v150.049H0z"/>
        <g data-name="그룹 2852">
            <path data-name="패스 7783" d="M548.976 577.227H282.223a.9.9 0 0 1-.9-.9v-150.05a.9.9 0 0 1 .9-.9h266.753a.9.9 0 0 1 .9.9v150.05a.9.9 0 0 1-.9.9m-265.853-1.8h264.953v-148.25H283.123z"/>
            <path data-name="패스 7785" d="m30.114 251.51-1.214 2.64h7.664l2.038-2.64z" transform="translate(269.768 324.816)" style="fill:#1f5c66"/>
            <path data-name="패스 7786" d="m410.886 251.51 1.214 2.64h-7.664l-2.038-2.64z" transform="translate(120.433 324.816)" style="fill:#1f5c66"/>
            <path data-name="패스 7787" d="M302.177 585.251h-6.426a.9.9 0 0 1-.8-1.313l4.131-8.022a.9.9 0 0 1 .8-.488h8.487a.9.9 0 0 1 .712 1.45l-6.191 8.023a.9.9 0 0 1-.713.35m-4.95-1.8h4.508l4.8-6.223h-6.104z"/>
            <path data-name="패스 7788" d="M535.45 585.251h-6.427a.9.9 0 0 1-.713-.35l-6.191-8.023a.9.9 0 0 1 .712-1.45h8.487a.9.9 0 0 1 .8.488l4.132 8.023a.9.9 0 0 1-.8 1.313m-5.984-1.8h4.508l-3.2-6.223h-6.106z"/>
        </g>
        <path data-name="사각형 3343" transform="translate(288.226 432.279)" style="fill:#565656" d="M0 0h254.75v138.046H0z"/>
        <path data-name="패스 7784" d="M542.975 571.226h-254.75a.9.9 0 0 1-.9-.9V432.279a.9.9 0 0 1 .9-.9h254.75a.9.9 0 0 1 .9.9v138.046a.9.9 0 0 1-.9.9m-253.85-1.8h252.95V433.179h-252.95z"/>
        <g data-name="그룹 1307" style="opacity:.2">
            <g data-name="그룹 1306">
                <g data-name="그룹 1305" style="clip-path:url(#onu18nii1e)" transform="translate(326.199 757.645)">
                    <path data-name="패스 5274" d="m58.879 33.052-31.067 8.316a1.416 1.416 0 0 1-1.48-.493L.001 7.321 32.877-.001l26.7 30.756a1.415 1.415 0 0 1-.7 2.3"/>
                </g>
            </g>
        </g>
        <path data-name="패스 5275" d="m220.92 293.309-30.35 8.022-24.921-31.551.051-10.1 55.226 23.3z" transform="translate(160.55 494.476)" style="fill:#fff"/>
        <path data-name="패스 5276" d="m190.2 300.628-25.4-30.671v-10.275l25.4 30.671z" transform="translate(160.923 494.476)" style="fill:#dd3363"/>
        <path data-name="패스 5277" d="M351.121 795.948a.845.845 0 0 1-.65-.306l-25.4-30.671a.843.843 0 0 1-.194-.538v-10.275a.844.844 0 0 1 1.494-.538l25.4 30.671a.844.844 0 0 1 .194.538v10.276a.843.843 0 0 1-.558.794.855.855 0 0 1-.286.05m-24.557-31.816 23.716 28.629v-7.629l-23.713-28.632z"/>
        <path data-name="패스 5278" d="m220.965 276.8-30.356 7.98-24.871-31.281 30.347-7.959z" transform="translate(160.511 500.664)" style="fill:#fb4273"/>
        <path data-name="패스 5279" d="M351.121 786.283a.844.844 0 0 1-.661-.318l-24.871-31.281a.844.844 0 0 1 .447-1.341l30.346-7.959a.846.846 0 0 1 .874.291l24.88 31.26a.845.845 0 0 1-.446 1.342l-30.356 7.98a.844.844 0 0 1-.214.027m-23.4-31.637 23.722 29.837 28.571-7.511-23.731-29.817z"/>
        <path data-name="패스 5280" d="M351.121 796.653a.845.845 0 0 1-.661-.318l-24.871-31.292a.852.852 0 0 1-.168-.363l-.051-.259a26.217 26.217 0 0 1 .053-10.432.844.844 0 0 1 1.652.343 24.542 24.542 0 0 0-.049 9.764l.011.057 22.915 28.832a34.079 34.079 0 0 1 .334-7.664.844.844 0 1 1 1.667.263 32.408 32.408 0 0 0-.044 9.795l.046.308a.844.844 0 0 1-.834.968"/>
        <path data-name="패스 5281" d="M351.12 796.651a.844.844 0 0 1-.215-1.66l29.721-7.857v-9.675a.844.844 0 1 1 1.688 0v10.326a.843.843 0 0 1-.628.816l-30.352 8.018a.841.841 0 0 1-.216.028"/>
        <path data-name="패스 5282" d="M355.912 788.384a.563.563 0 0 1-.142-1.107l23.051-5.985a.563.563 0 0 1 .284 1.089l-23.051 5.985a.572.572 0 0 1-.142.018"/>
        <path data-name="패스 5283" d="M364.715 789.091a.563.563 0 0 1-.141-1.107l14.248-3.7a.563.563 0 0 1 .283 1.089l-14.248 3.7a.563.563 0 0 1-.142.018"/>
        <g>
            <g data-name="그룹 1310" style="opacity:.2">
                <g data-name="그룹 1309">
                    <g data-name="그룹 1308" style="clip-path:url(#a4f90873qf)" transform="translate(293.186 773.326)">
                        <path data-name="패스 5284" d="M73.69 7.922 53.207 55.256a1.426 1.426 0 0 1-1.517.836L1.213 47.851a1.434 1.434 0 0 1-1.072-2.038L25.249.001l47.333 5.922a1.434 1.434 0 0 1 1.107 2"/>
                    </g>
                </g>
            </g>
            <path data-name="패스 5285" d="m299.927 345.139 2.494 4.026 47.595 7.339-.973-3.979" transform="translate(-6.178 468.307)" style="fill:#e4e0e0"/>
            <path data-name="패스 5286" d="M343.838 825.655a.835.835 0 0 1-.129-.01l-47.594-7.339a.843.843 0 0 1-.589-.389l-2.494-4.026a.844.844 0 1 1 1.435-.889l2.289 3.7 45.963 7.087-.673-2.752a.844.844 0 0 1 1.64-.4l.972 3.979a.844.844 0 0 1-.82 1.044"/>
            <path data-name="패스 5287" d="m407.319 277.138-.558 6.8-18.561 42.824-.969-3.978" transform="translate(-44.362 498.049)" style="fill:#e4e0e0"/>
            <path data-name="패스 5288" d="M343.838 825.655h-.073a.844.844 0 0 1-.748-.641l-.969-3.978a.844.844 0 0 1 1.64-.4l.374 1.536 17.508-40.394.545-6.657a.844.844 0 0 1 1.683.138l-.558 6.8a.83.83 0 0 1-.067.267l-18.562 42.828a.844.844 0 0 1-.774.508"/>
            <path data-name="패스 5289" d="M349.047 318.389 299.927 311l23.582-43.912 45.627 5.653z" transform="translate(-6.178 502.443)" style="fill:#fff"/>
            <path data-name="패스 5290" d="M342.87 821.677a.879.879 0 0 1-.126-.01l-49.12-7.386a.844.844 0 0 1-.618-1.234l23.582-43.912a.842.842 0 0 1 .847-.438l45.627 5.653a.843.843 0 0 1 .668 1.177l-20.088 45.645a.844.844 0 0 1-.772.5m-47.81-8.887 47.3 7.112 19.372-44.016-43.928-5.443z"/>
            <path data-name="패스 5291" d="m350.991 317.4-41.208-6.2 20-37.375 38.276 4.742z" transform="translate(-10.489 499.495)" style="fill:#565656"/>
            <path data-name="패스 5292" d="M340.502 817.742a.875.875 0 0 1-.126-.01l-41.209-6.197a.843.843 0 0 1-.618-1.233l20-37.375a.85.85 0 0 1 .848-.439l38.276 4.743a.843.843 0 0 1 .668 1.176l-17.064 38.829a.844.844 0 0 1-.772.5m-39.9-7.7 39.387 5.922 16.349-37.2-36.577-4.532z"/>
        </g>
        <g>
            <g data-name="그룹 1304" style="opacity:.2">
                <g data-name="그룹 1303">
                    <g data-name="그룹 1302" style="clip-path:url(#pjkku4akxg)" transform="translate(260.203 754.374)">
                        <path data-name="패스 5262" d="m53.173 1.6-17.74 27.851a2.581 2.581 0 0 1-1.668.612L.529 29.758a.528.528 0 0 1-.333-.938L21.442.39 52.648 0a.909.909 0 0 1 .523 1.6"/>
                    </g>
                </g>
            </g>
            <path data-name="패스 5263" d="M36.207 265.448h-1.923l-.466 1.495-.466 4.759.466 3.875.962 2.356s11.064.036 11.275 0 19.1.024 19.1.024l17.2-26.18.915-1.659v-10.631l-.823-.3-17.3 26.261z" transform="translate(227.413 503.44)" style="fill:#fff"/>
            <path data-name="패스 5264" d="m34.134 277.623 31.017.565L83.265 251.2v-11.48l-18.127 25.96-31 .608a20.563 20.563 0 0 0 0 11.334" transform="translate(227.419 503.207)" style="fill:#eaeaea"/>
            <path data-name="패스 5265" d="M310.685 755.258a.844.844 0 0 1-.844-.844v-12.51a.844.844 0 0 1 1.688 0v12.508a.844.844 0 0 1-.844.844"/>
            <path data-name="패스 5266" d="M291.083 773.796h-27.2a.563.563 0 0 1 0-1.125h27.2a.563.563 0 1 1 0 1.125"/>
            <path data-name="패스 5267" d="M291.083 777.613h-27.2a.563.563 0 1 1 0-1.125h27.2a.563.563 0 1 1 0 1.125"/>
            <path data-name="패스 5268" d="M294.801 770.782a.563.563 0 0 1-.468-.874l13.167-19.806a.563.563 0 1 1 .937.623l-13.167 19.806a.562.562 0 0 1-.469.251"/>
            <path data-name="패스 5269" d="M294.801 774.563a.563.563 0 0 1-.468-.874l13.167-19.803a.563.563 0 1 1 .937.623l-13.167 19.803a.562.562 0 0 1-.469.251"/>
            <path data-name="패스 5270" d="M65.865 264.886 83.978 237.9H53.1s-18.872 27.123-18.113 26.984 30.86 0 30.86 0z" transform="translate(226.706 504.003)" style="fill:#4a72b5"/>
            <path data-name="패스 5271" d="M261.667 769.737a.835.835 0 0 1-.7-.4c-.41-.637-.5-.769 8.964-14.6a2316.89 2316.89 0 0 1 9.185-13.316.845.845 0 0 1 .693-.362h30.875a.844.844 0 0 1 .7 1.314l-18.113 26.986a.844.844 0 0 1-.7.374h-.011c-11.85-.055-29.813-.1-30.745-.008a.841.841 0 0 1-.145.013m30.9-.849zm-21.81-.906c7.27 0 16.894.039 21.361.06l16.98-25.294h-28.85c-6.107 8.782-14.779 21.411-17.16 25.264 1.637-.021 4.418-.029 7.669-.029"/>
            <path data-name="패스 5272" d="M292.57 782.235a.834.834 0 0 1-.469-.143.843.843 0 0 1-.231-1.171l18.113-26.984a.844.844 0 0 1 1.4.941l-18.112 26.988a.842.842 0 0 1-.7.374"/>
            <path data-name="패스 5273" d="M292.571 782.24h-30.875a.844.844 0 0 1-.815-.627c-2.149-8.074-.044-12.872.047-13.073a.845.845 0 1 1 1.538.7c-.018.04-1.827 4.247-.113 11.316h30.218a.844.844 0 1 1 0 1.688"/>
        </g>
        <g>
            <g data-name="그룹 1271" style="opacity:.2">
                <g data-name="그룹 1270">
                    <g data-name="그룹 1269" style="clip-path:url(#zk99llqz1h)" transform="translate(259.223 720.443)">
                        <path data-name="패스 5226" d="M.098 7.053a2.111 2.111 0 0 0-.014 1.232q.855 2.334 10.369-1.784a57.893 57.893 0 0 0 10.458 4.332 58.449 58.449 0 0 0 25.1 1.467 65.346 65.346 0 0 0 12.345-3.131 41.413 41.413 0 0 0 16.613 4.262c12.839.466 22.718-5.574 27.792-9.35l-3.112-3.039-89-1.043z"/>
                    </g>
                </g>
            </g>
            <path data-name="패스 5227" d="M34.921 101.376s-.989-2.213.824-2.877 3.623 2.877 3.623 2.877 28-2.552 42.662.907c0 0 33.437-1.318 40.685 3.624 0 0 7.247-1.034 6.753 1.13a10.466 10.466 0 0 1-2.084 3.976s-2.2 18.613-8.293 26.684c0 0-4.283 19.766-11.365 24.872 0 0 2.141 7.248-.165 8.072s-5.93-5.765-5.93-5.765-21.413 9.718-41.014 2.306c0 0-30.053 6.588-47.969-2.306 0 0-9.77 3.294-10.961 2.141s3.681-4.117 3.681-4.117.647-26.862 14.029-35.256c0 0 7.453-23.385 15.524-26.266" transform="translate(257.261 558.009)" style="fill:#ff7724"/>
            <g data-name="그룹 1274" style="mix-blend-mode:multiply;isolation:isolate">
                <g data-name="그룹 1273">
                    <g data-name="그룹 1272" style="clip-path:url(#7jommjan5i)" transform="translate(378.356 664.552)">
                        <path data-name="패스 5228" d="M214.063 117.4a42.083 42.083 0 0 0 6.121-2.251 4.594 4.594 0 0 0 1.625-2.293l-1.457 4.47c-.82 3.67-3.609 15.45-4.43 19.12.128-4.125 4.174-17.987-1.859-19.046" transform="translate(-214.063 -112.86)" style="fill:#ff7724"/>
                    </g>
                </g>
            </g>
            <g data-name="그룹 1277" style="mix-blend-mode:multiply;isolation:isolate">
                <g data-name="그룹 1276">
                    <g data-name="그룹 1275" style="clip-path:url(#if5m7o8srj)" transform="translate(320.332 699.642)">
                        <path data-name="패스 5229" d="m163.883 183.394 1.8-8.164a33.164 33.164 0 0 1-8.36 13.95c-9.372 9.194-21.748 9.642-26.865 9.828a48.74 48.74 0 0 1-13.24-1.347l-6.283 2.414v1.539l9.065 1.744 8.308.086 15.852-3.019 5.329-1.954 4.445 5.49 1.485.276 1.581-2.074-.816-3.451-.6-2.546 2.519-2.532 5.775-10.239" transform="translate(-110.933 -175.229)" style="fill:#ff7724"/>
                    </g>
                </g>
            </g>
            <g data-name="그룹 1280" style="mix-blend-mode:multiply;isolation:isolate">
                <g data-name="그룹 1279">
                    <g data-name="그룹 1278" style="clip-path:url(#9rydnhd6sk)" transform="translate(258.948 699.22)">
                        <path data-name="패스 5230" d="M9.316 174.479c.127 3.187-.165 11.9 2.863 15.865 6.165 8.064 18.205 8.154 32.462 8.3a127.749 127.749 0 0 0 24.307-2.1l-5.733 3.2-17.354 2.729-19.83-.464-13.238-3.87-5.72 1.677-5.24.463.709-2.177 2.972-1.94a95.944 95.944 0 0 1 3.8-21.687" transform="translate(-1.833 -174.479)" style="fill:#ff7724"/>
                    </g>
                </g>
            </g>
            <g data-name="그룹 1283" style="mix-blend-mode:multiply;isolation:isolate">
                <g data-name="그룹 1282">
                    <g data-name="그룹 1281" style="clip-path:url(#yqq5nrwxgl)" transform="translate(286.292 700.15)">
                        <path data-name="패스 5231" d="M51.542 177.768c-1.467.516-1.247 2.171-.659 3.291 1.951 3.715 7.12 2.037 10.175.934a16.839 16.839 0 0 1 7.251-1.232c2.555.181 5.189.122 7.765.186.608-1.175 4.715-3.641 5.324-4.816l-14.313.147c-4.594 1.474-10.948.017-15.542 1.49" transform="translate(-50.433 -176.131)" style="fill:#ff7724"/>
                    </g>
                </g>
            </g>
            <path data-name="패스 5232" d="M364.417 729.567c-2.293 0-4.753-3.679-5.886-5.609-3.9 1.585-23.085 8.655-40.715 2.114-3.1.652-30.624 6.106-47.965-2.272-4.622 1.536-10.234 3.052-11.489 1.831a1.435 1.435 0 0 1-.434-1.216c.16-1.432 2.521-3.126 3.875-3.986.15-3.7 1.588-27.14 14.148-35.325.9-2.764 7.553-22.388 15.206-26.2a3.186 3.186 0 0 1 .119-1.871 2.4 2.4 0 0 1 1.441-1.316c2-.737 3.714 1.661 4.383 2.78 4.082-.347 28.58-2.241 42.273.948 2.48-.093 33.057-1.143 40.8 3.594 1.665-.218 5.779-.594 7.006.739a1.575 1.575 0 0 1 .375 1.457 11.119 11.119 0 0 1-2.1 4.135c-.293 2.327-2.55 18.886-8.316 26.7-.466 2.088-4.49 19.352-11.182 24.832.632 2.326 1.75 7.618-.849 8.546a2.055 2.055 0 0 1-.69.118m-5.524-7.522a.844.844 0 0 1 .74.437c1.552 2.818 3.945 5.722 4.907 5.376.89-.317.543-3.977-.361-7.036a.843.843 0 0 1 .316-.924c6.741-4.861 10.992-24.171 11.034-24.366a.853.853 0 0 1 .151-.33c5.886-7.794 8.108-26.09 8.129-26.274a.844.844 0 0 1 .2-.457 9.69 9.69 0 0 0 1.889-3.581c-.5-.437-3.212-.5-5.805-.133a.85.85 0 0 1-.595-.138c-6.936-4.729-39.845-3.491-40.176-3.478a.748.748 0 0 1-.227-.022c-14.358-3.388-42.112-.914-42.39-.888a.849.849 0 0 1-.828-.455c-.62-1.2-1.863-2.736-2.582-2.469a.713.713 0 0 0-.466.389 2.091 2.091 0 0 0 .124 1.355.848.848 0 0 1-.488 1.135c-7.587 2.709-14.93 25.5-15 25.728a.844.844 0 0 1-.356.459c-12.842 8.049-13.628 34.295-13.635 34.556a.845.845 0 0 1-.405.7 12.312 12.312 0 0 0-3.394 2.8c1.281.188 6.008-1 9.965-2.339a.847.847 0 0 1 .645.044c17.44 8.657 47.116 2.3 47.414 2.238a.841.841 0 0 1 .479.035c19.034 7.2 40.155-2.19 40.367-2.285a.839.839 0 0 1 .348-.075"/>
            <path data-name="패스 5233" d="M337.179 704.065a.844.844 0 0 1-.654-1.377c.224-.275 5.569-6.723 12.662-6.363a.844.844 0 0 1-.086 1.686c-6.23-.307-11.219 5.684-11.268 5.744a.842.842 0 0 1-.654.309"/>
            <path data-name="패스 5234" d="M317.877 726.034a.844.844 0 0 1-.19-1.666 35.343 35.343 0 0 0 7.919-3.016.844.844 0 0 1 .82 1.476 36.415 36.415 0 0 1-8.358 3.184.861.861 0 0 1-.191.022"/>
            <g data-name="그룹 1286" style="mix-blend-mode:multiply;isolation:isolate">
                <g data-name="그룹 1285">
                    <g data-name="그룹 1284" style="clip-path:url(#tfuswd6djm)" transform="translate(317.297 697.759)">
                        <path data-name="패스 5235" d="M105.635 192.168c.376.542 2.19.788 3.179.823a9.5 9.5 0 0 0 2.882-.41c4.171-1.353 12.595-10.783 18.729-15.834a50.142 50.142 0 0 1 7.084-4.866q-1.787.074-3.7.263a63.792 63.792 0 0 0-11.245 2.167c-15.052 13.066-17.6 16.893-16.934 17.858" transform="translate(-105.539 -171.88)" style="fill:#ff7724"/>
                    </g>
                </g>
            </g>
            <g data-name="그룹 1289" style="mix-blend-mode:multiply;isolation:isolate">
                <g data-name="그룹 1288">
                    <g data-name="그룹 1287" style="clip-path:url(#c057d8r2rn)" transform="translate(339.276 664.736)">
                        <path data-name="패스 5236" d="M154.761 145.063c4.052-8.322 8.87-12.876 12.58-15.509 3.467-2.46 10.315-6.327 12.252-11.623.3-.82 1.513-4.138.673-4.67a.748.748 0 0 0-.594-.018c-1.956.571-17.28 6.864-17.28 6.864l-12.4 17.875-5.382 8.106.263 3.056 4.571-2.311 5.322-1.769" transform="translate(-144.605 -113.188)" style="fill:#ff7724"/>
                    </g>
                </g>
            </g>
            <path data-name="패스 5237" d="m97.09 26.518.963-3.283 1.155-5.528 3.336-4.6 4.758-.549 3.538 1.624 1.92 6.513-.82 2.934-9.957 1.471z" transform="translate(215.453 595.559)" style="fill:#fcbf00"/>
            <g data-name="그룹 1292" style="mix-blend-mode:multiply;isolation:isolate">
                <g data-name="그룹 1291">
                    <g data-name="그룹 1290" style="clip-path:url(#lua5jzo98o)" transform="translate(317.93 607.886)">
                        <path data-name="패스 5238" d="M110.528 12.145s-3.865 1.8-3.865 8.9l.154 3.87h2.391l3.617-11.553z" transform="translate(-106.664 -12.145)" style="fill:#fcbf00"/>
                    </g>
                </g>
            </g>
            <path data-name="패스 5239" d="M312.543 622.922a.843.843 0 0 1-.8-1.113 38.644 38.644 0 0 0 1.613-6.555c.482-3.208 1.695-5.537 3.605-6.921a7.068 7.068 0 0 1 4.974-1.278 8.8 8.8 0 0 1 5.389 3.253c1.658 2.166 2.249 5.1 1.757 8.712a.844.844 0 1 1-1.672-.227c.429-3.154-.051-5.663-1.425-7.459a7.123 7.123 0 0 0-4.3-2.61 5.454 5.454 0 0 0-3.757.993c-1.517 1.111-2.494 3.058-2.9 5.788a40.29 40.29 0 0 1-1.683 6.843.844.844 0 0 1-.8.574"/>
            <path data-name="패스 5240" d="m127.245 32.735-4.59-.248L117.911 31l-2.024-2.3-.375-2.015v-1.51l-2.6-.164-1.846-.923-1.144-1.67-.671-2.389.643-4.654 1.364-4.106 2.451-1.7 2.449-.179-.725-2.008.483-2.342 2.848-1.952 4.4-1.273 3.286-.219 2.421 1.025.709 1.358.509 1.416 2.419-.206 2.637 1.337 3.2 3.06.758 1.792-.643 2.213-1.2 1.164.675.482 2.259 1.2 1.072 2.476-.843 3.8-2.575 4.479-1.646.771-1.92-.3-1.84-1.878-.029 2.567-.46 2.212-3.076 2.023z" transform="translate(210.134 600.355)" style="fill:#ffffe1"/>
            <path data-name="패스 5241" d="M153.838 27.1s4.392.092 4.117 3.981a22.782 22.782 0 0 1-1.327 6.451l1.974-2.126 1.6-4.6-.506-4.144-1.561-.828-1.373-.852z" transform="translate(190.633 590.125)" style="fill:#e4e4bc"/>
            <path data-name="패스 5242" d="M120.237 34.147c1.347-.941 1.543-1.307 1.471-1.467-.175-.39-1.938.454-4.386.369-1.175-.041-3.712-.129-5.331-1.948a6.235 6.235 0 0 1-1.328-4.6l-.455 3.72 1.335 4.136 3.356 1.353 5.338-1.562" transform="translate(209.716 589.463)" style="fill:#e4e4bc"/>
            <path data-name="패스 5243" d="M123.842 6.131a5.315 5.315 0 0 0 .42 6.5L122 11.373l-.7-2.263a3.833 3.833 0 0 1 .592-1.484 3.95 3.95 0 0 1 1.95-1.495" transform="translate(204.864 598.371)" style="fill:#e4e4bc"/>
            <path data-name="패스 5244" d="M135.792 1.688a5.338 5.338 0 0 1 2.382 1.98 5.773 5.773 0 0 1 .48 4.865l2.392-3.63-.564-2.242-4.689-.973" transform="translate(198.526 600.315)" style="fill:#e4e4bc"/>
            <path data-name="패스 5245" d="M156.272 14.216a12.831 12.831 0 0 1-.585 2.925 13.018 13.018 0 0 1-2.436 4.367l3.948-1.384.924-2.46-1.85-3.448" transform="translate(190.89 594.836)" style="fill:#e4e4bc"/>
            <path data-name="패스 5246" d="M324.553 626.374a5.969 5.969 0 0 1-3.586-1.034c-1.922-1.409-2.616-4.125-2.061-8.072.641-4.565 2.184-7.3 4.584-8.117 3.541-1.209 7.305 2.222 8.024 2.922a.844.844 0 1 1-1.178 1.209c-1.323-1.289-4.139-3.275-6.3-2.534-1.724.59-2.921 2.926-3.459 6.755-.461 3.283.006 5.461 1.388 6.475 2.1 1.542 6.124.178 7.5-.477a.844.844 0 1 1 .726 1.523 14.865 14.865 0 0 1-5.636 1.349"/>
            <path data-name="패스 5247" d="M345.89 629.193a5.939 5.939 0 0 1-3.865-1.829.844.844 0 0 1 1.235-1.151c.026.027 1.562 1.629 3.16 1.227 1.489-.375 2.765-2.4 3.69-5.851a4.486 4.486 0 0 0-.385-3.943 3.675 3.675 0 0 0-2.782-1.381.844.844 0 0 1-.816-.871.852.852 0 0 1 .871-.816 5.4 5.4 0 0 1 4.082 2.063c.7.95 1.392 2.655.66 5.386-1.11 4.146-2.765 6.52-4.92 7.055a3.849 3.849 0 0 1-.93.114"/>
            <path data-name="패스 5248" d="M326.802 610.897a.843.843 0 0 1-.679-.342c-1.586-2.143-1.413-3.811-.989-4.832.943-2.272 3.991-3.8 9.06-4.555a6.7 6.7 0 0 1 5.077.931 4.484 4.484 0 0 1 1.76 3.043.844.844 0 1 1-1.671.237 2.854 2.854 0 0 0-1.1-1.928 5.119 5.119 0 0 0-3.819-.614c-4.317.639-7.068 1.893-7.749 3.532-.374.9-.109 1.97.787 3.181a.844.844 0 0 1-.677 1.346"/>
            <path data-name="패스 5249" d="M343.892 617.635a.844.844 0 0 1-.227-1.656c1.146-.322 4.218-1.558 4.669-3.4.249-1.018-.336-2.2-1.741-3.523-2.429-2.283-4.525-3.314-5.9-2.909-1.065.315-1.866 1.537-2.382 3.631a.844.844 0 1 1-1.639-.4c.668-2.718 1.86-4.349 3.542-4.846 2.029-.6 4.565.509 7.533 3.3 1.883 1.769 2.631 3.5 2.224 5.158-.781 3.172-5.647 4.56-5.854 4.618a.849.849 0 0 1-.226.031"/>
            <path data-name="패스 5250" d="M336.629 633.959c-1.634 0-7.171-.177-9.819-2.455a5.234 5.234 0 0 1-1.452-6.392.844.844 0 0 1 1.464.842 3.568 3.568 0 0 0 1.089 4.27c1.445 1.243 4.867 2.047 8.718 2.047 2.049 0 3.5-.574 4.318-1.706 1.694-2.349.361-6.439.347-6.48a.844.844 0 0 1 1.6-.536c.068.2 1.623 4.943-.574 8-1.151 1.6-3.066 2.412-5.69 2.412"/>
            <path data-name="패스 5251" d="m57.628 97.121-4.109.062-2.168.676-1.92 1.3-1.277 3.716v7.2l2.391 4.54 3.649 2.03 5.757-.393 6.136-3.128 11.2-.357 1.839.124v1.362l-4.956 4.839-.822 4.02s1.193 3.458 1.4 3.729 4.379 3.391 4.379 3.391 4.07.6 4.386.538 4.085-1.679 3.993-1.622 3.7-3.477 3.7-3.477l9.851-9.942 5.45-6.492s2.815-3.469 3.166-3.837 4.021-5.833 4.021-5.833l3.831-5.792 2.159-3.5 4.193-.683 6.447-2.806 4.428-4.048 2.745-5.117.541-4.986-1.907-2.55L133.065 68l-3.6-1.39-1.365-1.568.609-12.47L127.1 42l-1.874-3.636-6.988-3.65-8.165-1.682-11.25-1.24-7.433-.061-8.3 1.126-7.4 2.045-5.892 3.073-2.215 2.7-1.116 3.472.028 7.266.614 15.174-.542 10.306-.812 5.555-2.145 4.207z" transform="translate(236.856 587.175)" style="fill:#fcbf00"/>
            <path data-name="패스 5252" d="M292.825 704.683a8.773 8.773 0 0 1-7.435-3.891c-2.385-3.289-1.157-11.578-1.01-12.513a.844.844 0 0 1 1.667.263c-.371 2.348-.965 8.95.709 11.258 3.1 4.278 8.4 4.2 15.751-.227a.846.846 0 0 1 .427-.121l14.313-.147h.009a.844.844 0 0 1 .008 1.688l-14.084.145q-5.953 3.545-10.355 3.545"/>
            <path data-name="패스 5253" d="M294.484 685.14a.844.844 0 0 1-.727-1.272c2.054-3.5 7.506-12.929 8.053-14.518.6-1.761 2.1-15.917.822-29.354-.664-7-1.35-14.221 7.149-17.621 11.293-4.517 17.58-4.4 24.861-4.27l1.052.019c7.032.117 25.2 2.733 28.449 8.515 3.005 5.357 3.047 22.5.084 34.608a.844.844 0 1 1-1.639-.4c2.829-11.564 2.872-28.411.084-33.38-2.64-4.706-19.225-7.525-27.005-7.654l-1.054-.019c-7.1-.131-13.227-.242-24.2 4.149-7.326 2.93-6.757 8.927-6.1 15.87 1.3 13.657-.194 28.02-.9 30.086-.7 2.04-7.428 13.522-8.193 14.825a.844.844 0 0 1-.729.416"/>
            <path data-name="패스 5254" d="M299.995 694.481a.844.844 0 0 1-.844-.844v-5.225a.844.844 0 1 1 1.688 0v5.225a.844.844 0 0 1-.844.844"/>
            <path data-name="패스 5255" d="M285.216 689.256a.816.816 0 0 1-.1-.006.843.843 0 0 1-.742-.935c.335-2.9 3.795-5 8.228-5 4.618 0 8.235 2.24 8.235 5.1a.844.844 0 1 1-1.688 0c0-1.648-2.631-3.412-6.547-3.412-3.848 0-6.353 1.784-6.552 3.509a.844.844 0 0 1-.837.747"/>
            <path data-name="패스 5256" d="M319.088 718.905a9.633 9.633 0 0 1-5.56-1.9c-5.281-3.682-4.528-8.733-3.251-11.137a.881.881 0 0 1 .058-.093l.374-.526a.808.808 0 0 1 .11-.126l7.615-7.166a.844.844 0 1 1 1.157 1.229l-7.554 7.109-.293.411c-.363.711-2.432 5.3 2.75 8.915 3.761 2.623 7.628 1.989 11.819-1.939l.7-.665a172.45 172.45 0 0 0 28.795-36.001.846.846 0 0 1 .658-.407c11.827-.928 17.892-9.759 17.564-15.508-.287-5.016-9.3-6.848-9.386-6.866a.844.844 0 1 1 .325-1.656c.424.083 10.385 2.1 10.747 8.425.373 6.516-5.914 16.048-18.682 17.25a174.1 174.1 0 0 1-28.858 35.988l-.7.671c-2.841 2.664-5.645 4-8.384 4"/>
            <path data-name="패스 5257" d="M292.491 691.375a10.412 10.412 0 0 1-4.691-1.069.844.844 0 0 1 .813-1.479 9.155 9.155 0 0 0 7.841-.026.844.844 0 1 1 .707 1.533 11.063 11.063 0 0 1-4.669 1.042"/>
            <path data-name="패스 5258" d="M323.593 713.24a.844.844 0 0 1-.82-.646 8.046 8.046 0 0 0-7.256-5.756.844.844 0 1 1 .163-1.68 9.871 9.871 0 0 1 8.735 7.042.844.844 0 0 1-.626 1.016.834.834 0 0 1-.2.023"/>
            <g data-name="그룹 1295" style="mix-blend-mode:multiply;isolation:isolate">
                <g data-name="그룹 1294">
                    <g data-name="그룹 1293" style="clip-path:url(#p0uzwwrb4p)" transform="translate(310.45 627.053)">
                        <path data-name="패스 5259" d="M121.148 111.344c1.906-2.259 4.2-4.2 6.019-6.537a33.684 33.684 0 0 0 4.878-9.726 93.691 93.691 0 0 0 4.03-17.107c.046-.313.092-.627.132-.941.518-4.056.835-8.281.835-8.281.294-3.907.337-6.509.5-8.679.155-2.02.281-4.043.348-6.067a5.29 5.29 0 0 1 1.266-3.578 4.545 4.545 0 0 1 1.048-.8l6.119-3.414 1.9 8.117c-.182 2.327-.116 14.766-.5 18.231a39.653 39.653 0 0 1 6.564 2.227c3.186 1.755 4.034 5.533 2.975 9.164-.969 2.359-1.879 5.593-5.768 8.146-5.963 3.916-12.255 3.9-12.045 4.508a187.891 187.891 0 0 1-16.992 23.247 187.683 187.683 0 0 1-14.581 15.214c-1.221.9-2.379 1.327-2.977 1.143-1.857 1.314-5.128.917-7.9-1.118-3.213-2.356-4.54-6.008-2.963-8.159s5.459-1.984 8.672.371a8.752 8.752 0 0 1 3.509 4.984 2.764 2.764 0 0 1 .28-.113 65.813 65.813 0 0 0 8.182-9.963c1.69-2.694 3.024-5.589 4.639-8.325a18.689 18.689 0 0 1 1.831-2.54" transform="translate(-93.37 -46.211)" style="fill:#fcbf00"/>
                    </g>
                </g>
            </g>
            <g data-name="그룹 1298" style="mix-blend-mode:multiply;isolation:isolate">
                <g data-name="그룹 1297">
                    <g data-name="그룹 1296" style="clip-path:url(#lgy8s7vbeq)" transform="translate(295.442 703.221)">
                        <path data-name="패스 5260" d="M67.26 181.59h-.565a1.946 1.946 0 0 0 .565 0" transform="translate(-66.695 -181.59)" style="fill:#fbbe00"/>
                    </g>
                </g>
            </g>
            <g data-name="그룹 1301" style="mix-blend-mode:multiply;isolation:isolate">
                <g data-name="그룹 1300">
                    <g data-name="그룹 1299" style="clip-path:url(#e0k36o76or)" transform="translate(289.155 688.411)">
                        <path data-name="패스 5261" d="m85.459 164.732-14.878-.1-1.271-.008c-2.476-.411-2.949-4.983-2.949-4.983v-4.377c-3.775 2.613-9.512 1.911-9.512 1.911.013 11.306-1.327 12.17-1.327 12.17l1.095 1.179 4.416-.1 5.684-1.846 3.031-1.428h13.875z" transform="translate(-55.522 -155.267)" style="fill:#fcbf00"/>
                    </g>
                </g>
            </g>
        </g>
        <g>
            <g data-name="그룹 2838" style="clip-path:url(#0i4ihl6m7s)" transform="translate(394 606.828)">
                <g data-name="그룹 2837">
                    <g data-name="그룹 2836" style="clip-path:url(#0i4ihl6m7s)">
                        <g data-name="그룹 2772" style="opacity:.2">
                            <g data-name="그룹 2771">
                                <g data-name="그룹 2770" style="clip-path:url(#9recvmxzrt)" transform="translate(4.554 188.172)">
                                    <path data-name="패스 7679" d="M1.624 0s-3.65 2.2 0 3.518 4.97.7 4.97.7a123.28 123.28 0 0 0 7.552 5.459 117.92 117.92 0 0 0 19.519 10.6c16.145 6.542 35.046 5.087 40.8 4.516 11.956 3.478 29.623 7.092 49.519 5.507 16.181-1.289 25.4-5.344 28.831-6.983a70.928 70.928 0 0 0 13.114-8.126 8.94 8.94 0 0 0 6.234-.079c4.368-1.67-7.6-9.05-9.2-10.272z"/>
                                </g>
                            </g>
                        </g>
                        <path data-name="패스 7680" d="M6.794 264.378s-5.216 3.3-5.042 5.067 5.591 1.77 5.591 1.77 32.847 25.434 68.677 21.453c0 0 61.486 14.819 91.345-10.4 0 0 6.414 1.471 6.414-1.586s-5.308-5.491-5.308-5.491-2.875-21.454-11.28-28.089c0 0-2.433-11.722-7.3-15.261 0 0 .443-5.529-1.548-5.087a10.717 10.717 0 0 0-3.318 1.327s-25.877-4.424-44.456 2.211c0 0-37.5-4.424-56.9-1.327 0 0-3.922-2.889-6.355-2.329s-.443 2.993-.443 2.993-12.607 5.308-14.6 10.173c0 0-17.469 8.667-15.48 24.571" transform="translate(-.655 -84.95)" style="fill:#ff5b93"/>
                        <g data-name="그룹 2775" style="mix-blend-mode:multiply;isolation:isolate">
                            <g data-name="그룹 2774">
                                <g data-name="그룹 2773" style="clip-path:url(#ykwi8zwp6u)" transform="translate(23.617 148.606)">
                                    <path data-name="패스 7681" d="M43.037 237.747s-.928 2.962.528 4.342l-5.781.362z" transform="translate(-37.783 -237.747)" style="fill:#ff5b93"/>
                                </g>
                            </g>
                        </g>
                        <g data-name="그룹 2778" style="mix-blend-mode:multiply;isolation:isolate">
                            <g data-name="그룹 2777">
                                <g data-name="그룹 2776" style="clip-path:url(#fqfaqf7atv)" transform="translate(1.397 174.052)">
                                    <path data-name="패스 7682" d="M90.3 306.826a.483.483 0 0 1 .311.894c-.793.469-3.041 1.331-4.088 1.8a29.19 29.19 0 0 1-9.283 2.369c-12.606 1.286-25.661-1.466-25.661-1.466A107.6 107.6 0 0 1 25.59 301.3l-15.141-8.267c-2.922-1.521-5.049-2.549-6.709-3.269-.449-.2-1.442-.616-1.5-1.3-.051-.583.6-1.039 1.218-1.594a11.5 11.5 0 0 0 2.537-3.385 29.985 29.985 0 0 1 1.042-5.032 25.517 25.517 0 0 0 9.09 12.02c11.145 7.959 31.442 17.458 57.587 17.69a118.079 118.079 0 0 0 16.586-1.337" transform="translate(-2.235 -278.458)" style="fill:#ff5b93"/>
                                </g>
                            </g>
                        </g>
                        <g data-name="그룹 2781" style="mix-blend-mode:multiply;isolation:isolate">
                            <g data-name="그룹 2780">
                                <g data-name="그룹 2779" style="clip-path:url(#nha0tcd6gw)" transform="translate(120.969 163.169)">
                                    <path data-name="패스 7683" d="m197.034 264.339-3.5 6.479 7.85.193c-2.495-1.53-3.025-2.733-2.987-3.586.056-1.248 1.329-1.828 1.575-3.571a4.8 4.8 0 0 0-.542-2.807l-2.4 3.292" transform="translate(-193.532 -261.047)" style="fill:#ff5b93"/>
                                </g>
                            </g>
                        </g>
                        <g data-name="그룹 2784" style="mix-blend-mode:multiply;isolation:isolate">
                            <g data-name="그룹 2783">
                                <g data-name="그룹 2782" style="clip-path:url(#2p6c7r9b0x)" transform="translate(76.406 180.795)">
                                    <path data-name="패스 7684" d="M211.731 289.245a48.776 48.776 0 0 1-9 11.55c-14.02 13.231-32.15 14.108-40.121 14.494a79.383 79.383 0 0 1-26.678-3.323l-13.694 3.969 15.153 3.034 29.323 1.526 16.546-1.973 20.7-6.972 8.58-5.777 3.637.336 2.777-1.922-.719-2.93-4.589-2.561-1.917-9.45" transform="translate(-122.239 -289.245)" style="fill:#ff5b93"/>
                                </g>
                            </g>
                        </g>
                        <g data-name="그룹 2787" style="mix-blend-mode:multiply;isolation:isolate">
                            <g data-name="그룹 2786">
                                <g data-name="그룹 2785" style="clip-path:url(#0x0rt3r3qy)" transform="translate(149.997 147.318)">
                                    <path data-name="패스 7685" d="M239.973 235.687s4.69 10.5.5 11.422l5.786 2.321z" transform="translate(-239.973 -235.687)" style="fill:#ff5b93"/>
                                </g>
                            </g>
                        </g>
                        <g data-name="그룹 2790" style="mix-blend-mode:multiply;isolation:isolate">
                            <g data-name="그룹 2789">
                                <g data-name="그룹 2788" style="clip-path:url(#9xirnwn93z)" transform="translate(41.59 168.958)">
                                    <path data-name="패스 7686" d="M68.488 270.308s-.488 3.2-1.951 3.983h2.469z" transform="translate(-66.537 -270.308)" style="fill:#ff5b93"/>
                                </g>
                            </g>
                        </g>
                        <path data-name="패스 7687" d="M114.382 213.136q-2.35 0-4.574-.067a191.206 191.206 0 0 1-34.51-4.244 70.473 70.473 0 0 1-7.579.4c-30.967 0-58.252-19.538-61.4-21.874-2.078-.037-6.079-.413-6.31-2.753-.191-1.945 2.8-4.3 4.97-5.727-1.37-14.769 13.309-23.449 15.8-24.81 2.134-4.272 10.62-8.424 13.866-9.887a2.809 2.809 0 0 1-.17-2.009 2.428 2.428 0 0 1 1.94-1.545c2.445-.564 5.719 1.461 6.869 2.246 18.81-2.857 52.936.948 56.506 1.361 17.565-6.167 40.9-2.793 44.365-2.24a12.386 12.386 0 0 1 3.3-1.251 1.921 1.921 0 0 1 1.717.424c1.208 1.051 1.259 3.8 1.2 5.227 4.378 3.718 6.7 13.106 7.159 15.158 7.734 6.511 10.764 24.433 11.294 27.968 1.521.788 5.4 3.1 5.4 6.218a2.645 2.645 0 0 1-1.01 2.143c-1.63 1.3-4.813.884-6.2.622-14.368 11.846-35.715 14.634-52.623 14.635m-39.017-6.512a1.109 1.109 0 0 1 .256.031c.609.146 61.3 14.394 90.383-10.168a1.093 1.093 0 0 1 .949-.231c1.5.343 4.091.549 4.892-.089a.476.476 0 0 0 .185-.431c0-1.915-3.459-3.939-4.67-4.5a1.094 1.094 0 0 1-.628-.849c-.028-.21-2.915-21.093-10.874-27.376a1.093 1.093 0 0 1-.394-.636c-.023-.113-2.4-11.35-6.871-14.6a1.1 1.1 0 0 1-.447-.971 9.454 9.454 0 0 0-.347-3.9 9.755 9.755 0 0 0-2.825 1.142 1.093 1.093 0 0 1-.788.166c-.256-.043-25.816-4.3-43.9 2.165a1.106 1.106 0 0 1-.5.056c-.373-.044-37.565-4.37-56.6-1.334a1.1 1.1 0 0 1-.821-.2c-1.364-1-4.057-2.464-5.461-2.145a.853.853 0 0 0-.377.151 2.532 2.532 0 0 0 .536 1.084 1.095 1.095 0 0 1-.422 1.7c-3.392 1.429-12.519 5.936-14.009 9.58a1.1 1.1 0 0 1-.526.565c-.168.084-16.75 8.523-14.883 23.455a1.1 1.1 0 0 1-.5 1.06c-2.235 1.414-4.334 3.275-4.525 4 .432.428 2.548.821 4.49.823a1.093 1.093 0 0 1 .669.229c.326.251 32.934 25.115 67.887 21.232a1.11 1.11 0 0 1 .121-.007"/>
                        <path data-name="패스 7688" d="M75.364 208.812a1.094 1.094 0 0 1-.15-2.177c.092-.013 9.353-1.331 13.971-4.06a1.094 1.094 0 1 1 1.114 1.883c-5 2.953-14.385 4.289-14.782 4.344a1.058 1.058 0 0 1-.153.011"/>
                        <path data-name="패스 7689" d="M21.621 155.951a1.094 1.094 0 0 1-.4-2.113 24.637 24.637 0 0 1 7.253-1.623 1.094 1.094 0 1 1 0 2.188 22.839 22.839 0 0 0-6.46 1.474 1.087 1.087 0 0 1-.4.074"/>
                        <path data-name="패스 7690" d="M156.535 163.249a1.089 1.089 0 0 1-.716-.268 17.505 17.505 0 0 0-4.758-2.678 1.094 1.094 0 0 1 .776-2.045 19.269 19.269 0 0 1 5.417 3.073 1.094 1.094 0 0 1-.719 1.918"/>
                        <path data-name="패스 7691" d="M104.31 79.12s-18.015 11.83-21.035 29.947" transform="translate(-31.223 -29.665)" style="fill:#fff"/>
                        <path data-name="패스 7692" d="M52.054 80.34a.94.94 0 0 1-.926-1.091c3.051-18.31 20.7-30.085 21.444-30.577a.938.938 0 0 1 1.03 1.568c-.178.116-17.71 11.828-20.625 29.316a.938.938 0 0 1-.924.784"/>
                        <path data-name="패스 7693" d="M114.51 77.023s-45.2-3.5-48.342 34.111" transform="translate(-24.809 -28.847)" style="fill:#5b666c"/>
                        <path data-name="패스 7694" d="M41.36 83.381h-.092a1.1 1.1 0 0 1-1-1.181c1.325-15.85 10.35-26.952 26.1-32.107a66.823 66.823 0 0 1 23.416-3 1.094 1.094 0 0 1-.169 2.181 65.8 65.8 0 0 0-22.625 2.92c-15.021 4.929-23.278 15.087-24.543 30.184a1.094 1.094 0 0 1-1.089 1"/>
                        <g data-name="그룹 2793" style="mix-blend-mode:multiply;isolation:isolate">
                            <g data-name="그룹 2792">
                                <g data-name="그룹 2791" style="clip-path:url(#ykacr3d3cA)" transform="translate(41.359 48.09)">
                                    <path data-name="패스 7695" d="M114.51 77.023s-45.2-3.5-48.342 34.111" transform="translate(-66.168 -76.937)" style="fill:#5b666c"/>
                                </g>
                            </g>
                        </g>
                        <path data-name="패스 7696" d="M53.079 147.915c0-10.076 4.837-18.244 10.8-18.244s10.805 8.168 10.805 18.244-4.838 18.244-10.805 18.244-10.8-8.168-10.8-18.244" transform="translate(-19.902 -48.619)" style="fill:#fff"/>
                        <path data-name="패스 7697" d="M43.983 118.637c-6.672 0-11.9-8.495-11.9-19.338s5.226-19.337 11.9-19.337 11.9 8.495 11.9 19.337-5.229 19.338-11.9 19.338m0-36.488c-5.264 0-9.711 7.853-9.711 17.15s4.447 17.15 9.711 17.15 9.711-7.853 9.711-17.15-4.447-17.15-9.711-17.15"/>
                        <path data-name="패스 7698" d="M58.348 144.584c0-12.4 6.216-22.448 13.883-22.448s13.884 10.05 13.884 22.448-6.215 22.449-13.884 22.449-13.883-10.05-13.883-22.448" transform="translate(-21.877 -45.794)" style="fill:#303030"/>
                        <path data-name="패스 7699" d="M50.354 122.333c-8.258 0-14.977-10.561-14.977-23.543s6.719-23.542 14.977-23.542S65.332 85.809 65.332 98.79s-6.719 23.543-14.978 23.543m0-44.9c-7.052 0-12.789 9.58-12.789 21.354s5.737 21.355 12.789 21.355 12.79-9.58 12.79-21.355-5.737-21.354-12.79-21.354"/>
                        <path data-name="패스 7700" d="M83.371 192.569c-1.74-6.1-4-9.6-6.072-19.443-6.5-30.844-6.158-50.013-6.158-50.025.132-9.515 3.918-20.843 13.019-25.237 6.319-3.052 14.8-2.878 21.6-3.24 8.6-.458 12.889-.222 25.276.357 27.69 1.294 37.239 14.837 37.228 31.262-.012 17.313-1.808 41.441-8.422 57.5-7.313 17.759-14.286 28.126-18.847 28.474H90.732" transform="translate(-26.673 -35.388)" style="fill:#f7ba00"/>
                        <path data-name="패스 7701" d="M114.361 177.925h-50.3v-2.188h50.213c3.1-.292 9.622-7.735 17.882-27.8 7.5-18.22 8.331-45.992 8.34-57.086.013-18.63-12.5-29.062-36.185-30.169l-1.4-.066c-11.32-.529-15.555-.728-23.765-.291-1.051.056-2.142.1-3.26.144-5.99.237-12.778.505-17.919 2.988-8.965 4.33-12.283 15.778-12.4 24.268-.013.789-.234 19.574 6.134 49.784a80.145 80.145 0 0 0 3.926 13.147c.758 2.02 1.475 3.928 2.128 6.221l-2.1.6c-.629-2.207-1.33-4.075-2.072-6.053a82.981 82.981 0 0 1-4.018-13.464c-6.419-30.448-6.194-49.471-6.181-50.267.126-9.111 3.773-21.443 13.638-26.206 5.551-2.68 12.581-2.959 18.784-3.2 1.107-.044 2.189-.088 3.231-.142 8.318-.444 12.584-.243 23.982.29l1.4.066c31.648 1.479 38.279 18.412 38.27 32.355-.008 11.225-.853 39.338-8.5 57.918-4.388 10.657-12.793 28.616-19.775 29.148z"/>
                        <g data-name="그룹 2796" style="mix-blend-mode:multiply;isolation:isolate">
                            <g data-name="그룹 2795">
                                <g data-name="그룹 2794" style="clip-path:url(#t91iqm6o5B)" transform="translate(114.319 117.913)">
                                    <path data-name="패스 7702" d="M197.749 190.484c-.632 6.473-2.988 23.846-5.272 32.176a134.047 134.047 0 0 1-9.583 24.9h1.913l1.224-1.493 6.591-7.674 6.587-13.421 5.816-12.252 3.66-24.077" transform="translate(-182.894 -188.643)" style="fill:#f8bb00"/>
                                </g>
                            </g>
                        </g>
                        <path data-name="패스 7703" d="M89.514 253.572h5.081l4.3 18.357-3.965-.023z" transform="translate(-33.562 -95.075)" style="fill:#f7ba00"/>
                        <path data-name="패스 7704" d="M104.522 262.354c0-13.271 9.133-24.029 22.041-24.029s23.372 10.758 23.372 24.029a24.927 24.927 0 0 1-.3 3.835h-44.813a24.85 24.85 0 0 1-.3-3.835" transform="translate(-39.19 -89.358)" style="fill:#fff"/>
                        <path data-name="패스 7705" d="M88.414 177.93H60.738a1.1 1.1 0 1 1 0-2.2h27.676a1.1 1.1 0 1 1 0 2.2"/>
                        <path data-name="패스 7706" d="M92.835 269.776h-15.7c-3.672 0-6.649-4.1-6.649-9.167s2.977-9.167 6.649-9.167h6.372l-1-3.551" transform="translate(-26.428 -92.945)" style="fill:#f7ba00"/>
                        <path data-name="패스 7707" d="M66.407 177.925H50.708c-4.269 0-7.743-4.6-7.743-10.261s3.473-10.261 7.743-10.261h4.927l-.61-2.159a1.095 1.095 0 1 1 2.106-.6l1 3.55a1.094 1.094 0 0 1-1.053 1.391h-6.37c-3.063 0-5.555 3.622-5.555 8.073s2.491 8.073 5.555 8.073h15.7a1.094 1.094 0 0 1 0 2.188"/>
                        <path data-name="패스 7708" d="M53.833 174.034a1.094 1.094 0 0 1-.973-1.592 11.012 11.012 0 0 0 0-9.557 1.095 1.095 0 0 1 1.948-1 13.194 13.194 0 0 1 0 11.549 1.094 1.094 0 0 1-.974.6"/>
                        <path data-name="패스 7709" d="M160.175 253.572h-24.218l-2.755 1.565-2.281 4.722v4.409l1 3.457 2.626 3.231 1.408.974h27.45l-.811-6.522z" transform="translate(-49.087 -95.075)" style="fill:#f7ba00"/>
                        <path data-name="패스 7710" d="M114.319 177.925h-25.91c-4.269 0-7.743-4.6-7.743-10.261s3.473-10.261 7.743-10.261h16.662a1.094 1.094 0 1 1 0 2.188H88.409c-3.063 0-5.555 3.622-5.555 8.073s2.491 8.073 5.555 8.073h25.91a1.094 1.094 0 1 1 0 2.188"/>
                        <path data-name="패스 7711" d="M91.541 174.034a1.094 1.094 0 0 1-.974-1.592 11.012 11.012 0 0 0 0-9.557 1.095 1.095 0 0 1 1.948-1 13.195 13.195 0 0 1 0 11.549 1.094 1.094 0 0 1-.974.6"/>
                        <path data-name="패스 7712" d="M73.087 119.708a19.347 19.347 0 0 1-9.62-2.581 1.094 1.094 0 1 1 1.086-1.9 17.04 17.04 0 0 0 17.068 0 1.094 1.094 0 1 1 1.086 1.9 19.347 19.347 0 0 1-9.62 2.581"/>
                        <path data-name="패스 7713" d="m158.285 78.042 1.318 6.546 15.556 4.128a53.308 53.308 0 0 0-16.874-10.674" transform="translate(-59.348 -29.261)" style="fill:#5b666c"/>
                        <g data-name="그룹 2799" style="mix-blend-mode:multiply;isolation:isolate">
                            <g data-name="그룹 2798">
                                <g data-name="그룹 2797" style="clip-path:url(#6te8bgfq8C)" transform="translate(98.937 48.781)">
                                    <path data-name="패스 7714" d="m158.285 78.042 1.318 6.546 15.556 4.128a53.308 53.308 0 0 0-16.874-10.674" transform="translate(-158.285 -78.042)" style="fill:#5b666c"/>
                                </g>
                            </g>
                        </g>
                        <path data-name="패스 7715" d="M189.418 149.482c0-12.943 6.489-23.436 14.494-23.436s14.494 10.493 14.494 23.436-6.489 23.436-14.494 23.436-14.494-10.493-14.494-23.436" transform="translate(-71.021 -47.26)" style="fill:#303030"/>
                        <path data-name="패스 7716" d="M132.891 126.751c-8.6 0-15.587-11-15.587-24.529s6.992-24.53 15.587-24.53 15.588 11 15.588 24.53-6.993 24.529-15.588 24.529m0-46.871c-7.388 0-13.4 10.023-13.4 22.342s6.011 22.341 13.4 22.341 13.4-10.022 13.4-22.341-6.011-22.342-13.4-22.342"/>
                        <path data-name="패스 7717" d="M203.979 149.241c0-11.833 5.192-21.426 11.6-21.426s11.6 9.593 11.6 21.426-5.192 21.426-11.6 21.426-11.6-9.593-11.6-21.426" transform="translate(-76.48 -47.923)" style="fill:#fff"/>
                        <path data-name="패스 7718" d="M139.096 123.838c-7.116 0-12.691-9.892-12.691-22.52s5.574-22.519 12.691-22.519 12.69 9.892 12.69 22.519-5.574 22.52-12.69 22.52m0-42.851c-5.693 0-10.5 9.311-10.5 20.331s4.81 20.332 10.5 20.332 10.5-9.311 10.5-20.332-4.81-20.331-10.5-20.331"/>
                        <path data-name="패스 7719" d="M205.937 110.624s-4.432-15.87-21.179-27.279a39.469 39.469 0 0 0-14.046-5.645 66.408 66.408 0 0 0-7.531-1.139c-1.883-.181-2.857-.236-6.274-.482 31.927 15.844 35.758 30.287 35.536 42.342a30.312 30.312 0 0 0-1.963 11.006c0 10.916 5.192 19.765 11.6 19.765s11.6-8.849 11.6-19.765c0-8.665-3.183-16.133-7.736-18.8" transform="translate(-58.831 -28.524)" style="fill:#4a72b1"/>
                        <path data-name="패스 7720" d="M143.245 121.76c-7.115 0-12.689-9.163-12.689-20.859a31.554 31.554 0 0 1 1.966-11.22c.169-11.725-3.94-25.767-34.933-41.148a1.093 1.093 0 0 1-.569-1.268 1.082 1.082 0 0 1 1.134-.8l2.026.144c1.874.133 2.815.2 4.274.339a66.761 66.761 0 0 1 7.655 1.159 40.036 40.036 0 0 1 14.433 5.814c15.571 10.607 20.65 24.806 21.491 27.469 4.742 3.075 7.9 10.832 7.9 19.514 0 11.7-5.574 20.859-12.691 20.859m-39.917-72.725c27.905 15.069 31.595 29.068 31.379 40.876a1.091 1.091 0 0 1-.076.381 29.237 29.237 0 0 0-1.886 10.6c0 10.3 4.711 18.672 10.5 18.672s10.5-8.376 10.5-18.672c0-8.159-2.892-15.335-7.2-17.857a1.1 1.1 0 0 1-.5-.648A53.691 53.691 0 0 0 125.3 55.72a37.92 37.92 0 0 0-13.659-5.482 64.655 64.655 0 0 0-7.406-1.119c-.329-.032-.628-.059-.918-.085"/>
                        <path data-name="패스 7721" d="M219.813 154.359c0-6.506 2.619-11.779 5.85-11.779s5.849 5.274 5.849 11.779-2.619 11.779-5.849 11.779-5.85-5.274-5.85-11.779" transform="translate(-82.417 -53.459)" style="fill:#484848"/>
                        <path data-name="패스 7722" d="M143.245 113.772c-3.893 0-6.943-5.654-6.943-12.872s3.05-12.873 6.943-12.873 6.943 5.654 6.943 12.873-3.05 12.872-6.943 12.872m0-23.558c-2.25 0-4.755 4.389-4.755 10.685s2.506 10.685 4.755 10.685S148 107.196 148 100.899s-2.506-10.685-4.755-10.685"/>
                        <path data-name="패스 7723" d="M124.552 67.047a1.09 1.09 0 0 1-.712-.263c-.106-.09-10.766-9.086-25.312-9.967a1.094 1.094 0 0 1-1.026-1.158 1.108 1.108 0 0 1 1.158-1.026 48.867 48.867 0 0 1 26.606 10.49 1.094 1.094 0 0 1-.713 1.923"/>
                        <g data-name="그룹 2802" style="mix-blend-mode:multiply;isolation:isolate">
                            <g data-name="그룹 2801">
                                <g data-name="그룹 2800" style="clip-path:url(#w78zb7kvkD)" transform="translate(127.079 78.787)">
                                    <path data-name="패스 7724" d="M203.308 128.013s4.018.452 3.283 6.467l2.528-4v-4.433z" transform="translate(-203.308 -126.047)" style="fill:#8ec0f3"/>
                                </g>
                            </g>
                        </g>
                        <g data-name="그룹 2805" style="mix-blend-mode:multiply;isolation:isolate">
                            <g data-name="그룹 2804">
                                <g data-name="그룹 2803" style="clip-path:url(#1idp29q0mE)" transform="translate(130.878 84.528)">
                                    <path data-name="패스 7725" d="M209.385 138.344a3.565 3.565 0 0 1 1.5 2.854l.068.751.945-.929-1.258-5.786z" transform="translate(-209.385 -135.233)" style="fill:#5b666c"/>
                                </g>
                            </g>
                        </g>
                        <g data-name="그룹 2808" style="mix-blend-mode:multiply;isolation:isolate">
                            <g data-name="그룹 2807">
                                <g data-name="그룹 2806" style="clip-path:url(#nokrov5kwF)" transform="translate(94.239 59.401)">
                                    <path data-name="패스 7726" d="M157.424 95.033s4.539 4.2 1.935 11.76-8.589 7.626-8.589 7.626l4.992-19.331z" transform="translate(-150.769 -95.033)" style="fill:#f8bb00"/>
                                </g>
                            </g>
                        </g>
                        <path data-name="패스 7727" d="m113.679 106.369-5.979.55-2.669-.767-6.5-2.118-3.731-3.016-2.245-3.3-.821-3.485.816-3.311.245-1.575-3.378-1.387-1.293-2.154-.488-3.817 1.745-7.024a38.275 38.275 0 0 1 4.477-2.4 225.71 225.71 0 0 0 2.659-.148l-.637-2.071a17.561 17.561 0 0 1 .021-2.892 27.549 27.549 0 0 1 1.593-2.528s3.717-2.522 4.008-2.66 7.053-2.566 7.2-2.567 7.3-.689 7.3-.689l2.216 1.545 1.421 2.71.324 1.755 3.725-1.636 4.107 1.173 3.755 5.584 1.9 5.951-.8 3.231-2.2 1.91.872 1.319 1.542 5.424-.564 6.134-1.07 2.363-2.39 2.156-3.5 1.888-2.124.1-2.625-.961-.766.738-.9 2.467-2.57 2.316z" transform="translate(-32.858 -22.125)" style="fill:#ffd"/>
                        <path data-name="패스 7728" d="M106.243 65.58a12.61 12.61 0 0 0 .724 13.868L102.24 75l-.886-5.664z" transform="translate(-38.002 -24.589)" style="fill:#e0e0b8"/>
                        <path data-name="패스 7729" d="M88.8 91.077a18.194 18.194 0 0 0 6.636 9.783l-5.161-1.16-.794-2.38z" transform="translate(-33.296 -34.149)" style="fill:#e0e0b8"/>
                        <path data-name="패스 7730" d="M121.522 117.346a11.182 11.182 0 0 1-11.159 4.916c-7.774-1.01-15.852-9.34-14.506-12.033l-1.674 3.208 1.173 4.234 6.789 5.945 8.009 2.506 7.244-.685 3.7-2.65z" transform="translate(-35.314 -41.33)" style="fill:#e0e0b8"/>
                        <path data-name="패스 7731" d="M152.1 72.647s2.607 11.02-3.272 12.162l3.848.654 2.062-1.746.612-3.912z" transform="translate(-55.802 -27.238)" style="fill:#e0e0b8"/>
                        <path data-name="패스 7732" d="M150.788 101.066c.458 6.039-2.555 10.78-6.284 11.595a7.407 7.407 0 0 1-5.3-1.154l.721 3.913 2.625.961 4.523-1.675 4.669-5.506-.211-4.982z" transform="translate(-52.193 -37.894)" style="fill:#e0e0b8"/>
                        <path data-name="패스 7733" d="M69.178 56.575a1.092 1.092 0 0 1-.6-.181c-.24-.158-5.882-3.921-6.72-8.444-1.024-5.53 4.787-8.373 9.247-10.031 7.882-2.93 13.949-2.635 15.832.774 1.473 2.663 1.813 7 .958 12.217a1.094 1.094 0 0 1-2.158-.354c.764-4.663.5-8.6-.714-10.8-1.033-1.866-5.588-2.594-13.156.219-7.768 2.887-8.2 5.709-7.858 7.581.669 3.605 5.723 6.983 5.774 7.016a1.094 1.094 0 0 1-.6 2.007"/>
                        <path data-name="패스 7734" d="M97.506 59.618a1.094 1.094 0 0 1-.426-2.1 3.538 3.538 0 0 0 2.081-2.925c.121-4.294-4.116-12.092-7.364-12.264a5.388 5.388 0 0 0-3.969 1.39 1.094 1.094 0 0 1-1.439-1.647 7.672 7.672 0 0 1 5.525-1.927c4.875.257 9.577 9.495 9.435 14.51a5.737 5.737 0 0 1-3.418 4.878 1.085 1.085 0 0 1-.424.086"/>
                        <path data-name="패스 7735" d="M91.157 79.644a7.735 7.735 0 0 1-4.656-1.652 1.094 1.094 0 0 1 1.416-1.668 5.2 5.2 0 0 0 5.248.686c3.831-1.72 7.088-6.762 5.184-13.773a5.469 5.469 0 0 0-2.611-3.693 6.591 6.591 0 0 0-4.728-.1 1.094 1.094 0 0 1-.791-2.04 8.751 8.751 0 0 1 6.492.18 7.537 7.537 0 0 1 3.749 5.079c2.24 8.25-1.747 14.255-6.4 16.343a7.027 7.027 0 0 1-2.9.638"/>
                        <path data-name="패스 7736" d="M77.071 85.797a21.985 21.985 0 0 1-7.258-1.348c-7.48-2.624-10.925-5.817-11.889-11.021-.924-4.989 2.5-6.956 2.648-7.037a1.094 1.094 0 0 1 1.063 1.912c-.079.047-2.188 1.329-1.559 4.727.81 4.375 3.743 7 10.461 9.355 7.612 2.67 12.646.43 14.645-2.3 1.445-1.973.383-5.555-.148-6.769a1.094 1.094 0 0 1 2-.881c.1.224 2.4 5.544-.089 8.943-1.767 2.413-5.1 4.42-9.877 4.42"/>
                        <path data-name="패스 7737" d="M61.922 68.467c-2.455 0-6.807-.577-7.721-4.541-1.106-4.8-.461-8.763 1.917-11.789a6.763 6.763 0 0 1 9.22-1.669 1.094 1.094 0 0 1-1.217 1.818 4.569 4.569 0 0 0-6.282 1.2c-1.948 2.48-2.455 5.827-1.505 9.946.815 3.535 6.923 2.778 6.983 2.769a1.094 1.094 0 0 1 .286 2.17 13.687 13.687 0 0 1-1.683.1"/>
                        <g data-name="그룹 2811" style="mix-blend-mode:multiply;isolation:isolate">
                            <g data-name="그룹 2810">
                                <g data-name="그룹 2809" style="clip-path:url(#056bhr73yG)" transform="translate(80.29 78.787)">
                                    <path data-name="패스 7738" d="M138.4 126.483a7.856 7.856 0 0 1-3.194 5 8.02 8.02 0 0 1-6.751.937l6.749-6.374z" transform="translate(-128.452 -126.047)" style="fill:#f8bb00"/>
                                </g>
                            </g>
                        </g>
                        <g data-name="그룹 2814" style="mix-blend-mode:multiply;isolation:isolate">
                            <g data-name="그룹 2813">
                                <g data-name="그룹 2812" style="clip-path:url(#ax7wyjcfcH)" transform="translate(55.525 65.954)">
                                    <path data-name="패스 7739" d="M92.546 109.261s-3.43-.5-3.714-3.745l4.407 1.269z" transform="translate(-88.832 -105.516)" style="fill:#f7ba00"/>
                                </g>
                            </g>
                        </g>
                        <g data-name="그룹 2817" style="mix-blend-mode:multiply;isolation:isolate">
                            <g data-name="그룹 2816">
                                <g data-name="그룹 2815" style="clip-path:url(#09n9cz2bxI)" transform="translate(81.765 159.28)">
                                    <path data-name="패스 7740" d="M141.486 263.612c0 4.853-2.389 8.786-5.337 8.786s-5.336-3.934-5.336-8.786 2.389-8.786 5.336-8.786 5.337 3.933 5.337 8.786" transform="translate(-130.812 -254.826)" style="fill:#f8bb00"/>
                                </g>
                            </g>
                        </g>
                        <g data-name="그룹 2820" style="mix-blend-mode:multiply;isolation:isolate">
                            <g data-name="그룹 2819">
                                <g data-name="그룹 2818" style="clip-path:url(#09n9cz2bxI)" transform="translate(44.058 159.28)">
                                    <path data-name="패스 7741" d="M81.16 263.612c0 4.853-2.389 8.786-5.337 8.786s-5.336-3.934-5.336-8.786 2.389-8.786 5.336-8.786 5.337 3.933 5.337 8.786" transform="translate(-70.487 -254.826)" style="fill:#f8bb00"/>
                                </g>
                            </g>
                        </g>
                        <g data-name="그룹 2823" style="mix-blend-mode:multiply;isolation:isolate">
                            <g data-name="그룹 2822">
                                <g data-name="그룹 2821" style="clip-path:url(#uvxhnpr2pJ)" transform="translate(101.782 60.481)">
                                    <path data-name="패스 7742" d="M162.836 96.76a34.435 34.435 0 0 1 25.417 20.3l5.692-2L189 106.5l-9.512-8.568-16.652-1.172" transform="translate(-162.836 -96.76)" style="fill:#f8bb00"/>
                                </g>
                            </g>
                        </g>
                        <path data-name="패스 7743" d="m64.663 276.988 14.371.3 13.766 1.756 5.364 1.124 4.435.135 14.565-1.81 12.649-.835 17.018-.323s-.513 14.119-1.025 14.119-65.727-.384-68.371-1.024-20.685-8.83-20.173-9.084 7.4-4.358 7.4-4.358" transform="translate(-21.466 -103.855)" style="fill:#ff5b93"/>
                        <g data-name="그룹 2826" style="mix-blend-mode:multiply;isolation:isolate">
                            <g data-name="그룹 2825">
                                <g data-name="그룹 2824" style="clip-path:url(#1pta4dypmK)" transform="translate(64.65 174.982)">
                                    <path data-name="패스 7744" d="m112.424 281.817-4.553 1.354a9.261 9.261 0 0 0-4.442-3.225l8.995 1.33z" transform="translate(-103.43 -279.946)" style="fill:#ff5b93"/>
                                </g>
                            </g>
                        </g>
                        <path data-name="패스 7745" d="M68.808 180.248a1.094 1.094 0 0 1-.3-2.145c22.689-6.55 59.132-5.69 59.495-5.679a1.094 1.094 0 0 1-.028 2.187h-.029c-.363-.009-36.471-.861-58.832 5.595a1.086 1.086 0 0 1-.3.043"/>
                        <path data-name="패스 7746" d="M78.735 177.924a1.13 1.13 0 0 1-.3-.041 118.791 118.791 0 0 0-37.432-3.323 1.094 1.094 0 1 1-.179-2.18 121.256 121.256 0 0 1 38.21 3.4 1.094 1.094 0 0 1-.3 2.146"/>
                        <path data-name="패스 7747" d="M103.432 177.8a4.026 4.026 0 0 1-2.48-.861.875.875 0 0 1 1.118-1.347 2.21 2.21 0 0 0 2.74-.031.875.875 0 1 1 1.034 1.413 4.027 4.027 0 0 1-2.411.826" transform="translate(-37.733 -65.762)" style="fill:#040000"/>
                        <path data-name="패스 7748" d="M127.111 177.8a4.028 4.028 0 0 1-2.48-.861.875.875 0 0 1 1.118-1.347 2.211 2.211 0 0 0 2.74-.031.875.875 0 1 1 1.034 1.413 4.032 4.032 0 0 1-2.411.826" transform="translate(-46.612 -65.762)" style="fill:#040000"/>
                        <path data-name="패스 7749" d="M78.57 110.494a1.919 1.919 0 1 0 1.919-1.919 1.919 1.919 0 0 0-1.919 1.919"/>
                        <path data-name="패스 7750" d="M80.488 113.289a2.794 2.794 0 1 1 2.795-2.795 2.8 2.8 0 0 1-2.795 2.795m0-3.838a1.044 1.044 0 1 0 1.044 1.043 1.044 1.044 0 0 0-1.044-1.043"/>
                        <path data-name="패스 7751" d="M63.767 110.494a1.919 1.919 0 1 0 1.919-1.919 1.919 1.919 0 0 0-1.919 1.919"/>
                        <path data-name="패스 7752" d="M65.686 113.289a2.794 2.794 0 1 1 2.795-2.795 2.8 2.8 0 0 1-2.795 2.795m0-3.838a1.044 1.044 0 1 0 1.044 1.043 1.044 1.044 0 0 0-1.044-1.043"/>
                        <path data-name="패스 7753" d="m87.276 187.35 6.606-2.778 8.139 14.06 14.953-12.073 5.069 1.3v1.35l-17.765 9.691h-4.647l-11.995-10.645z" transform="translate(-32.724 -69.204)" style="fill:#fff"/>
                        <path data-name="패스 7754" d="m86 187.474 2.955 22.355L99.7 224.447h6.559l18.4-8.2-1.171-27.728-19.688 11.465h-4.647z" transform="translate(-32.245 -70.292)" style="fill:#00a3ff"/>
                        <path data-name="패스 7755" d="M74.017 155.093h-6.56a.941.941 0 0 1-.756-.382l-10.747-14.618a.942.942 0 0 1-.174-.433l-2.955-22.355a.938.938 0 0 1 1.576-.8l12.881 12.251h4.019l19.474-11.335a.938.938 0 0 1 1.409.77l1.171 27.728a.937.937 0 0 1-.556.9l-18.4 8.2a.937.937 0 0 1-.382.081m-6.086-1.875h5.886l17.64-7.858-1.079-25.539-18.35 10.682a.938.938 0 0 1-.472.128h-4.649a.936.936 0 0 1-.646-.258l-11.229-10.689 2.575 19.48z"/>
                        <path data-name="패스 7756" d="M68.884 130.63a.938.938 0 0 1-.825-.493l-7.324-13.578-5.982 2.516a.938.938 0 0 1-.726-1.729l6.766-2.845a.939.939 0 0 1 1.188.419l7.191 13.333 14.488-11.632a.938.938 0 0 1 .819-.177l6.215 1.592a.938.938 0 0 1-.465 1.817l-5.761-1.476-15 12.043a.935.935 0 0 1-.587.206"/>
                        <path data-name="패스 7757" d="M67.877 130.004a.313.313 0 0 1-.234-.106l-11.032-12.51a.313.313 0 1 1 .469-.414l11.032 12.51a.313.313 0 0 1-.234.519"/>
                        <path data-name="패스 7758" d="M70.029 130.001a.313.313 0 0 1-.176-.571l17.2-11.685a.313.313 0 1 1 .352.518l-17.2 11.685a.312.312 0 0 1-.176.054"/>
                        <path data-name="패스 7759" d="M67.877 130.004a.313.313 0 0 1-.26-.139l-8.956-13.382a.313.313 0 0 1 .52-.348l8.956 13.383a.312.312 0 0 1-.26.486"/>
                        <path data-name="선 286" transform="translate(71.887 133)" style="fill:#fff" d="m0 0 1.422 18.199"/>
                        <path data-name="패스 7760" d="M73.308 152.137a.937.937 0 0 1-.933-.864l-1.422-18.2a.938.938 0 0 1 .861-1.008.926.926 0 0 1 1.008.861l1.421 18.2a.937.937 0 0 1-.861 1.008h-.074"/>
                        <path data-name="선 287" transform="translate(67.175 133.135)" style="fill:#fff" d="M1.404 18.064 0 0"/>
                        <path data-name="패스 7761" d="M68.577 152.137a.937.937 0 0 1-.933-.865l-1.4-18.064a.937.937 0 1 1 1.869-.146l1.4 18.064a.936.936 0 0 1-.862 1.007.727.727 0 0 1-.074 0"/>
                        <g data-name="그룹 2829" style="mix-blend-mode:multiply;isolation:isolate">
                            <g data-name="그룹 2828">
                                <g data-name="그룹 2827" style="clip-path:url(#vjvme0hw6L)" transform="translate(66.907 118.228)">
                                    <path data-name="패스 7762" d="m131.382 189.147-19.693 11.464h-4.647l.547 24.463h6.559l18.4-8.2z" transform="translate(-107.042 -189.148)" style="fill:#00a3ff"/>
                                </g>
                            </g>
                        </g>
                        <path data-name="패스 7763" d="M77.531 185.319c1.216 3.714 4.544 9.911 6.507 11.346 6.571 4.8 4.173 8.9 4.173 8.9a6.754 6.754 0 0 1-8.607 3.88 9.828 9.828 0 0 1-4.711-3.695s-6.839-9.089-1.909-28.679l-.506-4.25" transform="translate(-26.695 -64.799)" style="fill:#f8bb00"/>
                        <path data-name="패스 7764" d="M55.388 146.124a9.862 9.862 0 0 1-2.787-.426 11.019 11.019 0 0 1-5.278-4.089c-.29-.385-7.05-9.671-2.143-29.405l-.483-4.05a1.094 1.094 0 0 1 2.172-.259l.506 4.25a1.109 1.109 0 0 1-.025.4c-4.748 18.865 1.656 27.668 1.721 27.755a8.6 8.6 0 0 0 4.145 3.3c5.287 1.553 7.087-2.723 7.274-3.216a1.21 1.21 0 0 1 .08-.168c.066-.122 1.738-3.367-3.873-7.468-2.295-1.678-5.716-8.266-6.9-11.889a1.094 1.094 0 1 1 2.079-.681c1.274 3.892 4.53 9.646 6.113 10.8 6.794 4.968 4.907 9.488 4.526 10.237a7.7 7.7 0 0 1-7.128 4.905"/>
                        <g data-name="그룹 2832" style="mix-blend-mode:multiply;isolation:isolate">
                            <g data-name="그룹 2831">
                                <g data-name="그룹 2830" style="clip-path:url(#49mjj4rrzM)" transform="translate(49.395 132.789)">
                                    <path data-name="패스 7765" d="M88.14 212.443a9.26 9.26 0 0 1-1.419 8.355c-3.047 3.769-7.7 1.205-7.7 1.205l3.515 2.3h4.7l3.128-3.031 1.025-2.9z" transform="translate(-79.024 -212.443)" style="fill:#f8bb00"/>
                                </g>
                            </g>
                        </g>
                        <path data-name="패스 7766" d="M158.64 187.475a69.711 69.711 0 0 1-22.08 10.962c-11.927 3.258-9.406 11.269-9.406 11.269s2.841 10.6 17.981 5.957c8.963-2.751 12.123-5.3 16.777-10.058" transform="translate(-47.592 -70.292)" style="fill:#f8bb00"/>
                        <path data-name="패스 7767" d="M90.505 147.645a13.714 13.714 0 0 1-6.743-1.608 11.189 11.189 0 0 1-5.257-6.341 8.722 8.722 0 0 1 .831-6.341c1.58-2.9 4.724-5 9.345-6.266a69.192 69.192 0 0 0 21.692-10.766 1.094 1.094 0 0 1 1.352 1.72A70.094 70.094 0 0 1 89.257 129.2c-4 1.093-6.686 2.831-7.98 5.165a6.51 6.51 0 0 0-.669 4.726 9.138 9.138 0 0 0 4.252 5.052c3.087 1.692 7.247 1.752 12.362.181 8.7-2.67 11.785-5.145 16.316-9.778a1.094 1.094 0 0 1 1.564 1.53c-4.8 4.9-8.059 7.522-17.238 10.339a25.285 25.285 0 0 1-7.359 1.23"/>
                        <g data-name="그룹 2835" style="mix-blend-mode:multiply;isolation:isolate">
                            <g data-name="그룹 2834">
                                <g data-name="그룹 2833" style="clip-path:url(#4r9uh1xxbN)" transform="translate(80.279 134.761)">
                                    <path data-name="패스 7768" d="M161.5 215.6c-2.419 1.851-11.886 8.645-23.923 6.755a28.106 28.106 0 0 1-9.138-3.141l2.595 5.757 7.346 2.414 9.231-1.263 8.455-3.666z" transform="translate(-128.434 -215.598)" style="fill:#f8bb00"/>
                                </g>
                            </g>
                        </g>
                        <path data-name="패스 7769" d="M24.725 79.016c-2.386 0-4.254-1.044-4.994-2.8a4.647 4.647 0 0 1 .544-4.362 8.471 8.471 0 0 1 3.882-3.164 9.214 9.214 0 0 1 2.877-.71l-6.666-15.257a1.706 1.706 0 0 1 .655-2.136l13.113-8.3a1.714 1.714 0 0 1 2.486.758l8.133 18.435a3.687 3.687 0 0 1 .163.336c1.138 2.688-.806 5.994-4.425 7.527a9.053 9.053 0 0 1-3.49.735c-2.388 0-4.255-1.045-5-2.794-1.138-2.688.806-5.994 4.425-7.528a9.225 9.225 0 0 1 2.867-.71L35.2 49.7l-9.209 5.852 6.5 14.881c.056.1.108.211.155.321a4.651 4.651 0 0 1-.544 4.364 8.48 8.48 0 0 1-3.882 3.163 9.043 9.043 0 0 1-3.492.735" transform="translate(-7.277 -15.756)" style="fill:#677cf8"/>
                        <path data-name="패스 7770" d="M27.78 27.362a.621.621 0 0 1 .569.371l8.148 18.477a2.838 2.838 0 0 1 .137.276c.886 2.091-.836 4.819-3.845 6.093a7.917 7.917 0 0 1-3.065.648c-1.851 0-3.407-.756-3.987-2.127-.886-2.091.836-4.819 3.845-6.093a7.915 7.915 0 0 1 3.062-.648 6.207 6.207 0 0 1 1.083.092L28.699 33a.621.621 0 0 0-.9-.274L17.78 39.091a.621.621 0 0 0-.236.773l6.681 15.3a2.844 2.844 0 0 1 .131.266c.886 2.091-.836 4.819-3.845 6.094a7.928 7.928 0 0 1-3.065.648c-1.851 0-3.407-.757-3.987-2.127-.886-2.091.836-4.819 3.845-6.094a7.915 7.915 0 0 1 3.062-.648 6.292 6.292 0 0 1 1.091.093L14.093 36.53a.622.622 0 0 1 .238-.774l13.112-8.3a.619.619 0 0 1 .332-.1m0-2.188a2.8 2.8 0 0 0-1.5.436l-13.113 8.3a2.794 2.794 0 0 0-1.072 3.5l6.1 13.962a10.617 10.617 0 0 0-1.735.564c-4.185 1.772-6.384 5.709-5.006 8.961.9 2.136 3.2 3.462 6 3.462a10.165 10.165 0 0 0 3.918-.821 9.582 9.582 0 0 0 4.38-3.588 5.815 5.815 0 0 0 .679-5.242 7.592 7.592 0 0 0 3.3.712 10.148 10.148 0 0 0 3.917-.821 9.583 9.583 0 0 0 4.38-3.587 5.786 5.786 0 0 0 .626-5.374 5.015 5.015 0 0 0-.186-.388l-2.54-5.756-5.577-12.638a2.811 2.811 0 0 0-2.566-1.676m-7.692 15.044 7.343-4.666 3.021 6.879a10.591 10.591 0 0 0-1.722.562 9.581 9.581 0 0 0-4.38 3.587 6.873 6.873 0 0 0-.764 1.645z"/>
                        <path data-name="패스 7771" d="M174 33.988c-3.826 0-6.849-2.028-7.351-4.931a5.619 5.619 0 0 1 1.744-4.914 9.811 9.811 0 0 1 5.336-2.669 11.057 11.057 0 0 1 1.862-.161 9.929 9.929 0 0 1 2.4.286l-3.154-17.484a2.007 2.007 0 0 1 1.625-2.334 1.956 1.956 0 0 1 .353-.031 2.007 2.007 0 0 1 1.975 1.65l.219 1.212a13.876 13.876 0 0 0 6.012 1.288 4.8 4.8 0 0 1 4.772 3.948c.619 2.85-.672 6.864-2.513 7.81a1.31 1.31 0 0 1-.592.143 1.3 1.3 0 0 1-1.036-.522 1.272 1.272 0 0 1-.2-1.137l.026-.085c.236-.776.86-2.839.1-3.86a2.628 2.628 0 0 0-2.2-.748c-.091 0-.184 0-.28.006-.649.024-1.225.035-1.736.035q-.566 0-1.064-.018c.05.334.1.717.165 1.154l.043.3 1.881 10.432c.059.329.133.657.206.984a13.193 13.193 0 0 1 .378 2.4c.148 4-3.58 6.472-7.106 7.081a10.988 10.988 0 0 1-1.862.161" transform="translate(-62.458 -.656)" style="fill:#ff8064"/>
                        <path data-name="패스 7772" d="M114.357 2.188a.915.915 0 0 1 .9.752l.3 1.688c.878.609 2.852 1.52 6.951 1.711 5.916.276 3.858 8.64 1.81 9.692a.2.2 0 0 1-.092.023.192.192 0 0 1-.186-.248c.397-1.306 1.958-6.106-3.118-6.106-.1 0-.211 0-.321.006-.635.024-1.2.034-1.7.034a18.7 18.7 0 0 1-2.445-.128 20.084 20.084 0 0 1 .513 2.845l1.291 7.158q.3 1.64.591 3.281a23.182 23.182 0 0 1 .567 3.235c.126 3.381-3.217 5.447-6.2 5.962a9.863 9.863 0 0 1-1.676.145c-3.2 0-5.857-1.618-6.273-4.023-.486-2.816 2.284-5.646 6.188-6.319a9.843 9.843 0 0 1 1.675-.145 8.083 8.083 0 0 1 3.815.9l-3.491-19.386a.913.913 0 0 1 .737-1.063.924.924 0 0 1 .164-.015m0-2.188a3.116 3.116 0 0 0-.554.05 3.1 3.1 0 0 0-2.5 3.6l2.877 15.955a11.643 11.643 0 0 0-1.044-.047 12.069 12.069 0 0 0-2.047.177c-5.172.893-8.674 4.779-7.971 8.847.594 3.438 4.06 5.839 8.429 5.839a12.072 12.072 0 0 0 2.048-.178c3.98-.688 8.186-3.546 8.013-8.2a14.2 14.2 0 0 0-.4-2.6c-.073-.331-.143-.643-.2-.944l-.255-1.413-.337-1.869-.479-2.657-.812-4.5c0-.013-.009-.066-.019-.141.488 0 1.018-.014 1.578-.035.082 0 .161-.005.239-.005.758 0 1.211.154 1.324.306.129.174.362.805-.271 2.893l-.026.088a2.382 2.382 0 0 0 3.372 2.8c2.288-1.176 3.815-5.641 3.082-9.015a5.9 5.9 0 0 0-5.79-4.808 14.756 14.756 0 0 1-5.085-.936l-.12-.666A3.1 3.1 0 0 0 114.357 0"/>
                        <path data-name="패스 7773" d="M270.124 118.815a12.013 12.013 0 0 1-5.15-1.3c-4.307-2.15-6.537-6.123-5.079-9.045.842-1.687 2.732-2.655 5.185-2.655a11.534 11.534 0 0 1 5.1 1.278 11.938 11.938 0 0 1 3.667 2.795l8.529-17.43a2.007 2.007 0 0 1 2.687-.921 2.006 2.006 0 0 1 .92 2.686l-9.18 18.761c-.123.25-.248.5-.374.746-.238.469-.463.912-.663 1.369a6.161 6.161 0 0 1-1.471 2.274 6.045 6.045 0 0 1-4.167 1.442z" transform="translate(-97.278 -34.244)" style="fill:#a4f57e"/>
                        <path data-name="패스 7774" d="M186.898 58.182a.915.915 0 0 1 .82 1.317v.007q-.687 1.407-1.377 2.814l-3 6.135-3.368 6.884-1.43 2.92c-.353.721-.736 1.421-1.057 2.156a5.222 5.222 0 0 1-1.2 1.9 5.031 5.031 0 0 1-3.438 1.164 10.937 10.937 0 0 1-4.662-1.186c-3.7-1.848-5.755-5.24-4.588-7.578.671-1.347 2.266-2.049 4.206-2.049a10.5 10.5 0 0 1 4.607 1.163 9.783 9.783 0 0 1 4.321 3.966l9.346-19.1a.914.914 0 0 1 .822-.513m0-2.188a3.122 3.122 0 0 0-2.788 1.739l-7.852 16.05a13.581 13.581 0 0 0-2.872-1.912 12.635 12.635 0 0 0-5.584-1.393c-2.883 0-5.13 1.188-6.164 3.26a6.26 6.26 0 0 0 .554 6.082 12.239 12.239 0 0 0 5.014 4.429 13.134 13.134 0 0 0 5.639 1.416 6.56 6.56 0 0 0 6.641-4.373c.187-.428.406-.858.637-1.313.128-.252.256-.5.381-.758l.1-.21 1.326-2.71 3.369-6.889 3-6.134.773-1.566.61-1.248a3.1 3.1 0 0 0-1.419-4.158 3.119 3.119 0 0 0-1.363-.316"/>
                    </g>
                </g>
            </g>
        </g>
    </g>
</svg>
