<svg xmlns="http://www.w3.org/2000/svg" width="16" height="15"><g data-name="그룹 602"><g data-name="사각형 2115" fill="#fff" stroke="#ccc"><path d="M0 5h16v9a1 1 0 0 1-1 1H1a1 1 0 0 1-1-1V5Z" stroke="none"/><path d="M.5 5.5h15V14a.5.5 0 0 1-.5.5H1a.5.5 0 0 1-.5-.5V5.5Z" fill="none"/></g><path data-name="패스 4240" d="m1 14.001 7-6 7 6" fill="none" stroke="#ccc" stroke-linejoin="round"/><path data-name="합치기 27" d="M6.629 9.626 0 5 6.628.375a2.7 2.7 0 0 1 2.743 0L16 5 9.372 9.627a2.555 2.555 0 0 1-1.373.374 2.543 2.543 0 0 1-1.37-.375Z" fill="#eee"/><g data-name="합치기 26" fill="rgba(0,0,0,0)" stroke-linejoin="round"><path d="M8 9.5c-.414 0-.802-.103-1.092-.29L.875 5 6.908.789C7.199.603 7.586.5 7.999.5c.414 0 .802.103 1.095.29l6.032 4.209-6.033 4.212c-.292.186-.68.289-1.094.289Z"/><path d="M8 9c.31 0 .607-.075.816-.206l5.437-3.795-5.436-3.793C8.607 1.076 8.31 1 7.999 1c-.31 0-.605.074-.814.205L1.748 5l5.438 3.796c.207.13.502.205.813.205m0 1c-.493 0-.985-.124-1.37-.374L.001 4.999 6.629.374c.77-.5 1.97-.5 2.743 0L16 4.999 9.372 9.626c-.386.25-.88.374-1.373.374Z" fill="#ccc"/></g></g></svg>