<svg xmlns="http://www.w3.org/2000/svg" xmlns:xlink="http://www.w3.org/1999/xlink" width="13" height="19" viewBox="0 0 13 19">
  <defs>
    <clipPath id="clip-path">
      <rect id="사각형_2150" data-name="사각형 2150" width="13" height="19" transform="translate(151 284)" fill="#fff" opacity="0.37"/>
    </clipPath>
  </defs>
  <g id="ico_쪽지_읽음" transform="translate(-151 -284)" clip-path="url(#clip-path)">
    <g id="사각형_2149" data-name="사각형 2149" transform="translate(150.996 284)" fill="#fff" stroke="#ccc" stroke-width="1">
      <path d="M0,0H10a2,2,0,0,1,2,2v8a2,2,0,0,1-2,2H2a2,2,0,0,1-2-2V0A0,0,0,0,1,0,0Z" stroke="none"/>
      <path d="M.5.5H10A1.5,1.5,0,0,1,11.5,2v8A1.5,1.5,0,0,1,10,11.5H2A1.5,1.5,0,0,1,.5,10V.5A0,0,0,0,1,.5.5Z" fill="none"/>
    </g>
    <path id="패스_4437" data-name="패스 4437" d="M5,0,0,5" transform="translate(156.996 285)" fill="none" stroke="#ccc" stroke-width="1"/>
    <g id="패스_4436" data-name="패스 4436" transform="translate(164 296.996) rotate(135)" fill="#fff">
      <path d="M 0.5054028630256653 17.17821311950684 L 0.5002285242080688 0.9896067380905151 C 0.5002285242080688 0.7197667360305786 0.7245485186576843 0.5000967383384705 1.000258445739746 0.5000967383384705 L 7.000368595123291 0.5000167489051819 C 7.134908676147461 0.5000167489051819 7.261118412017822 0.5515967607498169 7.355758666992188 0.6452567577362061 C 7.449008464813232 0.7375367283821106 7.500358581542969 0.8598467111587524 7.500358581542969 0.9896567463874817 L 7.465398788452148 10.21821594238281 L 0.5054028630256653 17.17821311950684 Z" stroke="none"/>
      <path d="M 1.005017161369324 15.97147846221924 L 6.966188907623291 10.0103063583374 L 7.000368595123291 1.000016689300537 L 1.000232100486755 1.00075626373291 L 1.005017161369324 15.97147846221924 M 0.0057884999550879 18.38492584228516 L 0.0002285000664414838 0.9897667169570923 C 0.0002385000552749261 0.4431967437267303 0.4479584991931915 9.673584281699732e-05 1.000258445739746 9.673584281699732e-05 L 7.000358581542969 1.67358393809991e-05 C 7.552648544311523 6.735839633620344e-06 8.000368118286133 0.4430867433547974 8.000358581542969 0.989666759967804 L 7.964618682861328 10.42609691619873 L 0.0057884999550879 18.38492584228516 Z" stroke="none" fill="#ccc"/>
    </g>
  </g>
</svg>
