<svg xmlns="http://www.w3.org/2000/svg" width="34" height="35.557" viewBox="0 0 34 35.557">
    <g data-name="img_취재처 확인">
        <path data-name="패스 1984" d="M30.706 24.506h2.544v18.6H6.831c-3.083 0-5.581-2.082-5.581-4.651s2.5-4.651 5.581-4.651a5.985 5.985 0 0 1 4.514 1.916V21.957a5.985 5.985 0 0 0-4.514-1.916c-3.083 0-5.581 2.082-5.581 4.651v13.439" transform="translate(-.25 -8.553)" style="stroke-linecap:round;stroke:#3cb371;stroke-linejoin:round;stroke-width:2px;fill:none"/>
        <path data-name="선 75" transform="translate(11.273 15.953)" style="stroke-linecap:round;stroke:#3cb371;stroke-linejoin:round;stroke-width:2px;fill:none" d="M0 0h3.616"/>
        <path data-name="패스 1985" d="M41.861 8.473c0 3.99-7.224 16.155-7.224 16.155s-7.225-12.165-7.225-16.155a7.224 7.224 0 0 1 14.449 0z" transform="translate(-11.81 -.25)" style="fill:#fef8d9;stroke:#3cb371;stroke-linejoin:round;stroke-width:2px"/>
        <path data-name="패스 1986" d="M41 11.75a3.085 3.085 0 1 1-3.085-3.085A3.086 3.086 0 0 1 41 11.75z" transform="translate(-15.087 -3.526)" style="stroke:#3cb371;stroke-linejoin:round;stroke-width:2px;fill:none"/>
    </g>
</svg>
