<svg xmlns="http://www.w3.org/2000/svg" width="13" height="19"><defs><clipPath id="a"><path data-name="사각형 2150" transform="translate(151 284)" fill="#fff" opacity=".37" d="M0 0h13v19H0z"/></clipPath></defs><g transform="translate(-151 -284)" clip-path="url(#a)"><g data-name="사각형 2149" fill="#fff" stroke="#ccc"><path d="M150.996 284h10a2 2 0 0 1 2 2v8a2 2 0 0 1-2 2h-8a2 2 0 0 1-2-2v-10Z" stroke="none"/><path d="M151.496 284.5h9.5a1.5 1.5 0 0 1 1.5 1.5v8a1.5 1.5 0 0 1-1.5 1.5h-8a1.5 1.5 0 0 1-1.5-1.5v-9.5Z" fill="none"/></g><path data-name="패스 4437" d="m161.996 285-5 5" fill="none" stroke="#ccc"/><g data-name="패스 4436" fill="#fff"><path d="m151.496 285.207 11.45 11.443c.191.19.188.505-.007.7l-4.243 4.242a.502.502 0 0 1-.354.149.482.482 0 0 1-.345-.141l-6.501-6.55v-9.843Z"/><path d="M151.996 286.413v8.43l6.347 6.396 4.242-4.243-10.59-10.583m-1-2.413 12.305 12.296a.995.995 0 0 1-.007 1.407l-4.243 4.243a.995.995 0 0 1-1.407.007l-6.647-6.698V284Z" fill="#ccc"/></g></g></svg>