<svg xmlns="http://www.w3.org/2000/svg" width="13" height="19"><defs><clipPath id="a"><path data-name="사각형 2150" transform="translate(151 284)" fill="#fff" opacity=".37" d="M0 0h13v19H0z"/></clipPath></defs><g data-name="마스크 그룹 8" transform="translate(-151 -284)" clip-path="url(#a)"><g data-name="사각형 2149" fill="#fff" stroke="#ff5050"><path d="M154 284h10v10a2 2 0 0 1-2 2h-8a2 2 0 0 1-2-2v-8a2 2 0 0 1 2-2Z" stroke="none"/><path d="M154 284.5h9.5v9.5a1.5 1.5 0 0 1-1.5 1.5h-8a1.5 1.5 0 0 1-1.5-1.5v-8a1.5 1.5 0 0 1 1.5-1.5Z" fill="none"/></g><path data-name="패스 4437" d="m153 285 5 5" fill="none" stroke="#ff5050"/><g data-name="패스 4436" fill="#fff"><path d="m156.3 301.592-4.243-4.243a.495.495 0 0 1-.008-.7l11.451-11.442v9.842l-6.502 6.552a.495.495 0 0 1-.699-.009Z"/><path d="m163 286.413-10.59 10.583 4.243 4.242 6.347-6.395v-8.43m1-2.413v11.255l-6.647 6.698a.995.995 0 0 1-1.407-.007l-4.243-4.243a.995.995 0 0 1-.007-1.407L164 284Z" fill="#ff5050"/></g></g></svg>