<svg data-name="Icon simple-youtube" xmlns="http://www.w3.org/2000/svg" width="28" height="20" viewBox="0 0 28 20">
    <path data-name="Icon simple-youtube" d="M27.423 8.512a3.549 3.549 0 0 0-2.437-2.491c-2.182-.6-10.966-.6-10.966-.6s-8.761-.012-10.966.6A3.549 3.549 0 0 0 .617 8.512a38.07 38.07 0 0 0-.609 6.924 38.07 38.07 0 0 0 .609 6.9 3.549 3.549 0 0 0 2.437 2.491c2.18.6 10.966.6 10.966.6s8.76 0 10.966-.6a3.549 3.549 0 0 0 2.437-2.491 38.072 38.072 0 0 0 .584-6.9 38.072 38.072 0 0 0-.584-6.924zM11.216 19.72v-8.58l7.311 4.3z" transform="translate(-.007 -5.424)" style="fill:red"/>
</svg>
