<svg xmlns="http://www.w3.org/2000/svg" width="37" height="33.999" viewBox="0 0 37 33.999">
    <path data-name="패스 1980" d="M13.25 31.25h-12V7.6l6.861-6.35H27.25v7" transform="translate(-.25 -.25)" style="stroke-linejoin:round;stroke:#3cb371;stroke-linecap:round;stroke-width:2px;fill:none"/>
    <path data-name="패스 1981" d="M10.607 6.652v4h-4" transform="translate(-1.607 -1.652)" style="stroke-miterlimit:10;stroke:#3cb371;stroke-linecap:round;stroke-width:2px;fill:none"/>
    <path data-name="패스 1982" d="M35.008 27.115a7.545 7.545 0 0 0-1.974.816l-2.22-1.575-2.014 2.017 1.575 2.22a7.5 7.5 0 0 0-.812 1.959l-2.683.457v2.852l2.684.457a7.475 7.475 0 0 0 .82 1.973L28.8 40.5l2.018 2.017 2.206-1.584a7.407 7.407 0 0 0 1.972.818l.457 2.686H38.3l.457-2.684a7.5 7.5 0 0 0 1.973-.82l2.206 1.584 2.021-2.017-1.584-2.21a7.482 7.482 0 0 0 .827-1.99l2.68-.441v-2.851l-2.68-.44a7.456 7.456 0 0 0-.815-1.975l1.575-2.22-2.018-2.017-2.224 1.574a7.5 7.5 0 0 0-1.974-.815l-.44-2.68h-2.855" transform="translate(-10.876 -11.435)" style="fill:#fef8d9;stroke-linejoin:round;stroke:#3cb371;stroke-linecap:round;stroke-width:2px"/>
    <path data-name="패스 1983" d="M40.762 36.252a2.914 2.914 0 1 1-2.055 2.021" transform="translate(-15.518 -16.076)" style="stroke-linejoin:round;stroke:#3cb371;stroke-linecap:round;stroke-width:2px;fill:none"/>
</svg>
