<svg xmlns="http://www.w3.org/2000/svg" width="43" height="34"><defs><style>.cls-1,.cls-4{fill:none;stroke:#ff5050;stroke-width:2px;stroke-linecap:round}.cls-1{stroke-miterlimit:10}</style></defs><g id="img_정기구독" transform="translate(1 1)"><path id="패스_1830" data-name="패스 1830" class="cls-1" d="M11.25 5.25H6.29a2.028 2.028 0 0 0-2.04 2v27.991a2.032 2.032 0 0 0 2.04 2.009h23.92a2.033 2.033 0 0 0 2.039-2.009V7.255a2.029 2.029 0 0 0-2.039-2h-4.96" transform="translate(-4.25 -5.25)"/><rect id="사각형_1656" data-name="사각형 1656" width="8" height="32" rx="2" transform="translate(10)" style="stroke:#ff5050;stroke-width:2px;fill:none"/><path id="선_70" data-name="선 70" class="cls-1" transform="translate(11 5)" d="M0 0h7"/><path id="선_71" data-name="선 71" class="cls-1" transform="translate(11 15)" d="M0 0h7"/><path id="선_65" data-name="선 65" class="cls-1" transform="translate(0 4.999)" d="M0 0h6"/><path id="선_67" data-name="선 67" class="cls-1" transform="translate(0 15)" d="M0 0h6"/><path id="선_68" data-name="선 68" class="cls-1" transform="translate(22 5)" d="M0 0h6"/><path id="선_69" data-name="선 69" class="cls-1" transform="translate(22 15)" d="M0 0h6"/><g id="타원_277" data-name="타원 277" transform="translate(24 15)" style="fill:#fef8d9;stroke:#ff5050;stroke-width:2px"><circle cx="9" cy="9" r="9" style="stroke:none"/><circle cx="9" cy="9" r="8" style="fill:none"/></g><path id="선_72" data-name="선 72" class="cls-4" transform="translate(33 24)" d="m0 0 4 3"/><path id="패스_1831" data-name="패스 1831" class="cls-4" d="M0 0v4" transform="translate(33 20)"/></g></svg>