<svg xmlns="http://www.w3.org/2000/svg" width="38" height="34"><path data-name="패스 1823" d="M28.455 5.25v-2.3a1.791 1.791 0 0 1 1.87-1.7h8.26a1.791 1.791 0 0 1 1.869 1.7v2.3" transform="translate(-15.455 -.25)" style="stroke-linejoin:round;stroke:#ff5050;stroke-width:2px;fill:none"/><path data-name="패스 1824" d="M37.25 21.723c0 4.742-7.105 7.985-15.789 7.985h-4.422c-8.683 0-15.789-3.243-15.789-7.985v-4.015h36z" transform="translate(-.25 -11.708)" style="stroke-linecap:round;fill:#fef8d9;stroke-linejoin:round;stroke:#ff5050;stroke-width:2px"/><path data-name="패스 1825" d="M37.25 41.234v14h-36v-14" transform="translate(-.25 -22.234)" style="stroke-linecap:round;stroke-linejoin:round;stroke:#ff5050;stroke-width:2px;fill:none"/><path data-name="패스 1826" d="M34.424 57.942v4h-24v-4" transform="translate(-3.423 -34.942)" style="stroke-miterlimit:10;stroke-linecap:round;stroke:#ff5050;stroke-width:2px;fill:none"/><path data-name="선 55" transform="translate(17 14)" style="stroke-linecap:round;stroke-linejoin:round;stroke:#ff5050;stroke-width:2px;fill:none" d="M0 0h4"/></svg>