<svg id="ico_메시지_읽음" xmlns="http://www.w3.org/2000/svg" width="16" height="15" viewBox="0 0 16 15">
  <g id="그룹_602" data-name="그룹 602" transform="translate(0 -4)">
    <g id="사각형_2115" data-name="사각형 2115" transform="translate(0 9)" fill="#fff" stroke="#ccc" stroke-width="1">
      <path d="M0,0H16a0,0,0,0,1,0,0V9a1,1,0,0,1-1,1H1A1,1,0,0,1,0,9V0A0,0,0,0,1,0,0Z" stroke="none"/>
      <path d="M.5.5h15a0,0,0,0,1,0,0V9a.5.5,0,0,1-.5.5H1A.5.5,0,0,1,.5,9V.5A0,0,0,0,1,.5.5Z" fill="none"/>
    </g>
    <path id="패스_4240" data-name="패스 4240" d="M1,19l7-6,7,6" transform="translate(0 -0.999)" fill="none" stroke="#ccc" stroke-linejoin="round" stroke-width="1"/>
    <path id="합치기_27" data-name="합치기 27" d="M-2539.371,12114.626-2546,12110l6.628-4.625a2.7,2.7,0,0,1,2.743,0L-2530,12110l-6.628,4.627a2.555,2.555,0,0,1-1.373.374A2.543,2.543,0,0,1-2539.371,12114.626Z" transform="translate(2546 -12101)" fill="#eee"/>
    <g id="합치기_26" data-name="합치기 26" transform="translate(2546 -12101)" fill="rgba(0,0,0,0)" stroke-linejoin="round">
      <path d="M -2538.000732421875 12114.5 C -2538.414306640625 12114.5 -2538.801513671875 12114.3974609375 -2539.092041015625 12114.2109375 L -2545.12548828125 12109.9990234375 L -2539.09228515625 12105.7890625 C -2538.801025390625 12105.6025390625 -2538.413818359375 12105.5 -2538.000732421875 12105.5 C -2537.58740234375 12105.5 -2537.19921875 12105.6025390625 -2536.90625 12105.7900390625 L -2530.87353515625 12109.9990234375 L -2536.90673828125 12114.2109375 C -2537.19873046875 12114.3974609375 -2537.586669921875 12114.5 -2538.000732421875 12114.5 Z" stroke="none"/>
      <path d="M -2538.000732421875 12114 C -2537.689453125 12114 -2537.392822265625 12113.9248046875 -2537.18359375 12113.7939453125 L -2531.747314453125 12109.9990234375 L -2537.183349609375 12106.2060546875 C -2537.393310546875 12106.0751953125 -2537.690185546875 12106 -2538.000732421875 12106 C -2538.310791015625 12106 -2538.6064453125 12106.07421875 -2538.814697265625 12106.205078125 L -2544.251708984375 12109.9990234375 L -2538.814453125 12113.794921875 C -2538.607177734375 12113.92578125 -2538.3115234375 12114 -2538.000732421875 12114 M -2538.000732421875 12115 C -2538.49365234375 12115 -2538.986083984375 12114.8759765625 -2539.370849609375 12114.6259765625 L -2545.9990234375 12109.9990234375 L -2539.370849609375 12105.3740234375 C -2538.601806640625 12104.8740234375 -2537.400634765625 12104.8740234375 -2536.628173828125 12105.3740234375 L -2530 12109.9990234375 L -2536.628173828125 12114.6259765625 C -2537.014404296875 12114.8759765625 -2537.5078125 12115 -2538.000732421875 12115 Z" stroke="none" fill="#ccc"/>
    </g>
  </g>
</svg>
