<svg xmlns="http://www.w3.org/2000/svg" width="50.52" height="47.255" viewBox="0 0 50.52 47.255">
    <defs>
        <clipPath id="su73gz8f5a">
            <path data-name="사각형 1620" style="fill:none" d="M0 0h50v21.638H0z"/>
        </clipPath>
    </defs>
    <g data-name="사각형 1653" transform="rotate(14.98 -30.471 32.32)" style="stroke:#ff5050;stroke-width:2px;fill:#fff">
        <rect width="42.079" height="28.339" rx="6" style="stroke:none"/>
        <rect x="1" y="1" width="40.079" height="26.339" rx="5" style="fill:none"/>
    </g>
    <path data-name="합치기 21" d="M22.286 10.657a.206.206 0 0 1-.211-.211V7.664a.206.206 0 0 1 .211-.211H23.3a.207.207 0 0 1 .211.211v1.441a.207.207 0 0 0 .211.211h2.218a.207.207 0 0 1 .211.211v.936a.189.189 0 0 1-.193.194zM6.617 9.582a.207.207 0 0 1-.211-.211V.211A.207.207 0 0 1 6.617 0h1.02a.206.206 0 0 1 .211.211V9.37a.207.207 0 0 1-.211.211zm8.954-2.287a.206.206 0 0 1-.211-.21V1.3a.206.206 0 0 1 .211-.21h1.05a.206.206 0 0 1 .21.21v1.925a.207.207 0 0 0 .211.211H18a.207.207 0 0 1 .211.211v.9a.189.189 0 0 1-.192.194h-.98a.206.206 0 0 0-.211.211v2.133a.206.206 0 0 1-.21.21zm9.786-.221a.206.206 0 0 1-.211-.21V.645a.206.206 0 0 1 .211-.211h1.049a.206.206 0 0 1 .211.211v1.922a.207.207 0 0 0 .211.211h.961a.206.206 0 0 1 .21.21V3.9a.188.188 0 0 1-.192.192h-.979a.206.206 0 0 0-.211.211v2.561a.206.206 0 0 1-.211.21zm-15.79-.252-.7-.9a4.47 4.47 0 0 0 .612-.444 6.932 6.932 0 0 0 .742-.721 5.229 5.229 0 0 0 .67-.859 2.721 2.721 0 0 0 .349-.776c.03-.156-.182-.156-.182-.156H9.6a.207.207 0 0 1-.211-.211v-.931a.189.189 0 0 1 .192-.194h3.15a.218.218 0 0 1 .22.211 4.191 4.191 0 0 1-.132 1.05 5.437 5.437 0 0 1-.338.973.317.317 0 0 0 .051.339l1.242 1.336a.207.207 0 0 1-.01.3l-.7.654a.189.189 0 0 1-.272-.008l-1.027-1.09a.17.17 0 0 0-.272.014 6.5 6.5 0 0 1-.827.866 6.708 6.708 0 0 1-.818.626.181.181 0 0 1-.09.025.278.278 0 0 1-.191-.104zm-6.634-.765a.206.206 0 0 1-.211-.21V3.719a.205.205 0 0 0-.21-.209H.211A.207.207 0 0 1 0 3.3v-.919a.207.207 0 0 1 .211-.211h3.742a.207.207 0 0 1 .211.211v3.466a.206.206 0 0 1-.211.21zm16.338-.511a.207.207 0 0 1-.211-.211V1.709a.207.207 0 0 1 .211-.211h3.743a.207.207 0 0 1 .211.211v.921a.189.189 0 0 1-.193.192h-2.319a.207.207 0 0 0-.212.211v.961a.207.207 0 0 0 .212.211h2.3a.206.206 0 0 1 .211.21v.918a.207.207 0 0 1-.211.211z" transform="translate(9.99 24.393)" style="fill:#ff5050;stroke:transparent;stroke-miterlimit:10"/>
    <g data-name="그룹 32">
        <g data-name="그룹 31" style="clip-path:url(#su73gz8f5a)" transform="translate(.52)">
            <path data-name="패스 610" d="M179.536 11.331a5.313 5.313 0 0 0-5.29-5.336 5.38 5.38 0 0 0-.663.04 8.421 8.421 0 0 0-15.97-.547c-.052 0-.1-.007-.156-.007a6.027 6.027 0 1 0-.054 12.054 6.143 6.143 0 0 0 1.177-.11 5.124 5.124 0 0 0 7.485 1.608 4.4 4.4 0 0 0 3.584.945 1.736 1.736 0 0 1-.242 1.122s-.236.4.254.256 2.334-1.148 3.339-4.056a.221.221 0 0 0 .01-.032 4.58 4.58 0 0 0 .226-.741 5.309 5.309 0 0 0 6.3-5.2" transform="translate(-129.536)" style="fill:#fcc800"/>
            <path data-name="패스 611" d="M210.529 24.766a.842.842 0 0 0 .807-.572.308.308 0 0 0 .124.02l.49-.02a.233.233 0 0 1 .174.065.223.223 0 0 1 .068.169l-.04.944a.267.267 0 0 0 .241.286.239.239 0 0 0 .169-.063.284.284 0 0 0 .094-.2l.1-2.435a.265.265 0 0 0-.241-.286.24.24 0 0 0-.169.063.292.292 0 0 0-.094.2l-.021.509a.278.278 0 0 1-.264.257l-.529.021a.351.351 0 0 0-.092.019.839.839 0 1 0-.818 1.023m.005-1.2a.385.385 0 1 1-.4.383.39.39 0 0 1 .4-.383" transform="translate(-179.404 -19.396)" style="fill:#231815"/>
            <path data-name="패스 612" d="m238.458 21.083.7.022c.139 0 .257.086.261.183s-.107.19-.245.208l-.694.088a.3.3 0 0 0-.254.276l-.011.915a.219.219 0 0 0 .072.168.236.236 0 0 0 .178.059l1.62-.135a.266.266 0 0 0 .263-.267.269.269 0 0 0-.306-.22l-1.069.088a.243.243 0 0 1-.185-.057.187.187 0 0 1-.062-.141.285.285 0 0 1 .256-.254l.715-.091a.277.277 0 0 0 .24-.276l-.03-.766a.271.271 0 0 0-.261-.252l-1.172-.037a.312.312 0 0 0-.216.075.219.219 0 0 0-.011.325.311.311 0 0 0 .211.09" transform="translate(-203.78 -17.619)" style="fill:#231815"/>
            <path data-name="패스 613" d="M256.688 20.059a.24.24 0 0 0 .17-.063.29.29 0 0 0 .094-.2l.108-2.637a.265.265 0 0 0-.24-.286.238.238 0 0 0-.171.063.29.29 0 0 0-.093.2l-.109 2.639a.29.29 0 0 0 .076.209.243.243 0 0 0 .165.077" transform="translate(-219.408 -14.431)" style="fill:#231815"/>
            <path data-name="패스 614" d="m283.018 23.977.1-2.433a.266.266 0 0 0-.241-.287.24.24 0 0 0-.169.063.287.287 0 0 0-.094.2l-.1 2.435a.289.289 0 0 0 .075.211.246.246 0 0 0 .165.076.232.232 0 0 0 .169-.063.285.285 0 0 0 .094-.2" transform="translate(-241.71 -18.186)" style="fill:#231815"/>
            <path data-name="패스 615" d="M267.824 27.73a.82.82 0 1 0-.84-.823.834.834 0 0 0 .84.823m.005-1.206a.386.386 0 1 1-.4.384.392.392 0 0 1 .4-.384" transform="translate(-228.423 -22.323)" style="fill:#231815"/>
            <path data-name="패스 616" d="M252.093 41.177a.227.227 0 0 0-.094-.151.311.311 0 0 0-.222-.055l-.909.115a.232.232 0 0 1-.178-.049.218.218 0 0 1-.08-.163l-.016-.443a.264.264 0 0 0-.262-.268.236.236 0 0 0-.164.074.288.288 0 0 0-.078.211l.035.978a.226.226 0 0 0 .082.165.238.238 0 0 0 .181.05l1.455-.184a.266.266 0 0 0 .251-.279" transform="translate(-213.969 -34.361)" style="fill:#231815"/>
            <path data-name="패스 617" d="M179.339 58.988a.414.414 0 0 0 .543-.22l.808-1.917.792 1.924a.415.415 0 0 0 .382.256.4.4 0 0 0 .159-.031.414.414 0 0 0 .225-.54l-1.169-2.843a.414.414 0 0 0-.764 0l-1.195 2.833a.414.414 0 0 0 .22.543" transform="translate(-153.221 -47.364)" style="fill:#231815"/>
            <path data-name="패스 618" d="M210.993 64.524a.414.414 0 0 0-.028-.827l-2.54-.011a.414.414 0 0 0-.034.827 1.438 1.438 0 1 0 2.6.011m-1.306 1.215a.61.61 0 1 1 .613-.607.61.61 0 0 1-.613.607" transform="translate(-177.967 -54.489)" style="fill:#231815"/>
            <path data-name="패스 619" d="M286.092 58.276a1.652 1.652 0 1 0 1.645 1.659 1.654 1.654 0 0 0-1.645-1.659m-.011 2.476a.824.824 0 1 1 .828-.82.825.825 0 0 1-.828.82" transform="translate(-243.352 -49.859)" style="fill:#231815"/>
            <path data-name="패스 620" d="m180.951 85.111-2.668-.011a.414.414 0 1 0 0 .827h.92l-.007 1.741a.414.414 0 0 0 .827 0l.007-1.741h.921a.414.414 0 0 0 0-.827" transform="translate(-152.178 -72.809)" style="fill:#231815"/>
            <path data-name="패스 621" d="M213.447 55.781a.414.414 0 0 0 0 .827h1.1a.414.414 0 1 0 0-.827z" transform="translate(-182.264 -47.725)" style="fill:#231815"/>
            <path data-name="패스 622" d="M230.027 58a.414.414 0 1 0 0-.827h-.694l.006-1.39a.414.414 0 0 0-.828 0l-.024 5.587h-.578a.414.414 0 1 0 0 .827H229.564l-.009 2.07a.413.413 0 1 0 .827 0l.011-2.483a.414.414 0 0 0-.412-.416h-.665l.016-3.368z" transform="translate(-194.64 -47.368)" style="fill:#231815"/>
            <path data-name="패스 623" d="M312.077 57.5h-.725l.006-1.39a.414.414 0 0 0-.827 0l-.025 5.824a.413.413 0 1 0 .827 0l.016-3.606h.725a.414.414 0 0 0 0-.827" transform="translate(-265.66 -47.653)" style="fill:#231815"/>
            <path data-name="패스 624" d="M257.6 96.991a1.674 1.674 0 1 0 1.667 1.682 1.676 1.676 0 0 0-1.667-1.682m-.011 2.52a.847.847 0 1 1 .85-.843.847.847 0 0 1-.85.843" transform="translate(-218.957 -82.982)" style="fill:#231815"/>
            <path data-name="패스 625" d="m259.082 58.33-2.469-.011a.414.414 0 0 0-.416.413l-.01 2.394a.414.414 0 0 0 .412.416h.82v.931h-.82a.414.414 0 1 0 0 .827l2.469.011a.414.414 0 1 0 0-.827h-.82v-.932h.82a.414.414 0 0 0 0-.829l-2.055-.009.007-1.567 2.055.008a.414.414 0 0 0 0-.827" transform="translate(-219.179 -49.896)" style="fill:#231815"/>
        </g>
    </g>
    <g data-name="그룹 34">
        <g data-name="그룹 33" style="clip-path:url(#su73gz8f5a)" transform="translate(.52)">
            <path data-name="패스 626" d="M24.476 13.525c0-5.138-5.479-9.3-12.238-9.3S0 8.387 0 13.525s5.479 9.3 12.238 9.3a15.89 15.89 0 0 0 3.322-.347l6.023 2.77-2.028-4.268c2.987-1.7 4.921-4.405 4.921-7.458" transform="translate(0 -3.612)" style="fill:#e83428"/>
            <path data-name="패스 627" d="M89.7 20.1a.24.24 0 0 0 .168-.064.291.291 0 0 0 .093-.2l.1-2.624a.263.263 0 0 0-.24-.284.239.239 0 0 0-.169.063.288.288 0 0 0-.092.2l-.1 2.624a.289.289 0 0 0 .077.209.239.239 0 0 0 .164.075" transform="translate(-76.535 -14.48)" style="fill:#fff"/>
            <path data-name="패스 628" d="m71.5 21.2.7.019c.139 0 .256.084.26.181s-.1.189-.243.208l-.688.09a.294.294 0 0 0-.251.276l-.007.91a.219.219 0 0 0 .073.168.233.233 0 0 0 .177.057l1.61-.141a.265.265 0 0 0 .261-.267.268.268 0 0 0-.305-.218l-1.063.093a.245.245 0 0 1-.184-.056.182.182 0 0 1-.062-.14.283.283 0 0 1 .253-.255l.712-.093a.275.275 0 0 0 .238-.276l-.033-.761a.269.269 0 0 0-.261-.25l-1.166-.032a.307.307 0 0 0-.214.077.218.218 0 0 0-.01.322.307.307 0 0 0 .21.089" transform="translate(-60.937 -17.721)" style="fill:#fff"/>
            <path data-name="패스 629" d="M83.388 40.12a.238.238 0 0 0-.163.075.288.288 0 0 0-.077.21l.039.972a.22.22 0 0 0 .081.164.233.233 0 0 0 .18.049l1.452-.19a.264.264 0 0 0 .247-.278.225.225 0 0 0-.093-.151.309.309 0 0 0-.222-.055l-.9.118a.231.231 0 0 1-.178-.048.218.218 0 0 1-.08-.162l-.018-.44a.265.265 0 0 0-.262-.266" transform="translate(-71.139 -34.325)" style="fill:#fff"/>
            <path data-name="패스 630" d="m44.688 24.366.487-.022a.233.233 0 0 1 .174.063.22.22 0 0 1 .067.168l-.034.939a.264.264 0 0 0 .241.284.238.238 0 0 0 .168-.063.288.288 0 0 0 .093-.2l.089-2.422a.265.265 0 0 0-.241-.284.239.239 0 0 0-.168.064.287.287 0 0 0-.092.2l-.018.506a.277.277 0 0 1-.262.258l-.526.024a.322.322 0 0 0-.091.018.814.814 0 1 0-.01.449.32.32 0 0 0 .124.019m-.925.121a.384.384 0 1 1 .395-.384.39.39 0 0 1-.395.384" transform="translate(-36.725 -19.529)" style="fill:#fff"/>
            <path data-name="패스 631" d="M115.978 21.463a.263.263 0 0 0-.241-.284.239.239 0 0 0-.169.063.288.288 0 0 0-.092.2l-.088 2.422a.287.287 0 0 0 .077.209.234.234 0 0 0 .332.011.288.288 0 0 0 .093-.2z" transform="translate(-98.722 -18.12)" style="fill:#fff"/>
            <path data-name="패스 632" d="M100.749 27.667a.815.815 0 1 0-.839-.815.828.828 0 0 0 .839.815m0-1.2a.384.384 0 1 1-.4.384.389.389 0 0 1 .4-.384" transform="translate(-85.48 -22.277)" style="fill:#fff"/>
            <path data-name="패스 633" d="M13.56 59.314h1.94v2.264h.778v-3.016H13.56z" transform="translate(-11.602 -50.104)" style="fill:#fff"/>
            <path data-name="패스 634" d="M15.144 73.328h-.778v1.755h-.806v.755h2.72v-.755h-1.136z" transform="translate(-11.602 -62.737)" style="fill:#fff"/>
            <path data-name="패스 635" d="M38.167 56.9h-.777v6.208h.778v-3.879h1.068v-.755h-1.069z" transform="translate(-31.989 -48.682)" style="fill:#fff"/>
            <path data-name="패스 636" d="M143.9 58.474V56.9h-.778v6.208h.778v-3.879h1.069v-.755z" transform="translate(-122.449 -48.682)" style="fill:#fff"/>
            <path data-name="패스 637" d="M119.82 58.454a1.519 1.519 0 1 0 1.563 1.518 1.543 1.543 0 0 0-1.563-1.518m0 2.283a.765.765 0 1 1 .788-.765.777.777 0 0 1-.788.765" transform="translate(-101.177 -50.011)" style="fill:#fff"/>
            <path data-name="패스 638" d="M96.989 59.338v-.754H93.9v3h1.189v.892H93.9v.757h3.093v-.757h-1.13v-.892h1.126v-.757h-2.315v-1.489z" transform="translate(-80.335 -50.123)" style="fill:#fff"/>
            <path data-name="패스 639" d="M95.237 94.47a1.545 1.545 0 1 0 1.59 1.544 1.569 1.569 0 0 0-1.59-1.544m0 2.331a.787.787 0 1 1 .81-.787.8.8 0 0 1-.81.787" transform="translate(-80.122 -80.826)" style="fill:#fff"/>
            <path data-name="사각형 1621" transform="translate(8.365 8.217)" style="fill:#fff" d="M0 0h1.713v.685H0z"/>
            <path data-name="패스 640" d="M73 56.9h-.776v5.456h-.93v.752h1.943v2.262h.778v-3.014H73v-3.127h1.07v-.755H73z" transform="translate(-60.997 -48.682)" style="fill:#fff"/>
            <path data-name="패스 641" d="m56.183 64.638-.01-.024h.249V63.9h-2.97v.716h.248l-.01.024a1.3 1.3 0 0 0-.106.515 1.354 1.354 0 0 0 2.707 0 1.27 1.27 0 0 0-.109-.515m-1.245 1.1a.584.584 0 1 1 .6-.584.593.593 0 0 1-.6.584" transform="translate(-45.732 -54.669)" style="fill:#fff"/>
        </g>
    </g>
</svg>
