<svg xmlns="http://www.w3.org/2000/svg" width="43" height="38"><g transform="translate(.5 .5)"><path data-name="패스 1839" d="M17.282 6.25a5 5 0 1 1-5-5 5 5 0 0 1 5 5z" transform="translate(8.218 5.25)" style="stroke-width:2px;stroke-miterlimit:10;stroke:#ff5050;fill:none"/><path data-name="패스 1840" d="M21.25 27.095v-4.274a3.846 3.846 0 0 0-3.95-3.71H5.192a3.853 3.853 0 0 0-3.94 3.727v4.273" transform="translate(9.25 1.389)" style="stroke-linecap:round;stroke-width:2px;stroke-miterlimit:10;stroke:#ff5050;fill:none"/><path data-name="패스 1835" d="M247.8 586.2h-6v6" transform="translate(-241.8 -586.2)" style="stroke-linecap:round;stroke:#ff5050;fill:none"/><path data-name="패스 1836" d="M241.8 586.2h6v6" transform="translate(-207.8 -586.2)" style="stroke-linecap:round;stroke:#ff5050;fill:none"/><path data-name="패스 1837" d="M247.8 592.2h-6v-6" transform="translate(-241.8 -555.2)" style="stroke-linecap:round;stroke:#ff5050;fill:none"/><path data-name="패스 1838" d="M241.8 592.2h6v-6" transform="translate(-207.8 -555.2)" style="stroke-linecap:round;stroke:#ff5050;fill:none"/><g data-name="타원 278" transform="translate(23.5 13.5)" style="fill:#fef8d9;stroke-width:2px;stroke:#ff5050"><circle cx="9.5" cy="9.5" r="9.5" style="stroke:none" stroke="none"/><circle cx="9.5" cy="9.5" r="8.5" style="fill:none"/></g><rect data-name="사각형 1657" width="3" height="3" rx="1.5" transform="translate(31.5 16.5)" style="fill:#ff5050"/><rect data-name="사각형 1658" width="3" height="9" rx="1.5" transform="translate(31.5 20.5)" style="fill:#ff5050"/></g></svg>