<svg xmlns="http://www.w3.org/2000/svg" width="42" height="42"><defs><filter id="a" x="0" y="0" width="42" height="42" filterUnits="userSpaceOnUse"><feOffset dy="3"/><feGaussianBlur stdDeviation="3" result="blur"/><feFlood flood-opacity=".161"/><feComposite operator="in" in2="blur"/><feComposite in="SourceGraphic"/></filter></defs><g style="filter:url(#a)"><rect data-name="사각형 1677" width="24" height="24" rx="12" transform="translate(9 6)" style="fill:#3cb371"/></g><path d="m-8112.333-9688.5-2.042-1.875 9.063-9.281 5.313-.677 3 1.75-.667 2.75-2.9 2.3 1.219 2.188-1.653 1.845 1.406 1.813a53.439 53.439 0 0 0-5.094 5.063" transform="translate(8122 9713)" style="fill:rgba(0,0,0,.2)"/><path d="M-2.943-3.747a1.686 1.686 0 0 1 .482-1.273A1.879 1.879 0 0 1-1.1-5.485a1.858 1.858 0 0 1 1.359.473A1.692 1.692 0 0 1 .74-3.747a1.692 1.692 0 0 1-.482 1.265 1.858 1.858 0 0 1-1.358.473 1.879 1.879 0 0 1-1.359-.465 1.686 1.686 0 0 1-.484-1.273zm.1-2.547v-1.05a5.015 5.015 0 0 1 .224-1.635 2.049 2.049 0 0 1 .946-1.067q.568-.344 1.015-.619a5.442 5.442 0 0 0 .723-.516 2.2 2.2 0 0 0 .551-.7 1.923 1.923 0 0 0 .138-.766 1.166 1.166 0 0 0-.413-.946 1.508 1.508 0 0 0-1-.344 2.049 2.049 0 0 0-1.076.284 1.364 1.364 0 0 0-.628.817 1.673 1.673 0 0 1-.688.946 1.921 1.921 0 0 1-1.222.275 1.776 1.776 0 0 1-.568-.129 1.351 1.351 0 0 1-.473-.318 1.562 1.562 0 0 1-.318-.508 1.668 1.668 0 0 1-.1-.7 2.908 2.908 0 0 1 .43-1.471 4.049 4.049 0 0 1 1.1-1.179A5.476 5.476 0 0 1-2.6-16.7a6.506 6.506 0 0 1 1.946-.28 6.934 6.934 0 0 1 1.97.267 4.4 4.4 0 0 1 1.557.8A3.66 3.66 0 0 1 3.9-14.562a4.617 4.617 0 0 1 .37 1.919 4.931 4.931 0 0 1-.206 1.514 3.515 3.515 0 0 1-.674 1.187 7.132 7.132 0 0 1-.972.895q-.576.447-1.213.86a1.151 1.151 0 0 0-.465.508 1.684 1.684 0 0 0-.1.611v.774z" transform="translate(22 28)" style="fill:#fff"/></svg>