<svg xmlns="http://www.w3.org/2000/svg" width="15" height="12"><g data-name="Icon awesome-heart" style="fill:#fff"><path d="M7.498 13.748a.463.463 0 0 1-.32-.123l-5.67-5.352A3.162 3.162 0 0 1 .504 5.831c.043-.927.491-1.769 1.26-2.369.6-.467 1.343-.714 2.15-.714.99 0 1.961.382 2.666 1.048l.577.544.343.323.343-.323.577-.544a3.92 3.92 0 0 1 2.668-1.048c.806 0 1.549.247 2.149.715.769.6 1.216 1.441 1.26 2.369a3.161 3.161 0 0 1-1.009 2.441l-5.669 5.352a.463.463 0 0 1-.32.123z" style="stroke:none" transform="translate(.001 -2.248)"/><path d="M3.912 3.248c-.693 0-1.33.21-1.841.609-.653.509-1.032 1.218-1.069 1.998-.037.772.265 1.502.85 2.055l5.646 5.33 5.646-5.33c.586-.553.889-1.283.852-2.055-.036-.78-.416-1.49-1.067-1.998a2.961 2.961 0 0 0-1.842-.61c-.863 0-1.71.333-2.325.913L7.5 5.35 6.235 4.16a3.409 3.409 0 0 0-2.323-.912m0-1a4.41 4.41 0 0 1 3.01 1.184l.577.544.577-.544c1.474-1.39 3.862-1.615 5.467-.364 1.84 1.436 1.937 4.013.287 5.569l-5.669 5.352a.98.98 0 0 1-1.327 0L1.165 8.637c-1.646-1.556-1.55-4.133.29-5.569a3.976 3.976 0 0 1 2.457-.82z" style="fill:#f6c34b;stroke:none" transform="translate(.001 -2.248)"/></g></svg>