<svg xmlns="http://www.w3.org/2000/svg" width="54" height="36"><path data-name="패스 1818" d="M13.532 34.266v6h10" transform="translate(17.469 -12.265)" style="stroke-linejoin:round;stroke-linecap:round;stroke:#ff5050;stroke-width:2px;fill:none"/><path data-name="패스 1819" d="M35.532 1.25h-22v7" transform="translate(17.468 -.25)" style="stroke-linejoin:round;stroke-linecap:round;stroke:#ff5050;stroke-width:2px;fill:none"/><path data-name="패스 1832" d="M34.625 1.769 23.532 8.007V35.25l12-6.75V1.25" transform="translate(17.468 -.25)" style="fill:#fef8d9;stroke-linejoin:round;stroke-linecap:round;stroke:#ff5050;stroke-width:2px"/><path data-name="선 53" transform="translate(25 15)" style="stroke-linejoin:round;stroke-linecap:round;stroke:#ff5050;stroke-width:2px;fill:none" d="M12 .001 0 0"/><path data-name="패스 1820" d="m18.53 27.738 4-3.985-4-4.015" transform="translate(15.47 -8.738)" style="stroke-linejoin:round;stroke-linecap:round;stroke:#ff5050;stroke-width:2px;fill:none"/><path data-name="선 54" transform="translate(45 17)" style="stroke-linejoin:round;stroke-linecap:round;stroke:#ff5050;stroke-width:2px;fill:none" d="M0 0v3"/><path data-name="패스 1821" d="M17.282 6.25a5 5 0 1 1-5-5 5 5 0 0 1 5 5z" transform="translate(-1.282 2.75)" style="stroke-miterlimit:10;stroke:#ff5050;stroke-width:2px;fill:none"/><path data-name="패스 1822" d="M21.25 27.095v-4.274a3.846 3.846 0 0 0-3.95-3.71H5.192a3.853 3.853 0 0 0-3.94 3.727v4.273" transform="translate(-.25 -1.111)" style="stroke-miterlimit:10;stroke-linecap:round;stroke:#ff5050;stroke-width:2px;fill:none"/></svg>