<svg id="ico_쪽지_안읽음" xmlns="http://www.w3.org/2000/svg" xmlns:xlink="http://www.w3.org/1999/xlink" width="13" height="19" viewBox="0 0 13 19">
  <defs>
    <clipPath id="clip-path">
      <rect id="사각형_2150" data-name="사각형 2150" width="13" height="19" transform="translate(151 284)" fill="#fff" opacity="0.37"/>
    </clipPath>
  </defs>
  <g id="마스크_그룹_8" data-name="마스크 그룹 8" transform="translate(-151 -284)" clip-path="url(#clip-path)">
    <g id="사각형_2149" data-name="사각형 2149" transform="translate(152 284)" fill="#fff" stroke="#ff5050" stroke-width="1">
      <path d="M2,0H12a0,0,0,0,1,0,0V10a2,2,0,0,1-2,2H2a2,2,0,0,1-2-2V2A2,2,0,0,1,2,0Z" stroke="none"/>
      <path d="M2,.5h9.5a0,0,0,0,1,0,0V10A1.5,1.5,0,0,1,10,11.5H2A1.5,1.5,0,0,1,.5,10V2A1.5,1.5,0,0,1,2,.5Z" fill="none"/>
    </g>
    <path id="패스_4437" data-name="패스 4437" d="M0,0,5,5" transform="translate(153 285)" fill="none" stroke="#ff5050" stroke-width="1"/>
    <g id="패스_4436" data-name="패스 4436" transform="translate(159.335 288.657) rotate(45)" fill="#fff">
      <path d="M 7 11.29294204711914 L 1 11.29294204711914 C 0.7243000268936157 11.29294204711914 0.5 11.07328224182129 0.5 10.8032922744751 L 0.5053883790969849 -5.384879112243652 L 7.465157508850098 1.574889779090881 L 7.5 10.80518245697021 C 7.5 11.07328224182129 7.275700092315674 11.29294204711914 7 11.29294204711914 Z" stroke="none"/>
      <path d="M 1.004986763000488 -4.178160667419434 L 1 10.79294204711914 L 6.999954223632812 10.79229259490967 L 6.965945243835449 1.782797574996948 L 1.004986763000488 -4.178160667419434 M 0.005790233612060547 -6.591577529907227 L 7.964379787445068 1.36701226234436 L 8 10.8032922744751 C 8 11.34986209869385 7.552279949188232 11.79294204711914 7 11.79294204711914 L 1 11.79294204711914 C 0.4477200508117676 11.79294204711914 0 11.34986209869385 0 10.8032922744751 L 0.005790233612060547 -6.591577529907227 Z" stroke="none" fill="#ff5050"/>
    </g>
  </g>
</svg>
