<svg xmlns="http://www.w3.org/2000/svg" width="12" height="14" viewBox="0 0 12 14">
    <defs>
        <clipPath id="uwtqxvwxua">
            <path data-name="사각형 1595" transform="translate(0 .001)" style="fill:orange" d="M0 0h12v14H0z"/>
        </clipPath>
    </defs>
    <g data-name="그룹 26" transform="translate(0 -.001)" style="clip-path:url(#uwtqxvwxua)">
        <path data-name="패스 602" d="M0 12.52a.341.341 0 0 0 .328.353h2.751a.314.314 0 0 0 .225-.1.363.363 0 0 0 .1-.255v-.241a2.875 2.875 0 0 0 2.058.861h4.542a1.3 1.3 0 0 0 1.296-1.305 1.313 1.313 0 0 0-.365-.91c.024-.019.046-.04.069-.061a1.316 1.316 0 0 0 .034-1.906c.023-.02.045-.042.067-.063a1.316 1.316 0 0 0-.067-1.942l.034-.037a1.31 1.31 0 0 0-.936-2.2H7.617c.064-.3.119-.568.179-.862l.113-.549a4.557 4.557 0 0 0-.088-1.892A1.742 1.742 0 0 0 6.649.045a.976.976 0 0 0-.877.134 1.888 1.888 0 0 0-.51 1.351l-.022.246a4.847 4.847 0 0 1-.082.654 6.515 6.515 0 0 1-.623 1.743 5.958 5.958 0 0 1-.968 1.247c-.056.049-.109.1-.161.153v-.065a.366.366 0 0 0-.08-.229.28.28 0 0 0-.232-.116H.441a.574.574 0 0 0-.368.125.365.365 0 0 0-.073.22v7.012zm9.473-1.289h.534a.6.6 0 1 1 0 1.2H5.465A2.225 2.225 0 0 1 3.407 11.1V6.757a2.211 2.211 0 0 1 .177-.333.333.333 0 0 0 .016-.034.6.6 0 0 1 .108-.151l.033-.032.021-.022a2.3 2.3 0 0 1 .225-.224l.02-.019a6.714 6.714 0 0 0 1.071-1.374 7.172 7.172 0 0 0 .717-1.961 5.291 5.291 0 0 0 .1-.767v-.011c.035-.42.08-.937.261-1.078A.4.4 0 0 1 6.5.732c.425.107.64.563.739 1.057a4.045 4.045 0 0 1 .031 1.355l-.113.551c-.07.342-.132.648-.212 1.014l-.059.271a.373.373 0 0 0 .062.3.32.32 0 0 0 .258.134h2.929a.619.619 0 0 1 .633.6.6.6 0 0 1-.349.537.655.655 0 0 1-.284.064h-.66a.341.341 0 0 0-.328.353V7a.341.341 0 0 0 .328.353h.736a.618.618 0 0 1 .632.6.6.6 0 0 1-.419.566.649.649 0 0 1-.213.036h-.738a.341.341 0 0 0-.328.353v.031a.341.341 0 0 0 .328.353h.665a.618.618 0 0 1 .633.6.609.609 0 0 1-.472.582.656.656 0 0 1-.161.02h-.665a.341.341 0 0 0-.328.353v.03a.341.341 0 0 0 .328.353" transform="translate(0 .287)" style="fill:orange"/>
    </g>
</svg>
