<svg xmlns="http://www.w3.org/2000/svg" width="12" height="14" viewBox="0 0 12 14">
    <defs>
        <clipPath id="izskt4y0da">
            <path data-name="사각형 1596" style="fill:#50c785" d="M0 0h12v14H0z"/>
        </clipPath>
    </defs>
    <g data-name="그룹 27" style="clip-path:url(#izskt4y0da)">
        <path data-name="패스 603" d="M0 2.375v5.757a.394.394 0 0 0 .076.234.59.59 0 0 0 .384.134h2.77a.29.29 0 0 0 .242-.124.394.394 0 0 0 .084-.244v-.07c.054.056.11.111.168.163a6.335 6.335 0 0 1 1.011 1.328 7.029 7.029 0 0 1 .65 1.857 5.267 5.267 0 0 1 .086.7c.007.086.014.174.023.262a2.035 2.035 0 0 0 .532 1.44 1 1 0 0 0 .915.143A1.845 1.845 0 0 0 8.164 12.5a4.96 4.96 0 0 0 .091-2.016l-.118-.585c-.063-.313-.12-.6-.187-.919h2.626a1.372 1.372 0 0 0 1.346-1.39 1.413 1.413 0 0 0-.369-.955l-.036-.04a1.421 1.421 0 0 0 .069-2.069c-.023-.023-.045-.046-.07-.067a1.422 1.422 0 0 0-.035-2.031c-.024-.022-.047-.045-.072-.065a1.415 1.415 0 0 0 .381-.97A1.372 1.372 0 0 0 10.445 0H5.7a2.971 2.971 0 0 0-2.144.917V.661a.391.391 0 0 0-.108-.272.325.325 0 0 0-.235-.1H.343A.36.36 0 0 0 0 .661zm9.545.035v.032a.36.36 0 0 0 .343.376h.694a.68.68 0 0 1 .168.022.639.639 0 0 1-.169 1.26h-.694a.361.361 0 0 0-.343.376v.034a.36.36 0 0 0 .343.376h.768a.67.67 0 0 1 .222.038.643.643 0 0 1 .437.6.651.651 0 0 1-.66.641h-.767a.361.361 0 0 0-.343.376v.028a.36.36 0 0 0 .343.376h.689a.672.672 0 0 1 .3.069.64.64 0 0 1 .364.572.652.652 0 0 1-.661.642h-3.06a.332.332 0 0 0-.269.143.4.4 0 0 0-.064.32l.062.289c.083.39.148.715.221 1.08l.118.587a4.4 4.4 0 0 1-.032 1.444c-.1.526-.327 1.012-.771 1.126a.414.414 0 0 1-.357-.021c-.189-.15-.236-.7-.273-1.149v-.011a5.752 5.752 0 0 0-.1-.817A7.743 7.743 0 0 0 5.3 9.133 7.138 7.138 0 0 0 4.186 7.67l-.021-.02a2.387 2.387 0 0 1-.235-.239l-.022-.024-.035-.034a.639.639 0 0 1-.112-.161.378.378 0 0 0-.021-.037 2.372 2.372 0 0 1-.184-.355V2.178A2.321 2.321 0 0 1 5.7.752h4.741a.652.652 0 0 1 .66.641.652.652 0 0 1-.66.641h-.554a.361.361 0 0 0-.343.376" style="fill:#50c785"/>
    </g>
</svg>
